%TF.GenerationSoftware,KiCad,Pcbnew,9.0.6-1.fc43*%
%TF.CreationDate,2026-03-28T06:01:45+00:00*%
%TF.ProjectId,cptrep_8500_backplane,63707472-6570-45f3-9835-30305f626163,rev?*%
%TF.SameCoordinates,Original*%
%TF.FileFunction,Soldermask,Bot*%
%TF.FilePolarity,Negative*%
%FSLAX46Y46*%
G04 Gerber Fmt 4.6, Leading zero omitted, Abs format (unit mm)*
G04 Created by KiCad (PCBNEW 9.0.6-1.fc43) date 2026-03-28 06:01:45*
%MOMM*%
%LPD*%
G01*
G04 APERTURE LIST*
G04 Aperture macros list*
%AMRoundRect*
0 Rectangle with rounded corners*
0 $1 Rounding radius*
0 $2 $3 $4 $5 $6 $7 $8 $9 X,Y pos of 4 corners*
0 Add a 4 corners polygon primitive as box body*
4,1,4,$2,$3,$4,$5,$6,$7,$8,$9,$2,$3,0*
0 Add four circle primitives for the rounded corners*
1,1,$1+$1,$2,$3*
1,1,$1+$1,$4,$5*
1,1,$1+$1,$6,$7*
1,1,$1+$1,$8,$9*
0 Add four rect primitives between the rounded corners*
20,1,$1+$1,$2,$3,$4,$5,0*
20,1,$1+$1,$4,$5,$6,$7,0*
20,1,$1+$1,$6,$7,$8,$9,0*
20,1,$1+$1,$8,$9,$2,$3,0*%
G04 Aperture macros list end*
%ADD10C,3.500000*%
%ADD11R,1.905000X2.000000*%
%ADD12O,1.905000X2.000000*%
%ADD13RoundRect,0.225000X-1.025000X-0.525000X1.025000X-0.525000X1.025000X0.525000X-1.025000X0.525000X0*%
G04 APERTURE END LIST*
D10*
%TO.C,U1*%
X25000000Y-37570000D03*
D11*
X22460000Y-54230000D03*
D12*
X25000000Y-54230000D03*
X27540000Y-54230000D03*
%TD*%
D13*
%TO.C,J5*%
X129920000Y-37460000D03*
X135000000Y-37460000D03*
X129920000Y-40000000D03*
X135000000Y-40000000D03*
X129920000Y-42540000D03*
X135000000Y-42540000D03*
X129920000Y-45080000D03*
X135000000Y-45080000D03*
X129920000Y-47620000D03*
X135000000Y-47620000D03*
X129920000Y-50160000D03*
X135000000Y-50160000D03*
X129920000Y-52700000D03*
X135000000Y-52700000D03*
X129920000Y-55240000D03*
X135000000Y-55240000D03*
X129920000Y-57780000D03*
X135000000Y-57780000D03*
X129920000Y-60320000D03*
X135000000Y-60320000D03*
X129920000Y-62860000D03*
X135000000Y-62860000D03*
X129920000Y-65400000D03*
X135000000Y-65400000D03*
X129920000Y-67940000D03*
X135000000Y-67940000D03*
X129920000Y-70480000D03*
X135000000Y-70480000D03*
X129920000Y-73020000D03*
X135000000Y-73020000D03*
X129920000Y-75560000D03*
X135000000Y-75560000D03*
X129920000Y-78100000D03*
X135000000Y-78100000D03*
X129920000Y-80640000D03*
X135000000Y-80640000D03*
X129920000Y-83180000D03*
X135000000Y-83180000D03*
X129920000Y-85720000D03*
X135000000Y-85720000D03*
X129920000Y-88260000D03*
X135000000Y-88260000D03*
X129920000Y-90800000D03*
X135000000Y-90800000D03*
X129920000Y-93340000D03*
X135000000Y-93340000D03*
X129920000Y-95880000D03*
X135000000Y-95880000D03*
X129920000Y-98420000D03*
X135000000Y-98420000D03*
X129920000Y-100960000D03*
X135000000Y-100960000D03*
X129920000Y-103500000D03*
X135000000Y-103500000D03*
X129920000Y-106040000D03*
X135000000Y-106040000D03*
X129920000Y-108580000D03*
X135000000Y-108580000D03*
X129920000Y-111120000D03*
X135000000Y-111120000D03*
X129920000Y-113660000D03*
X135000000Y-113660000D03*
X129920000Y-116200000D03*
X135000000Y-116200000D03*
X129920000Y-118740000D03*
X135000000Y-118740000D03*
X129920000Y-121280000D03*
X135000000Y-121280000D03*
X129920000Y-123820000D03*
X135000000Y-123820000D03*
X129920000Y-126360000D03*
X135000000Y-126360000D03*
X129920000Y-128900000D03*
X135000000Y-128900000D03*
X129920000Y-131440000D03*
X135000000Y-131440000D03*
X129920000Y-133980000D03*
X135000000Y-133980000D03*
X129920000Y-136520000D03*
X135000000Y-136520000D03*
X129920000Y-139060000D03*
X135000000Y-139060000D03*
X129920000Y-141600000D03*
X135000000Y-141600000D03*
X129920000Y-144140000D03*
X135000000Y-144140000D03*
X129920000Y-146680000D03*
X135000000Y-146680000D03*
X129920000Y-149220000D03*
X135000000Y-149220000D03*
X129920000Y-151760000D03*
X135000000Y-151760000D03*
X129920000Y-154300000D03*
X135000000Y-154300000D03*
X129920000Y-156840000D03*
X135000000Y-156840000D03*
X129920000Y-159380000D03*
X135000000Y-159380000D03*
X129920000Y-161920000D03*
X135000000Y-161920000D03*
%TD*%
%TO.C,J4*%
X152340000Y-37580000D03*
X157420000Y-37580000D03*
X152340000Y-40120000D03*
X157420000Y-40120000D03*
X152340000Y-42660000D03*
X157420000Y-42660000D03*
X152340000Y-45200000D03*
X157420000Y-45200000D03*
X152340000Y-47740000D03*
X157420000Y-47740000D03*
X152340000Y-50280000D03*
X157420000Y-50280000D03*
X152340000Y-52820000D03*
X157420000Y-52820000D03*
X152340000Y-55360000D03*
X157420000Y-55360000D03*
X152340000Y-57900000D03*
X157420000Y-57900000D03*
X152340000Y-60440000D03*
X157420000Y-60440000D03*
X152340000Y-62980000D03*
X157420000Y-62980000D03*
X152340000Y-65520000D03*
X157420000Y-65520000D03*
X152340000Y-68060000D03*
X157420000Y-68060000D03*
X152340000Y-70600000D03*
X157420000Y-70600000D03*
X152340000Y-73140000D03*
X157420000Y-73140000D03*
X152340000Y-75680000D03*
X157420000Y-75680000D03*
X152340000Y-78220000D03*
X157420000Y-78220000D03*
X152340000Y-80760000D03*
X157420000Y-80760000D03*
X152340000Y-83300000D03*
X157420000Y-83300000D03*
X152340000Y-85840000D03*
X157420000Y-85840000D03*
X152340000Y-88380000D03*
X157420000Y-88380000D03*
X152340000Y-90920000D03*
X157420000Y-90920000D03*
X152340000Y-93460000D03*
X157420000Y-93460000D03*
X152340000Y-96000000D03*
X157420000Y-96000000D03*
X152340000Y-98540000D03*
X157420000Y-98540000D03*
X152340000Y-101080000D03*
X157420000Y-101080000D03*
X152340000Y-103620000D03*
X157420000Y-103620000D03*
X152340000Y-106160000D03*
X157420000Y-106160000D03*
X152340000Y-108700000D03*
X157420000Y-108700000D03*
X152340000Y-111240000D03*
X157420000Y-111240000D03*
X152340000Y-113780000D03*
X157420000Y-113780000D03*
X152340000Y-116320000D03*
X157420000Y-116320000D03*
X152340000Y-118860000D03*
X157420000Y-118860000D03*
X152340000Y-121400000D03*
X157420000Y-121400000D03*
X152340000Y-123940000D03*
X157420000Y-123940000D03*
X152340000Y-126480000D03*
X157420000Y-126480000D03*
X152340000Y-129020000D03*
X157420000Y-129020000D03*
X152340000Y-131560000D03*
X157420000Y-131560000D03*
X152340000Y-134100000D03*
X157420000Y-134100000D03*
X152340000Y-136640000D03*
X157420000Y-136640000D03*
X152340000Y-139180000D03*
X157420000Y-139180000D03*
X152340000Y-141720000D03*
X157420000Y-141720000D03*
X152340000Y-144260000D03*
X157420000Y-144260000D03*
X152340000Y-146800000D03*
X157420000Y-146800000D03*
X152340000Y-149340000D03*
X157420000Y-149340000D03*
X152340000Y-151880000D03*
X157420000Y-151880000D03*
X152340000Y-154420000D03*
X157420000Y-154420000D03*
X152340000Y-156960000D03*
X157420000Y-156960000D03*
X152340000Y-159500000D03*
X157420000Y-159500000D03*
X152340000Y-162040000D03*
X157420000Y-162040000D03*
%TD*%
%TO.C,J3*%
X84920000Y-37460000D03*
X90000000Y-37460000D03*
X84920000Y-40000000D03*
X90000000Y-40000000D03*
X84920000Y-42540000D03*
X90000000Y-42540000D03*
X84920000Y-45080000D03*
X90000000Y-45080000D03*
X84920000Y-47620000D03*
X90000000Y-47620000D03*
X84920000Y-50160000D03*
X90000000Y-50160000D03*
X84920000Y-52700000D03*
X90000000Y-52700000D03*
X84920000Y-55240000D03*
X90000000Y-55240000D03*
X84920000Y-57780000D03*
X90000000Y-57780000D03*
X84920000Y-60320000D03*
X90000000Y-60320000D03*
X84920000Y-62860000D03*
X90000000Y-62860000D03*
X84920000Y-65400000D03*
X90000000Y-65400000D03*
X84920000Y-67940000D03*
X90000000Y-67940000D03*
X84920000Y-70480000D03*
X90000000Y-70480000D03*
X84920000Y-73020000D03*
X90000000Y-73020000D03*
X84920000Y-75560000D03*
X90000000Y-75560000D03*
X84920000Y-78100000D03*
X90000000Y-78100000D03*
X84920000Y-80640000D03*
X90000000Y-80640000D03*
X84920000Y-83180000D03*
X90000000Y-83180000D03*
X84920000Y-85720000D03*
X90000000Y-85720000D03*
X84920000Y-88260000D03*
X90000000Y-88260000D03*
X84920000Y-90800000D03*
X90000000Y-90800000D03*
X84920000Y-93340000D03*
X90000000Y-93340000D03*
X84920000Y-95880000D03*
X90000000Y-95880000D03*
X84920000Y-98420000D03*
X90000000Y-98420000D03*
X84920000Y-100960000D03*
X90000000Y-100960000D03*
X84920000Y-103500000D03*
X90000000Y-103500000D03*
X84920000Y-106040000D03*
X90000000Y-106040000D03*
X84920000Y-108580000D03*
X90000000Y-108580000D03*
X84920000Y-111120000D03*
X90000000Y-111120000D03*
X84920000Y-113660000D03*
X90000000Y-113660000D03*
X84920000Y-116200000D03*
X90000000Y-116200000D03*
X84920000Y-118740000D03*
X90000000Y-118740000D03*
X84920000Y-121280000D03*
X90000000Y-121280000D03*
X84920000Y-123820000D03*
X90000000Y-123820000D03*
X84920000Y-126360000D03*
X90000000Y-126360000D03*
X84920000Y-128900000D03*
X90000000Y-128900000D03*
X84920000Y-131440000D03*
X90000000Y-131440000D03*
X84920000Y-133980000D03*
X90000000Y-133980000D03*
X84920000Y-136520000D03*
X90000000Y-136520000D03*
X84920000Y-139060000D03*
X90000000Y-139060000D03*
X84920000Y-141600000D03*
X90000000Y-141600000D03*
X84920000Y-144140000D03*
X90000000Y-144140000D03*
X84920000Y-146680000D03*
X90000000Y-146680000D03*
X84920000Y-149220000D03*
X90000000Y-149220000D03*
X84920000Y-151760000D03*
X90000000Y-151760000D03*
X84920000Y-154300000D03*
X90000000Y-154300000D03*
X84920000Y-156840000D03*
X90000000Y-156840000D03*
X84920000Y-159380000D03*
X90000000Y-159380000D03*
X84920000Y-161920000D03*
X90000000Y-161920000D03*
%TD*%
%TO.C,J2*%
X107420000Y-37500000D03*
X112500000Y-37500000D03*
X107420000Y-40040000D03*
X112500000Y-40040000D03*
X107420000Y-42580000D03*
X112500000Y-42580000D03*
X107420000Y-45120000D03*
X112500000Y-45120000D03*
X107420000Y-47660000D03*
X112500000Y-47660000D03*
X107420000Y-50200000D03*
X112500000Y-50200000D03*
X107420000Y-52740000D03*
X112500000Y-52740000D03*
X107420000Y-55280000D03*
X112500000Y-55280000D03*
X107420000Y-57820000D03*
X112500000Y-57820000D03*
X107420000Y-60360000D03*
X112500000Y-60360000D03*
X107420000Y-62900000D03*
X112500000Y-62900000D03*
X107420000Y-65440000D03*
X112500000Y-65440000D03*
X107420000Y-67980000D03*
X112500000Y-67980000D03*
X107420000Y-70520000D03*
X112500000Y-70520000D03*
X107420000Y-73060000D03*
X112500000Y-73060000D03*
X107420000Y-75600000D03*
X112500000Y-75600000D03*
X107420000Y-78140000D03*
X112500000Y-78140000D03*
X107420000Y-80680000D03*
X112500000Y-80680000D03*
X107420000Y-83220000D03*
X112500000Y-83220000D03*
X107420000Y-85760000D03*
X112500000Y-85760000D03*
X107420000Y-88300000D03*
X112500000Y-88300000D03*
X107420000Y-90840000D03*
X112500000Y-90840000D03*
X107420000Y-93380000D03*
X112500000Y-93380000D03*
X107420000Y-95920000D03*
X112500000Y-95920000D03*
X107420000Y-98460000D03*
X112500000Y-98460000D03*
X107420000Y-101000000D03*
X112500000Y-101000000D03*
X107420000Y-103540000D03*
X112500000Y-103540000D03*
X107420000Y-106080000D03*
X112500000Y-106080000D03*
X107420000Y-108620000D03*
X112500000Y-108620000D03*
X107420000Y-111160000D03*
X112500000Y-111160000D03*
X107420000Y-113700000D03*
X112500000Y-113700000D03*
X107420000Y-116240000D03*
X112500000Y-116240000D03*
X107420000Y-118780000D03*
X112500000Y-118780000D03*
X107420000Y-121320000D03*
X112500000Y-121320000D03*
X107420000Y-123860000D03*
X112500000Y-123860000D03*
X107420000Y-126400000D03*
X112500000Y-126400000D03*
X107420000Y-128940000D03*
X112500000Y-128940000D03*
X107420000Y-131480000D03*
X112500000Y-131480000D03*
X107420000Y-134020000D03*
X112500000Y-134020000D03*
X107420000Y-136560000D03*
X112500000Y-136560000D03*
X107420000Y-139100000D03*
X112500000Y-139100000D03*
X107420000Y-141640000D03*
X112500000Y-141640000D03*
X107420000Y-144180000D03*
X112500000Y-144180000D03*
X107420000Y-146720000D03*
X112500000Y-146720000D03*
X107420000Y-149260000D03*
X112500000Y-149260000D03*
X107420000Y-151800000D03*
X112500000Y-151800000D03*
X107420000Y-154340000D03*
X112500000Y-154340000D03*
X107420000Y-156880000D03*
X112500000Y-156880000D03*
X107420000Y-159420000D03*
X112500000Y-159420000D03*
X107420000Y-161960000D03*
X112500000Y-161960000D03*
%TD*%
%TO.C,J1*%
X62380000Y-37380000D03*
X67460000Y-37380000D03*
X62380000Y-39920000D03*
X67460000Y-39920000D03*
X62380000Y-42460000D03*
X67460000Y-42460000D03*
X62380000Y-45000000D03*
X67460000Y-45000000D03*
X62380000Y-47540000D03*
X67460000Y-47540000D03*
X62380000Y-50080000D03*
X67460000Y-50080000D03*
X62380000Y-52620000D03*
X67460000Y-52620000D03*
X62380000Y-55160000D03*
X67460000Y-55160000D03*
X62380000Y-57700000D03*
X67460000Y-57700000D03*
X62380000Y-60240000D03*
X67460000Y-60240000D03*
X62380000Y-62780000D03*
X67460000Y-62780000D03*
X62380000Y-65320000D03*
X67460000Y-65320000D03*
X62380000Y-67860000D03*
X67460000Y-67860000D03*
X62380000Y-70400000D03*
X67460000Y-70400000D03*
X62380000Y-72940000D03*
X67460000Y-72940000D03*
X62380000Y-75480000D03*
X67460000Y-75480000D03*
X62380000Y-78020000D03*
X67460000Y-78020000D03*
X62380000Y-80560000D03*
X67460000Y-80560000D03*
X62380000Y-83100000D03*
X67460000Y-83100000D03*
X62380000Y-85640000D03*
X67460000Y-85640000D03*
X62380000Y-88180000D03*
X67460000Y-88180000D03*
X62380000Y-90720000D03*
X67460000Y-90720000D03*
X62380000Y-93260000D03*
X67460000Y-93260000D03*
X62380000Y-95800000D03*
X67460000Y-95800000D03*
X62380000Y-98340000D03*
X67460000Y-98340000D03*
X62380000Y-100880000D03*
X67460000Y-100880000D03*
X62380000Y-103420000D03*
X67460000Y-103420000D03*
X62380000Y-105960000D03*
X67460000Y-105960000D03*
X62380000Y-108500000D03*
X67460000Y-108500000D03*
X62380000Y-111040000D03*
X67460000Y-111040000D03*
X62380000Y-113580000D03*
X67460000Y-113580000D03*
X62380000Y-116120000D03*
X67460000Y-116120000D03*
X62380000Y-118660000D03*
X67460000Y-118660000D03*
X62380000Y-121200000D03*
X67460000Y-121200000D03*
X62380000Y-123740000D03*
X67460000Y-123740000D03*
X62380000Y-126280000D03*
X67460000Y-126280000D03*
X62380000Y-128820000D03*
X67460000Y-128820000D03*
X62380000Y-131360000D03*
X67460000Y-131360000D03*
X62380000Y-133900000D03*
X67460000Y-133900000D03*
X62380000Y-136440000D03*
X67460000Y-136440000D03*
X62380000Y-138980000D03*
X67460000Y-138980000D03*
X62380000Y-141520000D03*
X67460000Y-141520000D03*
X62380000Y-144060000D03*
X67460000Y-144060000D03*
X62380000Y-146600000D03*
X67460000Y-146600000D03*
X62380000Y-149140000D03*
X67460000Y-149140000D03*
X62380000Y-151680000D03*
X67460000Y-151680000D03*
X62380000Y-154220000D03*
X67460000Y-154220000D03*
X62380000Y-156760000D03*
X67460000Y-156760000D03*
X62380000Y-159300000D03*
X67460000Y-159300000D03*
X62380000Y-161840000D03*
X67460000Y-161840000D03*
%TD*%
M02*
