M48
; DRILL file {KiCad 9.0.6-1.fc43} date 2026-03-20T05:45:40+0000
; FORMAT={-:-/ absolute / inch / decimal}
; #@! TF.CreationDate,2026-03-20T05:45:40+00:00
; #@! TF.GenerationSoftware,Kicad,Pcbnew,9.0.6-1.fc43
; #@! TF.FileFunction,Plated,1,2,PTH
FMAT,2
INCH
; #@! TA.AperFunction,Plated,PTH,ComponentDrill
T1C0.0280
%
G90
G05
T1
X2.1516Y-1.6138
X2.1516Y-1.7138
X2.1516Y-1.8138
X2.1516Y-1.9138
X2.1516Y-2.0138
X2.1516Y-2.1138
X2.1516Y-2.2138
X2.1516Y-2.3138
X2.1516Y-2.4138
X2.1516Y-2.5138
X2.1516Y-2.6138
X2.1516Y-2.7138
X2.1516Y-2.8138
X2.1516Y-2.9138
X2.1516Y-3.0138
X2.1516Y-3.1138
X2.1516Y-3.2138
X2.1516Y-3.3138
X2.1516Y-3.4138
X2.1516Y-3.5138
X2.1516Y-3.6138
X2.1516Y-3.7138
X2.1516Y-3.8138
X2.1516Y-3.9138
X2.1516Y-4.0138
X2.1516Y-4.1138
X2.1516Y-4.2138
X2.1516Y-4.3138
X2.1516Y-4.4138
X2.1516Y-4.5138
X2.1516Y-4.6138
X2.1516Y-4.7138
X2.1516Y-4.8138
X2.1516Y-4.9138
X2.1516Y-5.0138
X2.1516Y-5.1138
X2.1516Y-5.2138
X2.1516Y-5.3138
X2.1516Y-5.4138
X2.1516Y-5.5138
X2.1516Y-5.6138
X2.1516Y-5.7138
X2.1516Y-5.8138
X2.1516Y-5.9138
X2.1516Y-6.0138
X2.1516Y-6.1138
X2.1516Y-6.2138
X2.1516Y-6.3138
X2.1516Y-6.4138
X2.1516Y-6.5138
X2.2516Y-1.6138
X2.2516Y-1.7138
X2.2516Y-1.8138
X2.2516Y-1.9138
X2.2516Y-2.0138
X2.2516Y-2.1138
X2.2516Y-2.2138
X2.2516Y-2.3138
X2.2516Y-2.4138
X2.2516Y-2.5138
X2.2516Y-2.6138
X2.2516Y-2.7138
X2.2516Y-2.8138
X2.2516Y-2.9138
X2.2516Y-3.0138
X2.2516Y-3.1138
X2.2516Y-3.2138
X2.2516Y-3.3138
X2.2516Y-3.4138
X2.2516Y-3.5138
X2.2516Y-3.6138
X2.2516Y-3.7138
X2.2516Y-3.8138
X2.2516Y-3.9138
X2.2516Y-4.0138
X2.2516Y-4.1138
X2.2516Y-4.2138
X2.2516Y-4.3138
X2.2516Y-4.4138
X2.2516Y-4.5138
X2.2516Y-4.6138
X2.2516Y-4.7138
X2.2516Y-4.8138
X2.2516Y-4.9138
X2.2516Y-5.0138
X2.2516Y-5.1138
X2.2516Y-5.2138
X2.2516Y-5.3138
X2.2516Y-5.4138
X2.2516Y-5.5138
X2.2516Y-5.6138
X2.2516Y-5.7138
X2.2516Y-5.8138
X2.2516Y-5.9138
X2.2516Y-6.0138
X2.2516Y-6.1138
X2.2516Y-6.2138
X2.2516Y-6.3138
X2.2516Y-6.4138
X2.2516Y-6.5138
X2.8016Y-1.6173
X2.8016Y-1.7173
X2.8016Y-1.8173
X2.8016Y-1.9173
X2.8016Y-2.0173
X2.8016Y-2.1173
X2.8016Y-2.2173
X2.8016Y-2.3173
X2.8016Y-2.4173
X2.8016Y-2.5173
X2.8016Y-2.6173
X2.8016Y-2.7173
X2.8016Y-2.8173
X2.8016Y-2.9173
X2.8016Y-3.0173
X2.8016Y-3.1173
X2.8016Y-3.2173
X2.8016Y-3.3173
X2.8016Y-3.4173
X2.8016Y-3.5173
X2.8016Y-3.6173
X2.8016Y-3.7173
X2.8016Y-3.8173
X2.8016Y-3.9173
X2.8016Y-4.0173
X2.8016Y-4.1173
X2.8016Y-4.2173
X2.8016Y-4.3173
X2.8016Y-4.4173
X2.8016Y-4.5173
X2.8016Y-4.6173
X2.8016Y-4.7173
X2.8016Y-4.8173
X2.8016Y-4.9173
X2.8016Y-5.0173
X2.8016Y-5.1173
X2.8016Y-5.2173
X2.8016Y-5.3173
X2.8016Y-5.4173
X2.8016Y-5.5173
X2.8016Y-5.6173
X2.8016Y-5.7173
X2.8016Y-5.8173
X2.8016Y-5.9173
X2.8016Y-6.0173
X2.8016Y-6.1173
X2.8016Y-6.2173
X2.8016Y-6.3173
X2.8016Y-6.4173
X2.8016Y-6.5173
X2.9016Y-1.6173
X2.9016Y-1.7173
X2.9016Y-1.8173
X2.9016Y-1.9173
X2.9016Y-2.0173
X2.9016Y-2.1173
X2.9016Y-2.2173
X2.9016Y-2.3173
X2.9016Y-2.4173
X2.9016Y-2.5173
X2.9016Y-2.6173
X2.9016Y-2.7173
X2.9016Y-2.8173
X2.9016Y-2.9173
X2.9016Y-3.0173
X2.9016Y-3.1173
X2.9016Y-3.2173
X2.9016Y-3.3173
X2.9016Y-3.4173
X2.9016Y-3.5173
X2.9016Y-3.6173
X2.9016Y-3.7173
X2.9016Y-3.8173
X2.9016Y-3.9173
X2.9016Y-4.0173
X2.9016Y-4.1173
X2.9016Y-4.2173
X2.9016Y-4.3173
X2.9016Y-4.4173
X2.9016Y-4.5173
X2.9016Y-4.6173
X2.9016Y-4.7173
X2.9016Y-4.8173
X2.9016Y-4.9173
X2.9016Y-5.0173
X2.9016Y-5.1173
X2.9016Y-5.2173
X2.9016Y-5.3173
X2.9016Y-5.4173
X2.9016Y-5.5173
X2.9016Y-5.6173
X2.9016Y-5.7173
X2.9016Y-5.8173
X2.9016Y-5.9173
X2.9016Y-6.0173
X2.9016Y-6.1173
X2.9016Y-6.2173
X2.9016Y-6.3173
X2.9016Y-6.4173
X2.9016Y-6.5173
X3.5004Y-1.6122
X3.5004Y-1.7122
X3.5004Y-1.8122
X3.5004Y-1.9122
X3.5004Y-2.0122
X3.5004Y-2.1122
X3.5004Y-2.2122
X3.5004Y-2.3122
X3.5004Y-2.4122
X3.5004Y-2.5122
X3.5004Y-2.6122
X3.5004Y-2.7122
X3.5004Y-2.8122
X3.5004Y-2.9122
X3.5004Y-3.0122
X3.5004Y-3.1122
X3.5004Y-3.2122
X3.5004Y-3.3122
X3.5004Y-3.4122
X3.5004Y-3.5122
X3.5004Y-3.6122
X3.5004Y-3.7122
X3.5004Y-3.8122
X3.5004Y-3.9122
X3.5004Y-4.0122
X3.5004Y-4.1122
X3.5004Y-4.2122
X3.5004Y-4.3122
X3.5004Y-4.4122
X3.5004Y-4.5122
X3.5004Y-4.6122
X3.5004Y-4.7122
X3.5004Y-4.8122
X3.5004Y-4.9122
X3.5004Y-5.0122
X3.5004Y-5.1122
X3.5004Y-5.2122
X3.5004Y-5.3122
X3.5004Y-5.4122
X3.5004Y-5.5122
X3.5004Y-5.6122
X3.5004Y-5.7122
X3.5004Y-5.8122
X3.5004Y-5.9122
X3.5004Y-6.0122
X3.5004Y-6.1122
X3.5004Y-6.2122
X3.5004Y-6.3122
X3.5004Y-6.4122
X3.5004Y-6.5122
X3.6004Y-1.6122
X3.6004Y-1.7122
X3.6004Y-1.8122
X3.6004Y-1.9122
X3.6004Y-2.0122
X3.6004Y-2.1122
X3.6004Y-2.2122
X3.6004Y-2.3122
X3.6004Y-2.4122
X3.6004Y-2.5122
X3.6004Y-2.6122
X3.6004Y-2.7122
X3.6004Y-2.8122
X3.6004Y-2.9122
X3.6004Y-3.0122
X3.6004Y-3.1122
X3.6004Y-3.2122
X3.6004Y-3.3122
X3.6004Y-3.4122
X3.6004Y-3.5122
X3.6004Y-3.6122
X3.6004Y-3.7122
X3.6004Y-3.8122
X3.6004Y-3.9122
X3.6004Y-4.0122
X3.6004Y-4.1122
X3.6004Y-4.2122
X3.6004Y-4.3122
X3.6004Y-4.4122
X3.6004Y-4.5122
X3.6004Y-4.6122
X3.6004Y-4.7122
X3.6004Y-4.8122
X3.6004Y-4.9122
X3.6004Y-5.0122
X3.6004Y-5.1122
X3.6004Y-5.2122
X3.6004Y-5.3122
X3.6004Y-5.4122
X3.6004Y-5.5122
X3.6004Y-5.6122
X3.6004Y-5.7122
X3.6004Y-5.8122
X3.6004Y-5.9122
X3.6004Y-6.0122
X3.6004Y-6.1122
X3.6004Y-6.2122
X3.6004Y-6.3122
X3.6004Y-6.4122
X3.6004Y-6.5122
X4.1134Y-1.5953
X4.1134Y-1.6953
X4.1134Y-1.7953
X4.1134Y-1.8953
X4.1134Y-1.9953
X4.1134Y-2.0953
X4.1134Y-2.1953
X4.1134Y-2.2953
X4.1134Y-2.3953
X4.1134Y-2.4953
X4.1134Y-2.5953
X4.1134Y-2.6953
X4.1134Y-2.7953
X4.1134Y-2.8953
X4.1134Y-2.9953
X4.1134Y-3.0953
X4.1134Y-3.1953
X4.1134Y-3.2953
X4.1134Y-3.3953
X4.1134Y-3.4953
X4.1134Y-3.5953
X4.1134Y-3.6953
X4.1134Y-3.7953
X4.1134Y-3.8953
X4.1134Y-3.9953
X4.1134Y-4.0953
X4.1134Y-4.1953
X4.1134Y-4.2953
X4.1134Y-4.3953
X4.1134Y-4.4953
X4.1134Y-4.5953
X4.1134Y-4.6953
X4.1134Y-4.7953
X4.1134Y-4.8953
X4.1134Y-4.9953
X4.1134Y-5.0953
X4.1134Y-5.1953
X4.1134Y-5.2953
X4.1134Y-5.3953
X4.1134Y-5.4953
X4.1134Y-5.5953
X4.1134Y-5.6953
X4.1134Y-5.7953
X4.1134Y-5.8953
X4.1134Y-5.9953
X4.1134Y-6.0953
X4.1134Y-6.1953
X4.1134Y-6.2953
X4.1134Y-6.3953
X4.1134Y-6.4953
X4.2134Y-1.5953
X4.2134Y-1.6953
X4.2134Y-1.7953
X4.2134Y-1.8953
X4.2134Y-1.9953
X4.2134Y-2.0953
X4.2134Y-2.1953
X4.2134Y-2.2953
X4.2134Y-2.3953
X4.2134Y-2.4953
X4.2134Y-2.5953
X4.2134Y-2.6953
X4.2134Y-2.7953
X4.2134Y-2.8953
X4.2134Y-2.9953
X4.2134Y-3.0953
X4.2134Y-3.1953
X4.2134Y-3.2953
X4.2134Y-3.3953
X4.2134Y-3.4953
X4.2134Y-3.5953
X4.2134Y-3.6953
X4.2134Y-3.7953
X4.2134Y-3.8953
X4.2134Y-3.9953
X4.2134Y-4.0953
X4.2134Y-4.1953
X4.2134Y-4.2953
X4.2134Y-4.3953
X4.2134Y-4.4953
X4.2134Y-4.5953
X4.2134Y-4.6953
X4.2134Y-4.7953
X4.2134Y-4.8953
X4.2134Y-4.9953
X4.2134Y-5.0953
X4.2134Y-5.1953
X4.2134Y-5.2953
X4.2134Y-5.3953
X4.2134Y-5.4953
X4.2134Y-5.5953
X4.2134Y-5.6953
X4.2134Y-5.7953
X4.2134Y-5.8953
X4.2134Y-5.9953
X4.2134Y-6.0953
X4.2134Y-6.1953
X4.2134Y-6.2953
X4.2134Y-6.3953
X4.2134Y-6.4953
X4.6835Y-1.6008
X4.6835Y-1.7008
X4.6835Y-1.8008
X4.6835Y-1.9008
X4.6835Y-2.0008
X4.6835Y-2.1008
X4.6835Y-2.2008
X4.6835Y-2.3008
X4.6835Y-2.4008
X4.6835Y-2.5008
X4.6835Y-2.6008
X4.6835Y-2.7008
X4.6835Y-2.8008
X4.6835Y-2.9008
X4.6835Y-3.0008
X4.6835Y-3.1008
X4.6835Y-3.2008
X4.6835Y-3.3008
X4.6835Y-3.4008
X4.6835Y-3.5008
X4.6835Y-3.6008
X4.6835Y-3.7008
X4.6835Y-3.8008
X4.6835Y-3.9008
X4.6835Y-4.0008
X4.6835Y-4.1008
X4.6835Y-4.2008
X4.6835Y-4.3008
X4.6835Y-4.4008
X4.6835Y-4.5008
X4.6835Y-4.6008
X4.6835Y-4.7008
X4.6835Y-4.8008
X4.6835Y-4.9008
X4.6835Y-5.0008
X4.6835Y-5.1008
X4.6835Y-5.2008
X4.6835Y-5.3008
X4.6835Y-5.4008
X4.6835Y-5.5008
X4.6835Y-5.6008
X4.6835Y-5.7008
X4.6835Y-5.8008
X4.6835Y-5.9008
X4.6835Y-6.0008
X4.6835Y-6.1008
X4.6835Y-6.2008
X4.6835Y-6.3008
X4.6835Y-6.4008
X4.6835Y-6.5008
X4.7835Y-1.6008
X4.7835Y-1.7008
X4.7835Y-1.8008
X4.7835Y-1.9008
X4.7835Y-2.0008
X4.7835Y-2.1008
X4.7835Y-2.2008
X4.7835Y-2.3008
X4.7835Y-2.4008
X4.7835Y-2.5008
X4.7835Y-2.6008
X4.7835Y-2.7008
X4.7835Y-2.8008
X4.7835Y-2.9008
X4.7835Y-3.0008
X4.7835Y-3.1008
X4.7835Y-3.2008
X4.7835Y-3.3008
X4.7835Y-3.4008
X4.7835Y-3.5008
X4.7835Y-3.6008
X4.7835Y-3.7008
X4.7835Y-3.8008
X4.7835Y-3.9008
X4.7835Y-4.0008
X4.7835Y-4.1008
X4.7835Y-4.2008
X4.7835Y-4.3008
X4.7835Y-4.4008
X4.7835Y-4.5008
X4.7835Y-4.6008
X4.7835Y-4.7008
X4.7835Y-4.8008
X4.7835Y-4.9008
X4.7835Y-5.0008
X4.7835Y-5.1008
X4.7835Y-5.2008
X4.7835Y-5.3008
X4.7835Y-5.4008
X4.7835Y-5.5008
X4.7835Y-5.6008
X4.7835Y-5.7008
X4.7835Y-5.8008
X4.7835Y-5.9008
X4.7835Y-6.0008
X4.7835Y-6.1008
X4.7835Y-6.2008
X4.7835Y-6.3008
X4.7835Y-6.4008
X4.7835Y-6.5008
M30
