%TF.GenerationSoftware,KiCad,Pcbnew,9.0.6-1.fc43*%
%TF.CreationDate,2026-03-28T09:16:53+00:00*%
%TF.ProjectId,cptrep_8500_backplane,63707472-6570-45f3-9835-30305f626163,rev?*%
%TF.SameCoordinates,Original*%
%TF.FileFunction,Legend,Top*%
%TF.FilePolarity,Positive*%
%FSLAX46Y46*%
G04 Gerber Fmt 4.6, Leading zero omitted, Abs format (unit mm)*
G04 Created by KiCad (PCBNEW 9.0.6-1.fc43) date 2026-03-28 09:16:53*
%MOMM*%
%LPD*%
G01*
G04 APERTURE LIST*
%ADD10C,0.100000*%
%ADD11C,0.150000*%
%ADD12C,0.120000*%
G04 APERTURE END LIST*
D10*
X18607693Y-190880419D02*
X18036265Y-190880419D01*
X18321979Y-190880419D02*
X18321979Y-189880419D01*
X18321979Y-189880419D02*
X18226741Y-190023276D01*
X18226741Y-190023276D02*
X18131503Y-190118514D01*
X18131503Y-190118514D02*
X18036265Y-190166133D01*
X18988646Y-189975657D02*
X19036265Y-189928038D01*
X19036265Y-189928038D02*
X19131503Y-189880419D01*
X19131503Y-189880419D02*
X19369598Y-189880419D01*
X19369598Y-189880419D02*
X19464836Y-189928038D01*
X19464836Y-189928038D02*
X19512455Y-189975657D01*
X19512455Y-189975657D02*
X19560074Y-190070895D01*
X19560074Y-190070895D02*
X19560074Y-190166133D01*
X19560074Y-190166133D02*
X19512455Y-190308990D01*
X19512455Y-190308990D02*
X18941027Y-190880419D01*
X18941027Y-190880419D02*
X19560074Y-190880419D01*
X21512456Y-190499466D02*
X22274361Y-190499466D01*
X21893408Y-190880419D02*
X21893408Y-190118514D01*
X23226741Y-189880419D02*
X22750551Y-189880419D01*
X22750551Y-189880419D02*
X22702932Y-190356609D01*
X22702932Y-190356609D02*
X22750551Y-190308990D01*
X22750551Y-190308990D02*
X22845789Y-190261371D01*
X22845789Y-190261371D02*
X23083884Y-190261371D01*
X23083884Y-190261371D02*
X23179122Y-190308990D01*
X23179122Y-190308990D02*
X23226741Y-190356609D01*
X23226741Y-190356609D02*
X23274360Y-190451847D01*
X23274360Y-190451847D02*
X23274360Y-190689942D01*
X23274360Y-190689942D02*
X23226741Y-190785180D01*
X23226741Y-190785180D02*
X23179122Y-190832800D01*
X23179122Y-190832800D02*
X23083884Y-190880419D01*
X23083884Y-190880419D02*
X22845789Y-190880419D01*
X22845789Y-190880419D02*
X22750551Y-190832800D01*
X22750551Y-190832800D02*
X22702932Y-190785180D01*
X23560075Y-189880419D02*
X23893408Y-190880419D01*
X23893408Y-190880419D02*
X24226741Y-189880419D01*
X18607693Y-185800419D02*
X18036265Y-185800419D01*
X18321979Y-185800419D02*
X18321979Y-184800419D01*
X18321979Y-184800419D02*
X18226741Y-184943276D01*
X18226741Y-184943276D02*
X18131503Y-185038514D01*
X18131503Y-185038514D02*
X18036265Y-185086133D01*
X19560074Y-185800419D02*
X18988646Y-185800419D01*
X19274360Y-185800419D02*
X19274360Y-184800419D01*
X19274360Y-184800419D02*
X19179122Y-184943276D01*
X19179122Y-184943276D02*
X19083884Y-185038514D01*
X19083884Y-185038514D02*
X18988646Y-185086133D01*
X22036265Y-184848038D02*
X21941027Y-184800419D01*
X21941027Y-184800419D02*
X21798170Y-184800419D01*
X21798170Y-184800419D02*
X21655313Y-184848038D01*
X21655313Y-184848038D02*
X21560075Y-184943276D01*
X21560075Y-184943276D02*
X21512456Y-185038514D01*
X21512456Y-185038514D02*
X21464837Y-185228990D01*
X21464837Y-185228990D02*
X21464837Y-185371847D01*
X21464837Y-185371847D02*
X21512456Y-185562323D01*
X21512456Y-185562323D02*
X21560075Y-185657561D01*
X21560075Y-185657561D02*
X21655313Y-185752800D01*
X21655313Y-185752800D02*
X21798170Y-185800419D01*
X21798170Y-185800419D02*
X21893408Y-185800419D01*
X21893408Y-185800419D02*
X22036265Y-185752800D01*
X22036265Y-185752800D02*
X22083884Y-185705180D01*
X22083884Y-185705180D02*
X22083884Y-185371847D01*
X22083884Y-185371847D02*
X21893408Y-185371847D01*
X22512456Y-185800419D02*
X22512456Y-184800419D01*
X22512456Y-184800419D02*
X23083884Y-185800419D01*
X23083884Y-185800419D02*
X23083884Y-184800419D01*
X23560075Y-185800419D02*
X23560075Y-184800419D01*
X23560075Y-184800419D02*
X23798170Y-184800419D01*
X23798170Y-184800419D02*
X23941027Y-184848038D01*
X23941027Y-184848038D02*
X24036265Y-184943276D01*
X24036265Y-184943276D02*
X24083884Y-185038514D01*
X24083884Y-185038514D02*
X24131503Y-185228990D01*
X24131503Y-185228990D02*
X24131503Y-185371847D01*
X24131503Y-185371847D02*
X24083884Y-185562323D01*
X24083884Y-185562323D02*
X24036265Y-185657561D01*
X24036265Y-185657561D02*
X23941027Y-185752800D01*
X23941027Y-185752800D02*
X23798170Y-185800419D01*
X23798170Y-185800419D02*
X23560075Y-185800419D01*
X18607693Y-180720419D02*
X18036265Y-180720419D01*
X18321979Y-180720419D02*
X18321979Y-179720419D01*
X18321979Y-179720419D02*
X18226741Y-179863276D01*
X18226741Y-179863276D02*
X18131503Y-179958514D01*
X18131503Y-179958514D02*
X18036265Y-180006133D01*
X19226741Y-179720419D02*
X19321979Y-179720419D01*
X19321979Y-179720419D02*
X19417217Y-179768038D01*
X19417217Y-179768038D02*
X19464836Y-179815657D01*
X19464836Y-179815657D02*
X19512455Y-179910895D01*
X19512455Y-179910895D02*
X19560074Y-180101371D01*
X19560074Y-180101371D02*
X19560074Y-180339466D01*
X19560074Y-180339466D02*
X19512455Y-180529942D01*
X19512455Y-180529942D02*
X19464836Y-180625180D01*
X19464836Y-180625180D02*
X19417217Y-180672800D01*
X19417217Y-180672800D02*
X19321979Y-180720419D01*
X19321979Y-180720419D02*
X19226741Y-180720419D01*
X19226741Y-180720419D02*
X19131503Y-180672800D01*
X19131503Y-180672800D02*
X19083884Y-180625180D01*
X19083884Y-180625180D02*
X19036265Y-180529942D01*
X19036265Y-180529942D02*
X18988646Y-180339466D01*
X18988646Y-180339466D02*
X18988646Y-180101371D01*
X18988646Y-180101371D02*
X19036265Y-179910895D01*
X19036265Y-179910895D02*
X19083884Y-179815657D01*
X19083884Y-179815657D02*
X19131503Y-179768038D01*
X19131503Y-179768038D02*
X19226741Y-179720419D01*
X22036265Y-179768038D02*
X21941027Y-179720419D01*
X21941027Y-179720419D02*
X21798170Y-179720419D01*
X21798170Y-179720419D02*
X21655313Y-179768038D01*
X21655313Y-179768038D02*
X21560075Y-179863276D01*
X21560075Y-179863276D02*
X21512456Y-179958514D01*
X21512456Y-179958514D02*
X21464837Y-180148990D01*
X21464837Y-180148990D02*
X21464837Y-180291847D01*
X21464837Y-180291847D02*
X21512456Y-180482323D01*
X21512456Y-180482323D02*
X21560075Y-180577561D01*
X21560075Y-180577561D02*
X21655313Y-180672800D01*
X21655313Y-180672800D02*
X21798170Y-180720419D01*
X21798170Y-180720419D02*
X21893408Y-180720419D01*
X21893408Y-180720419D02*
X22036265Y-180672800D01*
X22036265Y-180672800D02*
X22083884Y-180625180D01*
X22083884Y-180625180D02*
X22083884Y-180291847D01*
X22083884Y-180291847D02*
X21893408Y-180291847D01*
X22512456Y-180720419D02*
X22512456Y-179720419D01*
X22512456Y-179720419D02*
X23083884Y-180720419D01*
X23083884Y-180720419D02*
X23083884Y-179720419D01*
X23560075Y-180720419D02*
X23560075Y-179720419D01*
X23560075Y-179720419D02*
X23798170Y-179720419D01*
X23798170Y-179720419D02*
X23941027Y-179768038D01*
X23941027Y-179768038D02*
X24036265Y-179863276D01*
X24036265Y-179863276D02*
X24083884Y-179958514D01*
X24083884Y-179958514D02*
X24131503Y-180148990D01*
X24131503Y-180148990D02*
X24131503Y-180291847D01*
X24131503Y-180291847D02*
X24083884Y-180482323D01*
X24083884Y-180482323D02*
X24036265Y-180577561D01*
X24036265Y-180577561D02*
X23941027Y-180672800D01*
X23941027Y-180672800D02*
X23798170Y-180720419D01*
X23798170Y-180720419D02*
X23560075Y-180720419D01*
X18131503Y-175640419D02*
X18321979Y-175640419D01*
X18321979Y-175640419D02*
X18417217Y-175592800D01*
X18417217Y-175592800D02*
X18464836Y-175545180D01*
X18464836Y-175545180D02*
X18560074Y-175402323D01*
X18560074Y-175402323D02*
X18607693Y-175211847D01*
X18607693Y-175211847D02*
X18607693Y-174830895D01*
X18607693Y-174830895D02*
X18560074Y-174735657D01*
X18560074Y-174735657D02*
X18512455Y-174688038D01*
X18512455Y-174688038D02*
X18417217Y-174640419D01*
X18417217Y-174640419D02*
X18226741Y-174640419D01*
X18226741Y-174640419D02*
X18131503Y-174688038D01*
X18131503Y-174688038D02*
X18083884Y-174735657D01*
X18083884Y-174735657D02*
X18036265Y-174830895D01*
X18036265Y-174830895D02*
X18036265Y-175068990D01*
X18036265Y-175068990D02*
X18083884Y-175164228D01*
X18083884Y-175164228D02*
X18131503Y-175211847D01*
X18131503Y-175211847D02*
X18226741Y-175259466D01*
X18226741Y-175259466D02*
X18417217Y-175259466D01*
X18417217Y-175259466D02*
X18512455Y-175211847D01*
X18512455Y-175211847D02*
X18560074Y-175164228D01*
X18560074Y-175164228D02*
X18607693Y-175068990D01*
X20560075Y-175259466D02*
X21321980Y-175259466D01*
X20941027Y-175640419D02*
X20941027Y-174878514D01*
X22321979Y-175640419D02*
X21750551Y-175640419D01*
X22036265Y-175640419D02*
X22036265Y-174640419D01*
X22036265Y-174640419D02*
X21941027Y-174783276D01*
X21941027Y-174783276D02*
X21845789Y-174878514D01*
X21845789Y-174878514D02*
X21750551Y-174926133D01*
X22702932Y-174735657D02*
X22750551Y-174688038D01*
X22750551Y-174688038D02*
X22845789Y-174640419D01*
X22845789Y-174640419D02*
X23083884Y-174640419D01*
X23083884Y-174640419D02*
X23179122Y-174688038D01*
X23179122Y-174688038D02*
X23226741Y-174735657D01*
X23226741Y-174735657D02*
X23274360Y-174830895D01*
X23274360Y-174830895D02*
X23274360Y-174926133D01*
X23274360Y-174926133D02*
X23226741Y-175068990D01*
X23226741Y-175068990D02*
X22655313Y-175640419D01*
X22655313Y-175640419D02*
X23274360Y-175640419D01*
X23560075Y-174640419D02*
X23893408Y-175640419D01*
X23893408Y-175640419D02*
X24226741Y-174640419D01*
X18226741Y-168972990D02*
X18131503Y-168925371D01*
X18131503Y-168925371D02*
X18083884Y-168877752D01*
X18083884Y-168877752D02*
X18036265Y-168782514D01*
X18036265Y-168782514D02*
X18036265Y-168734895D01*
X18036265Y-168734895D02*
X18083884Y-168639657D01*
X18083884Y-168639657D02*
X18131503Y-168592038D01*
X18131503Y-168592038D02*
X18226741Y-168544419D01*
X18226741Y-168544419D02*
X18417217Y-168544419D01*
X18417217Y-168544419D02*
X18512455Y-168592038D01*
X18512455Y-168592038D02*
X18560074Y-168639657D01*
X18560074Y-168639657D02*
X18607693Y-168734895D01*
X18607693Y-168734895D02*
X18607693Y-168782514D01*
X18607693Y-168782514D02*
X18560074Y-168877752D01*
X18560074Y-168877752D02*
X18512455Y-168925371D01*
X18512455Y-168925371D02*
X18417217Y-168972990D01*
X18417217Y-168972990D02*
X18226741Y-168972990D01*
X18226741Y-168972990D02*
X18131503Y-169020609D01*
X18131503Y-169020609D02*
X18083884Y-169068228D01*
X18083884Y-169068228D02*
X18036265Y-169163466D01*
X18036265Y-169163466D02*
X18036265Y-169353942D01*
X18036265Y-169353942D02*
X18083884Y-169449180D01*
X18083884Y-169449180D02*
X18131503Y-169496800D01*
X18131503Y-169496800D02*
X18226741Y-169544419D01*
X18226741Y-169544419D02*
X18417217Y-169544419D01*
X18417217Y-169544419D02*
X18512455Y-169496800D01*
X18512455Y-169496800D02*
X18560074Y-169449180D01*
X18560074Y-169449180D02*
X18607693Y-169353942D01*
X18607693Y-169353942D02*
X18607693Y-169163466D01*
X18607693Y-169163466D02*
X18560074Y-169068228D01*
X18560074Y-169068228D02*
X18512455Y-169020609D01*
X18512455Y-169020609D02*
X18417217Y-168972990D01*
X21083884Y-168592038D02*
X20988646Y-168544419D01*
X20988646Y-168544419D02*
X20845789Y-168544419D01*
X20845789Y-168544419D02*
X20702932Y-168592038D01*
X20702932Y-168592038D02*
X20607694Y-168687276D01*
X20607694Y-168687276D02*
X20560075Y-168782514D01*
X20560075Y-168782514D02*
X20512456Y-168972990D01*
X20512456Y-168972990D02*
X20512456Y-169115847D01*
X20512456Y-169115847D02*
X20560075Y-169306323D01*
X20560075Y-169306323D02*
X20607694Y-169401561D01*
X20607694Y-169401561D02*
X20702932Y-169496800D01*
X20702932Y-169496800D02*
X20845789Y-169544419D01*
X20845789Y-169544419D02*
X20941027Y-169544419D01*
X20941027Y-169544419D02*
X21083884Y-169496800D01*
X21083884Y-169496800D02*
X21131503Y-169449180D01*
X21131503Y-169449180D02*
X21131503Y-169115847D01*
X21131503Y-169115847D02*
X20941027Y-169115847D01*
X21560075Y-169544419D02*
X21560075Y-168544419D01*
X21560075Y-168544419D02*
X22131503Y-169544419D01*
X22131503Y-169544419D02*
X22131503Y-168544419D01*
X22607694Y-169544419D02*
X22607694Y-168544419D01*
X22607694Y-168544419D02*
X22845789Y-168544419D01*
X22845789Y-168544419D02*
X22988646Y-168592038D01*
X22988646Y-168592038D02*
X23083884Y-168687276D01*
X23083884Y-168687276D02*
X23131503Y-168782514D01*
X23131503Y-168782514D02*
X23179122Y-168972990D01*
X23179122Y-168972990D02*
X23179122Y-169115847D01*
X23179122Y-169115847D02*
X23131503Y-169306323D01*
X23131503Y-169306323D02*
X23083884Y-169401561D01*
X23083884Y-169401561D02*
X22988646Y-169496800D01*
X22988646Y-169496800D02*
X22845789Y-169544419D01*
X22845789Y-169544419D02*
X22607694Y-169544419D01*
X17988646Y-163464419D02*
X18655312Y-163464419D01*
X18655312Y-163464419D02*
X18226741Y-164464419D01*
X21083884Y-163512038D02*
X20988646Y-163464419D01*
X20988646Y-163464419D02*
X20845789Y-163464419D01*
X20845789Y-163464419D02*
X20702932Y-163512038D01*
X20702932Y-163512038D02*
X20607694Y-163607276D01*
X20607694Y-163607276D02*
X20560075Y-163702514D01*
X20560075Y-163702514D02*
X20512456Y-163892990D01*
X20512456Y-163892990D02*
X20512456Y-164035847D01*
X20512456Y-164035847D02*
X20560075Y-164226323D01*
X20560075Y-164226323D02*
X20607694Y-164321561D01*
X20607694Y-164321561D02*
X20702932Y-164416800D01*
X20702932Y-164416800D02*
X20845789Y-164464419D01*
X20845789Y-164464419D02*
X20941027Y-164464419D01*
X20941027Y-164464419D02*
X21083884Y-164416800D01*
X21083884Y-164416800D02*
X21131503Y-164369180D01*
X21131503Y-164369180D02*
X21131503Y-164035847D01*
X21131503Y-164035847D02*
X20941027Y-164035847D01*
X21560075Y-164464419D02*
X21560075Y-163464419D01*
X21560075Y-163464419D02*
X22131503Y-164464419D01*
X22131503Y-164464419D02*
X22131503Y-163464419D01*
X22607694Y-164464419D02*
X22607694Y-163464419D01*
X22607694Y-163464419D02*
X22845789Y-163464419D01*
X22845789Y-163464419D02*
X22988646Y-163512038D01*
X22988646Y-163512038D02*
X23083884Y-163607276D01*
X23083884Y-163607276D02*
X23131503Y-163702514D01*
X23131503Y-163702514D02*
X23179122Y-163892990D01*
X23179122Y-163892990D02*
X23179122Y-164035847D01*
X23179122Y-164035847D02*
X23131503Y-164226323D01*
X23131503Y-164226323D02*
X23083884Y-164321561D01*
X23083884Y-164321561D02*
X22988646Y-164416800D01*
X22988646Y-164416800D02*
X22845789Y-164464419D01*
X22845789Y-164464419D02*
X22607694Y-164464419D01*
X18512455Y-158384419D02*
X18321979Y-158384419D01*
X18321979Y-158384419D02*
X18226741Y-158432038D01*
X18226741Y-158432038D02*
X18179122Y-158479657D01*
X18179122Y-158479657D02*
X18083884Y-158622514D01*
X18083884Y-158622514D02*
X18036265Y-158812990D01*
X18036265Y-158812990D02*
X18036265Y-159193942D01*
X18036265Y-159193942D02*
X18083884Y-159289180D01*
X18083884Y-159289180D02*
X18131503Y-159336800D01*
X18131503Y-159336800D02*
X18226741Y-159384419D01*
X18226741Y-159384419D02*
X18417217Y-159384419D01*
X18417217Y-159384419D02*
X18512455Y-159336800D01*
X18512455Y-159336800D02*
X18560074Y-159289180D01*
X18560074Y-159289180D02*
X18607693Y-159193942D01*
X18607693Y-159193942D02*
X18607693Y-158955847D01*
X18607693Y-158955847D02*
X18560074Y-158860609D01*
X18560074Y-158860609D02*
X18512455Y-158812990D01*
X18512455Y-158812990D02*
X18417217Y-158765371D01*
X18417217Y-158765371D02*
X18226741Y-158765371D01*
X18226741Y-158765371D02*
X18131503Y-158812990D01*
X18131503Y-158812990D02*
X18083884Y-158860609D01*
X18083884Y-158860609D02*
X18036265Y-158955847D01*
X21083884Y-158432038D02*
X20988646Y-158384419D01*
X20988646Y-158384419D02*
X20845789Y-158384419D01*
X20845789Y-158384419D02*
X20702932Y-158432038D01*
X20702932Y-158432038D02*
X20607694Y-158527276D01*
X20607694Y-158527276D02*
X20560075Y-158622514D01*
X20560075Y-158622514D02*
X20512456Y-158812990D01*
X20512456Y-158812990D02*
X20512456Y-158955847D01*
X20512456Y-158955847D02*
X20560075Y-159146323D01*
X20560075Y-159146323D02*
X20607694Y-159241561D01*
X20607694Y-159241561D02*
X20702932Y-159336800D01*
X20702932Y-159336800D02*
X20845789Y-159384419D01*
X20845789Y-159384419D02*
X20941027Y-159384419D01*
X20941027Y-159384419D02*
X21083884Y-159336800D01*
X21083884Y-159336800D02*
X21131503Y-159289180D01*
X21131503Y-159289180D02*
X21131503Y-158955847D01*
X21131503Y-158955847D02*
X20941027Y-158955847D01*
X21560075Y-159384419D02*
X21560075Y-158384419D01*
X21560075Y-158384419D02*
X22131503Y-159384419D01*
X22131503Y-159384419D02*
X22131503Y-158384419D01*
X22607694Y-159384419D02*
X22607694Y-158384419D01*
X22607694Y-158384419D02*
X22845789Y-158384419D01*
X22845789Y-158384419D02*
X22988646Y-158432038D01*
X22988646Y-158432038D02*
X23083884Y-158527276D01*
X23083884Y-158527276D02*
X23131503Y-158622514D01*
X23131503Y-158622514D02*
X23179122Y-158812990D01*
X23179122Y-158812990D02*
X23179122Y-158955847D01*
X23179122Y-158955847D02*
X23131503Y-159146323D01*
X23131503Y-159146323D02*
X23083884Y-159241561D01*
X23083884Y-159241561D02*
X22988646Y-159336800D01*
X22988646Y-159336800D02*
X22845789Y-159384419D01*
X22845789Y-159384419D02*
X22607694Y-159384419D01*
X18560074Y-153304419D02*
X18083884Y-153304419D01*
X18083884Y-153304419D02*
X18036265Y-153780609D01*
X18036265Y-153780609D02*
X18083884Y-153732990D01*
X18083884Y-153732990D02*
X18179122Y-153685371D01*
X18179122Y-153685371D02*
X18417217Y-153685371D01*
X18417217Y-153685371D02*
X18512455Y-153732990D01*
X18512455Y-153732990D02*
X18560074Y-153780609D01*
X18560074Y-153780609D02*
X18607693Y-153875847D01*
X18607693Y-153875847D02*
X18607693Y-154113942D01*
X18607693Y-154113942D02*
X18560074Y-154209180D01*
X18560074Y-154209180D02*
X18512455Y-154256800D01*
X18512455Y-154256800D02*
X18417217Y-154304419D01*
X18417217Y-154304419D02*
X18179122Y-154304419D01*
X18179122Y-154304419D02*
X18083884Y-154256800D01*
X18083884Y-154256800D02*
X18036265Y-154209180D01*
X20893408Y-153780609D02*
X21036265Y-153828228D01*
X21036265Y-153828228D02*
X21083884Y-153875847D01*
X21083884Y-153875847D02*
X21131503Y-153971085D01*
X21131503Y-153971085D02*
X21131503Y-154113942D01*
X21131503Y-154113942D02*
X21083884Y-154209180D01*
X21083884Y-154209180D02*
X21036265Y-154256800D01*
X21036265Y-154256800D02*
X20941027Y-154304419D01*
X20941027Y-154304419D02*
X20560075Y-154304419D01*
X20560075Y-154304419D02*
X20560075Y-153304419D01*
X20560075Y-153304419D02*
X20893408Y-153304419D01*
X20893408Y-153304419D02*
X20988646Y-153352038D01*
X20988646Y-153352038D02*
X21036265Y-153399657D01*
X21036265Y-153399657D02*
X21083884Y-153494895D01*
X21083884Y-153494895D02*
X21083884Y-153590133D01*
X21083884Y-153590133D02*
X21036265Y-153685371D01*
X21036265Y-153685371D02*
X20988646Y-153732990D01*
X20988646Y-153732990D02*
X20893408Y-153780609D01*
X20893408Y-153780609D02*
X20560075Y-153780609D01*
X21560075Y-154304419D02*
X21560075Y-153304419D01*
X21560075Y-153304419D02*
X21941027Y-153304419D01*
X21941027Y-153304419D02*
X22036265Y-153352038D01*
X22036265Y-153352038D02*
X22083884Y-153399657D01*
X22083884Y-153399657D02*
X22131503Y-153494895D01*
X22131503Y-153494895D02*
X22131503Y-153637752D01*
X22131503Y-153637752D02*
X22083884Y-153732990D01*
X22083884Y-153732990D02*
X22036265Y-153780609D01*
X22036265Y-153780609D02*
X21941027Y-153828228D01*
X21941027Y-153828228D02*
X21560075Y-153828228D01*
X22702932Y-153732990D02*
X22607694Y-153685371D01*
X22607694Y-153685371D02*
X22560075Y-153637752D01*
X22560075Y-153637752D02*
X22512456Y-153542514D01*
X22512456Y-153542514D02*
X22512456Y-153494895D01*
X22512456Y-153494895D02*
X22560075Y-153399657D01*
X22560075Y-153399657D02*
X22607694Y-153352038D01*
X22607694Y-153352038D02*
X22702932Y-153304419D01*
X22702932Y-153304419D02*
X22893408Y-153304419D01*
X22893408Y-153304419D02*
X22988646Y-153352038D01*
X22988646Y-153352038D02*
X23036265Y-153399657D01*
X23036265Y-153399657D02*
X23083884Y-153494895D01*
X23083884Y-153494895D02*
X23083884Y-153542514D01*
X23083884Y-153542514D02*
X23036265Y-153637752D01*
X23036265Y-153637752D02*
X22988646Y-153685371D01*
X22988646Y-153685371D02*
X22893408Y-153732990D01*
X22893408Y-153732990D02*
X22702932Y-153732990D01*
X22702932Y-153732990D02*
X22607694Y-153780609D01*
X22607694Y-153780609D02*
X22560075Y-153828228D01*
X22560075Y-153828228D02*
X22512456Y-153923466D01*
X22512456Y-153923466D02*
X22512456Y-154113942D01*
X22512456Y-154113942D02*
X22560075Y-154209180D01*
X22560075Y-154209180D02*
X22607694Y-154256800D01*
X22607694Y-154256800D02*
X22702932Y-154304419D01*
X22702932Y-154304419D02*
X22893408Y-154304419D01*
X22893408Y-154304419D02*
X22988646Y-154256800D01*
X22988646Y-154256800D02*
X23036265Y-154209180D01*
X23036265Y-154209180D02*
X23083884Y-154113942D01*
X23083884Y-154113942D02*
X23083884Y-153923466D01*
X23083884Y-153923466D02*
X23036265Y-153828228D01*
X23036265Y-153828228D02*
X22988646Y-153780609D01*
X22988646Y-153780609D02*
X22893408Y-153732990D01*
X23988646Y-153304419D02*
X23512456Y-153304419D01*
X23512456Y-153304419D02*
X23464837Y-153780609D01*
X23464837Y-153780609D02*
X23512456Y-153732990D01*
X23512456Y-153732990D02*
X23607694Y-153685371D01*
X23607694Y-153685371D02*
X23845789Y-153685371D01*
X23845789Y-153685371D02*
X23941027Y-153732990D01*
X23941027Y-153732990D02*
X23988646Y-153780609D01*
X23988646Y-153780609D02*
X24036265Y-153875847D01*
X24036265Y-153875847D02*
X24036265Y-154113942D01*
X24036265Y-154113942D02*
X23988646Y-154209180D01*
X23988646Y-154209180D02*
X23941027Y-154256800D01*
X23941027Y-154256800D02*
X23845789Y-154304419D01*
X23845789Y-154304419D02*
X23607694Y-154304419D01*
X23607694Y-154304419D02*
X23512456Y-154256800D01*
X23512456Y-154256800D02*
X23464837Y-154209180D01*
X18512455Y-147033752D02*
X18512455Y-147700419D01*
X18274360Y-146652800D02*
X18036265Y-147367085D01*
X18036265Y-147367085D02*
X18655312Y-147367085D01*
X20893408Y-147176609D02*
X21036265Y-147224228D01*
X21036265Y-147224228D02*
X21083884Y-147271847D01*
X21083884Y-147271847D02*
X21131503Y-147367085D01*
X21131503Y-147367085D02*
X21131503Y-147509942D01*
X21131503Y-147509942D02*
X21083884Y-147605180D01*
X21083884Y-147605180D02*
X21036265Y-147652800D01*
X21036265Y-147652800D02*
X20941027Y-147700419D01*
X20941027Y-147700419D02*
X20560075Y-147700419D01*
X20560075Y-147700419D02*
X20560075Y-146700419D01*
X20560075Y-146700419D02*
X20893408Y-146700419D01*
X20893408Y-146700419D02*
X20988646Y-146748038D01*
X20988646Y-146748038D02*
X21036265Y-146795657D01*
X21036265Y-146795657D02*
X21083884Y-146890895D01*
X21083884Y-146890895D02*
X21083884Y-146986133D01*
X21083884Y-146986133D02*
X21036265Y-147081371D01*
X21036265Y-147081371D02*
X20988646Y-147128990D01*
X20988646Y-147128990D02*
X20893408Y-147176609D01*
X20893408Y-147176609D02*
X20560075Y-147176609D01*
X21560075Y-147700419D02*
X21560075Y-146700419D01*
X21560075Y-146700419D02*
X21941027Y-146700419D01*
X21941027Y-146700419D02*
X22036265Y-146748038D01*
X22036265Y-146748038D02*
X22083884Y-146795657D01*
X22083884Y-146795657D02*
X22131503Y-146890895D01*
X22131503Y-146890895D02*
X22131503Y-147033752D01*
X22131503Y-147033752D02*
X22083884Y-147128990D01*
X22083884Y-147128990D02*
X22036265Y-147176609D01*
X22036265Y-147176609D02*
X21941027Y-147224228D01*
X21941027Y-147224228D02*
X21560075Y-147224228D01*
X22702932Y-147128990D02*
X22607694Y-147081371D01*
X22607694Y-147081371D02*
X22560075Y-147033752D01*
X22560075Y-147033752D02*
X22512456Y-146938514D01*
X22512456Y-146938514D02*
X22512456Y-146890895D01*
X22512456Y-146890895D02*
X22560075Y-146795657D01*
X22560075Y-146795657D02*
X22607694Y-146748038D01*
X22607694Y-146748038D02*
X22702932Y-146700419D01*
X22702932Y-146700419D02*
X22893408Y-146700419D01*
X22893408Y-146700419D02*
X22988646Y-146748038D01*
X22988646Y-146748038D02*
X23036265Y-146795657D01*
X23036265Y-146795657D02*
X23083884Y-146890895D01*
X23083884Y-146890895D02*
X23083884Y-146938514D01*
X23083884Y-146938514D02*
X23036265Y-147033752D01*
X23036265Y-147033752D02*
X22988646Y-147081371D01*
X22988646Y-147081371D02*
X22893408Y-147128990D01*
X22893408Y-147128990D02*
X22702932Y-147128990D01*
X22702932Y-147128990D02*
X22607694Y-147176609D01*
X22607694Y-147176609D02*
X22560075Y-147224228D01*
X22560075Y-147224228D02*
X22512456Y-147319466D01*
X22512456Y-147319466D02*
X22512456Y-147509942D01*
X22512456Y-147509942D02*
X22560075Y-147605180D01*
X22560075Y-147605180D02*
X22607694Y-147652800D01*
X22607694Y-147652800D02*
X22702932Y-147700419D01*
X22702932Y-147700419D02*
X22893408Y-147700419D01*
X22893408Y-147700419D02*
X22988646Y-147652800D01*
X22988646Y-147652800D02*
X23036265Y-147605180D01*
X23036265Y-147605180D02*
X23083884Y-147509942D01*
X23083884Y-147509942D02*
X23083884Y-147319466D01*
X23083884Y-147319466D02*
X23036265Y-147224228D01*
X23036265Y-147224228D02*
X22988646Y-147176609D01*
X22988646Y-147176609D02*
X22893408Y-147128990D01*
X23417218Y-146700419D02*
X24036265Y-146700419D01*
X24036265Y-146700419D02*
X23702932Y-147081371D01*
X23702932Y-147081371D02*
X23845789Y-147081371D01*
X23845789Y-147081371D02*
X23941027Y-147128990D01*
X23941027Y-147128990D02*
X23988646Y-147176609D01*
X23988646Y-147176609D02*
X24036265Y-147271847D01*
X24036265Y-147271847D02*
X24036265Y-147509942D01*
X24036265Y-147509942D02*
X23988646Y-147605180D01*
X23988646Y-147605180D02*
X23941027Y-147652800D01*
X23941027Y-147652800D02*
X23845789Y-147700419D01*
X23845789Y-147700419D02*
X23560075Y-147700419D01*
X23560075Y-147700419D02*
X23464837Y-147652800D01*
X23464837Y-147652800D02*
X23417218Y-147605180D01*
X17988646Y-142128419D02*
X18607693Y-142128419D01*
X18607693Y-142128419D02*
X18274360Y-142509371D01*
X18274360Y-142509371D02*
X18417217Y-142509371D01*
X18417217Y-142509371D02*
X18512455Y-142556990D01*
X18512455Y-142556990D02*
X18560074Y-142604609D01*
X18560074Y-142604609D02*
X18607693Y-142699847D01*
X18607693Y-142699847D02*
X18607693Y-142937942D01*
X18607693Y-142937942D02*
X18560074Y-143033180D01*
X18560074Y-143033180D02*
X18512455Y-143080800D01*
X18512455Y-143080800D02*
X18417217Y-143128419D01*
X18417217Y-143128419D02*
X18131503Y-143128419D01*
X18131503Y-143128419D02*
X18036265Y-143080800D01*
X18036265Y-143080800D02*
X17988646Y-143033180D01*
X20512456Y-142842704D02*
X20988646Y-142842704D01*
X20417218Y-143128419D02*
X20750551Y-142128419D01*
X20750551Y-142128419D02*
X21083884Y-143128419D01*
X21417218Y-142128419D02*
X21417218Y-142937942D01*
X21417218Y-142937942D02*
X21464837Y-143033180D01*
X21464837Y-143033180D02*
X21512456Y-143080800D01*
X21512456Y-143080800D02*
X21607694Y-143128419D01*
X21607694Y-143128419D02*
X21798170Y-143128419D01*
X21798170Y-143128419D02*
X21893408Y-143080800D01*
X21893408Y-143080800D02*
X21941027Y-143033180D01*
X21941027Y-143033180D02*
X21988646Y-142937942D01*
X21988646Y-142937942D02*
X21988646Y-142128419D01*
X22464837Y-143128419D02*
X22464837Y-142128419D01*
X22464837Y-142128419D02*
X22702932Y-142128419D01*
X22702932Y-142128419D02*
X22845789Y-142176038D01*
X22845789Y-142176038D02*
X22941027Y-142271276D01*
X22941027Y-142271276D02*
X22988646Y-142366514D01*
X22988646Y-142366514D02*
X23036265Y-142556990D01*
X23036265Y-142556990D02*
X23036265Y-142699847D01*
X23036265Y-142699847D02*
X22988646Y-142890323D01*
X22988646Y-142890323D02*
X22941027Y-142985561D01*
X22941027Y-142985561D02*
X22845789Y-143080800D01*
X22845789Y-143080800D02*
X22702932Y-143128419D01*
X22702932Y-143128419D02*
X22464837Y-143128419D01*
X18036265Y-137143657D02*
X18083884Y-137096038D01*
X18083884Y-137096038D02*
X18179122Y-137048419D01*
X18179122Y-137048419D02*
X18417217Y-137048419D01*
X18417217Y-137048419D02*
X18512455Y-137096038D01*
X18512455Y-137096038D02*
X18560074Y-137143657D01*
X18560074Y-137143657D02*
X18607693Y-137238895D01*
X18607693Y-137238895D02*
X18607693Y-137334133D01*
X18607693Y-137334133D02*
X18560074Y-137476990D01*
X18560074Y-137476990D02*
X17988646Y-138048419D01*
X17988646Y-138048419D02*
X18607693Y-138048419D01*
X21274360Y-137000800D02*
X20417218Y-138286514D01*
X22179122Y-137953180D02*
X22131503Y-138000800D01*
X22131503Y-138000800D02*
X21988646Y-138048419D01*
X21988646Y-138048419D02*
X21893408Y-138048419D01*
X21893408Y-138048419D02*
X21750551Y-138000800D01*
X21750551Y-138000800D02*
X21655313Y-137905561D01*
X21655313Y-137905561D02*
X21607694Y-137810323D01*
X21607694Y-137810323D02*
X21560075Y-137619847D01*
X21560075Y-137619847D02*
X21560075Y-137476990D01*
X21560075Y-137476990D02*
X21607694Y-137286514D01*
X21607694Y-137286514D02*
X21655313Y-137191276D01*
X21655313Y-137191276D02*
X21750551Y-137096038D01*
X21750551Y-137096038D02*
X21893408Y-137048419D01*
X21893408Y-137048419D02*
X21988646Y-137048419D01*
X21988646Y-137048419D02*
X22131503Y-137096038D01*
X22131503Y-137096038D02*
X22179122Y-137143657D01*
X23083884Y-138048419D02*
X22607694Y-138048419D01*
X22607694Y-138048419D02*
X22607694Y-137048419D01*
X23417218Y-137524609D02*
X23750551Y-137524609D01*
X23893408Y-138048419D02*
X23417218Y-138048419D01*
X23417218Y-138048419D02*
X23417218Y-137048419D01*
X23417218Y-137048419D02*
X23893408Y-137048419D01*
X24274361Y-137762704D02*
X24750551Y-137762704D01*
X24179123Y-138048419D02*
X24512456Y-137048419D01*
X24512456Y-137048419D02*
X24845789Y-138048419D01*
X25750551Y-138048419D02*
X25417218Y-137572228D01*
X25179123Y-138048419D02*
X25179123Y-137048419D01*
X25179123Y-137048419D02*
X25560075Y-137048419D01*
X25560075Y-137048419D02*
X25655313Y-137096038D01*
X25655313Y-137096038D02*
X25702932Y-137143657D01*
X25702932Y-137143657D02*
X25750551Y-137238895D01*
X25750551Y-137238895D02*
X25750551Y-137381752D01*
X25750551Y-137381752D02*
X25702932Y-137476990D01*
X25702932Y-137476990D02*
X25655313Y-137524609D01*
X25655313Y-137524609D02*
X25560075Y-137572228D01*
X25560075Y-137572228D02*
X25179123Y-137572228D01*
X18607693Y-132968419D02*
X18036265Y-132968419D01*
X18321979Y-132968419D02*
X18321979Y-131968419D01*
X18321979Y-131968419D02*
X18226741Y-132111276D01*
X18226741Y-132111276D02*
X18131503Y-132206514D01*
X18131503Y-132206514D02*
X18036265Y-132254133D01*
X21083884Y-132016038D02*
X20988646Y-131968419D01*
X20988646Y-131968419D02*
X20845789Y-131968419D01*
X20845789Y-131968419D02*
X20702932Y-132016038D01*
X20702932Y-132016038D02*
X20607694Y-132111276D01*
X20607694Y-132111276D02*
X20560075Y-132206514D01*
X20560075Y-132206514D02*
X20512456Y-132396990D01*
X20512456Y-132396990D02*
X20512456Y-132539847D01*
X20512456Y-132539847D02*
X20560075Y-132730323D01*
X20560075Y-132730323D02*
X20607694Y-132825561D01*
X20607694Y-132825561D02*
X20702932Y-132920800D01*
X20702932Y-132920800D02*
X20845789Y-132968419D01*
X20845789Y-132968419D02*
X20941027Y-132968419D01*
X20941027Y-132968419D02*
X21083884Y-132920800D01*
X21083884Y-132920800D02*
X21131503Y-132873180D01*
X21131503Y-132873180D02*
X21131503Y-132539847D01*
X21131503Y-132539847D02*
X20941027Y-132539847D01*
X21560075Y-132968419D02*
X21560075Y-131968419D01*
X21560075Y-131968419D02*
X22131503Y-132968419D01*
X22131503Y-132968419D02*
X22131503Y-131968419D01*
X22607694Y-132968419D02*
X22607694Y-131968419D01*
X22607694Y-131968419D02*
X22845789Y-131968419D01*
X22845789Y-131968419D02*
X22988646Y-132016038D01*
X22988646Y-132016038D02*
X23083884Y-132111276D01*
X23083884Y-132111276D02*
X23131503Y-132206514D01*
X23131503Y-132206514D02*
X23179122Y-132396990D01*
X23179122Y-132396990D02*
X23179122Y-132539847D01*
X23179122Y-132539847D02*
X23131503Y-132730323D01*
X23131503Y-132730323D02*
X23083884Y-132825561D01*
X23083884Y-132825561D02*
X22988646Y-132920800D01*
X22988646Y-132920800D02*
X22845789Y-132968419D01*
X22845789Y-132968419D02*
X22607694Y-132968419D01*
D11*
X15576779Y-66544866D02*
X16338684Y-66544866D01*
X17291064Y-65925819D02*
X16814874Y-65925819D01*
X16814874Y-65925819D02*
X16767255Y-66402009D01*
X16767255Y-66402009D02*
X16814874Y-66354390D01*
X16814874Y-66354390D02*
X16910112Y-66306771D01*
X16910112Y-66306771D02*
X17148207Y-66306771D01*
X17148207Y-66306771D02*
X17243445Y-66354390D01*
X17243445Y-66354390D02*
X17291064Y-66402009D01*
X17291064Y-66402009D02*
X17338683Y-66497247D01*
X17338683Y-66497247D02*
X17338683Y-66735342D01*
X17338683Y-66735342D02*
X17291064Y-66830580D01*
X17291064Y-66830580D02*
X17243445Y-66878200D01*
X17243445Y-66878200D02*
X17148207Y-66925819D01*
X17148207Y-66925819D02*
X16910112Y-66925819D01*
X16910112Y-66925819D02*
X16814874Y-66878200D01*
X16814874Y-66878200D02*
X16767255Y-66830580D01*
X17624398Y-65925819D02*
X17957731Y-66925819D01*
X17957731Y-66925819D02*
X18291064Y-65925819D01*
X15576779Y-62988866D02*
X16338684Y-62988866D01*
X17338683Y-63369819D02*
X16767255Y-63369819D01*
X17052969Y-63369819D02*
X17052969Y-62369819D01*
X17052969Y-62369819D02*
X16957731Y-62512676D01*
X16957731Y-62512676D02*
X16862493Y-62607914D01*
X16862493Y-62607914D02*
X16767255Y-62655533D01*
X17719636Y-62465057D02*
X17767255Y-62417438D01*
X17767255Y-62417438D02*
X17862493Y-62369819D01*
X17862493Y-62369819D02*
X18100588Y-62369819D01*
X18100588Y-62369819D02*
X18195826Y-62417438D01*
X18195826Y-62417438D02*
X18243445Y-62465057D01*
X18243445Y-62465057D02*
X18291064Y-62560295D01*
X18291064Y-62560295D02*
X18291064Y-62655533D01*
X18291064Y-62655533D02*
X18243445Y-62798390D01*
X18243445Y-62798390D02*
X17672017Y-63369819D01*
X17672017Y-63369819D02*
X18291064Y-63369819D01*
X18576779Y-62369819D02*
X18910112Y-63369819D01*
X18910112Y-63369819D02*
X19243445Y-62369819D01*
X15576779Y-58924866D02*
X16338684Y-58924866D01*
X15957731Y-59305819D02*
X15957731Y-58543914D01*
X17291064Y-58305819D02*
X16814874Y-58305819D01*
X16814874Y-58305819D02*
X16767255Y-58782009D01*
X16767255Y-58782009D02*
X16814874Y-58734390D01*
X16814874Y-58734390D02*
X16910112Y-58686771D01*
X16910112Y-58686771D02*
X17148207Y-58686771D01*
X17148207Y-58686771D02*
X17243445Y-58734390D01*
X17243445Y-58734390D02*
X17291064Y-58782009D01*
X17291064Y-58782009D02*
X17338683Y-58877247D01*
X17338683Y-58877247D02*
X17338683Y-59115342D01*
X17338683Y-59115342D02*
X17291064Y-59210580D01*
X17291064Y-59210580D02*
X17243445Y-59258200D01*
X17243445Y-59258200D02*
X17148207Y-59305819D01*
X17148207Y-59305819D02*
X16910112Y-59305819D01*
X16910112Y-59305819D02*
X16814874Y-59258200D01*
X16814874Y-59258200D02*
X16767255Y-59210580D01*
X17624398Y-58305819D02*
X17957731Y-59305819D01*
X17957731Y-59305819D02*
X18291064Y-58305819D01*
X15576779Y-55368866D02*
X16338684Y-55368866D01*
X15957731Y-55749819D02*
X15957731Y-54987914D01*
X17338683Y-55749819D02*
X16767255Y-55749819D01*
X17052969Y-55749819D02*
X17052969Y-54749819D01*
X17052969Y-54749819D02*
X16957731Y-54892676D01*
X16957731Y-54892676D02*
X16862493Y-54987914D01*
X16862493Y-54987914D02*
X16767255Y-55035533D01*
X17719636Y-54845057D02*
X17767255Y-54797438D01*
X17767255Y-54797438D02*
X17862493Y-54749819D01*
X17862493Y-54749819D02*
X18100588Y-54749819D01*
X18100588Y-54749819D02*
X18195826Y-54797438D01*
X18195826Y-54797438D02*
X18243445Y-54845057D01*
X18243445Y-54845057D02*
X18291064Y-54940295D01*
X18291064Y-54940295D02*
X18291064Y-55035533D01*
X18291064Y-55035533D02*
X18243445Y-55178390D01*
X18243445Y-55178390D02*
X17672017Y-55749819D01*
X17672017Y-55749819D02*
X18291064Y-55749819D01*
X18576779Y-54749819D02*
X18910112Y-55749819D01*
X18910112Y-55749819D02*
X19243445Y-54749819D01*
X15576779Y-51304866D02*
X16338684Y-51304866D01*
X15957731Y-51685819D02*
X15957731Y-50923914D01*
X16767255Y-50781057D02*
X16814874Y-50733438D01*
X16814874Y-50733438D02*
X16910112Y-50685819D01*
X16910112Y-50685819D02*
X17148207Y-50685819D01*
X17148207Y-50685819D02*
X17243445Y-50733438D01*
X17243445Y-50733438D02*
X17291064Y-50781057D01*
X17291064Y-50781057D02*
X17338683Y-50876295D01*
X17338683Y-50876295D02*
X17338683Y-50971533D01*
X17338683Y-50971533D02*
X17291064Y-51114390D01*
X17291064Y-51114390D02*
X16719636Y-51685819D01*
X16719636Y-51685819D02*
X17338683Y-51685819D01*
X18195826Y-51019152D02*
X18195826Y-51685819D01*
X17957731Y-50638200D02*
X17719636Y-51352485D01*
X17719636Y-51352485D02*
X18338683Y-51352485D01*
X18576779Y-50685819D02*
X18910112Y-51685819D01*
X18910112Y-51685819D02*
X19243445Y-50685819D01*
D10*
X112696666Y-23257219D02*
X112696666Y-23971504D01*
X112696666Y-23971504D02*
X112649047Y-24114361D01*
X112649047Y-24114361D02*
X112553809Y-24209600D01*
X112553809Y-24209600D02*
X112410952Y-24257219D01*
X112410952Y-24257219D02*
X112315714Y-24257219D01*
X113649047Y-23257219D02*
X113172857Y-23257219D01*
X113172857Y-23257219D02*
X113125238Y-23733409D01*
X113125238Y-23733409D02*
X113172857Y-23685790D01*
X113172857Y-23685790D02*
X113268095Y-23638171D01*
X113268095Y-23638171D02*
X113506190Y-23638171D01*
X113506190Y-23638171D02*
X113601428Y-23685790D01*
X113601428Y-23685790D02*
X113649047Y-23733409D01*
X113649047Y-23733409D02*
X113696666Y-23828647D01*
X113696666Y-23828647D02*
X113696666Y-24066742D01*
X113696666Y-24066742D02*
X113649047Y-24161980D01*
X113649047Y-24161980D02*
X113601428Y-24209600D01*
X113601428Y-24209600D02*
X113506190Y-24257219D01*
X113506190Y-24257219D02*
X113268095Y-24257219D01*
X113268095Y-24257219D02*
X113172857Y-24209600D01*
X113172857Y-24209600D02*
X113125238Y-24161980D01*
X129968666Y-23257219D02*
X129968666Y-23971504D01*
X129968666Y-23971504D02*
X129921047Y-24114361D01*
X129921047Y-24114361D02*
X129825809Y-24209600D01*
X129825809Y-24209600D02*
X129682952Y-24257219D01*
X129682952Y-24257219D02*
X129587714Y-24257219D01*
X130873428Y-23590552D02*
X130873428Y-24257219D01*
X130635333Y-23209600D02*
X130397238Y-23923885D01*
X130397238Y-23923885D02*
X131016285Y-23923885D01*
D11*
X1206667Y-72543200D02*
X1349524Y-72590819D01*
X1349524Y-72590819D02*
X1587619Y-72590819D01*
X1587619Y-72590819D02*
X1682857Y-72543200D01*
X1682857Y-72543200D02*
X1730476Y-72495580D01*
X1730476Y-72495580D02*
X1778095Y-72400342D01*
X1778095Y-72400342D02*
X1778095Y-72305104D01*
X1778095Y-72305104D02*
X1730476Y-72209866D01*
X1730476Y-72209866D02*
X1682857Y-72162247D01*
X1682857Y-72162247D02*
X1587619Y-72114628D01*
X1587619Y-72114628D02*
X1397143Y-72067009D01*
X1397143Y-72067009D02*
X1301905Y-72019390D01*
X1301905Y-72019390D02*
X1254286Y-71971771D01*
X1254286Y-71971771D02*
X1206667Y-71876533D01*
X1206667Y-71876533D02*
X1206667Y-71781295D01*
X1206667Y-71781295D02*
X1254286Y-71686057D01*
X1254286Y-71686057D02*
X1301905Y-71638438D01*
X1301905Y-71638438D02*
X1397143Y-71590819D01*
X1397143Y-71590819D02*
X1635238Y-71590819D01*
X1635238Y-71590819D02*
X1778095Y-71638438D01*
X2111429Y-71590819D02*
X2349524Y-72590819D01*
X2349524Y-72590819D02*
X2540000Y-71876533D01*
X2540000Y-71876533D02*
X2730476Y-72590819D01*
X2730476Y-72590819D02*
X2968572Y-71590819D01*
X3873333Y-72590819D02*
X3301905Y-72590819D01*
X3587619Y-72590819D02*
X3587619Y-71590819D01*
X3587619Y-71590819D02*
X3492381Y-71733676D01*
X3492381Y-71733676D02*
X3397143Y-71828914D01*
X3397143Y-71828914D02*
X3301905Y-71876533D01*
X15686119Y-115134923D02*
X16400404Y-115134923D01*
X16400404Y-115134923D02*
X16543261Y-115182542D01*
X16543261Y-115182542D02*
X16638500Y-115277780D01*
X16638500Y-115277780D02*
X16686119Y-115420637D01*
X16686119Y-115420637D02*
X16686119Y-115515875D01*
X16686119Y-114134923D02*
X16686119Y-114706351D01*
X16686119Y-114420637D02*
X15686119Y-114420637D01*
X15686119Y-114420637D02*
X15828976Y-114515875D01*
X15828976Y-114515875D02*
X15924214Y-114611113D01*
X15924214Y-114611113D02*
X15971833Y-114706351D01*
X15686119Y-113515875D02*
X15686119Y-113420637D01*
X15686119Y-113420637D02*
X15733738Y-113325399D01*
X15733738Y-113325399D02*
X15781357Y-113277780D01*
X15781357Y-113277780D02*
X15876595Y-113230161D01*
X15876595Y-113230161D02*
X16067071Y-113182542D01*
X16067071Y-113182542D02*
X16305166Y-113182542D01*
X16305166Y-113182542D02*
X16495642Y-113230161D01*
X16495642Y-113230161D02*
X16590880Y-113277780D01*
X16590880Y-113277780D02*
X16638500Y-113325399D01*
X16638500Y-113325399D02*
X16686119Y-113420637D01*
X16686119Y-113420637D02*
X16686119Y-113515875D01*
X16686119Y-113515875D02*
X16638500Y-113611113D01*
X16638500Y-113611113D02*
X16590880Y-113658732D01*
X16590880Y-113658732D02*
X16495642Y-113706351D01*
X16495642Y-113706351D02*
X16305166Y-113753970D01*
X16305166Y-113753970D02*
X16067071Y-113753970D01*
X16067071Y-113753970D02*
X15876595Y-113706351D01*
X15876595Y-113706351D02*
X15781357Y-113658732D01*
X15781357Y-113658732D02*
X15733738Y-113611113D01*
X15733738Y-113611113D02*
X15686119Y-113515875D01*
X15757019Y-183198733D02*
X16471304Y-183198733D01*
X16471304Y-183198733D02*
X16614161Y-183246352D01*
X16614161Y-183246352D02*
X16709400Y-183341590D01*
X16709400Y-183341590D02*
X16757019Y-183484447D01*
X16757019Y-183484447D02*
X16757019Y-183579685D01*
X16757019Y-182674923D02*
X16757019Y-182484447D01*
X16757019Y-182484447D02*
X16709400Y-182389209D01*
X16709400Y-182389209D02*
X16661780Y-182341590D01*
X16661780Y-182341590D02*
X16518923Y-182246352D01*
X16518923Y-182246352D02*
X16328447Y-182198733D01*
X16328447Y-182198733D02*
X15947495Y-182198733D01*
X15947495Y-182198733D02*
X15852257Y-182246352D01*
X15852257Y-182246352D02*
X15804638Y-182293971D01*
X15804638Y-182293971D02*
X15757019Y-182389209D01*
X15757019Y-182389209D02*
X15757019Y-182579685D01*
X15757019Y-182579685D02*
X15804638Y-182674923D01*
X15804638Y-182674923D02*
X15852257Y-182722542D01*
X15852257Y-182722542D02*
X15947495Y-182770161D01*
X15947495Y-182770161D02*
X16185590Y-182770161D01*
X16185590Y-182770161D02*
X16280828Y-182722542D01*
X16280828Y-182722542D02*
X16328447Y-182674923D01*
X16328447Y-182674923D02*
X16376066Y-182579685D01*
X16376066Y-182579685D02*
X16376066Y-182389209D01*
X16376066Y-182389209D02*
X16328447Y-182293971D01*
X16328447Y-182293971D02*
X16280828Y-182246352D01*
X16280828Y-182246352D02*
X16185590Y-182198733D01*
X15757019Y-161862733D02*
X16471304Y-161862733D01*
X16471304Y-161862733D02*
X16614161Y-161910352D01*
X16614161Y-161910352D02*
X16709400Y-162005590D01*
X16709400Y-162005590D02*
X16757019Y-162148447D01*
X16757019Y-162148447D02*
X16757019Y-162243685D01*
X16185590Y-161243685D02*
X16137971Y-161338923D01*
X16137971Y-161338923D02*
X16090352Y-161386542D01*
X16090352Y-161386542D02*
X15995114Y-161434161D01*
X15995114Y-161434161D02*
X15947495Y-161434161D01*
X15947495Y-161434161D02*
X15852257Y-161386542D01*
X15852257Y-161386542D02*
X15804638Y-161338923D01*
X15804638Y-161338923D02*
X15757019Y-161243685D01*
X15757019Y-161243685D02*
X15757019Y-161053209D01*
X15757019Y-161053209D02*
X15804638Y-160957971D01*
X15804638Y-160957971D02*
X15852257Y-160910352D01*
X15852257Y-160910352D02*
X15947495Y-160862733D01*
X15947495Y-160862733D02*
X15995114Y-160862733D01*
X15995114Y-160862733D02*
X16090352Y-160910352D01*
X16090352Y-160910352D02*
X16137971Y-160957971D01*
X16137971Y-160957971D02*
X16185590Y-161053209D01*
X16185590Y-161053209D02*
X16185590Y-161243685D01*
X16185590Y-161243685D02*
X16233209Y-161338923D01*
X16233209Y-161338923D02*
X16280828Y-161386542D01*
X16280828Y-161386542D02*
X16376066Y-161434161D01*
X16376066Y-161434161D02*
X16566542Y-161434161D01*
X16566542Y-161434161D02*
X16661780Y-161386542D01*
X16661780Y-161386542D02*
X16709400Y-161338923D01*
X16709400Y-161338923D02*
X16757019Y-161243685D01*
X16757019Y-161243685D02*
X16757019Y-161053209D01*
X16757019Y-161053209D02*
X16709400Y-160957971D01*
X16709400Y-160957971D02*
X16661780Y-160910352D01*
X16661780Y-160910352D02*
X16566542Y-160862733D01*
X16566542Y-160862733D02*
X16376066Y-160862733D01*
X16376066Y-160862733D02*
X16280828Y-160910352D01*
X16280828Y-160910352D02*
X16233209Y-160957971D01*
X16233209Y-160957971D02*
X16185590Y-161053209D01*
X15757019Y-140526733D02*
X16471304Y-140526733D01*
X16471304Y-140526733D02*
X16614161Y-140574352D01*
X16614161Y-140574352D02*
X16709400Y-140669590D01*
X16709400Y-140669590D02*
X16757019Y-140812447D01*
X16757019Y-140812447D02*
X16757019Y-140907685D01*
X15757019Y-140145780D02*
X15757019Y-139479114D01*
X15757019Y-139479114D02*
X16757019Y-139907685D01*
X17238095Y-13454819D02*
X17238095Y-14264342D01*
X17238095Y-14264342D02*
X17285714Y-14359580D01*
X17285714Y-14359580D02*
X17333333Y-14407200D01*
X17333333Y-14407200D02*
X17428571Y-14454819D01*
X17428571Y-14454819D02*
X17619047Y-14454819D01*
X17619047Y-14454819D02*
X17714285Y-14407200D01*
X17714285Y-14407200D02*
X17761904Y-14359580D01*
X17761904Y-14359580D02*
X17809523Y-14264342D01*
X17809523Y-14264342D02*
X17809523Y-13454819D01*
X18809523Y-14454819D02*
X18238095Y-14454819D01*
X18523809Y-14454819D02*
X18523809Y-13454819D01*
X18523809Y-13454819D02*
X18428571Y-13597676D01*
X18428571Y-13597676D02*
X18333333Y-13692914D01*
X18333333Y-13692914D02*
X18238095Y-13740533D01*
X-738094Y-67002819D02*
X-738094Y-66002819D01*
X-738094Y-66002819D02*
X-499999Y-66002819D01*
X-499999Y-66002819D02*
X-357142Y-66050438D01*
X-357142Y-66050438D02*
X-261904Y-66145676D01*
X-261904Y-66145676D02*
X-214285Y-66240914D01*
X-214285Y-66240914D02*
X-166666Y-66431390D01*
X-166666Y-66431390D02*
X-166666Y-66574247D01*
X-166666Y-66574247D02*
X-214285Y-66764723D01*
X-214285Y-66764723D02*
X-261904Y-66859961D01*
X-261904Y-66859961D02*
X-357142Y-66955200D01*
X-357142Y-66955200D02*
X-499999Y-67002819D01*
X-499999Y-67002819D02*
X-738094Y-67002819D01*
X738095Y-66002819D02*
X261905Y-66002819D01*
X261905Y-66002819D02*
X214286Y-66479009D01*
X214286Y-66479009D02*
X261905Y-66431390D01*
X261905Y-66431390D02*
X357143Y-66383771D01*
X357143Y-66383771D02*
X595238Y-66383771D01*
X595238Y-66383771D02*
X690476Y-66431390D01*
X690476Y-66431390D02*
X738095Y-66479009D01*
X738095Y-66479009D02*
X785714Y-66574247D01*
X785714Y-66574247D02*
X785714Y-66812342D01*
X785714Y-66812342D02*
X738095Y-66907580D01*
X738095Y-66907580D02*
X690476Y-66955200D01*
X690476Y-66955200D02*
X595238Y-67002819D01*
X595238Y-67002819D02*
X357143Y-67002819D01*
X357143Y-67002819D02*
X261905Y-66955200D01*
X261905Y-66955200D02*
X214286Y-66907580D01*
X-738094Y-59382819D02*
X-738094Y-58382819D01*
X-738094Y-58382819D02*
X-499999Y-58382819D01*
X-499999Y-58382819D02*
X-357142Y-58430438D01*
X-357142Y-58430438D02*
X-261904Y-58525676D01*
X-261904Y-58525676D02*
X-214285Y-58620914D01*
X-214285Y-58620914D02*
X-166666Y-58811390D01*
X-166666Y-58811390D02*
X-166666Y-58954247D01*
X-166666Y-58954247D02*
X-214285Y-59144723D01*
X-214285Y-59144723D02*
X-261904Y-59239961D01*
X-261904Y-59239961D02*
X-357142Y-59335200D01*
X-357142Y-59335200D02*
X-499999Y-59382819D01*
X-499999Y-59382819D02*
X-738094Y-59382819D01*
X690476Y-58716152D02*
X690476Y-59382819D01*
X452381Y-58335200D02*
X214286Y-59049485D01*
X214286Y-59049485D02*
X833333Y-59049485D01*
X-738094Y-63446819D02*
X-738094Y-62446819D01*
X-738094Y-62446819D02*
X-499999Y-62446819D01*
X-499999Y-62446819D02*
X-357142Y-62494438D01*
X-357142Y-62494438D02*
X-261904Y-62589676D01*
X-261904Y-62589676D02*
X-214285Y-62684914D01*
X-214285Y-62684914D02*
X-166666Y-62875390D01*
X-166666Y-62875390D02*
X-166666Y-63018247D01*
X-166666Y-63018247D02*
X-214285Y-63208723D01*
X-214285Y-63208723D02*
X-261904Y-63303961D01*
X-261904Y-63303961D02*
X-357142Y-63399200D01*
X-357142Y-63399200D02*
X-499999Y-63446819D01*
X-499999Y-63446819D02*
X-738094Y-63446819D01*
X166667Y-62446819D02*
X785714Y-62446819D01*
X785714Y-62446819D02*
X452381Y-62827771D01*
X452381Y-62827771D02*
X595238Y-62827771D01*
X595238Y-62827771D02*
X690476Y-62875390D01*
X690476Y-62875390D02*
X738095Y-62923009D01*
X738095Y-62923009D02*
X785714Y-63018247D01*
X785714Y-63018247D02*
X785714Y-63256342D01*
X785714Y-63256342D02*
X738095Y-63351580D01*
X738095Y-63351580D02*
X690476Y-63399200D01*
X690476Y-63399200D02*
X595238Y-63446819D01*
X595238Y-63446819D02*
X309524Y-63446819D01*
X309524Y-63446819D02*
X214286Y-63399200D01*
X214286Y-63399200D02*
X166667Y-63351580D01*
X-738094Y-55699819D02*
X-738094Y-54699819D01*
X-738094Y-54699819D02*
X-499999Y-54699819D01*
X-499999Y-54699819D02*
X-357142Y-54747438D01*
X-357142Y-54747438D02*
X-261904Y-54842676D01*
X-261904Y-54842676D02*
X-214285Y-54937914D01*
X-214285Y-54937914D02*
X-166666Y-55128390D01*
X-166666Y-55128390D02*
X-166666Y-55271247D01*
X-166666Y-55271247D02*
X-214285Y-55461723D01*
X-214285Y-55461723D02*
X-261904Y-55556961D01*
X-261904Y-55556961D02*
X-357142Y-55652200D01*
X-357142Y-55652200D02*
X-499999Y-55699819D01*
X-499999Y-55699819D02*
X-738094Y-55699819D01*
X214286Y-54795057D02*
X261905Y-54747438D01*
X261905Y-54747438D02*
X357143Y-54699819D01*
X357143Y-54699819D02*
X595238Y-54699819D01*
X595238Y-54699819D02*
X690476Y-54747438D01*
X690476Y-54747438D02*
X738095Y-54795057D01*
X738095Y-54795057D02*
X785714Y-54890295D01*
X785714Y-54890295D02*
X785714Y-54985533D01*
X785714Y-54985533D02*
X738095Y-55128390D01*
X738095Y-55128390D02*
X166667Y-55699819D01*
X166667Y-55699819D02*
X785714Y-55699819D01*
X-611094Y-52016819D02*
X-611094Y-51016819D01*
X-611094Y-51016819D02*
X-372999Y-51016819D01*
X-372999Y-51016819D02*
X-230142Y-51064438D01*
X-230142Y-51064438D02*
X-134904Y-51159676D01*
X-134904Y-51159676D02*
X-87285Y-51254914D01*
X-87285Y-51254914D02*
X-39666Y-51445390D01*
X-39666Y-51445390D02*
X-39666Y-51588247D01*
X-39666Y-51588247D02*
X-87285Y-51778723D01*
X-87285Y-51778723D02*
X-134904Y-51873961D01*
X-134904Y-51873961D02*
X-230142Y-51969200D01*
X-230142Y-51969200D02*
X-372999Y-52016819D01*
X-372999Y-52016819D02*
X-611094Y-52016819D01*
X912714Y-52016819D02*
X341286Y-52016819D01*
X627000Y-52016819D02*
X627000Y-51016819D01*
X627000Y-51016819D02*
X531762Y-51159676D01*
X531762Y-51159676D02*
X436524Y-51254914D01*
X436524Y-51254914D02*
X341286Y-51302533D01*
X22833333Y-41359580D02*
X22785714Y-41407200D01*
X22785714Y-41407200D02*
X22642857Y-41454819D01*
X22642857Y-41454819D02*
X22547619Y-41454819D01*
X22547619Y-41454819D02*
X22404762Y-41407200D01*
X22404762Y-41407200D02*
X22309524Y-41311961D01*
X22309524Y-41311961D02*
X22261905Y-41216723D01*
X22261905Y-41216723D02*
X22214286Y-41026247D01*
X22214286Y-41026247D02*
X22214286Y-40883390D01*
X22214286Y-40883390D02*
X22261905Y-40692914D01*
X22261905Y-40692914D02*
X22309524Y-40597676D01*
X22309524Y-40597676D02*
X22404762Y-40502438D01*
X22404762Y-40502438D02*
X22547619Y-40454819D01*
X22547619Y-40454819D02*
X22642857Y-40454819D01*
X22642857Y-40454819D02*
X22785714Y-40502438D01*
X22785714Y-40502438D02*
X22833333Y-40550057D01*
X23214286Y-40550057D02*
X23261905Y-40502438D01*
X23261905Y-40502438D02*
X23357143Y-40454819D01*
X23357143Y-40454819D02*
X23595238Y-40454819D01*
X23595238Y-40454819D02*
X23690476Y-40502438D01*
X23690476Y-40502438D02*
X23738095Y-40550057D01*
X23738095Y-40550057D02*
X23785714Y-40645295D01*
X23785714Y-40645295D02*
X23785714Y-40740533D01*
X23785714Y-40740533D02*
X23738095Y-40883390D01*
X23738095Y-40883390D02*
X23166667Y-41454819D01*
X23166667Y-41454819D02*
X23785714Y-41454819D01*
X22833333Y-44359580D02*
X22785714Y-44407200D01*
X22785714Y-44407200D02*
X22642857Y-44454819D01*
X22642857Y-44454819D02*
X22547619Y-44454819D01*
X22547619Y-44454819D02*
X22404762Y-44407200D01*
X22404762Y-44407200D02*
X22309524Y-44311961D01*
X22309524Y-44311961D02*
X22261905Y-44216723D01*
X22261905Y-44216723D02*
X22214286Y-44026247D01*
X22214286Y-44026247D02*
X22214286Y-43883390D01*
X22214286Y-43883390D02*
X22261905Y-43692914D01*
X22261905Y-43692914D02*
X22309524Y-43597676D01*
X22309524Y-43597676D02*
X22404762Y-43502438D01*
X22404762Y-43502438D02*
X22547619Y-43454819D01*
X22547619Y-43454819D02*
X22642857Y-43454819D01*
X22642857Y-43454819D02*
X22785714Y-43502438D01*
X22785714Y-43502438D02*
X22833333Y-43550057D01*
X23785714Y-44454819D02*
X23214286Y-44454819D01*
X23500000Y-44454819D02*
X23500000Y-43454819D01*
X23500000Y-43454819D02*
X23404762Y-43597676D01*
X23404762Y-43597676D02*
X23309524Y-43692914D01*
X23309524Y-43692914D02*
X23214286Y-43740533D01*
X7961333Y-51762819D02*
X7628000Y-51286628D01*
X7389905Y-51762819D02*
X7389905Y-50762819D01*
X7389905Y-50762819D02*
X7770857Y-50762819D01*
X7770857Y-50762819D02*
X7866095Y-50810438D01*
X7866095Y-50810438D02*
X7913714Y-50858057D01*
X7913714Y-50858057D02*
X7961333Y-50953295D01*
X7961333Y-50953295D02*
X7961333Y-51096152D01*
X7961333Y-51096152D02*
X7913714Y-51191390D01*
X7913714Y-51191390D02*
X7866095Y-51239009D01*
X7866095Y-51239009D02*
X7770857Y-51286628D01*
X7770857Y-51286628D02*
X7389905Y-51286628D01*
X8913714Y-51762819D02*
X8342286Y-51762819D01*
X8628000Y-51762819D02*
X8628000Y-50762819D01*
X8628000Y-50762819D02*
X8532762Y-50905676D01*
X8532762Y-50905676D02*
X8437524Y-51000914D01*
X8437524Y-51000914D02*
X8342286Y-51048533D01*
D10*
X60880666Y-23257219D02*
X60880666Y-23971504D01*
X60880666Y-23971504D02*
X60833047Y-24114361D01*
X60833047Y-24114361D02*
X60737809Y-24209600D01*
X60737809Y-24209600D02*
X60594952Y-24257219D01*
X60594952Y-24257219D02*
X60499714Y-24257219D01*
X61880666Y-24257219D02*
X61309238Y-24257219D01*
X61594952Y-24257219D02*
X61594952Y-23257219D01*
X61594952Y-23257219D02*
X61499714Y-23400076D01*
X61499714Y-23400076D02*
X61404476Y-23495314D01*
X61404476Y-23495314D02*
X61309238Y-23542933D01*
D11*
X7961333Y-55826819D02*
X7628000Y-55350628D01*
X7389905Y-55826819D02*
X7389905Y-54826819D01*
X7389905Y-54826819D02*
X7770857Y-54826819D01*
X7770857Y-54826819D02*
X7866095Y-54874438D01*
X7866095Y-54874438D02*
X7913714Y-54922057D01*
X7913714Y-54922057D02*
X7961333Y-55017295D01*
X7961333Y-55017295D02*
X7961333Y-55160152D01*
X7961333Y-55160152D02*
X7913714Y-55255390D01*
X7913714Y-55255390D02*
X7866095Y-55303009D01*
X7866095Y-55303009D02*
X7770857Y-55350628D01*
X7770857Y-55350628D02*
X7389905Y-55350628D01*
X8342286Y-54922057D02*
X8389905Y-54874438D01*
X8389905Y-54874438D02*
X8485143Y-54826819D01*
X8485143Y-54826819D02*
X8723238Y-54826819D01*
X8723238Y-54826819D02*
X8818476Y-54874438D01*
X8818476Y-54874438D02*
X8866095Y-54922057D01*
X8866095Y-54922057D02*
X8913714Y-55017295D01*
X8913714Y-55017295D02*
X8913714Y-55112533D01*
X8913714Y-55112533D02*
X8866095Y-55255390D01*
X8866095Y-55255390D02*
X8294667Y-55826819D01*
X8294667Y-55826819D02*
X8913714Y-55826819D01*
X7961333Y-67002819D02*
X7628000Y-66526628D01*
X7389905Y-67002819D02*
X7389905Y-66002819D01*
X7389905Y-66002819D02*
X7770857Y-66002819D01*
X7770857Y-66002819D02*
X7866095Y-66050438D01*
X7866095Y-66050438D02*
X7913714Y-66098057D01*
X7913714Y-66098057D02*
X7961333Y-66193295D01*
X7961333Y-66193295D02*
X7961333Y-66336152D01*
X7961333Y-66336152D02*
X7913714Y-66431390D01*
X7913714Y-66431390D02*
X7866095Y-66479009D01*
X7866095Y-66479009D02*
X7770857Y-66526628D01*
X7770857Y-66526628D02*
X7389905Y-66526628D01*
X8866095Y-66002819D02*
X8389905Y-66002819D01*
X8389905Y-66002819D02*
X8342286Y-66479009D01*
X8342286Y-66479009D02*
X8389905Y-66431390D01*
X8389905Y-66431390D02*
X8485143Y-66383771D01*
X8485143Y-66383771D02*
X8723238Y-66383771D01*
X8723238Y-66383771D02*
X8818476Y-66431390D01*
X8818476Y-66431390D02*
X8866095Y-66479009D01*
X8866095Y-66479009D02*
X8913714Y-66574247D01*
X8913714Y-66574247D02*
X8913714Y-66812342D01*
X8913714Y-66812342D02*
X8866095Y-66907580D01*
X8866095Y-66907580D02*
X8818476Y-66955200D01*
X8818476Y-66955200D02*
X8723238Y-67002819D01*
X8723238Y-67002819D02*
X8485143Y-67002819D01*
X8485143Y-67002819D02*
X8389905Y-66955200D01*
X8389905Y-66955200D02*
X8342286Y-66907580D01*
X7961333Y-63446819D02*
X7628000Y-62970628D01*
X7389905Y-63446819D02*
X7389905Y-62446819D01*
X7389905Y-62446819D02*
X7770857Y-62446819D01*
X7770857Y-62446819D02*
X7866095Y-62494438D01*
X7866095Y-62494438D02*
X7913714Y-62542057D01*
X7913714Y-62542057D02*
X7961333Y-62637295D01*
X7961333Y-62637295D02*
X7961333Y-62780152D01*
X7961333Y-62780152D02*
X7913714Y-62875390D01*
X7913714Y-62875390D02*
X7866095Y-62923009D01*
X7866095Y-62923009D02*
X7770857Y-62970628D01*
X7770857Y-62970628D02*
X7389905Y-62970628D01*
X8818476Y-62780152D02*
X8818476Y-63446819D01*
X8580381Y-62399200D02*
X8342286Y-63113485D01*
X8342286Y-63113485D02*
X8961333Y-63113485D01*
X7961333Y-59382819D02*
X7628000Y-58906628D01*
X7389905Y-59382819D02*
X7389905Y-58382819D01*
X7389905Y-58382819D02*
X7770857Y-58382819D01*
X7770857Y-58382819D02*
X7866095Y-58430438D01*
X7866095Y-58430438D02*
X7913714Y-58478057D01*
X7913714Y-58478057D02*
X7961333Y-58573295D01*
X7961333Y-58573295D02*
X7961333Y-58716152D01*
X7961333Y-58716152D02*
X7913714Y-58811390D01*
X7913714Y-58811390D02*
X7866095Y-58859009D01*
X7866095Y-58859009D02*
X7770857Y-58906628D01*
X7770857Y-58906628D02*
X7389905Y-58906628D01*
X8294667Y-58382819D02*
X8913714Y-58382819D01*
X8913714Y-58382819D02*
X8580381Y-58763771D01*
X8580381Y-58763771D02*
X8723238Y-58763771D01*
X8723238Y-58763771D02*
X8818476Y-58811390D01*
X8818476Y-58811390D02*
X8866095Y-58859009D01*
X8866095Y-58859009D02*
X8913714Y-58954247D01*
X8913714Y-58954247D02*
X8913714Y-59192342D01*
X8913714Y-59192342D02*
X8866095Y-59287580D01*
X8866095Y-59287580D02*
X8818476Y-59335200D01*
X8818476Y-59335200D02*
X8723238Y-59382819D01*
X8723238Y-59382819D02*
X8437524Y-59382819D01*
X8437524Y-59382819D02*
X8342286Y-59335200D01*
X8342286Y-59335200D02*
X8294667Y-59287580D01*
D10*
X78152666Y-23257219D02*
X78152666Y-23971504D01*
X78152666Y-23971504D02*
X78105047Y-24114361D01*
X78105047Y-24114361D02*
X78009809Y-24209600D01*
X78009809Y-24209600D02*
X77866952Y-24257219D01*
X77866952Y-24257219D02*
X77771714Y-24257219D01*
X78533619Y-23257219D02*
X79152666Y-23257219D01*
X79152666Y-23257219D02*
X78819333Y-23638171D01*
X78819333Y-23638171D02*
X78962190Y-23638171D01*
X78962190Y-23638171D02*
X79057428Y-23685790D01*
X79057428Y-23685790D02*
X79105047Y-23733409D01*
X79105047Y-23733409D02*
X79152666Y-23828647D01*
X79152666Y-23828647D02*
X79152666Y-24066742D01*
X79152666Y-24066742D02*
X79105047Y-24161980D01*
X79105047Y-24161980D02*
X79057428Y-24209600D01*
X79057428Y-24209600D02*
X78962190Y-24257219D01*
X78962190Y-24257219D02*
X78676476Y-24257219D01*
X78676476Y-24257219D02*
X78581238Y-24209600D01*
X78581238Y-24209600D02*
X78533619Y-24161980D01*
%TO.C,J5*%
X108458000Y-41579800D02*
X118618000Y-41579800D01*
X108458000Y-41579800D01*
X118618000Y-181279800D02*
X118618000Y-171119800D01*
X118618000Y-41579800D02*
X118618000Y-171119800D01*
X118618000Y-31419800D02*
X118618000Y-41579800D01*
X116078000Y-181279800D02*
X118618000Y-181279800D01*
X110998000Y-31419800D02*
X108458000Y-31419800D01*
X108458000Y-181279800D02*
X116078000Y-181279800D01*
X108458000Y-171119800D02*
X118618000Y-171119800D01*
X108458000Y-171119800D02*
X108458000Y-181279800D01*
X108458000Y-171119800D02*
X108458000Y-41579800D01*
X108458000Y-31419800D02*
X118618000Y-31419800D01*
X108458000Y-31419800D02*
X108458000Y-41579800D01*
%TO.C,J4*%
X125730000Y-41579800D02*
X135890000Y-41579800D01*
X125730000Y-41579800D01*
X135890000Y-181279800D02*
X135890000Y-171119800D01*
X135890000Y-41579800D02*
X135890000Y-171119800D01*
X135890000Y-31419800D02*
X135890000Y-41579800D01*
X133350000Y-181279800D02*
X135890000Y-181279800D01*
X128270000Y-31419800D02*
X125730000Y-31419800D01*
X125730000Y-181279800D02*
X133350000Y-181279800D01*
X125730000Y-171119800D02*
X135890000Y-171119800D01*
X125730000Y-171119800D02*
X125730000Y-181279800D01*
X125730000Y-171119800D02*
X125730000Y-41579800D01*
X125730000Y-31419800D02*
X135890000Y-31419800D01*
X125730000Y-31419800D02*
X125730000Y-41579800D01*
D12*
%TO.C,SW1*%
X12390000Y-74918000D02*
X12390000Y-73418000D01*
X11140000Y-70918000D02*
X6640000Y-70918000D01*
X6640000Y-77418000D02*
X11140000Y-77418000D01*
X5390000Y-73418000D02*
X5390000Y-74918000D01*
%TO.C,J10*%
X15231300Y-104205400D02*
X15231300Y-124445400D01*
X12211300Y-104205400D02*
X12211300Y-124445400D01*
X7311300Y-104205400D02*
X7311300Y-124445400D01*
X5811300Y-104205400D02*
X5811300Y-124445400D01*
X5191300Y-104205400D02*
X15231300Y-104205400D01*
X5191300Y-106525400D02*
X5191300Y-104205400D01*
X15231300Y-124445400D02*
X5191300Y-124445400D01*
X5191300Y-124445400D02*
X5191300Y-107125400D01*
X5191300Y-106825400D02*
X4581300Y-107265400D01*
X4581300Y-106385400D01*
X5191300Y-106825400D01*
G36*
X5191300Y-106825400D02*
G01*
X4581300Y-107265400D01*
X4581300Y-106385400D01*
X5191300Y-106825400D01*
G37*
%TO.C,J9*%
X15302200Y-172745400D02*
X15302200Y-192985400D01*
X12282200Y-172745400D02*
X12282200Y-192985400D01*
X7382200Y-172745400D02*
X7382200Y-192985400D01*
X5882200Y-172745400D02*
X5882200Y-192985400D01*
X5262200Y-172745400D02*
X15302200Y-172745400D01*
X5262200Y-175065400D02*
X5262200Y-172745400D01*
X15302200Y-192985400D02*
X5262200Y-192985400D01*
X5262200Y-192985400D02*
X5262200Y-175665400D01*
X5262200Y-175365400D02*
X4652200Y-175805400D01*
X4652200Y-174925400D01*
X5262200Y-175365400D01*
G36*
X5262200Y-175365400D02*
G01*
X4652200Y-175805400D01*
X4652200Y-174925400D01*
X5262200Y-175365400D01*
G37*
%TO.C,J8*%
X15302200Y-151409400D02*
X15302200Y-171649400D01*
X12282200Y-151409400D02*
X12282200Y-171649400D01*
X7382200Y-151409400D02*
X7382200Y-171649400D01*
X5882200Y-151409400D02*
X5882200Y-171649400D01*
X5262200Y-151409400D02*
X15302200Y-151409400D01*
X5262200Y-153729400D02*
X5262200Y-151409400D01*
X15302200Y-171649400D02*
X5262200Y-171649400D01*
X5262200Y-171649400D02*
X5262200Y-154329400D01*
X5262200Y-154029400D02*
X4652200Y-154469400D01*
X4652200Y-153589400D01*
X5262200Y-154029400D01*
G36*
X5262200Y-154029400D02*
G01*
X4652200Y-154469400D01*
X4652200Y-153589400D01*
X5262200Y-154029400D01*
G37*
%TO.C,J7*%
X15302200Y-130073400D02*
X15302200Y-150313400D01*
X12282200Y-130073400D02*
X12282200Y-150313400D01*
X7382200Y-130073400D02*
X7382200Y-150313400D01*
X5882200Y-130073400D02*
X5882200Y-150313400D01*
X5262200Y-130073400D02*
X15302200Y-130073400D01*
X5262200Y-132393400D02*
X5262200Y-130073400D01*
X15302200Y-150313400D02*
X5262200Y-150313400D01*
X5262200Y-150313400D02*
X5262200Y-132993400D01*
X5262200Y-132693400D02*
X4652200Y-133133400D01*
X4652200Y-132253400D01*
X5262200Y-132693400D01*
G36*
X5262200Y-132693400D02*
G01*
X4652200Y-133133400D01*
X4652200Y-132253400D01*
X5262200Y-132693400D01*
G37*
%TO.C,U1*%
X13940000Y-17260000D02*
X24160000Y-17260000D01*
X13940000Y-33130000D02*
X13940000Y-17260000D01*
X13940000Y-33130000D02*
X24160000Y-33130000D01*
X16025000Y-33130000D02*
X16025000Y-35570000D01*
X16995000Y-33130000D02*
X16995000Y-35570000D01*
X18565000Y-33130000D02*
X18565000Y-35570000D01*
X19535000Y-33130000D02*
X19535000Y-35570000D01*
X21105000Y-33130000D02*
X21105000Y-35570000D01*
X22075000Y-33130000D02*
X22075000Y-35570000D01*
X24160000Y-33130000D02*
X24160000Y-17260000D01*
%TO.C,D5*%
X1841800Y-65740400D02*
X1841800Y-67660400D01*
X1841800Y-67660400D02*
X4701800Y-67660400D01*
X4701800Y-65740400D02*
X1841800Y-65740400D01*
%TO.C,D4*%
X1841800Y-58120400D02*
X1841800Y-60040400D01*
X1841800Y-60040400D02*
X4701800Y-60040400D01*
X4701800Y-58120400D02*
X1841800Y-58120400D01*
%TO.C,D3*%
X1841800Y-61930400D02*
X1841800Y-63850400D01*
X1841800Y-63850400D02*
X4701800Y-63850400D01*
X4701800Y-61930400D02*
X1841800Y-61930400D01*
%TO.C,D2*%
X1841800Y-54310400D02*
X1841800Y-56230400D01*
X1841800Y-56230400D02*
X4701800Y-56230400D01*
X4701800Y-54310400D02*
X1841800Y-54310400D01*
%TO.C,D1*%
X1841800Y-50500400D02*
X1841800Y-52420400D01*
X1841800Y-52420400D02*
X4701800Y-52420400D01*
X4701800Y-50500400D02*
X1841800Y-50500400D01*
%TO.C,C2*%
X19311252Y-40835000D02*
X18788748Y-40835000D01*
X19311252Y-39365000D02*
X18788748Y-39365000D01*
%TO.C,C1*%
X19311252Y-43335000D02*
X18788748Y-43335000D01*
X19311252Y-41865000D02*
X18788748Y-41865000D01*
D10*
%TO.C,J2*%
X91186000Y-31419800D02*
X91186000Y-41579800D01*
X91186000Y-31419800D02*
X101346000Y-31419800D01*
X91186000Y-171119800D02*
X91186000Y-41579800D01*
X91186000Y-171119800D02*
X91186000Y-181279800D01*
X91186000Y-171119800D02*
X101346000Y-171119800D01*
X91186000Y-181279800D02*
X98806000Y-181279800D01*
X93726000Y-31419800D02*
X91186000Y-31419800D01*
X98806000Y-181279800D02*
X101346000Y-181279800D01*
X101346000Y-31419800D02*
X101346000Y-41579800D01*
X101346000Y-41579800D02*
X101346000Y-171119800D01*
X101346000Y-181279800D02*
X101346000Y-171119800D01*
X91186000Y-41579800D02*
X101346000Y-41579800D01*
X91186000Y-41579800D01*
D12*
%TO.C,R1*%
X11818864Y-52195400D02*
X11364736Y-52195400D01*
X11818864Y-50725400D02*
X11364736Y-50725400D01*
D10*
%TO.C,J1*%
X56642000Y-31419800D02*
X56642000Y-41579800D01*
X56642000Y-31419800D02*
X66802000Y-31419800D01*
X56642000Y-171119800D02*
X56642000Y-41579800D01*
X56642000Y-171119800D02*
X56642000Y-181279800D01*
X56642000Y-171119800D02*
X66802000Y-171119800D01*
X56642000Y-181279800D02*
X64262000Y-181279800D01*
X59182000Y-31419800D02*
X56642000Y-31419800D01*
X64262000Y-181279800D02*
X66802000Y-181279800D01*
X66802000Y-31419800D02*
X66802000Y-41579800D01*
X66802000Y-41579800D02*
X66802000Y-171119800D01*
X66802000Y-181279800D02*
X66802000Y-171119800D01*
X56642000Y-41579800D02*
X66802000Y-41579800D01*
X56642000Y-41579800D01*
D12*
%TO.C,R2*%
X11818864Y-56005400D02*
X11364736Y-56005400D01*
X11818864Y-54535400D02*
X11364736Y-54535400D01*
%TO.C,R5*%
X11818864Y-67435400D02*
X11364736Y-67435400D01*
X11818864Y-65965400D02*
X11364736Y-65965400D01*
%TO.C,R4*%
X11818864Y-63625400D02*
X11364736Y-63625400D01*
X11818864Y-62155400D02*
X11364736Y-62155400D01*
%TO.C,R3*%
X11818864Y-59815400D02*
X11364736Y-59815400D01*
X11818864Y-58345400D02*
X11364736Y-58345400D01*
D10*
%TO.C,J3*%
X73914000Y-31419800D02*
X73914000Y-41579800D01*
X73914000Y-31419800D02*
X84074000Y-31419800D01*
X73914000Y-171119800D02*
X73914000Y-41579800D01*
X73914000Y-171119800D02*
X73914000Y-181279800D01*
X73914000Y-171119800D02*
X84074000Y-171119800D01*
X73914000Y-181279800D02*
X81534000Y-181279800D01*
X76454000Y-31419800D02*
X73914000Y-31419800D01*
X81534000Y-181279800D02*
X84074000Y-181279800D01*
X84074000Y-31419800D02*
X84074000Y-41579800D01*
X84074000Y-41579800D02*
X84074000Y-171119800D01*
X84074000Y-181279800D02*
X84074000Y-171119800D01*
X73914000Y-41579800D02*
X84074000Y-41579800D01*
X73914000Y-41579800D01*
%TD*%
M02*
