%TF.GenerationSoftware,KiCad,Pcbnew,9.0.6-1.fc43*%
%TF.CreationDate,2026-03-20T05:45:43+00:00*%
%TF.ProjectId,cptrep_8500_backplane,63707472-6570-45f3-9835-30305f626163,rev?*%
%TF.SameCoordinates,Original*%
%TF.FileFunction,Legend,Top*%
%TF.FilePolarity,Positive*%
%FSLAX46Y46*%
G04 Gerber Fmt 4.6, Leading zero omitted, Abs format (unit mm)*
G04 Created by KiCad (PCBNEW 9.0.6-1.fc43) date 2026-03-20 05:45:43*
%MOMM*%
%LPD*%
G01*
G04 APERTURE LIST*
%ADD10C,0.150000*%
%ADD11C,0.120000*%
G04 APERTURE END LIST*
D10*
X115944819Y-103223333D02*
X116659104Y-103223333D01*
X116659104Y-103223333D02*
X116801961Y-103270952D01*
X116801961Y-103270952D02*
X116897200Y-103366190D01*
X116897200Y-103366190D02*
X116944819Y-103509047D01*
X116944819Y-103509047D02*
X116944819Y-103604285D01*
X115944819Y-102270952D02*
X115944819Y-102747142D01*
X115944819Y-102747142D02*
X116421009Y-102794761D01*
X116421009Y-102794761D02*
X116373390Y-102747142D01*
X116373390Y-102747142D02*
X116325771Y-102651904D01*
X116325771Y-102651904D02*
X116325771Y-102413809D01*
X116325771Y-102413809D02*
X116373390Y-102318571D01*
X116373390Y-102318571D02*
X116421009Y-102270952D01*
X116421009Y-102270952D02*
X116516247Y-102223333D01*
X116516247Y-102223333D02*
X116754342Y-102223333D01*
X116754342Y-102223333D02*
X116849580Y-102270952D01*
X116849580Y-102270952D02*
X116897200Y-102318571D01*
X116897200Y-102318571D02*
X116944819Y-102413809D01*
X116944819Y-102413809D02*
X116944819Y-102651904D01*
X116944819Y-102651904D02*
X116897200Y-102747142D01*
X116897200Y-102747142D02*
X116849580Y-102794761D01*
X101464819Y-103083333D02*
X102179104Y-103083333D01*
X102179104Y-103083333D02*
X102321961Y-103130952D01*
X102321961Y-103130952D02*
X102417200Y-103226190D01*
X102417200Y-103226190D02*
X102464819Y-103369047D01*
X102464819Y-103369047D02*
X102464819Y-103464285D01*
X101798152Y-102178571D02*
X102464819Y-102178571D01*
X101417200Y-102416666D02*
X102131485Y-102654761D01*
X102131485Y-102654761D02*
X102131485Y-102035714D01*
X85894819Y-103513333D02*
X86609104Y-103513333D01*
X86609104Y-103513333D02*
X86751961Y-103560952D01*
X86751961Y-103560952D02*
X86847200Y-103656190D01*
X86847200Y-103656190D02*
X86894819Y-103799047D01*
X86894819Y-103799047D02*
X86894819Y-103894285D01*
X85894819Y-103132380D02*
X85894819Y-102513333D01*
X85894819Y-102513333D02*
X86275771Y-102846666D01*
X86275771Y-102846666D02*
X86275771Y-102703809D01*
X86275771Y-102703809D02*
X86323390Y-102608571D01*
X86323390Y-102608571D02*
X86371009Y-102560952D01*
X86371009Y-102560952D02*
X86466247Y-102513333D01*
X86466247Y-102513333D02*
X86704342Y-102513333D01*
X86704342Y-102513333D02*
X86799580Y-102560952D01*
X86799580Y-102560952D02*
X86847200Y-102608571D01*
X86847200Y-102608571D02*
X86894819Y-102703809D01*
X86894819Y-102703809D02*
X86894819Y-102989523D01*
X86894819Y-102989523D02*
X86847200Y-103084761D01*
X86847200Y-103084761D02*
X86799580Y-103132380D01*
X68144819Y-103643333D02*
X68859104Y-103643333D01*
X68859104Y-103643333D02*
X69001961Y-103690952D01*
X69001961Y-103690952D02*
X69097200Y-103786190D01*
X69097200Y-103786190D02*
X69144819Y-103929047D01*
X69144819Y-103929047D02*
X69144819Y-104024285D01*
X68240057Y-103214761D02*
X68192438Y-103167142D01*
X68192438Y-103167142D02*
X68144819Y-103071904D01*
X68144819Y-103071904D02*
X68144819Y-102833809D01*
X68144819Y-102833809D02*
X68192438Y-102738571D01*
X68192438Y-102738571D02*
X68240057Y-102690952D01*
X68240057Y-102690952D02*
X68335295Y-102643333D01*
X68335295Y-102643333D02*
X68430533Y-102643333D01*
X68430533Y-102643333D02*
X68573390Y-102690952D01*
X68573390Y-102690952D02*
X69144819Y-103262380D01*
X69144819Y-103262380D02*
X69144819Y-102643333D01*
X51634819Y-103553333D02*
X52349104Y-103553333D01*
X52349104Y-103553333D02*
X52491961Y-103600952D01*
X52491961Y-103600952D02*
X52587200Y-103696190D01*
X52587200Y-103696190D02*
X52634819Y-103839047D01*
X52634819Y-103839047D02*
X52634819Y-103934285D01*
X52634819Y-102553333D02*
X52634819Y-103124761D01*
X52634819Y-102839047D02*
X51634819Y-102839047D01*
X51634819Y-102839047D02*
X51777676Y-102934285D01*
X51777676Y-102934285D02*
X51872914Y-103029523D01*
X51872914Y-103029523D02*
X51920533Y-103124761D01*
D11*
%TO.C,J5*%
X117580000Y-166500000D02*
X117580000Y-39280000D01*
X122880000Y-166500000D02*
X117580000Y-166500000D01*
X117580000Y-39280000D02*
X122880000Y-39280000D01*
X122880000Y-39280000D02*
X122880000Y-166500000D01*
%TO.C,J4*%
X103100000Y-166360000D02*
X103100000Y-39140000D01*
X108400000Y-166360000D02*
X103100000Y-166360000D01*
X103100000Y-39140000D02*
X108400000Y-39140000D01*
X108400000Y-39140000D02*
X108400000Y-166360000D01*
%TO.C,J3*%
X87530000Y-166790000D02*
X87530000Y-39570000D01*
X92830000Y-166790000D02*
X87530000Y-166790000D01*
X87530000Y-39570000D02*
X92830000Y-39570000D01*
X92830000Y-39570000D02*
X92830000Y-166790000D01*
%TO.C,J2*%
X69780000Y-166920000D02*
X69780000Y-39700000D01*
X75080000Y-166920000D02*
X69780000Y-166920000D01*
X69780000Y-39700000D02*
X75080000Y-39700000D01*
X75080000Y-39700000D02*
X75080000Y-166920000D01*
%TO.C,J1*%
X53270000Y-166830000D02*
X53270000Y-39610000D01*
X58570000Y-166830000D02*
X53270000Y-166830000D01*
X53270000Y-39610000D02*
X58570000Y-39610000D01*
X58570000Y-39610000D02*
X58570000Y-166830000D01*
%TD*%
M02*
