%TF.GenerationSoftware,KiCad,Pcbnew,9.0.6-1.fc43*%
%TF.CreationDate,2026-03-28T09:16:53+00:00*%
%TF.ProjectId,cptrep_8500_backplane,63707472-6570-45f3-9835-30305f626163,rev?*%
%TF.SameCoordinates,Original*%
%TF.FileFunction,Soldermask,Bot*%
%TF.FilePolarity,Negative*%
%FSLAX46Y46*%
G04 Gerber Fmt 4.6, Leading zero omitted, Abs format (unit mm)*
G04 Created by KiCad (PCBNEW 9.0.6-1.fc43) date 2026-03-28 09:16:53*
%MOMM*%
%LPD*%
G01*
G04 APERTURE LIST*
G04 Aperture macros list*
%AMRoundRect*
0 Rectangle with rounded corners*
0 $1 Rounding radius*
0 $2 $3 $4 $5 $6 $7 $8 $9 X,Y pos of 4 corners*
0 Add a 4 corners polygon primitive as box body*
4,1,4,$2,$3,$4,$5,$6,$7,$8,$9,$2,$3,0*
0 Add four circle primitives for the rounded corners*
1,1,$1+$1,$2,$3*
1,1,$1+$1,$4,$5*
1,1,$1+$1,$6,$7*
1,1,$1+$1,$8,$9*
0 Add four rect primitives between the rounded corners*
20,1,$1+$1,$2,$3,$4,$5,0*
20,1,$1+$1,$4,$5,$6,$7,0*
20,1,$1+$1,$6,$7,$8,$9,0*
20,1,$1+$1,$8,$9,$2,$3,0*%
G04 Aperture macros list end*
%ADD10RoundRect,0.225000X-1.025000X-0.525000X1.025000X-0.525000X1.025000X0.525000X-1.025000X0.525000X0*%
%ADD11C,2.000000*%
%ADD12RoundRect,0.250000X-1.050000X1.050000X-1.050000X-1.050000X1.050000X-1.050000X1.050000X1.050000X0*%
%ADD13C,2.600000*%
%ADD14C,3.500000*%
%ADD15R,1.905000X2.000000*%
%ADD16O,1.905000X2.000000*%
G04 APERTURE END LIST*
D10*
%TO.C,J5*%
X116078000Y-168579800D03*
X110998000Y-168579800D03*
X116078000Y-166039800D03*
X110998000Y-166039800D03*
X116078000Y-163499800D03*
X110998000Y-163499800D03*
X116078000Y-160959800D03*
X110998000Y-160959800D03*
X116078000Y-158419800D03*
X110998000Y-158419800D03*
X116078000Y-155879800D03*
X110998000Y-155879800D03*
X116078000Y-153339800D03*
X110998000Y-153339800D03*
X116078000Y-150799800D03*
X110998000Y-150799800D03*
X116078000Y-148259800D03*
X110998000Y-148259800D03*
X116078000Y-145719800D03*
X110998000Y-145719800D03*
X116078000Y-143179800D03*
X110998000Y-143179800D03*
X116078000Y-140639800D03*
X110998000Y-140639800D03*
X116078000Y-138099800D03*
X110998000Y-138099800D03*
X116078000Y-135559800D03*
X110998000Y-135559800D03*
X116078000Y-133019800D03*
X110998000Y-133019800D03*
X116078000Y-130479800D03*
X110998000Y-130479800D03*
X116078000Y-127939800D03*
X110998000Y-127939800D03*
X116078000Y-125399800D03*
X110998000Y-125399800D03*
X116078000Y-122859800D03*
X110998000Y-122859800D03*
X116078000Y-120319800D03*
X110998000Y-120319800D03*
X116078000Y-117779800D03*
X110998000Y-117779800D03*
X116078000Y-115239800D03*
X110998000Y-115239800D03*
X116078000Y-112699800D03*
X110998000Y-112699800D03*
X116078000Y-110159800D03*
X110998000Y-110159800D03*
X116078000Y-107619800D03*
X110998000Y-107619800D03*
X116078000Y-105079800D03*
X110998000Y-105079800D03*
X116078000Y-102539800D03*
X110998000Y-102539800D03*
X116078000Y-99999800D03*
X110998000Y-99999800D03*
X116078000Y-97459800D03*
X110998000Y-97459800D03*
X116078000Y-94919800D03*
X110998000Y-94919800D03*
X116078000Y-92379800D03*
X110998000Y-92379800D03*
X116078000Y-89839800D03*
X110998000Y-89839800D03*
X116078000Y-87299800D03*
X110998000Y-87299800D03*
X116078000Y-84759800D03*
X110998000Y-84759800D03*
X116078000Y-82219800D03*
X110998000Y-82219800D03*
X116078000Y-79679800D03*
X110998000Y-79679800D03*
X116078000Y-77139800D03*
X110998000Y-77139800D03*
X116078000Y-74599800D03*
X110998000Y-74599800D03*
X116078000Y-72059800D03*
X110998000Y-72059800D03*
X116078000Y-69519800D03*
X110998000Y-69519800D03*
X116078000Y-66979800D03*
X110998000Y-66979800D03*
X116078000Y-64439800D03*
X110998000Y-64439800D03*
X116078000Y-61899800D03*
X110998000Y-61899800D03*
X116078000Y-59359800D03*
X110998000Y-59359800D03*
X116078000Y-56819800D03*
X110998000Y-56819800D03*
X116078000Y-54279800D03*
X110998000Y-54279800D03*
X116078000Y-51739800D03*
X110998000Y-51739800D03*
X116078000Y-49199800D03*
X110998000Y-49199800D03*
X116078000Y-46659800D03*
X110998000Y-46659800D03*
X116078000Y-44119800D03*
X110998000Y-44119800D03*
%TD*%
%TO.C,J4*%
X133350000Y-168579800D03*
X128270000Y-168579800D03*
X133350000Y-166039800D03*
X128270000Y-166039800D03*
X133350000Y-163499800D03*
X128270000Y-163499800D03*
X133350000Y-160959800D03*
X128270000Y-160959800D03*
X133350000Y-158419800D03*
X128270000Y-158419800D03*
X133350000Y-155879800D03*
X128270000Y-155879800D03*
X133350000Y-153339800D03*
X128270000Y-153339800D03*
X133350000Y-150799800D03*
X128270000Y-150799800D03*
X133350000Y-148259800D03*
X128270000Y-148259800D03*
X133350000Y-145719800D03*
X128270000Y-145719800D03*
X133350000Y-143179800D03*
X128270000Y-143179800D03*
X133350000Y-140639800D03*
X128270000Y-140639800D03*
X133350000Y-138099800D03*
X128270000Y-138099800D03*
X133350000Y-135559800D03*
X128270000Y-135559800D03*
X133350000Y-133019800D03*
X128270000Y-133019800D03*
X133350000Y-130479800D03*
X128270000Y-130479800D03*
X133350000Y-127939800D03*
X128270000Y-127939800D03*
X133350000Y-125399800D03*
X128270000Y-125399800D03*
X133350000Y-122859800D03*
X128270000Y-122859800D03*
X133350000Y-120319800D03*
X128270000Y-120319800D03*
X133350000Y-117779800D03*
X128270000Y-117779800D03*
X133350000Y-115239800D03*
X128270000Y-115239800D03*
X133350000Y-112699800D03*
X128270000Y-112699800D03*
X133350000Y-110159800D03*
X128270000Y-110159800D03*
X133350000Y-107619800D03*
X128270000Y-107619800D03*
X133350000Y-105079800D03*
X128270000Y-105079800D03*
X133350000Y-102539800D03*
X128270000Y-102539800D03*
X133350000Y-99999800D03*
X128270000Y-99999800D03*
X133350000Y-97459800D03*
X128270000Y-97459800D03*
X133350000Y-94919800D03*
X128270000Y-94919800D03*
X133350000Y-92379800D03*
X128270000Y-92379800D03*
X133350000Y-89839800D03*
X128270000Y-89839800D03*
X133350000Y-87299800D03*
X128270000Y-87299800D03*
X133350000Y-84759800D03*
X128270000Y-84759800D03*
X133350000Y-82219800D03*
X128270000Y-82219800D03*
X133350000Y-79679800D03*
X128270000Y-79679800D03*
X133350000Y-77139800D03*
X128270000Y-77139800D03*
X133350000Y-74599800D03*
X128270000Y-74599800D03*
X133350000Y-72059800D03*
X128270000Y-72059800D03*
X133350000Y-69519800D03*
X128270000Y-69519800D03*
X133350000Y-66979800D03*
X128270000Y-66979800D03*
X133350000Y-64439800D03*
X128270000Y-64439800D03*
X133350000Y-61899800D03*
X128270000Y-61899800D03*
X133350000Y-59359800D03*
X128270000Y-59359800D03*
X133350000Y-56819800D03*
X128270000Y-56819800D03*
X133350000Y-54279800D03*
X128270000Y-54279800D03*
X133350000Y-51739800D03*
X128270000Y-51739800D03*
X133350000Y-49199800D03*
X128270000Y-49199800D03*
X133350000Y-46659800D03*
X128270000Y-46659800D03*
X133350000Y-44119800D03*
X128270000Y-44119800D03*
%TD*%
D11*
%TO.C,SW1*%
X12140000Y-76418000D03*
X5640000Y-76418000D03*
X12140000Y-71918000D03*
X5640000Y-71918000D03*
%TD*%
D12*
%TO.C,J10*%
X9911300Y-106825400D03*
D13*
X9911300Y-111825400D03*
X9911300Y-116825400D03*
X9911300Y-121825400D03*
%TD*%
D12*
%TO.C,J9*%
X9982200Y-175365400D03*
D13*
X9982200Y-180365400D03*
X9982200Y-185365400D03*
X9982200Y-190365400D03*
%TD*%
D12*
%TO.C,J8*%
X9982200Y-154029400D03*
D13*
X9982200Y-159029400D03*
X9982200Y-164029400D03*
X9982200Y-169029400D03*
%TD*%
D12*
%TO.C,J7*%
X9982200Y-132693400D03*
D13*
X9982200Y-137693400D03*
X9982200Y-142693400D03*
X9982200Y-147693400D03*
%TD*%
D14*
%TO.C,U1*%
X19050000Y-20170000D03*
D15*
X16510000Y-36830000D03*
D16*
X19050000Y-36830000D03*
X21590000Y-36830000D03*
%TD*%
D10*
%TO.C,J2*%
X93726000Y-44119800D03*
X98806000Y-44119800D03*
X93726000Y-46659800D03*
X98806000Y-46659800D03*
X93726000Y-49199800D03*
X98806000Y-49199800D03*
X93726000Y-51739800D03*
X98806000Y-51739800D03*
X93726000Y-54279800D03*
X98806000Y-54279800D03*
X93726000Y-56819800D03*
X98806000Y-56819800D03*
X93726000Y-59359800D03*
X98806000Y-59359800D03*
X93726000Y-61899800D03*
X98806000Y-61899800D03*
X93726000Y-64439800D03*
X98806000Y-64439800D03*
X93726000Y-66979800D03*
X98806000Y-66979800D03*
X93726000Y-69519800D03*
X98806000Y-69519800D03*
X93726000Y-72059800D03*
X98806000Y-72059800D03*
X93726000Y-74599800D03*
X98806000Y-74599800D03*
X93726000Y-77139800D03*
X98806000Y-77139800D03*
X93726000Y-79679800D03*
X98806000Y-79679800D03*
X93726000Y-82219800D03*
X98806000Y-82219800D03*
X93726000Y-84759800D03*
X98806000Y-84759800D03*
X93726000Y-87299800D03*
X98806000Y-87299800D03*
X93726000Y-89839800D03*
X98806000Y-89839800D03*
X93726000Y-92379800D03*
X98806000Y-92379800D03*
X93726000Y-94919800D03*
X98806000Y-94919800D03*
X93726000Y-97459800D03*
X98806000Y-97459800D03*
X93726000Y-99999800D03*
X98806000Y-99999800D03*
X93726000Y-102539800D03*
X98806000Y-102539800D03*
X93726000Y-105079800D03*
X98806000Y-105079800D03*
X93726000Y-107619800D03*
X98806000Y-107619800D03*
X93726000Y-110159800D03*
X98806000Y-110159800D03*
X93726000Y-112699800D03*
X98806000Y-112699800D03*
X93726000Y-115239800D03*
X98806000Y-115239800D03*
X93726000Y-117779800D03*
X98806000Y-117779800D03*
X93726000Y-120319800D03*
X98806000Y-120319800D03*
X93726000Y-122859800D03*
X98806000Y-122859800D03*
X93726000Y-125399800D03*
X98806000Y-125399800D03*
X93726000Y-127939800D03*
X98806000Y-127939800D03*
X93726000Y-130479800D03*
X98806000Y-130479800D03*
X93726000Y-133019800D03*
X98806000Y-133019800D03*
X93726000Y-135559800D03*
X98806000Y-135559800D03*
X93726000Y-138099800D03*
X98806000Y-138099800D03*
X93726000Y-140639800D03*
X98806000Y-140639800D03*
X93726000Y-143179800D03*
X98806000Y-143179800D03*
X93726000Y-145719800D03*
X98806000Y-145719800D03*
X93726000Y-148259800D03*
X98806000Y-148259800D03*
X93726000Y-150799800D03*
X98806000Y-150799800D03*
X93726000Y-153339800D03*
X98806000Y-153339800D03*
X93726000Y-155879800D03*
X98806000Y-155879800D03*
X93726000Y-158419800D03*
X98806000Y-158419800D03*
X93726000Y-160959800D03*
X98806000Y-160959800D03*
X93726000Y-163499800D03*
X98806000Y-163499800D03*
X93726000Y-166039800D03*
X98806000Y-166039800D03*
X93726000Y-168579800D03*
X98806000Y-168579800D03*
%TD*%
%TO.C,J1*%
X59182000Y-44119800D03*
X64262000Y-44119800D03*
X59182000Y-46659800D03*
X64262000Y-46659800D03*
X59182000Y-49199800D03*
X64262000Y-49199800D03*
X59182000Y-51739800D03*
X64262000Y-51739800D03*
X59182000Y-54279800D03*
X64262000Y-54279800D03*
X59182000Y-56819800D03*
X64262000Y-56819800D03*
X59182000Y-59359800D03*
X64262000Y-59359800D03*
X59182000Y-61899800D03*
X64262000Y-61899800D03*
X59182000Y-64439800D03*
X64262000Y-64439800D03*
X59182000Y-66979800D03*
X64262000Y-66979800D03*
X59182000Y-69519800D03*
X64262000Y-69519800D03*
X59182000Y-72059800D03*
X64262000Y-72059800D03*
X59182000Y-74599800D03*
X64262000Y-74599800D03*
X59182000Y-77139800D03*
X64262000Y-77139800D03*
X59182000Y-79679800D03*
X64262000Y-79679800D03*
X59182000Y-82219800D03*
X64262000Y-82219800D03*
X59182000Y-84759800D03*
X64262000Y-84759800D03*
X59182000Y-87299800D03*
X64262000Y-87299800D03*
X59182000Y-89839800D03*
X64262000Y-89839800D03*
X59182000Y-92379800D03*
X64262000Y-92379800D03*
X59182000Y-94919800D03*
X64262000Y-94919800D03*
X59182000Y-97459800D03*
X64262000Y-97459800D03*
X59182000Y-99999800D03*
X64262000Y-99999800D03*
X59182000Y-102539800D03*
X64262000Y-102539800D03*
X59182000Y-105079800D03*
X64262000Y-105079800D03*
X59182000Y-107619800D03*
X64262000Y-107619800D03*
X59182000Y-110159800D03*
X64262000Y-110159800D03*
X59182000Y-112699800D03*
X64262000Y-112699800D03*
X59182000Y-115239800D03*
X64262000Y-115239800D03*
X59182000Y-117779800D03*
X64262000Y-117779800D03*
X59182000Y-120319800D03*
X64262000Y-120319800D03*
X59182000Y-122859800D03*
X64262000Y-122859800D03*
X59182000Y-125399800D03*
X64262000Y-125399800D03*
X59182000Y-127939800D03*
X64262000Y-127939800D03*
X59182000Y-130479800D03*
X64262000Y-130479800D03*
X59182000Y-133019800D03*
X64262000Y-133019800D03*
X59182000Y-135559800D03*
X64262000Y-135559800D03*
X59182000Y-138099800D03*
X64262000Y-138099800D03*
X59182000Y-140639800D03*
X64262000Y-140639800D03*
X59182000Y-143179800D03*
X64262000Y-143179800D03*
X59182000Y-145719800D03*
X64262000Y-145719800D03*
X59182000Y-148259800D03*
X64262000Y-148259800D03*
X59182000Y-150799800D03*
X64262000Y-150799800D03*
X59182000Y-153339800D03*
X64262000Y-153339800D03*
X59182000Y-155879800D03*
X64262000Y-155879800D03*
X59182000Y-158419800D03*
X64262000Y-158419800D03*
X59182000Y-160959800D03*
X64262000Y-160959800D03*
X59182000Y-163499800D03*
X64262000Y-163499800D03*
X59182000Y-166039800D03*
X64262000Y-166039800D03*
X59182000Y-168579800D03*
X64262000Y-168579800D03*
%TD*%
%TO.C,J3*%
X76454000Y-44119800D03*
X81534000Y-44119800D03*
X76454000Y-46659800D03*
X81534000Y-46659800D03*
X76454000Y-49199800D03*
X81534000Y-49199800D03*
X76454000Y-51739800D03*
X81534000Y-51739800D03*
X76454000Y-54279800D03*
X81534000Y-54279800D03*
X76454000Y-56819800D03*
X81534000Y-56819800D03*
X76454000Y-59359800D03*
X81534000Y-59359800D03*
X76454000Y-61899800D03*
X81534000Y-61899800D03*
X76454000Y-64439800D03*
X81534000Y-64439800D03*
X76454000Y-66979800D03*
X81534000Y-66979800D03*
X76454000Y-69519800D03*
X81534000Y-69519800D03*
X76454000Y-72059800D03*
X81534000Y-72059800D03*
X76454000Y-74599800D03*
X81534000Y-74599800D03*
X76454000Y-77139800D03*
X81534000Y-77139800D03*
X76454000Y-79679800D03*
X81534000Y-79679800D03*
X76454000Y-82219800D03*
X81534000Y-82219800D03*
X76454000Y-84759800D03*
X81534000Y-84759800D03*
X76454000Y-87299800D03*
X81534000Y-87299800D03*
X76454000Y-89839800D03*
X81534000Y-89839800D03*
X76454000Y-92379800D03*
X81534000Y-92379800D03*
X76454000Y-94919800D03*
X81534000Y-94919800D03*
X76454000Y-97459800D03*
X81534000Y-97459800D03*
X76454000Y-99999800D03*
X81534000Y-99999800D03*
X76454000Y-102539800D03*
X81534000Y-102539800D03*
X76454000Y-105079800D03*
X81534000Y-105079800D03*
X76454000Y-107619800D03*
X81534000Y-107619800D03*
X76454000Y-110159800D03*
X81534000Y-110159800D03*
X76454000Y-112699800D03*
X81534000Y-112699800D03*
X76454000Y-115239800D03*
X81534000Y-115239800D03*
X76454000Y-117779800D03*
X81534000Y-117779800D03*
X76454000Y-120319800D03*
X81534000Y-120319800D03*
X76454000Y-122859800D03*
X81534000Y-122859800D03*
X76454000Y-125399800D03*
X81534000Y-125399800D03*
X76454000Y-127939800D03*
X81534000Y-127939800D03*
X76454000Y-130479800D03*
X81534000Y-130479800D03*
X76454000Y-133019800D03*
X81534000Y-133019800D03*
X76454000Y-135559800D03*
X81534000Y-135559800D03*
X76454000Y-138099800D03*
X81534000Y-138099800D03*
X76454000Y-140639800D03*
X81534000Y-140639800D03*
X76454000Y-143179800D03*
X81534000Y-143179800D03*
X76454000Y-145719800D03*
X81534000Y-145719800D03*
X76454000Y-148259800D03*
X81534000Y-148259800D03*
X76454000Y-150799800D03*
X81534000Y-150799800D03*
X76454000Y-153339800D03*
X81534000Y-153339800D03*
X76454000Y-155879800D03*
X81534000Y-155879800D03*
X76454000Y-158419800D03*
X81534000Y-158419800D03*
X76454000Y-160959800D03*
X81534000Y-160959800D03*
X76454000Y-163499800D03*
X81534000Y-163499800D03*
X76454000Y-166039800D03*
X81534000Y-166039800D03*
X76454000Y-168579800D03*
X81534000Y-168579800D03*
%TD*%
M02*
