M48
; DRILL file {KiCad 9.0.6-1.fc43} date 2026-03-28T06:01:42+0000
; FORMAT={-:-/ absolute / inch / decimal}
; #@! TF.CreationDate,2026-03-28T06:01:42+00:00
; #@! TF.GenerationSoftware,Kicad,Pcbnew,9.0.6-1.fc43
; #@! TF.FileFunction,Plated,1,2,PTH
FMAT,2
INCH
; #@! TA.AperFunction,Plated,PTH,ComponentDrill
T1C0.0394
; #@! TA.AperFunction,Plated,PTH,ComponentDrill
T2C0.0433
%
G90
G05
T1
X2.4559Y-1.4717
X2.4559Y-1.5717
X2.4559Y-1.6717
X2.4559Y-1.7717
X2.4559Y-1.8717
X2.4559Y-1.9717
X2.4559Y-2.0717
X2.4559Y-2.1717
X2.4559Y-2.2717
X2.4559Y-2.3717
X2.4559Y-2.4717
X2.4559Y-2.5717
X2.4559Y-2.6717
X2.4559Y-2.7717
X2.4559Y-2.8717
X2.4559Y-2.9717
X2.4559Y-3.0717
X2.4559Y-3.1717
X2.4559Y-3.2717
X2.4559Y-3.3717
X2.4559Y-3.4717
X2.4559Y-3.5717
X2.4559Y-3.6717
X2.4559Y-3.7717
X2.4559Y-3.8717
X2.4559Y-3.9717
X2.4559Y-4.0717
X2.4559Y-4.1717
X2.4559Y-4.2717
X2.4559Y-4.3717
X2.4559Y-4.4717
X2.4559Y-4.5717
X2.4559Y-4.6717
X2.4559Y-4.7717
X2.4559Y-4.8717
X2.4559Y-4.9717
X2.4559Y-5.0717
X2.4559Y-5.1717
X2.4559Y-5.2717
X2.4559Y-5.3717
X2.4559Y-5.4717
X2.4559Y-5.5717
X2.4559Y-5.6717
X2.4559Y-5.7717
X2.4559Y-5.8717
X2.4559Y-5.9717
X2.4559Y-6.0717
X2.4559Y-6.1717
X2.4559Y-6.2717
X2.4559Y-6.3717
X2.6559Y-1.4717
X2.6559Y-1.5717
X2.6559Y-1.6717
X2.6559Y-1.7717
X2.6559Y-1.8717
X2.6559Y-1.9717
X2.6559Y-2.0717
X2.6559Y-2.1717
X2.6559Y-2.2717
X2.6559Y-2.3717
X2.6559Y-2.4717
X2.6559Y-2.5717
X2.6559Y-2.6717
X2.6559Y-2.7717
X2.6559Y-2.8717
X2.6559Y-2.9717
X2.6559Y-3.0717
X2.6559Y-3.1717
X2.6559Y-3.2717
X2.6559Y-3.3717
X2.6559Y-3.4717
X2.6559Y-3.5717
X2.6559Y-3.6717
X2.6559Y-3.7717
X2.6559Y-3.8717
X2.6559Y-3.9717
X2.6559Y-4.0717
X2.6559Y-4.1717
X2.6559Y-4.2717
X2.6559Y-4.3717
X2.6559Y-4.4717
X2.6559Y-4.5717
X2.6559Y-4.6717
X2.6559Y-4.7717
X2.6559Y-4.8717
X2.6559Y-4.9717
X2.6559Y-5.0717
X2.6559Y-5.1717
X2.6559Y-5.2717
X2.6559Y-5.3717
X2.6559Y-5.4717
X2.6559Y-5.5717
X2.6559Y-5.6717
X2.6559Y-5.7717
X2.6559Y-5.8717
X2.6559Y-5.9717
X2.6559Y-6.0717
X2.6559Y-6.1717
X2.6559Y-6.2717
X2.6559Y-6.3717
X3.3433Y-1.4748
X3.3433Y-1.5748
X3.3433Y-1.6748
X3.3433Y-1.7748
X3.3433Y-1.8748
X3.3433Y-1.9748
X3.3433Y-2.0748
X3.3433Y-2.1748
X3.3433Y-2.2748
X3.3433Y-2.3748
X3.3433Y-2.4748
X3.3433Y-2.5748
X3.3433Y-2.6748
X3.3433Y-2.7748
X3.3433Y-2.8748
X3.3433Y-2.9748
X3.3433Y-3.0748
X3.3433Y-3.1748
X3.3433Y-3.2748
X3.3433Y-3.3748
X3.3433Y-3.4748
X3.3433Y-3.5748
X3.3433Y-3.6748
X3.3433Y-3.7748
X3.3433Y-3.8748
X3.3433Y-3.9748
X3.3433Y-4.0748
X3.3433Y-4.1748
X3.3433Y-4.2748
X3.3433Y-4.3748
X3.3433Y-4.4748
X3.3433Y-4.5748
X3.3433Y-4.6748
X3.3433Y-4.7748
X3.3433Y-4.8748
X3.3433Y-4.9748
X3.3433Y-5.0748
X3.3433Y-5.1748
X3.3433Y-5.2748
X3.3433Y-5.3748
X3.3433Y-5.4748
X3.3433Y-5.5748
X3.3433Y-5.6748
X3.3433Y-5.7748
X3.3433Y-5.8748
X3.3433Y-5.9748
X3.3433Y-6.0748
X3.3433Y-6.1748
X3.3433Y-6.2748
X3.3433Y-6.3748
X3.5433Y-1.4748
X3.5433Y-1.5748
X3.5433Y-1.6748
X3.5433Y-1.7748
X3.5433Y-1.8748
X3.5433Y-1.9748
X3.5433Y-2.0748
X3.5433Y-2.1748
X3.5433Y-2.2748
X3.5433Y-2.3748
X3.5433Y-2.4748
X3.5433Y-2.5748
X3.5433Y-2.6748
X3.5433Y-2.7748
X3.5433Y-2.8748
X3.5433Y-2.9748
X3.5433Y-3.0748
X3.5433Y-3.1748
X3.5433Y-3.2748
X3.5433Y-3.3748
X3.5433Y-3.4748
X3.5433Y-3.5748
X3.5433Y-3.6748
X3.5433Y-3.7748
X3.5433Y-3.8748
X3.5433Y-3.9748
X3.5433Y-4.0748
X3.5433Y-4.1748
X3.5433Y-4.2748
X3.5433Y-4.3748
X3.5433Y-4.4748
X3.5433Y-4.5748
X3.5433Y-4.6748
X3.5433Y-4.7748
X3.5433Y-4.8748
X3.5433Y-4.9748
X3.5433Y-5.0748
X3.5433Y-5.1748
X3.5433Y-5.2748
X3.5433Y-5.3748
X3.5433Y-5.4748
X3.5433Y-5.5748
X3.5433Y-5.6748
X3.5433Y-5.7748
X3.5433Y-5.8748
X3.5433Y-5.9748
X3.5433Y-6.0748
X3.5433Y-6.1748
X3.5433Y-6.2748
X3.5433Y-6.3748
X4.2291Y-1.4764
X4.2291Y-1.5764
X4.2291Y-1.6764
X4.2291Y-1.7764
X4.2291Y-1.8764
X4.2291Y-1.9764
X4.2291Y-2.0764
X4.2291Y-2.1764
X4.2291Y-2.2764
X4.2291Y-2.3764
X4.2291Y-2.4764
X4.2291Y-2.5764
X4.2291Y-2.6764
X4.2291Y-2.7764
X4.2291Y-2.8764
X4.2291Y-2.9764
X4.2291Y-3.0764
X4.2291Y-3.1764
X4.2291Y-3.2764
X4.2291Y-3.3764
X4.2291Y-3.4764
X4.2291Y-3.5764
X4.2291Y-3.6764
X4.2291Y-3.7764
X4.2291Y-3.8764
X4.2291Y-3.9764
X4.2291Y-4.0764
X4.2291Y-4.1764
X4.2291Y-4.2764
X4.2291Y-4.3764
X4.2291Y-4.4764
X4.2291Y-4.5764
X4.2291Y-4.6764
X4.2291Y-4.7764
X4.2291Y-4.8764
X4.2291Y-4.9764
X4.2291Y-5.0764
X4.2291Y-5.1764
X4.2291Y-5.2764
X4.2291Y-5.3764
X4.2291Y-5.4764
X4.2291Y-5.5764
X4.2291Y-5.6764
X4.2291Y-5.7764
X4.2291Y-5.8764
X4.2291Y-5.9764
X4.2291Y-6.0764
X4.2291Y-6.1764
X4.2291Y-6.2764
X4.2291Y-6.3764
X4.4291Y-1.4764
X4.4291Y-1.5764
X4.4291Y-1.6764
X4.4291Y-1.7764
X4.4291Y-1.8764
X4.4291Y-1.9764
X4.4291Y-2.0764
X4.4291Y-2.1764
X4.4291Y-2.2764
X4.4291Y-2.3764
X4.4291Y-2.4764
X4.4291Y-2.5764
X4.4291Y-2.6764
X4.4291Y-2.7764
X4.4291Y-2.8764
X4.4291Y-2.9764
X4.4291Y-3.0764
X4.4291Y-3.1764
X4.4291Y-3.2764
X4.4291Y-3.3764
X4.4291Y-3.4764
X4.4291Y-3.5764
X4.4291Y-3.6764
X4.4291Y-3.7764
X4.4291Y-3.8764
X4.4291Y-3.9764
X4.4291Y-4.0764
X4.4291Y-4.1764
X4.4291Y-4.2764
X4.4291Y-4.3764
X4.4291Y-4.4764
X4.4291Y-4.5764
X4.4291Y-4.6764
X4.4291Y-4.7764
X4.4291Y-4.8764
X4.4291Y-4.9764
X4.4291Y-5.0764
X4.4291Y-5.1764
X4.4291Y-5.2764
X4.4291Y-5.3764
X4.4291Y-5.4764
X4.4291Y-5.5764
X4.4291Y-5.6764
X4.4291Y-5.7764
X4.4291Y-5.8764
X4.4291Y-5.9764
X4.4291Y-6.0764
X4.4291Y-6.1764
X4.4291Y-6.2764
X4.4291Y-6.3764
X5.115Y-1.4748
X5.115Y-1.5748
X5.115Y-1.6748
X5.115Y-1.7748
X5.115Y-1.8748
X5.115Y-1.9748
X5.115Y-2.0748
X5.115Y-2.1748
X5.115Y-2.2748
X5.115Y-2.3748
X5.115Y-2.4748
X5.115Y-2.5748
X5.115Y-2.6748
X5.115Y-2.7748
X5.115Y-2.8748
X5.115Y-2.9748
X5.115Y-3.0748
X5.115Y-3.1748
X5.115Y-3.2748
X5.115Y-3.3748
X5.115Y-3.4748
X5.115Y-3.5748
X5.115Y-3.6748
X5.115Y-3.7748
X5.115Y-3.8748
X5.115Y-3.9748
X5.115Y-4.0748
X5.115Y-4.1748
X5.115Y-4.2748
X5.115Y-4.3748
X5.115Y-4.4748
X5.115Y-4.5748
X5.115Y-4.6748
X5.115Y-4.7748
X5.115Y-4.8748
X5.115Y-4.9748
X5.115Y-5.0748
X5.115Y-5.1748
X5.115Y-5.2748
X5.115Y-5.3748
X5.115Y-5.4748
X5.115Y-5.5748
X5.115Y-5.6748
X5.115Y-5.7748
X5.115Y-5.8748
X5.115Y-5.9748
X5.115Y-6.0748
X5.115Y-6.1748
X5.115Y-6.2748
X5.115Y-6.3748
X5.315Y-1.4748
X5.315Y-1.5748
X5.315Y-1.6748
X5.315Y-1.7748
X5.315Y-1.8748
X5.315Y-1.9748
X5.315Y-2.0748
X5.315Y-2.1748
X5.315Y-2.2748
X5.315Y-2.3748
X5.315Y-2.4748
X5.315Y-2.5748
X5.315Y-2.6748
X5.315Y-2.7748
X5.315Y-2.8748
X5.315Y-2.9748
X5.315Y-3.0748
X5.315Y-3.1748
X5.315Y-3.2748
X5.315Y-3.3748
X5.315Y-3.4748
X5.315Y-3.5748
X5.315Y-3.6748
X5.315Y-3.7748
X5.315Y-3.8748
X5.315Y-3.9748
X5.315Y-4.0748
X5.315Y-4.1748
X5.315Y-4.2748
X5.315Y-4.3748
X5.315Y-4.4748
X5.315Y-4.5748
X5.315Y-4.6748
X5.315Y-4.7748
X5.315Y-4.8748
X5.315Y-4.9748
X5.315Y-5.0748
X5.315Y-5.1748
X5.315Y-5.2748
X5.315Y-5.3748
X5.315Y-5.4748
X5.315Y-5.5748
X5.315Y-5.6748
X5.315Y-5.7748
X5.315Y-5.8748
X5.315Y-5.9748
X5.315Y-6.0748
X5.315Y-6.1748
X5.315Y-6.2748
X5.315Y-6.3748
X5.9976Y-1.4795
X5.9976Y-1.5795
X5.9976Y-1.6795
X5.9976Y-1.7795
X5.9976Y-1.8795
X5.9976Y-1.9795
X5.9976Y-2.0795
X5.9976Y-2.1795
X5.9976Y-2.2795
X5.9976Y-2.3795
X5.9976Y-2.4795
X5.9976Y-2.5795
X5.9976Y-2.6795
X5.9976Y-2.7795
X5.9976Y-2.8795
X5.9976Y-2.9795
X5.9976Y-3.0795
X5.9976Y-3.1795
X5.9976Y-3.2795
X5.9976Y-3.3795
X5.9976Y-3.4795
X5.9976Y-3.5795
X5.9976Y-3.6795
X5.9976Y-3.7795
X5.9976Y-3.8795
X5.9976Y-3.9795
X5.9976Y-4.0795
X5.9976Y-4.1795
X5.9976Y-4.2795
X5.9976Y-4.3795
X5.9976Y-4.4795
X5.9976Y-4.5795
X5.9976Y-4.6795
X5.9976Y-4.7795
X5.9976Y-4.8795
X5.9976Y-4.9795
X5.9976Y-5.0795
X5.9976Y-5.1795
X5.9976Y-5.2795
X5.9976Y-5.3795
X5.9976Y-5.4795
X5.9976Y-5.5795
X5.9976Y-5.6795
X5.9976Y-5.7795
X5.9976Y-5.8795
X5.9976Y-5.9795
X5.9976Y-6.0795
X5.9976Y-6.1795
X5.9976Y-6.2795
X5.9976Y-6.3795
X6.1976Y-1.4795
X6.1976Y-1.5795
X6.1976Y-1.6795
X6.1976Y-1.7795
X6.1976Y-1.8795
X6.1976Y-1.9795
X6.1976Y-2.0795
X6.1976Y-2.1795
X6.1976Y-2.2795
X6.1976Y-2.3795
X6.1976Y-2.4795
X6.1976Y-2.5795
X6.1976Y-2.6795
X6.1976Y-2.7795
X6.1976Y-2.8795
X6.1976Y-2.9795
X6.1976Y-3.0795
X6.1976Y-3.1795
X6.1976Y-3.2795
X6.1976Y-3.3795
X6.1976Y-3.4795
X6.1976Y-3.5795
X6.1976Y-3.6795
X6.1976Y-3.7795
X6.1976Y-3.8795
X6.1976Y-3.9795
X6.1976Y-4.0795
X6.1976Y-4.1795
X6.1976Y-4.2795
X6.1976Y-4.3795
X6.1976Y-4.4795
X6.1976Y-4.5795
X6.1976Y-4.6795
X6.1976Y-4.7795
X6.1976Y-4.8795
X6.1976Y-4.9795
X6.1976Y-5.0795
X6.1976Y-5.1795
X6.1976Y-5.2795
X6.1976Y-5.3795
X6.1976Y-5.4795
X6.1976Y-5.5795
X6.1976Y-5.6795
X6.1976Y-5.7795
X6.1976Y-5.8795
X6.1976Y-5.9795
X6.1976Y-6.0795
X6.1976Y-6.1795
X6.1976Y-6.2795
X6.1976Y-6.3795
T2
X0.8843Y-2.135
X0.9843Y-2.135
X1.0843Y-2.135
M30
