M48
; DRILL file {KiCad 9.0.6-1.fc43} date 2026-03-28T09:16:50+0000
; FORMAT={-:-/ absolute / inch / decimal}
; #@! TF.CreationDate,2026-03-28T09:16:50+00:00
; #@! TF.GenerationSoftware,Kicad,Pcbnew,9.0.6-1.fc43
; #@! TF.FileFunction,Plated,1,2,PTH
FMAT,2
INCH
; #@! TA.AperFunction,Plated,PTH,ViaDrill
T1C0.0118
; #@! TA.AperFunction,Plated,PTH,ComponentDrill
T2C0.0394
; #@! TA.AperFunction,Plated,PTH,ComponentDrill
T3C0.0433
; #@! TA.AperFunction,Plated,PTH,ComponentDrill
T4C0.0512
; #@! TA.AperFunction,Plated,PTH,ViaDrill
T5C0.1181
; #@! TA.AperFunction,Plated,PTH,ViaDrill
T6C0.1378
%
G90
G05
T1
X0.047Y-2.478
X0.071Y-3.158
X0.102Y-2.71
X0.109Y-3.105
X0.298Y-5.962
X0.59Y-2.325
X0.75Y-3.159
X0.85Y-3.101
X0.936Y-2.169
X0.961Y-2.024
T2
X2.33Y-1.737
X2.33Y-1.837
X2.33Y-1.937
X2.33Y-2.037
X2.33Y-2.137
X2.33Y-2.237
X2.33Y-2.337
X2.33Y-2.437
X2.33Y-2.537
X2.33Y-2.637
X2.33Y-2.737
X2.33Y-2.837
X2.33Y-2.937
X2.33Y-3.037
X2.33Y-3.137
X2.33Y-3.237
X2.33Y-3.337
X2.33Y-3.437
X2.33Y-3.537
X2.33Y-3.637
X2.33Y-3.737
X2.33Y-3.837
X2.33Y-3.937
X2.33Y-4.037
X2.33Y-4.137
X2.33Y-4.237
X2.33Y-4.337
X2.33Y-4.437
X2.33Y-4.537
X2.33Y-4.637
X2.33Y-4.737
X2.33Y-4.837
X2.33Y-4.937
X2.33Y-5.037
X2.33Y-5.137
X2.33Y-5.237
X2.33Y-5.337
X2.33Y-5.437
X2.33Y-5.537
X2.33Y-5.637
X2.33Y-5.737
X2.33Y-5.837
X2.33Y-5.937
X2.33Y-6.037
X2.33Y-6.137
X2.33Y-6.237
X2.33Y-6.337
X2.33Y-6.437
X2.33Y-6.537
X2.33Y-6.637
X2.53Y-1.737
X2.53Y-1.837
X2.53Y-1.937
X2.53Y-2.037
X2.53Y-2.137
X2.53Y-2.237
X2.53Y-2.337
X2.53Y-2.437
X2.53Y-2.537
X2.53Y-2.637
X2.53Y-2.737
X2.53Y-2.837
X2.53Y-2.937
X2.53Y-3.037
X2.53Y-3.137
X2.53Y-3.237
X2.53Y-3.337
X2.53Y-3.437
X2.53Y-3.537
X2.53Y-3.637
X2.53Y-3.737
X2.53Y-3.837
X2.53Y-3.937
X2.53Y-4.037
X2.53Y-4.137
X2.53Y-4.237
X2.53Y-4.337
X2.53Y-4.437
X2.53Y-4.537
X2.53Y-4.637
X2.53Y-4.737
X2.53Y-4.837
X2.53Y-4.937
X2.53Y-5.037
X2.53Y-5.137
X2.53Y-5.237
X2.53Y-5.337
X2.53Y-5.437
X2.53Y-5.537
X2.53Y-5.637
X2.53Y-5.737
X2.53Y-5.837
X2.53Y-5.937
X2.53Y-6.037
X2.53Y-6.137
X2.53Y-6.237
X2.53Y-6.337
X2.53Y-6.437
X2.53Y-6.537
X2.53Y-6.637
X3.01Y-1.737
X3.01Y-1.837
X3.01Y-1.937
X3.01Y-2.037
X3.01Y-2.137
X3.01Y-2.237
X3.01Y-2.337
X3.01Y-2.437
X3.01Y-2.537
X3.01Y-2.637
X3.01Y-2.737
X3.01Y-2.837
X3.01Y-2.937
X3.01Y-3.037
X3.01Y-3.137
X3.01Y-3.237
X3.01Y-3.337
X3.01Y-3.437
X3.01Y-3.537
X3.01Y-3.637
X3.01Y-3.737
X3.01Y-3.837
X3.01Y-3.937
X3.01Y-4.037
X3.01Y-4.137
X3.01Y-4.237
X3.01Y-4.337
X3.01Y-4.437
X3.01Y-4.537
X3.01Y-4.637
X3.01Y-4.737
X3.01Y-4.837
X3.01Y-4.937
X3.01Y-5.037
X3.01Y-5.137
X3.01Y-5.237
X3.01Y-5.337
X3.01Y-5.437
X3.01Y-5.537
X3.01Y-5.637
X3.01Y-5.737
X3.01Y-5.837
X3.01Y-5.937
X3.01Y-6.037
X3.01Y-6.137
X3.01Y-6.237
X3.01Y-6.337
X3.01Y-6.437
X3.01Y-6.537
X3.01Y-6.637
X3.21Y-1.737
X3.21Y-1.837
X3.21Y-1.937
X3.21Y-2.037
X3.21Y-2.137
X3.21Y-2.237
X3.21Y-2.337
X3.21Y-2.437
X3.21Y-2.537
X3.21Y-2.637
X3.21Y-2.737
X3.21Y-2.837
X3.21Y-2.937
X3.21Y-3.037
X3.21Y-3.137
X3.21Y-3.237
X3.21Y-3.337
X3.21Y-3.437
X3.21Y-3.537
X3.21Y-3.637
X3.21Y-3.737
X3.21Y-3.837
X3.21Y-3.937
X3.21Y-4.037
X3.21Y-4.137
X3.21Y-4.237
X3.21Y-4.337
X3.21Y-4.437
X3.21Y-4.537
X3.21Y-4.637
X3.21Y-4.737
X3.21Y-4.837
X3.21Y-4.937
X3.21Y-5.037
X3.21Y-5.137
X3.21Y-5.237
X3.21Y-5.337
X3.21Y-5.437
X3.21Y-5.537
X3.21Y-5.637
X3.21Y-5.737
X3.21Y-5.837
X3.21Y-5.937
X3.21Y-6.037
X3.21Y-6.137
X3.21Y-6.237
X3.21Y-6.337
X3.21Y-6.437
X3.21Y-6.537
X3.21Y-6.637
X3.69Y-1.737
X3.69Y-1.837
X3.69Y-1.937
X3.69Y-2.037
X3.69Y-2.137
X3.69Y-2.237
X3.69Y-2.337
X3.69Y-2.437
X3.69Y-2.537
X3.69Y-2.637
X3.69Y-2.737
X3.69Y-2.837
X3.69Y-2.937
X3.69Y-3.037
X3.69Y-3.137
X3.69Y-3.237
X3.69Y-3.337
X3.69Y-3.437
X3.69Y-3.537
X3.69Y-3.637
X3.69Y-3.737
X3.69Y-3.837
X3.69Y-3.937
X3.69Y-4.037
X3.69Y-4.137
X3.69Y-4.237
X3.69Y-4.337
X3.69Y-4.437
X3.69Y-4.537
X3.69Y-4.637
X3.69Y-4.737
X3.69Y-4.837
X3.69Y-4.937
X3.69Y-5.037
X3.69Y-5.137
X3.69Y-5.237
X3.69Y-5.337
X3.69Y-5.437
X3.69Y-5.537
X3.69Y-5.637
X3.69Y-5.737
X3.69Y-5.837
X3.69Y-5.937
X3.69Y-6.037
X3.69Y-6.137
X3.69Y-6.237
X3.69Y-6.337
X3.69Y-6.437
X3.69Y-6.537
X3.69Y-6.637
X3.89Y-1.737
X3.89Y-1.837
X3.89Y-1.937
X3.89Y-2.037
X3.89Y-2.137
X3.89Y-2.237
X3.89Y-2.337
X3.89Y-2.437
X3.89Y-2.537
X3.89Y-2.637
X3.89Y-2.737
X3.89Y-2.837
X3.89Y-2.937
X3.89Y-3.037
X3.89Y-3.137
X3.89Y-3.237
X3.89Y-3.337
X3.89Y-3.437
X3.89Y-3.537
X3.89Y-3.637
X3.89Y-3.737
X3.89Y-3.837
X3.89Y-3.937
X3.89Y-4.037
X3.89Y-4.137
X3.89Y-4.237
X3.89Y-4.337
X3.89Y-4.437
X3.89Y-4.537
X3.89Y-4.637
X3.89Y-4.737
X3.89Y-4.837
X3.89Y-4.937
X3.89Y-5.037
X3.89Y-5.137
X3.89Y-5.237
X3.89Y-5.337
X3.89Y-5.437
X3.89Y-5.537
X3.89Y-5.637
X3.89Y-5.737
X3.89Y-5.837
X3.89Y-5.937
X3.89Y-6.037
X3.89Y-6.137
X3.89Y-6.237
X3.89Y-6.337
X3.89Y-6.437
X3.89Y-6.537
X3.89Y-6.637
X4.37Y-1.737
X4.37Y-1.837
X4.37Y-1.937
X4.37Y-2.037
X4.37Y-2.137
X4.37Y-2.237
X4.37Y-2.337
X4.37Y-2.437
X4.37Y-2.537
X4.37Y-2.637
X4.37Y-2.737
X4.37Y-2.837
X4.37Y-2.937
X4.37Y-3.037
X4.37Y-3.137
X4.37Y-3.237
X4.37Y-3.337
X4.37Y-3.437
X4.37Y-3.537
X4.37Y-3.637
X4.37Y-3.737
X4.37Y-3.837
X4.37Y-3.937
X4.37Y-4.037
X4.37Y-4.137
X4.37Y-4.237
X4.37Y-4.337
X4.37Y-4.437
X4.37Y-4.537
X4.37Y-4.637
X4.37Y-4.737
X4.37Y-4.837
X4.37Y-4.937
X4.37Y-5.037
X4.37Y-5.137
X4.37Y-5.237
X4.37Y-5.337
X4.37Y-5.437
X4.37Y-5.537
X4.37Y-5.637
X4.37Y-5.737
X4.37Y-5.837
X4.37Y-5.937
X4.37Y-6.037
X4.37Y-6.137
X4.37Y-6.237
X4.37Y-6.337
X4.37Y-6.437
X4.37Y-6.537
X4.37Y-6.637
X4.57Y-1.737
X4.57Y-1.837
X4.57Y-1.937
X4.57Y-2.037
X4.57Y-2.137
X4.57Y-2.237
X4.57Y-2.337
X4.57Y-2.437
X4.57Y-2.537
X4.57Y-2.637
X4.57Y-2.737
X4.57Y-2.837
X4.57Y-2.937
X4.57Y-3.037
X4.57Y-3.137
X4.57Y-3.237
X4.57Y-3.337
X4.57Y-3.437
X4.57Y-3.537
X4.57Y-3.637
X4.57Y-3.737
X4.57Y-3.837
X4.57Y-3.937
X4.57Y-4.037
X4.57Y-4.137
X4.57Y-4.237
X4.57Y-4.337
X4.57Y-4.437
X4.57Y-4.537
X4.57Y-4.637
X4.57Y-4.737
X4.57Y-4.837
X4.57Y-4.937
X4.57Y-5.037
X4.57Y-5.137
X4.57Y-5.237
X4.57Y-5.337
X4.57Y-5.437
X4.57Y-5.537
X4.57Y-5.637
X4.57Y-5.737
X4.57Y-5.837
X4.57Y-5.937
X4.57Y-6.037
X4.57Y-6.137
X4.57Y-6.237
X4.57Y-6.337
X4.57Y-6.437
X4.57Y-6.537
X4.57Y-6.637
X5.05Y-1.737
X5.05Y-1.837
X5.05Y-1.937
X5.05Y-2.037
X5.05Y-2.137
X5.05Y-2.237
X5.05Y-2.337
X5.05Y-2.437
X5.05Y-2.537
X5.05Y-2.637
X5.05Y-2.737
X5.05Y-2.837
X5.05Y-2.937
X5.05Y-3.037
X5.05Y-3.137
X5.05Y-3.237
X5.05Y-3.337
X5.05Y-3.437
X5.05Y-3.537
X5.05Y-3.637
X5.05Y-3.737
X5.05Y-3.837
X5.05Y-3.937
X5.05Y-4.037
X5.05Y-4.137
X5.05Y-4.237
X5.05Y-4.337
X5.05Y-4.437
X5.05Y-4.537
X5.05Y-4.637
X5.05Y-4.737
X5.05Y-4.837
X5.05Y-4.937
X5.05Y-5.037
X5.05Y-5.137
X5.05Y-5.237
X5.05Y-5.337
X5.05Y-5.437
X5.05Y-5.537
X5.05Y-5.637
X5.05Y-5.737
X5.05Y-5.837
X5.05Y-5.937
X5.05Y-6.037
X5.05Y-6.137
X5.05Y-6.237
X5.05Y-6.337
X5.05Y-6.437
X5.05Y-6.537
X5.05Y-6.637
X5.25Y-1.737
X5.25Y-1.837
X5.25Y-1.937
X5.25Y-2.037
X5.25Y-2.137
X5.25Y-2.237
X5.25Y-2.337
X5.25Y-2.437
X5.25Y-2.537
X5.25Y-2.637
X5.25Y-2.737
X5.25Y-2.837
X5.25Y-2.937
X5.25Y-3.037
X5.25Y-3.137
X5.25Y-3.237
X5.25Y-3.337
X5.25Y-3.437
X5.25Y-3.537
X5.25Y-3.637
X5.25Y-3.737
X5.25Y-3.837
X5.25Y-3.937
X5.25Y-4.037
X5.25Y-4.137
X5.25Y-4.237
X5.25Y-4.337
X5.25Y-4.437
X5.25Y-4.537
X5.25Y-4.637
X5.25Y-4.737
X5.25Y-4.837
X5.25Y-4.937
X5.25Y-5.037
X5.25Y-5.137
X5.25Y-5.237
X5.25Y-5.337
X5.25Y-5.437
X5.25Y-5.537
X5.25Y-5.637
X5.25Y-5.737
X5.25Y-5.837
X5.25Y-5.937
X5.25Y-6.037
X5.25Y-6.137
X5.25Y-6.237
X5.25Y-6.337
X5.25Y-6.437
X5.25Y-6.537
X5.25Y-6.637
T3
X0.222Y-2.8314
X0.222Y-3.0086
X0.478Y-2.8314
X0.478Y-3.0086
X0.65Y-1.45
X0.75Y-1.45
X0.85Y-1.45
T4
X0.3902Y-4.2057
X0.3902Y-4.4026
X0.3902Y-4.5994
X0.3902Y-4.7963
X0.393Y-5.2241
X0.393Y-5.421
X0.393Y-5.6179
X0.393Y-5.8147
X0.393Y-6.0641
X0.393Y-6.261
X0.393Y-6.4579
X0.393Y-6.6547
X0.393Y-6.9041
X0.393Y-7.101
X0.393Y-7.2979
X0.393Y-7.4947
T5
X2.43Y-7.76
X2.431Y-0.697
X3.79Y-0.697
X3.79Y-7.76
X5.15Y-0.697
X5.15Y-7.76
T6
X0.1575Y-0.3937
X0.1575Y-7.7559
X5.4724Y-0.3937
X5.4724Y-7.7559
M30
