%TF.GenerationSoftware,KiCad,Pcbnew,9.0.6-1.fc43*%
%TF.CreationDate,2026-03-28T06:01:45+00:00*%
%TF.ProjectId,cptrep_8500_backplane,63707472-6570-45f3-9835-30305f626163,rev?*%
%TF.SameCoordinates,Original*%
%TF.FileFunction,Legend,Top*%
%TF.FilePolarity,Positive*%
%FSLAX46Y46*%
G04 Gerber Fmt 4.6, Leading zero omitted, Abs format (unit mm)*
G04 Created by KiCad (PCBNEW 9.0.6-1.fc43) date 2026-03-28 06:01:45*
%MOMM*%
%LPD*%
G01*
G04 APERTURE LIST*
%ADD10C,0.150000*%
%ADD11C,0.100000*%
%ADD12C,0.120000*%
G04 APERTURE END LIST*
D10*
X24238095Y-33274819D02*
X24238095Y-34084342D01*
X24238095Y-34084342D02*
X24285714Y-34179580D01*
X24285714Y-34179580D02*
X24333333Y-34227200D01*
X24333333Y-34227200D02*
X24428571Y-34274819D01*
X24428571Y-34274819D02*
X24619047Y-34274819D01*
X24619047Y-34274819D02*
X24714285Y-34227200D01*
X24714285Y-34227200D02*
X24761904Y-34179580D01*
X24761904Y-34179580D02*
X24809523Y-34084342D01*
X24809523Y-34084342D02*
X24809523Y-33274819D01*
X25809523Y-34274819D02*
X25238095Y-34274819D01*
X25523809Y-34274819D02*
X25523809Y-33274819D01*
X25523809Y-33274819D02*
X25428571Y-33417676D01*
X25428571Y-33417676D02*
X25333333Y-33512914D01*
X25333333Y-33512914D02*
X25238095Y-33560533D01*
X29741905Y-164664819D02*
X29741905Y-163664819D01*
X29741905Y-163664819D02*
X29980000Y-163664819D01*
X29980000Y-163664819D02*
X30122857Y-163712438D01*
X30122857Y-163712438D02*
X30218095Y-163807676D01*
X30218095Y-163807676D02*
X30265714Y-163902914D01*
X30265714Y-163902914D02*
X30313333Y-164093390D01*
X30313333Y-164093390D02*
X30313333Y-164236247D01*
X30313333Y-164236247D02*
X30265714Y-164426723D01*
X30265714Y-164426723D02*
X30218095Y-164521961D01*
X30218095Y-164521961D02*
X30122857Y-164617200D01*
X30122857Y-164617200D02*
X29980000Y-164664819D01*
X29980000Y-164664819D02*
X29741905Y-164664819D01*
X31218095Y-163664819D02*
X30741905Y-163664819D01*
X30741905Y-163664819D02*
X30694286Y-164141009D01*
X30694286Y-164141009D02*
X30741905Y-164093390D01*
X30741905Y-164093390D02*
X30837143Y-164045771D01*
X30837143Y-164045771D02*
X31075238Y-164045771D01*
X31075238Y-164045771D02*
X31170476Y-164093390D01*
X31170476Y-164093390D02*
X31218095Y-164141009D01*
X31218095Y-164141009D02*
X31265714Y-164236247D01*
X31265714Y-164236247D02*
X31265714Y-164474342D01*
X31265714Y-164474342D02*
X31218095Y-164569580D01*
X31218095Y-164569580D02*
X31170476Y-164617200D01*
X31170476Y-164617200D02*
X31075238Y-164664819D01*
X31075238Y-164664819D02*
X30837143Y-164664819D01*
X30837143Y-164664819D02*
X30741905Y-164617200D01*
X30741905Y-164617200D02*
X30694286Y-164569580D01*
X29741905Y-153744819D02*
X29741905Y-152744819D01*
X29741905Y-152744819D02*
X29980000Y-152744819D01*
X29980000Y-152744819D02*
X30122857Y-152792438D01*
X30122857Y-152792438D02*
X30218095Y-152887676D01*
X30218095Y-152887676D02*
X30265714Y-152982914D01*
X30265714Y-152982914D02*
X30313333Y-153173390D01*
X30313333Y-153173390D02*
X30313333Y-153316247D01*
X30313333Y-153316247D02*
X30265714Y-153506723D01*
X30265714Y-153506723D02*
X30218095Y-153601961D01*
X30218095Y-153601961D02*
X30122857Y-153697200D01*
X30122857Y-153697200D02*
X29980000Y-153744819D01*
X29980000Y-153744819D02*
X29741905Y-153744819D01*
X31170476Y-153078152D02*
X31170476Y-153744819D01*
X30932381Y-152697200D02*
X30694286Y-153411485D01*
X30694286Y-153411485D02*
X31313333Y-153411485D01*
X29741905Y-157554819D02*
X29741905Y-156554819D01*
X29741905Y-156554819D02*
X29980000Y-156554819D01*
X29980000Y-156554819D02*
X30122857Y-156602438D01*
X30122857Y-156602438D02*
X30218095Y-156697676D01*
X30218095Y-156697676D02*
X30265714Y-156792914D01*
X30265714Y-156792914D02*
X30313333Y-156983390D01*
X30313333Y-156983390D02*
X30313333Y-157126247D01*
X30313333Y-157126247D02*
X30265714Y-157316723D01*
X30265714Y-157316723D02*
X30218095Y-157411961D01*
X30218095Y-157411961D02*
X30122857Y-157507200D01*
X30122857Y-157507200D02*
X29980000Y-157554819D01*
X29980000Y-157554819D02*
X29741905Y-157554819D01*
X30646667Y-156554819D02*
X31265714Y-156554819D01*
X31265714Y-156554819D02*
X30932381Y-156935771D01*
X30932381Y-156935771D02*
X31075238Y-156935771D01*
X31075238Y-156935771D02*
X31170476Y-156983390D01*
X31170476Y-156983390D02*
X31218095Y-157031009D01*
X31218095Y-157031009D02*
X31265714Y-157126247D01*
X31265714Y-157126247D02*
X31265714Y-157364342D01*
X31265714Y-157364342D02*
X31218095Y-157459580D01*
X31218095Y-157459580D02*
X31170476Y-157507200D01*
X31170476Y-157507200D02*
X31075238Y-157554819D01*
X31075238Y-157554819D02*
X30789524Y-157554819D01*
X30789524Y-157554819D02*
X30694286Y-157507200D01*
X30694286Y-157507200D02*
X30646667Y-157459580D01*
X29741905Y-149934819D02*
X29741905Y-148934819D01*
X29741905Y-148934819D02*
X29980000Y-148934819D01*
X29980000Y-148934819D02*
X30122857Y-148982438D01*
X30122857Y-148982438D02*
X30218095Y-149077676D01*
X30218095Y-149077676D02*
X30265714Y-149172914D01*
X30265714Y-149172914D02*
X30313333Y-149363390D01*
X30313333Y-149363390D02*
X30313333Y-149506247D01*
X30313333Y-149506247D02*
X30265714Y-149696723D01*
X30265714Y-149696723D02*
X30218095Y-149791961D01*
X30218095Y-149791961D02*
X30122857Y-149887200D01*
X30122857Y-149887200D02*
X29980000Y-149934819D01*
X29980000Y-149934819D02*
X29741905Y-149934819D01*
X30694286Y-149030057D02*
X30741905Y-148982438D01*
X30741905Y-148982438D02*
X30837143Y-148934819D01*
X30837143Y-148934819D02*
X31075238Y-148934819D01*
X31075238Y-148934819D02*
X31170476Y-148982438D01*
X31170476Y-148982438D02*
X31218095Y-149030057D01*
X31218095Y-149030057D02*
X31265714Y-149125295D01*
X31265714Y-149125295D02*
X31265714Y-149220533D01*
X31265714Y-149220533D02*
X31218095Y-149363390D01*
X31218095Y-149363390D02*
X30646667Y-149934819D01*
X30646667Y-149934819D02*
X31265714Y-149934819D01*
X29741905Y-146124819D02*
X29741905Y-145124819D01*
X29741905Y-145124819D02*
X29980000Y-145124819D01*
X29980000Y-145124819D02*
X30122857Y-145172438D01*
X30122857Y-145172438D02*
X30218095Y-145267676D01*
X30218095Y-145267676D02*
X30265714Y-145362914D01*
X30265714Y-145362914D02*
X30313333Y-145553390D01*
X30313333Y-145553390D02*
X30313333Y-145696247D01*
X30313333Y-145696247D02*
X30265714Y-145886723D01*
X30265714Y-145886723D02*
X30218095Y-145981961D01*
X30218095Y-145981961D02*
X30122857Y-146077200D01*
X30122857Y-146077200D02*
X29980000Y-146124819D01*
X29980000Y-146124819D02*
X29741905Y-146124819D01*
X31265714Y-146124819D02*
X30694286Y-146124819D01*
X30980000Y-146124819D02*
X30980000Y-145124819D01*
X30980000Y-145124819D02*
X30884762Y-145267676D01*
X30884762Y-145267676D02*
X30789524Y-145362914D01*
X30789524Y-145362914D02*
X30694286Y-145410533D01*
X24833333Y-59539580D02*
X24785714Y-59587200D01*
X24785714Y-59587200D02*
X24642857Y-59634819D01*
X24642857Y-59634819D02*
X24547619Y-59634819D01*
X24547619Y-59634819D02*
X24404762Y-59587200D01*
X24404762Y-59587200D02*
X24309524Y-59491961D01*
X24309524Y-59491961D02*
X24261905Y-59396723D01*
X24261905Y-59396723D02*
X24214286Y-59206247D01*
X24214286Y-59206247D02*
X24214286Y-59063390D01*
X24214286Y-59063390D02*
X24261905Y-58872914D01*
X24261905Y-58872914D02*
X24309524Y-58777676D01*
X24309524Y-58777676D02*
X24404762Y-58682438D01*
X24404762Y-58682438D02*
X24547619Y-58634819D01*
X24547619Y-58634819D02*
X24642857Y-58634819D01*
X24642857Y-58634819D02*
X24785714Y-58682438D01*
X24785714Y-58682438D02*
X24833333Y-58730057D01*
X25214286Y-58730057D02*
X25261905Y-58682438D01*
X25261905Y-58682438D02*
X25357143Y-58634819D01*
X25357143Y-58634819D02*
X25595238Y-58634819D01*
X25595238Y-58634819D02*
X25690476Y-58682438D01*
X25690476Y-58682438D02*
X25738095Y-58730057D01*
X25738095Y-58730057D02*
X25785714Y-58825295D01*
X25785714Y-58825295D02*
X25785714Y-58920533D01*
X25785714Y-58920533D02*
X25738095Y-59063390D01*
X25738095Y-59063390D02*
X25166667Y-59634819D01*
X25166667Y-59634819D02*
X25785714Y-59634819D01*
X24833333Y-62039580D02*
X24785714Y-62087200D01*
X24785714Y-62087200D02*
X24642857Y-62134819D01*
X24642857Y-62134819D02*
X24547619Y-62134819D01*
X24547619Y-62134819D02*
X24404762Y-62087200D01*
X24404762Y-62087200D02*
X24309524Y-61991961D01*
X24309524Y-61991961D02*
X24261905Y-61896723D01*
X24261905Y-61896723D02*
X24214286Y-61706247D01*
X24214286Y-61706247D02*
X24214286Y-61563390D01*
X24214286Y-61563390D02*
X24261905Y-61372914D01*
X24261905Y-61372914D02*
X24309524Y-61277676D01*
X24309524Y-61277676D02*
X24404762Y-61182438D01*
X24404762Y-61182438D02*
X24547619Y-61134819D01*
X24547619Y-61134819D02*
X24642857Y-61134819D01*
X24642857Y-61134819D02*
X24785714Y-61182438D01*
X24785714Y-61182438D02*
X24833333Y-61230057D01*
X25785714Y-62134819D02*
X25214286Y-62134819D01*
X25500000Y-62134819D02*
X25500000Y-61134819D01*
X25500000Y-61134819D02*
X25404762Y-61277676D01*
X25404762Y-61277676D02*
X25309524Y-61372914D01*
X25309524Y-61372914D02*
X25214286Y-61420533D01*
D11*
X116886666Y-16597419D02*
X116886666Y-17311704D01*
X116886666Y-17311704D02*
X116839047Y-17454561D01*
X116839047Y-17454561D02*
X116743809Y-17549800D01*
X116743809Y-17549800D02*
X116600952Y-17597419D01*
X116600952Y-17597419D02*
X116505714Y-17597419D01*
X117839047Y-16597419D02*
X117362857Y-16597419D01*
X117362857Y-16597419D02*
X117315238Y-17073609D01*
X117315238Y-17073609D02*
X117362857Y-17025990D01*
X117362857Y-17025990D02*
X117458095Y-16978371D01*
X117458095Y-16978371D02*
X117696190Y-16978371D01*
X117696190Y-16978371D02*
X117791428Y-17025990D01*
X117791428Y-17025990D02*
X117839047Y-17073609D01*
X117839047Y-17073609D02*
X117886666Y-17168847D01*
X117886666Y-17168847D02*
X117886666Y-17406942D01*
X117886666Y-17406942D02*
X117839047Y-17502180D01*
X117839047Y-17502180D02*
X117791428Y-17549800D01*
X117791428Y-17549800D02*
X117696190Y-17597419D01*
X117696190Y-17597419D02*
X117458095Y-17597419D01*
X117458095Y-17597419D02*
X117362857Y-17549800D01*
X117362857Y-17549800D02*
X117315238Y-17502180D01*
X139306666Y-16717419D02*
X139306666Y-17431704D01*
X139306666Y-17431704D02*
X139259047Y-17574561D01*
X139259047Y-17574561D02*
X139163809Y-17669800D01*
X139163809Y-17669800D02*
X139020952Y-17717419D01*
X139020952Y-17717419D02*
X138925714Y-17717419D01*
X140211428Y-17050752D02*
X140211428Y-17717419D01*
X139973333Y-16669800D02*
X139735238Y-17384085D01*
X139735238Y-17384085D02*
X140354285Y-17384085D01*
X71886666Y-16597419D02*
X71886666Y-17311704D01*
X71886666Y-17311704D02*
X71839047Y-17454561D01*
X71839047Y-17454561D02*
X71743809Y-17549800D01*
X71743809Y-17549800D02*
X71600952Y-17597419D01*
X71600952Y-17597419D02*
X71505714Y-17597419D01*
X72267619Y-16597419D02*
X72886666Y-16597419D01*
X72886666Y-16597419D02*
X72553333Y-16978371D01*
X72553333Y-16978371D02*
X72696190Y-16978371D01*
X72696190Y-16978371D02*
X72791428Y-17025990D01*
X72791428Y-17025990D02*
X72839047Y-17073609D01*
X72839047Y-17073609D02*
X72886666Y-17168847D01*
X72886666Y-17168847D02*
X72886666Y-17406942D01*
X72886666Y-17406942D02*
X72839047Y-17502180D01*
X72839047Y-17502180D02*
X72791428Y-17549800D01*
X72791428Y-17549800D02*
X72696190Y-17597419D01*
X72696190Y-17597419D02*
X72410476Y-17597419D01*
X72410476Y-17597419D02*
X72315238Y-17549800D01*
X72315238Y-17549800D02*
X72267619Y-17502180D01*
X94386666Y-16637419D02*
X94386666Y-17351704D01*
X94386666Y-17351704D02*
X94339047Y-17494561D01*
X94339047Y-17494561D02*
X94243809Y-17589800D01*
X94243809Y-17589800D02*
X94100952Y-17637419D01*
X94100952Y-17637419D02*
X94005714Y-17637419D01*
X94815238Y-16732657D02*
X94862857Y-16685038D01*
X94862857Y-16685038D02*
X94958095Y-16637419D01*
X94958095Y-16637419D02*
X95196190Y-16637419D01*
X95196190Y-16637419D02*
X95291428Y-16685038D01*
X95291428Y-16685038D02*
X95339047Y-16732657D01*
X95339047Y-16732657D02*
X95386666Y-16827895D01*
X95386666Y-16827895D02*
X95386666Y-16923133D01*
X95386666Y-16923133D02*
X95339047Y-17065990D01*
X95339047Y-17065990D02*
X94767619Y-17637419D01*
X94767619Y-17637419D02*
X95386666Y-17637419D01*
D10*
X38203333Y-146124819D02*
X37870000Y-145648628D01*
X37631905Y-146124819D02*
X37631905Y-145124819D01*
X37631905Y-145124819D02*
X38012857Y-145124819D01*
X38012857Y-145124819D02*
X38108095Y-145172438D01*
X38108095Y-145172438D02*
X38155714Y-145220057D01*
X38155714Y-145220057D02*
X38203333Y-145315295D01*
X38203333Y-145315295D02*
X38203333Y-145458152D01*
X38203333Y-145458152D02*
X38155714Y-145553390D01*
X38155714Y-145553390D02*
X38108095Y-145601009D01*
X38108095Y-145601009D02*
X38012857Y-145648628D01*
X38012857Y-145648628D02*
X37631905Y-145648628D01*
X39155714Y-146124819D02*
X38584286Y-146124819D01*
X38870000Y-146124819D02*
X38870000Y-145124819D01*
X38870000Y-145124819D02*
X38774762Y-145267676D01*
X38774762Y-145267676D02*
X38679524Y-145362914D01*
X38679524Y-145362914D02*
X38584286Y-145410533D01*
D11*
X49346666Y-16517419D02*
X49346666Y-17231704D01*
X49346666Y-17231704D02*
X49299047Y-17374561D01*
X49299047Y-17374561D02*
X49203809Y-17469800D01*
X49203809Y-17469800D02*
X49060952Y-17517419D01*
X49060952Y-17517419D02*
X48965714Y-17517419D01*
X50346666Y-17517419D02*
X49775238Y-17517419D01*
X50060952Y-17517419D02*
X50060952Y-16517419D01*
X50060952Y-16517419D02*
X49965714Y-16660276D01*
X49965714Y-16660276D02*
X49870476Y-16755514D01*
X49870476Y-16755514D02*
X49775238Y-16803133D01*
D10*
X38203333Y-149934819D02*
X37870000Y-149458628D01*
X37631905Y-149934819D02*
X37631905Y-148934819D01*
X37631905Y-148934819D02*
X38012857Y-148934819D01*
X38012857Y-148934819D02*
X38108095Y-148982438D01*
X38108095Y-148982438D02*
X38155714Y-149030057D01*
X38155714Y-149030057D02*
X38203333Y-149125295D01*
X38203333Y-149125295D02*
X38203333Y-149268152D01*
X38203333Y-149268152D02*
X38155714Y-149363390D01*
X38155714Y-149363390D02*
X38108095Y-149411009D01*
X38108095Y-149411009D02*
X38012857Y-149458628D01*
X38012857Y-149458628D02*
X37631905Y-149458628D01*
X38584286Y-149030057D02*
X38631905Y-148982438D01*
X38631905Y-148982438D02*
X38727143Y-148934819D01*
X38727143Y-148934819D02*
X38965238Y-148934819D01*
X38965238Y-148934819D02*
X39060476Y-148982438D01*
X39060476Y-148982438D02*
X39108095Y-149030057D01*
X39108095Y-149030057D02*
X39155714Y-149125295D01*
X39155714Y-149125295D02*
X39155714Y-149220533D01*
X39155714Y-149220533D02*
X39108095Y-149363390D01*
X39108095Y-149363390D02*
X38536667Y-149934819D01*
X38536667Y-149934819D02*
X39155714Y-149934819D01*
X38203333Y-161364819D02*
X37870000Y-160888628D01*
X37631905Y-161364819D02*
X37631905Y-160364819D01*
X37631905Y-160364819D02*
X38012857Y-160364819D01*
X38012857Y-160364819D02*
X38108095Y-160412438D01*
X38108095Y-160412438D02*
X38155714Y-160460057D01*
X38155714Y-160460057D02*
X38203333Y-160555295D01*
X38203333Y-160555295D02*
X38203333Y-160698152D01*
X38203333Y-160698152D02*
X38155714Y-160793390D01*
X38155714Y-160793390D02*
X38108095Y-160841009D01*
X38108095Y-160841009D02*
X38012857Y-160888628D01*
X38012857Y-160888628D02*
X37631905Y-160888628D01*
X39108095Y-160364819D02*
X38631905Y-160364819D01*
X38631905Y-160364819D02*
X38584286Y-160841009D01*
X38584286Y-160841009D02*
X38631905Y-160793390D01*
X38631905Y-160793390D02*
X38727143Y-160745771D01*
X38727143Y-160745771D02*
X38965238Y-160745771D01*
X38965238Y-160745771D02*
X39060476Y-160793390D01*
X39060476Y-160793390D02*
X39108095Y-160841009D01*
X39108095Y-160841009D02*
X39155714Y-160936247D01*
X39155714Y-160936247D02*
X39155714Y-161174342D01*
X39155714Y-161174342D02*
X39108095Y-161269580D01*
X39108095Y-161269580D02*
X39060476Y-161317200D01*
X39060476Y-161317200D02*
X38965238Y-161364819D01*
X38965238Y-161364819D02*
X38727143Y-161364819D01*
X38727143Y-161364819D02*
X38631905Y-161317200D01*
X38631905Y-161317200D02*
X38584286Y-161269580D01*
X38203333Y-157554819D02*
X37870000Y-157078628D01*
X37631905Y-157554819D02*
X37631905Y-156554819D01*
X37631905Y-156554819D02*
X38012857Y-156554819D01*
X38012857Y-156554819D02*
X38108095Y-156602438D01*
X38108095Y-156602438D02*
X38155714Y-156650057D01*
X38155714Y-156650057D02*
X38203333Y-156745295D01*
X38203333Y-156745295D02*
X38203333Y-156888152D01*
X38203333Y-156888152D02*
X38155714Y-156983390D01*
X38155714Y-156983390D02*
X38108095Y-157031009D01*
X38108095Y-157031009D02*
X38012857Y-157078628D01*
X38012857Y-157078628D02*
X37631905Y-157078628D01*
X39060476Y-156888152D02*
X39060476Y-157554819D01*
X38822381Y-156507200D02*
X38584286Y-157221485D01*
X38584286Y-157221485D02*
X39203333Y-157221485D01*
X38203333Y-153744819D02*
X37870000Y-153268628D01*
X37631905Y-153744819D02*
X37631905Y-152744819D01*
X37631905Y-152744819D02*
X38012857Y-152744819D01*
X38012857Y-152744819D02*
X38108095Y-152792438D01*
X38108095Y-152792438D02*
X38155714Y-152840057D01*
X38155714Y-152840057D02*
X38203333Y-152935295D01*
X38203333Y-152935295D02*
X38203333Y-153078152D01*
X38203333Y-153078152D02*
X38155714Y-153173390D01*
X38155714Y-153173390D02*
X38108095Y-153221009D01*
X38108095Y-153221009D02*
X38012857Y-153268628D01*
X38012857Y-153268628D02*
X37631905Y-153268628D01*
X38536667Y-152744819D02*
X39155714Y-152744819D01*
X39155714Y-152744819D02*
X38822381Y-153125771D01*
X38822381Y-153125771D02*
X38965238Y-153125771D01*
X38965238Y-153125771D02*
X39060476Y-153173390D01*
X39060476Y-153173390D02*
X39108095Y-153221009D01*
X39108095Y-153221009D02*
X39155714Y-153316247D01*
X39155714Y-153316247D02*
X39155714Y-153554342D01*
X39155714Y-153554342D02*
X39108095Y-153649580D01*
X39108095Y-153649580D02*
X39060476Y-153697200D01*
X39060476Y-153697200D02*
X38965238Y-153744819D01*
X38965238Y-153744819D02*
X38679524Y-153744819D01*
X38679524Y-153744819D02*
X38584286Y-153697200D01*
X38584286Y-153697200D02*
X38536667Y-153649580D01*
D12*
%TO.C,U1*%
X19890000Y-34660000D02*
X30110000Y-34660000D01*
X19890000Y-50530000D02*
X19890000Y-34660000D01*
X19890000Y-50530000D02*
X30110000Y-50530000D01*
X21975000Y-50530000D02*
X21975000Y-52970000D01*
X22945000Y-50530000D02*
X22945000Y-52970000D01*
X24515000Y-50530000D02*
X24515000Y-52970000D01*
X25485000Y-50530000D02*
X25485000Y-52970000D01*
X27055000Y-50530000D02*
X27055000Y-52970000D01*
X28025000Y-50530000D02*
X28025000Y-52970000D01*
X30110000Y-50530000D02*
X30110000Y-34660000D01*
%TO.C,D5*%
X32340000Y-163520000D02*
X32340000Y-161600000D01*
X32340000Y-161600000D02*
X29480000Y-161600000D01*
X29480000Y-163520000D02*
X32340000Y-163520000D01*
%TO.C,D4*%
X28620000Y-153980000D02*
X28620000Y-155900000D01*
X28620000Y-155900000D02*
X31480000Y-155900000D01*
X31480000Y-153980000D02*
X28620000Y-153980000D01*
%TO.C,D3*%
X28620000Y-157790000D02*
X28620000Y-159710000D01*
X28620000Y-159710000D02*
X31480000Y-159710000D01*
X31480000Y-157790000D02*
X28620000Y-157790000D01*
%TO.C,D2*%
X28620000Y-150170000D02*
X28620000Y-152090000D01*
X28620000Y-152090000D02*
X31480000Y-152090000D01*
X31480000Y-150170000D02*
X28620000Y-150170000D01*
%TO.C,D1*%
X28620000Y-146360000D02*
X28620000Y-148280000D01*
X28620000Y-148280000D02*
X31480000Y-148280000D01*
X31480000Y-146360000D02*
X28620000Y-146360000D01*
%TO.C,C2*%
X25261252Y-58235000D02*
X24738748Y-58235000D01*
X25261252Y-56765000D02*
X24738748Y-56765000D01*
%TO.C,C1*%
X25261252Y-60735000D02*
X24738748Y-60735000D01*
X25261252Y-59265000D02*
X24738748Y-59265000D01*
D11*
%TO.C,J5*%
X127380000Y-24760000D02*
X127380000Y-34920000D01*
X127380000Y-24760000D02*
X137540000Y-24760000D01*
X127380000Y-164460000D02*
X127380000Y-34920000D01*
X127380000Y-164460000D02*
X127380000Y-174620000D01*
X127380000Y-164460000D02*
X137540000Y-164460000D01*
X127380000Y-174620000D02*
X135000000Y-174620000D01*
X129920000Y-24760000D02*
X127380000Y-24760000D01*
X135000000Y-174620000D02*
X137540000Y-174620000D01*
X137540000Y-24760000D02*
X137540000Y-34920000D01*
X137540000Y-34920000D02*
X137540000Y-164460000D01*
X137540000Y-174620000D02*
X137540000Y-164460000D01*
X127380000Y-34920000D02*
X137540000Y-34920000D01*
X127380000Y-34920000D01*
%TO.C,J4*%
X149800000Y-24880000D02*
X149800000Y-35040000D01*
X149800000Y-24880000D02*
X159960000Y-24880000D01*
X149800000Y-164580000D02*
X149800000Y-35040000D01*
X149800000Y-164580000D02*
X149800000Y-174740000D01*
X149800000Y-164580000D02*
X159960000Y-164580000D01*
X149800000Y-174740000D02*
X157420000Y-174740000D01*
X152340000Y-24880000D02*
X149800000Y-24880000D01*
X157420000Y-174740000D02*
X159960000Y-174740000D01*
X159960000Y-24880000D02*
X159960000Y-35040000D01*
X159960000Y-35040000D02*
X159960000Y-164580000D01*
X159960000Y-174740000D02*
X159960000Y-164580000D01*
X149800000Y-35040000D02*
X159960000Y-35040000D01*
X149800000Y-35040000D01*
%TO.C,J3*%
X82380000Y-24760000D02*
X82380000Y-34920000D01*
X82380000Y-24760000D02*
X92540000Y-24760000D01*
X82380000Y-164460000D02*
X82380000Y-34920000D01*
X82380000Y-164460000D02*
X82380000Y-174620000D01*
X82380000Y-164460000D02*
X92540000Y-164460000D01*
X82380000Y-174620000D02*
X90000000Y-174620000D01*
X84920000Y-24760000D02*
X82380000Y-24760000D01*
X90000000Y-174620000D02*
X92540000Y-174620000D01*
X92540000Y-24760000D02*
X92540000Y-34920000D01*
X92540000Y-34920000D02*
X92540000Y-164460000D01*
X92540000Y-174620000D02*
X92540000Y-164460000D01*
X82380000Y-34920000D02*
X92540000Y-34920000D01*
X82380000Y-34920000D01*
%TO.C,J2*%
X104880000Y-24800000D02*
X104880000Y-34960000D01*
X104880000Y-24800000D02*
X115040000Y-24800000D01*
X104880000Y-164500000D02*
X104880000Y-34960000D01*
X104880000Y-164500000D02*
X104880000Y-174660000D01*
X104880000Y-164500000D02*
X115040000Y-164500000D01*
X104880000Y-174660000D02*
X112500000Y-174660000D01*
X107420000Y-24800000D02*
X104880000Y-24800000D01*
X112500000Y-174660000D02*
X115040000Y-174660000D01*
X115040000Y-24800000D02*
X115040000Y-34960000D01*
X115040000Y-34960000D02*
X115040000Y-164500000D01*
X115040000Y-174660000D02*
X115040000Y-164500000D01*
X104880000Y-34960000D02*
X115040000Y-34960000D01*
X104880000Y-34960000D01*
D12*
%TO.C,R1*%
X38142936Y-146585000D02*
X38597064Y-146585000D01*
X38142936Y-148055000D02*
X38597064Y-148055000D01*
D11*
%TO.C,J1*%
X59840000Y-24680000D02*
X59840000Y-34840000D01*
X59840000Y-24680000D02*
X70000000Y-24680000D01*
X59840000Y-164380000D02*
X59840000Y-34840000D01*
X59840000Y-164380000D02*
X59840000Y-174540000D01*
X59840000Y-164380000D02*
X70000000Y-164380000D01*
X59840000Y-174540000D02*
X67460000Y-174540000D01*
X62380000Y-24680000D02*
X59840000Y-24680000D01*
X67460000Y-174540000D02*
X70000000Y-174540000D01*
X70000000Y-24680000D02*
X70000000Y-34840000D01*
X70000000Y-34840000D02*
X70000000Y-164380000D01*
X70000000Y-174540000D02*
X70000000Y-164380000D01*
X59840000Y-34840000D02*
X70000000Y-34840000D01*
X59840000Y-34840000D01*
D12*
%TO.C,R2*%
X38142936Y-150395000D02*
X38597064Y-150395000D01*
X38142936Y-151865000D02*
X38597064Y-151865000D01*
%TO.C,R5*%
X38142936Y-161825000D02*
X38597064Y-161825000D01*
X38142936Y-163295000D02*
X38597064Y-163295000D01*
%TO.C,R4*%
X38142936Y-158015000D02*
X38597064Y-158015000D01*
X38142936Y-159485000D02*
X38597064Y-159485000D01*
%TO.C,R3*%
X38142936Y-154205000D02*
X38597064Y-154205000D01*
X38142936Y-155675000D02*
X38597064Y-155675000D01*
%TD*%
M02*
