%TF.GenerationSoftware,KiCad,Pcbnew,9.0.6-1.fc43*%
%TF.CreationDate,2026-03-28T09:16:53+00:00*%
%TF.ProjectId,cptrep_8500_backplane,63707472-6570-45f3-9835-30305f626163,rev?*%
%TF.SameCoordinates,Original*%
%TF.FileFunction,Copper,L2,Bot*%
%TF.FilePolarity,Positive*%
%FSLAX46Y46*%
G04 Gerber Fmt 4.6, Leading zero omitted, Abs format (unit mm)*
G04 Created by KiCad (PCBNEW 9.0.6-1.fc43) date 2026-03-28 09:16:53*
%MOMM*%
%LPD*%
G01*
G04 APERTURE LIST*
G04 Aperture macros list*
%AMRoundRect*
0 Rectangle with rounded corners*
0 $1 Rounding radius*
0 $2 $3 $4 $5 $6 $7 $8 $9 X,Y pos of 4 corners*
0 Add a 4 corners polygon primitive as box body*
4,1,4,$2,$3,$4,$5,$6,$7,$8,$9,$2,$3,0*
0 Add four circle primitives for the rounded corners*
1,1,$1+$1,$2,$3*
1,1,$1+$1,$4,$5*
1,1,$1+$1,$6,$7*
1,1,$1+$1,$8,$9*
0 Add four rect primitives between the rounded corners*
20,1,$1+$1,$2,$3,$4,$5,0*
20,1,$1+$1,$4,$5,$6,$7,0*
20,1,$1+$1,$6,$7,$8,$9,0*
20,1,$1+$1,$8,$9,$2,$3,0*%
G04 Aperture macros list end*
%TA.AperFunction,ComponentPad*%
%ADD10RoundRect,0.225000X-1.025000X-0.525000X1.025000X-0.525000X1.025000X0.525000X-1.025000X0.525000X0*%
%TD*%
%TA.AperFunction,ComponentPad*%
%ADD11C,2.000000*%
%TD*%
%TA.AperFunction,ComponentPad*%
%ADD12RoundRect,0.250000X-1.050000X1.050000X-1.050000X-1.050000X1.050000X-1.050000X1.050000X1.050000X0*%
%TD*%
%TA.AperFunction,ComponentPad*%
%ADD13C,2.600000*%
%TD*%
%TA.AperFunction,ComponentPad*%
%ADD14R,1.905000X2.000000*%
%TD*%
%TA.AperFunction,ComponentPad*%
%ADD15O,1.905000X2.000000*%
%TD*%
%TA.AperFunction,ViaPad*%
%ADD16C,4.000000*%
%TD*%
%TA.AperFunction,ViaPad*%
%ADD17C,0.600000*%
%TD*%
%TA.AperFunction,ViaPad*%
%ADD18C,5.200000*%
%TD*%
%TA.AperFunction,Conductor*%
%ADD19C,1.500000*%
%TD*%
%TA.AperFunction,Conductor*%
%ADD20C,2.000000*%
%TD*%
%TA.AperFunction,Conductor*%
%ADD21C,0.500000*%
%TD*%
%TA.AperFunction,Conductor*%
%ADD22C,1.000000*%
%TD*%
%TA.AperFunction,Conductor*%
%ADD23C,4.000000*%
%TD*%
G04 APERTURE END LIST*
D10*
%TO.P,J5,100,GND*%
%TO.N,GND*%
X116078000Y-168579800D03*
%TO.P,J5,99,GND*%
X110998000Y-168579800D03*
%TO.P,J5,98,GND*%
X116078000Y-166039800D03*
%TO.P,J5,97,GND*%
X110998000Y-166039800D03*
%TO.P,J5,96,+5V*%
%TO.N,+5V*%
X116078000Y-163499800D03*
%TO.P,J5,95,+5V*%
X110998000Y-163499800D03*
%TO.P,J5,94,+5V*%
X116078000Y-160959800D03*
%TO.P,J5,93,+5V*%
X110998000Y-160959800D03*
%TO.P,J5,92,+12V*%
%TO.N,+12V*%
X116078000Y-158419800D03*
%TO.P,J5,91,+12V*%
X110998000Y-158419800D03*
%TO.P,J5,90,-12V*%
%TO.N,-12V*%
X116078000Y-155879800D03*
%TO.P,J5,89,-12V*%
X110998000Y-155879800D03*
%TO.P,J5,88,-5V*%
%TO.N,-5V*%
X116078000Y-153339800D03*
%TO.P,J5,87,-5V*%
X110998000Y-153339800D03*
%TO.P,J5,86,GND*%
%TO.N,GND*%
X116078000Y-150799800D03*
%TO.P,J5,85,85*%
%TO.N,{slash}BP85*%
X110998000Y-150799800D03*
%TO.P,J5,84,GND*%
%TO.N,GND*%
X116078000Y-148259800D03*
%TO.P,J5,83,83*%
%TO.N,{slash}BP83*%
X110998000Y-148259800D03*
%TO.P,J5,82,GND*%
%TO.N,GND*%
X116078000Y-145719800D03*
%TO.P,J5,81,PHI2*%
%TO.N,PHI2*%
X110998000Y-145719800D03*
%TO.P,J5,80,/DACK3*%
%TO.N,{slash}DACK3*%
X116078000Y-143179800D03*
%TO.P,J5,79,/DREQ3*%
%TO.N,{slash}DREQ3*%
X110998000Y-143179800D03*
%TO.P,J5,78,/DACK2*%
%TO.N,{slash}DACK2*%
X116078000Y-140639800D03*
%TO.P,J5,77,/DREQ2*%
%TO.N,{slash}DREQ2*%
X110998000Y-140639800D03*
%TO.P,J5,76,/DACK1*%
%TO.N,{slash}DACK1*%
X116078000Y-138099800D03*
%TO.P,J5,75,/DREQ1*%
%TO.N,{slash}DREQ1*%
X110998000Y-138099800D03*
%TO.P,J5,74,/DACK0*%
%TO.N,{slash}DACK0*%
X116078000Y-135559800D03*
%TO.P,J5,73,/DREQ0*%
%TO.N,{slash}DREQ0*%
X110998000Y-135559800D03*
%TO.P,J5,72,/INTERRUPT1*%
%TO.N,{slash}INT1*%
X116078000Y-133019800D03*
%TO.P,J5,71,/INT3*%
%TO.N,{slash}INT3*%
X110998000Y-133019800D03*
%TO.P,J5,70,70*%
%TO.N,{slash}BP70*%
X116078000Y-130479800D03*
%TO.P,J5,69,/INTERRUPT4*%
%TO.N,{slash}INT4*%
X110998000Y-130479800D03*
%TO.P,J5,68,68*%
%TO.N,{slash}BP68*%
X116078000Y-127939800D03*
%TO.P,J5,67,/EOF*%
%TO.N,{slash}EOF*%
X110998000Y-127939800D03*
%TO.P,J5,66,66*%
%TO.N,{slash}BP66*%
X116078000Y-125399800D03*
%TO.P,J5,65,/IO40*%
%TO.N,{slash}IO40*%
X110998000Y-125399800D03*
%TO.P,J5,64,64*%
%TO.N,{slash}BP64*%
X116078000Y-122859800D03*
%TO.P,J5,63,/IO30*%
%TO.N,{slash}IO30*%
X110998000Y-122859800D03*
%TO.P,J5,62,62*%
%TO.N,{slash}BP62*%
X116078000Y-120319800D03*
%TO.P,J5,61,/IO20*%
%TO.N,{slash}IO20*%
X110998000Y-120319800D03*
%TO.P,J5,60,/IO60*%
%TO.N,{slash}IO60*%
X116078000Y-117779800D03*
%TO.P,J5,59,59*%
%TO.N,{slash}BP59*%
X110998000Y-117779800D03*
%TO.P,J5,58,/PARITYERROR*%
%TO.N,{slash}PE*%
X116078000Y-115239800D03*
%TO.P,J5,57,/REF*%
%TO.N,{slash}REF*%
X110998000Y-115239800D03*
%TO.P,J5,56,/TC*%
%TO.N,{slash}TC*%
X116078000Y-112699800D03*
%TO.P,J5,55,/A15*%
%TO.N,{slash}A15*%
X110998000Y-112699800D03*
%TO.P,J5,54,/A14*%
%TO.N,{slash}A14*%
X116078000Y-110159800D03*
%TO.P,J5,53,/A13*%
%TO.N,{slash}A13*%
X110998000Y-110159800D03*
%TO.P,J5,52,/A12*%
%TO.N,{slash}A12*%
X116078000Y-107619800D03*
%TO.P,J5,51,/A11*%
%TO.N,{slash}A11*%
X110998000Y-107619800D03*
%TO.P,J5,50,/A10*%
%TO.N,{slash}A10*%
X116078000Y-105079800D03*
%TO.P,J5,49,/A9*%
%TO.N,{slash}A9*%
X110998000Y-105079800D03*
%TO.P,J5,48,/A8*%
%TO.N,{slash}A8*%
X116078000Y-102539800D03*
%TO.P,J5,47,/A7*%
%TO.N,{slash}A7*%
X110998000Y-102539800D03*
%TO.P,J5,46,/A6*%
%TO.N,{slash}A6*%
X116078000Y-99999800D03*
%TO.P,J5,45,/A5*%
%TO.N,{slash}A5*%
X110998000Y-99999800D03*
%TO.P,J5,44,/A4*%
%TO.N,{slash}A4*%
X116078000Y-97459800D03*
%TO.P,J5,43,/A3*%
%TO.N,{slash}A3*%
X110998000Y-97459800D03*
%TO.P,J5,42,/A2*%
%TO.N,{slash}A2*%
X116078000Y-94919800D03*
%TO.P,J5,41,/A1*%
%TO.N,{slash}A1*%
X110998000Y-94919800D03*
%TO.P,J5,40,/A0*%
%TO.N,{slash}A0*%
X116078000Y-92379800D03*
%TO.P,J5,39,39*%
%TO.N,BP39*%
X110998000Y-92379800D03*
%TO.P,J5,38,GND*%
%TO.N,GND*%
X116078000Y-89839800D03*
%TO.P,J5,37,/BOUT*%
%TO.N,{slash}BOUT*%
X110998000Y-89839800D03*
%TO.P,J5,36,GND*%
%TO.N,GND*%
X116078000Y-87299800D03*
%TO.P,J5,35,/BIN*%
%TO.N,{slash}BIN*%
X110998000Y-87299800D03*
%TO.P,J5,34,GND*%
%TO.N,GND*%
X116078000Y-84759800D03*
%TO.P,J5,33,/IOWR*%
%TO.N,{slash}IOWR*%
X110998000Y-84759800D03*
%TO.P,J5,32,/MEMWR*%
%TO.N,{slash}MEMWR*%
X116078000Y-82219800D03*
%TO.P,J5,31,/IORD*%
%TO.N,{slash}IORD*%
X110998000Y-82219800D03*
%TO.P,J5,30,/MEMRD*%
%TO.N,{slash}MEMRD*%
X116078000Y-79679800D03*
%TO.P,J5,29,/HLDAK*%
%TO.N,{slash}HLDAK*%
X110998000Y-79679800D03*
%TO.P,J5,28,/DB8*%
%TO.N,{slash}DB8*%
X116078000Y-77139800D03*
%TO.P,J5,27,/DB7*%
%TO.N,{slash}DB7*%
X110998000Y-77139800D03*
%TO.P,J5,26,/DB6*%
%TO.N,{slash}DB6*%
X116078000Y-74599800D03*
%TO.P,J5,25,/DB5*%
%TO.N,{slash}DB5*%
X110998000Y-74599800D03*
%TO.P,J5,24,/DB4*%
%TO.N,{slash}DB4*%
X116078000Y-72059800D03*
%TO.P,J5,23,/DB3*%
%TO.N,{slash}DB3*%
X110998000Y-72059800D03*
%TO.P,J5,22,/DB2*%
%TO.N,{slash}DB2*%
X116078000Y-69519800D03*
%TO.P,J5,21,/DB1*%
%TO.N,{slash}DB1*%
X110998000Y-69519800D03*
%TO.P,J5,20,/DB0*%
%TO.N,{slash}DB0*%
X116078000Y-66979800D03*
%TO.P,J5,19,19*%
%TO.N,BP19*%
X110998000Y-66979800D03*
%TO.P,J5,18,18*%
%TO.N,BP18*%
X116078000Y-64439800D03*
%TO.P,J5,17,AUD*%
%TO.N,AUD*%
X110998000Y-64439800D03*
%TO.P,J5,16,16*%
%TO.N,BP16*%
X116078000Y-61899800D03*
%TO.P,J5,15,15*%
%TO.N,BP15*%
X110998000Y-61899800D03*
%TO.P,J5,14,/WAIT*%
%TO.N,{slash}WAIT*%
X116078000Y-59359800D03*
%TO.P,J5,13,READY*%
%TO.N,READY*%
X110998000Y-59359800D03*
%TO.P,J5,12,12*%
%TO.N,BP12*%
X116078000Y-56819800D03*
%TO.P,J5,11,/RESET*%
%TO.N,{slash}RESET*%
X110998000Y-56819800D03*
%TO.P,J5,10,/CLEAR*%
%TO.N,{slash}CLEAR*%
X116078000Y-54279800D03*
%TO.P,J5,9,9*%
%TO.N,BP9*%
X110998000Y-54279800D03*
%TO.P,J5,8,+24V*%
%TO.N,+24V*%
X116078000Y-51739800D03*
%TO.P,J5,7,+24V*%
X110998000Y-51739800D03*
%TO.P,J5,6,+24V*%
X116078000Y-49199800D03*
%TO.P,J5,5,+24V*%
X110998000Y-49199800D03*
%TO.P,J5,4,GND*%
%TO.N,GND*%
X116078000Y-46659800D03*
%TO.P,J5,3,GND*%
X110998000Y-46659800D03*
%TO.P,J5,2,GND*%
X116078000Y-44119800D03*
%TO.P,J5,1,GND*%
X110998000Y-44119800D03*
%TD*%
%TO.P,J4,100,GND*%
%TO.N,GND*%
X133350000Y-168579800D03*
%TO.P,J4,99,GND*%
X128270000Y-168579800D03*
%TO.P,J4,98,GND*%
X133350000Y-166039800D03*
%TO.P,J4,97,GND*%
X128270000Y-166039800D03*
%TO.P,J4,96,+5V*%
%TO.N,+5V*%
X133350000Y-163499800D03*
%TO.P,J4,95,+5V*%
X128270000Y-163499800D03*
%TO.P,J4,94,+5V*%
X133350000Y-160959800D03*
%TO.P,J4,93,+5V*%
X128270000Y-160959800D03*
%TO.P,J4,92,+12V*%
%TO.N,+12V*%
X133350000Y-158419800D03*
%TO.P,J4,91,+12V*%
X128270000Y-158419800D03*
%TO.P,J4,90,-12V*%
%TO.N,-12V*%
X133350000Y-155879800D03*
%TO.P,J4,89,-12V*%
X128270000Y-155879800D03*
%TO.P,J4,88,-5V*%
%TO.N,-5V*%
X133350000Y-153339800D03*
%TO.P,J4,87,-5V*%
X128270000Y-153339800D03*
%TO.P,J4,86,GND*%
%TO.N,GND*%
X133350000Y-150799800D03*
%TO.P,J4,85,85*%
%TO.N,{slash}BP85*%
X128270000Y-150799800D03*
%TO.P,J4,84,GND*%
%TO.N,GND*%
X133350000Y-148259800D03*
%TO.P,J4,83,83*%
%TO.N,{slash}BP83*%
X128270000Y-148259800D03*
%TO.P,J4,82,GND*%
%TO.N,GND*%
X133350000Y-145719800D03*
%TO.P,J4,81,PHI2*%
%TO.N,PHI2*%
X128270000Y-145719800D03*
%TO.P,J4,80,/DACK3*%
%TO.N,{slash}DACK3*%
X133350000Y-143179800D03*
%TO.P,J4,79,/DREQ3*%
%TO.N,{slash}DREQ3*%
X128270000Y-143179800D03*
%TO.P,J4,78,/DACK2*%
%TO.N,{slash}DACK2*%
X133350000Y-140639800D03*
%TO.P,J4,77,/DREQ2*%
%TO.N,{slash}DREQ2*%
X128270000Y-140639800D03*
%TO.P,J4,76,/DACK1*%
%TO.N,{slash}DACK1*%
X133350000Y-138099800D03*
%TO.P,J4,75,/DREQ1*%
%TO.N,{slash}DREQ1*%
X128270000Y-138099800D03*
%TO.P,J4,74,/DACK0*%
%TO.N,{slash}DACK0*%
X133350000Y-135559800D03*
%TO.P,J4,73,/DREQ0*%
%TO.N,{slash}DREQ0*%
X128270000Y-135559800D03*
%TO.P,J4,72,/INTERRUPT1*%
%TO.N,{slash}INT1*%
X133350000Y-133019800D03*
%TO.P,J4,71,/INT3*%
%TO.N,{slash}INT3*%
X128270000Y-133019800D03*
%TO.P,J4,70,70*%
%TO.N,{slash}BP70*%
X133350000Y-130479800D03*
%TO.P,J4,69,/INTERRUPT4*%
%TO.N,{slash}INT4*%
X128270000Y-130479800D03*
%TO.P,J4,68,68*%
%TO.N,{slash}BP68*%
X133350000Y-127939800D03*
%TO.P,J4,67,/EOF*%
%TO.N,{slash}EOF*%
X128270000Y-127939800D03*
%TO.P,J4,66,66*%
%TO.N,{slash}BP66*%
X133350000Y-125399800D03*
%TO.P,J4,65,/IO40*%
%TO.N,{slash}IO40*%
X128270000Y-125399800D03*
%TO.P,J4,64,64*%
%TO.N,{slash}BP64*%
X133350000Y-122859800D03*
%TO.P,J4,63,/IO30*%
%TO.N,{slash}IO30*%
X128270000Y-122859800D03*
%TO.P,J4,62,62*%
%TO.N,{slash}BP62*%
X133350000Y-120319800D03*
%TO.P,J4,61,/IO20*%
%TO.N,{slash}IO20*%
X128270000Y-120319800D03*
%TO.P,J4,60,/IO60*%
%TO.N,{slash}IO60*%
X133350000Y-117779800D03*
%TO.P,J4,59,59*%
%TO.N,{slash}BP59*%
X128270000Y-117779800D03*
%TO.P,J4,58,/PARITYERROR*%
%TO.N,{slash}PE*%
X133350000Y-115239800D03*
%TO.P,J4,57,/REF*%
%TO.N,{slash}REF*%
X128270000Y-115239800D03*
%TO.P,J4,56,/TC*%
%TO.N,{slash}TC*%
X133350000Y-112699800D03*
%TO.P,J4,55,/A15*%
%TO.N,{slash}A15*%
X128270000Y-112699800D03*
%TO.P,J4,54,/A14*%
%TO.N,{slash}A14*%
X133350000Y-110159800D03*
%TO.P,J4,53,/A13*%
%TO.N,{slash}A13*%
X128270000Y-110159800D03*
%TO.P,J4,52,/A12*%
%TO.N,{slash}A12*%
X133350000Y-107619800D03*
%TO.P,J4,51,/A11*%
%TO.N,{slash}A11*%
X128270000Y-107619800D03*
%TO.P,J4,50,/A10*%
%TO.N,{slash}A10*%
X133350000Y-105079800D03*
%TO.P,J4,49,/A9*%
%TO.N,{slash}A9*%
X128270000Y-105079800D03*
%TO.P,J4,48,/A8*%
%TO.N,{slash}A8*%
X133350000Y-102539800D03*
%TO.P,J4,47,/A7*%
%TO.N,{slash}A7*%
X128270000Y-102539800D03*
%TO.P,J4,46,/A6*%
%TO.N,{slash}A6*%
X133350000Y-99999800D03*
%TO.P,J4,45,/A5*%
%TO.N,{slash}A5*%
X128270000Y-99999800D03*
%TO.P,J4,44,/A4*%
%TO.N,{slash}A4*%
X133350000Y-97459800D03*
%TO.P,J4,43,/A3*%
%TO.N,{slash}A3*%
X128270000Y-97459800D03*
%TO.P,J4,42,/A2*%
%TO.N,{slash}A2*%
X133350000Y-94919800D03*
%TO.P,J4,41,/A1*%
%TO.N,{slash}A1*%
X128270000Y-94919800D03*
%TO.P,J4,40,/A0*%
%TO.N,{slash}A0*%
X133350000Y-92379800D03*
%TO.P,J4,39,39*%
%TO.N,BP39*%
X128270000Y-92379800D03*
%TO.P,J4,38,GND*%
%TO.N,GND*%
X133350000Y-89839800D03*
%TO.P,J4,37,/BOUT*%
%TO.N,{slash}BOUT*%
X128270000Y-89839800D03*
%TO.P,J4,36,GND*%
%TO.N,GND*%
X133350000Y-87299800D03*
%TO.P,J4,35,/BIN*%
%TO.N,{slash}BIN*%
X128270000Y-87299800D03*
%TO.P,J4,34,GND*%
%TO.N,GND*%
X133350000Y-84759800D03*
%TO.P,J4,33,/IOWR*%
%TO.N,{slash}IOWR*%
X128270000Y-84759800D03*
%TO.P,J4,32,/MEMWR*%
%TO.N,{slash}MEMWR*%
X133350000Y-82219800D03*
%TO.P,J4,31,/IORD*%
%TO.N,{slash}IORD*%
X128270000Y-82219800D03*
%TO.P,J4,30,/MEMRD*%
%TO.N,{slash}MEMRD*%
X133350000Y-79679800D03*
%TO.P,J4,29,/HLDAK*%
%TO.N,{slash}HLDAK*%
X128270000Y-79679800D03*
%TO.P,J4,28,/DB8*%
%TO.N,{slash}DB8*%
X133350000Y-77139800D03*
%TO.P,J4,27,/DB7*%
%TO.N,{slash}DB7*%
X128270000Y-77139800D03*
%TO.P,J4,26,/DB6*%
%TO.N,{slash}DB6*%
X133350000Y-74599800D03*
%TO.P,J4,25,/DB5*%
%TO.N,{slash}DB5*%
X128270000Y-74599800D03*
%TO.P,J4,24,/DB4*%
%TO.N,{slash}DB4*%
X133350000Y-72059800D03*
%TO.P,J4,23,/DB3*%
%TO.N,{slash}DB3*%
X128270000Y-72059800D03*
%TO.P,J4,22,/DB2*%
%TO.N,{slash}DB2*%
X133350000Y-69519800D03*
%TO.P,J4,21,/DB1*%
%TO.N,{slash}DB1*%
X128270000Y-69519800D03*
%TO.P,J4,20,/DB0*%
%TO.N,{slash}DB0*%
X133350000Y-66979800D03*
%TO.P,J4,19,19*%
%TO.N,BP19*%
X128270000Y-66979800D03*
%TO.P,J4,18,18*%
%TO.N,BP18*%
X133350000Y-64439800D03*
%TO.P,J4,17,AUD*%
%TO.N,AUD*%
X128270000Y-64439800D03*
%TO.P,J4,16,16*%
%TO.N,BP16*%
X133350000Y-61899800D03*
%TO.P,J4,15,15*%
%TO.N,BP15*%
X128270000Y-61899800D03*
%TO.P,J4,14,/WAIT*%
%TO.N,{slash}WAIT*%
X133350000Y-59359800D03*
%TO.P,J4,13,READY*%
%TO.N,READY*%
X128270000Y-59359800D03*
%TO.P,J4,12,12*%
%TO.N,BP12*%
X133350000Y-56819800D03*
%TO.P,J4,11,/RESET*%
%TO.N,{slash}RESET*%
X128270000Y-56819800D03*
%TO.P,J4,10,/CLEAR*%
%TO.N,{slash}CLEAR*%
X133350000Y-54279800D03*
%TO.P,J4,9,9*%
%TO.N,BP9*%
X128270000Y-54279800D03*
%TO.P,J4,8,+24V*%
%TO.N,+24V*%
X133350000Y-51739800D03*
%TO.P,J4,7,+24V*%
X128270000Y-51739800D03*
%TO.P,J4,6,+24V*%
X133350000Y-49199800D03*
%TO.P,J4,5,+24V*%
X128270000Y-49199800D03*
%TO.P,J4,4,GND*%
%TO.N,GND*%
X133350000Y-46659800D03*
%TO.P,J4,3,GND*%
X128270000Y-46659800D03*
%TO.P,J4,2,GND*%
X133350000Y-44119800D03*
%TO.P,J4,1,GND*%
X128270000Y-44119800D03*
%TD*%
D11*
%TO.P,SW1,1,1*%
%TO.N,unconnected-(SW1-Pad1)*%
X12140000Y-76418000D03*
X5640000Y-76418000D03*
%TO.P,SW1,2,2*%
%TO.N,unconnected-(SW1-Pad2)*%
X12140000Y-71918000D03*
X5640000Y-71918000D03*
%TD*%
D12*
%TO.P,J10,1,Pin_1*%
%TO.N,unconnected-(J10-Pin_1-Pad1)*%
X9911300Y-106825400D03*
D13*
%TO.P,J10,2,Pin_2*%
%TO.N,unconnected-(J10-Pin_2-Pad2)*%
X9911300Y-111825400D03*
%TO.P,J10,3,Pin_3*%
%TO.N,unconnected-(J10-Pin_3-Pad3)*%
X9911300Y-116825400D03*
%TO.P,J10,4,Pin_4*%
%TO.N,unconnected-(J10-Pin_4-Pad4)*%
X9911300Y-121825400D03*
%TD*%
D12*
%TO.P,J9,1,Pin_1*%
%TO.N,+12V*%
X9982200Y-175365400D03*
D13*
%TO.P,J9,2,Pin_2*%
%TO.N,GND*%
X9982200Y-180365400D03*
%TO.P,J9,3,Pin_3*%
X9982200Y-185365400D03*
%TO.P,J9,4,Pin_4*%
%TO.N,+5V*%
X9982200Y-190365400D03*
%TD*%
D12*
%TO.P,J8,1,Pin_1*%
%TO.N,{slash}BP85*%
X9982200Y-154029400D03*
D13*
%TO.P,J8,2,Pin_2*%
%TO.N,GND*%
X9982200Y-159029400D03*
%TO.P,J8,3,Pin_3*%
X9982200Y-164029400D03*
%TO.P,J8,4,Pin_4*%
%TO.N,-12V*%
X9982200Y-169029400D03*
%TD*%
D12*
%TO.P,J7,1,Pin_1*%
%TO.N,GND*%
X9982200Y-132693400D03*
D13*
%TO.P,J7,2,Pin_2*%
%TO.N,{slash}CLEAR*%
X9982200Y-137693400D03*
%TO.P,J7,3,Pin_3*%
%TO.N,AUD*%
X9982200Y-142693400D03*
%TO.P,J7,4,Pin_4*%
%TO.N,{slash}BP83*%
X9982200Y-147693400D03*
%TD*%
D14*
%TO.P,U1,1,GND*%
%TO.N,GND*%
X16510000Y-36830000D03*
D15*
%TO.P,U1,2,VI*%
%TO.N,-12V*%
X19050000Y-36830000D03*
%TO.P,U1,3,VO*%
%TO.N,-5V*%
X21590000Y-36830000D03*
%TD*%
D10*
%TO.P,J2,1,GND*%
%TO.N,GND*%
X93726000Y-44119800D03*
%TO.P,J2,2,GND*%
X98806000Y-44119800D03*
%TO.P,J2,3,GND*%
X93726000Y-46659800D03*
%TO.P,J2,4,GND*%
X98806000Y-46659800D03*
%TO.P,J2,5,+24V*%
%TO.N,+24V*%
X93726000Y-49199800D03*
%TO.P,J2,6,+24V*%
X98806000Y-49199800D03*
%TO.P,J2,7,+24V*%
X93726000Y-51739800D03*
%TO.P,J2,8,+24V*%
X98806000Y-51739800D03*
%TO.P,J2,9,9*%
%TO.N,BP9*%
X93726000Y-54279800D03*
%TO.P,J2,10,/CLEAR*%
%TO.N,{slash}CLEAR*%
X98806000Y-54279800D03*
%TO.P,J2,11,/RESET*%
%TO.N,{slash}RESET*%
X93726000Y-56819800D03*
%TO.P,J2,12,12*%
%TO.N,BP12*%
X98806000Y-56819800D03*
%TO.P,J2,13,READY*%
%TO.N,READY*%
X93726000Y-59359800D03*
%TO.P,J2,14,/WAIT*%
%TO.N,{slash}WAIT*%
X98806000Y-59359800D03*
%TO.P,J2,15,15*%
%TO.N,BP15*%
X93726000Y-61899800D03*
%TO.P,J2,16,16*%
%TO.N,BP16*%
X98806000Y-61899800D03*
%TO.P,J2,17,AUD*%
%TO.N,AUD*%
X93726000Y-64439800D03*
%TO.P,J2,18,18*%
%TO.N,BP18*%
X98806000Y-64439800D03*
%TO.P,J2,19,19*%
%TO.N,BP19*%
X93726000Y-66979800D03*
%TO.P,J2,20,/DB0*%
%TO.N,{slash}DB0*%
X98806000Y-66979800D03*
%TO.P,J2,21,/DB1*%
%TO.N,{slash}DB1*%
X93726000Y-69519800D03*
%TO.P,J2,22,/DB2*%
%TO.N,{slash}DB2*%
X98806000Y-69519800D03*
%TO.P,J2,23,/DB3*%
%TO.N,{slash}DB3*%
X93726000Y-72059800D03*
%TO.P,J2,24,/DB4*%
%TO.N,{slash}DB4*%
X98806000Y-72059800D03*
%TO.P,J2,25,/DB5*%
%TO.N,{slash}DB5*%
X93726000Y-74599800D03*
%TO.P,J2,26,/DB6*%
%TO.N,{slash}DB6*%
X98806000Y-74599800D03*
%TO.P,J2,27,/DB7*%
%TO.N,{slash}DB7*%
X93726000Y-77139800D03*
%TO.P,J2,28,/DB8*%
%TO.N,{slash}DB8*%
X98806000Y-77139800D03*
%TO.P,J2,29,/HLDAK*%
%TO.N,{slash}HLDAK*%
X93726000Y-79679800D03*
%TO.P,J2,30,/MEMRD*%
%TO.N,{slash}MEMRD*%
X98806000Y-79679800D03*
%TO.P,J2,31,/IORD*%
%TO.N,{slash}IORD*%
X93726000Y-82219800D03*
%TO.P,J2,32,/MEMWR*%
%TO.N,{slash}MEMWR*%
X98806000Y-82219800D03*
%TO.P,J2,33,/IOWR*%
%TO.N,{slash}IOWR*%
X93726000Y-84759800D03*
%TO.P,J2,34,GND*%
%TO.N,GND*%
X98806000Y-84759800D03*
%TO.P,J2,35,/BIN*%
%TO.N,{slash}BIN*%
X93726000Y-87299800D03*
%TO.P,J2,36,GND*%
%TO.N,GND*%
X98806000Y-87299800D03*
%TO.P,J2,37,/BOUT*%
%TO.N,{slash}BOUT*%
X93726000Y-89839800D03*
%TO.P,J2,38,GND*%
%TO.N,GND*%
X98806000Y-89839800D03*
%TO.P,J2,39,39*%
%TO.N,BP39*%
X93726000Y-92379800D03*
%TO.P,J2,40,/A0*%
%TO.N,{slash}A0*%
X98806000Y-92379800D03*
%TO.P,J2,41,/A1*%
%TO.N,{slash}A1*%
X93726000Y-94919800D03*
%TO.P,J2,42,/A2*%
%TO.N,{slash}A2*%
X98806000Y-94919800D03*
%TO.P,J2,43,/A3*%
%TO.N,{slash}A3*%
X93726000Y-97459800D03*
%TO.P,J2,44,/A4*%
%TO.N,{slash}A4*%
X98806000Y-97459800D03*
%TO.P,J2,45,/A5*%
%TO.N,{slash}A5*%
X93726000Y-99999800D03*
%TO.P,J2,46,/A6*%
%TO.N,{slash}A6*%
X98806000Y-99999800D03*
%TO.P,J2,47,/A7*%
%TO.N,{slash}A7*%
X93726000Y-102539800D03*
%TO.P,J2,48,/A8*%
%TO.N,{slash}A8*%
X98806000Y-102539800D03*
%TO.P,J2,49,/A9*%
%TO.N,{slash}A9*%
X93726000Y-105079800D03*
%TO.P,J2,50,/A10*%
%TO.N,{slash}A10*%
X98806000Y-105079800D03*
%TO.P,J2,51,/A11*%
%TO.N,{slash}A11*%
X93726000Y-107619800D03*
%TO.P,J2,52,/A12*%
%TO.N,{slash}A12*%
X98806000Y-107619800D03*
%TO.P,J2,53,/A13*%
%TO.N,{slash}A13*%
X93726000Y-110159800D03*
%TO.P,J2,54,/A14*%
%TO.N,{slash}A14*%
X98806000Y-110159800D03*
%TO.P,J2,55,/A15*%
%TO.N,{slash}A15*%
X93726000Y-112699800D03*
%TO.P,J2,56,/TC*%
%TO.N,{slash}TC*%
X98806000Y-112699800D03*
%TO.P,J2,57,/REF*%
%TO.N,{slash}REF*%
X93726000Y-115239800D03*
%TO.P,J2,58,/PARITYERROR*%
%TO.N,{slash}PE*%
X98806000Y-115239800D03*
%TO.P,J2,59,59*%
%TO.N,{slash}BP59*%
X93726000Y-117779800D03*
%TO.P,J2,60,/IO60*%
%TO.N,{slash}IO60*%
X98806000Y-117779800D03*
%TO.P,J2,61,/IO20*%
%TO.N,{slash}IO20*%
X93726000Y-120319800D03*
%TO.P,J2,62,62*%
%TO.N,{slash}BP62*%
X98806000Y-120319800D03*
%TO.P,J2,63,/IO30*%
%TO.N,{slash}IO30*%
X93726000Y-122859800D03*
%TO.P,J2,64,64*%
%TO.N,{slash}BP64*%
X98806000Y-122859800D03*
%TO.P,J2,65,/IO40*%
%TO.N,{slash}IO40*%
X93726000Y-125399800D03*
%TO.P,J2,66,66*%
%TO.N,{slash}BP66*%
X98806000Y-125399800D03*
%TO.P,J2,67,/EOF*%
%TO.N,{slash}EOF*%
X93726000Y-127939800D03*
%TO.P,J2,68,68*%
%TO.N,{slash}BP68*%
X98806000Y-127939800D03*
%TO.P,J2,69,/INTERRUPT4*%
%TO.N,{slash}INT4*%
X93726000Y-130479800D03*
%TO.P,J2,70,70*%
%TO.N,{slash}BP70*%
X98806000Y-130479800D03*
%TO.P,J2,71,/INT3*%
%TO.N,{slash}INT3*%
X93726000Y-133019800D03*
%TO.P,J2,72,/INTERRUPT1*%
%TO.N,{slash}INT1*%
X98806000Y-133019800D03*
%TO.P,J2,73,/DREQ0*%
%TO.N,{slash}DREQ0*%
X93726000Y-135559800D03*
%TO.P,J2,74,/DACK0*%
%TO.N,{slash}DACK0*%
X98806000Y-135559800D03*
%TO.P,J2,75,/DREQ1*%
%TO.N,{slash}DREQ1*%
X93726000Y-138099800D03*
%TO.P,J2,76,/DACK1*%
%TO.N,{slash}DACK1*%
X98806000Y-138099800D03*
%TO.P,J2,77,/DREQ2*%
%TO.N,{slash}DREQ2*%
X93726000Y-140639800D03*
%TO.P,J2,78,/DACK2*%
%TO.N,{slash}DACK2*%
X98806000Y-140639800D03*
%TO.P,J2,79,/DREQ3*%
%TO.N,{slash}DREQ3*%
X93726000Y-143179800D03*
%TO.P,J2,80,/DACK3*%
%TO.N,{slash}DACK3*%
X98806000Y-143179800D03*
%TO.P,J2,81,PHI2*%
%TO.N,PHI2*%
X93726000Y-145719800D03*
%TO.P,J2,82,GND*%
%TO.N,GND*%
X98806000Y-145719800D03*
%TO.P,J2,83,83*%
%TO.N,{slash}BP83*%
X93726000Y-148259800D03*
%TO.P,J2,84,GND*%
%TO.N,GND*%
X98806000Y-148259800D03*
%TO.P,J2,85,85*%
%TO.N,{slash}BP85*%
X93726000Y-150799800D03*
%TO.P,J2,86,GND*%
%TO.N,GND*%
X98806000Y-150799800D03*
%TO.P,J2,87,-5V*%
%TO.N,-5V*%
X93726000Y-153339800D03*
%TO.P,J2,88,-5V*%
X98806000Y-153339800D03*
%TO.P,J2,89,-12V*%
%TO.N,-12V*%
X93726000Y-155879800D03*
%TO.P,J2,90,-12V*%
X98806000Y-155879800D03*
%TO.P,J2,91,+12V*%
%TO.N,+12V*%
X93726000Y-158419800D03*
%TO.P,J2,92,+12V*%
X98806000Y-158419800D03*
%TO.P,J2,93,+5V*%
%TO.N,+5V*%
X93726000Y-160959800D03*
%TO.P,J2,94,+5V*%
X98806000Y-160959800D03*
%TO.P,J2,95,+5V*%
X93726000Y-163499800D03*
%TO.P,J2,96,+5V*%
X98806000Y-163499800D03*
%TO.P,J2,97,GND*%
%TO.N,GND*%
X93726000Y-166039800D03*
%TO.P,J2,98,GND*%
X98806000Y-166039800D03*
%TO.P,J2,99,GND*%
X93726000Y-168579800D03*
%TO.P,J2,100,GND*%
X98806000Y-168579800D03*
%TD*%
%TO.P,J1,1,GND*%
%TO.N,GND*%
X59182000Y-44119800D03*
%TO.P,J1,2,GND*%
X64262000Y-44119800D03*
%TO.P,J1,3,GND*%
X59182000Y-46659800D03*
%TO.P,J1,4,GND*%
X64262000Y-46659800D03*
%TO.P,J1,5,+24V*%
%TO.N,+24V*%
X59182000Y-49199800D03*
%TO.P,J1,6,+24V*%
X64262000Y-49199800D03*
%TO.P,J1,7,+24V*%
X59182000Y-51739800D03*
%TO.P,J1,8,+24V*%
X64262000Y-51739800D03*
%TO.P,J1,9,9*%
%TO.N,BP9*%
X59182000Y-54279800D03*
%TO.P,J1,10,/CLEAR*%
%TO.N,{slash}CLEAR*%
X64262000Y-54279800D03*
%TO.P,J1,11,/RESET*%
%TO.N,{slash}RESET*%
X59182000Y-56819800D03*
%TO.P,J1,12,12*%
%TO.N,BP12*%
X64262000Y-56819800D03*
%TO.P,J1,13,READY*%
%TO.N,READY*%
X59182000Y-59359800D03*
%TO.P,J1,14,/WAIT*%
%TO.N,{slash}WAIT*%
X64262000Y-59359800D03*
%TO.P,J1,15,15*%
%TO.N,BP15*%
X59182000Y-61899800D03*
%TO.P,J1,16,16*%
%TO.N,BP16*%
X64262000Y-61899800D03*
%TO.P,J1,17,AUD*%
%TO.N,AUD*%
X59182000Y-64439800D03*
%TO.P,J1,18,18*%
%TO.N,BP18*%
X64262000Y-64439800D03*
%TO.P,J1,19,19*%
%TO.N,BP19*%
X59182000Y-66979800D03*
%TO.P,J1,20,/DB0*%
%TO.N,{slash}DB0*%
X64262000Y-66979800D03*
%TO.P,J1,21,/DB1*%
%TO.N,{slash}DB1*%
X59182000Y-69519800D03*
%TO.P,J1,22,/DB2*%
%TO.N,{slash}DB2*%
X64262000Y-69519800D03*
%TO.P,J1,23,/DB3*%
%TO.N,{slash}DB3*%
X59182000Y-72059800D03*
%TO.P,J1,24,/DB4*%
%TO.N,{slash}DB4*%
X64262000Y-72059800D03*
%TO.P,J1,25,/DB5*%
%TO.N,{slash}DB5*%
X59182000Y-74599800D03*
%TO.P,J1,26,/DB6*%
%TO.N,{slash}DB6*%
X64262000Y-74599800D03*
%TO.P,J1,27,/DB7*%
%TO.N,{slash}DB7*%
X59182000Y-77139800D03*
%TO.P,J1,28,/DB8*%
%TO.N,{slash}DB8*%
X64262000Y-77139800D03*
%TO.P,J1,29,/HLDAK*%
%TO.N,{slash}HLDAK*%
X59182000Y-79679800D03*
%TO.P,J1,30,/MEMRD*%
%TO.N,{slash}MEMRD*%
X64262000Y-79679800D03*
%TO.P,J1,31,/IORD*%
%TO.N,{slash}IORD*%
X59182000Y-82219800D03*
%TO.P,J1,32,/MEMWR*%
%TO.N,{slash}MEMWR*%
X64262000Y-82219800D03*
%TO.P,J1,33,/IOWR*%
%TO.N,{slash}IOWR*%
X59182000Y-84759800D03*
%TO.P,J1,34,GND*%
%TO.N,GND*%
X64262000Y-84759800D03*
%TO.P,J1,35,/BIN*%
%TO.N,{slash}BIN*%
X59182000Y-87299800D03*
%TO.P,J1,36,GND*%
%TO.N,GND*%
X64262000Y-87299800D03*
%TO.P,J1,37,/BOUT*%
%TO.N,{slash}BOUT*%
X59182000Y-89839800D03*
%TO.P,J1,38,GND*%
%TO.N,GND*%
X64262000Y-89839800D03*
%TO.P,J1,39,39*%
%TO.N,BP39*%
X59182000Y-92379800D03*
%TO.P,J1,40,/A0*%
%TO.N,{slash}A0*%
X64262000Y-92379800D03*
%TO.P,J1,41,/A1*%
%TO.N,{slash}A1*%
X59182000Y-94919800D03*
%TO.P,J1,42,/A2*%
%TO.N,{slash}A2*%
X64262000Y-94919800D03*
%TO.P,J1,43,/A3*%
%TO.N,{slash}A3*%
X59182000Y-97459800D03*
%TO.P,J1,44,/A4*%
%TO.N,{slash}A4*%
X64262000Y-97459800D03*
%TO.P,J1,45,/A5*%
%TO.N,{slash}A5*%
X59182000Y-99999800D03*
%TO.P,J1,46,/A6*%
%TO.N,{slash}A6*%
X64262000Y-99999800D03*
%TO.P,J1,47,/A7*%
%TO.N,{slash}A7*%
X59182000Y-102539800D03*
%TO.P,J1,48,/A8*%
%TO.N,{slash}A8*%
X64262000Y-102539800D03*
%TO.P,J1,49,/A9*%
%TO.N,{slash}A9*%
X59182000Y-105079800D03*
%TO.P,J1,50,/A10*%
%TO.N,{slash}A10*%
X64262000Y-105079800D03*
%TO.P,J1,51,/A11*%
%TO.N,{slash}A11*%
X59182000Y-107619800D03*
%TO.P,J1,52,/A12*%
%TO.N,{slash}A12*%
X64262000Y-107619800D03*
%TO.P,J1,53,/A13*%
%TO.N,{slash}A13*%
X59182000Y-110159800D03*
%TO.P,J1,54,/A14*%
%TO.N,{slash}A14*%
X64262000Y-110159800D03*
%TO.P,J1,55,/A15*%
%TO.N,{slash}A15*%
X59182000Y-112699800D03*
%TO.P,J1,56,/TC*%
%TO.N,{slash}TC*%
X64262000Y-112699800D03*
%TO.P,J1,57,/REF*%
%TO.N,{slash}REF*%
X59182000Y-115239800D03*
%TO.P,J1,58,/PARITYERROR*%
%TO.N,{slash}PE*%
X64262000Y-115239800D03*
%TO.P,J1,59,59*%
%TO.N,{slash}BP59*%
X59182000Y-117779800D03*
%TO.P,J1,60,/IO60*%
%TO.N,{slash}IO60*%
X64262000Y-117779800D03*
%TO.P,J1,61,/IO20*%
%TO.N,{slash}IO20*%
X59182000Y-120319800D03*
%TO.P,J1,62,62*%
%TO.N,{slash}BP62*%
X64262000Y-120319800D03*
%TO.P,J1,63,/IO30*%
%TO.N,{slash}IO30*%
X59182000Y-122859800D03*
%TO.P,J1,64,64*%
%TO.N,{slash}BP64*%
X64262000Y-122859800D03*
%TO.P,J1,65,/IO40*%
%TO.N,{slash}IO40*%
X59182000Y-125399800D03*
%TO.P,J1,66,66*%
%TO.N,{slash}BP66*%
X64262000Y-125399800D03*
%TO.P,J1,67,/EOF*%
%TO.N,{slash}EOF*%
X59182000Y-127939800D03*
%TO.P,J1,68,68*%
%TO.N,{slash}BP68*%
X64262000Y-127939800D03*
%TO.P,J1,69,/INTERRUPT4*%
%TO.N,{slash}INT4*%
X59182000Y-130479800D03*
%TO.P,J1,70,70*%
%TO.N,{slash}BP70*%
X64262000Y-130479800D03*
%TO.P,J1,71,/INT3*%
%TO.N,{slash}INT3*%
X59182000Y-133019800D03*
%TO.P,J1,72,/INTERRUPT1*%
%TO.N,{slash}INT1*%
X64262000Y-133019800D03*
%TO.P,J1,73,/DREQ0*%
%TO.N,{slash}DREQ0*%
X59182000Y-135559800D03*
%TO.P,J1,74,/DACK0*%
%TO.N,{slash}DACK0*%
X64262000Y-135559800D03*
%TO.P,J1,75,/DREQ1*%
%TO.N,{slash}DREQ1*%
X59182000Y-138099800D03*
%TO.P,J1,76,/DACK1*%
%TO.N,{slash}DACK1*%
X64262000Y-138099800D03*
%TO.P,J1,77,/DREQ2*%
%TO.N,{slash}DREQ2*%
X59182000Y-140639800D03*
%TO.P,J1,78,/DACK2*%
%TO.N,{slash}DACK2*%
X64262000Y-140639800D03*
%TO.P,J1,79,/DREQ3*%
%TO.N,{slash}DREQ3*%
X59182000Y-143179800D03*
%TO.P,J1,80,/DACK3*%
%TO.N,{slash}DACK3*%
X64262000Y-143179800D03*
%TO.P,J1,81,PHI2*%
%TO.N,PHI2*%
X59182000Y-145719800D03*
%TO.P,J1,82,GND*%
%TO.N,GND*%
X64262000Y-145719800D03*
%TO.P,J1,83,83*%
%TO.N,{slash}BP83*%
X59182000Y-148259800D03*
%TO.P,J1,84,GND*%
%TO.N,GND*%
X64262000Y-148259800D03*
%TO.P,J1,85,85*%
%TO.N,{slash}BP85*%
X59182000Y-150799800D03*
%TO.P,J1,86,GND*%
%TO.N,GND*%
X64262000Y-150799800D03*
%TO.P,J1,87,-5V*%
%TO.N,-5V*%
X59182000Y-153339800D03*
%TO.P,J1,88,-5V*%
X64262000Y-153339800D03*
%TO.P,J1,89,-12V*%
%TO.N,-12V*%
X59182000Y-155879800D03*
%TO.P,J1,90,-12V*%
X64262000Y-155879800D03*
%TO.P,J1,91,+12V*%
%TO.N,+12V*%
X59182000Y-158419800D03*
%TO.P,J1,92,+12V*%
X64262000Y-158419800D03*
%TO.P,J1,93,+5V*%
%TO.N,+5V*%
X59182000Y-160959800D03*
%TO.P,J1,94,+5V*%
X64262000Y-160959800D03*
%TO.P,J1,95,+5V*%
X59182000Y-163499800D03*
%TO.P,J1,96,+5V*%
X64262000Y-163499800D03*
%TO.P,J1,97,GND*%
%TO.N,GND*%
X59182000Y-166039800D03*
%TO.P,J1,98,GND*%
X64262000Y-166039800D03*
%TO.P,J1,99,GND*%
X59182000Y-168579800D03*
%TO.P,J1,100,GND*%
X64262000Y-168579800D03*
%TD*%
%TO.P,J3,1,GND*%
%TO.N,GND*%
X76454000Y-44119800D03*
%TO.P,J3,2,GND*%
X81534000Y-44119800D03*
%TO.P,J3,3,GND*%
X76454000Y-46659800D03*
%TO.P,J3,4,GND*%
X81534000Y-46659800D03*
%TO.P,J3,5,+24V*%
%TO.N,+24V*%
X76454000Y-49199800D03*
%TO.P,J3,6,+24V*%
X81534000Y-49199800D03*
%TO.P,J3,7,+24V*%
X76454000Y-51739800D03*
%TO.P,J3,8,+24V*%
X81534000Y-51739800D03*
%TO.P,J3,9,9*%
%TO.N,BP9*%
X76454000Y-54279800D03*
%TO.P,J3,10,/CLEAR*%
%TO.N,{slash}CLEAR*%
X81534000Y-54279800D03*
%TO.P,J3,11,/RESET*%
%TO.N,{slash}RESET*%
X76454000Y-56819800D03*
%TO.P,J3,12,12*%
%TO.N,BP12*%
X81534000Y-56819800D03*
%TO.P,J3,13,READY*%
%TO.N,READY*%
X76454000Y-59359800D03*
%TO.P,J3,14,/WAIT*%
%TO.N,{slash}WAIT*%
X81534000Y-59359800D03*
%TO.P,J3,15,15*%
%TO.N,BP15*%
X76454000Y-61899800D03*
%TO.P,J3,16,16*%
%TO.N,BP16*%
X81534000Y-61899800D03*
%TO.P,J3,17,AUD*%
%TO.N,AUD*%
X76454000Y-64439800D03*
%TO.P,J3,18,18*%
%TO.N,BP18*%
X81534000Y-64439800D03*
%TO.P,J3,19,19*%
%TO.N,BP19*%
X76454000Y-66979800D03*
%TO.P,J3,20,/DB0*%
%TO.N,{slash}DB0*%
X81534000Y-66979800D03*
%TO.P,J3,21,/DB1*%
%TO.N,{slash}DB1*%
X76454000Y-69519800D03*
%TO.P,J3,22,/DB2*%
%TO.N,{slash}DB2*%
X81534000Y-69519800D03*
%TO.P,J3,23,/DB3*%
%TO.N,{slash}DB3*%
X76454000Y-72059800D03*
%TO.P,J3,24,/DB4*%
%TO.N,{slash}DB4*%
X81534000Y-72059800D03*
%TO.P,J3,25,/DB5*%
%TO.N,{slash}DB5*%
X76454000Y-74599800D03*
%TO.P,J3,26,/DB6*%
%TO.N,{slash}DB6*%
X81534000Y-74599800D03*
%TO.P,J3,27,/DB7*%
%TO.N,{slash}DB7*%
X76454000Y-77139800D03*
%TO.P,J3,28,/DB8*%
%TO.N,{slash}DB8*%
X81534000Y-77139800D03*
%TO.P,J3,29,/HLDAK*%
%TO.N,{slash}HLDAK*%
X76454000Y-79679800D03*
%TO.P,J3,30,/MEMRD*%
%TO.N,{slash}MEMRD*%
X81534000Y-79679800D03*
%TO.P,J3,31,/IORD*%
%TO.N,{slash}IORD*%
X76454000Y-82219800D03*
%TO.P,J3,32,/MEMWR*%
%TO.N,{slash}MEMWR*%
X81534000Y-82219800D03*
%TO.P,J3,33,/IOWR*%
%TO.N,{slash}IOWR*%
X76454000Y-84759800D03*
%TO.P,J3,34,GND*%
%TO.N,GND*%
X81534000Y-84759800D03*
%TO.P,J3,35,/BIN*%
%TO.N,{slash}BIN*%
X76454000Y-87299800D03*
%TO.P,J3,36,GND*%
%TO.N,GND*%
X81534000Y-87299800D03*
%TO.P,J3,37,/BOUT*%
%TO.N,{slash}BOUT*%
X76454000Y-89839800D03*
%TO.P,J3,38,GND*%
%TO.N,GND*%
X81534000Y-89839800D03*
%TO.P,J3,39,39*%
%TO.N,BP39*%
X76454000Y-92379800D03*
%TO.P,J3,40,/A0*%
%TO.N,{slash}A0*%
X81534000Y-92379800D03*
%TO.P,J3,41,/A1*%
%TO.N,{slash}A1*%
X76454000Y-94919800D03*
%TO.P,J3,42,/A2*%
%TO.N,{slash}A2*%
X81534000Y-94919800D03*
%TO.P,J3,43,/A3*%
%TO.N,{slash}A3*%
X76454000Y-97459800D03*
%TO.P,J3,44,/A4*%
%TO.N,{slash}A4*%
X81534000Y-97459800D03*
%TO.P,J3,45,/A5*%
%TO.N,{slash}A5*%
X76454000Y-99999800D03*
%TO.P,J3,46,/A6*%
%TO.N,{slash}A6*%
X81534000Y-99999800D03*
%TO.P,J3,47,/A7*%
%TO.N,{slash}A7*%
X76454000Y-102539800D03*
%TO.P,J3,48,/A8*%
%TO.N,{slash}A8*%
X81534000Y-102539800D03*
%TO.P,J3,49,/A9*%
%TO.N,{slash}A9*%
X76454000Y-105079800D03*
%TO.P,J3,50,/A10*%
%TO.N,{slash}A10*%
X81534000Y-105079800D03*
%TO.P,J3,51,/A11*%
%TO.N,{slash}A11*%
X76454000Y-107619800D03*
%TO.P,J3,52,/A12*%
%TO.N,{slash}A12*%
X81534000Y-107619800D03*
%TO.P,J3,53,/A13*%
%TO.N,{slash}A13*%
X76454000Y-110159800D03*
%TO.P,J3,54,/A14*%
%TO.N,{slash}A14*%
X81534000Y-110159800D03*
%TO.P,J3,55,/A15*%
%TO.N,{slash}A15*%
X76454000Y-112699800D03*
%TO.P,J3,56,/TC*%
%TO.N,{slash}TC*%
X81534000Y-112699800D03*
%TO.P,J3,57,/REF*%
%TO.N,{slash}REF*%
X76454000Y-115239800D03*
%TO.P,J3,58,/PARITYERROR*%
%TO.N,{slash}PE*%
X81534000Y-115239800D03*
%TO.P,J3,59,59*%
%TO.N,{slash}BP59*%
X76454000Y-117779800D03*
%TO.P,J3,60,/IO60*%
%TO.N,{slash}IO60*%
X81534000Y-117779800D03*
%TO.P,J3,61,/IO20*%
%TO.N,{slash}IO20*%
X76454000Y-120319800D03*
%TO.P,J3,62,62*%
%TO.N,{slash}BP62*%
X81534000Y-120319800D03*
%TO.P,J3,63,/IO30*%
%TO.N,{slash}IO30*%
X76454000Y-122859800D03*
%TO.P,J3,64,64*%
%TO.N,{slash}BP64*%
X81534000Y-122859800D03*
%TO.P,J3,65,/IO40*%
%TO.N,{slash}IO40*%
X76454000Y-125399800D03*
%TO.P,J3,66,66*%
%TO.N,{slash}BP66*%
X81534000Y-125399800D03*
%TO.P,J3,67,/EOF*%
%TO.N,{slash}EOF*%
X76454000Y-127939800D03*
%TO.P,J3,68,68*%
%TO.N,{slash}BP68*%
X81534000Y-127939800D03*
%TO.P,J3,69,/INTERRUPT4*%
%TO.N,{slash}INT4*%
X76454000Y-130479800D03*
%TO.P,J3,70,70*%
%TO.N,{slash}BP70*%
X81534000Y-130479800D03*
%TO.P,J3,71,/INT3*%
%TO.N,{slash}INT3*%
X76454000Y-133019800D03*
%TO.P,J3,72,/INTERRUPT1*%
%TO.N,{slash}INT1*%
X81534000Y-133019800D03*
%TO.P,J3,73,/DREQ0*%
%TO.N,{slash}DREQ0*%
X76454000Y-135559800D03*
%TO.P,J3,74,/DACK0*%
%TO.N,{slash}DACK0*%
X81534000Y-135559800D03*
%TO.P,J3,75,/DREQ1*%
%TO.N,{slash}DREQ1*%
X76454000Y-138099800D03*
%TO.P,J3,76,/DACK1*%
%TO.N,{slash}DACK1*%
X81534000Y-138099800D03*
%TO.P,J3,77,/DREQ2*%
%TO.N,{slash}DREQ2*%
X76454000Y-140639800D03*
%TO.P,J3,78,/DACK2*%
%TO.N,{slash}DACK2*%
X81534000Y-140639800D03*
%TO.P,J3,79,/DREQ3*%
%TO.N,{slash}DREQ3*%
X76454000Y-143179800D03*
%TO.P,J3,80,/DACK3*%
%TO.N,{slash}DACK3*%
X81534000Y-143179800D03*
%TO.P,J3,81,PHI2*%
%TO.N,PHI2*%
X76454000Y-145719800D03*
%TO.P,J3,82,GND*%
%TO.N,GND*%
X81534000Y-145719800D03*
%TO.P,J3,83,83*%
%TO.N,{slash}BP83*%
X76454000Y-148259800D03*
%TO.P,J3,84,GND*%
%TO.N,GND*%
X81534000Y-148259800D03*
%TO.P,J3,85,85*%
%TO.N,{slash}BP85*%
X76454000Y-150799800D03*
%TO.P,J3,86,GND*%
%TO.N,GND*%
X81534000Y-150799800D03*
%TO.P,J3,87,-5V*%
%TO.N,-5V*%
X76454000Y-153339800D03*
%TO.P,J3,88,-5V*%
X81534000Y-153339800D03*
%TO.P,J3,89,-12V*%
%TO.N,-12V*%
X76454000Y-155879800D03*
%TO.P,J3,90,-12V*%
X81534000Y-155879800D03*
%TO.P,J3,91,+12V*%
%TO.N,+12V*%
X76454000Y-158419800D03*
%TO.P,J3,92,+12V*%
X81534000Y-158419800D03*
%TO.P,J3,93,+5V*%
%TO.N,+5V*%
X76454000Y-160959800D03*
%TO.P,J3,94,+5V*%
X81534000Y-160959800D03*
%TO.P,J3,95,+5V*%
X76454000Y-163499800D03*
%TO.P,J3,96,+5V*%
X81534000Y-163499800D03*
%TO.P,J3,97,GND*%
%TO.N,GND*%
X76454000Y-166039800D03*
%TO.P,J3,98,GND*%
X81534000Y-166039800D03*
%TO.P,J3,99,GND*%
X76454000Y-168579800D03*
%TO.P,J3,100,GND*%
X81534000Y-168579800D03*
%TD*%
D16*
%TO.N,*%
X139000000Y-197000000D03*
X4000000Y-197000000D03*
X4000000Y-10000000D03*
X139000000Y-10000000D03*
D17*
%TO.N,-5V*%
X2590800Y-68834000D03*
X2768600Y-78867000D03*
X21590000Y-78765400D03*
%TO.N,-12V*%
X1193800Y-62941200D03*
X1803400Y-80213200D03*
X19050000Y-80238600D03*
%TO.N,+5V*%
X14986000Y-59055000D03*
%TO.N,+12V*%
X23774400Y-55092600D03*
X7569200Y-151434800D03*
%TO.N,+24V*%
X24409400Y-51409600D03*
D18*
%TO.N,*%
X130810000Y-197104000D03*
X96266000Y-197104000D03*
X61722000Y-197104000D03*
X130810000Y-17703800D03*
X96266000Y-17703800D03*
X61747400Y-17703800D03*
%TD*%
D19*
%TO.N,-5V*%
X8864600Y-156667200D02*
X12623800Y-156667200D01*
D20*
X12623800Y-156667200D02*
X32156400Y-156667200D01*
X32156400Y-156667200D02*
X35483800Y-153339800D01*
X35483800Y-153339800D02*
X59182000Y-153339800D01*
D21*
X98806000Y-153339800D02*
X110998000Y-153339800D01*
X93726000Y-153339800D02*
X98806000Y-153339800D01*
D20*
X21590000Y-36830000D02*
X21590000Y-78765400D01*
D21*
X2590800Y-68834000D02*
X2590800Y-78689200D01*
X2590800Y-78689200D02*
X2768600Y-78867000D01*
D20*
%TO.N,-12V*%
X19050000Y-80238600D02*
X19050000Y-81991200D01*
D21*
X1193800Y-62941200D02*
X1193800Y-79603600D01*
X1193800Y-79603600D02*
X1803400Y-80213200D01*
%TO.N,+5V*%
X5783600Y-190365400D02*
X9982200Y-190365400D01*
X14986000Y-59055000D02*
X14986000Y-79806800D01*
X14986000Y-79806800D02*
X660400Y-94132400D01*
X660400Y-94132400D02*
X660400Y-180467000D01*
X660400Y-180467000D02*
X5181600Y-184988200D01*
X5181600Y-184988200D02*
X5181600Y-189890400D01*
X5181600Y-189890400D02*
X5308600Y-189890400D01*
X5308600Y-189890400D02*
X5783600Y-190365400D01*
%TO.N,+12V*%
X23774400Y-55092600D02*
X23774400Y-124637800D01*
X20091400Y-128320800D02*
X13411200Y-128320800D01*
X23774400Y-124637800D02*
X20091400Y-128320800D01*
X13411200Y-128320800D02*
X9347200Y-128320800D01*
X9347200Y-128320800D02*
X7569200Y-130098800D01*
X7569200Y-130098800D02*
X7569200Y-151434800D01*
%TO.N,+24V*%
X24409400Y-51409600D02*
X24739600Y-51739800D01*
X24739600Y-51739800D02*
X59182000Y-51739800D01*
%TO.N,{slash}CLEAR*%
X64262000Y-54279800D02*
X62179200Y-54279800D01*
X62179200Y-54279800D02*
X60883800Y-55575200D01*
X60883800Y-55575200D02*
X50088800Y-55575200D01*
X50088800Y-55575200D02*
X29210000Y-76454000D01*
X29210000Y-76454000D02*
X29210000Y-129184400D01*
X29210000Y-129184400D02*
X20701000Y-137693400D01*
X20701000Y-137693400D02*
X9982200Y-137693400D01*
D19*
%TO.N,AUD*%
X9982200Y-142693400D02*
X46130200Y-142693400D01*
X46130200Y-142693400D02*
X53213000Y-135610600D01*
X53213000Y-135610600D02*
X53213000Y-66776600D01*
X53213000Y-66776600D02*
X55549800Y-64439800D01*
X55549800Y-64439800D02*
X59182000Y-64439800D01*
%TO.N,{slash}BP83*%
X59182000Y-148259800D02*
X10548600Y-148259800D01*
X10548600Y-148259800D02*
X9982200Y-147693400D01*
D21*
%TO.N,GND*%
X124256800Y-148259800D02*
X125457800Y-149460800D01*
X125457800Y-149460800D02*
X129609000Y-149460800D01*
X129609000Y-149460800D02*
X130810000Y-148259800D01*
X78188400Y-152138800D02*
X79527400Y-150799800D01*
X79527400Y-150799800D02*
X81534000Y-150799800D01*
X116078000Y-150799800D02*
X123926600Y-150799800D01*
X123926600Y-150799800D02*
X125265600Y-152138800D01*
X129895600Y-152146000D02*
X131241800Y-150799800D01*
X125265600Y-152138800D02*
X129888400Y-152138800D01*
X129888400Y-152138800D02*
X129895600Y-152146000D01*
X131241800Y-150799800D02*
X133350000Y-150799800D01*
X98806000Y-150799800D02*
X107213400Y-150799800D01*
X107213400Y-150799800D02*
X108414400Y-152000800D01*
X114350800Y-150799800D02*
X116078000Y-150799800D01*
X108414400Y-152000800D02*
X113149800Y-152000800D01*
X113149800Y-152000800D02*
X114350800Y-150799800D01*
X81534000Y-150799800D02*
X89814400Y-150799800D01*
X89814400Y-150799800D02*
X91015400Y-152000800D01*
X91015400Y-152000800D02*
X96182600Y-152000800D01*
X96182600Y-152000800D02*
X97383600Y-150799800D01*
X97383600Y-150799800D02*
X98806000Y-150799800D01*
%TO.N,{slash}BP85*%
X110998000Y-150799800D02*
X113106200Y-150799800D01*
X113106200Y-150799800D02*
X114307200Y-149598800D01*
X114307200Y-149598800D02*
X124046400Y-149598800D01*
X124046400Y-149598800D02*
X125247400Y-150799800D01*
X125247400Y-150799800D02*
X128270000Y-150799800D01*
X93726000Y-150799800D02*
X95783400Y-150799800D01*
X97078800Y-149504400D02*
X107492800Y-149504400D01*
X107492800Y-149504400D02*
X108788200Y-150799800D01*
X95783400Y-150799800D02*
X97078800Y-149504400D01*
X108788200Y-150799800D02*
X110998000Y-150799800D01*
X76454000Y-150799800D02*
X78435200Y-150799800D01*
X78435200Y-150799800D02*
X79774200Y-149460800D01*
X91516200Y-150799800D02*
X93726000Y-150799800D01*
X79774200Y-149460800D02*
X90177200Y-149460800D01*
X90177200Y-149460800D02*
X91516200Y-150799800D01*
%TO.N,GND*%
X64262000Y-148259800D02*
X72872600Y-148259800D01*
X74073600Y-149460800D02*
X78350206Y-149460800D01*
X72872600Y-148259800D02*
X74073600Y-149460800D01*
X78350206Y-149460800D02*
X79551206Y-148259800D01*
X79551206Y-148259800D02*
X81534000Y-148259800D01*
X98806000Y-148259800D02*
X97129600Y-148259800D01*
X90373200Y-148259800D02*
X81534000Y-148259800D01*
X97129600Y-148259800D02*
X95910400Y-149479000D01*
X95910400Y-149479000D02*
X91592400Y-149479000D01*
X91592400Y-149479000D02*
X90373200Y-148259800D01*
X116078000Y-148259800D02*
X114503200Y-148259800D01*
X114503200Y-148259800D02*
X113164200Y-149598800D01*
X113164200Y-149598800D02*
X108958036Y-149598800D01*
X108958036Y-149598800D02*
X107619036Y-148259800D01*
X107619036Y-148259800D02*
X98806000Y-148259800D01*
X116078000Y-148259800D02*
X124256800Y-148259800D01*
X130810000Y-148259800D02*
X133350000Y-148259800D01*
%TO.N,{slash}BP83*%
X110998000Y-148259800D02*
X113131600Y-148259800D01*
X124739400Y-147015200D02*
X125984000Y-148259800D01*
X113131600Y-148259800D02*
X114376200Y-147015200D01*
X114376200Y-147015200D02*
X124739400Y-147015200D01*
X125984000Y-148259800D02*
X128270000Y-148259800D01*
X93726000Y-148259800D02*
X95656400Y-148259800D01*
X95656400Y-148259800D02*
X96857400Y-147058800D01*
X108610400Y-148259800D02*
X110998000Y-148259800D01*
X96857400Y-147058800D02*
X107409400Y-147058800D01*
X107409400Y-147058800D02*
X108610400Y-148259800D01*
X76454000Y-148259800D02*
X78559842Y-148259800D01*
X78559842Y-148259800D02*
X79760842Y-147058800D01*
X79760842Y-147058800D02*
X90213600Y-147058800D01*
X90213600Y-147058800D02*
X91414600Y-148259800D01*
X91414600Y-148259800D02*
X93726000Y-148259800D01*
%TO.N,{slash}A3*%
X112480300Y-97503400D02*
X113784800Y-96198900D01*
%TO.N,{slash}MEMRD*%
X131013200Y-79679800D02*
X129743200Y-80949800D01*
%TO.N,{slash}IORD*%
X113861000Y-80949800D02*
X125069600Y-80949800D01*
%TO.N,{slash}A1*%
X126212600Y-94928900D02*
X128168400Y-94928900D01*
%TO.N,GND*%
X133315500Y-145754300D02*
X131004100Y-145754300D01*
%TO.N,{slash}DB4*%
X133375400Y-72094300D02*
X131064000Y-72094300D01*
%TO.N,{slash}A2*%
X124841000Y-94928900D02*
X115976400Y-94928900D01*
%TO.N,{slash}DB1*%
X112436700Y-69519800D02*
X113706700Y-68249800D01*
%TO.N,BP16*%
X131073100Y-61908900D02*
X129837600Y-63144400D01*
%TO.N,PHI2*%
X125009700Y-144484300D02*
X126279700Y-145754300D01*
%TO.N,GND*%
X124908100Y-145754300D02*
X116043500Y-145754300D01*
%TO.N,{slash}DACK2*%
X126187200Y-141909800D02*
X124917200Y-140639800D01*
%TO.N,BP15*%
X113835600Y-60604400D02*
X125044200Y-60604400D01*
%TO.N,{slash}A11*%
X124984300Y-106384300D02*
X126288800Y-107688800D01*
%TO.N,{slash}HLDAK*%
X126288800Y-79679800D02*
X128244600Y-79679800D01*
%TO.N,{slash}WAIT*%
X129717800Y-60604400D02*
X126161800Y-60604400D01*
%TO.N,{slash}DREQ0*%
X112471200Y-135568900D02*
X113741200Y-134298900D01*
%TO.N,{slash}DB2*%
X129708700Y-70789800D02*
X126152700Y-70789800D01*
%TO.N,{slash}DACK3*%
X126238000Y-144449800D02*
X125002500Y-143214300D01*
%TO.N,{slash}A2*%
X130937000Y-94928900D02*
X129667000Y-96198900D01*
%TO.N,{slash}IORD*%
X111057900Y-82254300D02*
X112556500Y-82254300D01*
%TO.N,READY*%
X124993400Y-58064400D02*
X126263400Y-59334400D01*
%TO.N,{slash}IO40*%
X110912700Y-125383500D02*
X112411300Y-125383500D01*
%TO.N,{slash}A5*%
X110896400Y-99999800D02*
X112395000Y-99999800D01*
%TO.N,{slash}RESET*%
X113835600Y-55533500D02*
X125044200Y-55533500D01*
%TO.N,BP15*%
X126348700Y-61908900D02*
X128304500Y-61908900D01*
%TO.N,{slash}TC*%
X133324600Y-112759700D02*
X131013200Y-112759700D01*
%TO.N,{slash}A3*%
X110981700Y-97503400D02*
X112480300Y-97503400D01*
%TO.N,{slash}A14*%
X133239300Y-110185200D02*
X130927900Y-110185200D01*
%TO.N,{slash}A15*%
X113775700Y-111455200D02*
X124984300Y-111455200D01*
%TO.N,{slash}A2*%
X129667000Y-96198900D02*
X126111000Y-96198900D01*
%TO.N,{slash}A9*%
X110887300Y-105114300D02*
X112385900Y-105114300D01*
%TO.N,{slash}A6*%
X133248400Y-99999800D02*
X130937000Y-99999800D01*
%TO.N,{slash}PE*%
X124866400Y-115198100D02*
X116001800Y-115198100D01*
%TO.N,{slash}IOWR*%
X110963500Y-84794300D02*
X112462100Y-84794300D01*
%TO.N,{slash}DB3*%
X113826500Y-70789800D02*
X125035100Y-70789800D01*
%TO.N,{slash}A0*%
X124993400Y-92439700D02*
X116128800Y-92439700D01*
%TO.N,PHI2*%
X113732100Y-144484300D02*
X125009700Y-144484300D01*
%TO.N,{slash}A5*%
X126212600Y-99999800D02*
X128168400Y-99999800D01*
%TO.N,{slash}DB3*%
X111023400Y-72094300D02*
X112522000Y-72094300D01*
%TO.N,{slash}WAIT*%
X130987800Y-59334400D02*
X129717800Y-60604400D01*
%TO.N,BP16*%
X126212600Y-63144400D02*
X124977100Y-61908900D01*
%TO.N,{slash}DREQ1*%
X125069600Y-136838900D02*
X126374100Y-138143400D01*
%TO.N,{slash}MEMRD*%
X124917200Y-79679800D02*
X116052600Y-79679800D01*
%TO.N,BP18*%
X133290100Y-64448900D02*
X130978700Y-64448900D01*
%TO.N,GND*%
X129734100Y-147024300D02*
X126178100Y-147024300D01*
%TO.N,{slash}IO20*%
X112420400Y-120269000D02*
X113690400Y-118999000D01*
%TO.N,{slash}CLEAR*%
X124891800Y-54263500D02*
X116027200Y-54263500D01*
%TO.N,{slash}DB6*%
X133324600Y-74608900D02*
X131013200Y-74608900D01*
%TO.N,{slash}A1*%
X110896400Y-94928900D02*
X112395000Y-94928900D01*
%TO.N,{slash}DREQ3*%
X111057900Y-143214300D02*
X112556500Y-143214300D01*
%TO.N,{slash}BP62*%
X130962400Y-120269000D02*
X129692400Y-121539000D01*
%TO.N,{slash}PE*%
X126136400Y-116468100D02*
X124866400Y-115198100D01*
%TO.N,GND*%
X107746800Y-87385100D02*
X98882200Y-87385100D01*
%TO.N,{slash}DB7*%
X109127500Y-77199700D02*
X111083300Y-77199700D01*
%TO.N,BP18*%
X130978700Y-64448900D02*
X129708700Y-65718900D01*
%TO.N,{slash}A14*%
X124831900Y-110185200D02*
X115967300Y-110185200D01*
%TO.N,{slash}DB7*%
X112556500Y-77183400D02*
X113861000Y-75878900D01*
%TO.N,-5V*%
X116027200Y-153323500D02*
X110947200Y-153323500D01*
%TO.N,{slash}A5*%
X113665000Y-98729800D02*
X124942600Y-98729800D01*
%TO.N,{slash}BP66*%
X130953300Y-125383500D02*
X129683300Y-126653500D01*
%TO.N,{slash}DACK3*%
X116163300Y-143230600D02*
X113851900Y-143230600D01*
%TO.N,{slash}A9*%
X107686900Y-103860600D02*
X108956900Y-105130600D01*
%TO.N,-5V*%
X133299200Y-153323500D02*
X128219200Y-153323500D01*
%TO.N,{slash}DACK3*%
X129863000Y-144449800D02*
X126238000Y-144449800D01*
%TO.N,{slash}A5*%
X107696000Y-98746100D02*
X108966000Y-100016100D01*
%TO.N,{slash}MEMWR*%
X107755900Y-82270600D02*
X98891300Y-82270600D01*
%TO.N,READY*%
X107746800Y-58080700D02*
X109016800Y-59350700D01*
%TO.N,BP16*%
X107730500Y-61925200D02*
X98865900Y-61925200D01*
%TO.N,{slash}A2*%
X116001800Y-94945200D02*
X113690400Y-94945200D01*
%TO.N,{slash}IO20*%
X93675200Y-120285300D02*
X95173800Y-120285300D01*
%TO.N,BP16*%
X129837600Y-63144400D02*
X126212600Y-63144400D01*
%TO.N,{slash}A5*%
X96418400Y-98746100D02*
X107696000Y-98746100D01*
%TO.N,{slash}BP66*%
X108880700Y-126669800D02*
X107610700Y-125399800D01*
%TO.N,GND*%
X112487500Y-86080600D02*
X108931500Y-86080600D01*
%TO.N,{slash}A0*%
X112607300Y-93691500D02*
X108982300Y-93691500D01*
%TO.N,{slash}A12*%
X112531100Y-108940600D02*
X108906100Y-108940600D01*
%TO.N,{slash}DB7*%
X111057900Y-77183400D02*
X112556500Y-77183400D01*
%TO.N,{slash}MEMRD*%
X107670600Y-79696100D02*
X98806000Y-79696100D01*
%TO.N,{slash}A7*%
X110981700Y-102574300D02*
X112480300Y-102574300D01*
%TO.N,{slash}DB6*%
X112496600Y-75895200D02*
X108940600Y-75895200D01*
%TO.N,{slash}REF*%
X112420400Y-115198100D02*
X113690400Y-113928100D01*
%TO.N,{slash}A3*%
X93735100Y-97519700D02*
X95233700Y-97519700D01*
%TO.N,{slash}INT4*%
X112411300Y-130454400D02*
X113681300Y-129184400D01*
%TO.N,{slash}DREQ3*%
X113861000Y-141909800D02*
X125069600Y-141909800D01*
%TO.N,{slash}BP70*%
X113706700Y-130470700D02*
X112436700Y-131740700D01*
X130953300Y-130454400D02*
X129683300Y-131724400D01*
%TO.N,{slash}A0*%
X113842800Y-92456000D02*
X112607300Y-93691500D01*
%TO.N,{slash}BP64*%
X124951700Y-122843500D02*
X116087100Y-122843500D01*
%TO.N,{slash}DREQ0*%
X109042200Y-135585200D02*
X110998000Y-135585200D01*
%TO.N,BP12*%
X112591000Y-58089800D02*
X108966000Y-58089800D01*
%TO.N,BP9*%
X95199200Y-54279800D02*
X96469200Y-53009800D01*
%TO.N,{slash}A6*%
X116001800Y-100016100D02*
X113690400Y-100016100D01*
%TO.N,{slash}DACK1*%
X131098500Y-138143400D02*
X129863000Y-139378900D01*
%TO.N,{slash}DREQ2*%
X95224600Y-140656100D02*
X96494600Y-139386100D01*
%TO.N,{slash}DB4*%
X116128800Y-72110600D02*
X113817400Y-72110600D01*
%TO.N,{slash}BP66*%
X107610700Y-125399800D02*
X98746100Y-125399800D01*
%TO.N,{slash}WAIT*%
X133299200Y-59334400D02*
X130987800Y-59334400D01*
%TO.N,{slash}DREQ2*%
X93726000Y-140656100D02*
X95224600Y-140656100D01*
%TO.N,{slash}BP62*%
X113715800Y-120285300D02*
X112445800Y-121555300D01*
%TO.N,{slash}A7*%
X112480300Y-102574300D02*
X113784800Y-101269800D01*
%TO.N,{slash}BP62*%
X112445800Y-121555300D02*
X108889800Y-121555300D01*
%TO.N,{slash}DREQ1*%
X95309900Y-138159700D02*
X96614400Y-136855200D01*
%TO.N,{slash}CLEAR*%
X116052600Y-54279800D02*
X113741200Y-54279800D01*
%TO.N,BP9*%
X109016800Y-54279800D02*
X110972600Y-54279800D01*
%TO.N,BP18*%
X129708700Y-65718900D02*
X126152700Y-65718900D01*
%TO.N,GND*%
X126178100Y-86064300D02*
X124908100Y-84794300D01*
%TO.N,BP15*%
X125044200Y-60604400D02*
X126348700Y-61908900D01*
%TO.N,{slash}A7*%
X107746800Y-101286100D02*
X109051300Y-102590600D01*
%TO.N,AUD*%
X107737700Y-63195200D02*
X109007700Y-64465200D01*
%TO.N,{slash}HLDAK*%
X125018800Y-78409800D02*
X126288800Y-79679800D01*
%TO.N,{slash}REF*%
X96443800Y-113944400D02*
X107721400Y-113944400D01*
%TO.N,{slash}IO40*%
X108982300Y-125399800D02*
X110938100Y-125399800D01*
%TO.N,{slash}A11*%
X112471200Y-107688800D02*
X113775700Y-106384300D01*
%TO.N,{slash}BP66*%
X113706700Y-125399800D02*
X112436700Y-126669800D01*
%TO.N,GND*%
X113757500Y-145770600D02*
X112487500Y-147040600D01*
%TO.N,{slash}DACK2*%
X131013200Y-140639800D02*
X129743200Y-141909800D01*
%TO.N,{slash}RESET*%
X107797600Y-55549800D02*
X109102100Y-56854300D01*
%TO.N,{slash}DACK1*%
X112616400Y-139395200D02*
X108991400Y-139395200D01*
%TO.N,{slash}DACK3*%
X107755900Y-143230600D02*
X98891300Y-143230600D01*
%TO.N,{slash}DB3*%
X109093000Y-72110600D02*
X111048800Y-72110600D01*
%TO.N,{slash}IO30*%
X107772200Y-121555300D02*
X109076700Y-122859800D01*
%TO.N,{slash}IO20*%
X124968000Y-118999000D02*
X126238000Y-120269000D01*
%TO.N,{slash}A9*%
X96409300Y-103860600D02*
X107686900Y-103860600D01*
%TO.N,{slash}DACK2*%
X112496600Y-141926100D02*
X108940600Y-141926100D01*
%TO.N,{slash}MEMRD*%
X129743200Y-80949800D02*
X126187200Y-80949800D01*
%TO.N,{slash}INT3*%
X107763100Y-131740700D02*
X109067600Y-133045200D01*
%TO.N,{slash}INT4*%
X107712300Y-129200700D02*
X108982300Y-130470700D01*
%TO.N,{slash}TC*%
X131013200Y-112759700D02*
X129777700Y-113995200D01*
%TO.N,{slash}INT4*%
X93666100Y-130470700D02*
X95164700Y-130470700D01*
%TO.N,{slash}A15*%
X96529100Y-111471500D02*
X107737700Y-111471500D01*
%TO.N,{slash}CLEAR*%
X112471200Y-55549800D02*
X108915200Y-55549800D01*
%TO.N,{slash}WAIT*%
X108915200Y-60620700D02*
X107645200Y-59350700D01*
%TO.N,{slash}INT4*%
X126228900Y-130454400D02*
X128184700Y-130454400D01*
%TO.N,{slash}IO40*%
X96434700Y-124129800D02*
X107712300Y-124129800D01*
%TO.N,{slash}A10*%
X113681300Y-105130600D02*
X112411300Y-106400600D01*
%TO.N,{slash}WAIT*%
X107645200Y-59350700D02*
X98780600Y-59350700D01*
%TO.N,{slash}INT3*%
X126314200Y-133028900D02*
X128270000Y-133028900D01*
%TO.N,{slash}IO30*%
X126323300Y-122843500D02*
X128279100Y-122843500D01*
%TO.N,{slash}WAIT*%
X116052600Y-59350700D02*
X113741200Y-59350700D01*
%TO.N,GND*%
X131004100Y-145754300D02*
X129734100Y-147024300D01*
%TO.N,{slash}DB3*%
X96579900Y-70806100D02*
X107788500Y-70806100D01*
%TO.N,{slash}DB8*%
X107755900Y-77199700D02*
X98891300Y-77199700D01*
%TO.N,{slash}DB1*%
X96460100Y-68266100D02*
X107737700Y-68266100D01*
%TO.N,{slash}DB2*%
X112462100Y-70806100D02*
X108906100Y-70806100D01*
%TO.N,{slash}BIN*%
X112547400Y-87368800D02*
X113851900Y-86064300D01*
%TO.N,{slash}INT1*%
X113792000Y-133045200D02*
X112556500Y-134280700D01*
%TO.N,{slash}IOWR*%
X112462100Y-84794300D02*
X113732100Y-83524300D01*
%TO.N,{slash}DB7*%
X95309900Y-77199700D02*
X96614400Y-75895200D01*
%TO.N,{slash}DREQ1*%
X96614400Y-136855200D02*
X107823000Y-136855200D01*
%TO.N,{slash}BOUT*%
X96485500Y-88611500D02*
X107763100Y-88611500D01*
%TO.N,{slash}A11*%
X93726000Y-107705100D02*
X95224600Y-107705100D01*
%TO.N,{slash}IOWR*%
X95215500Y-84810600D02*
X96485500Y-83540600D01*
%TO.N,PHI2*%
X110963500Y-145754300D02*
X112462100Y-145754300D01*
%TO.N,{slash}A14*%
X113681300Y-110201500D02*
X112411300Y-111471500D01*
%TO.N,{slash}CLEAR*%
X108915200Y-55549800D02*
X107645200Y-54279800D01*
%TO.N,BP12*%
X107730500Y-56854300D02*
X98865900Y-56854300D01*
%TO.N,READY*%
X96469200Y-58080700D02*
X107746800Y-58080700D01*
%TO.N,GND*%
X116068900Y-145770600D02*
X113757500Y-145770600D01*
%TO.N,{slash}IO30*%
X109076700Y-122859800D02*
X111032500Y-122859800D01*
%TO.N,{slash}EOF*%
X125009700Y-126653500D02*
X126314200Y-127958000D01*
%TO.N,{slash}DREQ1*%
X107823000Y-136855200D02*
X109127500Y-138159700D01*
%TO.N,{slash}IO20*%
X96443800Y-119015300D02*
X107721400Y-119015300D01*
%TO.N,{slash}A9*%
X112385900Y-105114300D02*
X113655900Y-103844300D01*
%TO.N,{slash}EOF*%
X110998000Y-127958000D02*
X112496600Y-127958000D01*
%TO.N,{slash}DREQ1*%
X109127500Y-138159700D02*
X111083300Y-138159700D01*
%TO.N,{slash}INT1*%
X126178100Y-134264400D02*
X124942600Y-133028900D01*
%TO.N,AUD*%
X126254300Y-64448900D02*
X128210100Y-64448900D01*
%TO.N,{slash}INT3*%
X93751400Y-133045200D02*
X95250000Y-133045200D01*
%TO.N,{slash}INT1*%
X124942600Y-133028900D02*
X116078000Y-133028900D01*
%TO.N,{slash}DACK3*%
X108991400Y-144466100D02*
X107755900Y-143230600D01*
%TO.N,{slash}HLDAK*%
X93726000Y-79696100D02*
X95224600Y-79696100D01*
%TO.N,{slash}DB1*%
X95190100Y-69536100D02*
X96460100Y-68266100D01*
%TO.N,{slash}BP68*%
X113792000Y-127974300D02*
X112556500Y-129209800D01*
%TO.N,{slash}BIN*%
X93802200Y-87385100D02*
X95300800Y-87385100D01*
%TO.N,{slash}BP59*%
X95259100Y-117788900D02*
X96563600Y-116484400D01*
%TO.N,{slash}MEMWR*%
X131098500Y-82254300D02*
X129863000Y-83489800D01*
%TO.N,{slash}IO60*%
X133359100Y-117772600D02*
X131047700Y-117772600D01*
%TO.N,READY*%
X109016800Y-59350700D02*
X110972600Y-59350700D01*
%TO.N,BP19*%
X125035100Y-65718900D02*
X126339600Y-67023400D01*
%TO.N,{slash}TC*%
X129777700Y-113995200D02*
X126152700Y-113995200D01*
%TO.N,BP39*%
X107813900Y-91151500D02*
X109118400Y-92456000D01*
%TO.N,{slash}WAIT*%
X113741200Y-59350700D02*
X112471200Y-60620700D01*
%TO.N,{slash}DREQ2*%
X113741200Y-139369800D02*
X125018800Y-139369800D01*
%TO.N,GND*%
X124908100Y-89865200D02*
X116043500Y-89865200D01*
%TO.N,-5V*%
X116052600Y-153339800D02*
X110972600Y-153339800D01*
%TO.N,{slash}BOUT*%
X126279700Y-89865200D02*
X128235500Y-89865200D01*
%TO.N,{slash}BP68*%
X129803100Y-129193500D02*
X126178100Y-129193500D01*
%TO.N,{slash}DB1*%
X110938100Y-69519800D02*
X112436700Y-69519800D01*
%TO.N,GND*%
X129734100Y-91135200D02*
X126178100Y-91135200D01*
%TO.N,{slash}DB0*%
X131064000Y-67023400D02*
X129828500Y-68258900D01*
%TO.N,{slash}REF*%
X126238000Y-115198100D02*
X128193800Y-115198100D01*
%TO.N,{slash}A0*%
X131089400Y-92439700D02*
X129853900Y-93675200D01*
%TO.N,{slash}BP66*%
X124857300Y-125383500D02*
X115992700Y-125383500D01*
%TO.N,{slash}IOWR*%
X113732100Y-83524300D02*
X125009700Y-83524300D01*
%TO.N,{slash}INT4*%
X110912700Y-130454400D02*
X112411300Y-130454400D01*
%TO.N,{slash}IO60*%
X131047700Y-117772600D02*
X129812200Y-119008100D01*
%TO.N,{slash}A13*%
X126203500Y-110185200D02*
X128159300Y-110185200D01*
%TO.N,{slash}A10*%
X130927900Y-105114300D02*
X129657900Y-106384300D01*
%TO.N,{slash}IO40*%
X126228900Y-125383500D02*
X128184700Y-125383500D01*
%TO.N,{slash}BP59*%
X96563600Y-116484400D02*
X107772200Y-116484400D01*
%TO.N,{slash}DB0*%
X112581900Y-68275200D02*
X108956900Y-68275200D01*
%TO.N,{slash}REF*%
X110921800Y-115198100D02*
X112420400Y-115198100D01*
%TO.N,{slash}A1*%
X108966000Y-94945200D02*
X110921800Y-94945200D01*
%TO.N,{slash}A15*%
X110972600Y-112759700D02*
X112471200Y-112759700D01*
%TO.N,{slash}BP59*%
X109076700Y-117788900D02*
X111032500Y-117788900D01*
%TO.N,{slash}DREQ3*%
X107823000Y-141926100D02*
X109127500Y-143230600D01*
%TO.N,{slash}BP64*%
X113801100Y-122859800D02*
X112565600Y-124095300D01*
%TO.N,{slash}DREQ2*%
X126288800Y-140639800D02*
X128244600Y-140639800D01*
%TO.N,{slash}MEMWR*%
X126238000Y-83489800D02*
X125002500Y-82254300D01*
%TO.N,{slash}BP62*%
X124866400Y-120269000D02*
X116001800Y-120269000D01*
%TO.N,{slash}DACK0*%
X108940600Y-136855200D02*
X107670600Y-135585200D01*
%TO.N,{slash}DB8*%
X108991400Y-78435200D02*
X107755900Y-77199700D01*
%TO.N,{slash}BP66*%
X129683300Y-126653500D02*
X126127300Y-126653500D01*
%TO.N,{slash}DACK2*%
X124917200Y-140639800D02*
X116052600Y-140639800D01*
%TO.N,GND*%
X126228900Y-88604300D02*
X124993400Y-87368800D01*
%TO.N,PHI2*%
X95215500Y-145770600D02*
X96485500Y-144500600D01*
%TO.N,{slash}DB6*%
X113766600Y-74625200D02*
X112496600Y-75895200D01*
%TO.N,PHI2*%
X109033100Y-145770600D02*
X110988900Y-145770600D01*
%TO.N,{slash}IO60*%
X108940600Y-119024400D02*
X107705100Y-117788900D01*
X113801100Y-117788900D02*
X112565600Y-119024400D01*
%TO.N,BP9*%
X124993400Y-52993500D02*
X126263400Y-54263500D01*
%TO.N,{slash}BP64*%
X112565600Y-124095300D02*
X108940600Y-124095300D01*
%TO.N,{slash}DB6*%
X108940600Y-75895200D02*
X107670600Y-74625200D01*
%TO.N,{slash}IO30*%
X95259100Y-122859800D02*
X96563600Y-121555300D01*
%TO.N,{slash}HLDAK*%
X95224600Y-79696100D02*
X96494600Y-78426100D01*
%TO.N,BP19*%
X111023400Y-67023400D02*
X112522000Y-67023400D01*
%TO.N,{slash}BP66*%
X112436700Y-126669800D02*
X108880700Y-126669800D01*
%TO.N,GND*%
X131004100Y-89865200D02*
X129734100Y-91135200D01*
%TO.N,{slash}DB1*%
X109007700Y-69536100D02*
X110963500Y-69536100D01*
%TO.N,PHI2*%
X93716900Y-145770600D02*
X95215500Y-145770600D01*
%TO.N,{slash}DB0*%
X116128800Y-67039700D02*
X113817400Y-67039700D01*
%TO.N,{slash}BP62*%
X116027200Y-120285300D02*
X113715800Y-120285300D01*
%TO.N,{slash}A13*%
X112385900Y-110185200D02*
X113655900Y-108915200D01*
%TO.N,{slash}IO20*%
X95173800Y-120285300D02*
X96443800Y-119015300D01*
%TO.N,BP39*%
X125060500Y-91135200D02*
X126365000Y-92439700D01*
%TO.N,AUD*%
X93691500Y-64465200D02*
X95190100Y-64465200D01*
%TO.N,{slash}DB0*%
X124968000Y-67023400D02*
X116103400Y-67023400D01*
%TO.N,{slash}BP70*%
X124857300Y-130454400D02*
X115992700Y-130454400D01*
%TO.N,{slash}A1*%
X107696000Y-93675200D02*
X108966000Y-94945200D01*
%TO.N,AUD*%
X112436700Y-64448900D02*
X113706700Y-63178900D01*
%TO.N,{slash}DREQ3*%
X125069600Y-141909800D02*
X126374100Y-143214300D01*
%TO.N,{slash}DB8*%
X126238000Y-78418900D02*
X125002500Y-77183400D01*
%TO.N,{slash}A13*%
X110887300Y-110185200D02*
X112385900Y-110185200D01*
%TO.N,{slash}REF*%
X107721400Y-113944400D02*
X108991400Y-115214400D01*
%TO.N,BP12*%
X129837600Y-58073500D02*
X126212600Y-58073500D01*
%TO.N,{slash}DB4*%
X131064000Y-72094300D02*
X129828500Y-73329800D01*
%TO.N,{slash}A9*%
X93640700Y-105130600D02*
X95139300Y-105130600D01*
%TO.N,{slash}IOWR*%
X96485500Y-83540600D02*
X107763100Y-83540600D01*
%TO.N,BP15*%
X95284500Y-61925200D02*
X96589000Y-60620700D01*
%TO.N,READY*%
X93700600Y-59350700D02*
X95199200Y-59350700D01*
%TO.N,BP15*%
X107797600Y-60620700D02*
X109102100Y-61925200D01*
%TO.N,{slash}WAIT*%
X112471200Y-60620700D02*
X108915200Y-60620700D01*
%TO.N,BP16*%
X112591000Y-63160700D02*
X108966000Y-63160700D01*
%TO.N,GND*%
X113757500Y-89881500D02*
X112487500Y-91151500D01*
%TO.N,{slash}DB2*%
X133290100Y-69519800D02*
X130978700Y-69519800D01*
%TO.N,{slash}EOF*%
X109067600Y-127974300D02*
X111023400Y-127974300D01*
%TO.N,{slash}BOUT*%
X125009700Y-88595200D02*
X126279700Y-89865200D01*
%TO.N,GND*%
X129734100Y-86064300D02*
X126178100Y-86064300D01*
%TO.N,{slash}BIN*%
X95300800Y-87385100D02*
X96605300Y-86080600D01*
%TO.N,{slash}BP62*%
X108889800Y-121555300D02*
X107619800Y-120285300D01*
%TO.N,{slash}IO40*%
X113681300Y-124113500D02*
X124958900Y-124113500D01*
%TO.N,READY*%
X95199200Y-59350700D02*
X96469200Y-58080700D01*
%TO.N,{slash}A10*%
X129657900Y-106384300D02*
X126101900Y-106384300D01*
%TO.N,{slash}IORD*%
X95309900Y-82270600D02*
X96614400Y-80966100D01*
%TO.N,{slash}MEMRD*%
X112496600Y-80966100D02*
X108940600Y-80966100D01*
%TO.N,{slash}DB4*%
X108956900Y-73346100D02*
X107721400Y-72110600D01*
%TO.N,{slash}DACK1*%
X107755900Y-138159700D02*
X98891300Y-138159700D01*
%TO.N,{slash}RESET*%
X126348700Y-56838000D02*
X128304500Y-56838000D01*
%TO.N,BP19*%
X107788500Y-65735200D02*
X109093000Y-67039700D01*
%TO.N,{slash}BP68*%
X112556500Y-129209800D02*
X108931500Y-129209800D01*
%TO.N,{slash}DB4*%
X129828500Y-73329800D02*
X126203500Y-73329800D01*
%TO.N,{slash}PE*%
X130962400Y-115198100D02*
X129692400Y-116468100D01*
%TO.N,{slash}BIN*%
X125060500Y-86064300D02*
X126365000Y-87368800D01*
%TO.N,{slash}IOWR*%
X93716900Y-84810600D02*
X95215500Y-84810600D01*
%TO.N,{slash}INT3*%
X96554500Y-131740700D02*
X107763100Y-131740700D01*
%TO.N,{slash}DACK2*%
X108940600Y-141926100D02*
X107670600Y-140656100D01*
%TO.N,{slash}IO60*%
X126187200Y-119008100D02*
X124951700Y-117772600D01*
%TO.N,{slash}A8*%
X108915200Y-103826100D02*
X107679700Y-102590600D01*
%TO.N,{slash}IO40*%
X93666100Y-125399800D02*
X95164700Y-125399800D01*
%TO.N,{slash}BP64*%
X133359100Y-122843500D02*
X131047700Y-122843500D01*
%TO.N,{slash}DACK2*%
X113766600Y-140656100D02*
X112496600Y-141926100D01*
%TO.N,{slash}BIN*%
X96605300Y-86080600D02*
X107813900Y-86080600D01*
%TO.N,BP15*%
X96589000Y-60620700D02*
X107797600Y-60620700D01*
%TO.N,{slash}BOUT*%
X109033100Y-89881500D02*
X110988900Y-89881500D01*
%TO.N,BP9*%
X93700600Y-54279800D02*
X95199200Y-54279800D01*
%TO.N,{slash}TC*%
X113766600Y-112776000D02*
X112531100Y-114011500D01*
%TO.N,{slash}DREQ2*%
X107772200Y-139386100D02*
X109042200Y-140656100D01*
%TO.N,{slash}WAIT*%
X126161800Y-60604400D02*
X124891800Y-59334400D01*
%TO.N,BP15*%
X93785900Y-61925200D02*
X95284500Y-61925200D01*
%TO.N,{slash}DB8*%
X133409900Y-77183400D02*
X131098500Y-77183400D01*
X112616400Y-78435200D02*
X108991400Y-78435200D01*
%TO.N,{slash}MEMWR*%
X133409900Y-82254300D02*
X131098500Y-82254300D01*
%TO.N,{slash}MEMRD*%
X126187200Y-80949800D02*
X124917200Y-79679800D01*
%TO.N,{slash}A3*%
X109051300Y-97519700D02*
X111007100Y-97519700D01*
%TO.N,{slash}DB0*%
X108956900Y-68275200D02*
X107721400Y-67039700D01*
%TO.N,BP16*%
X113826500Y-61925200D02*
X112591000Y-63160700D01*
%TO.N,{slash}DREQ0*%
X95224600Y-135585200D02*
X96494600Y-134315200D01*
%TO.N,{slash}BP59*%
X111007100Y-117772600D02*
X112505700Y-117772600D01*
%TO.N,{slash}IO30*%
X93760500Y-122859800D02*
X95259100Y-122859800D01*
%TO.N,AUD*%
X124984300Y-63178900D02*
X126254300Y-64448900D01*
%TO.N,{slash}BP68*%
X124942600Y-127958000D02*
X116078000Y-127958000D01*
%TO.N,{slash}A2*%
X126111000Y-96198900D02*
X124841000Y-94928900D01*
%TO.N,{slash}DACK1*%
X133409900Y-138143400D02*
X131098500Y-138143400D01*
%TO.N,AUD*%
X110938100Y-64448900D02*
X112436700Y-64448900D01*
%TO.N,{slash}A0*%
X116154200Y-92456000D02*
X113842800Y-92456000D01*
%TO.N,BP39*%
X95300800Y-92456000D02*
X96605300Y-91151500D01*
%TO.N,GND*%
X124993400Y-87368800D02*
X116128800Y-87368800D01*
%TO.N,BP19*%
X109093000Y-67039700D02*
X111048800Y-67039700D01*
%TO.N,GND*%
X107661500Y-89881500D02*
X98796900Y-89881500D01*
%TO.N,READY*%
X110947200Y-59334400D02*
X112445800Y-59334400D01*
%TO.N,{slash}INT1*%
X129803100Y-134264400D02*
X126178100Y-134264400D01*
%TO.N,{slash}BP64*%
X116112500Y-122859800D02*
X113801100Y-122859800D01*
%TO.N,{slash}DB2*%
X107636100Y-69536100D02*
X98771500Y-69536100D01*
%TO.N,{slash}BP70*%
X126127300Y-131724400D02*
X124857300Y-130454400D01*
%TO.N,{slash}DREQ0*%
X107772200Y-134315200D02*
X109042200Y-135585200D01*
%TO.N,BP9*%
X110947200Y-54263500D02*
X112445800Y-54263500D01*
%TO.N,{slash}BP64*%
X131047700Y-122843500D02*
X129812200Y-124079000D01*
%TO.N,{slash}DB7*%
X93811300Y-77199700D02*
X95309900Y-77199700D01*
%TO.N,{slash}IORD*%
X96614400Y-80966100D02*
X107823000Y-80966100D01*
%TO.N,{slash}CLEAR*%
X107645200Y-54279800D02*
X98780600Y-54279800D01*
%TO.N,{slash}A15*%
X112471200Y-112759700D02*
X113775700Y-111455200D01*
%TO.N,{slash}BP70*%
X116018100Y-130470700D02*
X113706700Y-130470700D01*
%TO.N,{slash}A11*%
X96529100Y-106400600D02*
X107737700Y-106400600D01*
%TO.N,{slash}RESET*%
X95284500Y-56854300D02*
X96589000Y-55549800D01*
%TO.N,{slash}PE*%
X113715800Y-115214400D02*
X112445800Y-116484400D01*
%TO.N,BP9*%
X107746800Y-53009800D02*
X109016800Y-54279800D01*
%TO.N,{slash}DB6*%
X107670600Y-74625200D02*
X98806000Y-74625200D01*
%TO.N,{slash}DACK3*%
X133409900Y-143214300D02*
X131098500Y-143214300D01*
%TO.N,{slash}DB5*%
X125018800Y-73338900D02*
X126288800Y-74608900D01*
%TO.N,{slash}DREQ0*%
X96494600Y-134315200D02*
X107772200Y-134315200D01*
%TO.N,{slash}IO20*%
X110921800Y-120269000D02*
X112420400Y-120269000D01*
%TO.N,{slash}MEMWR*%
X108991400Y-83506100D02*
X107755900Y-82270600D01*
%TO.N,{slash}REF*%
X95173800Y-115214400D02*
X96443800Y-113944400D01*
%TO.N,GND*%
X126178100Y-91135200D02*
X124908100Y-89865200D01*
%TO.N,{slash}DACK1*%
X125002500Y-138143400D02*
X116137900Y-138143400D01*
%TO.N,{slash}CLEAR*%
X113741200Y-54279800D02*
X112471200Y-55549800D01*
%TO.N,{slash}DREQ3*%
X96614400Y-141926100D02*
X107823000Y-141926100D01*
%TO.N,GND*%
X108982300Y-88620600D02*
X107746800Y-87385100D01*
%TO.N,BP9*%
X126263400Y-54263500D02*
X128219200Y-54263500D01*
%TO.N,{slash}DB2*%
X130978700Y-69519800D02*
X129708700Y-70789800D01*
%TO.N,{slash}A11*%
X110972600Y-107688800D02*
X112471200Y-107688800D01*
%TO.N,{slash}IORD*%
X125069600Y-80949800D02*
X126374100Y-82254300D01*
%TO.N,{slash}A15*%
X107737700Y-111471500D02*
X109042200Y-112776000D01*
%TO.N,{slash}DREQ2*%
X109042200Y-140656100D02*
X110998000Y-140656100D01*
%TO.N,{slash}IO20*%
X108991400Y-120285300D02*
X110947200Y-120285300D01*
%TO.N,{slash}A4*%
X124926300Y-97503400D02*
X116061700Y-97503400D01*
%TO.N,{slash}HLDAK*%
X107772200Y-78426100D02*
X109042200Y-79696100D01*
%TO.N,{slash}DACK0*%
X129743200Y-136838900D02*
X126187200Y-136838900D01*
%TO.N,{slash}A14*%
X107585300Y-110201500D02*
X98720700Y-110201500D01*
%TO.N,{slash}IO40*%
X107712300Y-124129800D02*
X108982300Y-125399800D01*
%TO.N,{slash}RESET*%
X125044200Y-55533500D02*
X126348700Y-56838000D01*
%TO.N,BP19*%
X113826500Y-65718900D02*
X125035100Y-65718900D01*
%TO.N,{slash}A4*%
X131022300Y-97503400D02*
X129786800Y-98738900D01*
X126161800Y-98738900D02*
X124926300Y-97503400D01*
X133333700Y-97503400D02*
X131022300Y-97503400D01*
%TO.N,{slash}DACK3*%
X112616400Y-144466100D02*
X108991400Y-144466100D01*
%TO.N,{slash}IO40*%
X124958900Y-124113500D02*
X126228900Y-125383500D01*
%TO.N,{slash}BP68*%
X133350000Y-127958000D02*
X131038600Y-127958000D01*
%TO.N,{slash}A4*%
X108915200Y-98755200D02*
X107679700Y-97519700D01*
%TO.N,{slash}DREQ0*%
X126288800Y-135568900D02*
X128244600Y-135568900D01*
%TO.N,{slash}IO40*%
X112411300Y-125383500D02*
X113681300Y-124113500D01*
%TO.N,{slash}BP59*%
X126323300Y-117772600D02*
X128279100Y-117772600D01*
%TO.N,{slash}A11*%
X107737700Y-106400600D02*
X109042200Y-107705100D01*
%TO.N,BP18*%
X124882700Y-64448900D02*
X116018100Y-64448900D01*
%TO.N,{slash}DACK2*%
X116078000Y-140656100D02*
X113766600Y-140656100D01*
%TO.N,{slash}HLDAK*%
X109042200Y-79696100D02*
X110998000Y-79696100D01*
%TO.N,GND*%
X116154200Y-87385100D02*
X113842800Y-87385100D01*
%TO.N,{slash}A14*%
X112411300Y-111471500D02*
X108855300Y-111471500D01*
%TO.N,GND*%
X112607300Y-88620600D02*
X108982300Y-88620600D01*
X133315500Y-84794300D02*
X131004100Y-84794300D01*
%TO.N,{slash}A2*%
X133248400Y-94928900D02*
X130937000Y-94928900D01*
%TO.N,{slash}BIN*%
X113851900Y-86064300D02*
X125060500Y-86064300D01*
%TO.N,{slash}IORD*%
X112556500Y-82254300D02*
X113861000Y-80949800D01*
%TO.N,{slash}EOF*%
X96554500Y-126669800D02*
X107763100Y-126669800D01*
%TO.N,{slash}A13*%
X107686900Y-108931500D02*
X108956900Y-110201500D01*
%TO.N,{slash}BOUT*%
X113732100Y-88595200D02*
X125009700Y-88595200D01*
%TO.N,{slash}A2*%
X107594400Y-94945200D02*
X98729800Y-94945200D01*
%TO.N,BP16*%
X116137900Y-61925200D02*
X113826500Y-61925200D01*
%TO.N,{slash}BOUT*%
X93716900Y-89881500D02*
X95215500Y-89881500D01*
%TO.N,{slash}BP70*%
X112436700Y-131740700D02*
X108880700Y-131740700D01*
%TO.N,{slash}DB3*%
X125035100Y-70789800D02*
X126339600Y-72094300D01*
%TO.N,{slash}A15*%
X93726000Y-112776000D02*
X95224600Y-112776000D01*
%TO.N,{slash}RESET*%
X109102100Y-56854300D02*
X111057900Y-56854300D01*
%TO.N,{slash}A4*%
X112540200Y-98755200D02*
X108915200Y-98755200D01*
%TO.N,{slash}A12*%
X113766600Y-107705100D02*
X112531100Y-108940600D01*
%TO.N,{slash}A11*%
X95224600Y-107705100D02*
X96529100Y-106400600D01*
%TO.N,PHI2*%
X107763100Y-144500600D02*
X109033100Y-145770600D01*
%TO.N,{slash}A12*%
X107670600Y-107705100D02*
X98806000Y-107705100D01*
%TO.N,{slash}A8*%
X107679700Y-102590600D02*
X98815100Y-102590600D01*
%TO.N,{slash}A3*%
X96538200Y-96215200D02*
X107746800Y-96215200D01*
%TO.N,{slash}DB7*%
X125069600Y-75878900D02*
X126374100Y-77183400D01*
%TO.N,{slash}A9*%
X95139300Y-105130600D02*
X96409300Y-103860600D01*
%TO.N,{slash}A5*%
X95148400Y-100016100D02*
X96418400Y-98746100D01*
%TO.N,{slash}DB5*%
X126288800Y-74608900D02*
X128244600Y-74608900D01*
%TO.N,BP39*%
X111048800Y-92439700D02*
X112547400Y-92439700D01*
%TO.N,{slash}DB4*%
X124968000Y-72094300D02*
X116103400Y-72094300D01*
%TO.N,{slash}PE*%
X112445800Y-116484400D02*
X108889800Y-116484400D01*
%TO.N,{slash}IOWR*%
X107763100Y-83540600D02*
X109033100Y-84810600D01*
%TO.N,AUD*%
X109007700Y-64465200D02*
X110963500Y-64465200D01*
%TO.N,{slash}EOF*%
X126314200Y-127958000D02*
X128270000Y-127958000D01*
%TO.N,{slash}BP68*%
X131038600Y-127958000D02*
X129803100Y-129193500D01*
%TO.N,{slash}MEMWR*%
X116163300Y-82270600D02*
X113851900Y-82270600D01*
%TO.N,{slash}INT3*%
X112496600Y-133028900D02*
X113801100Y-131724400D01*
%TO.N,{slash}BP64*%
X108940600Y-124095300D02*
X107705100Y-122859800D01*
%TO.N,{slash}DB7*%
X113861000Y-75878900D02*
X125069600Y-75878900D01*
%TO.N,{slash}DB6*%
X116078000Y-74625200D02*
X113766600Y-74625200D01*
%TO.N,GND*%
X133315500Y-89865200D02*
X131004100Y-89865200D01*
%TO.N,{slash}A4*%
X107679700Y-97519700D02*
X98815100Y-97519700D01*
%TO.N,{slash}DACK0*%
X126187200Y-136838900D02*
X124917200Y-135568900D01*
%TO.N,BP12*%
X116137900Y-56854300D02*
X113826500Y-56854300D01*
%TO.N,{slash}A7*%
X113784800Y-101269800D02*
X124993400Y-101269800D01*
%TO.N,BP18*%
X113732100Y-64465200D02*
X112462100Y-65735200D01*
%TO.N,{slash}IOWR*%
X125009700Y-83524300D02*
X126279700Y-84794300D01*
%TO.N,{slash}A6*%
X107594400Y-100016100D02*
X98729800Y-100016100D01*
%TO.N,BP12*%
X131073100Y-56838000D02*
X129837600Y-58073500D01*
%TO.N,{slash}BP62*%
X107619800Y-120285300D02*
X98755200Y-120285300D01*
%TO.N,{slash}IORD*%
X126374100Y-82254300D02*
X128329900Y-82254300D01*
%TO.N,{slash}A14*%
X130927900Y-110185200D02*
X129657900Y-111455200D01*
%TO.N,{slash}BP70*%
X107610700Y-130470700D02*
X98746100Y-130470700D01*
%TO.N,BP15*%
X111032500Y-61908900D02*
X112531100Y-61908900D01*
%TO.N,{slash}A11*%
X109042200Y-107705100D02*
X110998000Y-107705100D01*
%TO.N,{slash}DREQ2*%
X112471200Y-140639800D02*
X113741200Y-139369800D01*
%TO.N,{slash}DREQ1*%
X126374100Y-138143400D02*
X128329900Y-138143400D01*
%TO.N,{slash}DACK3*%
X113851900Y-143230600D02*
X112616400Y-144466100D01*
%TO.N,{slash}A13*%
X124933500Y-108915200D02*
X126203500Y-110185200D01*
%TO.N,{slash}DACK0*%
X112496600Y-136855200D02*
X108940600Y-136855200D01*
%TO.N,{slash}DB8*%
X131098500Y-77183400D02*
X129863000Y-78418900D01*
%TO.N,{slash}IO40*%
X95164700Y-125399800D02*
X96434700Y-124129800D01*
%TO.N,{slash}CLEAR*%
X133299200Y-54263500D02*
X130987800Y-54263500D01*
%TO.N,BP16*%
X108966000Y-63160700D02*
X107730500Y-61925200D01*
%TO.N,BP39*%
X113851900Y-91135200D02*
X125060500Y-91135200D01*
%TO.N,{slash}DB3*%
X93776800Y-72110600D02*
X95275400Y-72110600D01*
X95275400Y-72110600D02*
X96579900Y-70806100D01*
%TO.N,{slash}A7*%
X124993400Y-101269800D02*
X126297900Y-102574300D01*
%TO.N,{slash}INT4*%
X96434700Y-129200700D02*
X107712300Y-129200700D01*
%TO.N,{slash}REF*%
X108991400Y-115214400D02*
X110947200Y-115214400D01*
%TO.N,{slash}DB0*%
X133375400Y-67023400D02*
X131064000Y-67023400D01*
%TO.N,{slash}INT1*%
X133350000Y-133028900D02*
X131038600Y-133028900D01*
%TO.N,{slash}DB6*%
X124917200Y-74608900D02*
X116052600Y-74608900D01*
%TO.N,BP9*%
X113715800Y-52993500D02*
X124993400Y-52993500D01*
%TO.N,{slash}CLEAR*%
X130987800Y-54263500D02*
X129717800Y-55533500D01*
%TO.N,{slash}DACK0*%
X107670600Y-135585200D02*
X98806000Y-135585200D01*
%TO.N,{slash}IOWR*%
X126279700Y-84794300D02*
X128235500Y-84794300D01*
%TO.N,{slash}IO60*%
X116112500Y-117788900D02*
X113801100Y-117788900D01*
%TO.N,{slash}DREQ1*%
X111057900Y-138143400D02*
X112556500Y-138143400D01*
%TO.N,{slash}A6*%
X113690400Y-100016100D02*
X112420400Y-101286100D01*
%TO.N,{slash}DREQ3*%
X112556500Y-143214300D02*
X113861000Y-141909800D01*
%TO.N,{slash}EOF*%
X95250000Y-127974300D02*
X96554500Y-126669800D01*
%TO.N,BP12*%
X133384500Y-56838000D02*
X131073100Y-56838000D01*
%TO.N,{slash}TC*%
X112531100Y-114011500D02*
X108906100Y-114011500D01*
%TO.N,{slash}A10*%
X126101900Y-106384300D02*
X124831900Y-105114300D01*
%TO.N,{slash}MEMWR*%
X129863000Y-83489800D02*
X126238000Y-83489800D01*
%TO.N,{slash}DB2*%
X116043500Y-69536100D02*
X113732100Y-69536100D01*
%TO.N,BP19*%
X95275400Y-67039700D02*
X96579900Y-65735200D01*
%TO.N,{slash}BIN*%
X109118400Y-87385100D02*
X111074200Y-87385100D01*
%TO.N,{slash}A8*%
X124926300Y-102574300D02*
X116061700Y-102574300D01*
%TO.N,{slash}DREQ2*%
X110972600Y-140639800D02*
X112471200Y-140639800D01*
%TO.N,PHI2*%
X126279700Y-145754300D02*
X128235500Y-145754300D01*
%TO.N,{slash}IO20*%
X126238000Y-120269000D02*
X128193800Y-120269000D01*
%TO.N,BP12*%
X108966000Y-58089800D02*
X107730500Y-56854300D01*
%TO.N,{slash}DB1*%
X93691500Y-69536100D02*
X95190100Y-69536100D01*
%TO.N,BP39*%
X109118400Y-92456000D02*
X111074200Y-92456000D01*
%TO.N,{slash}DB0*%
X113817400Y-67039700D02*
X112581900Y-68275200D01*
%TO.N,{slash}A1*%
X95148400Y-94945200D02*
X96418400Y-93675200D01*
%TO.N,{slash}PE*%
X108889800Y-116484400D02*
X107619800Y-115214400D01*
%TO.N,GND*%
X131089400Y-87368800D02*
X129853900Y-88604300D01*
%TO.N,{slash}A10*%
X124831900Y-105114300D02*
X115967300Y-105114300D01*
%TO.N,{slash}MEMWR*%
X112616400Y-83506100D02*
X108991400Y-83506100D01*
%TO.N,{slash}DB2*%
X113732100Y-69536100D02*
X112462100Y-70806100D01*
%TO.N,{slash}DB1*%
X107737700Y-68266100D02*
X109007700Y-69536100D01*
%TO.N,{slash}A8*%
X133333700Y-102574300D02*
X131022300Y-102574300D01*
%TO.N,{slash}DB0*%
X129828500Y-68258900D02*
X126203500Y-68258900D01*
%TO.N,BP39*%
X126365000Y-92439700D02*
X128320800Y-92439700D01*
%TO.N,{slash}REF*%
X93675200Y-115214400D02*
X95173800Y-115214400D01*
%TO.N,{slash}A10*%
X107585300Y-105130600D02*
X98720700Y-105130600D01*
X115992700Y-105130600D02*
X113681300Y-105130600D01*
%TO.N,BP39*%
X96605300Y-91151500D02*
X107813900Y-91151500D01*
%TO.N,BP18*%
X116043500Y-64465200D02*
X113732100Y-64465200D01*
%TO.N,{slash}DB5*%
X113741200Y-73338900D02*
X125018800Y-73338900D01*
%TO.N,{slash}A15*%
X126288800Y-112759700D02*
X128244600Y-112759700D01*
%TO.N,{slash}DB4*%
X113817400Y-72110600D02*
X112581900Y-73346100D01*
X112581900Y-73346100D02*
X108956900Y-73346100D01*
%TO.N,BP16*%
X124977100Y-61908900D02*
X116112500Y-61908900D01*
%TO.N,{slash}DB5*%
X110972600Y-74608900D02*
X112471200Y-74608900D01*
%TO.N,{slash}A15*%
X95224600Y-112776000D02*
X96529100Y-111471500D01*
%TO.N,-5V*%
X128219200Y-153323500D02*
X116027200Y-153323500D01*
%TO.N,{slash}A3*%
X107746800Y-96215200D02*
X109051300Y-97519700D01*
%TO.N,{slash}DREQ1*%
X113861000Y-136838900D02*
X125069600Y-136838900D01*
%TO.N,{slash}HLDAK*%
X110972600Y-79679800D02*
X112471200Y-79679800D01*
%TO.N,{slash}INT4*%
X113681300Y-129184400D02*
X124958900Y-129184400D01*
%TO.N,GND*%
X107661500Y-145770600D02*
X98796900Y-145770600D01*
%TO.N,{slash}BP70*%
X133264700Y-130454400D02*
X130953300Y-130454400D01*
%TO.N,{slash}DREQ1*%
X112556500Y-138143400D02*
X113861000Y-136838900D01*
%TO.N,{slash}BIN*%
X107813900Y-86080600D02*
X109118400Y-87385100D01*
%TO.N,{slash}DACK3*%
X131098500Y-143214300D02*
X129863000Y-144449800D01*
%TO.N,{slash}A3*%
X95233700Y-97519700D02*
X96538200Y-96215200D01*
%TO.N,{slash}BP59*%
X125018800Y-116468100D02*
X126323300Y-117772600D01*
%TO.N,BP18*%
X107636100Y-64465200D02*
X98771500Y-64465200D01*
%TO.N,{slash}A4*%
X129786800Y-98738900D02*
X126161800Y-98738900D01*
%TO.N,GND*%
X124908100Y-84794300D02*
X116043500Y-84794300D01*
%TO.N,{slash}PE*%
X116027200Y-115214400D02*
X113715800Y-115214400D01*
%TO.N,{slash}A6*%
X124841000Y-99999800D02*
X115976400Y-99999800D01*
%TO.N,{slash}CLEAR*%
X129717800Y-55533500D02*
X126161800Y-55533500D01*
%TO.N,{slash}BOUT*%
X107763100Y-88611500D02*
X109033100Y-89881500D01*
%TO.N,{slash}A7*%
X109051300Y-102590600D02*
X111007100Y-102590600D01*
%TO.N,{slash}A9*%
X124933500Y-103844300D02*
X126203500Y-105114300D01*
%TO.N,{slash}A2*%
X112420400Y-96215200D02*
X108864400Y-96215200D01*
%TO.N,{slash}A15*%
X109042200Y-112776000D02*
X110998000Y-112776000D01*
%TO.N,{slash}A8*%
X116087100Y-102590600D02*
X113775700Y-102590600D01*
%TO.N,{slash}INT1*%
X107696000Y-133045200D02*
X98831400Y-133045200D01*
%TO.N,{slash}DREQ3*%
X93811300Y-143230600D02*
X95309900Y-143230600D01*
%TO.N,{slash}A12*%
X126152700Y-108924300D02*
X124917200Y-107688800D01*
%TO.N,{slash}EOF*%
X107763100Y-126669800D02*
X109067600Y-127974300D01*
%TO.N,{slash}INT4*%
X108982300Y-130470700D02*
X110938100Y-130470700D01*
%TO.N,{slash}BP68*%
X126178100Y-129193500D02*
X124942600Y-127958000D01*
%TO.N,{slash}DB5*%
X107772200Y-73355200D02*
X109042200Y-74625200D01*
%TO.N,{slash}MEMRD*%
X113766600Y-79696100D02*
X112496600Y-80966100D01*
%TO.N,{slash}DREQ0*%
X93726000Y-135585200D02*
X95224600Y-135585200D01*
%TO.N,{slash}A13*%
X108956900Y-110201500D02*
X110912700Y-110201500D01*
%TO.N,{slash}DB7*%
X96614400Y-75895200D02*
X107823000Y-75895200D01*
%TO.N,GND*%
X112487500Y-91151500D02*
X108931500Y-91151500D01*
%TO.N,{slash}DB8*%
X125002500Y-77183400D02*
X116137900Y-77183400D01*
%TO.N,{slash}DACK1*%
X126238000Y-139378900D02*
X125002500Y-138143400D01*
%TO.N,READY*%
X113715800Y-58064400D02*
X124993400Y-58064400D01*
%TO.N,{slash}A0*%
X107746800Y-92456000D02*
X98882200Y-92456000D01*
%TO.N,{slash}EOF*%
X93751400Y-127974300D02*
X95250000Y-127974300D01*
%TO.N,{slash}DB0*%
X107721400Y-67039700D02*
X98856800Y-67039700D01*
%TO.N,{slash}TC*%
X107670600Y-112776000D02*
X98806000Y-112776000D01*
%TO.N,{slash}INT3*%
X95250000Y-133045200D02*
X96554500Y-131740700D01*
%TO.N,{slash}DACK0*%
X124917200Y-135568900D02*
X116052600Y-135568900D01*
%TO.N,{slash}PE*%
X133273800Y-115198100D02*
X130962400Y-115198100D01*
%TO.N,{slash}BP62*%
X129692400Y-121539000D02*
X126136400Y-121539000D01*
%TO.N,{slash}DACK2*%
X133324600Y-140639800D02*
X131013200Y-140639800D01*
%TO.N,{slash}BP59*%
X112505700Y-117772600D02*
X113810200Y-116468100D01*
%TO.N,{slash}A13*%
X113655900Y-108915200D02*
X124933500Y-108915200D01*
%TO.N,{slash}A6*%
X112420400Y-101286100D02*
X108864400Y-101286100D01*
%TO.N,{slash}DREQ1*%
X93811300Y-138159700D02*
X95309900Y-138159700D01*
%TO.N,GND*%
X113757500Y-84810600D02*
X112487500Y-86080600D01*
%TO.N,{slash}INT1*%
X131038600Y-133028900D02*
X129803100Y-134264400D01*
%TO.N,BP19*%
X112522000Y-67023400D02*
X113826500Y-65718900D01*
%TO.N,{slash}DB7*%
X107823000Y-75895200D02*
X109127500Y-77199700D01*
%TO.N,{slash}A13*%
X96409300Y-108931500D02*
X107686900Y-108931500D01*
%TO.N,{slash}RESET*%
X93785900Y-56854300D02*
X95284500Y-56854300D01*
%TO.N,{slash}DB5*%
X96494600Y-73355200D02*
X107772200Y-73355200D01*
%TO.N,{slash}BP66*%
X133264700Y-125383500D02*
X130953300Y-125383500D01*
%TO.N,{slash}DB5*%
X109042200Y-74625200D02*
X110998000Y-74625200D01*
%TO.N,{slash}INT1*%
X112556500Y-134280700D02*
X108931500Y-134280700D01*
%TO.N,{slash}BP66*%
X126127300Y-126653500D02*
X124857300Y-125383500D01*
%TO.N,{slash}A2*%
X108864400Y-96215200D02*
X107594400Y-94945200D01*
%TO.N,BP18*%
X112462100Y-65735200D02*
X108906100Y-65735200D01*
%TO.N,{slash}DACK0*%
X133324600Y-135568900D02*
X131013200Y-135568900D01*
%TO.N,{slash}A10*%
X112411300Y-106400600D02*
X108855300Y-106400600D01*
%TO.N,{slash}A7*%
X93735100Y-102590600D02*
X95233700Y-102590600D01*
%TO.N,{slash}DB6*%
X129743200Y-75878900D02*
X126187200Y-75878900D01*
%TO.N,{slash}A12*%
X116078000Y-107705100D02*
X113766600Y-107705100D01*
%TO.N,{slash}A5*%
X93649800Y-100016100D02*
X95148400Y-100016100D01*
%TO.N,{slash}A12*%
X131013200Y-107688800D02*
X129777700Y-108924300D01*
%TO.N,{slash}TC*%
X126152700Y-113995200D02*
X124917200Y-112759700D01*
%TO.N,{slash}DB1*%
X124984300Y-68249800D02*
X126254300Y-69519800D01*
%TO.N,{slash}A4*%
X116087100Y-97519700D02*
X113775700Y-97519700D01*
%TO.N,{slash}DACK1*%
X108991400Y-139395200D02*
X107755900Y-138159700D01*
%TO.N,{slash}BP62*%
X126136400Y-121539000D02*
X124866400Y-120269000D01*
%TO.N,{slash}BP68*%
X107696000Y-127974300D02*
X98831400Y-127974300D01*
%TO.N,{slash}IO30*%
X111007100Y-122843500D02*
X112505700Y-122843500D01*
%TO.N,{slash}DB2*%
X126152700Y-70789800D02*
X124882700Y-69519800D01*
%TO.N,{slash}A0*%
X129853900Y-93675200D02*
X126228900Y-93675200D01*
%TO.N,{slash}INT3*%
X113801100Y-131724400D02*
X125009700Y-131724400D01*
%TO.N,{slash}A12*%
X124917200Y-107688800D02*
X116052600Y-107688800D01*
%TO.N,{slash}DB1*%
X126254300Y-69519800D02*
X128210100Y-69519800D01*
%TO.N,{slash}DB6*%
X131013200Y-74608900D02*
X129743200Y-75878900D01*
%TO.N,{slash}HLDAK*%
X96494600Y-78426100D02*
X107772200Y-78426100D01*
%TO.N,{slash}DREQ3*%
X126374100Y-143214300D02*
X128329900Y-143214300D01*
%TO.N,{slash}BP68*%
X116103400Y-127974300D02*
X113792000Y-127974300D01*
%TO.N,{slash}RESET*%
X96589000Y-55549800D02*
X107797600Y-55549800D01*
%TO.N,{slash}A3*%
X124993400Y-96198900D02*
X126297900Y-97503400D01*
%TO.N,{slash}DB3*%
X112522000Y-72094300D02*
X113826500Y-70789800D01*
%TO.N,READY*%
X112445800Y-59334400D02*
X113715800Y-58064400D01*
%TO.N,{slash}BOUT*%
X95215500Y-89881500D02*
X96485500Y-88611500D01*
%TO.N,{slash}A13*%
X93640700Y-110201500D02*
X95139300Y-110201500D01*
%TO.N,{slash}A12*%
X129777700Y-108924300D02*
X126152700Y-108924300D01*
%TO.N,{slash}DB5*%
X112471200Y-74608900D02*
X113741200Y-73338900D01*
%TO.N,{slash}MEMWR*%
X125002500Y-82254300D02*
X116137900Y-82254300D01*
%TO.N,{slash}BP64*%
X126187200Y-124079000D02*
X124951700Y-122843500D01*
%TO.N,{slash}DACK2*%
X107670600Y-140656100D02*
X98806000Y-140656100D01*
%TO.N,PHI2*%
X112462100Y-145754300D02*
X113732100Y-144484300D01*
%TO.N,{slash}MEMRD*%
X116078000Y-79696100D02*
X113766600Y-79696100D01*
%TO.N,{slash}IO60*%
X124951700Y-117772600D02*
X116087100Y-117772600D01*
%TO.N,{slash}A8*%
X112540200Y-103826100D02*
X108915200Y-103826100D01*
X126161800Y-103809800D02*
X124926300Y-102574300D01*
%TO.N,{slash}DACK1*%
X116163300Y-138159700D02*
X113851900Y-138159700D01*
%TO.N,{slash}BP70*%
X108880700Y-131740700D02*
X107610700Y-130470700D01*
%TO.N,{slash}INT4*%
X95164700Y-130470700D02*
X96434700Y-129200700D01*
%TO.N,GND*%
X108931500Y-91151500D02*
X107661500Y-89881500D01*
%TO.N,{slash}A0*%
X133400800Y-92439700D02*
X131089400Y-92439700D01*
%TO.N,GND*%
X131004100Y-84794300D02*
X129734100Y-86064300D01*
%TO.N,AUD*%
X113706700Y-63178900D02*
X124984300Y-63178900D01*
%TO.N,{slash}EOF*%
X113801100Y-126653500D02*
X125009700Y-126653500D01*
%TO.N,{slash}RESET*%
X111032500Y-56838000D02*
X112531100Y-56838000D01*
%TO.N,{slash}MEMWR*%
X113851900Y-82270600D02*
X112616400Y-83506100D01*
%TO.N,{slash}MEMRD*%
X108940600Y-80966100D02*
X107670600Y-79696100D01*
%TO.N,{slash}A14*%
X129657900Y-111455200D02*
X126101900Y-111455200D01*
%TO.N,{slash}A7*%
X126297900Y-102574300D02*
X128253700Y-102574300D01*
%TO.N,{slash}PE*%
X107619800Y-115214400D02*
X98755200Y-115214400D01*
%TO.N,{slash}A12*%
X133324600Y-107688800D02*
X131013200Y-107688800D01*
%TO.N,{slash}A10*%
X108855300Y-106400600D02*
X107585300Y-105130600D01*
%TO.N,BP18*%
X108906100Y-65735200D02*
X107636100Y-64465200D01*
%TO.N,{slash}TC*%
X108906100Y-114011500D02*
X107670600Y-112776000D01*
%TO.N,{slash}INT1*%
X108931500Y-134280700D02*
X107696000Y-133045200D01*
%TO.N,GND*%
X129853900Y-88604300D02*
X126228900Y-88604300D01*
%TO.N,{slash}DB7*%
X126374100Y-77183400D02*
X128329900Y-77183400D01*
%TO.N,{slash}BP64*%
X107705100Y-122859800D02*
X98840500Y-122859800D01*
%TO.N,{slash}IORD*%
X107823000Y-80966100D02*
X109127500Y-82270600D01*
%TO.N,{slash}HLDAK*%
X113741200Y-78409800D02*
X125018800Y-78409800D01*
%TO.N,{slash}A11*%
X126288800Y-107688800D02*
X128244600Y-107688800D01*
%TO.N,{slash}REF*%
X113690400Y-113928100D02*
X124968000Y-113928100D01*
%TO.N,{slash}DB4*%
X126203500Y-73329800D02*
X124968000Y-72094300D01*
%TO.N,BP15*%
X112531100Y-61908900D02*
X113835600Y-60604400D01*
%TO.N,{slash}A3*%
X113784800Y-96198900D02*
X124993400Y-96198900D01*
%TO.N,{slash}DACK0*%
X116078000Y-135585200D02*
X113766600Y-135585200D01*
%TO.N,GND*%
X116068900Y-84810600D02*
X113757500Y-84810600D01*
X107661500Y-84810600D02*
X98796900Y-84810600D01*
%TO.N,AUD*%
X96460100Y-63195200D02*
X107737700Y-63195200D01*
%TO.N,{slash}A1*%
X96418400Y-93675200D02*
X107696000Y-93675200D01*
%TO.N,{slash}REF*%
X124968000Y-113928100D02*
X126238000Y-115198100D01*
%TO.N,{slash}DB2*%
X108906100Y-70806100D02*
X107636100Y-69536100D01*
%TO.N,BP16*%
X133384500Y-61908900D02*
X131073100Y-61908900D01*
%TO.N,{slash}DB8*%
X113851900Y-77199700D02*
X112616400Y-78435200D01*
%TO.N,{slash}DB4*%
X107721400Y-72110600D02*
X98856800Y-72110600D01*
%TO.N,{slash}IO30*%
X96563600Y-121555300D02*
X107772200Y-121555300D01*
%TO.N,{slash}A8*%
X113775700Y-102590600D02*
X112540200Y-103826100D01*
%TO.N,{slash}DACK1*%
X113851900Y-138159700D02*
X112616400Y-139395200D01*
%TO.N,{slash}TC*%
X116078000Y-112776000D02*
X113766600Y-112776000D01*
%TO.N,{slash}BP59*%
X107772200Y-116484400D02*
X109076700Y-117788900D01*
%TO.N,{slash}DB8*%
X116163300Y-77199700D02*
X113851900Y-77199700D01*
%TO.N,BP18*%
X126152700Y-65718900D02*
X124882700Y-64448900D01*
%TO.N,{slash}BP66*%
X116018100Y-125399800D02*
X113706700Y-125399800D01*
%TO.N,{slash}IO20*%
X107721400Y-119015300D02*
X108991400Y-120285300D01*
%TO.N,{slash}A1*%
X113665000Y-93658900D02*
X124942600Y-93658900D01*
%TO.N,{slash}DB3*%
X107788500Y-70806100D02*
X109093000Y-72110600D01*
%TO.N,{slash}A8*%
X131022300Y-102574300D02*
X129786800Y-103809800D01*
%TO.N,{slash}A6*%
X108864400Y-101286100D02*
X107594400Y-100016100D01*
%TO.N,{slash}IORD*%
X109127500Y-82270600D02*
X111083300Y-82270600D01*
%TO.N,{slash}DB2*%
X124882700Y-69519800D02*
X116018100Y-69519800D01*
%TO.N,{slash}A4*%
X113775700Y-97519700D02*
X112540200Y-98755200D01*
%TO.N,{slash}IO20*%
X113690400Y-118999000D02*
X124968000Y-118999000D01*
%TO.N,{slash}IORD*%
X93811300Y-82270600D02*
X95309900Y-82270600D01*
%TO.N,BP15*%
X109102100Y-61925200D02*
X111057900Y-61925200D01*
%TO.N,{slash}A7*%
X95233700Y-102590600D02*
X96538200Y-101286100D01*
%TO.N,{slash}BP68*%
X108931500Y-129209800D02*
X107696000Y-127974300D01*
%TO.N,{slash}A3*%
X126297900Y-97503400D02*
X128253700Y-97503400D01*
%TO.N,{slash}DREQ2*%
X96494600Y-139386100D02*
X107772200Y-139386100D01*
%TO.N,{slash}DB0*%
X126203500Y-68258900D02*
X124968000Y-67023400D01*
%TO.N,{slash}A6*%
X130937000Y-99999800D02*
X129667000Y-101269800D01*
%TO.N,GND*%
X108931500Y-147040600D02*
X107661500Y-145770600D01*
X112487500Y-147040600D02*
X108931500Y-147040600D01*
X113842800Y-87385100D02*
X112607300Y-88620600D01*
%TO.N,{slash}IOWR*%
X109033100Y-84810600D02*
X110988900Y-84810600D01*
%TO.N,{slash}INT1*%
X116103400Y-133045200D02*
X113792000Y-133045200D01*
%TO.N,BP12*%
X113826500Y-56854300D02*
X112591000Y-58089800D01*
%TO.N,{slash}DREQ3*%
X109127500Y-143230600D02*
X111083300Y-143230600D01*
%TO.N,{slash}A8*%
X129786800Y-103809800D02*
X126161800Y-103809800D01*
%TO.N,{slash}INT3*%
X109067600Y-133045200D02*
X111023400Y-133045200D01*
%TO.N,{slash}DB6*%
X126187200Y-75878900D02*
X124917200Y-74608900D01*
%TO.N,GND*%
X126178100Y-147024300D02*
X124908100Y-145754300D01*
%TO.N,{slash}A0*%
X126228900Y-93675200D02*
X124993400Y-92439700D01*
%TO.N,{slash}A13*%
X95139300Y-110201500D02*
X96409300Y-108931500D01*
%TO.N,{slash}DREQ0*%
X110972600Y-135568900D02*
X112471200Y-135568900D01*
%TO.N,{slash}DACK0*%
X113766600Y-135585200D02*
X112496600Y-136855200D01*
%TO.N,{slash}A1*%
X93649800Y-94945200D02*
X95148400Y-94945200D01*
%TO.N,{slash}A7*%
X96538200Y-101286100D02*
X107746800Y-101286100D01*
%TO.N,GND*%
X108931500Y-86080600D02*
X107661500Y-84810600D01*
%TO.N,BP19*%
X93776800Y-67039700D02*
X95275400Y-67039700D01*
%TO.N,READY*%
X126263400Y-59334400D02*
X128219200Y-59334400D01*
%TO.N,{slash}DB8*%
X129863000Y-78418900D02*
X126238000Y-78418900D01*
%TO.N,{slash}BOUT*%
X112462100Y-89865200D02*
X113732100Y-88595200D01*
%TO.N,{slash}A1*%
X112395000Y-94928900D02*
X113665000Y-93658900D01*
%TO.N,GND*%
X133400800Y-87368800D02*
X131089400Y-87368800D01*
%TO.N,{slash}IO30*%
X125018800Y-121539000D02*
X126323300Y-122843500D01*
%TO.N,{slash}DACK1*%
X129863000Y-139378900D02*
X126238000Y-139378900D01*
%TO.N,{slash}IO30*%
X113810200Y-121539000D02*
X125018800Y-121539000D01*
%TO.N,{slash}DREQ0*%
X113741200Y-134298900D02*
X125018800Y-134298900D01*
%TO.N,{slash}WAIT*%
X124891800Y-59334400D02*
X116027200Y-59334400D01*
%TO.N,BP19*%
X96579900Y-65735200D02*
X107788500Y-65735200D01*
%TO.N,{slash}IO60*%
X107705100Y-117788900D02*
X98840500Y-117788900D01*
%TO.N,{slash}INT3*%
X110998000Y-133028900D02*
X112496600Y-133028900D01*
%TO.N,{slash}A12*%
X108906100Y-108940600D02*
X107670600Y-107705100D01*
%TO.N,{slash}A14*%
X126101900Y-111455200D02*
X124831900Y-110185200D01*
%TO.N,{slash}CLEAR*%
X126161800Y-55533500D02*
X124891800Y-54263500D01*
%TO.N,{slash}BP59*%
X113810200Y-116468100D02*
X125018800Y-116468100D01*
%TO.N,{slash}IO60*%
X129812200Y-119008100D02*
X126187200Y-119008100D01*
%TO.N,{slash}TC*%
X124917200Y-112759700D02*
X116052600Y-112759700D01*
%TO.N,{slash}A14*%
X108855300Y-111471500D02*
X107585300Y-110201500D01*
%TO.N,BP39*%
X112547400Y-92439700D02*
X113851900Y-91135200D01*
%TO.N,{slash}A9*%
X108956900Y-105130600D02*
X110912700Y-105130600D01*
%TO.N,BP9*%
X96469200Y-53009800D02*
X107746800Y-53009800D01*
%TO.N,{slash}DACK3*%
X125002500Y-143214300D02*
X116137900Y-143214300D01*
%TO.N,{slash}BP59*%
X93760500Y-117788900D02*
X95259100Y-117788900D01*
%TO.N,{slash}DACK0*%
X131013200Y-135568900D02*
X129743200Y-136838900D01*
%TO.N,{slash}HLDAK*%
X112471200Y-79679800D02*
X113741200Y-78409800D01*
%TO.N,AUD*%
X95190100Y-64465200D02*
X96460100Y-63195200D01*
%TO.N,BP9*%
X112445800Y-54263500D02*
X113715800Y-52993500D01*
%TO.N,{slash}DB5*%
X93726000Y-74625200D02*
X95224600Y-74625200D01*
%TO.N,{slash}BP62*%
X133273800Y-120269000D02*
X130962400Y-120269000D01*
%TO.N,BP12*%
X124977100Y-56838000D02*
X116112500Y-56838000D01*
%TO.N,{slash}A11*%
X113775700Y-106384300D02*
X124984300Y-106384300D01*
%TO.N,{slash}A5*%
X112395000Y-99999800D02*
X113665000Y-98729800D01*
%TO.N,BP19*%
X126339600Y-67023400D02*
X128295400Y-67023400D01*
%TO.N,{slash}BIN*%
X126365000Y-87368800D02*
X128320800Y-87368800D01*
%TO.N,{slash}INT3*%
X125009700Y-131724400D02*
X126314200Y-133028900D01*
%TO.N,GND*%
X116068900Y-89881500D02*
X113757500Y-89881500D01*
%TO.N,{slash}A10*%
X133239300Y-105114300D02*
X130927900Y-105114300D01*
%TO.N,{slash}BIN*%
X111048800Y-87368800D02*
X112547400Y-87368800D01*
%TO.N,{slash}A9*%
X113655900Y-103844300D02*
X124933500Y-103844300D01*
%TO.N,{slash}A14*%
X115992700Y-110201500D02*
X113681300Y-110201500D01*
%TO.N,{slash}A9*%
X126203500Y-105114300D02*
X128159300Y-105114300D01*
%TO.N,BP12*%
X126212600Y-58073500D02*
X124977100Y-56838000D01*
%TO.N,{slash}A6*%
X129667000Y-101269800D02*
X126111000Y-101269800D01*
%TO.N,{slash}EOF*%
X112496600Y-127958000D02*
X113801100Y-126653500D01*
%TO.N,{slash}DREQ3*%
X95309900Y-143230600D02*
X96614400Y-141926100D01*
%TO.N,{slash}BP64*%
X129812200Y-124079000D02*
X126187200Y-124079000D01*
%TO.N,{slash}A6*%
X126111000Y-101269800D02*
X124841000Y-99999800D01*
%TO.N,{slash}A0*%
X108982300Y-93691500D02*
X107746800Y-92456000D01*
%TO.N,{slash}DACK2*%
X129743200Y-141909800D02*
X126187200Y-141909800D01*
%TO.N,{slash}BOUT*%
X110963500Y-89865200D02*
X112462100Y-89865200D01*
%TO.N,BP39*%
X93802200Y-92456000D02*
X95300800Y-92456000D01*
%TO.N,{slash}A1*%
X124942600Y-93658900D02*
X126212600Y-94928900D01*
%TO.N,{slash}A5*%
X124942600Y-98729800D02*
X126212600Y-99999800D01*
%TO.N,{slash}DB3*%
X126339600Y-72094300D02*
X128295400Y-72094300D01*
%TO.N,{slash}A5*%
X108966000Y-100016100D02*
X110921800Y-100016100D01*
%TO.N,{slash}MEMRD*%
X133324600Y-79679800D02*
X131013200Y-79679800D01*
%TO.N,{slash}DREQ2*%
X125018800Y-139369800D02*
X126288800Y-140639800D01*
%TO.N,{slash}A2*%
X113690400Y-94945200D02*
X112420400Y-96215200D01*
%TO.N,{slash}RESET*%
X112531100Y-56838000D02*
X113835600Y-55533500D01*
%TO.N,{slash}A15*%
X124984300Y-111455200D02*
X126288800Y-112759700D01*
%TO.N,{slash}DB1*%
X113706700Y-68249800D02*
X124984300Y-68249800D01*
%TO.N,{slash}DREQ0*%
X125018800Y-134298900D02*
X126288800Y-135568900D01*
%TO.N,{slash}DB5*%
X95224600Y-74625200D02*
X96494600Y-73355200D01*
%TO.N,{slash}INT4*%
X124958900Y-129184400D02*
X126228900Y-130454400D01*
%TO.N,{slash}BP70*%
X129683300Y-131724400D02*
X126127300Y-131724400D01*
%TO.N,{slash}PE*%
X129692400Y-116468100D02*
X126136400Y-116468100D01*
%TO.N,{slash}IO30*%
X112505700Y-122843500D02*
X113810200Y-121539000D01*
%TO.N,{slash}IO60*%
X112565600Y-119024400D02*
X108940600Y-119024400D01*
%TO.N,PHI2*%
X96485500Y-144500600D02*
X107763100Y-144500600D01*
%TO.N,GND*%
X90474800Y-87368800D02*
X81610200Y-87368800D01*
%TO.N,{slash}DB7*%
X91855500Y-77183400D02*
X93811300Y-77183400D01*
%TO.N,{slash}DACK3*%
X98891300Y-143214300D02*
X96579900Y-143214300D01*
%TO.N,{slash}A9*%
X90414900Y-103844300D02*
X91684900Y-105114300D01*
%TO.N,{slash}A5*%
X90424000Y-98729800D02*
X91694000Y-99999800D01*
%TO.N,{slash}MEMWR*%
X90483900Y-82254300D02*
X81619300Y-82254300D01*
%TO.N,READY*%
X90474800Y-58064400D02*
X91744800Y-59334400D01*
%TO.N,BP16*%
X90458500Y-61908900D02*
X81593900Y-61908900D01*
%TO.N,{slash}A2*%
X98729800Y-94928900D02*
X96418400Y-94928900D01*
%TO.N,{slash}IO20*%
X76403200Y-120269000D02*
X77901800Y-120269000D01*
%TO.N,{slash}A5*%
X79146400Y-98729800D02*
X90424000Y-98729800D01*
%TO.N,{slash}BP66*%
X91608700Y-126653500D02*
X90338700Y-125383500D01*
%TO.N,GND*%
X95215500Y-86064300D02*
X91659500Y-86064300D01*
%TO.N,{slash}A0*%
X95335300Y-93675200D02*
X91710300Y-93675200D01*
%TO.N,{slash}A12*%
X95259100Y-108924300D02*
X91634100Y-108924300D01*
%TO.N,{slash}MEMRD*%
X90398600Y-79679800D02*
X81534000Y-79679800D01*
%TO.N,{slash}DB6*%
X95224600Y-75878900D02*
X91668600Y-75878900D01*
%TO.N,{slash}A3*%
X76463100Y-97503400D02*
X77961700Y-97503400D01*
%TO.N,{slash}BP70*%
X96434700Y-130454400D02*
X95164700Y-131724400D01*
%TO.N,{slash}A0*%
X96570800Y-92439700D02*
X95335300Y-93675200D01*
%TO.N,{slash}DREQ0*%
X91770200Y-135568900D02*
X93726000Y-135568900D01*
%TO.N,BP12*%
X95319000Y-58073500D02*
X91694000Y-58073500D01*
%TO.N,BP9*%
X77927200Y-54263500D02*
X79197200Y-52993500D01*
%TO.N,{slash}A6*%
X98729800Y-99999800D02*
X96418400Y-99999800D01*
%TO.N,{slash}DREQ2*%
X77952600Y-140639800D02*
X79222600Y-139369800D01*
%TO.N,{slash}DB4*%
X98856800Y-72094300D02*
X96545400Y-72094300D01*
%TO.N,{slash}BP66*%
X90338700Y-125383500D02*
X81474100Y-125383500D01*
%TO.N,{slash}DREQ2*%
X76454000Y-140639800D02*
X77952600Y-140639800D01*
%TO.N,{slash}BP62*%
X96443800Y-120269000D02*
X95173800Y-121539000D01*
X95173800Y-121539000D02*
X91617800Y-121539000D01*
%TO.N,{slash}DREQ1*%
X78037900Y-138143400D02*
X79342400Y-136838900D01*
%TO.N,{slash}CLEAR*%
X98780600Y-54263500D02*
X96469200Y-54263500D01*
%TO.N,BP9*%
X91744800Y-54263500D02*
X93700600Y-54263500D01*
%TO.N,{slash}A7*%
X90474800Y-101269800D02*
X91779300Y-102574300D01*
%TO.N,AUD*%
X90465700Y-63178900D02*
X91735700Y-64448900D01*
%TO.N,{slash}REF*%
X79171800Y-113928100D02*
X90449400Y-113928100D01*
%TO.N,{slash}IO40*%
X91710300Y-125383500D02*
X93666100Y-125383500D01*
%TO.N,{slash}BP66*%
X96434700Y-125383500D02*
X95164700Y-126653500D01*
%TO.N,GND*%
X96485500Y-145754300D02*
X95215500Y-147024300D01*
%TO.N,{slash}RESET*%
X90525600Y-55533500D02*
X91830100Y-56838000D01*
%TO.N,{slash}DACK1*%
X95344400Y-139378900D02*
X91719400Y-139378900D01*
%TO.N,{slash}DACK3*%
X90483900Y-143214300D02*
X81619300Y-143214300D01*
%TO.N,{slash}DB3*%
X91821000Y-72094300D02*
X93776800Y-72094300D01*
%TO.N,{slash}IO30*%
X90500200Y-121539000D02*
X91804700Y-122843500D01*
%TO.N,{slash}A9*%
X79137300Y-103844300D02*
X90414900Y-103844300D01*
%TO.N,{slash}DACK2*%
X95224600Y-141909800D02*
X91668600Y-141909800D01*
%TO.N,{slash}INT3*%
X90491100Y-131724400D02*
X91795600Y-133028900D01*
%TO.N,{slash}INT4*%
X90440300Y-129184400D02*
X91710300Y-130454400D01*
X76394100Y-130454400D02*
X77892700Y-130454400D01*
%TO.N,{slash}A15*%
X79257100Y-111455200D02*
X90465700Y-111455200D01*
%TO.N,{slash}CLEAR*%
X95199200Y-55533500D02*
X91643200Y-55533500D01*
%TO.N,{slash}WAIT*%
X91643200Y-60604400D02*
X90373200Y-59334400D01*
%TO.N,{slash}IO40*%
X79162700Y-124113500D02*
X90440300Y-124113500D01*
%TO.N,{slash}A10*%
X96409300Y-105114300D02*
X95139300Y-106384300D01*
%TO.N,{slash}WAIT*%
X90373200Y-59334400D02*
X81508600Y-59334400D01*
X98780600Y-59334400D02*
X96469200Y-59334400D01*
%TO.N,{slash}DB3*%
X79307900Y-70789800D02*
X90516500Y-70789800D01*
%TO.N,{slash}DB8*%
X90483900Y-77183400D02*
X81619300Y-77183400D01*
%TO.N,{slash}DB1*%
X79188100Y-68249800D02*
X90465700Y-68249800D01*
%TO.N,{slash}DB2*%
X95190100Y-70789800D02*
X91634100Y-70789800D01*
%TO.N,{slash}INT1*%
X96520000Y-133028900D02*
X95284500Y-134264400D01*
%TO.N,{slash}DB7*%
X78037900Y-77183400D02*
X79342400Y-75878900D01*
%TO.N,{slash}DREQ1*%
X79342400Y-136838900D02*
X90551000Y-136838900D01*
%TO.N,{slash}BOUT*%
X79213500Y-88595200D02*
X90491100Y-88595200D01*
%TO.N,{slash}A11*%
X76454000Y-107688800D02*
X77952600Y-107688800D01*
%TO.N,{slash}IOWR*%
X77943500Y-84794300D02*
X79213500Y-83524300D01*
%TO.N,{slash}A14*%
X96409300Y-110185200D02*
X95139300Y-111455200D01*
%TO.N,{slash}CLEAR*%
X91643200Y-55533500D02*
X90373200Y-54263500D01*
%TO.N,BP12*%
X90458500Y-56838000D02*
X81593900Y-56838000D01*
%TO.N,READY*%
X79197200Y-58064400D02*
X90474800Y-58064400D01*
%TO.N,GND*%
X98796900Y-145754300D02*
X96485500Y-145754300D01*
%TO.N,{slash}IO30*%
X91804700Y-122843500D02*
X93760500Y-122843500D01*
%TO.N,{slash}DREQ1*%
X90551000Y-136838900D02*
X91855500Y-138143400D01*
%TO.N,{slash}IO20*%
X79171800Y-118999000D02*
X90449400Y-118999000D01*
%TO.N,{slash}DREQ1*%
X91855500Y-138143400D02*
X93811300Y-138143400D01*
%TO.N,{slash}INT3*%
X76479400Y-133028900D02*
X77978000Y-133028900D01*
%TO.N,{slash}DACK3*%
X91719400Y-144449800D02*
X90483900Y-143214300D01*
%TO.N,{slash}HLDAK*%
X76454000Y-79679800D02*
X77952600Y-79679800D01*
%TO.N,{slash}DB1*%
X77918100Y-69519800D02*
X79188100Y-68249800D01*
%TO.N,{slash}BP68*%
X96520000Y-127958000D02*
X95284500Y-129193500D01*
%TO.N,{slash}BIN*%
X76530200Y-87368800D02*
X78028800Y-87368800D01*
%TO.N,{slash}BP59*%
X77987100Y-117772600D02*
X79291600Y-116468100D01*
%TO.N,READY*%
X91744800Y-59334400D02*
X93700600Y-59334400D01*
%TO.N,BP39*%
X90541900Y-91135200D02*
X91846400Y-92439700D01*
%TO.N,{slash}WAIT*%
X96469200Y-59334400D02*
X95199200Y-60604400D01*
%TO.N,{slash}BP59*%
X79291600Y-116468100D02*
X90500200Y-116468100D01*
%TO.N,{slash}DB0*%
X95309900Y-68258900D02*
X91684900Y-68258900D01*
%TO.N,{slash}A1*%
X91694000Y-94928900D02*
X93649800Y-94928900D01*
%TO.N,{slash}BP59*%
X91804700Y-117772600D02*
X93760500Y-117772600D01*
%TO.N,{slash}DREQ3*%
X90551000Y-141909800D02*
X91855500Y-143214300D01*
%TO.N,{slash}BP64*%
X96529100Y-122843500D02*
X95293600Y-124079000D01*
%TO.N,{slash}DACK0*%
X91668600Y-136838900D02*
X90398600Y-135568900D01*
%TO.N,{slash}DB8*%
X91719400Y-78418900D02*
X90483900Y-77183400D01*
%TO.N,PHI2*%
X77943500Y-145754300D02*
X79213500Y-144484300D01*
%TO.N,{slash}DB6*%
X96494600Y-74608900D02*
X95224600Y-75878900D01*
%TO.N,PHI2*%
X91761100Y-145754300D02*
X93716900Y-145754300D01*
%TO.N,{slash}IO60*%
X91668600Y-119008100D02*
X90433100Y-117772600D01*
X96529100Y-117772600D02*
X95293600Y-119008100D01*
%TO.N,{slash}BP64*%
X95293600Y-124079000D02*
X91668600Y-124079000D01*
%TO.N,{slash}DB6*%
X91668600Y-75878900D02*
X90398600Y-74608900D01*
%TO.N,{slash}IO30*%
X77987100Y-122843500D02*
X79291600Y-121539000D01*
%TO.N,{slash}HLDAK*%
X77952600Y-79679800D02*
X79222600Y-78409800D01*
%TO.N,{slash}BP66*%
X95164700Y-126653500D02*
X91608700Y-126653500D01*
%TO.N,{slash}DB1*%
X91735700Y-69519800D02*
X93691500Y-69519800D01*
%TO.N,PHI2*%
X76444900Y-145754300D02*
X77943500Y-145754300D01*
%TO.N,{slash}DB0*%
X98856800Y-67023400D02*
X96545400Y-67023400D01*
%TO.N,{slash}BP62*%
X98755200Y-120269000D02*
X96443800Y-120269000D01*
%TO.N,{slash}IO20*%
X77901800Y-120269000D02*
X79171800Y-118999000D01*
%TO.N,AUD*%
X76419500Y-64448900D02*
X77918100Y-64448900D01*
%TO.N,{slash}A1*%
X90424000Y-93658900D02*
X91694000Y-94928900D01*
%TO.N,{slash}REF*%
X90449400Y-113928100D02*
X91719400Y-115198100D01*
%TO.N,{slash}A9*%
X76368700Y-105114300D02*
X77867300Y-105114300D01*
%TO.N,{slash}IOWR*%
X79213500Y-83524300D02*
X90491100Y-83524300D01*
%TO.N,BP15*%
X78012500Y-61908900D02*
X79317000Y-60604400D01*
%TO.N,READY*%
X76428600Y-59334400D02*
X77927200Y-59334400D01*
%TO.N,BP15*%
X90525600Y-60604400D02*
X91830100Y-61908900D01*
%TO.N,{slash}WAIT*%
X95199200Y-60604400D02*
X91643200Y-60604400D01*
%TO.N,BP16*%
X95319000Y-63144400D02*
X91694000Y-63144400D01*
%TO.N,GND*%
X96485500Y-89865200D02*
X95215500Y-91135200D01*
%TO.N,{slash}EOF*%
X91795600Y-127958000D02*
X93751400Y-127958000D01*
%TO.N,{slash}BIN*%
X78028800Y-87368800D02*
X79333300Y-86064300D01*
%TO.N,{slash}BP62*%
X91617800Y-121539000D02*
X90347800Y-120269000D01*
%TO.N,READY*%
X77927200Y-59334400D02*
X79197200Y-58064400D01*
%TO.N,{slash}IORD*%
X78037900Y-82254300D02*
X79342400Y-80949800D01*
%TO.N,{slash}MEMRD*%
X95224600Y-80949800D02*
X91668600Y-80949800D01*
%TO.N,{slash}DB4*%
X91684900Y-73329800D02*
X90449400Y-72094300D01*
%TO.N,{slash}DACK1*%
X90483900Y-138143400D02*
X81619300Y-138143400D01*
%TO.N,BP19*%
X90516500Y-65718900D02*
X91821000Y-67023400D01*
%TO.N,{slash}BP68*%
X95284500Y-129193500D02*
X91659500Y-129193500D01*
%TO.N,{slash}IOWR*%
X76444900Y-84794300D02*
X77943500Y-84794300D01*
%TO.N,{slash}INT3*%
X79282500Y-131724400D02*
X90491100Y-131724400D01*
%TO.N,{slash}DACK2*%
X91668600Y-141909800D02*
X90398600Y-140639800D01*
%TO.N,{slash}A8*%
X91643200Y-103809800D02*
X90407700Y-102574300D01*
%TO.N,{slash}IO40*%
X76394100Y-125383500D02*
X77892700Y-125383500D01*
%TO.N,{slash}DACK2*%
X96494600Y-140639800D02*
X95224600Y-141909800D01*
%TO.N,{slash}BIN*%
X79333300Y-86064300D02*
X90541900Y-86064300D01*
%TO.N,BP15*%
X79317000Y-60604400D02*
X90525600Y-60604400D01*
%TO.N,{slash}BOUT*%
X91761100Y-89865200D02*
X93716900Y-89865200D01*
%TO.N,BP9*%
X76428600Y-54263500D02*
X77927200Y-54263500D01*
%TO.N,{slash}TC*%
X96494600Y-112759700D02*
X95259100Y-113995200D01*
%TO.N,{slash}DREQ2*%
X90500200Y-139369800D02*
X91770200Y-140639800D01*
%TO.N,BP15*%
X76513900Y-61908900D02*
X78012500Y-61908900D01*
%TO.N,{slash}DB8*%
X95344400Y-78418900D02*
X91719400Y-78418900D01*
%TO.N,{slash}A3*%
X91779300Y-97503400D02*
X93735100Y-97503400D01*
%TO.N,{slash}DB0*%
X91684900Y-68258900D02*
X90449400Y-67023400D01*
%TO.N,BP16*%
X96554500Y-61908900D02*
X95319000Y-63144400D01*
%TO.N,{slash}DREQ0*%
X77952600Y-135568900D02*
X79222600Y-134298900D01*
%TO.N,{slash}IO30*%
X76488500Y-122843500D02*
X77987100Y-122843500D01*
%TO.N,{slash}A0*%
X98882200Y-92439700D02*
X96570800Y-92439700D01*
%TO.N,BP39*%
X78028800Y-92439700D02*
X79333300Y-91135200D01*
%TO.N,BP19*%
X91821000Y-67023400D02*
X93776800Y-67023400D01*
%TO.N,GND*%
X90389500Y-89865200D02*
X81524900Y-89865200D01*
%TO.N,{slash}BP64*%
X98840500Y-122843500D02*
X96529100Y-122843500D01*
%TO.N,{slash}DB2*%
X90364100Y-69519800D02*
X81499500Y-69519800D01*
%TO.N,{slash}DREQ0*%
X90500200Y-134298900D02*
X91770200Y-135568900D01*
%TO.N,{slash}DB7*%
X76539300Y-77183400D02*
X78037900Y-77183400D01*
%TO.N,{slash}IORD*%
X79342400Y-80949800D02*
X90551000Y-80949800D01*
%TO.N,{slash}CLEAR*%
X90373200Y-54263500D02*
X81508600Y-54263500D01*
%TO.N,{slash}BP70*%
X98746100Y-130454400D02*
X96434700Y-130454400D01*
%TO.N,{slash}A11*%
X79257100Y-106384300D02*
X90465700Y-106384300D01*
%TO.N,{slash}RESET*%
X78012500Y-56838000D02*
X79317000Y-55533500D01*
%TO.N,{slash}PE*%
X96443800Y-115198100D02*
X95173800Y-116468100D01*
%TO.N,BP9*%
X90474800Y-52993500D02*
X91744800Y-54263500D01*
%TO.N,{slash}DB6*%
X90398600Y-74608900D02*
X81534000Y-74608900D01*
%TO.N,{slash}DREQ0*%
X79222600Y-134298900D02*
X90500200Y-134298900D01*
%TO.N,{slash}MEMWR*%
X91719400Y-83489800D02*
X90483900Y-82254300D01*
%TO.N,{slash}REF*%
X77901800Y-115198100D02*
X79171800Y-113928100D01*
%TO.N,{slash}CLEAR*%
X96469200Y-54263500D02*
X95199200Y-55533500D01*
%TO.N,{slash}DREQ3*%
X79342400Y-141909800D02*
X90551000Y-141909800D01*
%TO.N,GND*%
X91710300Y-88604300D02*
X90474800Y-87368800D01*
%TO.N,{slash}A15*%
X90465700Y-111455200D02*
X91770200Y-112759700D01*
%TO.N,{slash}DREQ2*%
X91770200Y-140639800D02*
X93726000Y-140639800D01*
%TO.N,{slash}IO20*%
X91719400Y-120269000D02*
X93675200Y-120269000D01*
%TO.N,{slash}HLDAK*%
X90500200Y-78409800D02*
X91770200Y-79679800D01*
%TO.N,{slash}A14*%
X90313300Y-110185200D02*
X81448700Y-110185200D01*
%TO.N,{slash}IO40*%
X90440300Y-124113500D02*
X91710300Y-125383500D01*
%TO.N,{slash}DACK3*%
X95344400Y-144449800D02*
X91719400Y-144449800D01*
%TO.N,{slash}A4*%
X91643200Y-98738900D02*
X90407700Y-97503400D01*
%TO.N,{slash}A11*%
X90465700Y-106384300D02*
X91770200Y-107688800D01*
%TO.N,{slash}DACK2*%
X98806000Y-140639800D02*
X96494600Y-140639800D01*
%TO.N,{slash}HLDAK*%
X91770200Y-79679800D02*
X93726000Y-79679800D01*
%TO.N,GND*%
X98882200Y-87368800D02*
X96570800Y-87368800D01*
%TO.N,{slash}A14*%
X95139300Y-111455200D02*
X91583300Y-111455200D01*
%TO.N,GND*%
X95335300Y-88604300D02*
X91710300Y-88604300D01*
%TO.N,{slash}EOF*%
X79282500Y-126653500D02*
X90491100Y-126653500D01*
%TO.N,{slash}A13*%
X90414900Y-108915200D02*
X91684900Y-110185200D01*
%TO.N,{slash}A2*%
X90322400Y-94928900D02*
X81457800Y-94928900D01*
%TO.N,BP16*%
X98865900Y-61908900D02*
X96554500Y-61908900D01*
%TO.N,{slash}BOUT*%
X76444900Y-89865200D02*
X77943500Y-89865200D01*
%TO.N,{slash}BP70*%
X95164700Y-131724400D02*
X91608700Y-131724400D01*
%TO.N,{slash}A15*%
X76454000Y-112759700D02*
X77952600Y-112759700D01*
%TO.N,{slash}RESET*%
X91830100Y-56838000D02*
X93785900Y-56838000D01*
%TO.N,{slash}A4*%
X95268200Y-98738900D02*
X91643200Y-98738900D01*
%TO.N,{slash}A12*%
X96494600Y-107688800D02*
X95259100Y-108924300D01*
%TO.N,{slash}A11*%
X77952600Y-107688800D02*
X79257100Y-106384300D01*
%TO.N,PHI2*%
X90491100Y-144484300D02*
X91761100Y-145754300D01*
%TO.N,{slash}A12*%
X90398600Y-107688800D02*
X81534000Y-107688800D01*
%TO.N,{slash}A8*%
X90407700Y-102574300D02*
X81543100Y-102574300D01*
%TO.N,{slash}A3*%
X79266200Y-96198900D02*
X90474800Y-96198900D01*
%TO.N,{slash}A9*%
X77867300Y-105114300D02*
X79137300Y-103844300D01*
%TO.N,{slash}A5*%
X77876400Y-99999800D02*
X79146400Y-98729800D01*
%TO.N,{slash}PE*%
X95173800Y-116468100D02*
X91617800Y-116468100D01*
%TO.N,{slash}IOWR*%
X90491100Y-83524300D02*
X91761100Y-84794300D01*
%TO.N,AUD*%
X91735700Y-64448900D02*
X93691500Y-64448900D01*
%TO.N,{slash}MEMWR*%
X98891300Y-82254300D02*
X96579900Y-82254300D01*
%TO.N,{slash}BP64*%
X91668600Y-124079000D02*
X90433100Y-122843500D01*
%TO.N,{slash}DB6*%
X98806000Y-74608900D02*
X96494600Y-74608900D01*
%TO.N,{slash}A4*%
X90407700Y-97503400D02*
X81543100Y-97503400D01*
%TO.N,BP12*%
X98865900Y-56838000D02*
X96554500Y-56838000D01*
%TO.N,BP18*%
X96460100Y-64448900D02*
X95190100Y-65718900D01*
%TO.N,{slash}A6*%
X90322400Y-99999800D02*
X81457800Y-99999800D01*
%TO.N,{slash}BP62*%
X90347800Y-120269000D02*
X81483200Y-120269000D01*
%TO.N,{slash}BP70*%
X90338700Y-130454400D02*
X81474100Y-130454400D01*
%TO.N,{slash}A11*%
X91770200Y-107688800D02*
X93726000Y-107688800D01*
%TO.N,{slash}DACK3*%
X96579900Y-143214300D02*
X95344400Y-144449800D01*
%TO.N,{slash}DACK0*%
X95224600Y-136838900D02*
X91668600Y-136838900D01*
%TO.N,{slash}IO40*%
X77892700Y-125383500D02*
X79162700Y-124113500D01*
%TO.N,BP16*%
X91694000Y-63144400D02*
X90458500Y-61908900D01*
%TO.N,{slash}DB3*%
X76504800Y-72094300D02*
X78003400Y-72094300D01*
X78003400Y-72094300D02*
X79307900Y-70789800D01*
%TO.N,{slash}INT4*%
X79162700Y-129184400D02*
X90440300Y-129184400D01*
%TO.N,{slash}REF*%
X91719400Y-115198100D02*
X93675200Y-115198100D01*
%TO.N,{slash}DACK0*%
X90398600Y-135568900D02*
X81534000Y-135568900D01*
%TO.N,{slash}IO60*%
X98840500Y-117772600D02*
X96529100Y-117772600D01*
%TO.N,{slash}A6*%
X96418400Y-99999800D02*
X95148400Y-101269800D01*
%TO.N,{slash}EOF*%
X77978000Y-127958000D02*
X79282500Y-126653500D01*
%TO.N,{slash}TC*%
X95259100Y-113995200D02*
X91634100Y-113995200D01*
%TO.N,{slash}DB2*%
X98771500Y-69519800D02*
X96460100Y-69519800D01*
%TO.N,BP19*%
X78003400Y-67023400D02*
X79307900Y-65718900D01*
%TO.N,{slash}BIN*%
X91846400Y-87368800D02*
X93802200Y-87368800D01*
%TO.N,BP12*%
X91694000Y-58073500D02*
X90458500Y-56838000D01*
%TO.N,{slash}DB1*%
X76419500Y-69519800D02*
X77918100Y-69519800D01*
%TO.N,BP39*%
X91846400Y-92439700D02*
X93802200Y-92439700D01*
%TO.N,{slash}DB0*%
X96545400Y-67023400D02*
X95309900Y-68258900D01*
%TO.N,{slash}A1*%
X77876400Y-94928900D02*
X79146400Y-93658900D01*
%TO.N,{slash}PE*%
X91617800Y-116468100D02*
X90347800Y-115198100D01*
%TO.N,{slash}MEMWR*%
X95344400Y-83489800D02*
X91719400Y-83489800D01*
%TO.N,{slash}DB2*%
X96460100Y-69519800D02*
X95190100Y-70789800D01*
%TO.N,{slash}DB1*%
X90465700Y-68249800D02*
X91735700Y-69519800D01*
%TO.N,{slash}REF*%
X76403200Y-115198100D02*
X77901800Y-115198100D01*
%TO.N,{slash}A10*%
X90313300Y-105114300D02*
X81448700Y-105114300D01*
X98720700Y-105114300D02*
X96409300Y-105114300D01*
%TO.N,BP39*%
X79333300Y-91135200D02*
X90541900Y-91135200D01*
%TO.N,BP18*%
X98771500Y-64448900D02*
X96460100Y-64448900D01*
%TO.N,{slash}DB4*%
X96545400Y-72094300D02*
X95309900Y-73329800D01*
X95309900Y-73329800D02*
X91684900Y-73329800D01*
%TO.N,{slash}A15*%
X77952600Y-112759700D02*
X79257100Y-111455200D01*
%TO.N,{slash}A3*%
X90474800Y-96198900D02*
X91779300Y-97503400D01*
%TO.N,GND*%
X90389500Y-145754300D02*
X81524900Y-145754300D01*
%TO.N,{slash}BIN*%
X90541900Y-86064300D02*
X91846400Y-87368800D01*
%TO.N,{slash}A3*%
X77961700Y-97503400D02*
X79266200Y-96198900D01*
%TO.N,BP18*%
X90364100Y-64448900D02*
X81499500Y-64448900D01*
%TO.N,{slash}PE*%
X98755200Y-115198100D02*
X96443800Y-115198100D01*
%TO.N,{slash}BOUT*%
X90491100Y-88595200D02*
X91761100Y-89865200D01*
%TO.N,{slash}A7*%
X91779300Y-102574300D02*
X93735100Y-102574300D01*
%TO.N,{slash}A2*%
X95148400Y-96198900D02*
X91592400Y-96198900D01*
%TO.N,{slash}A15*%
X91770200Y-112759700D02*
X93726000Y-112759700D01*
%TO.N,{slash}A8*%
X98815100Y-102574300D02*
X96503700Y-102574300D01*
%TO.N,{slash}INT1*%
X90424000Y-133028900D02*
X81559400Y-133028900D01*
%TO.N,{slash}DREQ3*%
X76539300Y-143214300D02*
X78037900Y-143214300D01*
%TO.N,{slash}EOF*%
X90491100Y-126653500D02*
X91795600Y-127958000D01*
%TO.N,{slash}INT4*%
X91710300Y-130454400D02*
X93666100Y-130454400D01*
%TO.N,{slash}DB5*%
X90500200Y-73338900D02*
X91770200Y-74608900D01*
%TO.N,{slash}MEMRD*%
X96494600Y-79679800D02*
X95224600Y-80949800D01*
%TO.N,{slash}DREQ0*%
X76454000Y-135568900D02*
X77952600Y-135568900D01*
%TO.N,{slash}A13*%
X91684900Y-110185200D02*
X93640700Y-110185200D01*
%TO.N,{slash}DB7*%
X79342400Y-75878900D02*
X90551000Y-75878900D01*
%TO.N,GND*%
X95215500Y-91135200D02*
X91659500Y-91135200D01*
%TO.N,{slash}A0*%
X90474800Y-92439700D02*
X81610200Y-92439700D01*
%TO.N,{slash}EOF*%
X76479400Y-127958000D02*
X77978000Y-127958000D01*
%TO.N,{slash}DB0*%
X90449400Y-67023400D02*
X81584800Y-67023400D01*
%TO.N,{slash}TC*%
X90398600Y-112759700D02*
X81534000Y-112759700D01*
%TO.N,{slash}INT3*%
X77978000Y-133028900D02*
X79282500Y-131724400D01*
%TO.N,{slash}A6*%
X95148400Y-101269800D02*
X91592400Y-101269800D01*
%TO.N,{slash}DREQ1*%
X76539300Y-138143400D02*
X78037900Y-138143400D01*
%TO.N,GND*%
X96485500Y-84794300D02*
X95215500Y-86064300D01*
%TO.N,{slash}DB7*%
X90551000Y-75878900D02*
X91855500Y-77183400D01*
%TO.N,{slash}A13*%
X79137300Y-108915200D02*
X90414900Y-108915200D01*
%TO.N,{slash}RESET*%
X76513900Y-56838000D02*
X78012500Y-56838000D01*
%TO.N,{slash}DB5*%
X79222600Y-73338900D02*
X90500200Y-73338900D01*
X91770200Y-74608900D02*
X93726000Y-74608900D01*
%TO.N,{slash}INT1*%
X95284500Y-134264400D02*
X91659500Y-134264400D01*
%TO.N,{slash}A2*%
X91592400Y-96198900D02*
X90322400Y-94928900D01*
%TO.N,BP18*%
X95190100Y-65718900D02*
X91634100Y-65718900D01*
%TO.N,{slash}A10*%
X95139300Y-106384300D02*
X91583300Y-106384300D01*
%TO.N,{slash}A7*%
X76463100Y-102574300D02*
X77961700Y-102574300D01*
%TO.N,{slash}A12*%
X98806000Y-107688800D02*
X96494600Y-107688800D01*
%TO.N,{slash}A5*%
X76377800Y-99999800D02*
X77876400Y-99999800D01*
%TO.N,{slash}A4*%
X98815100Y-97503400D02*
X96503700Y-97503400D01*
%TO.N,{slash}DACK1*%
X91719400Y-139378900D02*
X90483900Y-138143400D01*
%TO.N,{slash}BP68*%
X90424000Y-127958000D02*
X81559400Y-127958000D01*
%TO.N,{slash}HLDAK*%
X79222600Y-78409800D02*
X90500200Y-78409800D01*
%TO.N,{slash}BP68*%
X98831400Y-127958000D02*
X96520000Y-127958000D01*
%TO.N,{slash}RESET*%
X79317000Y-55533500D02*
X90525600Y-55533500D01*
%TO.N,{slash}BOUT*%
X77943500Y-89865200D02*
X79213500Y-88595200D01*
%TO.N,{slash}A13*%
X76368700Y-110185200D02*
X77867300Y-110185200D01*
%TO.N,{slash}DACK2*%
X90398600Y-140639800D02*
X81534000Y-140639800D01*
%TO.N,{slash}MEMRD*%
X98806000Y-79679800D02*
X96494600Y-79679800D01*
%TO.N,{slash}A8*%
X95268200Y-103809800D02*
X91643200Y-103809800D01*
%TO.N,{slash}DACK1*%
X98891300Y-138143400D02*
X96579900Y-138143400D01*
%TO.N,{slash}BP70*%
X91608700Y-131724400D02*
X90338700Y-130454400D01*
%TO.N,{slash}INT4*%
X77892700Y-130454400D02*
X79162700Y-129184400D01*
%TO.N,GND*%
X91659500Y-91135200D02*
X90389500Y-89865200D01*
%TO.N,{slash}MEMWR*%
X96579900Y-82254300D02*
X95344400Y-83489800D01*
%TO.N,{slash}MEMRD*%
X91668600Y-80949800D02*
X90398600Y-79679800D01*
%TO.N,{slash}PE*%
X90347800Y-115198100D02*
X81483200Y-115198100D01*
%TO.N,{slash}A10*%
X91583300Y-106384300D02*
X90313300Y-105114300D01*
%TO.N,BP18*%
X91634100Y-65718900D02*
X90364100Y-64448900D01*
%TO.N,{slash}TC*%
X91634100Y-113995200D02*
X90398600Y-112759700D01*
%TO.N,{slash}INT1*%
X91659500Y-134264400D02*
X90424000Y-133028900D01*
%TO.N,{slash}BP64*%
X90433100Y-122843500D02*
X81568500Y-122843500D01*
%TO.N,{slash}IORD*%
X90551000Y-80949800D02*
X91855500Y-82254300D01*
%TO.N,{slash}DACK0*%
X98806000Y-135568900D02*
X96494600Y-135568900D01*
%TO.N,GND*%
X98796900Y-84794300D02*
X96485500Y-84794300D01*
X90389500Y-84794300D02*
X81524900Y-84794300D01*
%TO.N,AUD*%
X79188100Y-63178900D02*
X90465700Y-63178900D01*
%TO.N,{slash}A1*%
X79146400Y-93658900D02*
X90424000Y-93658900D01*
%TO.N,{slash}DB2*%
X91634100Y-70789800D02*
X90364100Y-69519800D01*
%TO.N,{slash}DB8*%
X96579900Y-77183400D02*
X95344400Y-78418900D01*
%TO.N,{slash}DB4*%
X90449400Y-72094300D02*
X81584800Y-72094300D01*
%TO.N,{slash}IO30*%
X79291600Y-121539000D02*
X90500200Y-121539000D01*
%TO.N,{slash}A8*%
X96503700Y-102574300D02*
X95268200Y-103809800D01*
%TO.N,{slash}DACK1*%
X96579900Y-138143400D02*
X95344400Y-139378900D01*
%TO.N,{slash}TC*%
X98806000Y-112759700D02*
X96494600Y-112759700D01*
%TO.N,{slash}BP59*%
X90500200Y-116468100D02*
X91804700Y-117772600D01*
%TO.N,{slash}DB8*%
X98891300Y-77183400D02*
X96579900Y-77183400D01*
%TO.N,{slash}BP66*%
X98746100Y-125383500D02*
X96434700Y-125383500D01*
%TO.N,{slash}IO20*%
X90449400Y-118999000D02*
X91719400Y-120269000D01*
%TO.N,{slash}DB3*%
X90516500Y-70789800D02*
X91821000Y-72094300D01*
%TO.N,{slash}A6*%
X91592400Y-101269800D02*
X90322400Y-99999800D01*
%TO.N,{slash}IORD*%
X91855500Y-82254300D02*
X93811300Y-82254300D01*
%TO.N,{slash}A4*%
X96503700Y-97503400D02*
X95268200Y-98738900D01*
%TO.N,{slash}IORD*%
X76539300Y-82254300D02*
X78037900Y-82254300D01*
%TO.N,BP15*%
X91830100Y-61908900D02*
X93785900Y-61908900D01*
%TO.N,{slash}A7*%
X77961700Y-102574300D02*
X79266200Y-101269800D01*
%TO.N,{slash}BP68*%
X91659500Y-129193500D02*
X90424000Y-127958000D01*
%TO.N,{slash}DREQ2*%
X79222600Y-139369800D02*
X90500200Y-139369800D01*
%TO.N,GND*%
X91659500Y-147024300D02*
X90389500Y-145754300D01*
X95215500Y-147024300D02*
X91659500Y-147024300D01*
X96570800Y-87368800D02*
X95335300Y-88604300D01*
%TO.N,{slash}IOWR*%
X91761100Y-84794300D02*
X93716900Y-84794300D01*
%TO.N,{slash}INT1*%
X98831400Y-133028900D02*
X96520000Y-133028900D01*
%TO.N,BP12*%
X96554500Y-56838000D02*
X95319000Y-58073500D01*
%TO.N,{slash}DREQ3*%
X91855500Y-143214300D02*
X93811300Y-143214300D01*
%TO.N,{slash}INT3*%
X91795600Y-133028900D02*
X93751400Y-133028900D01*
%TO.N,{slash}A13*%
X77867300Y-110185200D02*
X79137300Y-108915200D01*
%TO.N,{slash}DACK0*%
X96494600Y-135568900D02*
X95224600Y-136838900D01*
%TO.N,{slash}A1*%
X76377800Y-94928900D02*
X77876400Y-94928900D01*
%TO.N,{slash}A7*%
X79266200Y-101269800D02*
X90474800Y-101269800D01*
%TO.N,GND*%
X91659500Y-86064300D02*
X90389500Y-84794300D01*
%TO.N,BP19*%
X76504800Y-67023400D02*
X78003400Y-67023400D01*
X79307900Y-65718900D02*
X90516500Y-65718900D01*
%TO.N,{slash}IO60*%
X90433100Y-117772600D02*
X81568500Y-117772600D01*
%TO.N,{slash}A12*%
X91634100Y-108924300D02*
X90398600Y-107688800D01*
%TO.N,-5V*%
X93700600Y-153323500D02*
X81508600Y-153323500D01*
%TO.N,{slash}A14*%
X91583300Y-111455200D02*
X90313300Y-110185200D01*
%TO.N,{slash}A9*%
X91684900Y-105114300D02*
X93640700Y-105114300D01*
%TO.N,BP9*%
X79197200Y-52993500D02*
X90474800Y-52993500D01*
%TO.N,{slash}BP59*%
X76488500Y-117772600D02*
X77987100Y-117772600D01*
%TO.N,AUD*%
X77918100Y-64448900D02*
X79188100Y-63178900D01*
%TO.N,{slash}DB5*%
X76454000Y-74608900D02*
X77952600Y-74608900D01*
%TO.N,-5V*%
X81508600Y-153323500D02*
X76428600Y-153323500D01*
%TO.N,GND*%
X98796900Y-89865200D02*
X96485500Y-89865200D01*
%TO.N,{slash}A14*%
X98720700Y-110185200D02*
X96409300Y-110185200D01*
%TO.N,{slash}DREQ3*%
X78037900Y-143214300D02*
X79342400Y-141909800D01*
%TO.N,{slash}A0*%
X91710300Y-93675200D02*
X90474800Y-92439700D01*
%TO.N,BP39*%
X76530200Y-92439700D02*
X78028800Y-92439700D01*
%TO.N,{slash}A5*%
X91694000Y-99999800D02*
X93649800Y-99999800D01*
%TO.N,{slash}A2*%
X96418400Y-94928900D02*
X95148400Y-96198900D01*
%TO.N,{slash}DB5*%
X77952600Y-74608900D02*
X79222600Y-73338900D01*
%TO.N,{slash}IO60*%
X95293600Y-119008100D02*
X91668600Y-119008100D01*
%TO.N,PHI2*%
X79213500Y-144484300D02*
X90491100Y-144484300D01*
%TO.N,-5V*%
X76454000Y-153339800D02*
X64262000Y-153339800D01*
X81534000Y-153339800D02*
X76454000Y-153339800D01*
%TO.N,GND*%
X64262000Y-150799800D02*
X72593200Y-150799800D01*
X72593200Y-150799800D02*
X73932200Y-152138800D01*
X73932200Y-152138800D02*
X78188400Y-152138800D01*
%TO.N,{slash}BP85*%
X76454000Y-150799800D02*
X74041000Y-150799800D01*
X74041000Y-150799800D02*
X72840000Y-149598800D01*
X72840000Y-149598800D02*
X62618200Y-149598800D01*
X61417200Y-150799800D02*
X59182000Y-150799800D01*
X62618200Y-149598800D02*
X61417200Y-150799800D01*
%TO.N,-5V*%
X64262000Y-153339800D02*
X59182000Y-153339800D01*
%TO.N,{slash}BP83*%
X60782200Y-148345100D02*
X62086700Y-147040600D01*
%TO.N,{slash}DREQ2*%
X59207400Y-140656100D02*
X60706000Y-140656100D01*
%TO.N,GND*%
X74412900Y-147040600D02*
X73142900Y-145770600D01*
X73142900Y-145770600D02*
X64278300Y-145770600D01*
%TO.N,{slash}DACK2*%
X79248000Y-140656100D02*
X77978000Y-141926100D01*
X77978000Y-141926100D02*
X74422000Y-141926100D01*
%TO.N,{slash}DREQ0*%
X61976000Y-134315200D02*
X73253600Y-134315200D01*
%TO.N,PHI2*%
X74514500Y-145770600D02*
X76470300Y-145770600D01*
%TO.N,GND*%
X79238900Y-145770600D02*
X77968900Y-147040600D01*
%TO.N,{slash}DREQ3*%
X73304400Y-141926100D02*
X74608900Y-143230600D01*
%TO.N,PHI2*%
X61966900Y-144500600D02*
X73244500Y-144500600D01*
%TO.N,{slash}DREQ3*%
X74608900Y-143230600D02*
X76564700Y-143230600D01*
%TO.N,{slash}DREQ2*%
X61976000Y-139386100D02*
X73253600Y-139386100D01*
%TO.N,{slash}DREQ1*%
X60791300Y-138159700D02*
X62095800Y-136855200D01*
X62095800Y-136855200D02*
X73304400Y-136855200D01*
X74608900Y-138159700D02*
X76564700Y-138159700D01*
%TO.N,{slash}DACK3*%
X79333300Y-143230600D02*
X78097800Y-144466100D01*
%TO.N,{slash}DACK1*%
X74472800Y-139395200D02*
X73237300Y-138159700D01*
X79333300Y-138159700D02*
X78097800Y-139395200D01*
%TO.N,{slash}DACK3*%
X78097800Y-144466100D02*
X74472800Y-144466100D01*
%TO.N,{slash}DREQ3*%
X60791300Y-143230600D02*
X62095800Y-141926100D01*
%TO.N,GND*%
X77968900Y-147040600D02*
X74412900Y-147040600D01*
%TO.N,{slash}DACK2*%
X81559400Y-140656100D02*
X79248000Y-140656100D01*
%TO.N,{slash}DREQ2*%
X60706000Y-140656100D02*
X61976000Y-139386100D01*
%TO.N,{slash}DREQ0*%
X73253600Y-134315200D02*
X74523600Y-135585200D01*
%TO.N,{slash}BP83*%
X74599800Y-148345100D02*
X76555600Y-148345100D01*
%TO.N,{slash}DACK2*%
X74422000Y-141926100D02*
X73152000Y-140656100D01*
%TO.N,PHI2*%
X59198300Y-145770600D02*
X60696900Y-145770600D01*
%TO.N,{slash}DREQ3*%
X59292700Y-143230600D02*
X60791300Y-143230600D01*
%TO.N,{slash}DACK3*%
X81644700Y-143230600D02*
X79333300Y-143230600D01*
%TO.N,{slash}DACK0*%
X79248000Y-135585200D02*
X77978000Y-136855200D01*
%TO.N,{slash}DREQ0*%
X60706000Y-135585200D02*
X61976000Y-134315200D01*
%TO.N,{slash}DREQ2*%
X74523600Y-140656100D02*
X76479400Y-140656100D01*
%TO.N,PHI2*%
X73244500Y-144500600D02*
X74514500Y-145770600D01*
%TO.N,{slash}BP83*%
X62086700Y-147040600D02*
X73295300Y-147040600D01*
%TO.N,{slash}DACK0*%
X77978000Y-136855200D02*
X74422000Y-136855200D01*
%TO.N,{slash}DACK3*%
X74472800Y-144466100D02*
X73237300Y-143230600D01*
%TO.N,{slash}DACK2*%
X73152000Y-140656100D02*
X64287400Y-140656100D01*
%TO.N,PHI2*%
X60696900Y-145770600D02*
X61966900Y-144500600D01*
%TO.N,{slash}DREQ0*%
X74523600Y-135585200D02*
X76479400Y-135585200D01*
%TO.N,{slash}DACK1*%
X81644700Y-138159700D02*
X79333300Y-138159700D01*
%TO.N,{slash}DACK0*%
X74422000Y-136855200D02*
X73152000Y-135585200D01*
%TO.N,{slash}DREQ0*%
X59207400Y-135585200D02*
X60706000Y-135585200D01*
%TO.N,{slash}DACK0*%
X81559400Y-135585200D02*
X79248000Y-135585200D01*
%TO.N,{slash}BP83*%
X73295300Y-147040600D02*
X74599800Y-148345100D01*
X59283600Y-148345100D02*
X60782200Y-148345100D01*
%TO.N,{slash}DACK0*%
X73152000Y-135585200D02*
X64287400Y-135585200D01*
%TO.N,{slash}DACK3*%
X73237300Y-143230600D02*
X64372700Y-143230600D01*
%TO.N,{slash}DREQ3*%
X62095800Y-141926100D02*
X73304400Y-141926100D01*
%TO.N,{slash}DREQ1*%
X73304400Y-136855200D02*
X74608900Y-138159700D01*
%TO.N,GND*%
X81550300Y-145770600D02*
X79238900Y-145770600D01*
%TO.N,{slash}DREQ2*%
X73253600Y-139386100D02*
X74523600Y-140656100D01*
%TO.N,{slash}DACK1*%
X73237300Y-138159700D02*
X64372700Y-138159700D01*
%TO.N,{slash}DREQ1*%
X59292700Y-138159700D02*
X60791300Y-138159700D01*
%TO.N,{slash}DACK1*%
X78097800Y-139395200D02*
X74472800Y-139395200D01*
%TO.N,{slash}IO40*%
X73193700Y-124129800D02*
X74463700Y-125399800D01*
%TO.N,{slash}IO20*%
X73202800Y-119015300D02*
X74472800Y-120285300D01*
%TO.N,{slash}PE*%
X81508600Y-115214400D02*
X79197200Y-115214400D01*
%TO.N,{slash}IO20*%
X61925200Y-119015300D02*
X73202800Y-119015300D01*
%TO.N,{slash}BP68*%
X78037900Y-129209800D02*
X74412900Y-129209800D01*
%TO.N,{slash}BP59*%
X59241900Y-117788900D02*
X60740500Y-117788900D01*
%TO.N,{slash}BP62*%
X81508600Y-120285300D02*
X79197200Y-120285300D01*
%TO.N,{slash}IO30*%
X73253600Y-121555300D02*
X74558100Y-122859800D01*
%TO.N,{slash}IO40*%
X61916100Y-124129800D02*
X73193700Y-124129800D01*
%TO.N,{slash}INT3*%
X62035900Y-131740700D02*
X73244500Y-131740700D01*
%TO.N,{slash}BP66*%
X79188100Y-125399800D02*
X77918100Y-126669800D01*
%TO.N,{slash}EOF*%
X59232800Y-127974300D02*
X60731400Y-127974300D01*
%TO.N,{slash}BP70*%
X79188100Y-130470700D02*
X77918100Y-131740700D01*
%TO.N,{slash}REF*%
X74472800Y-115214400D02*
X76428600Y-115214400D01*
X73202800Y-113944400D02*
X74472800Y-115214400D01*
%TO.N,{slash}IO40*%
X59147500Y-125399800D02*
X60646100Y-125399800D01*
%TO.N,{slash}BP64*%
X74422000Y-124095300D02*
X73186500Y-122859800D01*
%TO.N,{slash}INT1*%
X79273400Y-133045200D02*
X78037900Y-134280700D01*
%TO.N,{slash}BP59*%
X74558100Y-117788900D02*
X76513900Y-117788900D01*
%TO.N,{slash}EOF*%
X62035900Y-126669800D02*
X73244500Y-126669800D01*
%TO.N,{slash}INT3*%
X73244500Y-131740700D02*
X74549000Y-133045200D01*
%TO.N,{slash}BP70*%
X73092100Y-130470700D02*
X64227500Y-130470700D01*
%TO.N,{slash}IO60*%
X74422000Y-119024400D02*
X73186500Y-117788900D01*
%TO.N,{slash}EOF*%
X73244500Y-126669800D02*
X74549000Y-127974300D01*
%TO.N,{slash}BP70*%
X77918100Y-131740700D02*
X74362100Y-131740700D01*
%TO.N,{slash}INT4*%
X73193700Y-129200700D02*
X74463700Y-130470700D01*
%TO.N,{slash}PE*%
X73101200Y-115214400D02*
X64236600Y-115214400D01*
%TO.N,{slash}INT3*%
X59232800Y-133045200D02*
X60731400Y-133045200D01*
%TO.N,{slash}IO60*%
X78047000Y-119024400D02*
X74422000Y-119024400D01*
%TO.N,{slash}BP68*%
X79273400Y-127974300D02*
X78037900Y-129209800D01*
%TO.N,{slash}EOF*%
X60731400Y-127974300D02*
X62035900Y-126669800D01*
%TO.N,{slash}BP68*%
X73177400Y-127974300D02*
X64312800Y-127974300D01*
%TO.N,{slash}BP64*%
X73186500Y-122859800D02*
X64321900Y-122859800D01*
%TO.N,{slash}BP59*%
X62045000Y-116484400D02*
X73253600Y-116484400D01*
%TO.N,{slash}IO40*%
X60646100Y-125399800D02*
X61916100Y-124129800D01*
%TO.N,{slash}IO20*%
X60655200Y-120285300D02*
X61925200Y-119015300D01*
%TO.N,{slash}IO60*%
X73186500Y-117788900D02*
X64321900Y-117788900D01*
%TO.N,{slash}BP62*%
X73101200Y-120285300D02*
X64236600Y-120285300D01*
%TO.N,{slash}EOF*%
X74549000Y-127974300D02*
X76504800Y-127974300D01*
%TO.N,{slash}BP62*%
X79197200Y-120285300D02*
X77927200Y-121555300D01*
%TO.N,{slash}INT1*%
X78037900Y-134280700D02*
X74412900Y-134280700D01*
%TO.N,{slash}REF*%
X60655200Y-115214400D02*
X61925200Y-113944400D01*
%TO.N,{slash}BP66*%
X73092100Y-125399800D02*
X64227500Y-125399800D01*
X81499500Y-125399800D02*
X79188100Y-125399800D01*
%TO.N,{slash}INT3*%
X60731400Y-133045200D02*
X62035900Y-131740700D01*
%TO.N,{slash}BP59*%
X73253600Y-116484400D02*
X74558100Y-117788900D01*
X60740500Y-117788900D02*
X62045000Y-116484400D01*
%TO.N,{slash}IO30*%
X74558100Y-122859800D02*
X76513900Y-122859800D01*
%TO.N,{slash}PE*%
X77927200Y-116484400D02*
X74371200Y-116484400D01*
%TO.N,{slash}INT3*%
X74549000Y-133045200D02*
X76504800Y-133045200D01*
%TO.N,{slash}BP64*%
X81593900Y-122859800D02*
X79282500Y-122859800D01*
%TO.N,{slash}INT4*%
X74463700Y-130470700D02*
X76419500Y-130470700D01*
%TO.N,{slash}INT1*%
X73177400Y-133045200D02*
X64312800Y-133045200D01*
%TO.N,{slash}BP62*%
X77927200Y-121555300D02*
X74371200Y-121555300D01*
%TO.N,{slash}INT4*%
X61916100Y-129200700D02*
X73193700Y-129200700D01*
%TO.N,{slash}PE*%
X74371200Y-116484400D02*
X73101200Y-115214400D01*
%TO.N,{slash}BP66*%
X77918100Y-126669800D02*
X74362100Y-126669800D01*
%TO.N,{slash}IO30*%
X59241900Y-122859800D02*
X60740500Y-122859800D01*
%TO.N,{slash}BP68*%
X81584800Y-127974300D02*
X79273400Y-127974300D01*
%TO.N,{slash}IO20*%
X59156600Y-120285300D02*
X60655200Y-120285300D01*
%TO.N,{slash}IO60*%
X81593900Y-117788900D02*
X79282500Y-117788900D01*
%TO.N,{slash}INT4*%
X59147500Y-130470700D02*
X60646100Y-130470700D01*
%TO.N,{slash}BP64*%
X78047000Y-124095300D02*
X74422000Y-124095300D01*
%TO.N,{slash}BP66*%
X74362100Y-126669800D02*
X73092100Y-125399800D01*
%TO.N,{slash}INT1*%
X74412900Y-134280700D02*
X73177400Y-133045200D01*
%TO.N,{slash}REF*%
X61925200Y-113944400D02*
X73202800Y-113944400D01*
%TO.N,{slash}BP64*%
X79282500Y-122859800D02*
X78047000Y-124095300D01*
%TO.N,{slash}INT1*%
X81584800Y-133045200D02*
X79273400Y-133045200D01*
%TO.N,{slash}BP62*%
X74371200Y-121555300D02*
X73101200Y-120285300D01*
%TO.N,{slash}IO60*%
X79282500Y-117788900D02*
X78047000Y-119024400D01*
%TO.N,{slash}IO30*%
X60740500Y-122859800D02*
X62045000Y-121555300D01*
%TO.N,{slash}INT4*%
X60646100Y-130470700D02*
X61916100Y-129200700D01*
%TO.N,{slash}REF*%
X59156600Y-115214400D02*
X60655200Y-115214400D01*
%TO.N,{slash}IO30*%
X62045000Y-121555300D02*
X73253600Y-121555300D01*
%TO.N,{slash}BP68*%
X74412900Y-129209800D02*
X73177400Y-127974300D01*
%TO.N,{slash}BP70*%
X74362100Y-131740700D02*
X73092100Y-130470700D01*
%TO.N,{slash}IO40*%
X74463700Y-125399800D02*
X76419500Y-125399800D01*
%TO.N,{slash}BP70*%
X81499500Y-130470700D02*
X79188100Y-130470700D01*
%TO.N,{slash}IO20*%
X74472800Y-120285300D02*
X76428600Y-120285300D01*
%TO.N,{slash}PE*%
X79197200Y-115214400D02*
X77927200Y-116484400D01*
%TO.N,{slash}A12*%
X73152000Y-107705100D02*
X64287400Y-107705100D01*
%TO.N,{slash}A3*%
X74532700Y-97519700D02*
X76488500Y-97519700D01*
%TO.N,{slash}A8*%
X73161100Y-102590600D02*
X64296500Y-102590600D01*
%TO.N,{slash}A10*%
X77892700Y-106400600D02*
X74336700Y-106400600D01*
%TO.N,{slash}TC*%
X78012500Y-114011500D02*
X74387500Y-114011500D01*
%TO.N,{slash}A6*%
X73075800Y-100016100D02*
X64211200Y-100016100D01*
%TO.N,{slash}A2*%
X77901800Y-96215200D02*
X74345800Y-96215200D01*
%TO.N,{slash}TC*%
X79248000Y-112776000D02*
X78012500Y-114011500D01*
%TO.N,{slash}A4*%
X73161100Y-97519700D02*
X64296500Y-97519700D01*
%TO.N,{slash}A3*%
X60715100Y-97519700D02*
X62019600Y-96215200D01*
%TO.N,{slash}A13*%
X61890700Y-108931500D02*
X73168300Y-108931500D01*
%TO.N,{slash}A9*%
X60620700Y-105130600D02*
X61890700Y-103860600D01*
%TO.N,{slash}A5*%
X59131200Y-100016100D02*
X60629800Y-100016100D01*
%TO.N,{slash}A11*%
X59207400Y-107705100D02*
X60706000Y-107705100D01*
%TO.N,{slash}A15*%
X73219100Y-111471500D02*
X74523600Y-112776000D01*
%TO.N,{slash}A4*%
X74396600Y-98755200D02*
X73161100Y-97519700D01*
%TO.N,{slash}A2*%
X79171800Y-94945200D02*
X77901800Y-96215200D01*
X74345800Y-96215200D02*
X73075800Y-94945200D01*
%TO.N,{slash}A5*%
X60629800Y-100016100D02*
X61899800Y-98746100D01*
%TO.N,{slash}A9*%
X61890700Y-103860600D02*
X73168300Y-103860600D01*
%TO.N,{slash}A14*%
X79162700Y-110201500D02*
X77892700Y-111471500D01*
%TO.N,{slash}A11*%
X60706000Y-107705100D02*
X62010500Y-106400600D01*
%TO.N,{slash}A7*%
X60715100Y-102590600D02*
X62019600Y-101286100D01*
%TO.N,{slash}A6*%
X77901800Y-101286100D02*
X74345800Y-101286100D01*
%TO.N,{slash}A9*%
X59122100Y-105130600D02*
X60620700Y-105130600D01*
%TO.N,{slash}A11*%
X62010500Y-106400600D02*
X73219100Y-106400600D01*
%TO.N,{slash}A13*%
X74438300Y-110201500D02*
X76394100Y-110201500D01*
%TO.N,{slash}A4*%
X78021600Y-98755200D02*
X74396600Y-98755200D01*
%TO.N,{slash}TC*%
X81559400Y-112776000D02*
X79248000Y-112776000D01*
%TO.N,{slash}A15*%
X60706000Y-112776000D02*
X62010500Y-111471500D01*
%TO.N,{slash}A14*%
X73066700Y-110201500D02*
X64202100Y-110201500D01*
%TO.N,{slash}A3*%
X59216500Y-97519700D02*
X60715100Y-97519700D01*
%TO.N,{slash}A7*%
X62019600Y-101286100D02*
X73228200Y-101286100D01*
%TO.N,{slash}A2*%
X73075800Y-94945200D02*
X64211200Y-94945200D01*
%TO.N,{slash}A8*%
X74396600Y-103826100D02*
X73161100Y-102590600D01*
%TO.N,{slash}A12*%
X74387500Y-108940600D02*
X73152000Y-107705100D01*
%TO.N,{slash}A5*%
X73177400Y-98746100D02*
X74447400Y-100016100D01*
X74447400Y-100016100D02*
X76403200Y-100016100D01*
%TO.N,{slash}A12*%
X81559400Y-107705100D02*
X79248000Y-107705100D01*
X78012500Y-108940600D02*
X74387500Y-108940600D01*
%TO.N,{slash}A13*%
X59122100Y-110201500D02*
X60620700Y-110201500D01*
%TO.N,{slash}A9*%
X73168300Y-103860600D02*
X74438300Y-105130600D01*
%TO.N,{slash}A8*%
X81568500Y-102590600D02*
X79257100Y-102590600D01*
%TO.N,{slash}A2*%
X81483200Y-94945200D02*
X79171800Y-94945200D01*
%TO.N,{slash}A11*%
X74523600Y-107705100D02*
X76479400Y-107705100D01*
%TO.N,{slash}A15*%
X74523600Y-112776000D02*
X76479400Y-112776000D01*
%TO.N,{slash}A8*%
X78021600Y-103826100D02*
X74396600Y-103826100D01*
%TO.N,{slash}A15*%
X62010500Y-111471500D02*
X73219100Y-111471500D01*
%TO.N,{slash}A11*%
X73219100Y-106400600D02*
X74523600Y-107705100D01*
%TO.N,{slash}A13*%
X73168300Y-108931500D02*
X74438300Y-110201500D01*
%TO.N,{slash}A1*%
X73177400Y-93675200D02*
X74447400Y-94945200D01*
%TO.N,{slash}A6*%
X79171800Y-100016100D02*
X77901800Y-101286100D01*
%TO.N,{slash}A3*%
X62019600Y-96215200D02*
X73228200Y-96215200D01*
%TO.N,{slash}A14*%
X77892700Y-111471500D02*
X74336700Y-111471500D01*
%TO.N,{slash}TC*%
X73152000Y-112776000D02*
X64287400Y-112776000D01*
%TO.N,{slash}A10*%
X79162700Y-105130600D02*
X77892700Y-106400600D01*
%TO.N,{slash}A3*%
X73228200Y-96215200D02*
X74532700Y-97519700D01*
%TO.N,{slash}A1*%
X61899800Y-93675200D02*
X73177400Y-93675200D01*
X74447400Y-94945200D02*
X76403200Y-94945200D01*
%TO.N,{slash}A5*%
X61899800Y-98746100D02*
X73177400Y-98746100D01*
%TO.N,{slash}A13*%
X60620700Y-110201500D02*
X61890700Y-108931500D01*
%TO.N,{slash}A6*%
X81483200Y-100016100D02*
X79171800Y-100016100D01*
%TO.N,{slash}A14*%
X74336700Y-111471500D02*
X73066700Y-110201500D01*
%TO.N,{slash}A8*%
X79257100Y-102590600D02*
X78021600Y-103826100D01*
%TO.N,{slash}A6*%
X74345800Y-101286100D02*
X73075800Y-100016100D01*
%TO.N,{slash}A7*%
X73228200Y-101286100D02*
X74532700Y-102590600D01*
%TO.N,{slash}A10*%
X81474100Y-105130600D02*
X79162700Y-105130600D01*
X73066700Y-105130600D02*
X64202100Y-105130600D01*
%TO.N,{slash}A4*%
X79257100Y-97519700D02*
X78021600Y-98755200D01*
X81568500Y-97519700D02*
X79257100Y-97519700D01*
%TO.N,{slash}A7*%
X74532700Y-102590600D02*
X76488500Y-102590600D01*
X59216500Y-102590600D02*
X60715100Y-102590600D01*
%TO.N,{slash}A12*%
X79248000Y-107705100D02*
X78012500Y-108940600D01*
%TO.N,{slash}A9*%
X74438300Y-105130600D02*
X76394100Y-105130600D01*
%TO.N,{slash}A10*%
X74336700Y-106400600D02*
X73066700Y-105130600D01*
%TO.N,{slash}A1*%
X59131200Y-94945200D02*
X60629800Y-94945200D01*
%TO.N,{slash}A14*%
X81474100Y-110201500D02*
X79162700Y-110201500D01*
%TO.N,{slash}TC*%
X74387500Y-114011500D02*
X73152000Y-112776000D01*
%TO.N,{slash}A15*%
X59207400Y-112776000D02*
X60706000Y-112776000D01*
%TO.N,{slash}A1*%
X60629800Y-94945200D02*
X61899800Y-93675200D01*
%TO.N,{slash}HLDAK*%
X73253600Y-78426100D02*
X74523600Y-79696100D01*
%TO.N,{slash}MEMWR*%
X73237300Y-82270600D02*
X64372700Y-82270600D01*
%TO.N,{slash}DB8*%
X78097800Y-78435200D02*
X74472800Y-78435200D01*
%TO.N,{slash}DB5*%
X60706000Y-74625200D02*
X61976000Y-73355200D01*
%TO.N,{slash}A0*%
X81635600Y-92456000D02*
X79324200Y-92456000D01*
%TO.N,{slash}DB6*%
X81559400Y-74625200D02*
X79248000Y-74625200D01*
%TO.N,{slash}DB5*%
X74523600Y-74625200D02*
X76479400Y-74625200D01*
%TO.N,{slash}IOWR*%
X73244500Y-83540600D02*
X74514500Y-84810600D01*
%TO.N,{slash}DB7*%
X73304400Y-75895200D02*
X74608900Y-77199700D01*
%TO.N,BP39*%
X74599800Y-92456000D02*
X76555600Y-92456000D01*
%TO.N,{slash}DB6*%
X77978000Y-75895200D02*
X74422000Y-75895200D01*
%TO.N,{slash}MEMRD*%
X74422000Y-80966100D02*
X73152000Y-79696100D01*
X73152000Y-79696100D02*
X64287400Y-79696100D01*
X81559400Y-79696100D02*
X79248000Y-79696100D01*
%TO.N,BP39*%
X62086700Y-91151500D02*
X73295300Y-91151500D01*
%TO.N,{slash}BOUT*%
X61966900Y-88611500D02*
X73244500Y-88611500D01*
%TO.N,GND*%
X77968900Y-91151500D02*
X74412900Y-91151500D01*
%TO.N,{slash}DB6*%
X74422000Y-75895200D02*
X73152000Y-74625200D01*
%TO.N,{slash}DB8*%
X73237300Y-77199700D02*
X64372700Y-77199700D01*
%TO.N,{slash}HLDAK*%
X61976000Y-78426100D02*
X73253600Y-78426100D01*
%TO.N,{slash}BOUT*%
X60696900Y-89881500D02*
X61966900Y-88611500D01*
%TO.N,{slash}HLDAK*%
X74523600Y-79696100D02*
X76479400Y-79696100D01*
%TO.N,{slash}MEMRD*%
X79248000Y-79696100D02*
X77978000Y-80966100D01*
%TO.N,GND*%
X78088700Y-88620600D02*
X74463700Y-88620600D01*
%TO.N,{slash}BOUT*%
X74514500Y-89881500D02*
X76470300Y-89881500D01*
%TO.N,GND*%
X81635600Y-87385100D02*
X79324200Y-87385100D01*
%TO.N,{slash}IOWR*%
X59198300Y-84810600D02*
X60696900Y-84810600D01*
%TO.N,{slash}IORD*%
X60791300Y-82270600D02*
X62095800Y-80966100D01*
%TO.N,{slash}HLDAK*%
X59207400Y-79696100D02*
X60706000Y-79696100D01*
%TO.N,{slash}IORD*%
X73304400Y-80966100D02*
X74608900Y-82270600D01*
%TO.N,{slash}MEMRD*%
X77978000Y-80966100D02*
X74422000Y-80966100D01*
%TO.N,{slash}MEMWR*%
X78097800Y-83506100D02*
X74472800Y-83506100D01*
%TO.N,{slash}HLDAK*%
X60706000Y-79696100D02*
X61976000Y-78426100D01*
%TO.N,{slash}A0*%
X74463700Y-93691500D02*
X73228200Y-92456000D01*
%TO.N,{slash}BIN*%
X73295300Y-86080600D02*
X74599800Y-87385100D01*
%TO.N,{slash}IORD*%
X62095800Y-80966100D02*
X73304400Y-80966100D01*
%TO.N,{slash}DB5*%
X59207400Y-74625200D02*
X60706000Y-74625200D01*
%TO.N,{slash}IORD*%
X59292700Y-82270600D02*
X60791300Y-82270600D01*
%TO.N,GND*%
X74463700Y-88620600D02*
X73228200Y-87385100D01*
%TO.N,{slash}MEMWR*%
X79333300Y-82270600D02*
X78097800Y-83506100D01*
%TO.N,{slash}BIN*%
X74599800Y-87385100D02*
X76555600Y-87385100D01*
%TO.N,GND*%
X73142900Y-89881500D02*
X64278300Y-89881500D01*
%TO.N,{slash}DB6*%
X73152000Y-74625200D02*
X64287400Y-74625200D01*
%TO.N,{slash}DB7*%
X60791300Y-77199700D02*
X62095800Y-75895200D01*
%TO.N,{slash}DB5*%
X73253600Y-73355200D02*
X74523600Y-74625200D01*
%TO.N,{slash}DB6*%
X79248000Y-74625200D02*
X77978000Y-75895200D01*
%TO.N,{slash}MEMWR*%
X81644700Y-82270600D02*
X79333300Y-82270600D01*
%TO.N,{slash}DB7*%
X74608900Y-77199700D02*
X76564700Y-77199700D01*
%TO.N,{slash}IOWR*%
X74514500Y-84810600D02*
X76470300Y-84810600D01*
%TO.N,{slash}DB8*%
X81644700Y-77199700D02*
X79333300Y-77199700D01*
%TO.N,GND*%
X79238900Y-84810600D02*
X77968900Y-86080600D01*
%TO.N,{slash}MEMWR*%
X74472800Y-83506100D02*
X73237300Y-82270600D01*
%TO.N,BP39*%
X59283600Y-92456000D02*
X60782200Y-92456000D01*
X60782200Y-92456000D02*
X62086700Y-91151500D01*
%TO.N,GND*%
X81550300Y-89881500D02*
X79238900Y-89881500D01*
%TO.N,{slash}BIN*%
X60782200Y-87385100D02*
X62086700Y-86080600D01*
%TO.N,{slash}DB8*%
X74472800Y-78435200D02*
X73237300Y-77199700D01*
%TO.N,{slash}BOUT*%
X59198300Y-89881500D02*
X60696900Y-89881500D01*
%TO.N,GND*%
X79324200Y-87385100D02*
X78088700Y-88620600D01*
X79238900Y-89881500D02*
X77968900Y-91151500D01*
%TO.N,{slash}BOUT*%
X73244500Y-88611500D02*
X74514500Y-89881500D01*
%TO.N,GND*%
X81550300Y-84810600D02*
X79238900Y-84810600D01*
%TO.N,{slash}A0*%
X79324200Y-92456000D02*
X78088700Y-93691500D01*
X78088700Y-93691500D02*
X74463700Y-93691500D01*
%TO.N,GND*%
X73142900Y-84810600D02*
X64278300Y-84810600D01*
X73228200Y-87385100D02*
X64363600Y-87385100D01*
%TO.N,{slash}DB7*%
X59292700Y-77199700D02*
X60791300Y-77199700D01*
%TO.N,GND*%
X77968900Y-86080600D02*
X74412900Y-86080600D01*
%TO.N,{slash}DB7*%
X62095800Y-75895200D02*
X73304400Y-75895200D01*
%TO.N,GND*%
X74412900Y-86080600D02*
X73142900Y-84810600D01*
%TO.N,{slash}IOWR*%
X61966900Y-83540600D02*
X73244500Y-83540600D01*
%TO.N,GND*%
X74412900Y-91151500D02*
X73142900Y-89881500D01*
%TO.N,{slash}A0*%
X73228200Y-92456000D02*
X64363600Y-92456000D01*
%TO.N,BP39*%
X73295300Y-91151500D02*
X74599800Y-92456000D01*
%TO.N,{slash}IORD*%
X74608900Y-82270600D02*
X76564700Y-82270600D01*
%TO.N,{slash}DB8*%
X79333300Y-77199700D02*
X78097800Y-78435200D01*
%TO.N,{slash}BIN*%
X59283600Y-87385100D02*
X60782200Y-87385100D01*
X62086700Y-86080600D02*
X73295300Y-86080600D01*
%TO.N,{slash}DB5*%
X61976000Y-73355200D02*
X73253600Y-73355200D01*
%TO.N,{slash}IOWR*%
X60696900Y-84810600D02*
X61966900Y-83540600D01*
%TO.N,{slash}DB1*%
X73219100Y-68266100D02*
X74489100Y-69536100D01*
%TO.N,{slash}DB4*%
X73202800Y-72110600D02*
X64338200Y-72110600D01*
%TO.N,{slash}DB0*%
X78063300Y-68275200D02*
X74438300Y-68275200D01*
%TO.N,AUD*%
X60671500Y-64465200D02*
X61941500Y-63195200D01*
%TO.N,BP18*%
X81524900Y-64465200D02*
X79213500Y-64465200D01*
%TO.N,AUD*%
X74489100Y-64465200D02*
X76444900Y-64465200D01*
%TO.N,BP19*%
X73269900Y-65735200D02*
X74574400Y-67039700D01*
%TO.N,BP18*%
X77943500Y-65735200D02*
X74387500Y-65735200D01*
%TO.N,{slash}DB2*%
X74387500Y-70806100D02*
X73117500Y-69536100D01*
X73117500Y-69536100D02*
X64252900Y-69536100D01*
X81524900Y-69536100D02*
X79213500Y-69536100D01*
%TO.N,BP18*%
X74387500Y-65735200D02*
X73117500Y-64465200D01*
%TO.N,{slash}DB0*%
X73202800Y-67039700D02*
X64338200Y-67039700D01*
%TO.N,{slash}DB1*%
X61941500Y-68266100D02*
X73219100Y-68266100D01*
X74489100Y-69536100D02*
X76444900Y-69536100D01*
%TO.N,{slash}DB2*%
X79213500Y-69536100D02*
X77943500Y-70806100D01*
%TO.N,{slash}DB3*%
X60756800Y-72110600D02*
X62061300Y-70806100D01*
%TO.N,{slash}DB1*%
X59172900Y-69536100D02*
X60671500Y-69536100D01*
%TO.N,{slash}DB3*%
X73269900Y-70806100D02*
X74574400Y-72110600D01*
%TO.N,{slash}DB2*%
X77943500Y-70806100D02*
X74387500Y-70806100D01*
%TO.N,{slash}DB4*%
X78063300Y-73346100D02*
X74438300Y-73346100D01*
%TO.N,{slash}DB1*%
X60671500Y-69536100D02*
X61941500Y-68266100D01*
%TO.N,{slash}DB3*%
X62061300Y-70806100D02*
X73269900Y-70806100D01*
%TO.N,AUD*%
X59172900Y-64465200D02*
X60671500Y-64465200D01*
%TO.N,{slash}DB3*%
X59258200Y-72110600D02*
X60756800Y-72110600D01*
%TO.N,{slash}DB4*%
X79298800Y-72110600D02*
X78063300Y-73346100D01*
%TO.N,BP18*%
X73117500Y-64465200D02*
X64252900Y-64465200D01*
%TO.N,BP19*%
X60756800Y-67039700D02*
X62061300Y-65735200D01*
%TO.N,AUD*%
X73219100Y-63195200D02*
X74489100Y-64465200D01*
%TO.N,BP18*%
X79213500Y-64465200D02*
X77943500Y-65735200D01*
%TO.N,{slash}DB4*%
X81610200Y-72110600D02*
X79298800Y-72110600D01*
%TO.N,BP19*%
X74574400Y-67039700D02*
X76530200Y-67039700D01*
%TO.N,{slash}DB0*%
X81610200Y-67039700D02*
X79298800Y-67039700D01*
%TO.N,{slash}DB4*%
X74438300Y-73346100D02*
X73202800Y-72110600D01*
%TO.N,{slash}DB0*%
X74438300Y-68275200D02*
X73202800Y-67039700D01*
%TO.N,BP19*%
X59258200Y-67039700D02*
X60756800Y-67039700D01*
X62061300Y-65735200D02*
X73269900Y-65735200D01*
%TO.N,{slash}DB3*%
X74574400Y-72110600D02*
X76530200Y-72110600D01*
%TO.N,{slash}DB0*%
X79298800Y-67039700D02*
X78063300Y-68275200D01*
%TO.N,AUD*%
X61941500Y-63195200D02*
X73219100Y-63195200D01*
%TO.N,BP16*%
X78072400Y-63160700D02*
X74447400Y-63160700D01*
%TO.N,READY*%
X60680600Y-59350700D02*
X61950600Y-58080700D01*
%TO.N,{slash}WAIT*%
X81534000Y-59350700D02*
X79222600Y-59350700D01*
%TO.N,READY*%
X74498200Y-59350700D02*
X76454000Y-59350700D01*
%TO.N,BP15*%
X73279000Y-60620700D02*
X74583500Y-61925200D01*
%TO.N,{slash}WAIT*%
X77952600Y-60620700D02*
X74396600Y-60620700D01*
X74396600Y-60620700D02*
X73126600Y-59350700D01*
%TO.N,BP16*%
X73211900Y-61925200D02*
X64347300Y-61925200D01*
%TO.N,READY*%
X59182000Y-59350700D02*
X60680600Y-59350700D01*
%TO.N,{slash}WAIT*%
X73126600Y-59350700D02*
X64262000Y-59350700D01*
%TO.N,BP15*%
X60765900Y-61925200D02*
X62070400Y-60620700D01*
%TO.N,READY*%
X73228200Y-58080700D02*
X74498200Y-59350700D01*
%TO.N,{slash}WAIT*%
X79222600Y-59350700D02*
X77952600Y-60620700D01*
%TO.N,BP15*%
X74583500Y-61925200D02*
X76539300Y-61925200D01*
%TO.N,BP16*%
X81619300Y-61925200D02*
X79307900Y-61925200D01*
X74447400Y-63160700D02*
X73211900Y-61925200D01*
%TO.N,BP15*%
X59267300Y-61925200D02*
X60765900Y-61925200D01*
X62070400Y-60620700D02*
X73279000Y-60620700D01*
%TO.N,BP16*%
X79307900Y-61925200D02*
X78072400Y-63160700D01*
%TO.N,READY*%
X61950600Y-58080700D02*
X73228200Y-58080700D01*
%TO.N,BP12*%
X81619300Y-56854300D02*
X79307900Y-56854300D01*
X74447400Y-58089800D02*
X73211900Y-56854300D01*
X79307900Y-56854300D02*
X78072400Y-58089800D01*
X78072400Y-58089800D02*
X74447400Y-58089800D01*
X73211900Y-56854300D02*
X64347300Y-56854300D01*
%TO.N,{slash}CLEAR*%
X81534000Y-54279800D02*
X79222600Y-54279800D01*
X79222600Y-54279800D02*
X77952600Y-55549800D01*
X77952600Y-55549800D02*
X74396600Y-55549800D01*
X74396600Y-55549800D02*
X73126600Y-54279800D01*
X73126600Y-54279800D02*
X64262000Y-54279800D01*
%TO.N,BP9*%
X59182000Y-54279800D02*
X60680600Y-54279800D01*
X60680600Y-54279800D02*
X61950600Y-53009800D01*
X61950600Y-53009800D02*
X73228200Y-53009800D01*
X73228200Y-53009800D02*
X74498200Y-54279800D01*
X74498200Y-54279800D02*
X76454000Y-54279800D01*
%TO.N,{slash}RESET*%
X59267300Y-56854300D02*
X60765900Y-56854300D01*
X74583500Y-56854300D02*
X76539300Y-56854300D01*
X60765900Y-56854300D02*
X62070400Y-55549800D01*
X62070400Y-55549800D02*
X73279000Y-55549800D01*
X73279000Y-55549800D02*
X74583500Y-56854300D01*
D22*
%TO.N,{slash}BP85*%
X9982200Y-154029400D02*
X29866600Y-154029400D01*
X29866600Y-154029400D02*
X33096200Y-150799800D01*
X33096200Y-150799800D02*
X59182000Y-150799800D01*
D20*
%TO.N,-12V*%
X19050000Y-36830000D02*
X19050000Y-80238600D01*
X19050000Y-81991200D02*
X2260600Y-98780600D01*
X2260600Y-98780600D02*
X2260600Y-164642800D01*
X2260600Y-164642800D02*
X6647200Y-169029400D01*
X6647200Y-169029400D02*
X9982200Y-169029400D01*
%TO.N,-5V*%
X8461050Y-156667200D02*
X8864600Y-156667200D01*
X5715000Y-153921150D02*
X8461050Y-156667200D01*
X5715000Y-148209000D02*
X5715000Y-153921150D01*
X21590000Y-78765400D02*
X21590000Y-85242400D01*
X21590000Y-85242400D02*
X5715000Y-101117400D01*
X5715000Y-101117400D02*
X5715000Y-148209000D01*
%TO.N,-12V*%
X9982200Y-169029400D02*
X30360600Y-169029400D01*
X30360600Y-169029400D02*
X43510200Y-155879800D01*
X43510200Y-155879800D02*
X59182000Y-155879800D01*
X133350000Y-155879800D02*
X59182000Y-155879800D01*
%TO.N,+12V*%
X133350000Y-158419800D02*
X98806000Y-158419800D01*
X64262000Y-158419800D02*
X98806000Y-158419800D01*
X59182000Y-158419800D02*
X64262000Y-158419800D01*
X9982200Y-175365400D02*
X32762200Y-175365400D01*
X32762200Y-175365400D02*
X49707800Y-158419800D01*
X49707800Y-158419800D02*
X59182000Y-158419800D01*
%TO.N,GND*%
X110998000Y-168579800D02*
X116078000Y-168579800D01*
X110998000Y-166039800D02*
X116078000Y-166039800D01*
X93726000Y-168579800D02*
X98806000Y-168579800D01*
X93726000Y-166039800D02*
X98806000Y-166039800D01*
X76454000Y-168579800D02*
X81534000Y-168579800D01*
X76454000Y-166039800D02*
X81534000Y-166039800D01*
D23*
%TO.N,+5V*%
X57442100Y-179412900D02*
X120383300Y-179412900D01*
X120383300Y-179412900D02*
X122504200Y-181533800D01*
X122504200Y-181533800D02*
X124167900Y-179870100D01*
X59410600Y-177444400D02*
X57442100Y-179412900D01*
X117640100Y-183197500D02*
X117957600Y-182880000D01*
X53657500Y-183197500D02*
X117640100Y-183197500D01*
X57442100Y-179412900D02*
X53657500Y-183197500D01*
X120396000Y-183642000D02*
X122504200Y-181533800D01*
X41732200Y-194843400D02*
X44450000Y-194843400D01*
X125679200Y-177444400D02*
X59410600Y-177444400D01*
X44450000Y-192405000D02*
X44450000Y-194843400D01*
X53657500Y-183197500D02*
X44450000Y-192405000D01*
X44450000Y-194843400D02*
X46228000Y-194843400D01*
X132918200Y-175031400D02*
X58648600Y-175031400D01*
X41732200Y-194843400D02*
X41732200Y-191947800D01*
X41732200Y-191947800D02*
X58648600Y-175031400D01*
X132918200Y-175031400D02*
X130505200Y-177444400D01*
X130505200Y-177444400D02*
X125679200Y-177444400D01*
X125679200Y-178358800D02*
X125679200Y-177444400D01*
X124167900Y-179870100D02*
X125679200Y-178358800D01*
X9982200Y-190365400D02*
X17881600Y-190365400D01*
X17373600Y-194843400D02*
X21197200Y-198667000D01*
X17373600Y-194843400D02*
X41732200Y-194843400D01*
X46228000Y-194843400D02*
X54254400Y-186817000D01*
X54254400Y-186817000D02*
X121132600Y-186817000D01*
X121132600Y-186817000D02*
X132918200Y-175031400D01*
X58648600Y-175031400D02*
X55626000Y-175031400D01*
X38252400Y-192405000D02*
X19921200Y-192405000D01*
X55626000Y-175031400D02*
X38252400Y-192405000D01*
X19921200Y-192405000D02*
X17881600Y-190365400D01*
X17881600Y-190365400D02*
X36380400Y-190365400D01*
X36380400Y-190365400D02*
X54305200Y-172440600D01*
D19*
X85674200Y-162356800D02*
X85674200Y-171119800D01*
X85674200Y-171119800D02*
X84353400Y-172440600D01*
X71831200Y-160959800D02*
X138226800Y-160959800D01*
X71831200Y-160959800D02*
X71831200Y-171272200D01*
X71831200Y-171272200D02*
X72999600Y-172440600D01*
D23*
X69926200Y-172440600D02*
X67691000Y-172440600D01*
D19*
X105257600Y-163499800D02*
X70078600Y-163499800D01*
D23*
X69926200Y-172440600D02*
X69926200Y-163652200D01*
X69926200Y-163652200D02*
X70078600Y-163499800D01*
X89814400Y-172440600D02*
X87553800Y-172440600D01*
D19*
X90246200Y-162356800D02*
X85674200Y-162356800D01*
D23*
X87553800Y-172440600D02*
X87553800Y-164236400D01*
X87553800Y-164236400D02*
X85674200Y-162356800D01*
X105460800Y-172440600D02*
X102616000Y-172440600D01*
D19*
X110998000Y-163499800D02*
X105257600Y-163499800D01*
D23*
X105460800Y-172440600D02*
X105460800Y-163703000D01*
X105460800Y-163703000D02*
X105257600Y-163499800D01*
X121564400Y-172440600D02*
X121564400Y-164668200D01*
X121564400Y-164668200D02*
X121767600Y-164465000D01*
X123520200Y-172440600D02*
X121564400Y-172440600D01*
D19*
X128270000Y-163499800D02*
X120675400Y-163499800D01*
X119583200Y-164592000D02*
X120675400Y-163499800D01*
X119583200Y-172440600D02*
X119583200Y-164592000D01*
X123875800Y-162356800D02*
X119075200Y-162356800D01*
X123875800Y-162356800D02*
X123875800Y-172085000D01*
D23*
X124841000Y-172440600D02*
X123520200Y-172440600D01*
D19*
X123875800Y-172085000D02*
X123520200Y-172440600D01*
X137566400Y-163499800D02*
X138480800Y-163499800D01*
X137566400Y-163499800D02*
X137566400Y-171653200D01*
X137566400Y-171653200D02*
X136779000Y-172440600D01*
X136626600Y-162356800D02*
X125044200Y-162356800D01*
X136626600Y-162356800D02*
X136626600Y-172288200D01*
D23*
X139623800Y-172440600D02*
X136779000Y-172440600D01*
D19*
X136626600Y-172288200D02*
X136779000Y-172440600D01*
X125044200Y-162356800D02*
X123875800Y-162356800D01*
D23*
X136779000Y-172440600D02*
X124841000Y-172440600D01*
D19*
X125044200Y-162356800D02*
X125044200Y-172237400D01*
X125044200Y-172237400D02*
X124841000Y-172440600D01*
X119075200Y-162356800D02*
X108229400Y-162356800D01*
D23*
X121564400Y-172440600D02*
X119583200Y-172440600D01*
D19*
X119075200Y-162356800D02*
X119075200Y-171932600D01*
X119075200Y-171932600D02*
X119583200Y-172440600D01*
X108229400Y-162356800D02*
X102768400Y-162356800D01*
X108229400Y-162356800D02*
X108229400Y-172288200D01*
D23*
X119583200Y-172440600D02*
X108381800Y-172440600D01*
D19*
X108229400Y-172288200D02*
X108381800Y-172440600D01*
X72923400Y-162356800D02*
X67386200Y-162356800D01*
D23*
X84353400Y-172440600D02*
X72999600Y-172440600D01*
D19*
X72923400Y-162356800D02*
X72923400Y-172364400D01*
X72923400Y-172364400D02*
X72999600Y-172440600D01*
X67386200Y-162356800D02*
X58851800Y-162356800D01*
D23*
X72999600Y-172440600D02*
X69926200Y-172440600D01*
D19*
X67386200Y-172135800D02*
X67691000Y-172440600D01*
X67386200Y-162356800D02*
X67386200Y-172135800D01*
X84277200Y-162356800D02*
X72923400Y-162356800D01*
D23*
X87553800Y-172440600D02*
X84353400Y-172440600D01*
D19*
X84277200Y-162356800D02*
X84277200Y-172364400D01*
X84277200Y-172364400D02*
X84353400Y-172440600D01*
X85674200Y-162356800D02*
X84277200Y-162356800D01*
D23*
X102616000Y-172440600D02*
X89814400Y-172440600D01*
D19*
X90246200Y-162356800D02*
X90246200Y-172008800D01*
X90246200Y-172008800D02*
X89814400Y-172440600D01*
X102768400Y-162356800D02*
X90246200Y-162356800D01*
D23*
X67691000Y-172440600D02*
X54305200Y-172440600D01*
D19*
X102768400Y-162356800D02*
X102768400Y-172288200D01*
X102768400Y-172288200D02*
X102616000Y-172440600D01*
D23*
X139623800Y-172440600D02*
X139623800Y-162356800D01*
X9982200Y-190365400D02*
X12895600Y-190365400D01*
X12895600Y-190365400D02*
X17373600Y-194843400D01*
X21197200Y-198667000D02*
X46925600Y-198667000D01*
X55143400Y-190449200D02*
X121615200Y-190449200D01*
X46925600Y-198667000D02*
X55143400Y-190449200D01*
X121615200Y-190449200D02*
X139623800Y-172440600D01*
X108381800Y-172440600D02*
X105460800Y-172440600D01*
X54305200Y-172440600D02*
X53111400Y-171246800D01*
X53111400Y-164414200D02*
X55295800Y-162229800D01*
X53111400Y-171246800D02*
X53111400Y-164414200D01*
X55295800Y-162229800D02*
X58724800Y-162229800D01*
X139623800Y-162356800D02*
X139522200Y-162255200D01*
D19*
X133350000Y-163499800D02*
X128270000Y-163499800D01*
X120675400Y-163499800D02*
X116078000Y-163499800D01*
X116078000Y-163499800D02*
X110998000Y-163499800D01*
X138480800Y-163499800D02*
X139623800Y-162356800D01*
X133350000Y-163499800D02*
X137566400Y-163499800D01*
X70078600Y-163499800D02*
X59182000Y-163499800D01*
X138226800Y-160959800D02*
X139623800Y-162356800D01*
X59182000Y-160959800D02*
X71831200Y-160959800D01*
X139623800Y-162356800D02*
X136626600Y-162356800D01*
X58851800Y-162356800D02*
X58724800Y-162229800D01*
%TD*%
%TA.AperFunction,NonConductor*%
G36*
X42970639Y-7842885D02*
G01*
X43016394Y-7895689D01*
X43027600Y-7947200D01*
X43027600Y-33227305D01*
X43007915Y-33294344D01*
X42955111Y-33340099D01*
X42904710Y-33351300D01*
X608239Y-33730074D01*
X541026Y-33710991D01*
X494800Y-33658598D01*
X483130Y-33605558D01*
X540454Y-20038872D01*
X17049500Y-20038872D01*
X17049500Y-20301127D01*
X17076123Y-20503339D01*
X17083730Y-20561116D01*
X17151602Y-20814418D01*
X17151605Y-20814428D01*
X17251953Y-21056690D01*
X17251958Y-21056700D01*
X17383075Y-21283803D01*
X17542718Y-21491851D01*
X17542726Y-21491860D01*
X17728140Y-21677274D01*
X17728148Y-21677281D01*
X17936196Y-21836924D01*
X18163299Y-21968041D01*
X18163309Y-21968046D01*
X18405571Y-22068394D01*
X18405581Y-22068398D01*
X18658884Y-22136270D01*
X18918880Y-22170500D01*
X18918887Y-22170500D01*
X19181113Y-22170500D01*
X19181120Y-22170500D01*
X19441116Y-22136270D01*
X19694419Y-22068398D01*
X19936697Y-21968043D01*
X20163803Y-21836924D01*
X20371851Y-21677282D01*
X20371855Y-21677277D01*
X20371860Y-21677274D01*
X20557274Y-21491860D01*
X20557277Y-21491855D01*
X20557282Y-21491851D01*
X20716924Y-21283803D01*
X20848043Y-21056697D01*
X20948398Y-20814419D01*
X21016270Y-20561116D01*
X21050500Y-20301120D01*
X21050500Y-20038880D01*
X21016270Y-19778884D01*
X20948398Y-19525581D01*
X20948394Y-19525571D01*
X20848046Y-19283309D01*
X20848041Y-19283299D01*
X20716924Y-19056196D01*
X20557281Y-18848148D01*
X20557274Y-18848140D01*
X20371860Y-18662726D01*
X20371851Y-18662718D01*
X20163803Y-18503075D01*
X19936700Y-18371958D01*
X19936690Y-18371953D01*
X19694428Y-18271605D01*
X19694421Y-18271603D01*
X19694419Y-18271602D01*
X19441116Y-18203730D01*
X19383339Y-18196123D01*
X19181127Y-18169500D01*
X19181120Y-18169500D01*
X18918880Y-18169500D01*
X18918872Y-18169500D01*
X18687772Y-18199926D01*
X18658884Y-18203730D01*
X18405581Y-18271602D01*
X18405571Y-18271605D01*
X18163309Y-18371953D01*
X18163299Y-18371958D01*
X17936196Y-18503075D01*
X17728148Y-18662718D01*
X17542718Y-18848148D01*
X17383075Y-19056196D01*
X17251958Y-19283299D01*
X17251953Y-19283309D01*
X17151605Y-19525571D01*
X17151602Y-19525581D01*
X17083730Y-19778885D01*
X17049500Y-20038872D01*
X540454Y-20038872D01*
X558270Y-15822418D01*
X578238Y-15755466D01*
X631235Y-15709935D01*
X684007Y-15698958D01*
X9601200Y-15824200D01*
X9601200Y-15824199D01*
X9601200Y-7947200D01*
X9620885Y-7880161D01*
X9673689Y-7834406D01*
X9725200Y-7823200D01*
X42903600Y-7823200D01*
X42970639Y-7842885D01*
G37*
%TD.AperFunction*%
M02*
