%TF.GenerationSoftware,KiCad,Pcbnew,10.0.1-1.fc43*%
%TF.CreationDate,2026-04-29T12:27:45+01:00*%
%TF.ProjectId,bus_edge_card,6275735f-6564-4676-955f-636172642e6b,rev?*%
%TF.SameCoordinates,Original*%
%TF.FileFunction,Copper,L1,Top*%
%TF.FilePolarity,Positive*%
%FSLAX46Y46*%
G04 Gerber Fmt 4.6, Leading zero omitted, Abs format (unit mm)*
G04 Created by KiCad (PCBNEW 10.0.1-1.fc43) date 2026-04-29 12:27:45*
%MOMM*%
%LPD*%
G01*
G04 APERTURE LIST*
G04 Aperture macros list*
%AMRoundRect*
0 Rectangle with rounded corners*
0 $1 Rounding radius*
0 $2 $3 $4 $5 $6 $7 $8 $9 X,Y pos of 4 corners*
0 Add a 4 corners polygon primitive as box body*
4,1,4,$2,$3,$4,$5,$6,$7,$8,$9,$2,$3,0*
0 Add four circle primitives for the rounded corners*
1,1,$1+$1,$2,$3*
1,1,$1+$1,$4,$5*
1,1,$1+$1,$6,$7*
1,1,$1+$1,$8,$9*
0 Add four rect primitives between the rounded corners*
20,1,$1+$1,$2,$3,$4,$5,0*
20,1,$1+$1,$4,$5,$6,$7,0*
20,1,$1+$1,$6,$7,$8,$9,0*
20,1,$1+$1,$8,$9,$2,$3,0*%
G04 Aperture macros list end*
%TA.AperFunction,ComponentPad*%
%ADD10RoundRect,0.190500X-1.079500X-0.444500X1.079500X-0.444500X1.079500X0.444500X-1.079500X0.444500X0*%
%TD*%
%TA.AperFunction,Conductor*%
%ADD11C,0.500000*%
%TD*%
G04 APERTURE END LIST*
D10*
%TO.P,J2,1,Pin_1_1*%
%TO.N,SIG1*%
X125730000Y-63500000D03*
%TO.P,J2,2,Pin_2_2*%
%TO.N,SIG2*%
X121920000Y-63500000D03*
%TO.P,J2,3,Pin_3_3*%
%TO.N,SIG3*%
X125730000Y-66040000D03*
%TO.P,J2,4,Pin_4_4*%
%TO.N,SIG4*%
X121920000Y-66040000D03*
%TO.P,J2,5,Pin_5_5*%
%TO.N,SIG5*%
X125730000Y-68580000D03*
%TO.P,J2,6,Pin_6_6*%
%TO.N,SIG6*%
X121920000Y-68580000D03*
%TO.P,J2,7,Pin_7_7*%
%TO.N,SIG7*%
X125730000Y-71120000D03*
%TO.P,J2,8,Pin_8_8*%
%TO.N,SIG8*%
X121920000Y-71120000D03*
%TO.P,J2,9,Pin_9_9*%
%TO.N,SIG9*%
X125730000Y-73660000D03*
%TO.P,J2,10,Pin_10_10*%
%TO.N,CA9*%
X121920000Y-73660000D03*
%TO.P,J2,11,Pin_11_11*%
%TO.N,CA8*%
X125730000Y-76200000D03*
%TO.P,J2,12,Pin_12_12*%
%TO.N,CA7*%
X121920000Y-76200000D03*
%TO.P,J2,13,Pin_13_13*%
%TO.N,CA6*%
X125730000Y-78740000D03*
%TO.P,J2,14,Pin_14_14*%
%TO.N,CA5*%
X121920000Y-78740000D03*
%TO.P,J2,15,Pin_15_15*%
%TO.N,CA4*%
X125730000Y-81280000D03*
%TO.P,J2,16,Pin_16_16*%
%TO.N,CA3*%
X121920000Y-81280000D03*
%TO.P,J2,17,Pin_17_17*%
%TO.N,CA2*%
X125730000Y-83820000D03*
%TO.P,J2,18,Pin_18_18*%
%TO.N,CA1*%
X121920000Y-83820000D03*
%TO.P,J2,19,Pin_19_19*%
%TO.N,CA0*%
X125730000Y-86360000D03*
%TO.P,J2,20,Pin_20_20*%
%TO.N,CA14*%
X121920000Y-86360000D03*
%TO.P,J2,21,Pin_21_21*%
%TO.N,CA13*%
X125730000Y-88900000D03*
%TO.P,J2,22,Pin_22_22*%
%TO.N,CA12*%
X121920000Y-88900000D03*
%TO.P,J2,23,Pin_23_23*%
%TO.N,CA11*%
X125730000Y-91440000D03*
%TO.P,J2,24,Pin_24_24*%
%TO.N,CA10*%
X121920000Y-91440000D03*
%TO.P,J2,25,Pin_25_25*%
%TO.N,SIG25*%
X125730000Y-93980000D03*
%TO.P,J2,26,Pin_26_26*%
%TO.N,SIG26*%
X121920000Y-93980000D03*
%TO.P,J2,27,Pin_27_27*%
%TO.N,SIG27*%
X125730000Y-96520000D03*
%TO.P,J2,28,Pin_28_28*%
%TO.N,SIG28*%
X121920000Y-96520000D03*
%TO.P,J2,29,Pin_29_29*%
%TO.N,SIG29*%
X125730000Y-99060000D03*
%TO.P,J2,30,Pin_30_30*%
%TO.N,CD0*%
X121920000Y-99060000D03*
%TO.P,J2,31,Pin_31_31*%
%TO.N,CD1*%
X125730000Y-101600000D03*
%TO.P,J2,32,Pin_32_32*%
%TO.N,CD2*%
X121920000Y-101600000D03*
%TO.P,J2,33,Pin_33_33*%
%TO.N,CD3*%
X125730000Y-104140000D03*
%TO.P,J2,34,Pin_34_34*%
%TO.N,CD4*%
X121920000Y-104140000D03*
%TO.P,J2,35,Pin_35_35*%
%TO.N,CD5*%
X125730000Y-106680000D03*
%TO.P,J2,36,Pin_36_36*%
%TO.N,CD6*%
X121920000Y-106680000D03*
%TO.P,J2,37,Pin_37_37*%
%TO.N,CD7*%
X125730000Y-109220000D03*
%TO.P,J2,38,Pin_38_38*%
%TO.N,SIG38*%
X121920000Y-109220000D03*
%TO.P,J2,39,Pin_39_39*%
%TO.N,SIG39*%
X125730000Y-111760000D03*
%TO.P,J2,40,Pin_40_40*%
%TO.N,{slash}BUSY*%
X121920000Y-111760000D03*
%TO.P,J2,41,Pin_41_41*%
%TO.N,SIG41*%
X125730000Y-114300000D03*
%TO.P,J2,42,Pin_42_42*%
%TO.N,{slash}CRT*%
X121920000Y-114300000D03*
%TO.P,J2,43,Pin_43_43*%
%TO.N,SIG43*%
X125730000Y-116840000D03*
%TO.P,J2,44,Pin_44_44*%
%TO.N,SIG44*%
X121920000Y-116840000D03*
%TO.P,J2,45,Pin_45_45*%
%TO.N,SIG45*%
X125730000Y-119380000D03*
%TO.P,J2,46,Pin_46_46*%
%TO.N,{slash}MCLK*%
X121920000Y-119380000D03*
%TO.P,J2,47,Pin_47_47*%
%TO.N,SIG47*%
X125730000Y-121920000D03*
%TO.P,J2,48,Pin_48_48*%
%TO.N,SIG48*%
X121920000Y-121920000D03*
%TO.P,J2,49,Pin_49_49*%
%TO.N,SIG49*%
X125730000Y-124460000D03*
%TO.P,J2,50,Pin_50_50*%
%TO.N,SIG50*%
X121920000Y-124460000D03*
%TD*%
%TO.P,J1,1,Pin_1_1*%
%TO.N,SIG1*%
X108508000Y-63550000D03*
%TO.P,J1,2,Pin_2_2*%
%TO.N,SIG2*%
X104698000Y-63550000D03*
%TO.P,J1,3,Pin_3_3*%
%TO.N,SIG3*%
X108508000Y-66090000D03*
%TO.P,J1,4,Pin_4_4*%
%TO.N,SIG4*%
X104698000Y-66090000D03*
%TO.P,J1,5,Pin_5_5*%
%TO.N,SIG5*%
X108508000Y-68630000D03*
%TO.P,J1,6,Pin_6_6*%
%TO.N,SIG6*%
X104698000Y-68630000D03*
%TO.P,J1,7,Pin_7_7*%
%TO.N,SIG7*%
X108508000Y-71170000D03*
%TO.P,J1,8,Pin_8_8*%
%TO.N,SIG8*%
X104698000Y-71170000D03*
%TO.P,J1,9,Pin_9_9*%
%TO.N,SIG9*%
X108508000Y-73710000D03*
%TO.P,J1,10,Pin_10_10*%
%TO.N,CA9*%
X104698000Y-73710000D03*
%TO.P,J1,11,Pin_11_11*%
%TO.N,CA8*%
X108508000Y-76250000D03*
%TO.P,J1,12,Pin_12_12*%
%TO.N,CA7*%
X104698000Y-76250000D03*
%TO.P,J1,13,Pin_13_13*%
%TO.N,CA6*%
X108508000Y-78790000D03*
%TO.P,J1,14,Pin_14_14*%
%TO.N,CA5*%
X104698000Y-78790000D03*
%TO.P,J1,15,Pin_15_15*%
%TO.N,CA4*%
X108508000Y-81330000D03*
%TO.P,J1,16,Pin_16_16*%
%TO.N,CA3*%
X104698000Y-81330000D03*
%TO.P,J1,17,Pin_17_17*%
%TO.N,CA2*%
X108508000Y-83870000D03*
%TO.P,J1,18,Pin_18_18*%
%TO.N,CA1*%
X104698000Y-83870000D03*
%TO.P,J1,19,Pin_19_19*%
%TO.N,CA0*%
X108508000Y-86410000D03*
%TO.P,J1,20,Pin_20_20*%
%TO.N,CA14*%
X104698000Y-86410000D03*
%TO.P,J1,21,Pin_21_21*%
%TO.N,CA13*%
X108508000Y-88950000D03*
%TO.P,J1,22,Pin_22_22*%
%TO.N,CA12*%
X104698000Y-88950000D03*
%TO.P,J1,23,Pin_23_23*%
%TO.N,CA11*%
X108508000Y-91490000D03*
%TO.P,J1,24,Pin_24_24*%
%TO.N,CA10*%
X104698000Y-91490000D03*
%TO.P,J1,25,Pin_25_25*%
%TO.N,SIG25*%
X108508000Y-94030000D03*
%TO.P,J1,26,Pin_26_26*%
%TO.N,SIG26*%
X104698000Y-94030000D03*
%TO.P,J1,27,Pin_27_27*%
%TO.N,SIG27*%
X108508000Y-96570000D03*
%TO.P,J1,28,Pin_28_28*%
%TO.N,SIG28*%
X104698000Y-96570000D03*
%TO.P,J1,29,Pin_29_29*%
%TO.N,SIG29*%
X108508000Y-99110000D03*
%TO.P,J1,30,Pin_30_30*%
%TO.N,CD0*%
X104698000Y-99110000D03*
%TO.P,J1,31,Pin_31_31*%
%TO.N,CD1*%
X108508000Y-101650000D03*
%TO.P,J1,32,Pin_32_32*%
%TO.N,CD2*%
X104698000Y-101650000D03*
%TO.P,J1,33,Pin_33_33*%
%TO.N,CD3*%
X108508000Y-104190000D03*
%TO.P,J1,34,Pin_34_34*%
%TO.N,CD4*%
X104698000Y-104190000D03*
%TO.P,J1,35,Pin_35_35*%
%TO.N,CD5*%
X108508000Y-106730000D03*
%TO.P,J1,36,Pin_36_36*%
%TO.N,CD6*%
X104698000Y-106730000D03*
%TO.P,J1,37,Pin_37_37*%
%TO.N,CD7*%
X108508000Y-109270000D03*
%TO.P,J1,38,Pin_38_38*%
%TO.N,SIG38*%
X104698000Y-109270000D03*
%TO.P,J1,39,Pin_39_39*%
%TO.N,SIG39*%
X108508000Y-111810000D03*
%TO.P,J1,40,Pin_40_40*%
%TO.N,{slash}BUSY*%
X104698000Y-111810000D03*
%TO.P,J1,41,Pin_41_41*%
%TO.N,SIG41*%
X108508000Y-114350000D03*
%TO.P,J1,42,Pin_42_42*%
%TO.N,{slash}CRT*%
X104698000Y-114350000D03*
%TO.P,J1,43,Pin_43_43*%
%TO.N,SIG43*%
X108508000Y-116890000D03*
%TO.P,J1,44,Pin_44_44*%
%TO.N,SIG44*%
X104698000Y-116890000D03*
%TO.P,J1,45,Pin_45_45*%
%TO.N,SIG45*%
X108508000Y-119430000D03*
%TO.P,J1,46,Pin_46_46*%
%TO.N,{slash}MCLK*%
X104698000Y-119430000D03*
%TO.P,J1,47,Pin_47_47*%
%TO.N,SIG47*%
X108508000Y-121970000D03*
%TO.P,J1,48,Pin_48_48*%
%TO.N,SIG48*%
X104698000Y-121970000D03*
%TO.P,J1,49,Pin_49_49*%
%TO.N,SIG49*%
X108508000Y-124510000D03*
%TO.P,J1,50,Pin_50_50*%
%TO.N,SIG50*%
X104698000Y-124510000D03*
%TD*%
%TO.N,SIG50*%
D11*
X104698000Y-124510000D02*
X105783000Y-125595000D01*
X105783000Y-125595000D02*
X120785000Y-125595000D01*
X120785000Y-125595000D02*
X121920000Y-124460000D01*
%TO.N,SIG48*%
X104698000Y-121970000D02*
X105783000Y-123055000D01*
X105783000Y-123055000D02*
X120785000Y-123055000D01*
X120785000Y-123055000D02*
X121920000Y-121920000D01*
%TO.N,{slash}MCLK*%
X104698000Y-119430000D02*
X105783000Y-120515000D01*
X105783000Y-120515000D02*
X120785000Y-120515000D01*
X120785000Y-120515000D02*
X121920000Y-119380000D01*
%TO.N,SIG44*%
X104698000Y-116890000D02*
X105783000Y-117975000D01*
X105783000Y-117975000D02*
X120785000Y-117975000D01*
X120785000Y-117975000D02*
X121920000Y-116840000D01*
%TO.N,{slash}CRT*%
X104698000Y-114350000D02*
X105783000Y-115435000D01*
X105783000Y-115435000D02*
X120785000Y-115435000D01*
X120785000Y-115435000D02*
X121920000Y-114300000D01*
%TO.N,{slash}BUSY*%
X104698000Y-111810000D02*
X105783000Y-112895000D01*
X105783000Y-112895000D02*
X120785000Y-112895000D01*
X120785000Y-112895000D02*
X121920000Y-111760000D01*
%TO.N,SIG38*%
X104698000Y-109270000D02*
X105783000Y-110355000D01*
X105783000Y-110355000D02*
X120785000Y-110355000D01*
X120785000Y-110355000D02*
X121920000Y-109220000D01*
%TO.N,CD6*%
X104698000Y-106730000D02*
X105783000Y-107815000D01*
X105783000Y-107815000D02*
X120785000Y-107815000D01*
X120785000Y-107815000D02*
X121920000Y-106680000D01*
%TO.N,CD4*%
X104698000Y-104190000D02*
X105783000Y-105275000D01*
X105783000Y-105275000D02*
X120785000Y-105275000D01*
X120785000Y-105275000D02*
X121920000Y-104140000D01*
%TO.N,CD2*%
X104698000Y-101650000D02*
X105783000Y-102735000D01*
X105783000Y-102735000D02*
X120785000Y-102735000D01*
X120785000Y-102735000D02*
X121920000Y-101600000D01*
%TO.N,CD0*%
X104698000Y-99110000D02*
X105783000Y-100195000D01*
X105783000Y-100195000D02*
X120785000Y-100195000D01*
X120785000Y-100195000D02*
X121920000Y-99060000D01*
%TO.N,SIG28*%
X104698000Y-96570000D02*
X105783000Y-97655000D01*
X105783000Y-97655000D02*
X120785000Y-97655000D01*
X120785000Y-97655000D02*
X121920000Y-96520000D01*
%TO.N,SIG26*%
X104698000Y-94030000D02*
X105783000Y-95115000D01*
X120785000Y-95115000D02*
X121920000Y-93980000D01*
X105783000Y-95115000D02*
X120785000Y-95115000D01*
%TO.N,CA10*%
X104698000Y-91490000D02*
X105783000Y-92575000D01*
X105783000Y-92575000D02*
X120785000Y-92575000D01*
X120785000Y-92575000D02*
X121920000Y-91440000D01*
%TO.N,CA12*%
X104698000Y-88950000D02*
X105783000Y-90035000D01*
X105783000Y-90035000D02*
X120785000Y-90035000D01*
X120785000Y-90035000D02*
X121920000Y-88900000D01*
%TO.N,CA14*%
X104698000Y-86410000D02*
X105783000Y-87495000D01*
X105783000Y-87495000D02*
X120785000Y-87495000D01*
X120785000Y-87495000D02*
X121920000Y-86360000D01*
%TO.N,CA1*%
X104698000Y-83870000D02*
X105783000Y-84955000D01*
X120785000Y-84955000D02*
X121920000Y-83820000D01*
X105783000Y-84955000D02*
X120785000Y-84955000D01*
%TO.N,CA3*%
X104698000Y-81330000D02*
X105783000Y-82415000D01*
X105783000Y-82415000D02*
X120785000Y-82415000D01*
X120785000Y-82415000D02*
X121920000Y-81280000D01*
%TO.N,CA5*%
X104698000Y-78790000D02*
X105783000Y-79875000D01*
X105783000Y-79875000D02*
X120785000Y-79875000D01*
X120785000Y-79875000D02*
X121920000Y-78740000D01*
%TO.N,CA7*%
X104698000Y-76250000D02*
X105783000Y-77335000D01*
X105783000Y-77335000D02*
X120785000Y-77335000D01*
X120785000Y-77335000D02*
X121920000Y-76200000D01*
%TO.N,CA9*%
X104698000Y-73710000D02*
X105783000Y-74795000D01*
X105783000Y-74795000D02*
X120785000Y-74795000D01*
X120785000Y-74795000D02*
X121920000Y-73660000D01*
%TO.N,SIG8*%
X104698000Y-71170000D02*
X105783000Y-72255000D01*
X105783000Y-72255000D02*
X120785000Y-72255000D01*
X120785000Y-72255000D02*
X121920000Y-71120000D01*
%TO.N,SIG6*%
X104698000Y-68630000D02*
X105783000Y-69715000D01*
X105783000Y-69715000D02*
X120785000Y-69715000D01*
X120785000Y-69715000D02*
X121920000Y-68580000D01*
%TO.N,SIG2*%
X104698000Y-63550000D02*
X105783000Y-64635000D01*
X105783000Y-64635000D02*
X120785000Y-64635000D01*
X120785000Y-64635000D02*
X121920000Y-63500000D01*
%TO.N,SIG4*%
X104698000Y-66090000D02*
X105783000Y-67175000D01*
X105783000Y-67175000D02*
X120785000Y-67175000D01*
X120785000Y-67175000D02*
X121920000Y-66040000D01*
%TD*%
M02*
