M48
; DRILL file KiCad 10.0.1-1.fc43 date 2026-04-29T12:27:43
; FORMAT={-:-/ absolute / metric / decimal}
; #@! TF.CreationDate,2026-04-29T12:27:43+01:00
; #@! TF.GenerationSoftware,Kicad,Pcbnew,10.0.1-1.fc43
; #@! TF.FileFunction,Plated,1,2,PTH
FMAT,2
METRIC
; #@! TA.AperFunction,Plated,PTH,ComponentDrill
T1C0.800
%
G90
G05
T1
X104.698Y-63.55
X104.698Y-66.09
X104.698Y-68.63
X104.698Y-71.17
X104.698Y-73.71
X104.698Y-76.25
X104.698Y-78.79
X104.698Y-81.33
X104.698Y-83.87
X104.698Y-86.41
X104.698Y-88.95
X104.698Y-91.49
X104.698Y-94.03
X104.698Y-96.57
X104.698Y-99.11
X104.698Y-101.65
X104.698Y-104.19
X104.698Y-106.73
X104.698Y-109.27
X104.698Y-111.81
X104.698Y-114.35
X104.698Y-116.89
X104.698Y-119.43
X104.698Y-121.97
X104.698Y-124.51
X108.508Y-63.55
X108.508Y-66.09
X108.508Y-68.63
X108.508Y-71.17
X108.508Y-73.71
X108.508Y-76.25
X108.508Y-78.79
X108.508Y-81.33
X108.508Y-83.87
X108.508Y-86.41
X108.508Y-88.95
X108.508Y-91.49
X108.508Y-94.03
X108.508Y-96.57
X108.508Y-99.11
X108.508Y-101.65
X108.508Y-104.19
X108.508Y-106.73
X108.508Y-109.27
X108.508Y-111.81
X108.508Y-114.35
X108.508Y-116.89
X108.508Y-119.43
X108.508Y-121.97
X108.508Y-124.51
X121.92Y-63.5
X121.92Y-66.04
X121.92Y-68.58
X121.92Y-71.12
X121.92Y-73.66
X121.92Y-76.2
X121.92Y-78.74
X121.92Y-81.28
X121.92Y-83.82
X121.92Y-86.36
X121.92Y-88.9
X121.92Y-91.44
X121.92Y-93.98
X121.92Y-96.52
X121.92Y-99.06
X121.92Y-101.6
X121.92Y-104.14
X121.92Y-106.68
X121.92Y-109.22
X121.92Y-111.76
X121.92Y-114.3
X121.92Y-116.84
X121.92Y-119.38
X121.92Y-121.92
X121.92Y-124.46
X125.73Y-63.5
X125.73Y-66.04
X125.73Y-68.58
X125.73Y-71.12
X125.73Y-73.66
X125.73Y-76.2
X125.73Y-78.74
X125.73Y-81.28
X125.73Y-83.82
X125.73Y-86.36
X125.73Y-88.9
X125.73Y-91.44
X125.73Y-93.98
X125.73Y-96.52
X125.73Y-99.06
X125.73Y-101.6
X125.73Y-104.14
X125.73Y-106.68
X125.73Y-109.22
X125.73Y-111.76
X125.73Y-114.3
X125.73Y-116.84
X125.73Y-119.38
X125.73Y-121.92
X125.73Y-124.46
M30
