%TF.GenerationSoftware,KiCad,Pcbnew,10.0.1-1.fc43*%
%TF.CreationDate,2026-04-29T12:27:45+01:00*%
%TF.ProjectId,bus_edge_card,6275735f-6564-4676-955f-636172642e6b,rev?*%
%TF.SameCoordinates,Original*%
%TF.FileFunction,Legend,Top*%
%TF.FilePolarity,Positive*%
%FSLAX46Y46*%
G04 Gerber Fmt 4.6, Leading zero omitted, Abs format (unit mm)*
G04 Created by KiCad (PCBNEW 10.0.1-1.fc43) date 2026-04-29 12:27:45*
%MOMM*%
%LPD*%
G01*
G04 APERTURE LIST*
%ADD10C,0.100000*%
G04 APERTURE END LIST*
D10*
X113651292Y-83198687D02*
X113698912Y-83246306D01*
X113698912Y-83246306D02*
X113746531Y-83389163D01*
X113746531Y-83389163D02*
X113746531Y-83484401D01*
X113746531Y-83484401D02*
X113698912Y-83627258D01*
X113698912Y-83627258D02*
X113603673Y-83722496D01*
X113603673Y-83722496D02*
X113508435Y-83770115D01*
X113508435Y-83770115D02*
X113317959Y-83817734D01*
X113317959Y-83817734D02*
X113175102Y-83817734D01*
X113175102Y-83817734D02*
X112984626Y-83770115D01*
X112984626Y-83770115D02*
X112889388Y-83722496D01*
X112889388Y-83722496D02*
X112794150Y-83627258D01*
X112794150Y-83627258D02*
X112746531Y-83484401D01*
X112746531Y-83484401D02*
X112746531Y-83389163D01*
X112746531Y-83389163D02*
X112794150Y-83246306D01*
X112794150Y-83246306D02*
X112841769Y-83198687D01*
X113746531Y-82770115D02*
X112746531Y-82770115D01*
X112746531Y-82770115D02*
X112746531Y-82389163D01*
X112746531Y-82389163D02*
X112794150Y-82293925D01*
X112794150Y-82293925D02*
X112841769Y-82246306D01*
X112841769Y-82246306D02*
X112937007Y-82198687D01*
X112937007Y-82198687D02*
X113079864Y-82198687D01*
X113079864Y-82198687D02*
X113175102Y-82246306D01*
X113175102Y-82246306D02*
X113222721Y-82293925D01*
X113222721Y-82293925D02*
X113270340Y-82389163D01*
X113270340Y-82389163D02*
X113270340Y-82770115D01*
X112746531Y-81912972D02*
X112746531Y-81341544D01*
X113746531Y-81627258D02*
X112746531Y-81627258D01*
X113175102Y-80865353D02*
X113127483Y-80960591D01*
X113127483Y-80960591D02*
X113079864Y-81008210D01*
X113079864Y-81008210D02*
X112984626Y-81055829D01*
X112984626Y-81055829D02*
X112937007Y-81055829D01*
X112937007Y-81055829D02*
X112841769Y-81008210D01*
X112841769Y-81008210D02*
X112794150Y-80960591D01*
X112794150Y-80960591D02*
X112746531Y-80865353D01*
X112746531Y-80865353D02*
X112746531Y-80674877D01*
X112746531Y-80674877D02*
X112794150Y-80579639D01*
X112794150Y-80579639D02*
X112841769Y-80532020D01*
X112841769Y-80532020D02*
X112937007Y-80484401D01*
X112937007Y-80484401D02*
X112984626Y-80484401D01*
X112984626Y-80484401D02*
X113079864Y-80532020D01*
X113079864Y-80532020D02*
X113127483Y-80579639D01*
X113127483Y-80579639D02*
X113175102Y-80674877D01*
X113175102Y-80674877D02*
X113175102Y-80865353D01*
X113175102Y-80865353D02*
X113222721Y-80960591D01*
X113222721Y-80960591D02*
X113270340Y-81008210D01*
X113270340Y-81008210D02*
X113365578Y-81055829D01*
X113365578Y-81055829D02*
X113556054Y-81055829D01*
X113556054Y-81055829D02*
X113651292Y-81008210D01*
X113651292Y-81008210D02*
X113698912Y-80960591D01*
X113698912Y-80960591D02*
X113746531Y-80865353D01*
X113746531Y-80865353D02*
X113746531Y-80674877D01*
X113746531Y-80674877D02*
X113698912Y-80579639D01*
X113698912Y-80579639D02*
X113651292Y-80532020D01*
X113651292Y-80532020D02*
X113556054Y-80484401D01*
X113556054Y-80484401D02*
X113365578Y-80484401D01*
X113365578Y-80484401D02*
X113270340Y-80532020D01*
X113270340Y-80532020D02*
X113222721Y-80579639D01*
X113222721Y-80579639D02*
X113175102Y-80674877D01*
X112746531Y-79865353D02*
X112746531Y-79770115D01*
X112746531Y-79770115D02*
X112794150Y-79674877D01*
X112794150Y-79674877D02*
X112841769Y-79627258D01*
X112841769Y-79627258D02*
X112937007Y-79579639D01*
X112937007Y-79579639D02*
X113127483Y-79532020D01*
X113127483Y-79532020D02*
X113365578Y-79532020D01*
X113365578Y-79532020D02*
X113556054Y-79579639D01*
X113556054Y-79579639D02*
X113651292Y-79627258D01*
X113651292Y-79627258D02*
X113698912Y-79674877D01*
X113698912Y-79674877D02*
X113746531Y-79770115D01*
X113746531Y-79770115D02*
X113746531Y-79865353D01*
X113746531Y-79865353D02*
X113698912Y-79960591D01*
X113698912Y-79960591D02*
X113651292Y-80008210D01*
X113651292Y-80008210D02*
X113556054Y-80055829D01*
X113556054Y-80055829D02*
X113365578Y-80103448D01*
X113365578Y-80103448D02*
X113127483Y-80103448D01*
X113127483Y-80103448D02*
X112937007Y-80055829D01*
X112937007Y-80055829D02*
X112841769Y-80008210D01*
X112841769Y-80008210D02*
X112794150Y-79960591D01*
X112794150Y-79960591D02*
X112746531Y-79865353D01*
X112746531Y-78912972D02*
X112746531Y-78817734D01*
X112746531Y-78817734D02*
X112794150Y-78722496D01*
X112794150Y-78722496D02*
X112841769Y-78674877D01*
X112841769Y-78674877D02*
X112937007Y-78627258D01*
X112937007Y-78627258D02*
X113127483Y-78579639D01*
X113127483Y-78579639D02*
X113365578Y-78579639D01*
X113365578Y-78579639D02*
X113556054Y-78627258D01*
X113556054Y-78627258D02*
X113651292Y-78674877D01*
X113651292Y-78674877D02*
X113698912Y-78722496D01*
X113698912Y-78722496D02*
X113746531Y-78817734D01*
X113746531Y-78817734D02*
X113746531Y-78912972D01*
X113746531Y-78912972D02*
X113698912Y-79008210D01*
X113698912Y-79008210D02*
X113651292Y-79055829D01*
X113651292Y-79055829D02*
X113556054Y-79103448D01*
X113556054Y-79103448D02*
X113365578Y-79151067D01*
X113365578Y-79151067D02*
X113127483Y-79151067D01*
X113127483Y-79151067D02*
X112937007Y-79103448D01*
X112937007Y-79103448D02*
X112841769Y-79055829D01*
X112841769Y-79055829D02*
X112794150Y-79008210D01*
X112794150Y-79008210D02*
X112746531Y-78912972D01*
X112746531Y-77960591D02*
X112746531Y-77865353D01*
X112746531Y-77865353D02*
X112794150Y-77770115D01*
X112794150Y-77770115D02*
X112841769Y-77722496D01*
X112841769Y-77722496D02*
X112937007Y-77674877D01*
X112937007Y-77674877D02*
X113127483Y-77627258D01*
X113127483Y-77627258D02*
X113365578Y-77627258D01*
X113365578Y-77627258D02*
X113556054Y-77674877D01*
X113556054Y-77674877D02*
X113651292Y-77722496D01*
X113651292Y-77722496D02*
X113698912Y-77770115D01*
X113698912Y-77770115D02*
X113746531Y-77865353D01*
X113746531Y-77865353D02*
X113746531Y-77960591D01*
X113746531Y-77960591D02*
X113698912Y-78055829D01*
X113698912Y-78055829D02*
X113651292Y-78103448D01*
X113651292Y-78103448D02*
X113556054Y-78151067D01*
X113556054Y-78151067D02*
X113365578Y-78198686D01*
X113365578Y-78198686D02*
X113127483Y-78198686D01*
X113127483Y-78198686D02*
X112937007Y-78151067D01*
X112937007Y-78151067D02*
X112841769Y-78103448D01*
X112841769Y-78103448D02*
X112794150Y-78055829D01*
X112794150Y-78055829D02*
X112746531Y-77960591D01*
X113746531Y-76436781D02*
X112746531Y-76436781D01*
X112746531Y-76436781D02*
X113460816Y-76103448D01*
X113460816Y-76103448D02*
X112746531Y-75770115D01*
X112746531Y-75770115D02*
X113746531Y-75770115D01*
X113222721Y-75293924D02*
X113222721Y-74960591D01*
X113746531Y-74817734D02*
X113746531Y-75293924D01*
X113746531Y-75293924D02*
X112746531Y-75293924D01*
X112746531Y-75293924D02*
X112746531Y-74817734D01*
X113746531Y-74389162D02*
X112746531Y-74389162D01*
X112746531Y-74389162D02*
X113460816Y-74055829D01*
X113460816Y-74055829D02*
X112746531Y-73722496D01*
X112746531Y-73722496D02*
X113746531Y-73722496D01*
X113746531Y-72484400D02*
X112746531Y-72484400D01*
X112746531Y-72484400D02*
X112746531Y-72246305D01*
X112746531Y-72246305D02*
X112794150Y-72103448D01*
X112794150Y-72103448D02*
X112889388Y-72008210D01*
X112889388Y-72008210D02*
X112984626Y-71960591D01*
X112984626Y-71960591D02*
X113175102Y-71912972D01*
X113175102Y-71912972D02*
X113317959Y-71912972D01*
X113317959Y-71912972D02*
X113508435Y-71960591D01*
X113508435Y-71960591D02*
X113603673Y-72008210D01*
X113603673Y-72008210D02*
X113698912Y-72103448D01*
X113698912Y-72103448D02*
X113746531Y-72246305D01*
X113746531Y-72246305D02*
X113746531Y-72484400D01*
X113746531Y-71484400D02*
X112746531Y-71484400D01*
X113698912Y-71055829D02*
X113746531Y-70912972D01*
X113746531Y-70912972D02*
X113746531Y-70674877D01*
X113746531Y-70674877D02*
X113698912Y-70579639D01*
X113698912Y-70579639D02*
X113651292Y-70532020D01*
X113651292Y-70532020D02*
X113556054Y-70484401D01*
X113556054Y-70484401D02*
X113460816Y-70484401D01*
X113460816Y-70484401D02*
X113365578Y-70532020D01*
X113365578Y-70532020D02*
X113317959Y-70579639D01*
X113317959Y-70579639D02*
X113270340Y-70674877D01*
X113270340Y-70674877D02*
X113222721Y-70865353D01*
X113222721Y-70865353D02*
X113175102Y-70960591D01*
X113175102Y-70960591D02*
X113127483Y-71008210D01*
X113127483Y-71008210D02*
X113032245Y-71055829D01*
X113032245Y-71055829D02*
X112937007Y-71055829D01*
X112937007Y-71055829D02*
X112841769Y-71008210D01*
X112841769Y-71008210D02*
X112794150Y-70960591D01*
X112794150Y-70960591D02*
X112746531Y-70865353D01*
X112746531Y-70865353D02*
X112746531Y-70627258D01*
X112746531Y-70627258D02*
X112794150Y-70484401D01*
X113746531Y-70055829D02*
X112746531Y-70055829D01*
X112746531Y-70055829D02*
X112746531Y-69674877D01*
X112746531Y-69674877D02*
X112794150Y-69579639D01*
X112794150Y-69579639D02*
X112841769Y-69532020D01*
X112841769Y-69532020D02*
X112937007Y-69484401D01*
X112937007Y-69484401D02*
X113079864Y-69484401D01*
X113079864Y-69484401D02*
X113175102Y-69532020D01*
X113175102Y-69532020D02*
X113222721Y-69579639D01*
X113222721Y-69579639D02*
X113270340Y-69674877D01*
X113270340Y-69674877D02*
X113270340Y-70055829D01*
X113651292Y-67722496D02*
X113698912Y-67770115D01*
X113698912Y-67770115D02*
X113746531Y-67912972D01*
X113746531Y-67912972D02*
X113746531Y-68008210D01*
X113746531Y-68008210D02*
X113698912Y-68151067D01*
X113698912Y-68151067D02*
X113603673Y-68246305D01*
X113603673Y-68246305D02*
X113508435Y-68293924D01*
X113508435Y-68293924D02*
X113317959Y-68341543D01*
X113317959Y-68341543D02*
X113175102Y-68341543D01*
X113175102Y-68341543D02*
X112984626Y-68293924D01*
X112984626Y-68293924D02*
X112889388Y-68246305D01*
X112889388Y-68246305D02*
X112794150Y-68151067D01*
X112794150Y-68151067D02*
X112746531Y-68008210D01*
X112746531Y-68008210D02*
X112746531Y-67912972D01*
X112746531Y-67912972D02*
X112794150Y-67770115D01*
X112794150Y-67770115D02*
X112841769Y-67722496D01*
X112746531Y-67103448D02*
X112746531Y-66912972D01*
X112746531Y-66912972D02*
X112794150Y-66817734D01*
X112794150Y-66817734D02*
X112889388Y-66722496D01*
X112889388Y-66722496D02*
X113079864Y-66674877D01*
X113079864Y-66674877D02*
X113413197Y-66674877D01*
X113413197Y-66674877D02*
X113603673Y-66722496D01*
X113603673Y-66722496D02*
X113698912Y-66817734D01*
X113698912Y-66817734D02*
X113746531Y-66912972D01*
X113746531Y-66912972D02*
X113746531Y-67103448D01*
X113746531Y-67103448D02*
X113698912Y-67198686D01*
X113698912Y-67198686D02*
X113603673Y-67293924D01*
X113603673Y-67293924D02*
X113413197Y-67341543D01*
X113413197Y-67341543D02*
X113079864Y-67341543D01*
X113079864Y-67341543D02*
X112889388Y-67293924D01*
X112889388Y-67293924D02*
X112794150Y-67198686D01*
X112794150Y-67198686D02*
X112746531Y-67103448D01*
X113746531Y-66246305D02*
X112746531Y-66246305D01*
X112746531Y-66246305D02*
X113746531Y-65674877D01*
X113746531Y-65674877D02*
X112746531Y-65674877D01*
X113746531Y-65198686D02*
X112746531Y-65198686D01*
X112746531Y-65198686D02*
X113746531Y-64627258D01*
X113746531Y-64627258D02*
X112746531Y-64627258D01*
X114356475Y-83912972D02*
X115356475Y-83579639D01*
X115356475Y-83579639D02*
X114356475Y-83246306D01*
X115356475Y-82389163D02*
X115356475Y-82960591D01*
X115356475Y-82674877D02*
X114356475Y-82674877D01*
X114356475Y-82674877D02*
X114499332Y-82770115D01*
X114499332Y-82770115D02*
X114594570Y-82865353D01*
X114594570Y-82865353D02*
X114642189Y-82960591D01*
X115261236Y-81960591D02*
X115308856Y-81912972D01*
X115308856Y-81912972D02*
X115356475Y-81960591D01*
X115356475Y-81960591D02*
X115308856Y-82008210D01*
X115308856Y-82008210D02*
X115261236Y-81960591D01*
X115261236Y-81960591D02*
X115356475Y-81960591D01*
X114356475Y-81293925D02*
X114356475Y-81198687D01*
X114356475Y-81198687D02*
X114404094Y-81103449D01*
X114404094Y-81103449D02*
X114451713Y-81055830D01*
X114451713Y-81055830D02*
X114546951Y-81008211D01*
X114546951Y-81008211D02*
X114737427Y-80960592D01*
X114737427Y-80960592D02*
X114975522Y-80960592D01*
X114975522Y-80960592D02*
X115165998Y-81008211D01*
X115165998Y-81008211D02*
X115261236Y-81055830D01*
X115261236Y-81055830D02*
X115308856Y-81103449D01*
X115308856Y-81103449D02*
X115356475Y-81198687D01*
X115356475Y-81198687D02*
X115356475Y-81293925D01*
X115356475Y-81293925D02*
X115308856Y-81389163D01*
X115308856Y-81389163D02*
X115261236Y-81436782D01*
X115261236Y-81436782D02*
X115165998Y-81484401D01*
X115165998Y-81484401D02*
X114975522Y-81532020D01*
X114975522Y-81532020D02*
X114737427Y-81532020D01*
X114737427Y-81532020D02*
X114546951Y-81484401D01*
X114546951Y-81484401D02*
X114451713Y-81436782D01*
X114451713Y-81436782D02*
X114404094Y-81389163D01*
X114404094Y-81389163D02*
X114356475Y-81293925D01*
X115070760Y-79817734D02*
X115070760Y-79341544D01*
X115356475Y-79912972D02*
X114356475Y-79579639D01*
X114356475Y-79579639D02*
X115356475Y-79246306D01*
X114689808Y-78912972D02*
X115689808Y-78912972D01*
X114737427Y-78912972D02*
X114689808Y-78817734D01*
X114689808Y-78817734D02*
X114689808Y-78627258D01*
X114689808Y-78627258D02*
X114737427Y-78532020D01*
X114737427Y-78532020D02*
X114785046Y-78484401D01*
X114785046Y-78484401D02*
X114880284Y-78436782D01*
X114880284Y-78436782D02*
X115165998Y-78436782D01*
X115165998Y-78436782D02*
X115261236Y-78484401D01*
X115261236Y-78484401D02*
X115308856Y-78532020D01*
X115308856Y-78532020D02*
X115356475Y-78627258D01*
X115356475Y-78627258D02*
X115356475Y-78817734D01*
X115356475Y-78817734D02*
X115308856Y-78912972D01*
X115356475Y-78008210D02*
X114689808Y-78008210D01*
X114880284Y-78008210D02*
X114785046Y-77960591D01*
X114785046Y-77960591D02*
X114737427Y-77912972D01*
X114737427Y-77912972D02*
X114689808Y-77817734D01*
X114689808Y-77817734D02*
X114689808Y-77722496D01*
X115356475Y-77389162D02*
X114689808Y-77389162D01*
X114356475Y-77389162D02*
X114404094Y-77436781D01*
X114404094Y-77436781D02*
X114451713Y-77389162D01*
X114451713Y-77389162D02*
X114404094Y-77341543D01*
X114404094Y-77341543D02*
X114356475Y-77389162D01*
X114356475Y-77389162D02*
X114451713Y-77389162D01*
X115356475Y-76770115D02*
X115308856Y-76865353D01*
X115308856Y-76865353D02*
X115213617Y-76912972D01*
X115213617Y-76912972D02*
X114356475Y-76912972D01*
X114451713Y-75674876D02*
X114404094Y-75627257D01*
X114404094Y-75627257D02*
X114356475Y-75532019D01*
X114356475Y-75532019D02*
X114356475Y-75293924D01*
X114356475Y-75293924D02*
X114404094Y-75198686D01*
X114404094Y-75198686D02*
X114451713Y-75151067D01*
X114451713Y-75151067D02*
X114546951Y-75103448D01*
X114546951Y-75103448D02*
X114642189Y-75103448D01*
X114642189Y-75103448D02*
X114785046Y-75151067D01*
X114785046Y-75151067D02*
X115356475Y-75722495D01*
X115356475Y-75722495D02*
X115356475Y-75103448D01*
X114356475Y-74484400D02*
X114356475Y-74389162D01*
X114356475Y-74389162D02*
X114404094Y-74293924D01*
X114404094Y-74293924D02*
X114451713Y-74246305D01*
X114451713Y-74246305D02*
X114546951Y-74198686D01*
X114546951Y-74198686D02*
X114737427Y-74151067D01*
X114737427Y-74151067D02*
X114975522Y-74151067D01*
X114975522Y-74151067D02*
X115165998Y-74198686D01*
X115165998Y-74198686D02*
X115261236Y-74246305D01*
X115261236Y-74246305D02*
X115308856Y-74293924D01*
X115308856Y-74293924D02*
X115356475Y-74389162D01*
X115356475Y-74389162D02*
X115356475Y-74484400D01*
X115356475Y-74484400D02*
X115308856Y-74579638D01*
X115308856Y-74579638D02*
X115261236Y-74627257D01*
X115261236Y-74627257D02*
X115165998Y-74674876D01*
X115165998Y-74674876D02*
X114975522Y-74722495D01*
X114975522Y-74722495D02*
X114737427Y-74722495D01*
X114737427Y-74722495D02*
X114546951Y-74674876D01*
X114546951Y-74674876D02*
X114451713Y-74627257D01*
X114451713Y-74627257D02*
X114404094Y-74579638D01*
X114404094Y-74579638D02*
X114356475Y-74484400D01*
X114451713Y-73770114D02*
X114404094Y-73722495D01*
X114404094Y-73722495D02*
X114356475Y-73627257D01*
X114356475Y-73627257D02*
X114356475Y-73389162D01*
X114356475Y-73389162D02*
X114404094Y-73293924D01*
X114404094Y-73293924D02*
X114451713Y-73246305D01*
X114451713Y-73246305D02*
X114546951Y-73198686D01*
X114546951Y-73198686D02*
X114642189Y-73198686D01*
X114642189Y-73198686D02*
X114785046Y-73246305D01*
X114785046Y-73246305D02*
X115356475Y-73817733D01*
X115356475Y-73817733D02*
X115356475Y-73198686D01*
X114356475Y-72341543D02*
X114356475Y-72532019D01*
X114356475Y-72532019D02*
X114404094Y-72627257D01*
X114404094Y-72627257D02*
X114451713Y-72674876D01*
X114451713Y-72674876D02*
X114594570Y-72770114D01*
X114594570Y-72770114D02*
X114785046Y-72817733D01*
X114785046Y-72817733D02*
X115165998Y-72817733D01*
X115165998Y-72817733D02*
X115261236Y-72770114D01*
X115261236Y-72770114D02*
X115308856Y-72722495D01*
X115308856Y-72722495D02*
X115356475Y-72627257D01*
X115356475Y-72627257D02*
X115356475Y-72436781D01*
X115356475Y-72436781D02*
X115308856Y-72341543D01*
X115308856Y-72341543D02*
X115261236Y-72293924D01*
X115261236Y-72293924D02*
X115165998Y-72246305D01*
X115165998Y-72246305D02*
X114927903Y-72246305D01*
X114927903Y-72246305D02*
X114832665Y-72293924D01*
X114832665Y-72293924D02*
X114785046Y-72341543D01*
X114785046Y-72341543D02*
X114737427Y-72436781D01*
X114737427Y-72436781D02*
X114737427Y-72627257D01*
X114737427Y-72627257D02*
X114785046Y-72722495D01*
X114785046Y-72722495D02*
X114832665Y-72770114D01*
X114832665Y-72770114D02*
X114927903Y-72817733D01*
X116966419Y-83770115D02*
X116299752Y-83770115D01*
X116394990Y-83770115D02*
X116347371Y-83722496D01*
X116347371Y-83722496D02*
X116299752Y-83627258D01*
X116299752Y-83627258D02*
X116299752Y-83484401D01*
X116299752Y-83484401D02*
X116347371Y-83389163D01*
X116347371Y-83389163D02*
X116442609Y-83341544D01*
X116442609Y-83341544D02*
X116966419Y-83341544D01*
X116442609Y-83341544D02*
X116347371Y-83293925D01*
X116347371Y-83293925D02*
X116299752Y-83198687D01*
X116299752Y-83198687D02*
X116299752Y-83055830D01*
X116299752Y-83055830D02*
X116347371Y-82960591D01*
X116347371Y-82960591D02*
X116442609Y-82912972D01*
X116442609Y-82912972D02*
X116966419Y-82912972D01*
X116918800Y-82055830D02*
X116966419Y-82151068D01*
X116966419Y-82151068D02*
X116966419Y-82341544D01*
X116966419Y-82341544D02*
X116918800Y-82436782D01*
X116918800Y-82436782D02*
X116823561Y-82484401D01*
X116823561Y-82484401D02*
X116442609Y-82484401D01*
X116442609Y-82484401D02*
X116347371Y-82436782D01*
X116347371Y-82436782D02*
X116299752Y-82341544D01*
X116299752Y-82341544D02*
X116299752Y-82151068D01*
X116299752Y-82151068D02*
X116347371Y-82055830D01*
X116347371Y-82055830D02*
X116442609Y-82008211D01*
X116442609Y-82008211D02*
X116537847Y-82008211D01*
X116537847Y-82008211D02*
X116633085Y-82484401D01*
X116299752Y-81579639D02*
X116966419Y-81579639D01*
X116394990Y-81579639D02*
X116347371Y-81532020D01*
X116347371Y-81532020D02*
X116299752Y-81436782D01*
X116299752Y-81436782D02*
X116299752Y-81293925D01*
X116299752Y-81293925D02*
X116347371Y-81198687D01*
X116347371Y-81198687D02*
X116442609Y-81151068D01*
X116442609Y-81151068D02*
X116966419Y-81151068D01*
X116966419Y-80246306D02*
X116442609Y-80246306D01*
X116442609Y-80246306D02*
X116347371Y-80293925D01*
X116347371Y-80293925D02*
X116299752Y-80389163D01*
X116299752Y-80389163D02*
X116299752Y-80579639D01*
X116299752Y-80579639D02*
X116347371Y-80674877D01*
X116918800Y-80246306D02*
X116966419Y-80341544D01*
X116966419Y-80341544D02*
X116966419Y-80579639D01*
X116966419Y-80579639D02*
X116918800Y-80674877D01*
X116918800Y-80674877D02*
X116823561Y-80722496D01*
X116823561Y-80722496D02*
X116728323Y-80722496D01*
X116728323Y-80722496D02*
X116633085Y-80674877D01*
X116633085Y-80674877D02*
X116585466Y-80579639D01*
X116585466Y-80579639D02*
X116585466Y-80341544D01*
X116585466Y-80341544D02*
X116537847Y-80246306D01*
X116966419Y-79341544D02*
X115966419Y-79341544D01*
X116918800Y-79341544D02*
X116966419Y-79436782D01*
X116966419Y-79436782D02*
X116966419Y-79627258D01*
X116966419Y-79627258D02*
X116918800Y-79722496D01*
X116918800Y-79722496D02*
X116871180Y-79770115D01*
X116871180Y-79770115D02*
X116775942Y-79817734D01*
X116775942Y-79817734D02*
X116490228Y-79817734D01*
X116490228Y-79817734D02*
X116394990Y-79770115D01*
X116394990Y-79770115D02*
X116347371Y-79722496D01*
X116347371Y-79722496D02*
X116299752Y-79627258D01*
X116299752Y-79627258D02*
X116299752Y-79436782D01*
X116299752Y-79436782D02*
X116347371Y-79341544D01*
X116299752Y-78436782D02*
X116966419Y-78436782D01*
X116299752Y-78865353D02*
X116823561Y-78865353D01*
X116823561Y-78865353D02*
X116918800Y-78817734D01*
X116918800Y-78817734D02*
X116966419Y-78722496D01*
X116966419Y-78722496D02*
X116966419Y-78579639D01*
X116966419Y-78579639D02*
X116918800Y-78484401D01*
X116918800Y-78484401D02*
X116871180Y-78436782D01*
X116918800Y-77579639D02*
X116966419Y-77674877D01*
X116966419Y-77674877D02*
X116966419Y-77865353D01*
X116966419Y-77865353D02*
X116918800Y-77960591D01*
X116918800Y-77960591D02*
X116823561Y-78008210D01*
X116823561Y-78008210D02*
X116442609Y-78008210D01*
X116442609Y-78008210D02*
X116347371Y-77960591D01*
X116347371Y-77960591D02*
X116299752Y-77865353D01*
X116299752Y-77865353D02*
X116299752Y-77674877D01*
X116299752Y-77674877D02*
X116347371Y-77579639D01*
X116347371Y-77579639D02*
X116442609Y-77532020D01*
X116442609Y-77532020D02*
X116537847Y-77532020D01*
X116537847Y-77532020D02*
X116633085Y-78008210D01*
X116490228Y-76484401D02*
X116442609Y-76532020D01*
X116442609Y-76532020D02*
X116394990Y-76627258D01*
X116394990Y-76627258D02*
X116394990Y-76722496D01*
X116394990Y-76722496D02*
X116442609Y-76817734D01*
X116442609Y-76817734D02*
X116490228Y-76865353D01*
X116490228Y-76865353D02*
X116585466Y-76912972D01*
X116585466Y-76912972D02*
X116680704Y-76912972D01*
X116680704Y-76912972D02*
X116775942Y-76865353D01*
X116775942Y-76865353D02*
X116823561Y-76817734D01*
X116823561Y-76817734D02*
X116871180Y-76722496D01*
X116871180Y-76722496D02*
X116871180Y-76627258D01*
X116871180Y-76627258D02*
X116823561Y-76532020D01*
X116823561Y-76532020D02*
X116775942Y-76484401D01*
X116394990Y-76484401D02*
X116775942Y-76484401D01*
X116775942Y-76484401D02*
X116823561Y-76436782D01*
X116823561Y-76436782D02*
X116823561Y-76389163D01*
X116823561Y-76389163D02*
X116775942Y-76293924D01*
X116775942Y-76293924D02*
X116680704Y-76246305D01*
X116680704Y-76246305D02*
X116442609Y-76246305D01*
X116442609Y-76246305D02*
X116299752Y-76341544D01*
X116299752Y-76341544D02*
X116204514Y-76484401D01*
X116204514Y-76484401D02*
X116156895Y-76674877D01*
X116156895Y-76674877D02*
X116204514Y-76865353D01*
X116204514Y-76865353D02*
X116299752Y-77008210D01*
X116299752Y-77008210D02*
X116442609Y-77103448D01*
X116442609Y-77103448D02*
X116633085Y-77151067D01*
X116633085Y-77151067D02*
X116823561Y-77103448D01*
X116823561Y-77103448D02*
X116966419Y-77008210D01*
X116966419Y-77008210D02*
X117061657Y-76865353D01*
X117061657Y-76865353D02*
X117109276Y-76674877D01*
X117109276Y-76674877D02*
X117061657Y-76484401D01*
X117061657Y-76484401D02*
X116966419Y-76341544D01*
X116299752Y-75389163D02*
X117109276Y-75389163D01*
X117109276Y-75389163D02*
X117204514Y-75436782D01*
X117204514Y-75436782D02*
X117252133Y-75484401D01*
X117252133Y-75484401D02*
X117299752Y-75579639D01*
X117299752Y-75579639D02*
X117299752Y-75722496D01*
X117299752Y-75722496D02*
X117252133Y-75817734D01*
X116918800Y-75389163D02*
X116966419Y-75484401D01*
X116966419Y-75484401D02*
X116966419Y-75674877D01*
X116966419Y-75674877D02*
X116918800Y-75770115D01*
X116918800Y-75770115D02*
X116871180Y-75817734D01*
X116871180Y-75817734D02*
X116775942Y-75865353D01*
X116775942Y-75865353D02*
X116490228Y-75865353D01*
X116490228Y-75865353D02*
X116394990Y-75817734D01*
X116394990Y-75817734D02*
X116347371Y-75770115D01*
X116347371Y-75770115D02*
X116299752Y-75674877D01*
X116299752Y-75674877D02*
X116299752Y-75484401D01*
X116299752Y-75484401D02*
X116347371Y-75389163D01*
X116966419Y-74912972D02*
X116299752Y-74912972D01*
X116394990Y-74912972D02*
X116347371Y-74865353D01*
X116347371Y-74865353D02*
X116299752Y-74770115D01*
X116299752Y-74770115D02*
X116299752Y-74627258D01*
X116299752Y-74627258D02*
X116347371Y-74532020D01*
X116347371Y-74532020D02*
X116442609Y-74484401D01*
X116442609Y-74484401D02*
X116966419Y-74484401D01*
X116442609Y-74484401D02*
X116347371Y-74436782D01*
X116347371Y-74436782D02*
X116299752Y-74341544D01*
X116299752Y-74341544D02*
X116299752Y-74198687D01*
X116299752Y-74198687D02*
X116347371Y-74103448D01*
X116347371Y-74103448D02*
X116442609Y-74055829D01*
X116442609Y-74055829D02*
X116966419Y-74055829D01*
X116966419Y-73151068D02*
X116442609Y-73151068D01*
X116442609Y-73151068D02*
X116347371Y-73198687D01*
X116347371Y-73198687D02*
X116299752Y-73293925D01*
X116299752Y-73293925D02*
X116299752Y-73484401D01*
X116299752Y-73484401D02*
X116347371Y-73579639D01*
X116918800Y-73151068D02*
X116966419Y-73246306D01*
X116966419Y-73246306D02*
X116966419Y-73484401D01*
X116966419Y-73484401D02*
X116918800Y-73579639D01*
X116918800Y-73579639D02*
X116823561Y-73627258D01*
X116823561Y-73627258D02*
X116728323Y-73627258D01*
X116728323Y-73627258D02*
X116633085Y-73579639D01*
X116633085Y-73579639D02*
X116585466Y-73484401D01*
X116585466Y-73484401D02*
X116585466Y-73246306D01*
X116585466Y-73246306D02*
X116537847Y-73151068D01*
X116966419Y-72674877D02*
X116299752Y-72674877D01*
X115966419Y-72674877D02*
X116014038Y-72722496D01*
X116014038Y-72722496D02*
X116061657Y-72674877D01*
X116061657Y-72674877D02*
X116014038Y-72627258D01*
X116014038Y-72627258D02*
X115966419Y-72674877D01*
X115966419Y-72674877D02*
X116061657Y-72674877D01*
X116966419Y-72055830D02*
X116918800Y-72151068D01*
X116918800Y-72151068D02*
X116823561Y-72198687D01*
X116823561Y-72198687D02*
X115966419Y-72198687D01*
X116871180Y-71674877D02*
X116918800Y-71627258D01*
X116918800Y-71627258D02*
X116966419Y-71674877D01*
X116966419Y-71674877D02*
X116918800Y-71722496D01*
X116918800Y-71722496D02*
X116871180Y-71674877D01*
X116871180Y-71674877D02*
X116966419Y-71674877D01*
X116918800Y-70770116D02*
X116966419Y-70865354D01*
X116966419Y-70865354D02*
X116966419Y-71055830D01*
X116966419Y-71055830D02*
X116918800Y-71151068D01*
X116918800Y-71151068D02*
X116871180Y-71198687D01*
X116871180Y-71198687D02*
X116775942Y-71246306D01*
X116775942Y-71246306D02*
X116490228Y-71246306D01*
X116490228Y-71246306D02*
X116394990Y-71198687D01*
X116394990Y-71198687D02*
X116347371Y-71151068D01*
X116347371Y-71151068D02*
X116299752Y-71055830D01*
X116299752Y-71055830D02*
X116299752Y-70865354D01*
X116299752Y-70865354D02*
X116347371Y-70770116D01*
X116966419Y-70198687D02*
X116918800Y-70293925D01*
X116918800Y-70293925D02*
X116871180Y-70341544D01*
X116871180Y-70341544D02*
X116775942Y-70389163D01*
X116775942Y-70389163D02*
X116490228Y-70389163D01*
X116490228Y-70389163D02*
X116394990Y-70341544D01*
X116394990Y-70341544D02*
X116347371Y-70293925D01*
X116347371Y-70293925D02*
X116299752Y-70198687D01*
X116299752Y-70198687D02*
X116299752Y-70055830D01*
X116299752Y-70055830D02*
X116347371Y-69960592D01*
X116347371Y-69960592D02*
X116394990Y-69912973D01*
X116394990Y-69912973D02*
X116490228Y-69865354D01*
X116490228Y-69865354D02*
X116775942Y-69865354D01*
X116775942Y-69865354D02*
X116871180Y-69912973D01*
X116871180Y-69912973D02*
X116918800Y-69960592D01*
X116918800Y-69960592D02*
X116966419Y-70055830D01*
X116966419Y-70055830D02*
X116966419Y-70198687D01*
X116966419Y-69436782D02*
X116299752Y-69436782D01*
X116394990Y-69436782D02*
X116347371Y-69389163D01*
X116347371Y-69389163D02*
X116299752Y-69293925D01*
X116299752Y-69293925D02*
X116299752Y-69151068D01*
X116299752Y-69151068D02*
X116347371Y-69055830D01*
X116347371Y-69055830D02*
X116442609Y-69008211D01*
X116442609Y-69008211D02*
X116966419Y-69008211D01*
X116442609Y-69008211D02*
X116347371Y-68960592D01*
X116347371Y-68960592D02*
X116299752Y-68865354D01*
X116299752Y-68865354D02*
X116299752Y-68722497D01*
X116299752Y-68722497D02*
X116347371Y-68627258D01*
X116347371Y-68627258D02*
X116442609Y-68579639D01*
X116442609Y-68579639D02*
X116966419Y-68579639D01*
X123364666Y-60417419D02*
X123364666Y-61131704D01*
X123364666Y-61131704D02*
X123317047Y-61274561D01*
X123317047Y-61274561D02*
X123221809Y-61369800D01*
X123221809Y-61369800D02*
X123078952Y-61417419D01*
X123078952Y-61417419D02*
X122983714Y-61417419D01*
X123793238Y-60512657D02*
X123840857Y-60465038D01*
X123840857Y-60465038D02*
X123936095Y-60417419D01*
X123936095Y-60417419D02*
X124174190Y-60417419D01*
X124174190Y-60417419D02*
X124269428Y-60465038D01*
X124269428Y-60465038D02*
X124317047Y-60512657D01*
X124317047Y-60512657D02*
X124364666Y-60607895D01*
X124364666Y-60607895D02*
X124364666Y-60703133D01*
X124364666Y-60703133D02*
X124317047Y-60845990D01*
X124317047Y-60845990D02*
X123745619Y-61417419D01*
X123745619Y-61417419D02*
X124364666Y-61417419D01*
X105584666Y-60417419D02*
X105584666Y-61131704D01*
X105584666Y-61131704D02*
X105537047Y-61274561D01*
X105537047Y-61274561D02*
X105441809Y-61369800D01*
X105441809Y-61369800D02*
X105298952Y-61417419D01*
X105298952Y-61417419D02*
X105203714Y-61417419D01*
X106584666Y-61417419D02*
X106013238Y-61417419D01*
X106298952Y-61417419D02*
X106298952Y-60417419D01*
X106298952Y-60417419D02*
X106203714Y-60560276D01*
X106203714Y-60560276D02*
X106108476Y-60655514D01*
X106108476Y-60655514D02*
X106013238Y-60703133D01*
%TO.C,J2*%
X119634000Y-61976000D02*
X128016000Y-61976000D01*
X119634000Y-125984000D02*
X119634000Y-61976000D01*
X128016000Y-125984000D02*
X119634000Y-125984000D01*
X128016000Y-125984000D02*
X128016000Y-61976000D01*
%TO.C,J1*%
X102412000Y-62026000D02*
X110794000Y-62026000D01*
X102412000Y-126034000D02*
X102412000Y-62026000D01*
X110794000Y-126034000D02*
X102412000Y-126034000D01*
X110794000Y-126034000D02*
X110794000Y-62026000D01*
%TD*%
M02*
