%TF.GenerationSoftware,KiCad,Pcbnew,10.0.0-1.fc43*%
%TF.CreationDate,2026-04-16T14:34:28+01:00*%
%TF.ProjectId,cpt-video-adapter,6370742d-7669-4646-956f-2d6164617074,rev?*%
%TF.SameCoordinates,Original*%
%TF.FileFunction,Soldermask,Bot*%
%TF.FilePolarity,Negative*%
%FSLAX46Y46*%
G04 Gerber Fmt 4.6, Leading zero omitted, Abs format (unit mm)*
G04 Created by KiCad (PCBNEW 10.0.0-1.fc43) date 2026-04-16 14:34:28*
%MOMM*%
%LPD*%
G01*
G04 APERTURE LIST*
G04 Aperture macros list*
%AMRoundRect*
0 Rectangle with rounded corners*
0 $1 Rounding radius*
0 $2 $3 $4 $5 $6 $7 $8 $9 X,Y pos of 4 corners*
0 Add a 4 corners polygon primitive as box body*
4,1,4,$2,$3,$4,$5,$6,$7,$8,$9,$2,$3,0*
0 Add four circle primitives for the rounded corners*
1,1,$1+$1,$2,$3*
1,1,$1+$1,$4,$5*
1,1,$1+$1,$6,$7*
1,1,$1+$1,$8,$9*
0 Add four rect primitives between the rounded corners*
20,1,$1+$1,$2,$3,$4,$5,0*
20,1,$1+$1,$4,$5,$6,$7,0*
20,1,$1+$1,$6,$7,$8,$9,0*
20,1,$1+$1,$8,$9,$2,$3,0*%
%AMFreePoly0*
4,1,37,0.603843,0.796157,0.639018,0.796157,0.711114,0.766294,0.766294,0.711114,0.796157,0.639018,0.796157,0.603843,0.800000,0.600000,0.800000,-0.600000,0.796157,-0.603843,0.796157,-0.639018,0.766294,-0.711114,0.711114,-0.766294,0.639018,-0.796157,0.603843,-0.796157,0.600000,-0.800000,0.000000,-0.800000,0.000000,-0.796148,-0.078414,-0.796148,-0.232228,-0.765552,-0.377117,-0.705537,
-0.507515,-0.618408,-0.618408,-0.507515,-0.705537,-0.377117,-0.765552,-0.232228,-0.796148,-0.078414,-0.796148,0.078414,-0.765552,0.232228,-0.705537,0.377117,-0.618408,0.507515,-0.507515,0.618408,-0.377117,0.705537,-0.232228,0.765552,-0.078414,0.796148,0.000000,0.796148,0.000000,0.800000,0.600000,0.800000,0.603843,0.796157,0.603843,0.796157,$1*%
%AMFreePoly1*
4,1,37,0.000000,0.796148,0.078414,0.796148,0.232228,0.765552,0.377117,0.705537,0.507515,0.618408,0.618408,0.507515,0.705537,0.377117,0.765552,0.232228,0.796148,0.078414,0.796148,-0.078414,0.765552,-0.232228,0.705537,-0.377117,0.618408,-0.507515,0.507515,-0.618408,0.377117,-0.705537,0.232228,-0.765552,0.078414,-0.796148,0.000000,-0.796148,0.000000,-0.800000,-0.600000,-0.800000,
-0.603843,-0.796157,-0.639018,-0.796157,-0.711114,-0.766294,-0.766294,-0.711114,-0.796157,-0.639018,-0.796157,-0.603843,-0.800000,-0.600000,-0.800000,0.600000,-0.796157,0.603843,-0.796157,0.639018,-0.766294,0.711114,-0.711114,0.766294,-0.639018,0.796157,-0.603843,0.796157,-0.600000,0.800000,0.000000,0.800000,0.000000,0.796148,0.000000,0.796148,$1*%
G04 Aperture macros list end*
%ADD10R,1.700000X1.700000*%
%ADD11C,1.700000*%
%ADD12RoundRect,0.250000X-0.550000X-0.550000X0.550000X-0.550000X0.550000X0.550000X-0.550000X0.550000X0*%
%ADD13C,1.600000*%
%ADD14RoundRect,0.300000X-3.700000X-0.700000X3.700000X-0.700000X3.700000X0.700000X-3.700000X0.700000X0*%
%ADD15RoundRect,0.250000X0.600000X0.600000X-0.600000X0.600000X-0.600000X-0.600000X0.600000X-0.600000X0*%
%ADD16C,2.200000*%
%ADD17C,1.850000*%
%ADD18RoundRect,0.200000X-0.600000X-0.600000X0.600000X-0.600000X0.600000X0.600000X-0.600000X0.600000X0*%
%ADD19FreePoly0,0.000000*%
%ADD20FreePoly1,0.000000*%
G04 APERTURE END LIST*
D10*
%TO.C,J4*%
X122936000Y-37338000D03*
D11*
X122936000Y-39878000D03*
X122936000Y-42418000D03*
X122936000Y-44958000D03*
X122936000Y-47498000D03*
X122936000Y-50038000D03*
X122936000Y-52578000D03*
X122936000Y-55118000D03*
X122936000Y-57658000D03*
%TD*%
D10*
%TO.C,J3*%
X122936000Y-74930000D03*
D11*
X122936000Y-77470000D03*
X122936000Y-80010000D03*
X122936000Y-82550000D03*
X122936000Y-85090000D03*
X122936000Y-87630000D03*
X122936000Y-90170000D03*
X122936000Y-92710000D03*
X122936000Y-95250000D03*
X122936000Y-97790000D03*
X122936000Y-100330000D03*
X122936000Y-102870000D03*
X122936000Y-105410000D03*
X122936000Y-107950000D03*
X122936000Y-110490000D03*
X122936000Y-113030000D03*
X122936000Y-115570000D03*
%TD*%
D12*
%TO.C,U1*%
X147579000Y-131064000D03*
D13*
X147579000Y-133604000D03*
X147579000Y-136144000D03*
X147579000Y-138684000D03*
X147579000Y-141224000D03*
X147579000Y-143764000D03*
X147579000Y-146304000D03*
X147579000Y-148844000D03*
X155199000Y-148844000D03*
X155199000Y-146304000D03*
X155199000Y-143764000D03*
X155199000Y-141224000D03*
X155199000Y-138684000D03*
X155199000Y-136144000D03*
X155199000Y-133604000D03*
X155199000Y-131064000D03*
%TD*%
D14*
%TO.C,J2*%
X177000000Y-31000000D03*
X177000000Y-33540000D03*
X177000000Y-36080000D03*
X177000000Y-38620000D03*
X177000000Y-41160000D03*
X177000000Y-43700000D03*
X177000000Y-46240000D03*
X177000000Y-48780000D03*
X177000000Y-51320000D03*
X177000000Y-53860000D03*
X177000000Y-56400000D03*
X177000000Y-58940000D03*
X177000000Y-61480000D03*
X177000000Y-64020000D03*
X177000000Y-66560000D03*
X177000000Y-69100000D03*
X177000000Y-71640000D03*
X177000000Y-74180000D03*
X177000000Y-76720000D03*
X177000000Y-79260000D03*
X177000000Y-81800000D03*
X177000000Y-84340000D03*
X177000000Y-86880000D03*
X177000000Y-89420000D03*
X177000000Y-91960000D03*
X177000000Y-94500000D03*
X177000000Y-97040000D03*
X177000000Y-99580000D03*
X177000000Y-102120000D03*
X177000000Y-104660000D03*
X177000000Y-107200000D03*
X177000000Y-109740000D03*
X177000000Y-112280000D03*
X177000000Y-114820000D03*
X177000000Y-117360000D03*
X177000000Y-119900000D03*
X177000000Y-122440000D03*
X177000000Y-124980000D03*
X177000000Y-127520000D03*
X177000000Y-130060000D03*
X177000000Y-132600000D03*
X177000000Y-135140000D03*
X177000000Y-137680000D03*
X177000000Y-140220000D03*
X177000000Y-142760000D03*
X177000000Y-145300000D03*
X177000000Y-147840000D03*
X177000000Y-150380000D03*
X177000000Y-152920000D03*
X177000000Y-155460000D03*
%TD*%
D15*
%TO.C,J1*%
X129794000Y-144272000D03*
D11*
X127254000Y-144272000D03*
X129794000Y-141732000D03*
X127254000Y-141732000D03*
X129794000Y-139192000D03*
X127254000Y-139192000D03*
X129794000Y-136652000D03*
X127254000Y-136652000D03*
X129794000Y-134112000D03*
X127254000Y-134112000D03*
%TD*%
D16*
%TO.C,A1*%
X146775000Y-70500000D03*
D17*
X147075000Y-73530000D03*
X151925000Y-73530000D03*
D16*
X152225000Y-70500000D03*
D18*
X140610000Y-70370000D03*
D13*
X140610000Y-72910000D03*
D19*
X140610000Y-75450000D03*
D13*
X140610000Y-77990000D03*
X140610000Y-80530000D03*
X140610000Y-83070000D03*
X140610000Y-85610000D03*
D19*
X140610000Y-88150000D03*
D13*
X140610000Y-90690000D03*
X140610000Y-93230000D03*
X140610000Y-95770000D03*
X140610000Y-98310000D03*
D19*
X140610000Y-100850000D03*
D13*
X140610000Y-103390000D03*
X140610000Y-105930000D03*
X140610000Y-108470000D03*
X140610000Y-111010000D03*
D19*
X140610000Y-113550000D03*
D13*
X140610000Y-116090000D03*
X140610000Y-118630000D03*
X158390000Y-118630000D03*
X158390000Y-116090000D03*
D20*
X158390000Y-113550000D03*
D13*
X158390000Y-111010000D03*
X158390000Y-108470000D03*
X158390000Y-105930000D03*
X158390000Y-103390000D03*
D20*
X158390000Y-100850000D03*
D13*
X158390000Y-98310000D03*
X158390000Y-95770000D03*
X158390000Y-93230000D03*
X158390000Y-90690000D03*
D20*
X158390000Y-88150000D03*
D13*
X158390000Y-85610000D03*
X158390000Y-83070000D03*
X158390000Y-80530000D03*
X158390000Y-77990000D03*
D20*
X158390000Y-75450000D03*
D13*
X158390000Y-72910000D03*
X158390000Y-70370000D03*
%TD*%
M02*
