%TF.GenerationSoftware,KiCad,Pcbnew,10.0.0-1.fc43*%
%TF.CreationDate,2026-04-16T14:34:27+01:00*%
%TF.ProjectId,cpt-video-adapter,6370742d-7669-4646-956f-2d6164617074,rev?*%
%TF.SameCoordinates,Original*%
%TF.FileFunction,Legend,Top*%
%TF.FilePolarity,Positive*%
%FSLAX46Y46*%
G04 Gerber Fmt 4.6, Leading zero omitted, Abs format (unit mm)*
G04 Created by KiCad (PCBNEW 10.0.0-1.fc43) date 2026-04-16 14:34:27*
%MOMM*%
%LPD*%
G01*
G04 APERTURE LIST*
%ADD10C,0.100000*%
%ADD11C,0.150000*%
%ADD12C,0.120000*%
G04 APERTURE END LIST*
D10*
X132193312Y-28053292D02*
X132145693Y-28100912D01*
X132145693Y-28100912D02*
X132002836Y-28148531D01*
X132002836Y-28148531D02*
X131907598Y-28148531D01*
X131907598Y-28148531D02*
X131764741Y-28100912D01*
X131764741Y-28100912D02*
X131669503Y-28005673D01*
X131669503Y-28005673D02*
X131621884Y-27910435D01*
X131621884Y-27910435D02*
X131574265Y-27719959D01*
X131574265Y-27719959D02*
X131574265Y-27577102D01*
X131574265Y-27577102D02*
X131621884Y-27386626D01*
X131621884Y-27386626D02*
X131669503Y-27291388D01*
X131669503Y-27291388D02*
X131764741Y-27196150D01*
X131764741Y-27196150D02*
X131907598Y-27148531D01*
X131907598Y-27148531D02*
X132002836Y-27148531D01*
X132002836Y-27148531D02*
X132145693Y-27196150D01*
X132145693Y-27196150D02*
X132193312Y-27243769D01*
X132621884Y-28148531D02*
X132621884Y-27148531D01*
X132621884Y-27148531D02*
X133002836Y-27148531D01*
X133002836Y-27148531D02*
X133098074Y-27196150D01*
X133098074Y-27196150D02*
X133145693Y-27243769D01*
X133145693Y-27243769D02*
X133193312Y-27339007D01*
X133193312Y-27339007D02*
X133193312Y-27481864D01*
X133193312Y-27481864D02*
X133145693Y-27577102D01*
X133145693Y-27577102D02*
X133098074Y-27624721D01*
X133098074Y-27624721D02*
X133002836Y-27672340D01*
X133002836Y-27672340D02*
X132621884Y-27672340D01*
X133479027Y-27148531D02*
X134050455Y-27148531D01*
X133764741Y-28148531D02*
X133764741Y-27148531D01*
X134526646Y-27577102D02*
X134431408Y-27529483D01*
X134431408Y-27529483D02*
X134383789Y-27481864D01*
X134383789Y-27481864D02*
X134336170Y-27386626D01*
X134336170Y-27386626D02*
X134336170Y-27339007D01*
X134336170Y-27339007D02*
X134383789Y-27243769D01*
X134383789Y-27243769D02*
X134431408Y-27196150D01*
X134431408Y-27196150D02*
X134526646Y-27148531D01*
X134526646Y-27148531D02*
X134717122Y-27148531D01*
X134717122Y-27148531D02*
X134812360Y-27196150D01*
X134812360Y-27196150D02*
X134859979Y-27243769D01*
X134859979Y-27243769D02*
X134907598Y-27339007D01*
X134907598Y-27339007D02*
X134907598Y-27386626D01*
X134907598Y-27386626D02*
X134859979Y-27481864D01*
X134859979Y-27481864D02*
X134812360Y-27529483D01*
X134812360Y-27529483D02*
X134717122Y-27577102D01*
X134717122Y-27577102D02*
X134526646Y-27577102D01*
X134526646Y-27577102D02*
X134431408Y-27624721D01*
X134431408Y-27624721D02*
X134383789Y-27672340D01*
X134383789Y-27672340D02*
X134336170Y-27767578D01*
X134336170Y-27767578D02*
X134336170Y-27958054D01*
X134336170Y-27958054D02*
X134383789Y-28053292D01*
X134383789Y-28053292D02*
X134431408Y-28100912D01*
X134431408Y-28100912D02*
X134526646Y-28148531D01*
X134526646Y-28148531D02*
X134717122Y-28148531D01*
X134717122Y-28148531D02*
X134812360Y-28100912D01*
X134812360Y-28100912D02*
X134859979Y-28053292D01*
X134859979Y-28053292D02*
X134907598Y-27958054D01*
X134907598Y-27958054D02*
X134907598Y-27767578D01*
X134907598Y-27767578D02*
X134859979Y-27672340D01*
X134859979Y-27672340D02*
X134812360Y-27624721D01*
X134812360Y-27624721D02*
X134717122Y-27577102D01*
X135526646Y-27148531D02*
X135621884Y-27148531D01*
X135621884Y-27148531D02*
X135717122Y-27196150D01*
X135717122Y-27196150D02*
X135764741Y-27243769D01*
X135764741Y-27243769D02*
X135812360Y-27339007D01*
X135812360Y-27339007D02*
X135859979Y-27529483D01*
X135859979Y-27529483D02*
X135859979Y-27767578D01*
X135859979Y-27767578D02*
X135812360Y-27958054D01*
X135812360Y-27958054D02*
X135764741Y-28053292D01*
X135764741Y-28053292D02*
X135717122Y-28100912D01*
X135717122Y-28100912D02*
X135621884Y-28148531D01*
X135621884Y-28148531D02*
X135526646Y-28148531D01*
X135526646Y-28148531D02*
X135431408Y-28100912D01*
X135431408Y-28100912D02*
X135383789Y-28053292D01*
X135383789Y-28053292D02*
X135336170Y-27958054D01*
X135336170Y-27958054D02*
X135288551Y-27767578D01*
X135288551Y-27767578D02*
X135288551Y-27529483D01*
X135288551Y-27529483D02*
X135336170Y-27339007D01*
X135336170Y-27339007D02*
X135383789Y-27243769D01*
X135383789Y-27243769D02*
X135431408Y-27196150D01*
X135431408Y-27196150D02*
X135526646Y-27148531D01*
X136479027Y-27148531D02*
X136574265Y-27148531D01*
X136574265Y-27148531D02*
X136669503Y-27196150D01*
X136669503Y-27196150D02*
X136717122Y-27243769D01*
X136717122Y-27243769D02*
X136764741Y-27339007D01*
X136764741Y-27339007D02*
X136812360Y-27529483D01*
X136812360Y-27529483D02*
X136812360Y-27767578D01*
X136812360Y-27767578D02*
X136764741Y-27958054D01*
X136764741Y-27958054D02*
X136717122Y-28053292D01*
X136717122Y-28053292D02*
X136669503Y-28100912D01*
X136669503Y-28100912D02*
X136574265Y-28148531D01*
X136574265Y-28148531D02*
X136479027Y-28148531D01*
X136479027Y-28148531D02*
X136383789Y-28100912D01*
X136383789Y-28100912D02*
X136336170Y-28053292D01*
X136336170Y-28053292D02*
X136288551Y-27958054D01*
X136288551Y-27958054D02*
X136240932Y-27767578D01*
X136240932Y-27767578D02*
X136240932Y-27529483D01*
X136240932Y-27529483D02*
X136288551Y-27339007D01*
X136288551Y-27339007D02*
X136336170Y-27243769D01*
X136336170Y-27243769D02*
X136383789Y-27196150D01*
X136383789Y-27196150D02*
X136479027Y-27148531D01*
X137431408Y-27148531D02*
X137526646Y-27148531D01*
X137526646Y-27148531D02*
X137621884Y-27196150D01*
X137621884Y-27196150D02*
X137669503Y-27243769D01*
X137669503Y-27243769D02*
X137717122Y-27339007D01*
X137717122Y-27339007D02*
X137764741Y-27529483D01*
X137764741Y-27529483D02*
X137764741Y-27767578D01*
X137764741Y-27767578D02*
X137717122Y-27958054D01*
X137717122Y-27958054D02*
X137669503Y-28053292D01*
X137669503Y-28053292D02*
X137621884Y-28100912D01*
X137621884Y-28100912D02*
X137526646Y-28148531D01*
X137526646Y-28148531D02*
X137431408Y-28148531D01*
X137431408Y-28148531D02*
X137336170Y-28100912D01*
X137336170Y-28100912D02*
X137288551Y-28053292D01*
X137288551Y-28053292D02*
X137240932Y-27958054D01*
X137240932Y-27958054D02*
X137193313Y-27767578D01*
X137193313Y-27767578D02*
X137193313Y-27529483D01*
X137193313Y-27529483D02*
X137240932Y-27339007D01*
X137240932Y-27339007D02*
X137288551Y-27243769D01*
X137288551Y-27243769D02*
X137336170Y-27196150D01*
X137336170Y-27196150D02*
X137431408Y-27148531D01*
X138812361Y-27148531D02*
X139145694Y-28148531D01*
X139145694Y-28148531D02*
X139479027Y-27148531D01*
X139812361Y-28148531D02*
X139812361Y-27481864D01*
X139812361Y-27148531D02*
X139764742Y-27196150D01*
X139764742Y-27196150D02*
X139812361Y-27243769D01*
X139812361Y-27243769D02*
X139859980Y-27196150D01*
X139859980Y-27196150D02*
X139812361Y-27148531D01*
X139812361Y-27148531D02*
X139812361Y-27243769D01*
X140717122Y-28148531D02*
X140717122Y-27148531D01*
X140717122Y-28100912D02*
X140621884Y-28148531D01*
X140621884Y-28148531D02*
X140431408Y-28148531D01*
X140431408Y-28148531D02*
X140336170Y-28100912D01*
X140336170Y-28100912D02*
X140288551Y-28053292D01*
X140288551Y-28053292D02*
X140240932Y-27958054D01*
X140240932Y-27958054D02*
X140240932Y-27672340D01*
X140240932Y-27672340D02*
X140288551Y-27577102D01*
X140288551Y-27577102D02*
X140336170Y-27529483D01*
X140336170Y-27529483D02*
X140431408Y-27481864D01*
X140431408Y-27481864D02*
X140621884Y-27481864D01*
X140621884Y-27481864D02*
X140717122Y-27529483D01*
X141574265Y-28100912D02*
X141479027Y-28148531D01*
X141479027Y-28148531D02*
X141288551Y-28148531D01*
X141288551Y-28148531D02*
X141193313Y-28100912D01*
X141193313Y-28100912D02*
X141145694Y-28005673D01*
X141145694Y-28005673D02*
X141145694Y-27624721D01*
X141145694Y-27624721D02*
X141193313Y-27529483D01*
X141193313Y-27529483D02*
X141288551Y-27481864D01*
X141288551Y-27481864D02*
X141479027Y-27481864D01*
X141479027Y-27481864D02*
X141574265Y-27529483D01*
X141574265Y-27529483D02*
X141621884Y-27624721D01*
X141621884Y-27624721D02*
X141621884Y-27719959D01*
X141621884Y-27719959D02*
X141145694Y-27815197D01*
X142193313Y-28148531D02*
X142098075Y-28100912D01*
X142098075Y-28100912D02*
X142050456Y-28053292D01*
X142050456Y-28053292D02*
X142002837Y-27958054D01*
X142002837Y-27958054D02*
X142002837Y-27672340D01*
X142002837Y-27672340D02*
X142050456Y-27577102D01*
X142050456Y-27577102D02*
X142098075Y-27529483D01*
X142098075Y-27529483D02*
X142193313Y-27481864D01*
X142193313Y-27481864D02*
X142336170Y-27481864D01*
X142336170Y-27481864D02*
X142431408Y-27529483D01*
X142431408Y-27529483D02*
X142479027Y-27577102D01*
X142479027Y-27577102D02*
X142526646Y-27672340D01*
X142526646Y-27672340D02*
X142526646Y-27958054D01*
X142526646Y-27958054D02*
X142479027Y-28053292D01*
X142479027Y-28053292D02*
X142431408Y-28100912D01*
X142431408Y-28100912D02*
X142336170Y-28148531D01*
X142336170Y-28148531D02*
X142193313Y-28148531D01*
X143669504Y-27862816D02*
X144145694Y-27862816D01*
X143574266Y-28148531D02*
X143907599Y-27148531D01*
X143907599Y-27148531D02*
X144240932Y-28148531D01*
X145002837Y-28148531D02*
X145002837Y-27148531D01*
X145002837Y-28100912D02*
X144907599Y-28148531D01*
X144907599Y-28148531D02*
X144717123Y-28148531D01*
X144717123Y-28148531D02*
X144621885Y-28100912D01*
X144621885Y-28100912D02*
X144574266Y-28053292D01*
X144574266Y-28053292D02*
X144526647Y-27958054D01*
X144526647Y-27958054D02*
X144526647Y-27672340D01*
X144526647Y-27672340D02*
X144574266Y-27577102D01*
X144574266Y-27577102D02*
X144621885Y-27529483D01*
X144621885Y-27529483D02*
X144717123Y-27481864D01*
X144717123Y-27481864D02*
X144907599Y-27481864D01*
X144907599Y-27481864D02*
X145002837Y-27529483D01*
X145907599Y-28148531D02*
X145907599Y-27624721D01*
X145907599Y-27624721D02*
X145859980Y-27529483D01*
X145859980Y-27529483D02*
X145764742Y-27481864D01*
X145764742Y-27481864D02*
X145574266Y-27481864D01*
X145574266Y-27481864D02*
X145479028Y-27529483D01*
X145907599Y-28100912D02*
X145812361Y-28148531D01*
X145812361Y-28148531D02*
X145574266Y-28148531D01*
X145574266Y-28148531D02*
X145479028Y-28100912D01*
X145479028Y-28100912D02*
X145431409Y-28005673D01*
X145431409Y-28005673D02*
X145431409Y-27910435D01*
X145431409Y-27910435D02*
X145479028Y-27815197D01*
X145479028Y-27815197D02*
X145574266Y-27767578D01*
X145574266Y-27767578D02*
X145812361Y-27767578D01*
X145812361Y-27767578D02*
X145907599Y-27719959D01*
X146383790Y-27481864D02*
X146383790Y-28481864D01*
X146383790Y-27529483D02*
X146479028Y-27481864D01*
X146479028Y-27481864D02*
X146669504Y-27481864D01*
X146669504Y-27481864D02*
X146764742Y-27529483D01*
X146764742Y-27529483D02*
X146812361Y-27577102D01*
X146812361Y-27577102D02*
X146859980Y-27672340D01*
X146859980Y-27672340D02*
X146859980Y-27958054D01*
X146859980Y-27958054D02*
X146812361Y-28053292D01*
X146812361Y-28053292D02*
X146764742Y-28100912D01*
X146764742Y-28100912D02*
X146669504Y-28148531D01*
X146669504Y-28148531D02*
X146479028Y-28148531D01*
X146479028Y-28148531D02*
X146383790Y-28100912D01*
X147145695Y-27481864D02*
X147526647Y-27481864D01*
X147288552Y-27148531D02*
X147288552Y-28005673D01*
X147288552Y-28005673D02*
X147336171Y-28100912D01*
X147336171Y-28100912D02*
X147431409Y-28148531D01*
X147431409Y-28148531D02*
X147526647Y-28148531D01*
X148240933Y-28100912D02*
X148145695Y-28148531D01*
X148145695Y-28148531D02*
X147955219Y-28148531D01*
X147955219Y-28148531D02*
X147859981Y-28100912D01*
X147859981Y-28100912D02*
X147812362Y-28005673D01*
X147812362Y-28005673D02*
X147812362Y-27624721D01*
X147812362Y-27624721D02*
X147859981Y-27529483D01*
X147859981Y-27529483D02*
X147955219Y-27481864D01*
X147955219Y-27481864D02*
X148145695Y-27481864D01*
X148145695Y-27481864D02*
X148240933Y-27529483D01*
X148240933Y-27529483D02*
X148288552Y-27624721D01*
X148288552Y-27624721D02*
X148288552Y-27719959D01*
X148288552Y-27719959D02*
X147812362Y-27815197D01*
X148717124Y-28148531D02*
X148717124Y-27481864D01*
X148717124Y-27672340D02*
X148764743Y-27577102D01*
X148764743Y-27577102D02*
X148812362Y-27529483D01*
X148812362Y-27529483D02*
X148907600Y-27481864D01*
X148907600Y-27481864D02*
X149002838Y-27481864D01*
X131479027Y-28758475D02*
X131812360Y-29758475D01*
X131812360Y-29758475D02*
X132145693Y-28758475D01*
X133002836Y-29758475D02*
X132431408Y-29758475D01*
X132717122Y-29758475D02*
X132717122Y-28758475D01*
X132717122Y-28758475D02*
X132621884Y-28901332D01*
X132621884Y-28901332D02*
X132526646Y-28996570D01*
X132526646Y-28996570D02*
X132431408Y-29044189D01*
X133431408Y-29663236D02*
X133479027Y-29710856D01*
X133479027Y-29710856D02*
X133431408Y-29758475D01*
X133431408Y-29758475D02*
X133383789Y-29710856D01*
X133383789Y-29710856D02*
X133431408Y-29663236D01*
X133431408Y-29663236D02*
X133431408Y-29758475D01*
X134098074Y-28758475D02*
X134193312Y-28758475D01*
X134193312Y-28758475D02*
X134288550Y-28806094D01*
X134288550Y-28806094D02*
X134336169Y-28853713D01*
X134336169Y-28853713D02*
X134383788Y-28948951D01*
X134383788Y-28948951D02*
X134431407Y-29139427D01*
X134431407Y-29139427D02*
X134431407Y-29377522D01*
X134431407Y-29377522D02*
X134383788Y-29567998D01*
X134383788Y-29567998D02*
X134336169Y-29663236D01*
X134336169Y-29663236D02*
X134288550Y-29710856D01*
X134288550Y-29710856D02*
X134193312Y-29758475D01*
X134193312Y-29758475D02*
X134098074Y-29758475D01*
X134098074Y-29758475D02*
X134002836Y-29710856D01*
X134002836Y-29710856D02*
X133955217Y-29663236D01*
X133955217Y-29663236D02*
X133907598Y-29567998D01*
X133907598Y-29567998D02*
X133859979Y-29377522D01*
X133859979Y-29377522D02*
X133859979Y-29139427D01*
X133859979Y-29139427D02*
X133907598Y-28948951D01*
X133907598Y-28948951D02*
X133955217Y-28853713D01*
X133955217Y-28853713D02*
X134002836Y-28806094D01*
X134002836Y-28806094D02*
X134098074Y-28758475D01*
X135574265Y-29472760D02*
X136050455Y-29472760D01*
X135479027Y-29758475D02*
X135812360Y-28758475D01*
X135812360Y-28758475D02*
X136145693Y-29758475D01*
X136479027Y-29091808D02*
X136479027Y-30091808D01*
X136479027Y-29139427D02*
X136574265Y-29091808D01*
X136574265Y-29091808D02*
X136764741Y-29091808D01*
X136764741Y-29091808D02*
X136859979Y-29139427D01*
X136859979Y-29139427D02*
X136907598Y-29187046D01*
X136907598Y-29187046D02*
X136955217Y-29282284D01*
X136955217Y-29282284D02*
X136955217Y-29567998D01*
X136955217Y-29567998D02*
X136907598Y-29663236D01*
X136907598Y-29663236D02*
X136859979Y-29710856D01*
X136859979Y-29710856D02*
X136764741Y-29758475D01*
X136764741Y-29758475D02*
X136574265Y-29758475D01*
X136574265Y-29758475D02*
X136479027Y-29710856D01*
X137383789Y-29758475D02*
X137383789Y-29091808D01*
X137383789Y-29282284D02*
X137431408Y-29187046D01*
X137431408Y-29187046D02*
X137479027Y-29139427D01*
X137479027Y-29139427D02*
X137574265Y-29091808D01*
X137574265Y-29091808D02*
X137669503Y-29091808D01*
X138002837Y-29758475D02*
X138002837Y-29091808D01*
X138002837Y-28758475D02*
X137955218Y-28806094D01*
X137955218Y-28806094D02*
X138002837Y-28853713D01*
X138002837Y-28853713D02*
X138050456Y-28806094D01*
X138050456Y-28806094D02*
X138002837Y-28758475D01*
X138002837Y-28758475D02*
X138002837Y-28853713D01*
X138621884Y-29758475D02*
X138526646Y-29710856D01*
X138526646Y-29710856D02*
X138479027Y-29615617D01*
X138479027Y-29615617D02*
X138479027Y-28758475D01*
X139717123Y-28853713D02*
X139764742Y-28806094D01*
X139764742Y-28806094D02*
X139859980Y-28758475D01*
X139859980Y-28758475D02*
X140098075Y-28758475D01*
X140098075Y-28758475D02*
X140193313Y-28806094D01*
X140193313Y-28806094D02*
X140240932Y-28853713D01*
X140240932Y-28853713D02*
X140288551Y-28948951D01*
X140288551Y-28948951D02*
X140288551Y-29044189D01*
X140288551Y-29044189D02*
X140240932Y-29187046D01*
X140240932Y-29187046D02*
X139669504Y-29758475D01*
X139669504Y-29758475D02*
X140288551Y-29758475D01*
X140907599Y-28758475D02*
X141002837Y-28758475D01*
X141002837Y-28758475D02*
X141098075Y-28806094D01*
X141098075Y-28806094D02*
X141145694Y-28853713D01*
X141145694Y-28853713D02*
X141193313Y-28948951D01*
X141193313Y-28948951D02*
X141240932Y-29139427D01*
X141240932Y-29139427D02*
X141240932Y-29377522D01*
X141240932Y-29377522D02*
X141193313Y-29567998D01*
X141193313Y-29567998D02*
X141145694Y-29663236D01*
X141145694Y-29663236D02*
X141098075Y-29710856D01*
X141098075Y-29710856D02*
X141002837Y-29758475D01*
X141002837Y-29758475D02*
X140907599Y-29758475D01*
X140907599Y-29758475D02*
X140812361Y-29710856D01*
X140812361Y-29710856D02*
X140764742Y-29663236D01*
X140764742Y-29663236D02*
X140717123Y-29567998D01*
X140717123Y-29567998D02*
X140669504Y-29377522D01*
X140669504Y-29377522D02*
X140669504Y-29139427D01*
X140669504Y-29139427D02*
X140717123Y-28948951D01*
X140717123Y-28948951D02*
X140764742Y-28853713D01*
X140764742Y-28853713D02*
X140812361Y-28806094D01*
X140812361Y-28806094D02*
X140907599Y-28758475D01*
X141621885Y-28853713D02*
X141669504Y-28806094D01*
X141669504Y-28806094D02*
X141764742Y-28758475D01*
X141764742Y-28758475D02*
X142002837Y-28758475D01*
X142002837Y-28758475D02*
X142098075Y-28806094D01*
X142098075Y-28806094D02*
X142145694Y-28853713D01*
X142145694Y-28853713D02*
X142193313Y-28948951D01*
X142193313Y-28948951D02*
X142193313Y-29044189D01*
X142193313Y-29044189D02*
X142145694Y-29187046D01*
X142145694Y-29187046D02*
X141574266Y-29758475D01*
X141574266Y-29758475D02*
X142193313Y-29758475D01*
X143050456Y-28758475D02*
X142859980Y-28758475D01*
X142859980Y-28758475D02*
X142764742Y-28806094D01*
X142764742Y-28806094D02*
X142717123Y-28853713D01*
X142717123Y-28853713D02*
X142621885Y-28996570D01*
X142621885Y-28996570D02*
X142574266Y-29187046D01*
X142574266Y-29187046D02*
X142574266Y-29567998D01*
X142574266Y-29567998D02*
X142621885Y-29663236D01*
X142621885Y-29663236D02*
X142669504Y-29710856D01*
X142669504Y-29710856D02*
X142764742Y-29758475D01*
X142764742Y-29758475D02*
X142955218Y-29758475D01*
X142955218Y-29758475D02*
X143050456Y-29710856D01*
X143050456Y-29710856D02*
X143098075Y-29663236D01*
X143098075Y-29663236D02*
X143145694Y-29567998D01*
X143145694Y-29567998D02*
X143145694Y-29329903D01*
X143145694Y-29329903D02*
X143098075Y-29234665D01*
X143098075Y-29234665D02*
X143050456Y-29187046D01*
X143050456Y-29187046D02*
X142955218Y-29139427D01*
X142955218Y-29139427D02*
X142764742Y-29139427D01*
X142764742Y-29139427D02*
X142669504Y-29187046D01*
X142669504Y-29187046D02*
X142621885Y-29234665D01*
X142621885Y-29234665D02*
X142574266Y-29329903D01*
X131621884Y-31368419D02*
X131621884Y-30701752D01*
X131621884Y-30796990D02*
X131669503Y-30749371D01*
X131669503Y-30749371D02*
X131764741Y-30701752D01*
X131764741Y-30701752D02*
X131907598Y-30701752D01*
X131907598Y-30701752D02*
X132002836Y-30749371D01*
X132002836Y-30749371D02*
X132050455Y-30844609D01*
X132050455Y-30844609D02*
X132050455Y-31368419D01*
X132050455Y-30844609D02*
X132098074Y-30749371D01*
X132098074Y-30749371D02*
X132193312Y-30701752D01*
X132193312Y-30701752D02*
X132336169Y-30701752D01*
X132336169Y-30701752D02*
X132431408Y-30749371D01*
X132431408Y-30749371D02*
X132479027Y-30844609D01*
X132479027Y-30844609D02*
X132479027Y-31368419D01*
X133336169Y-31320800D02*
X133240931Y-31368419D01*
X133240931Y-31368419D02*
X133050455Y-31368419D01*
X133050455Y-31368419D02*
X132955217Y-31320800D01*
X132955217Y-31320800D02*
X132907598Y-31225561D01*
X132907598Y-31225561D02*
X132907598Y-30844609D01*
X132907598Y-30844609D02*
X132955217Y-30749371D01*
X132955217Y-30749371D02*
X133050455Y-30701752D01*
X133050455Y-30701752D02*
X133240931Y-30701752D01*
X133240931Y-30701752D02*
X133336169Y-30749371D01*
X133336169Y-30749371D02*
X133383788Y-30844609D01*
X133383788Y-30844609D02*
X133383788Y-30939847D01*
X133383788Y-30939847D02*
X132907598Y-31035085D01*
X133812360Y-30701752D02*
X133812360Y-31368419D01*
X133812360Y-30796990D02*
X133859979Y-30749371D01*
X133859979Y-30749371D02*
X133955217Y-30701752D01*
X133955217Y-30701752D02*
X134098074Y-30701752D01*
X134098074Y-30701752D02*
X134193312Y-30749371D01*
X134193312Y-30749371D02*
X134240931Y-30844609D01*
X134240931Y-30844609D02*
X134240931Y-31368419D01*
X135145693Y-31368419D02*
X135145693Y-30844609D01*
X135145693Y-30844609D02*
X135098074Y-30749371D01*
X135098074Y-30749371D02*
X135002836Y-30701752D01*
X135002836Y-30701752D02*
X134812360Y-30701752D01*
X134812360Y-30701752D02*
X134717122Y-30749371D01*
X135145693Y-31320800D02*
X135050455Y-31368419D01*
X135050455Y-31368419D02*
X134812360Y-31368419D01*
X134812360Y-31368419D02*
X134717122Y-31320800D01*
X134717122Y-31320800D02*
X134669503Y-31225561D01*
X134669503Y-31225561D02*
X134669503Y-31130323D01*
X134669503Y-31130323D02*
X134717122Y-31035085D01*
X134717122Y-31035085D02*
X134812360Y-30987466D01*
X134812360Y-30987466D02*
X135050455Y-30987466D01*
X135050455Y-30987466D02*
X135145693Y-30939847D01*
X136050455Y-31368419D02*
X136050455Y-30368419D01*
X136050455Y-31320800D02*
X135955217Y-31368419D01*
X135955217Y-31368419D02*
X135764741Y-31368419D01*
X135764741Y-31368419D02*
X135669503Y-31320800D01*
X135669503Y-31320800D02*
X135621884Y-31273180D01*
X135621884Y-31273180D02*
X135574265Y-31177942D01*
X135574265Y-31177942D02*
X135574265Y-30892228D01*
X135574265Y-30892228D02*
X135621884Y-30796990D01*
X135621884Y-30796990D02*
X135669503Y-30749371D01*
X135669503Y-30749371D02*
X135764741Y-30701752D01*
X135764741Y-30701752D02*
X135955217Y-30701752D01*
X135955217Y-30701752D02*
X136050455Y-30749371D01*
X136955217Y-30701752D02*
X136955217Y-31368419D01*
X136526646Y-30701752D02*
X136526646Y-31225561D01*
X136526646Y-31225561D02*
X136574265Y-31320800D01*
X136574265Y-31320800D02*
X136669503Y-31368419D01*
X136669503Y-31368419D02*
X136812360Y-31368419D01*
X136812360Y-31368419D02*
X136907598Y-31320800D01*
X136907598Y-31320800D02*
X136955217Y-31273180D01*
X137812360Y-31320800D02*
X137717122Y-31368419D01*
X137717122Y-31368419D02*
X137526646Y-31368419D01*
X137526646Y-31368419D02*
X137431408Y-31320800D01*
X137431408Y-31320800D02*
X137383789Y-31225561D01*
X137383789Y-31225561D02*
X137383789Y-30844609D01*
X137383789Y-30844609D02*
X137431408Y-30749371D01*
X137431408Y-30749371D02*
X137526646Y-30701752D01*
X137526646Y-30701752D02*
X137717122Y-30701752D01*
X137717122Y-30701752D02*
X137812360Y-30749371D01*
X137812360Y-30749371D02*
X137859979Y-30844609D01*
X137859979Y-30844609D02*
X137859979Y-30939847D01*
X137859979Y-30939847D02*
X137383789Y-31035085D01*
X138907598Y-30892228D02*
X138859979Y-30844609D01*
X138859979Y-30844609D02*
X138764741Y-30796990D01*
X138764741Y-30796990D02*
X138669503Y-30796990D01*
X138669503Y-30796990D02*
X138574265Y-30844609D01*
X138574265Y-30844609D02*
X138526646Y-30892228D01*
X138526646Y-30892228D02*
X138479027Y-30987466D01*
X138479027Y-30987466D02*
X138479027Y-31082704D01*
X138479027Y-31082704D02*
X138526646Y-31177942D01*
X138526646Y-31177942D02*
X138574265Y-31225561D01*
X138574265Y-31225561D02*
X138669503Y-31273180D01*
X138669503Y-31273180D02*
X138764741Y-31273180D01*
X138764741Y-31273180D02*
X138859979Y-31225561D01*
X138859979Y-31225561D02*
X138907598Y-31177942D01*
X138907598Y-30796990D02*
X138907598Y-31177942D01*
X138907598Y-31177942D02*
X138955217Y-31225561D01*
X138955217Y-31225561D02*
X139002836Y-31225561D01*
X139002836Y-31225561D02*
X139098075Y-31177942D01*
X139098075Y-31177942D02*
X139145694Y-31082704D01*
X139145694Y-31082704D02*
X139145694Y-30844609D01*
X139145694Y-30844609D02*
X139050456Y-30701752D01*
X139050456Y-30701752D02*
X138907598Y-30606514D01*
X138907598Y-30606514D02*
X138717122Y-30558895D01*
X138717122Y-30558895D02*
X138526646Y-30606514D01*
X138526646Y-30606514D02*
X138383789Y-30701752D01*
X138383789Y-30701752D02*
X138288551Y-30844609D01*
X138288551Y-30844609D02*
X138240932Y-31035085D01*
X138240932Y-31035085D02*
X138288551Y-31225561D01*
X138288551Y-31225561D02*
X138383789Y-31368419D01*
X138383789Y-31368419D02*
X138526646Y-31463657D01*
X138526646Y-31463657D02*
X138717122Y-31511276D01*
X138717122Y-31511276D02*
X138907598Y-31463657D01*
X138907598Y-31463657D02*
X139050456Y-31368419D01*
X140002836Y-30701752D02*
X140002836Y-31511276D01*
X140002836Y-31511276D02*
X139955217Y-31606514D01*
X139955217Y-31606514D02*
X139907598Y-31654133D01*
X139907598Y-31654133D02*
X139812360Y-31701752D01*
X139812360Y-31701752D02*
X139669503Y-31701752D01*
X139669503Y-31701752D02*
X139574265Y-31654133D01*
X140002836Y-31320800D02*
X139907598Y-31368419D01*
X139907598Y-31368419D02*
X139717122Y-31368419D01*
X139717122Y-31368419D02*
X139621884Y-31320800D01*
X139621884Y-31320800D02*
X139574265Y-31273180D01*
X139574265Y-31273180D02*
X139526646Y-31177942D01*
X139526646Y-31177942D02*
X139526646Y-30892228D01*
X139526646Y-30892228D02*
X139574265Y-30796990D01*
X139574265Y-30796990D02*
X139621884Y-30749371D01*
X139621884Y-30749371D02*
X139717122Y-30701752D01*
X139717122Y-30701752D02*
X139907598Y-30701752D01*
X139907598Y-30701752D02*
X140002836Y-30749371D01*
X140479027Y-31368419D02*
X140479027Y-30701752D01*
X140479027Y-30796990D02*
X140526646Y-30749371D01*
X140526646Y-30749371D02*
X140621884Y-30701752D01*
X140621884Y-30701752D02*
X140764741Y-30701752D01*
X140764741Y-30701752D02*
X140859979Y-30749371D01*
X140859979Y-30749371D02*
X140907598Y-30844609D01*
X140907598Y-30844609D02*
X140907598Y-31368419D01*
X140907598Y-30844609D02*
X140955217Y-30749371D01*
X140955217Y-30749371D02*
X141050455Y-30701752D01*
X141050455Y-30701752D02*
X141193312Y-30701752D01*
X141193312Y-30701752D02*
X141288551Y-30749371D01*
X141288551Y-30749371D02*
X141336170Y-30844609D01*
X141336170Y-30844609D02*
X141336170Y-31368419D01*
X142240931Y-31368419D02*
X142240931Y-30844609D01*
X142240931Y-30844609D02*
X142193312Y-30749371D01*
X142193312Y-30749371D02*
X142098074Y-30701752D01*
X142098074Y-30701752D02*
X141907598Y-30701752D01*
X141907598Y-30701752D02*
X141812360Y-30749371D01*
X142240931Y-31320800D02*
X142145693Y-31368419D01*
X142145693Y-31368419D02*
X141907598Y-31368419D01*
X141907598Y-31368419D02*
X141812360Y-31320800D01*
X141812360Y-31320800D02*
X141764741Y-31225561D01*
X141764741Y-31225561D02*
X141764741Y-31130323D01*
X141764741Y-31130323D02*
X141812360Y-31035085D01*
X141812360Y-31035085D02*
X141907598Y-30987466D01*
X141907598Y-30987466D02*
X142145693Y-30987466D01*
X142145693Y-30987466D02*
X142240931Y-30939847D01*
X142717122Y-31368419D02*
X142717122Y-30701752D01*
X142717122Y-30368419D02*
X142669503Y-30416038D01*
X142669503Y-30416038D02*
X142717122Y-30463657D01*
X142717122Y-30463657D02*
X142764741Y-30416038D01*
X142764741Y-30416038D02*
X142717122Y-30368419D01*
X142717122Y-30368419D02*
X142717122Y-30463657D01*
X143336169Y-31368419D02*
X143240931Y-31320800D01*
X143240931Y-31320800D02*
X143193312Y-31225561D01*
X143193312Y-31225561D02*
X143193312Y-30368419D01*
X143717122Y-31273180D02*
X143764741Y-31320800D01*
X143764741Y-31320800D02*
X143717122Y-31368419D01*
X143717122Y-31368419D02*
X143669503Y-31320800D01*
X143669503Y-31320800D02*
X143717122Y-31273180D01*
X143717122Y-31273180D02*
X143717122Y-31368419D01*
X144621883Y-31320800D02*
X144526645Y-31368419D01*
X144526645Y-31368419D02*
X144336169Y-31368419D01*
X144336169Y-31368419D02*
X144240931Y-31320800D01*
X144240931Y-31320800D02*
X144193312Y-31273180D01*
X144193312Y-31273180D02*
X144145693Y-31177942D01*
X144145693Y-31177942D02*
X144145693Y-30892228D01*
X144145693Y-30892228D02*
X144193312Y-30796990D01*
X144193312Y-30796990D02*
X144240931Y-30749371D01*
X144240931Y-30749371D02*
X144336169Y-30701752D01*
X144336169Y-30701752D02*
X144526645Y-30701752D01*
X144526645Y-30701752D02*
X144621883Y-30749371D01*
X145193312Y-31368419D02*
X145098074Y-31320800D01*
X145098074Y-31320800D02*
X145050455Y-31273180D01*
X145050455Y-31273180D02*
X145002836Y-31177942D01*
X145002836Y-31177942D02*
X145002836Y-30892228D01*
X145002836Y-30892228D02*
X145050455Y-30796990D01*
X145050455Y-30796990D02*
X145098074Y-30749371D01*
X145098074Y-30749371D02*
X145193312Y-30701752D01*
X145193312Y-30701752D02*
X145336169Y-30701752D01*
X145336169Y-30701752D02*
X145431407Y-30749371D01*
X145431407Y-30749371D02*
X145479026Y-30796990D01*
X145479026Y-30796990D02*
X145526645Y-30892228D01*
X145526645Y-30892228D02*
X145526645Y-31177942D01*
X145526645Y-31177942D02*
X145479026Y-31273180D01*
X145479026Y-31273180D02*
X145431407Y-31320800D01*
X145431407Y-31320800D02*
X145336169Y-31368419D01*
X145336169Y-31368419D02*
X145193312Y-31368419D01*
X145955217Y-31368419D02*
X145955217Y-30701752D01*
X145955217Y-30796990D02*
X146002836Y-30749371D01*
X146002836Y-30749371D02*
X146098074Y-30701752D01*
X146098074Y-30701752D02*
X146240931Y-30701752D01*
X146240931Y-30701752D02*
X146336169Y-30749371D01*
X146336169Y-30749371D02*
X146383788Y-30844609D01*
X146383788Y-30844609D02*
X146383788Y-31368419D01*
X146383788Y-30844609D02*
X146431407Y-30749371D01*
X146431407Y-30749371D02*
X146526645Y-30701752D01*
X146526645Y-30701752D02*
X146669502Y-30701752D01*
X146669502Y-30701752D02*
X146764741Y-30749371D01*
X146764741Y-30749371D02*
X146812360Y-30844609D01*
X146812360Y-30844609D02*
X146812360Y-31368419D01*
D11*
X137106819Y-146470666D02*
X136630628Y-146803999D01*
X137106819Y-147042094D02*
X136106819Y-147042094D01*
X136106819Y-147042094D02*
X136106819Y-146661142D01*
X136106819Y-146661142D02*
X136154438Y-146565904D01*
X136154438Y-146565904D02*
X136202057Y-146518285D01*
X136202057Y-146518285D02*
X136297295Y-146470666D01*
X136297295Y-146470666D02*
X136440152Y-146470666D01*
X136440152Y-146470666D02*
X136535390Y-146518285D01*
X136535390Y-146518285D02*
X136583009Y-146565904D01*
X136583009Y-146565904D02*
X136630628Y-146661142D01*
X136630628Y-146661142D02*
X136630628Y-147042094D01*
X136440152Y-145613523D02*
X137106819Y-145613523D01*
X136059200Y-145851618D02*
X136773485Y-146089713D01*
X136773485Y-146089713D02*
X136773485Y-145470666D01*
X134566819Y-146470666D02*
X134090628Y-146803999D01*
X134566819Y-147042094D02*
X133566819Y-147042094D01*
X133566819Y-147042094D02*
X133566819Y-146661142D01*
X133566819Y-146661142D02*
X133614438Y-146565904D01*
X133614438Y-146565904D02*
X133662057Y-146518285D01*
X133662057Y-146518285D02*
X133757295Y-146470666D01*
X133757295Y-146470666D02*
X133900152Y-146470666D01*
X133900152Y-146470666D02*
X133995390Y-146518285D01*
X133995390Y-146518285D02*
X134043009Y-146565904D01*
X134043009Y-146565904D02*
X134090628Y-146661142D01*
X134090628Y-146661142D02*
X134090628Y-147042094D01*
X133566819Y-146137332D02*
X133566819Y-145518285D01*
X133566819Y-145518285D02*
X133947771Y-145851618D01*
X133947771Y-145851618D02*
X133947771Y-145708761D01*
X133947771Y-145708761D02*
X133995390Y-145613523D01*
X133995390Y-145613523D02*
X134043009Y-145565904D01*
X134043009Y-145565904D02*
X134138247Y-145518285D01*
X134138247Y-145518285D02*
X134376342Y-145518285D01*
X134376342Y-145518285D02*
X134471580Y-145565904D01*
X134471580Y-145565904D02*
X134519200Y-145613523D01*
X134519200Y-145613523D02*
X134566819Y-145708761D01*
X134566819Y-145708761D02*
X134566819Y-145994475D01*
X134566819Y-145994475D02*
X134519200Y-146089713D01*
X134519200Y-146089713D02*
X134471580Y-146137332D01*
X134566819Y-131484666D02*
X134090628Y-131817999D01*
X134566819Y-132056094D02*
X133566819Y-132056094D01*
X133566819Y-132056094D02*
X133566819Y-131675142D01*
X133566819Y-131675142D02*
X133614438Y-131579904D01*
X133614438Y-131579904D02*
X133662057Y-131532285D01*
X133662057Y-131532285D02*
X133757295Y-131484666D01*
X133757295Y-131484666D02*
X133900152Y-131484666D01*
X133900152Y-131484666D02*
X133995390Y-131532285D01*
X133995390Y-131532285D02*
X134043009Y-131579904D01*
X134043009Y-131579904D02*
X134090628Y-131675142D01*
X134090628Y-131675142D02*
X134090628Y-132056094D01*
X133662057Y-131103713D02*
X133614438Y-131056094D01*
X133614438Y-131056094D02*
X133566819Y-130960856D01*
X133566819Y-130960856D02*
X133566819Y-130722761D01*
X133566819Y-130722761D02*
X133614438Y-130627523D01*
X133614438Y-130627523D02*
X133662057Y-130579904D01*
X133662057Y-130579904D02*
X133757295Y-130532285D01*
X133757295Y-130532285D02*
X133852533Y-130532285D01*
X133852533Y-130532285D02*
X133995390Y-130579904D01*
X133995390Y-130579904D02*
X134566819Y-131151332D01*
X134566819Y-131151332D02*
X134566819Y-130532285D01*
X137106819Y-131484666D02*
X136630628Y-131817999D01*
X137106819Y-132056094D02*
X136106819Y-132056094D01*
X136106819Y-132056094D02*
X136106819Y-131675142D01*
X136106819Y-131675142D02*
X136154438Y-131579904D01*
X136154438Y-131579904D02*
X136202057Y-131532285D01*
X136202057Y-131532285D02*
X136297295Y-131484666D01*
X136297295Y-131484666D02*
X136440152Y-131484666D01*
X136440152Y-131484666D02*
X136535390Y-131532285D01*
X136535390Y-131532285D02*
X136583009Y-131579904D01*
X136583009Y-131579904D02*
X136630628Y-131675142D01*
X136630628Y-131675142D02*
X136630628Y-132056094D01*
X137106819Y-130532285D02*
X137106819Y-131103713D01*
X137106819Y-130817999D02*
X136106819Y-130817999D01*
X136106819Y-130817999D02*
X136249676Y-130913237D01*
X136249676Y-130913237D02*
X136344914Y-131008475D01*
X136344914Y-131008475D02*
X136392533Y-131103713D01*
X122602666Y-34022819D02*
X122602666Y-34737104D01*
X122602666Y-34737104D02*
X122555047Y-34879961D01*
X122555047Y-34879961D02*
X122459809Y-34975200D01*
X122459809Y-34975200D02*
X122316952Y-35022819D01*
X122316952Y-35022819D02*
X122221714Y-35022819D01*
X123507428Y-34356152D02*
X123507428Y-35022819D01*
X123269333Y-33975200D02*
X123031238Y-34689485D01*
X123031238Y-34689485D02*
X123650285Y-34689485D01*
X122602666Y-72004819D02*
X122602666Y-72719104D01*
X122602666Y-72719104D02*
X122555047Y-72861961D01*
X122555047Y-72861961D02*
X122459809Y-72957200D01*
X122459809Y-72957200D02*
X122316952Y-73004819D01*
X122316952Y-73004819D02*
X122221714Y-73004819D01*
X122983619Y-72004819D02*
X123602666Y-72004819D01*
X123602666Y-72004819D02*
X123269333Y-72385771D01*
X123269333Y-72385771D02*
X123412190Y-72385771D01*
X123412190Y-72385771D02*
X123507428Y-72433390D01*
X123507428Y-72433390D02*
X123555047Y-72481009D01*
X123555047Y-72481009D02*
X123602666Y-72576247D01*
X123602666Y-72576247D02*
X123602666Y-72814342D01*
X123602666Y-72814342D02*
X123555047Y-72909580D01*
X123555047Y-72909580D02*
X123507428Y-72957200D01*
X123507428Y-72957200D02*
X123412190Y-73004819D01*
X123412190Y-73004819D02*
X123126476Y-73004819D01*
X123126476Y-73004819D02*
X123031238Y-72957200D01*
X123031238Y-72957200D02*
X122983619Y-72909580D01*
X157966819Y-61444094D02*
X156966819Y-61444094D01*
X156966819Y-61444094D02*
X156966819Y-61205999D01*
X156966819Y-61205999D02*
X157014438Y-61063142D01*
X157014438Y-61063142D02*
X157109676Y-60967904D01*
X157109676Y-60967904D02*
X157204914Y-60920285D01*
X157204914Y-60920285D02*
X157395390Y-60872666D01*
X157395390Y-60872666D02*
X157538247Y-60872666D01*
X157538247Y-60872666D02*
X157728723Y-60920285D01*
X157728723Y-60920285D02*
X157823961Y-60967904D01*
X157823961Y-60967904D02*
X157919200Y-61063142D01*
X157919200Y-61063142D02*
X157966819Y-61205999D01*
X157966819Y-61205999D02*
X157966819Y-61444094D01*
X157062057Y-60491713D02*
X157014438Y-60444094D01*
X157014438Y-60444094D02*
X156966819Y-60348856D01*
X156966819Y-60348856D02*
X156966819Y-60110761D01*
X156966819Y-60110761D02*
X157014438Y-60015523D01*
X157014438Y-60015523D02*
X157062057Y-59967904D01*
X157062057Y-59967904D02*
X157157295Y-59920285D01*
X157157295Y-59920285D02*
X157252533Y-59920285D01*
X157252533Y-59920285D02*
X157395390Y-59967904D01*
X157395390Y-59967904D02*
X157966819Y-60539332D01*
X157966819Y-60539332D02*
X157966819Y-59920285D01*
X150627095Y-128188819D02*
X150627095Y-128998342D01*
X150627095Y-128998342D02*
X150674714Y-129093580D01*
X150674714Y-129093580D02*
X150722333Y-129141200D01*
X150722333Y-129141200D02*
X150817571Y-129188819D01*
X150817571Y-129188819D02*
X151008047Y-129188819D01*
X151008047Y-129188819D02*
X151103285Y-129141200D01*
X151103285Y-129141200D02*
X151150904Y-129093580D01*
X151150904Y-129093580D02*
X151198523Y-128998342D01*
X151198523Y-128998342D02*
X151198523Y-128188819D01*
X152198523Y-129188819D02*
X151627095Y-129188819D01*
X151912809Y-129188819D02*
X151912809Y-128188819D01*
X151912809Y-128188819D02*
X151817571Y-128331676D01*
X151817571Y-128331676D02*
X151722333Y-128426914D01*
X151722333Y-128426914D02*
X151627095Y-128474533D01*
D10*
X166329466Y-28402019D02*
X166329466Y-29116304D01*
X166329466Y-29116304D02*
X166281847Y-29259161D01*
X166281847Y-29259161D02*
X166186609Y-29354400D01*
X166186609Y-29354400D02*
X166043752Y-29402019D01*
X166043752Y-29402019D02*
X165948514Y-29402019D01*
X166758038Y-28497257D02*
X166805657Y-28449638D01*
X166805657Y-28449638D02*
X166900895Y-28402019D01*
X166900895Y-28402019D02*
X167138990Y-28402019D01*
X167138990Y-28402019D02*
X167234228Y-28449638D01*
X167234228Y-28449638D02*
X167281847Y-28497257D01*
X167281847Y-28497257D02*
X167329466Y-28592495D01*
X167329466Y-28592495D02*
X167329466Y-28687733D01*
X167329466Y-28687733D02*
X167281847Y-28830590D01*
X167281847Y-28830590D02*
X166710419Y-29402019D01*
X166710419Y-29402019D02*
X167329466Y-29402019D01*
D11*
X140552333Y-150452080D02*
X140504714Y-150499700D01*
X140504714Y-150499700D02*
X140361857Y-150547319D01*
X140361857Y-150547319D02*
X140266619Y-150547319D01*
X140266619Y-150547319D02*
X140123762Y-150499700D01*
X140123762Y-150499700D02*
X140028524Y-150404461D01*
X140028524Y-150404461D02*
X139980905Y-150309223D01*
X139980905Y-150309223D02*
X139933286Y-150118747D01*
X139933286Y-150118747D02*
X139933286Y-149975890D01*
X139933286Y-149975890D02*
X139980905Y-149785414D01*
X139980905Y-149785414D02*
X140028524Y-149690176D01*
X140028524Y-149690176D02*
X140123762Y-149594938D01*
X140123762Y-149594938D02*
X140266619Y-149547319D01*
X140266619Y-149547319D02*
X140361857Y-149547319D01*
X140361857Y-149547319D02*
X140504714Y-149594938D01*
X140504714Y-149594938D02*
X140552333Y-149642557D01*
X140933286Y-149642557D02*
X140980905Y-149594938D01*
X140980905Y-149594938D02*
X141076143Y-149547319D01*
X141076143Y-149547319D02*
X141314238Y-149547319D01*
X141314238Y-149547319D02*
X141409476Y-149594938D01*
X141409476Y-149594938D02*
X141457095Y-149642557D01*
X141457095Y-149642557D02*
X141504714Y-149737795D01*
X141504714Y-149737795D02*
X141504714Y-149833033D01*
X141504714Y-149833033D02*
X141457095Y-149975890D01*
X141457095Y-149975890D02*
X140885667Y-150547319D01*
X140885667Y-150547319D02*
X141504714Y-150547319D01*
X140552333Y-145393580D02*
X140504714Y-145441200D01*
X140504714Y-145441200D02*
X140361857Y-145488819D01*
X140361857Y-145488819D02*
X140266619Y-145488819D01*
X140266619Y-145488819D02*
X140123762Y-145441200D01*
X140123762Y-145441200D02*
X140028524Y-145345961D01*
X140028524Y-145345961D02*
X139980905Y-145250723D01*
X139980905Y-145250723D02*
X139933286Y-145060247D01*
X139933286Y-145060247D02*
X139933286Y-144917390D01*
X139933286Y-144917390D02*
X139980905Y-144726914D01*
X139980905Y-144726914D02*
X140028524Y-144631676D01*
X140028524Y-144631676D02*
X140123762Y-144536438D01*
X140123762Y-144536438D02*
X140266619Y-144488819D01*
X140266619Y-144488819D02*
X140361857Y-144488819D01*
X140361857Y-144488819D02*
X140504714Y-144536438D01*
X140504714Y-144536438D02*
X140552333Y-144584057D01*
X141504714Y-145488819D02*
X140933286Y-145488819D01*
X141219000Y-145488819D02*
X141219000Y-144488819D01*
X141219000Y-144488819D02*
X141123762Y-144631676D01*
X141123762Y-144631676D02*
X141028524Y-144726914D01*
X141028524Y-144726914D02*
X140933286Y-144774533D01*
X122315666Y-155696819D02*
X122315666Y-156411104D01*
X122315666Y-156411104D02*
X122268047Y-156553961D01*
X122268047Y-156553961D02*
X122172809Y-156649200D01*
X122172809Y-156649200D02*
X122029952Y-156696819D01*
X122029952Y-156696819D02*
X121934714Y-156696819D01*
X123315666Y-156696819D02*
X122744238Y-156696819D01*
X123029952Y-156696819D02*
X123029952Y-155696819D01*
X123029952Y-155696819D02*
X122934714Y-155839676D01*
X122934714Y-155839676D02*
X122839476Y-155934914D01*
X122839476Y-155934914D02*
X122744238Y-155982533D01*
X161536660Y-119434104D02*
X162012850Y-119434104D01*
X161441422Y-119719819D02*
X161774755Y-118719819D01*
X161774755Y-118719819D02*
X162108088Y-119719819D01*
X162965231Y-119719819D02*
X162393803Y-119719819D01*
X162679517Y-119719819D02*
X162679517Y-118719819D01*
X162679517Y-118719819D02*
X162584279Y-118862676D01*
X162584279Y-118862676D02*
X162489041Y-118957914D01*
X162489041Y-118957914D02*
X162393803Y-119005533D01*
%TO.C,R4*%
D12*
X134847000Y-142520936D02*
X134847000Y-142975064D01*
X133377000Y-142520936D02*
X133377000Y-142975064D01*
%TO.C,R3*%
X135917000Y-142975064D02*
X135917000Y-142520936D01*
X137387000Y-142975064D02*
X137387000Y-142520936D01*
%TO.C,R2*%
X133631000Y-135101064D02*
X133631000Y-134646936D01*
X135101000Y-135101064D02*
X135101000Y-134646936D01*
%TO.C,R1*%
X137387000Y-134646936D02*
X137387000Y-135101064D01*
X135917000Y-134646936D02*
X135917000Y-135101064D01*
%TO.C,J4*%
X121606000Y-38608000D02*
X121606000Y-58988000D01*
X121606000Y-38608000D02*
X124266000Y-38608000D01*
X121606000Y-58988000D02*
X124266000Y-58988000D01*
X122936000Y-36008000D02*
X124266000Y-36008000D01*
X124266000Y-36008000D02*
X124266000Y-37338000D01*
X124266000Y-38608000D02*
X124266000Y-58988000D01*
%TO.C,J3*%
X121556000Y-73550000D02*
X122936000Y-73550000D01*
X121556000Y-74930000D02*
X121556000Y-73550000D01*
X121556000Y-76200000D02*
X121556000Y-116950000D01*
X121556000Y-76200000D02*
X124316000Y-76200000D01*
X121556000Y-116950000D02*
X124316000Y-116950000D01*
X124316000Y-76200000D02*
X124316000Y-116950000D01*
%TO.C,D2*%
X158512000Y-63066000D02*
X160512000Y-63066000D01*
X158512000Y-63066000D02*
X158512000Y-59056000D01*
X160512000Y-63066000D02*
X160512000Y-59056000D01*
%TO.C,U1*%
X148739000Y-129734000D02*
X148739000Y-150174000D01*
X148739000Y-150174000D02*
X154039000Y-150174000D01*
X150389000Y-129734000D02*
X148739000Y-129734000D01*
X154039000Y-129734000D02*
X152389000Y-129734000D01*
X154039000Y-150174000D02*
X154039000Y-129734000D01*
X152389000Y-129734000D02*
G75*
G02*
X150389000Y-129734000I-1000000J0D01*
G01*
%TO.C,C2*%
X144499000Y-149831248D02*
X144499000Y-150353752D01*
X143029000Y-149831248D02*
X143029000Y-150353752D01*
%TO.C,C1*%
X143029000Y-145527752D02*
X143029000Y-145005248D01*
X144499000Y-145527752D02*
X144499000Y-145005248D01*
%TO.C,J1*%
X132534000Y-144772000D02*
X132534000Y-143772000D01*
X132534000Y-143772000D02*
X131534000Y-144272000D01*
X131534000Y-144272000D02*
X132534000Y-144772000D01*
X131144000Y-155352000D02*
X123814000Y-155352000D01*
X131144000Y-123032000D02*
X131144000Y-155352000D01*
X123814000Y-155352000D02*
X114154000Y-151882000D01*
X123814000Y-123032000D02*
X131144000Y-123032000D01*
X117714000Y-147062000D02*
X117714000Y-131322000D01*
X117714000Y-131322000D02*
X114154000Y-130692000D01*
X114154000Y-151882000D02*
X114154000Y-147692000D01*
X114154000Y-147692000D02*
X117714000Y-147062000D01*
X114154000Y-130692000D02*
X114154000Y-126502000D01*
X114154000Y-126502000D02*
X123814000Y-123032000D01*
%TO.C,A1*%
X138890000Y-71430000D02*
X138410000Y-71430000D01*
X138890000Y-71430000D02*
X138890000Y-71850000D01*
X138890000Y-73970000D02*
X138890000Y-74390000D01*
X138890000Y-76510000D02*
X138890000Y-76930000D01*
X138890000Y-79050000D02*
X138890000Y-79470000D01*
X138890000Y-81590000D02*
X138890000Y-82010000D01*
X138890000Y-84130000D02*
X138890000Y-84550000D01*
X138890000Y-86670000D02*
X138890000Y-87090000D01*
X138890000Y-89210000D02*
X138890000Y-89630000D01*
X138890000Y-91750000D02*
X138890000Y-92170000D01*
X138890000Y-94290000D02*
X138890000Y-94710000D01*
X138890000Y-96830000D02*
X138890000Y-97250000D01*
X138890000Y-99370000D02*
X138890000Y-99790000D01*
X138890000Y-101910000D02*
X138890000Y-102330000D01*
X138890000Y-104450000D02*
X138890000Y-104870000D01*
X138890000Y-106990000D02*
X138890000Y-107410000D01*
X138890000Y-109530000D02*
X138890000Y-109950000D01*
X138890000Y-112070000D02*
X138890000Y-112490000D01*
X138890000Y-114610000D02*
X138890000Y-115030000D01*
X138890000Y-117150000D02*
X138890000Y-117570000D01*
X138920324Y-69310000D02*
X138410000Y-69310000D01*
X139230000Y-69310063D02*
X139230000Y-68953000D01*
X139230000Y-71430000D02*
X139230000Y-71850000D01*
X139230000Y-73970000D02*
X139230000Y-74390000D01*
X139230000Y-76510000D02*
X139230000Y-76930000D01*
X139230000Y-79050000D02*
X139230000Y-79470000D01*
X139230000Y-81590000D02*
X139230000Y-82010000D01*
X139230000Y-84130000D02*
X139230000Y-84550000D01*
X139230000Y-86670000D02*
X139230000Y-87090000D01*
X139230000Y-89210000D02*
X139230000Y-89630000D01*
X139230000Y-91750000D02*
X139230000Y-92170000D01*
X139230000Y-94290000D02*
X139230000Y-94710000D01*
X139230000Y-96830000D02*
X139230000Y-97250000D01*
X139230000Y-99370000D02*
X139230000Y-99790000D01*
X139230000Y-101910000D02*
X139230000Y-102330000D01*
X139230000Y-104450000D02*
X139230000Y-104870000D01*
X139230000Y-106990000D02*
X139230000Y-107410000D01*
X139230000Y-109530000D02*
X139230000Y-109950000D01*
X139230000Y-112070000D02*
X139230000Y-112490000D01*
X139230000Y-114610000D02*
X139230000Y-115030000D01*
X139230000Y-117150000D02*
X139230000Y-117570000D01*
X139230000Y-119689937D02*
X139230000Y-120047000D01*
X139500000Y-68890000D02*
X141990000Y-68890000D01*
X139500000Y-120110000D02*
X143337939Y-120110000D01*
X141990000Y-68890000D02*
X141990000Y-69803520D01*
X141990000Y-68890000D02*
X143337940Y-68890000D01*
X141990000Y-72196480D02*
X141990000Y-116803520D01*
X141990000Y-119196480D02*
X141990000Y-120110000D01*
X144262061Y-68890000D02*
X145265000Y-68890000D01*
X145265000Y-68890000D02*
X153735000Y-68890000D01*
X145600000Y-68890000D02*
X145600000Y-69806000D01*
X145600000Y-72194000D02*
X145600000Y-73410000D01*
X145600000Y-73410000D02*
X145896090Y-73410000D01*
X145900000Y-120110000D02*
X144262061Y-120110000D01*
X148253910Y-73410000D02*
X150746090Y-73410000D01*
X153100000Y-120110000D02*
X145900000Y-120110000D01*
X153103910Y-73410000D02*
X153400000Y-73410000D01*
X153400000Y-68890000D02*
X153400000Y-69806000D01*
X153400000Y-72194000D02*
X153400000Y-73410000D01*
X153735000Y-68890000D02*
X154737939Y-68890000D01*
X154737939Y-120110000D02*
X153100000Y-120110000D01*
X155662061Y-68890000D02*
X157010000Y-68890000D01*
X155662061Y-120110000D02*
X159500000Y-120110000D01*
X157010000Y-68890000D02*
X157010000Y-69803520D01*
X157010000Y-72196480D02*
X157010000Y-116803520D01*
X157010000Y-119196480D02*
X157010000Y-120110000D01*
X159500000Y-68890000D02*
X157010000Y-68890000D01*
X159770000Y-69310063D02*
X159770000Y-68953000D01*
X159770000Y-71430000D02*
X159770000Y-71850000D01*
X159770000Y-73970000D02*
X159770000Y-74390000D01*
X159770000Y-76510000D02*
X159770000Y-76930000D01*
X159770000Y-79050000D02*
X159770000Y-79470000D01*
X159770000Y-81590000D02*
X159770000Y-82010000D01*
X159770000Y-84130000D02*
X159770000Y-84550000D01*
X159770000Y-86670000D02*
X159770000Y-87090000D01*
X159770000Y-89210000D02*
X159770000Y-89630000D01*
X159770000Y-91750000D02*
X159770000Y-92170000D01*
X159770000Y-94290000D02*
X159770000Y-94710000D01*
X159770000Y-96830000D02*
X159770000Y-97250000D01*
X159770000Y-99370000D02*
X159770000Y-99790000D01*
X159770000Y-101910000D02*
X159770000Y-102330000D01*
X159770000Y-104450000D02*
X159770000Y-104870000D01*
X159770000Y-106990000D02*
X159770000Y-107410000D01*
X159770000Y-109530000D02*
X159770000Y-109950000D01*
X159770000Y-112070000D02*
X159770000Y-112490000D01*
X159770000Y-114610000D02*
X159770000Y-115030000D01*
X159770000Y-117150000D02*
X159770000Y-117570000D01*
X159770000Y-119689937D02*
X159770000Y-120047000D01*
X160110000Y-71430000D02*
X160110000Y-71850000D01*
X160110000Y-73970000D02*
X160110000Y-74390000D01*
X160110000Y-76510000D02*
X160110000Y-76930000D01*
X160110000Y-79050000D02*
X160110000Y-79470000D01*
X160110000Y-81590000D02*
X160110000Y-82010000D01*
X160110000Y-84130000D02*
X160110000Y-84550000D01*
X160110000Y-86670000D02*
X160110000Y-87090000D01*
X160110000Y-89210000D02*
X160110000Y-89630000D01*
X160110000Y-91750000D02*
X160110000Y-92170000D01*
X160110000Y-94290000D02*
X160110000Y-94710000D01*
X160110000Y-96830000D02*
X160110000Y-97250000D01*
X160110000Y-99370000D02*
X160110000Y-99790000D01*
X160110000Y-101910000D02*
X160110000Y-102330000D01*
X160110000Y-104450000D02*
X160110000Y-104870000D01*
X160110000Y-106990000D02*
X160110000Y-107410000D01*
X160110000Y-109530000D02*
X160110000Y-109950000D01*
X160110000Y-112070000D02*
X160110000Y-112490000D01*
X160110000Y-114610000D02*
X160110000Y-115030000D01*
X160110000Y-117150000D02*
X160110000Y-117570000D01*
X138920324Y-69310000D02*
G75*
G02*
X139500000Y-68890000I579692J-190051D01*
G01*
X139500000Y-120110000D02*
G75*
G02*
X138920324Y-119689937I1J610002D01*
G01*
X159500000Y-68890000D02*
G75*
G02*
X160079676Y-69310063I0J-610000D01*
G01*
X160079676Y-119689937D02*
G75*
G02*
X159500000Y-120110069I-579676J189837D01*
G01*
%TD*%
M02*
