M48
; DRILL file KiCad 10.0.0-1.fc43 date 2026-04-16T14:34:24
; FORMAT={-:-/ absolute / metric / decimal}
; #@! TF.CreationDate,2026-04-16T14:34:24+01:00
; #@! TF.GenerationSoftware,Kicad,Pcbnew,10.0.0-1.fc43
; #@! TF.FileFunction,Plated,1,2,PTH
FMAT,2
METRIC
; #@! TA.AperFunction,Plated,PTH,ViaDrill
T1C0.300
; #@! TA.AperFunction,Plated,PTH,ComponentDrill
T2C0.800
; #@! TA.AperFunction,Plated,PTH,ComponentDrill
T3C1.000
%
G90
G05
T1
X122.428Y-123.698
X122.428Y-145.288
X123.698Y-122.682
X123.698Y-142.748
X124.714Y-129.794
X124.714Y-147.574
X136.652Y-129.794
X137.16Y-59.436
X139.954Y-145.034
X139.954Y-151.13
X142.24Y-131.064
X142.494Y-138.938
X145.542Y-140.208
X145.542Y-148.844
X147.828Y-103.378
X148.398Y-42.164
X149.098Y-39.878
X149.098Y-105.918
X151.13Y-143.764
X151.13Y-146.304
X151.638Y-131.064
X151.638Y-133.604
X159.004Y-122.174
X161.798Y-62.484
X161.798Y-72.898
X162.306Y-116.332
X162.56Y-37.338
X162.56Y-108.204
X162.814Y-122.682
X163.26Y-98.298
X163.322Y-44.704
X163.576Y-111.252
X163.83Y-137.414
X164.084Y-47.244
X164.084Y-85.598
X164.592Y-90.678
X164.846Y-50.038
X165.862Y-52.578
X165.862Y-93.218
X166.878Y-55.372
X166.878Y-83.058
X167.386Y-30.226
X167.386Y-33.02
X167.386Y-140.024
X167.894Y-147.84
X168.148Y-152.908
X168.148Y-155.702
T2
X147.579Y-131.064
X147.579Y-133.604
X147.579Y-136.144
X147.579Y-138.684
X147.579Y-141.224
X147.579Y-143.764
X147.579Y-146.304
X147.579Y-148.844
X155.199Y-131.064
X155.199Y-133.604
X155.199Y-136.144
X155.199Y-138.684
X155.199Y-141.224
X155.199Y-143.764
X155.199Y-146.304
X155.199Y-148.844
T3
X122.936Y-37.338
X122.936Y-39.878
X122.936Y-42.418
X122.936Y-44.958
X122.936Y-47.498
X122.936Y-50.038
X122.936Y-52.578
X122.936Y-55.118
X122.936Y-57.658
X122.936Y-74.93
X122.936Y-77.47
X122.936Y-80.01
X122.936Y-82.55
X122.936Y-85.09
X122.936Y-87.63
X122.936Y-90.17
X122.936Y-92.71
X122.936Y-95.25
X122.936Y-97.79
X122.936Y-100.33
X122.936Y-102.87
X122.936Y-105.41
X122.936Y-107.95
X122.936Y-110.49
X122.936Y-113.03
X122.936Y-115.57
X127.254Y-134.112
X127.254Y-136.652
X127.254Y-139.192
X127.254Y-141.732
X127.254Y-144.272
X129.794Y-134.112
X129.794Y-136.652
X129.794Y-139.192
X129.794Y-141.732
X129.794Y-144.272
X140.61Y-70.37
X140.61Y-72.91
X140.61Y-75.45
X140.61Y-77.99
X140.61Y-80.53
X140.61Y-83.07
X140.61Y-85.61
X140.61Y-88.15
X140.61Y-90.69
X140.61Y-93.23
X140.61Y-95.77
X140.61Y-98.31
X140.61Y-100.85
X140.61Y-103.39
X140.61Y-105.93
X140.61Y-108.47
X140.61Y-111.01
X140.61Y-113.55
X140.61Y-116.09
X140.61Y-118.63
X158.39Y-70.37
X158.39Y-72.91
X158.39Y-75.45
X158.39Y-77.99
X158.39Y-80.53
X158.39Y-83.07
X158.39Y-85.61
X158.39Y-88.15
X158.39Y-90.69
X158.39Y-93.23
X158.39Y-95.77
X158.39Y-98.31
X158.39Y-100.85
X158.39Y-103.39
X158.39Y-105.93
X158.39Y-108.47
X158.39Y-111.01
X158.39Y-113.55
X158.39Y-116.09
X158.39Y-118.63
M30
