M48
; DRILL file {KiCad 9.0.6-1.fc43} date 2026-03-29T06:33:42+0100
; FORMAT={-:-/ absolute / inch / decimal}
; #@! TF.CreationDate,2026-03-29T06:33:42+01:00
; #@! TF.GenerationSoftware,Kicad,Pcbnew,9.0.6-1.fc43
; #@! TF.FileFunction,Plated,1,2,PTH
FMAT,2
INCH
; #@! TA.AperFunction,Plated,PTH,ComponentDrill
T1C0.0394
%
G90
G05
T1
X6.0Y-0.8945
X6.0Y-0.9945
X6.0Y-1.8
X6.0Y-1.9
X6.1Y-0.8945
X6.1Y-0.9945
X6.1Y-1.8
X6.1Y-1.9
X6.2Y-0.8945
X6.2Y-0.9945
X6.2Y-1.8
X6.2Y-1.9
X6.3Y-0.8945
X6.3Y-0.9945
X6.3Y-1.8
X6.3Y-1.9
X6.4Y-0.8945
X6.4Y-0.9945
X6.4Y-1.8
X6.4Y-1.9
X6.5Y-0.8945
X6.5Y-0.9945
X6.5Y-1.8
X6.5Y-1.9
X6.6Y-0.8945
X6.6Y-0.9945
X6.6Y-1.8
X6.6Y-1.9
X6.7Y-0.8945
X6.7Y-0.9945
X6.7Y-1.8
X6.7Y-1.9
X6.8Y-0.8945
X6.8Y-0.9945
X6.8Y-1.8
X6.8Y-1.9
X6.9Y-0.8945
X6.9Y-0.9945
X6.9Y-1.8
X6.9Y-1.9
X6.9Y-4.5
X6.9Y-4.6
X6.9Y-4.7
X6.9Y-4.8
X6.9Y-4.9
X6.9Y-5.0
X6.9Y-5.1
X6.9Y-5.2
X7.0Y-0.8945
X7.0Y-0.9945
X7.0Y-1.8
X7.0Y-1.9
X7.1Y-0.8945
X7.1Y-0.9945
X7.1Y-1.8
X7.1Y-1.9
X7.2Y-0.8945
X7.2Y-0.9945
X7.2Y-1.8
X7.2Y-1.9
X7.26Y-5.46
X7.26Y-5.56
X7.26Y-5.66
X7.26Y-5.76
X7.3Y-0.8945
X7.3Y-0.9945
X7.3Y-1.8
X7.3Y-1.9
X7.32Y-2.5
X7.32Y-2.6
X7.32Y-2.7
X7.32Y-2.8
X7.32Y-2.9
X7.32Y-3.0
X7.32Y-3.1
X7.32Y-3.2
X7.32Y-3.3
X7.32Y-3.4
X7.32Y-3.5
X7.32Y-3.6
X7.32Y-3.7
X7.32Y-3.8
X7.32Y-3.9
X7.32Y-4.0
X7.32Y-4.1
X7.32Y-4.2
X7.32Y-4.3
X7.32Y-4.4
X7.32Y-4.5
X7.32Y-4.6
X7.32Y-4.7
X7.32Y-4.8
X7.36Y-5.46
X7.36Y-5.56
X7.36Y-5.66
X7.36Y-5.76
X7.4Y-0.8945
X7.4Y-0.9945
X7.4Y-1.8
X7.4Y-1.9
X7.42Y-2.5
X7.42Y-2.6
X7.42Y-2.7
X7.42Y-2.8
X7.42Y-2.9
X7.42Y-3.0
X7.42Y-3.1
X7.42Y-3.2
X7.42Y-3.3
X7.42Y-3.4
X7.42Y-3.5
X7.42Y-3.6
X7.42Y-3.7
X7.42Y-3.8
X7.42Y-3.9
X7.42Y-4.0
X7.42Y-4.1
X7.42Y-4.2
X7.42Y-4.3
X7.42Y-4.4
X7.42Y-4.5
X7.42Y-4.6
X7.42Y-4.7
X7.42Y-4.8
X7.5Y-0.8945
X7.5Y-0.9945
X7.5Y-1.8
X7.5Y-1.9
X7.5411Y-5.46
X7.5411Y-5.56
X7.5411Y-5.66
X7.5411Y-5.76
X7.6Y-0.8945
X7.6Y-0.9945
X7.6Y-1.8
X7.6Y-1.9
X7.6411Y-5.46
X7.6411Y-5.56
X7.6411Y-5.66
X7.6411Y-5.76
X7.7Y-0.8945
X7.7Y-0.9945
X7.7Y-1.8
X7.7Y-1.9
X7.8Y-0.8945
X7.8Y-0.9945
X7.8Y-1.8
X7.8Y-1.9
X7.8222Y-5.46
X7.8222Y-5.56
X7.8222Y-5.66
X7.8222Y-5.76
X7.9Y-0.8945
X7.9Y-0.9945
X7.9Y-1.8
X7.9Y-1.9
X7.9222Y-5.46
X7.9222Y-5.56
X7.9222Y-5.66
X7.9222Y-5.76
X8.1033Y-5.46
X8.1033Y-5.56
X8.1033Y-5.66
X8.1033Y-5.76
X8.2033Y-5.46
X8.2033Y-5.56
X8.2033Y-5.66
X8.2033Y-5.76
X8.3844Y-5.46
X8.3844Y-5.56
X8.3844Y-5.66
X8.3844Y-5.76
X8.4844Y-5.46
X8.4844Y-5.56
X8.4844Y-5.66
X8.4844Y-5.76
M30
