%TF.GenerationSoftware,KiCad,Pcbnew,9.0.6-1.fc43*%
%TF.CreationDate,2026-03-29T06:33:43+01:00*%
%TF.ProjectId,cptrep-diag-card,63707472-6570-42d6-9469-61672d636172,rev?*%
%TF.SameCoordinates,Original*%
%TF.FileFunction,Copper,L2,Bot*%
%TF.FilePolarity,Positive*%
%FSLAX46Y46*%
G04 Gerber Fmt 4.6, Leading zero omitted, Abs format (unit mm)*
G04 Created by KiCad (PCBNEW 9.0.6-1.fc43) date 2026-03-29 06:33:43*
%MOMM*%
%LPD*%
G01*
G04 APERTURE LIST*
G04 Aperture macros list*
%AMRoundRect*
0 Rectangle with rounded corners*
0 $1 Rounding radius*
0 $2 $3 $4 $5 $6 $7 $8 $9 X,Y pos of 4 corners*
0 Add a 4 corners polygon primitive as box body*
4,1,4,$2,$3,$4,$5,$6,$7,$8,$9,$2,$3,0*
0 Add four circle primitives for the rounded corners*
1,1,$1+$1,$2,$3*
1,1,$1+$1,$4,$5*
1,1,$1+$1,$6,$7*
1,1,$1+$1,$8,$9*
0 Add four rect primitives between the rounded corners*
20,1,$1+$1,$2,$3,$4,$5,0*
20,1,$1+$1,$4,$5,$6,$7,0*
20,1,$1+$1,$6,$7,$8,$9,0*
20,1,$1+$1,$8,$9,$2,$3,0*%
G04 Aperture macros list end*
%TA.AperFunction,ComponentPad*%
%ADD10C,1.700000*%
%TD*%
%TA.AperFunction,ComponentPad*%
%ADD11R,1.700000X1.700000*%
%TD*%
%TA.AperFunction,SMDPad,CuDef*%
%ADD12RoundRect,0.250000X-0.350000X-0.450000X0.350000X-0.450000X0.350000X0.450000X-0.350000X0.450000X0*%
%TD*%
%TA.AperFunction,ConnectorPad*%
%ADD13RoundRect,0.300000X-3.700000X-0.700000X3.700000X-0.700000X3.700000X0.700000X-3.700000X0.700000X0*%
%TD*%
%TA.AperFunction,Conductor*%
%ADD14C,0.400000*%
%TD*%
G04 APERTURE END LIST*
D10*
%TO.P,J9,48,Pin_48*%
%TO.N,GPIO47*%
X188468000Y-121920000D03*
%TO.P,J9,47,Pin_47*%
%TO.N,GPIO46*%
X185928000Y-121920000D03*
%TO.P,J9,46,Pin_46*%
%TO.N,GPIO45*%
X188468000Y-119380000D03*
%TO.P,J9,45,Pin_45*%
%TO.N,GPIO44*%
X185928000Y-119380000D03*
%TO.P,J9,44,Pin_44*%
%TO.N,GPIO43*%
X188468000Y-116840000D03*
%TO.P,J9,43,Pin_43*%
%TO.N,GPIO42*%
X185928000Y-116840000D03*
%TO.P,J9,42,Pin_42*%
%TO.N,GPIO41*%
X188468000Y-114300000D03*
%TO.P,J9,41,Pin_41*%
%TO.N,GPIO40*%
X185928000Y-114300000D03*
%TO.P,J9,40,Pin_40*%
%TO.N,GPIO39*%
X188468000Y-111760000D03*
%TO.P,J9,39,Pin_39*%
%TO.N,GPIO38*%
X185928000Y-111760000D03*
%TO.P,J9,38,Pin_38*%
%TO.N,GPIO37*%
X188468000Y-109220000D03*
%TO.P,J9,37,Pin_37*%
%TO.N,GPIO36*%
X185928000Y-109220000D03*
%TO.P,J9,36,Pin_36*%
%TO.N,GPIO35*%
X188468000Y-106680000D03*
%TO.P,J9,35,Pin_35*%
%TO.N,GPIO34*%
X185928000Y-106680000D03*
%TO.P,J9,34,Pin_34*%
%TO.N,GPIO33*%
X188468000Y-104140000D03*
%TO.P,J9,33,Pin_33*%
%TO.N,GPIO32*%
X185928000Y-104140000D03*
%TO.P,J9,32,Pin_32*%
%TO.N,GPIO31*%
X188468000Y-101600000D03*
%TO.P,J9,31,Pin_31*%
%TO.N,GPIO30*%
X185928000Y-101600000D03*
%TO.P,J9,30,Pin_30*%
%TO.N,GPIO29*%
X188468000Y-99060000D03*
%TO.P,J9,29,Pin_29*%
%TO.N,GPIO28*%
X185928000Y-99060000D03*
%TO.P,J9,28,Pin_28*%
%TO.N,GPIO27*%
X188468000Y-96520000D03*
%TO.P,J9,27,Pin_27*%
%TO.N,GPIO26*%
X185928000Y-96520000D03*
%TO.P,J9,26,Pin_26*%
%TO.N,GPIO25*%
X188468000Y-93980000D03*
%TO.P,J9,25,Pin_25*%
%TO.N,GPIO24*%
X185928000Y-93980000D03*
%TO.P,J9,24,Pin_24*%
%TO.N,GPIO23*%
X188468000Y-91440000D03*
%TO.P,J9,23,Pin_23*%
%TO.N,GPIO22*%
X185928000Y-91440000D03*
%TO.P,J9,22,Pin_22*%
%TO.N,GPIO21*%
X188468000Y-88900000D03*
%TO.P,J9,21,Pin_21*%
%TO.N,GPIO20*%
X185928000Y-88900000D03*
%TO.P,J9,20,Pin_20*%
%TO.N,GPIO19*%
X188468000Y-86360000D03*
%TO.P,J9,19,Pin_19*%
%TO.N,GPIO18*%
X185928000Y-86360000D03*
%TO.P,J9,18,Pin_18*%
%TO.N,GPIO17*%
X188468000Y-83820000D03*
%TO.P,J9,17,Pin_17*%
%TO.N,GPIO16*%
X185928000Y-83820000D03*
%TO.P,J9,16,Pin_16*%
%TO.N,GPIO15*%
X188468000Y-81280000D03*
%TO.P,J9,15,Pin_15*%
%TO.N,GPIO14*%
X185928000Y-81280000D03*
%TO.P,J9,14,Pin_14*%
%TO.N,GPIO13*%
X188468000Y-78740000D03*
%TO.P,J9,13,Pin_13*%
%TO.N,GPIO12*%
X185928000Y-78740000D03*
%TO.P,J9,12,Pin_12*%
%TO.N,GPIO11*%
X188468000Y-76200000D03*
%TO.P,J9,11,Pin_11*%
%TO.N,GPIO10*%
X185928000Y-76200000D03*
%TO.P,J9,10,Pin_10*%
%TO.N,GPIO9*%
X188468000Y-73660000D03*
%TO.P,J9,9,Pin_9*%
%TO.N,GPIO8*%
X185928000Y-73660000D03*
%TO.P,J9,8,Pin_8*%
%TO.N,GPIO7*%
X188468000Y-71120000D03*
%TO.P,J9,7,Pin_7*%
%TO.N,GPIO6*%
X185928000Y-71120000D03*
%TO.P,J9,6,Pin_6*%
%TO.N,GPIO5*%
X188468000Y-68580000D03*
%TO.P,J9,5,Pin_5*%
%TO.N,GPIO4*%
X185928000Y-68580000D03*
%TO.P,J9,4,Pin_4*%
%TO.N,GPIO3*%
X188468000Y-66040000D03*
%TO.P,J9,3,Pin_3*%
%TO.N,GPIO2*%
X185928000Y-66040000D03*
%TO.P,J9,2,Pin_2*%
%TO.N,GPIO1*%
X188468000Y-63500000D03*
D11*
%TO.P,J9,1,Pin_1*%
%TO.N,GPIO0*%
X185928000Y-63500000D03*
%TD*%
D12*
%TO.P,R45,1*%
%TO.N,DREQ0*%
X221520000Y-119380000D03*
%TO.P,R45,2*%
%TO.N,Net-(J2-{slash}DREQ0)*%
X223520000Y-119380000D03*
%TD*%
%TO.P,R46,1*%
%TO.N,INT3*%
X221520000Y-116840000D03*
%TO.P,R46,2*%
%TO.N,Net-(J2-{slash}INT3)*%
X223520000Y-116840000D03*
%TD*%
%TO.P,R43,1*%
%TO.N,DREQ2*%
X221520000Y-124460000D03*
%TO.P,R43,2*%
%TO.N,Net-(J2-{slash}DREQ2)*%
X223520000Y-124460000D03*
%TD*%
%TO.P,R44,1*%
%TO.N,DREQ1*%
X221520000Y-121920000D03*
%TO.P,R44,2*%
%TO.N,Net-(J2-{slash}DREQ1)*%
X223520000Y-121920000D03*
%TD*%
%TO.P,R42,1*%
%TO.N,DREQ3*%
X221520000Y-127000000D03*
%TO.P,R42,2*%
%TO.N,Net-(J2-{slash}DREQ3)*%
X223520000Y-127000000D03*
%TD*%
%TO.P,R34,2*%
%TO.N,Net-(J2-PHI2)*%
X223520000Y-129540000D03*
%TO.P,R34,1*%
%TO.N,PHI2*%
X221520000Y-129540000D03*
%TD*%
D13*
%TO.P,J2,1,GND*%
%TO.N,unconnected-(J2-GND-Pad1)*%
X239750000Y-28065000D03*
%TO.P,J2,3,GND*%
%TO.N,unconnected-(J2-GND-Pad3)*%
X239750000Y-30605000D03*
%TO.P,J2,5,+24V*%
%TO.N,unconnected-(J2-+24V-Pad5)*%
X239750000Y-33145000D03*
%TO.P,J2,7,+24V*%
%TO.N,unconnected-(J2-+24V-Pad7)*%
X239750000Y-35685000D03*
%TO.P,J2,9,9*%
%TO.N,unconnected-(J2-Pad9)*%
X239750000Y-38225000D03*
%TO.P,J2,11,/RESET*%
%TO.N,Net-(J2-{slash}RESET)*%
X239750000Y-40765000D03*
%TO.P,J2,13,READY*%
%TO.N,Net-(J2-READY)*%
X239750000Y-43305000D03*
%TO.P,J2,15,15*%
%TO.N,unconnected-(J2-Pad15)*%
X239750000Y-45845000D03*
%TO.P,J2,17,AUD*%
%TO.N,unconnected-(J2-AUD-Pad17)*%
X239750000Y-48385000D03*
%TO.P,J2,19,19*%
%TO.N,unconnected-(J2-Pad19)*%
X239750000Y-50925000D03*
%TO.P,J2,21,/DB1*%
%TO.N,Net-(J2-{slash}DB1)*%
X239750000Y-53465000D03*
%TO.P,J2,23,/DB3*%
%TO.N,Net-(J2-{slash}DB3)*%
X239750000Y-56005000D03*
%TO.P,J2,25,/DB5*%
%TO.N,Net-(J2-{slash}DB5)*%
X239750000Y-58545000D03*
%TO.P,J2,27,/DB7*%
%TO.N,Net-(J2-{slash}DB7)*%
X239750000Y-61085000D03*
%TO.P,J2,29,/HLDAK*%
%TO.N,Net-(J2-{slash}HLDAK)*%
X239750000Y-63625000D03*
%TO.P,J2,31,/IORD*%
%TO.N,Net-(J2-{slash}IORD)*%
X239750000Y-66165000D03*
%TO.P,J2,33,/IOWR*%
%TO.N,Net-(J2-{slash}IOWR)*%
X239750000Y-68705000D03*
%TO.P,J2,35,/BIN*%
%TO.N,Net-(J2-{slash}BIN)*%
X239750000Y-71245000D03*
%TO.P,J2,37,/BOUT*%
%TO.N,Net-(J2-{slash}BOUT)*%
X239750000Y-73785000D03*
%TO.P,J2,39,39*%
%TO.N,unconnected-(J2-Pad39)*%
X239750000Y-76325000D03*
%TO.P,J2,41,/A1*%
%TO.N,Net-(J2-{slash}A1)*%
X239750000Y-78865000D03*
%TO.P,J2,43,/A3*%
%TO.N,Net-(J2-{slash}A3)*%
X239750000Y-81405000D03*
%TO.P,J2,45,/A5*%
%TO.N,Net-(J2-{slash}A5)*%
X239750000Y-83945000D03*
%TO.P,J2,47,/A7*%
%TO.N,Net-(J2-{slash}A7)*%
X239750000Y-86485000D03*
%TO.P,J2,49,/A9*%
%TO.N,Net-(J2-{slash}A9)*%
X239750000Y-89025000D03*
%TO.P,J2,51,/A11*%
%TO.N,Net-(J2-{slash}A11)*%
X239750000Y-91565000D03*
%TO.P,J2,53,/A13*%
%TO.N,Net-(J2-{slash}A13)*%
X239750000Y-94105000D03*
%TO.P,J2,55,/A15*%
%TO.N,Net-(J2-{slash}A15)*%
X239750000Y-96645000D03*
%TO.P,J2,57,/REF*%
%TO.N,Net-(J2-{slash}REF)*%
X239750000Y-99185000D03*
%TO.P,J2,59,59*%
%TO.N,unconnected-(J2-Pad59)*%
X239750000Y-101725000D03*
%TO.P,J2,61,/IO20*%
%TO.N,Net-(J2-{slash}IO20)*%
X239750000Y-104265000D03*
%TO.P,J2,63,/IO30*%
%TO.N,Net-(J2-{slash}IO30)*%
X239750000Y-106805000D03*
%TO.P,J2,65,/IO40*%
%TO.N,Net-(J2-{slash}IO40)*%
X239750000Y-109345000D03*
%TO.P,J2,67,/EOF*%
%TO.N,Net-(J2-{slash}EOF)*%
X239750000Y-111885000D03*
%TO.P,J2,69,/INTERRUPT4*%
%TO.N,Net-(J2-{slash}INTERRUPT4)*%
X239750000Y-114425000D03*
%TO.P,J2,71,/INT3*%
%TO.N,Net-(J2-{slash}INT3)*%
X239750000Y-116965000D03*
%TO.P,J2,73,/DREQ0*%
%TO.N,Net-(J2-{slash}DREQ0)*%
X239750000Y-119505000D03*
%TO.P,J2,75,/DREQ1*%
%TO.N,Net-(J2-{slash}DREQ1)*%
X239750000Y-122045000D03*
%TO.P,J2,77,/DREQ2*%
%TO.N,Net-(J2-{slash}DREQ2)*%
X239750000Y-124585000D03*
%TO.P,J2,79,/DREQ3*%
%TO.N,Net-(J2-{slash}DREQ3)*%
X239750000Y-127125000D03*
%TO.P,J2,81,PHI2*%
%TO.N,Net-(J2-PHI2)*%
X239750000Y-129665000D03*
%TO.P,J2,83,83*%
%TO.N,unconnected-(J2-Pad83)*%
X239750000Y-132205000D03*
%TO.P,J2,85,85*%
%TO.N,unconnected-(J2-Pad85)*%
X239750000Y-134745000D03*
%TO.P,J2,87,-5V*%
%TO.N,unconnected-(J2--5V-Pad87)*%
X239750000Y-137285000D03*
%TO.P,J2,89,-12V*%
%TO.N,unconnected-(J2--12V-Pad89)*%
X239750000Y-139825000D03*
%TO.P,J2,91,+12V*%
%TO.N,unconnected-(J2-+12V-Pad91)*%
X239750000Y-142365000D03*
%TO.P,J2,93,+5V*%
%TO.N,+5V*%
X239750000Y-144905000D03*
%TO.P,J2,95,+5V*%
%TO.N,unconnected-(J2-+5V-Pad95)*%
X239750000Y-147445000D03*
%TO.P,J2,97,GND*%
%TO.N,unconnected-(J2-GND-Pad97)*%
X239750000Y-149985000D03*
%TO.P,J2,99,GND*%
%TO.N,GND*%
X239750000Y-152525000D03*
%TD*%
D12*
%TO.P,R55,1*%
%TO.N,HLDACK*%
X221488000Y-63500000D03*
%TO.P,R55,2*%
%TO.N,Net-(J2-{slash}HLDAK)*%
X223488000Y-63500000D03*
%TD*%
%TO.P,R54,2*%
%TO.N,Net-(J2-{slash}REF)*%
X223520000Y-99060000D03*
%TO.P,R54,1*%
%TO.N,REF*%
X221520000Y-99060000D03*
%TD*%
%TO.P,R53,1*%
%TO.N,READY*%
X221488000Y-43180000D03*
%TO.P,R53,2*%
%TO.N,Net-(J2-READY)*%
X223488000Y-43180000D03*
%TD*%
%TO.P,R51,1*%
%TO.N,RESET*%
X221488000Y-40640000D03*
%TO.P,R51,2*%
%TO.N,Net-(J2-{slash}RESET)*%
X223488000Y-40640000D03*
%TD*%
%TO.P,R49,1*%
%TO.N,EOF*%
X221488000Y-111760000D03*
%TO.P,R49,2*%
%TO.N,Net-(J2-{slash}EOF)*%
X223488000Y-111760000D03*
%TD*%
%TO.P,R47,1*%
%TO.N,INT4*%
X221488000Y-114300000D03*
%TO.P,R47,2*%
%TO.N,Net-(J2-{slash}INTERRUPT4)*%
X223488000Y-114300000D03*
%TD*%
%TO.P,R35,1*%
%TO.N,IOWR*%
X221488000Y-68580000D03*
%TO.P,R35,2*%
%TO.N,Net-(J2-{slash}IOWR)*%
X223488000Y-68580000D03*
%TD*%
%TO.P,R33,1*%
%TO.N,GPIO41*%
X221504000Y-88900000D03*
%TO.P,R33,2*%
%TO.N,Net-(J2-{slash}A9)*%
X223504000Y-88900000D03*
%TD*%
%TO.P,R31,1*%
%TO.N,GPIO43*%
X221504000Y-91440000D03*
%TO.P,R31,2*%
%TO.N,Net-(J2-{slash}A11)*%
X223504000Y-91440000D03*
%TD*%
%TO.P,R29,1*%
%TO.N,GPIO45*%
X221504000Y-93980000D03*
%TO.P,R29,2*%
%TO.N,Net-(J2-{slash}A13)*%
X223504000Y-93980000D03*
%TD*%
%TO.P,R27,1*%
%TO.N,IO40*%
X221488000Y-109220000D03*
%TO.P,R27,2*%
%TO.N,Net-(J2-{slash}IO40)*%
X223488000Y-109220000D03*
%TD*%
%TO.P,R26,1*%
%TO.N,IORD*%
X221488000Y-66040000D03*
%TO.P,R26,2*%
%TO.N,Net-(J2-{slash}IORD)*%
X223488000Y-66040000D03*
%TD*%
%TO.P,R24,1*%
%TO.N,IO30*%
X221488000Y-106680000D03*
%TO.P,R24,2*%
%TO.N,Net-(J2-{slash}IO30)*%
X223488000Y-106680000D03*
%TD*%
%TO.P,R23,1*%
%TO.N,IO20*%
X221488000Y-104140000D03*
%TO.P,R23,2*%
%TO.N,Net-(J2-{slash}IO20)*%
X223488000Y-104140000D03*
%TD*%
%TO.P,R22,1*%
%TO.N,BOUT*%
X221488000Y-73660000D03*
%TO.P,R22,2*%
%TO.N,Net-(J2-{slash}BOUT)*%
X223488000Y-73660000D03*
%TD*%
%TO.P,R21,1*%
%TO.N,BIN*%
X221488000Y-71120000D03*
%TO.P,R21,2*%
%TO.N,Net-(J2-{slash}BIN)*%
X223488000Y-71120000D03*
%TD*%
%TO.P,R18,1*%
%TO.N,GPIO1*%
X221488000Y-53340000D03*
%TO.P,R18,2*%
%TO.N,Net-(J2-{slash}DB1)*%
X223488000Y-53340000D03*
%TD*%
%TO.P,R16,2*%
%TO.N,Net-(J2-{slash}DB3)*%
X223520000Y-55880000D03*
%TO.P,R16,1*%
%TO.N,GPIO3*%
X221520000Y-55880000D03*
%TD*%
%TO.P,R14,2*%
%TO.N,Net-(J2-{slash}DB5)*%
X223520000Y-58420000D03*
%TO.P,R14,1*%
%TO.N,GPIO5*%
X221520000Y-58420000D03*
%TD*%
%TO.P,R12,1*%
%TO.N,GPIO7*%
X221488000Y-60960000D03*
%TO.P,R12,2*%
%TO.N,Net-(J2-{slash}DB7)*%
X223488000Y-60960000D03*
%TD*%
%TO.P,R10,1*%
%TO.N,GPIO33*%
X221504000Y-78740000D03*
%TO.P,R10,2*%
%TO.N,Net-(J2-{slash}A1)*%
X223504000Y-78740000D03*
%TD*%
%TO.P,R8,1*%
%TO.N,GPIO35*%
X221504000Y-81280000D03*
%TO.P,R8,2*%
%TO.N,Net-(J2-{slash}A3)*%
X223504000Y-81280000D03*
%TD*%
%TO.P,R6,1*%
%TO.N,GPIO37*%
X221504000Y-83820000D03*
%TO.P,R6,2*%
%TO.N,Net-(J2-{slash}A5)*%
X223504000Y-83820000D03*
%TD*%
%TO.P,R4,1*%
%TO.N,GPIO39*%
X221504000Y-86360000D03*
%TO.P,R4,2*%
%TO.N,Net-(J2-{slash}A7)*%
X223504000Y-86360000D03*
%TD*%
%TO.P,R1,1*%
%TO.N,GPIO47*%
X221520000Y-96520000D03*
%TO.P,R1,2*%
%TO.N,Net-(J2-{slash}A15)*%
X223520000Y-96520000D03*
%TD*%
D11*
%TO.P,J8,1,Pin_1*%
%TO.N,LED0*%
X175260000Y-114300000D03*
D10*
%TO.P,J8,2,Pin_2*%
%TO.N,LED1*%
X175260000Y-116840000D03*
%TO.P,J8,3,Pin_3*%
%TO.N,LED2*%
X175260000Y-119380000D03*
%TO.P,J8,4,Pin_4*%
%TO.N,LED3*%
X175260000Y-121920000D03*
%TO.P,J8,5,Pin_5*%
%TO.N,LED4*%
X175260000Y-124460000D03*
%TO.P,J8,6,Pin_6*%
%TO.N,LED5*%
X175260000Y-127000000D03*
%TO.P,J8,7,Pin_7*%
%TO.N,LED6*%
X175260000Y-129540000D03*
%TO.P,J8,8,Pin_8*%
%TO.N,LED7*%
X175260000Y-132080000D03*
%TD*%
D11*
%TO.P,J7,1,Pin_1*%
%TO.N,GPIO14*%
X186944000Y-146304000D03*
D10*
%TO.P,J7,2,Pin_2*%
%TO.N,GPIO15*%
X184404000Y-146304000D03*
%TO.P,J7,3,Pin_3*%
%TO.N,GPIO17*%
X186944000Y-143764000D03*
%TO.P,J7,4,Pin_4*%
%TO.N,GPIO26*%
X184404000Y-143764000D03*
%TO.P,J7,5,Pin_5*%
%TO.N,unconnected-(J7-Pin_5-Pad5)*%
X186944000Y-141224000D03*
%TO.P,J7,6,Pin_6*%
%TO.N,unconnected-(J7-Pin_6-Pad6)*%
X184404000Y-141224000D03*
%TO.P,J7,7,Pin_7*%
%TO.N,unconnected-(J7-Pin_7-Pad7)*%
X186944000Y-138684000D03*
%TO.P,J7,8,Pin_8*%
%TO.N,REF*%
X184404000Y-138684000D03*
%TD*%
D11*
%TO.P,J6,1,Pin_1*%
%TO.N,GPIO14*%
X194084000Y-146304000D03*
D10*
%TO.P,J6,2,Pin_2*%
%TO.N,GPIO15*%
X191544000Y-146304000D03*
%TO.P,J6,3,Pin_3*%
%TO.N,GPIO17*%
X194084000Y-143764000D03*
%TO.P,J6,4,Pin_4*%
%TO.N,GPIO26*%
X191544000Y-143764000D03*
%TO.P,J6,5,Pin_5*%
%TO.N,WAIT*%
X194084000Y-141224000D03*
%TO.P,J6,6,Pin_6*%
%TO.N,READY*%
X191544000Y-141224000D03*
%TO.P,J6,7,Pin_7*%
%TO.N,RESET*%
X194084000Y-138684000D03*
%TO.P,J6,8,Pin_8*%
%TO.N,HLDACK*%
X191544000Y-138684000D03*
%TD*%
D11*
%TO.P,J5,1,Pin_1*%
%TO.N,GPIO14*%
X201224000Y-146304000D03*
D10*
%TO.P,J5,2,Pin_2*%
%TO.N,GPIO15*%
X198684000Y-146304000D03*
%TO.P,J5,3,Pin_3*%
%TO.N,GPIO17*%
X201224000Y-143764000D03*
%TO.P,J5,4,Pin_4*%
%TO.N,GPIO26*%
X198684000Y-143764000D03*
%TO.P,J5,5,Pin_5*%
%TO.N,EOF*%
X201224000Y-141224000D03*
%TO.P,J5,6,Pin_6*%
%TO.N,TC*%
X198684000Y-141224000D03*
%TO.P,J5,7,Pin_7*%
%TO.N,BIN*%
X201224000Y-138684000D03*
%TO.P,J5,8,Pin_8*%
%TO.N,BOUT*%
X198684000Y-138684000D03*
%TD*%
D11*
%TO.P,J4,1,Pin_1*%
%TO.N,GPIO14*%
X208364000Y-146304000D03*
D10*
%TO.P,J4,2,Pin_2*%
%TO.N,GPIO15*%
X205824000Y-146304000D03*
%TO.P,J4,3,Pin_3*%
%TO.N,GPIO17*%
X208364000Y-143764000D03*
%TO.P,J4,4,Pin_4*%
%TO.N,GPIO26*%
X205824000Y-143764000D03*
%TO.P,J4,5,Pin_5*%
%TO.N,DACK1*%
X208364000Y-141224000D03*
%TO.P,J4,6,Pin_6*%
%TO.N,DACK0*%
X205824000Y-141224000D03*
%TO.P,J4,7,Pin_7*%
%TO.N,DREQ1*%
X208364000Y-138684000D03*
%TO.P,J4,8,Pin_8*%
%TO.N,DREQ0*%
X205824000Y-138684000D03*
%TD*%
D11*
%TO.P,J3,1,Pin_1*%
%TO.N,GPIO14*%
X215504000Y-146304000D03*
D10*
%TO.P,J3,2,Pin_2*%
%TO.N,GPIO15*%
X212964000Y-146304000D03*
%TO.P,J3,3,Pin_3*%
%TO.N,GPIO17*%
X215504000Y-143764000D03*
%TO.P,J3,4,Pin_4*%
%TO.N,unconnected-(J3-Pin_4-Pad4)*%
X212964000Y-143764000D03*
%TO.P,J3,5,Pin_5*%
%TO.N,DACK3*%
X215504000Y-141224000D03*
%TO.P,J3,6,Pin_6*%
%TO.N,DACK2*%
X212964000Y-141224000D03*
%TO.P,J3,7,Pin_7*%
%TO.N,DREQ3*%
X215504000Y-138684000D03*
%TO.P,J3,8,Pin_8*%
%TO.N,DREQ2*%
X212964000Y-138684000D03*
%TD*%
D11*
%TO.P,EXT2,1,1*%
%TO.N,+3.3V*%
X152400000Y-22720000D03*
D10*
%TO.P,EXT2,2,2*%
%TO.N,VBUS*%
X152400000Y-25260000D03*
%TO.P,EXT2,3,3*%
%TO.N,GPIO32*%
X154940000Y-22720000D03*
%TO.P,EXT2,4,4*%
%TO.N,VSYS*%
X154940000Y-25260000D03*
%TO.P,EXT2,5,5*%
%TO.N,GPIO33*%
X157480000Y-22720000D03*
%TO.P,EXT2,6,6*%
%TO.N,GND*%
X157480000Y-25260000D03*
%TO.P,EXT2,7,7*%
%TO.N,GPIO34*%
X160020000Y-22720000D03*
%TO.P,EXT2,8,8*%
%TO.N,+3.3V*%
X160020000Y-25260000D03*
%TO.P,EXT2,9,9*%
%TO.N,GPIO35*%
X162560000Y-22720000D03*
%TO.P,EXT2,10,10*%
%TO.N,GND*%
X162560000Y-25260000D03*
%TO.P,EXT2,11,11*%
%TO.N,GPIO36*%
X165100000Y-22720000D03*
%TO.P,EXT2,12,12*%
%TO.N,/3V3_EN*%
X165100000Y-25260000D03*
%TO.P,EXT2,13,13*%
%TO.N,GPIO37*%
X167640000Y-22720000D03*
%TO.P,EXT2,14,14*%
%TO.N,/ADC_VREF*%
X167640000Y-25260000D03*
%TO.P,EXT2,15,15*%
%TO.N,GPIO38*%
X170180000Y-22720000D03*
%TO.P,EXT2,16,16*%
%TO.N,GND*%
X170180000Y-25260000D03*
%TO.P,EXT2,17,17*%
%TO.N,GPIO39*%
X172720000Y-22720000D03*
%TO.P,EXT2,18,18*%
%TO.N,/RUN*%
X172720000Y-25260000D03*
%TO.P,EXT2,19,19*%
%TO.N,GND*%
X175260000Y-22720000D03*
%TO.P,EXT2,20,20*%
%TO.N,/BOOTSEL#*%
X175260000Y-25260000D03*
%TO.P,EXT2,21,21*%
%TO.N,+3.3V*%
X177800000Y-22720000D03*
%TO.P,EXT2,22,22*%
X177800000Y-25260000D03*
%TO.P,EXT2,23,23*%
%TO.N,GPIO40*%
X180340000Y-22720000D03*
%TO.P,EXT2,24,24*%
%TO.N,/QSPI_SD0*%
X180340000Y-25260000D03*
%TO.P,EXT2,25,25*%
%TO.N,GPIO41*%
X182880000Y-22720000D03*
%TO.P,EXT2,26,26*%
%TO.N,/QSPI_SD1*%
X182880000Y-25260000D03*
%TO.P,EXT2,27,27*%
%TO.N,GPIO42*%
X185420000Y-22720000D03*
%TO.P,EXT2,28,28*%
%TO.N,/QSPI_SD2*%
X185420000Y-25260000D03*
%TO.P,EXT2,29,29*%
%TO.N,GPIO43*%
X187960000Y-22720000D03*
%TO.P,EXT2,30,30*%
%TO.N,/QSPI_SD3*%
X187960000Y-25260000D03*
%TO.P,EXT2,31,31*%
%TO.N,GPIO44*%
X190500000Y-22720000D03*
%TO.P,EXT2,32,32*%
%TO.N,/QSPI_CLK*%
X190500000Y-25260000D03*
%TO.P,EXT2,33,33*%
%TO.N,GPIO45*%
X193040000Y-22720000D03*
%TO.P,EXT2,34,34*%
%TO.N,/QSPI_CSn*%
X193040000Y-25260000D03*
%TO.P,EXT2,35,35*%
%TO.N,GPIO46*%
X195580000Y-22720000D03*
%TO.P,EXT2,36,36*%
%TO.N,/SWDIO*%
X195580000Y-25260000D03*
%TO.P,EXT2,37,37*%
%TO.N,GPIO47*%
X198120000Y-22720000D03*
%TO.P,EXT2,38,38*%
%TO.N,/SWCLK*%
X198120000Y-25260000D03*
%TO.P,EXT2,39,39*%
%TO.N,GND*%
X200660000Y-22720000D03*
%TO.P,EXT2,40,40*%
X200660000Y-25260000D03*
%TD*%
D11*
%TO.P,EXT1,1,1*%
%TO.N,+3.3V*%
X152400000Y-45720000D03*
D10*
%TO.P,EXT1,2,2*%
X152400000Y-48260000D03*
%TO.P,EXT1,3,3*%
%TO.N,/GPIO16*%
X154940000Y-45720000D03*
%TO.P,EXT1,4,4*%
%TO.N,GPIO0*%
X154940000Y-48260000D03*
%TO.P,EXT1,5,5*%
%TO.N,GPIO17*%
X157480000Y-45720000D03*
%TO.P,EXT1,6,6*%
%TO.N,GPIO1*%
X157480000Y-48260000D03*
%TO.P,EXT1,7,7*%
%TO.N,/GPIO18*%
X160020000Y-45720000D03*
%TO.P,EXT1,8,8*%
%TO.N,GPIO2*%
X160020000Y-48260000D03*
%TO.P,EXT1,9,9*%
%TO.N,/GPIO19*%
X162560000Y-45720000D03*
%TO.P,EXT1,10,10*%
%TO.N,GPIO3*%
X162560000Y-48260000D03*
%TO.P,EXT1,11,11*%
%TO.N,/GPIO20*%
X165100000Y-45720000D03*
%TO.P,EXT1,12,12*%
%TO.N,GPIO4*%
X165100000Y-48260000D03*
%TO.P,EXT1,13,13*%
%TO.N,/GPIO21*%
X167640000Y-45720000D03*
%TO.P,EXT1,14,14*%
%TO.N,GPIO5*%
X167640000Y-48260000D03*
%TO.P,EXT1,15,15*%
%TO.N,/GPIO22*%
X170180000Y-45720000D03*
%TO.P,EXT1,16,16*%
%TO.N,GPIO6*%
X170180000Y-48260000D03*
%TO.P,EXT1,17,17*%
%TO.N,INT4*%
X172720000Y-45720000D03*
%TO.P,EXT1,18,18*%
%TO.N,GPIO7*%
X172720000Y-48260000D03*
%TO.P,EXT1,19,19*%
%TO.N,GND*%
X175260000Y-45720000D03*
%TO.P,EXT1,20,20*%
X175260000Y-48260000D03*
%TO.P,EXT1,21,21*%
%TO.N,+3.3V*%
X177800000Y-45720000D03*
%TO.P,EXT1,22,22*%
X177800000Y-48260000D03*
%TO.P,EXT1,23,23*%
%TO.N,INT3*%
X180340000Y-45720000D03*
%TO.P,EXT1,24,24*%
%TO.N,GPIO8*%
X180340000Y-48260000D03*
%TO.P,EXT1,25,25*%
%TO.N,INT1*%
X182880000Y-45720000D03*
%TO.P,EXT1,26,26*%
%TO.N,MEMWR*%
X182880000Y-48260000D03*
%TO.P,EXT1,27,27*%
%TO.N,GPIO26*%
X185420000Y-45720000D03*
%TO.P,EXT1,28,28*%
%TO.N,MEMRD*%
X185420000Y-48260000D03*
%TO.P,EXT1,29,29*%
%TO.N,PARITYERR*%
X187960000Y-45720000D03*
%TO.P,EXT1,30,30*%
%TO.N,IORD*%
X187960000Y-48260000D03*
%TO.P,EXT1,31,31*%
%TO.N,IO60*%
X190500000Y-45720000D03*
%TO.P,EXT1,32,32*%
%TO.N,IOWR*%
X190500000Y-48260000D03*
%TO.P,EXT1,33,33*%
%TO.N,IO40*%
X193040000Y-45720000D03*
%TO.P,EXT1,34,34*%
%TO.N,PHI2*%
X193040000Y-48260000D03*
%TO.P,EXT1,35,35*%
%TO.N,IO30*%
X195580000Y-45720000D03*
%TO.P,EXT1,36,36*%
%TO.N,GPIO14*%
X195580000Y-48260000D03*
%TO.P,EXT1,37,37*%
%TO.N,IO20*%
X198120000Y-45720000D03*
%TO.P,EXT1,38,38*%
%TO.N,GPIO15*%
X198120000Y-48260000D03*
%TO.P,EXT1,39,39*%
%TO.N,GND*%
X200660000Y-45720000D03*
%TO.P,EXT1,40,40*%
X200660000Y-48260000D03*
%TD*%
D14*
%TO.N,Net-(J2-{slash}DB3)*%
X239750000Y-56005000D02*
X223645000Y-56005000D01*
X223645000Y-56005000D02*
X223520000Y-55880000D01*
%TO.N,Net-(J2-{slash}DB5)*%
X239750000Y-58545000D02*
X223645000Y-58545000D01*
X223645000Y-58545000D02*
X223520000Y-58420000D01*
%TO.N,Net-(J2-READY)*%
X239750000Y-43305000D02*
X223613000Y-43305000D01*
X223613000Y-43305000D02*
X223488000Y-43180000D01*
%TO.N,Net-(J2-{slash}RESET)*%
X239750000Y-40765000D02*
X223613000Y-40765000D01*
X223613000Y-40765000D02*
X223488000Y-40640000D01*
%TO.N,Net-(J2-{slash}DB1)*%
X239750000Y-53465000D02*
X223613000Y-53465000D01*
X223613000Y-53465000D02*
X223488000Y-53340000D01*
%TO.N,Net-(J2-{slash}DB7)*%
X239750000Y-61085000D02*
X223613000Y-61085000D01*
X223613000Y-61085000D02*
X223488000Y-60960000D01*
%TO.N,Net-(J2-{slash}BOUT)*%
X239750000Y-73785000D02*
X223613000Y-73785000D01*
X223613000Y-73785000D02*
X223488000Y-73660000D01*
%TO.N,Net-(J2-{slash}BIN)*%
X239750000Y-71245000D02*
X223613000Y-71245000D01*
X223613000Y-71245000D02*
X223488000Y-71120000D01*
%TO.N,Net-(J2-{slash}IOWR)*%
X239750000Y-68705000D02*
X223613000Y-68705000D01*
X223613000Y-68705000D02*
X223488000Y-68580000D01*
%TO.N,Net-(J2-{slash}IORD)*%
X239750000Y-66165000D02*
X223613000Y-66165000D01*
X223613000Y-66165000D02*
X223488000Y-66040000D01*
%TO.N,Net-(J2-{slash}HLDAK)*%
X239750000Y-63625000D02*
X223613000Y-63625000D01*
X223613000Y-63625000D02*
X223488000Y-63500000D01*
%TO.N,Net-(J2-{slash}A13)*%
X239750000Y-94105000D02*
X223629000Y-94105000D01*
X223629000Y-94105000D02*
X223504000Y-93980000D01*
%TO.N,Net-(J2-{slash}A11)*%
X239750000Y-91565000D02*
X223629000Y-91565000D01*
X223629000Y-91565000D02*
X223504000Y-91440000D01*
%TO.N,Net-(J2-{slash}A9)*%
X239750000Y-89025000D02*
X223629000Y-89025000D01*
X223629000Y-89025000D02*
X223504000Y-88900000D01*
%TO.N,Net-(J2-{slash}A7)*%
X239750000Y-86485000D02*
X223629000Y-86485000D01*
X223629000Y-86485000D02*
X223504000Y-86360000D01*
%TO.N,Net-(J2-{slash}A5)*%
X239750000Y-83945000D02*
X223629000Y-83945000D01*
X223629000Y-83945000D02*
X223504000Y-83820000D01*
%TO.N,Net-(J2-{slash}A3)*%
X239750000Y-81405000D02*
X223629000Y-81405000D01*
X223629000Y-81405000D02*
X223504000Y-81280000D01*
%TO.N,Net-(J2-{slash}A1)*%
X239750000Y-78865000D02*
X223629000Y-78865000D01*
X223629000Y-78865000D02*
X223504000Y-78740000D01*
%TO.N,Net-(J2-{slash}REF)*%
X239750000Y-99185000D02*
X223645000Y-99185000D01*
X223645000Y-99185000D02*
X223520000Y-99060000D01*
%TO.N,Net-(J2-{slash}A15)*%
X239750000Y-96645000D02*
X223645000Y-96645000D01*
X223645000Y-96645000D02*
X223520000Y-96520000D01*
%TO.N,Net-(J2-{slash}INTERRUPT4)*%
X239750000Y-114425000D02*
X223613000Y-114425000D01*
X223613000Y-114425000D02*
X223488000Y-114300000D01*
%TO.N,Net-(J2-{slash}EOF)*%
X239750000Y-111885000D02*
X223613000Y-111885000D01*
X223613000Y-111885000D02*
X223488000Y-111760000D01*
%TO.N,Net-(J2-{slash}IO40)*%
X239750000Y-109345000D02*
X223613000Y-109345000D01*
X223613000Y-109345000D02*
X223488000Y-109220000D01*
%TO.N,Net-(J2-{slash}IO30)*%
X239750000Y-106805000D02*
X223613000Y-106805000D01*
X223613000Y-106805000D02*
X223488000Y-106680000D01*
%TO.N,Net-(J2-{slash}IO20)*%
X239750000Y-104265000D02*
X223613000Y-104265000D01*
X223613000Y-104265000D02*
X223488000Y-104140000D01*
%TO.N,Net-(J2-{slash}DREQ3)*%
X239750000Y-127125000D02*
X223645000Y-127125000D01*
X223645000Y-127125000D02*
X223520000Y-127000000D01*
%TO.N,Net-(J2-{slash}DREQ2)*%
X239750000Y-124585000D02*
X223645000Y-124585000D01*
X223645000Y-124585000D02*
X223520000Y-124460000D01*
%TO.N,Net-(J2-{slash}DREQ1)*%
X239750000Y-122045000D02*
X223645000Y-122045000D01*
X223645000Y-122045000D02*
X223520000Y-121920000D01*
%TO.N,Net-(J2-{slash}DREQ0)*%
X239750000Y-119505000D02*
X223645000Y-119505000D01*
X223645000Y-119505000D02*
X223520000Y-119380000D01*
%TO.N,Net-(J2-{slash}INT3)*%
X239750000Y-116965000D02*
X223645000Y-116965000D01*
X223645000Y-116965000D02*
X223520000Y-116840000D01*
%TO.N,Net-(J2-PHI2)*%
X239750000Y-129665000D02*
X223645000Y-129665000D01*
X223645000Y-129665000D02*
X223520000Y-129540000D01*
%TD*%
M02*
