%TF.GenerationSoftware,KiCad,Pcbnew,9.0.6-1.fc43*%
%TF.CreationDate,2026-03-29T08:32:45+01:00*%
%TF.ProjectId,cptrep-diag-card,63707472-6570-42d6-9469-61672d636172,rev?*%
%TF.SameCoordinates,Original*%
%TF.FileFunction,Paste,Top*%
%TF.FilePolarity,Positive*%
%FSLAX46Y46*%
G04 Gerber Fmt 4.6, Leading zero omitted, Abs format (unit mm)*
G04 Created by KiCad (PCBNEW 9.0.6-1.fc43) date 2026-03-29 08:32:45*
%MOMM*%
%LPD*%
G01*
G04 APERTURE LIST*
G04 Aperture macros list*
%AMRoundRect*
0 Rectangle with rounded corners*
0 $1 Rounding radius*
0 $2 $3 $4 $5 $6 $7 $8 $9 X,Y pos of 4 corners*
0 Add a 4 corners polygon primitive as box body*
4,1,4,$2,$3,$4,$5,$6,$7,$8,$9,$2,$3,0*
0 Add four circle primitives for the rounded corners*
1,1,$1+$1,$2,$3*
1,1,$1+$1,$4,$5*
1,1,$1+$1,$6,$7*
1,1,$1+$1,$8,$9*
0 Add four rect primitives between the rounded corners*
20,1,$1+$1,$2,$3,$4,$5,0*
20,1,$1+$1,$4,$5,$6,$7,0*
20,1,$1+$1,$6,$7,$8,$9,0*
20,1,$1+$1,$8,$9,$2,$3,0*%
G04 Aperture macros list end*
%ADD10RoundRect,0.250000X-0.350000X-0.450000X0.350000X-0.450000X0.350000X0.450000X-0.350000X0.450000X0*%
%ADD11RoundRect,0.243750X0.243750X0.456250X-0.243750X0.456250X-0.243750X-0.456250X0.243750X-0.456250X0*%
%ADD12RoundRect,0.250000X-0.262500X-0.450000X0.262500X-0.450000X0.262500X0.450000X-0.262500X0.450000X0*%
%ADD13RoundRect,0.150000X0.587500X0.150000X-0.587500X0.150000X-0.587500X-0.150000X0.587500X-0.150000X0*%
%ADD14R,1.600000X0.700000*%
%ADD15R,1.400000X1.200000*%
%ADD16R,2.200000X1.200000*%
%ADD17R,1.400000X1.600000*%
%ADD18RoundRect,0.300000X-3.700000X-0.700000X3.700000X-0.700000X3.700000X0.700000X-3.700000X0.700000X0*%
%ADD19RoundRect,0.225000X-0.225000X-0.375000X0.225000X-0.375000X0.225000X0.375000X-0.225000X0.375000X0*%
G04 APERTURE END LIST*
D10*
%TO.C,R17*%
X221520000Y-53340000D03*
X223520000Y-53340000D03*
%TD*%
%TO.C,R36*%
X221520000Y-101600000D03*
X223520000Y-101600000D03*
%TD*%
D11*
%TO.C,D3*%
X151130000Y-88530000D03*
X149255000Y-88530000D03*
%TD*%
%TO.C,D2*%
X151130000Y-81280000D03*
X149255000Y-81280000D03*
%TD*%
D12*
%TO.C,R61*%
X160377500Y-111760000D03*
X162202500Y-111760000D03*
%TD*%
%TO.C,R59*%
X160377500Y-104140000D03*
X162202500Y-104140000D03*
%TD*%
D10*
%TO.C,R52*%
X221520000Y-43180000D03*
X223520000Y-43180000D03*
%TD*%
%TO.C,R13*%
X221520000Y-58420000D03*
X223520000Y-58420000D03*
%TD*%
D11*
%TO.C,D4*%
X151130000Y-96150000D03*
X149255000Y-96150000D03*
%TD*%
D12*
%TO.C,R56*%
X160377500Y-81280000D03*
X162202500Y-81280000D03*
%TD*%
D10*
%TO.C,R5*%
X221488000Y-83820000D03*
X223488000Y-83820000D03*
%TD*%
D13*
%TO.C,TR2*%
X156815000Y-89480000D03*
X156815000Y-87580000D03*
X154940000Y-88530000D03*
%TD*%
D11*
%TO.C,D7*%
X151130000Y-120650000D03*
X149255000Y-120650000D03*
%TD*%
%TO.C,D5*%
X151130000Y-104140000D03*
X149255000Y-104140000D03*
%TD*%
D10*
%TO.C,R41*%
X221488000Y-127000000D03*
X223488000Y-127000000D03*
%TD*%
D11*
%TO.C,D6*%
X151130000Y-111760000D03*
X149255000Y-111760000D03*
%TD*%
D10*
%TO.C,R32*%
X221488000Y-88900000D03*
X223488000Y-88900000D03*
%TD*%
%TO.C,R40*%
X221488000Y-124460000D03*
X223488000Y-124460000D03*
%TD*%
%TO.C,R48*%
X221520000Y-99060000D03*
X223520000Y-99060000D03*
%TD*%
D13*
%TO.C,TR4*%
X156815000Y-97100000D03*
X156815000Y-95200000D03*
X154940000Y-96150000D03*
%TD*%
D12*
%TO.C,R63*%
X160377500Y-129540000D03*
X162202500Y-129540000D03*
%TD*%
D14*
%TO.C,XS1*%
X160022000Y-69637000D03*
X160022000Y-68537000D03*
X160022000Y-67437000D03*
X160022000Y-66337000D03*
X160022000Y-65237000D03*
D15*
X159522000Y-59687000D03*
D16*
X149922000Y-59687000D03*
D14*
X160022000Y-64137000D03*
D17*
X159522000Y-74287000D03*
D16*
X149922000Y-75187000D03*
D14*
X160022000Y-63037000D03*
X160022000Y-61937000D03*
X160022000Y-60837000D03*
%TD*%
D12*
%TO.C,R62*%
X160377500Y-120650000D03*
X162202500Y-120650000D03*
%TD*%
D10*
%TO.C,R3*%
X221488000Y-86360000D03*
X223488000Y-86360000D03*
%TD*%
%TO.C,R38*%
X221488000Y-119380000D03*
X223488000Y-119380000D03*
%TD*%
D12*
%TO.C,R58*%
X160377500Y-96150000D03*
X162202500Y-96150000D03*
%TD*%
D13*
%TO.C,TR5*%
X156815000Y-105090000D03*
X156815000Y-103190000D03*
X154940000Y-104140000D03*
%TD*%
%TO.C,TR1*%
X156815000Y-82230000D03*
X156815000Y-80330000D03*
X154940000Y-81280000D03*
%TD*%
D10*
%TO.C,R15*%
X221520000Y-55880000D03*
X223520000Y-55880000D03*
%TD*%
%TO.C,R2*%
X221488000Y-93980000D03*
X223488000Y-93980000D03*
%TD*%
%TO.C,R25*%
X221520000Y-60960000D03*
X223520000Y-60960000D03*
%TD*%
D12*
%TO.C,R60*%
X160377500Y-138430000D03*
X162202500Y-138430000D03*
%TD*%
D18*
%TO.C,J2*%
X239750000Y-28065000D03*
X239750000Y-30605000D03*
X239750000Y-33145000D03*
X239750000Y-35685000D03*
X239750000Y-38225000D03*
X239750000Y-40765000D03*
X239750000Y-43305000D03*
X239750000Y-45845000D03*
X239750000Y-48385000D03*
X239750000Y-50925000D03*
X239750000Y-53465000D03*
X239750000Y-56005000D03*
X239750000Y-58545000D03*
X239750000Y-61085000D03*
X239750000Y-63625000D03*
X239750000Y-66165000D03*
X239750000Y-68705000D03*
X239750000Y-71245000D03*
X239750000Y-73785000D03*
X239750000Y-76325000D03*
X239750000Y-78865000D03*
X239750000Y-81405000D03*
X239750000Y-83945000D03*
X239750000Y-86485000D03*
X239750000Y-89025000D03*
X239750000Y-91565000D03*
X239750000Y-94105000D03*
X239750000Y-96645000D03*
X239750000Y-99185000D03*
X239750000Y-101725000D03*
X239750000Y-104265000D03*
X239750000Y-106805000D03*
X239750000Y-109345000D03*
X239750000Y-111885000D03*
X239750000Y-114425000D03*
X239750000Y-116965000D03*
X239750000Y-119505000D03*
X239750000Y-122045000D03*
X239750000Y-124585000D03*
X239750000Y-127125000D03*
X239750000Y-129665000D03*
X239750000Y-132205000D03*
X239750000Y-134745000D03*
X239750000Y-137285000D03*
X239750000Y-139825000D03*
X239750000Y-142365000D03*
X239750000Y-144905000D03*
X239750000Y-147445000D03*
X239750000Y-149985000D03*
X239750000Y-152525000D03*
%TD*%
D10*
%TO.C,R28*%
X221520000Y-50800000D03*
X223520000Y-50800000D03*
%TD*%
D13*
%TO.C,TR7*%
X156815000Y-121600000D03*
X156815000Y-119700000D03*
X154940000Y-120650000D03*
%TD*%
D10*
%TO.C,R20*%
X221520000Y-63500000D03*
X223520000Y-63500000D03*
%TD*%
D11*
%TO.C,D8*%
X151130000Y-129540000D03*
X149255000Y-129540000D03*
%TD*%
D10*
%TO.C,R30*%
X221488000Y-91440000D03*
X223488000Y-91440000D03*
%TD*%
D13*
%TO.C,TR8*%
X156815000Y-130490000D03*
X156815000Y-128590000D03*
X154940000Y-129540000D03*
%TD*%
D10*
%TO.C,R37*%
X221488000Y-116840000D03*
X223488000Y-116840000D03*
%TD*%
D13*
%TO.C,TR3*%
X156815000Y-139380000D03*
X156815000Y-137480000D03*
X154940000Y-138430000D03*
%TD*%
D12*
%TO.C,R57*%
X160377500Y-88530000D03*
X162202500Y-88530000D03*
%TD*%
D10*
%TO.C,R19*%
X221520000Y-66040000D03*
X223520000Y-66040000D03*
%TD*%
D11*
%TO.C,D17*%
X151130000Y-138430000D03*
X149255000Y-138430000D03*
%TD*%
D19*
%TO.C,D1*%
X151258000Y-56261000D03*
X154558000Y-56261000D03*
%TD*%
D10*
%TO.C,R7*%
X221488000Y-81280000D03*
X223488000Y-81280000D03*
%TD*%
%TO.C,R11*%
X221520000Y-76200000D03*
X223520000Y-76200000D03*
%TD*%
%TO.C,R50*%
X221520000Y-96520000D03*
X223520000Y-96520000D03*
%TD*%
%TO.C,R39*%
X221488000Y-121920000D03*
X223488000Y-121920000D03*
%TD*%
D13*
%TO.C,TR6*%
X156815000Y-112710000D03*
X156815000Y-110810000D03*
X154940000Y-111760000D03*
%TD*%
D10*
%TO.C,R9*%
X221488000Y-78740000D03*
X223488000Y-78740000D03*
%TD*%
M02*
