%TF.GenerationSoftware,KiCad,Pcbnew,9.0.6-1.fc43*%
%TF.CreationDate,2026-03-29T06:33:44+01:00*%
%TF.ProjectId,cptrep-diag-card,63707472-6570-42d6-9469-61672d636172,rev?*%
%TF.SameCoordinates,Original*%
%TF.FileFunction,Legend,Bot*%
%TF.FilePolarity,Positive*%
%FSLAX46Y46*%
G04 Gerber Fmt 4.6, Leading zero omitted, Abs format (unit mm)*
G04 Created by KiCad (PCBNEW 9.0.6-1.fc43) date 2026-03-29 06:33:44*
%MOMM*%
%LPD*%
G01*
G04 APERTURE LIST*
%ADD10C,0.150000*%
%ADD11C,0.120000*%
G04 APERTURE END LIST*
D10*
X223162857Y-121484819D02*
X223496190Y-121008628D01*
X223734285Y-121484819D02*
X223734285Y-120484819D01*
X223734285Y-120484819D02*
X223353333Y-120484819D01*
X223353333Y-120484819D02*
X223258095Y-120532438D01*
X223258095Y-120532438D02*
X223210476Y-120580057D01*
X223210476Y-120580057D02*
X223162857Y-120675295D01*
X223162857Y-120675295D02*
X223162857Y-120818152D01*
X223162857Y-120818152D02*
X223210476Y-120913390D01*
X223210476Y-120913390D02*
X223258095Y-120961009D01*
X223258095Y-120961009D02*
X223353333Y-121008628D01*
X223353333Y-121008628D02*
X223734285Y-121008628D01*
X222305714Y-120818152D02*
X222305714Y-121484819D01*
X222543809Y-120437200D02*
X222781904Y-121151485D01*
X222781904Y-121151485D02*
X222162857Y-121151485D01*
X221305714Y-120484819D02*
X221781904Y-120484819D01*
X221781904Y-120484819D02*
X221829523Y-120961009D01*
X221829523Y-120961009D02*
X221781904Y-120913390D01*
X221781904Y-120913390D02*
X221686666Y-120865771D01*
X221686666Y-120865771D02*
X221448571Y-120865771D01*
X221448571Y-120865771D02*
X221353333Y-120913390D01*
X221353333Y-120913390D02*
X221305714Y-120961009D01*
X221305714Y-120961009D02*
X221258095Y-121056247D01*
X221258095Y-121056247D02*
X221258095Y-121294342D01*
X221258095Y-121294342D02*
X221305714Y-121389580D01*
X221305714Y-121389580D02*
X221353333Y-121437200D01*
X221353333Y-121437200D02*
X221448571Y-121484819D01*
X221448571Y-121484819D02*
X221686666Y-121484819D01*
X221686666Y-121484819D02*
X221781904Y-121437200D01*
X221781904Y-121437200D02*
X221829523Y-121389580D01*
X223162857Y-118944819D02*
X223496190Y-118468628D01*
X223734285Y-118944819D02*
X223734285Y-117944819D01*
X223734285Y-117944819D02*
X223353333Y-117944819D01*
X223353333Y-117944819D02*
X223258095Y-117992438D01*
X223258095Y-117992438D02*
X223210476Y-118040057D01*
X223210476Y-118040057D02*
X223162857Y-118135295D01*
X223162857Y-118135295D02*
X223162857Y-118278152D01*
X223162857Y-118278152D02*
X223210476Y-118373390D01*
X223210476Y-118373390D02*
X223258095Y-118421009D01*
X223258095Y-118421009D02*
X223353333Y-118468628D01*
X223353333Y-118468628D02*
X223734285Y-118468628D01*
X222305714Y-118278152D02*
X222305714Y-118944819D01*
X222543809Y-117897200D02*
X222781904Y-118611485D01*
X222781904Y-118611485D02*
X222162857Y-118611485D01*
X221353333Y-117944819D02*
X221543809Y-117944819D01*
X221543809Y-117944819D02*
X221639047Y-117992438D01*
X221639047Y-117992438D02*
X221686666Y-118040057D01*
X221686666Y-118040057D02*
X221781904Y-118182914D01*
X221781904Y-118182914D02*
X221829523Y-118373390D01*
X221829523Y-118373390D02*
X221829523Y-118754342D01*
X221829523Y-118754342D02*
X221781904Y-118849580D01*
X221781904Y-118849580D02*
X221734285Y-118897200D01*
X221734285Y-118897200D02*
X221639047Y-118944819D01*
X221639047Y-118944819D02*
X221448571Y-118944819D01*
X221448571Y-118944819D02*
X221353333Y-118897200D01*
X221353333Y-118897200D02*
X221305714Y-118849580D01*
X221305714Y-118849580D02*
X221258095Y-118754342D01*
X221258095Y-118754342D02*
X221258095Y-118516247D01*
X221258095Y-118516247D02*
X221305714Y-118421009D01*
X221305714Y-118421009D02*
X221353333Y-118373390D01*
X221353333Y-118373390D02*
X221448571Y-118325771D01*
X221448571Y-118325771D02*
X221639047Y-118325771D01*
X221639047Y-118325771D02*
X221734285Y-118373390D01*
X221734285Y-118373390D02*
X221781904Y-118421009D01*
X221781904Y-118421009D02*
X221829523Y-118516247D01*
X223162857Y-126564819D02*
X223496190Y-126088628D01*
X223734285Y-126564819D02*
X223734285Y-125564819D01*
X223734285Y-125564819D02*
X223353333Y-125564819D01*
X223353333Y-125564819D02*
X223258095Y-125612438D01*
X223258095Y-125612438D02*
X223210476Y-125660057D01*
X223210476Y-125660057D02*
X223162857Y-125755295D01*
X223162857Y-125755295D02*
X223162857Y-125898152D01*
X223162857Y-125898152D02*
X223210476Y-125993390D01*
X223210476Y-125993390D02*
X223258095Y-126041009D01*
X223258095Y-126041009D02*
X223353333Y-126088628D01*
X223353333Y-126088628D02*
X223734285Y-126088628D01*
X222305714Y-125898152D02*
X222305714Y-126564819D01*
X222543809Y-125517200D02*
X222781904Y-126231485D01*
X222781904Y-126231485D02*
X222162857Y-126231485D01*
X221877142Y-125564819D02*
X221258095Y-125564819D01*
X221258095Y-125564819D02*
X221591428Y-125945771D01*
X221591428Y-125945771D02*
X221448571Y-125945771D01*
X221448571Y-125945771D02*
X221353333Y-125993390D01*
X221353333Y-125993390D02*
X221305714Y-126041009D01*
X221305714Y-126041009D02*
X221258095Y-126136247D01*
X221258095Y-126136247D02*
X221258095Y-126374342D01*
X221258095Y-126374342D02*
X221305714Y-126469580D01*
X221305714Y-126469580D02*
X221353333Y-126517200D01*
X221353333Y-126517200D02*
X221448571Y-126564819D01*
X221448571Y-126564819D02*
X221734285Y-126564819D01*
X221734285Y-126564819D02*
X221829523Y-126517200D01*
X221829523Y-126517200D02*
X221877142Y-126469580D01*
X223162857Y-124024819D02*
X223496190Y-123548628D01*
X223734285Y-124024819D02*
X223734285Y-123024819D01*
X223734285Y-123024819D02*
X223353333Y-123024819D01*
X223353333Y-123024819D02*
X223258095Y-123072438D01*
X223258095Y-123072438D02*
X223210476Y-123120057D01*
X223210476Y-123120057D02*
X223162857Y-123215295D01*
X223162857Y-123215295D02*
X223162857Y-123358152D01*
X223162857Y-123358152D02*
X223210476Y-123453390D01*
X223210476Y-123453390D02*
X223258095Y-123501009D01*
X223258095Y-123501009D02*
X223353333Y-123548628D01*
X223353333Y-123548628D02*
X223734285Y-123548628D01*
X222305714Y-123358152D02*
X222305714Y-124024819D01*
X222543809Y-122977200D02*
X222781904Y-123691485D01*
X222781904Y-123691485D02*
X222162857Y-123691485D01*
X221353333Y-123358152D02*
X221353333Y-124024819D01*
X221591428Y-122977200D02*
X221829523Y-123691485D01*
X221829523Y-123691485D02*
X221210476Y-123691485D01*
X223162857Y-129104819D02*
X223496190Y-128628628D01*
X223734285Y-129104819D02*
X223734285Y-128104819D01*
X223734285Y-128104819D02*
X223353333Y-128104819D01*
X223353333Y-128104819D02*
X223258095Y-128152438D01*
X223258095Y-128152438D02*
X223210476Y-128200057D01*
X223210476Y-128200057D02*
X223162857Y-128295295D01*
X223162857Y-128295295D02*
X223162857Y-128438152D01*
X223162857Y-128438152D02*
X223210476Y-128533390D01*
X223210476Y-128533390D02*
X223258095Y-128581009D01*
X223258095Y-128581009D02*
X223353333Y-128628628D01*
X223353333Y-128628628D02*
X223734285Y-128628628D01*
X222305714Y-128438152D02*
X222305714Y-129104819D01*
X222543809Y-128057200D02*
X222781904Y-128771485D01*
X222781904Y-128771485D02*
X222162857Y-128771485D01*
X221829523Y-128200057D02*
X221781904Y-128152438D01*
X221781904Y-128152438D02*
X221686666Y-128104819D01*
X221686666Y-128104819D02*
X221448571Y-128104819D01*
X221448571Y-128104819D02*
X221353333Y-128152438D01*
X221353333Y-128152438D02*
X221305714Y-128200057D01*
X221305714Y-128200057D02*
X221258095Y-128295295D01*
X221258095Y-128295295D02*
X221258095Y-128390533D01*
X221258095Y-128390533D02*
X221305714Y-128533390D01*
X221305714Y-128533390D02*
X221877142Y-129104819D01*
X221877142Y-129104819D02*
X221258095Y-129104819D01*
X223162857Y-115644819D02*
X223496190Y-115168628D01*
X223734285Y-115644819D02*
X223734285Y-114644819D01*
X223734285Y-114644819D02*
X223353333Y-114644819D01*
X223353333Y-114644819D02*
X223258095Y-114692438D01*
X223258095Y-114692438D02*
X223210476Y-114740057D01*
X223210476Y-114740057D02*
X223162857Y-114835295D01*
X223162857Y-114835295D02*
X223162857Y-114978152D01*
X223162857Y-114978152D02*
X223210476Y-115073390D01*
X223210476Y-115073390D02*
X223258095Y-115121009D01*
X223258095Y-115121009D02*
X223353333Y-115168628D01*
X223353333Y-115168628D02*
X223734285Y-115168628D01*
X222829523Y-114644819D02*
X222210476Y-114644819D01*
X222210476Y-114644819D02*
X222543809Y-115025771D01*
X222543809Y-115025771D02*
X222400952Y-115025771D01*
X222400952Y-115025771D02*
X222305714Y-115073390D01*
X222305714Y-115073390D02*
X222258095Y-115121009D01*
X222258095Y-115121009D02*
X222210476Y-115216247D01*
X222210476Y-115216247D02*
X222210476Y-115454342D01*
X222210476Y-115454342D02*
X222258095Y-115549580D01*
X222258095Y-115549580D02*
X222305714Y-115597200D01*
X222305714Y-115597200D02*
X222400952Y-115644819D01*
X222400952Y-115644819D02*
X222686666Y-115644819D01*
X222686666Y-115644819D02*
X222781904Y-115597200D01*
X222781904Y-115597200D02*
X222829523Y-115549580D01*
X221877142Y-114644819D02*
X221210476Y-114644819D01*
X221210476Y-114644819D02*
X221639047Y-115644819D01*
X218624819Y-133961142D02*
X218148628Y-133627809D01*
X218624819Y-133389714D02*
X217624819Y-133389714D01*
X217624819Y-133389714D02*
X217624819Y-133770666D01*
X217624819Y-133770666D02*
X217672438Y-133865904D01*
X217672438Y-133865904D02*
X217720057Y-133913523D01*
X217720057Y-133913523D02*
X217815295Y-133961142D01*
X217815295Y-133961142D02*
X217958152Y-133961142D01*
X217958152Y-133961142D02*
X218053390Y-133913523D01*
X218053390Y-133913523D02*
X218101009Y-133865904D01*
X218101009Y-133865904D02*
X218148628Y-133770666D01*
X218148628Y-133770666D02*
X218148628Y-133389714D01*
X217624819Y-134294476D02*
X217624819Y-134913523D01*
X217624819Y-134913523D02*
X218005771Y-134580190D01*
X218005771Y-134580190D02*
X218005771Y-134723047D01*
X218005771Y-134723047D02*
X218053390Y-134818285D01*
X218053390Y-134818285D02*
X218101009Y-134865904D01*
X218101009Y-134865904D02*
X218196247Y-134913523D01*
X218196247Y-134913523D02*
X218434342Y-134913523D01*
X218434342Y-134913523D02*
X218529580Y-134865904D01*
X218529580Y-134865904D02*
X218577200Y-134818285D01*
X218577200Y-134818285D02*
X218624819Y-134723047D01*
X218624819Y-134723047D02*
X218624819Y-134437333D01*
X218624819Y-134437333D02*
X218577200Y-134342095D01*
X218577200Y-134342095D02*
X218529580Y-134294476D01*
X217958152Y-135770666D02*
X218624819Y-135770666D01*
X217577200Y-135532571D02*
X218291485Y-135294476D01*
X218291485Y-135294476D02*
X218291485Y-135913523D01*
X223130857Y-65604819D02*
X223464190Y-65128628D01*
X223702285Y-65604819D02*
X223702285Y-64604819D01*
X223702285Y-64604819D02*
X223321333Y-64604819D01*
X223321333Y-64604819D02*
X223226095Y-64652438D01*
X223226095Y-64652438D02*
X223178476Y-64700057D01*
X223178476Y-64700057D02*
X223130857Y-64795295D01*
X223130857Y-64795295D02*
X223130857Y-64938152D01*
X223130857Y-64938152D02*
X223178476Y-65033390D01*
X223178476Y-65033390D02*
X223226095Y-65081009D01*
X223226095Y-65081009D02*
X223321333Y-65128628D01*
X223321333Y-65128628D02*
X223702285Y-65128628D01*
X222226095Y-64604819D02*
X222702285Y-64604819D01*
X222702285Y-64604819D02*
X222749904Y-65081009D01*
X222749904Y-65081009D02*
X222702285Y-65033390D01*
X222702285Y-65033390D02*
X222607047Y-64985771D01*
X222607047Y-64985771D02*
X222368952Y-64985771D01*
X222368952Y-64985771D02*
X222273714Y-65033390D01*
X222273714Y-65033390D02*
X222226095Y-65081009D01*
X222226095Y-65081009D02*
X222178476Y-65176247D01*
X222178476Y-65176247D02*
X222178476Y-65414342D01*
X222178476Y-65414342D02*
X222226095Y-65509580D01*
X222226095Y-65509580D02*
X222273714Y-65557200D01*
X222273714Y-65557200D02*
X222368952Y-65604819D01*
X222368952Y-65604819D02*
X222607047Y-65604819D01*
X222607047Y-65604819D02*
X222702285Y-65557200D01*
X222702285Y-65557200D02*
X222749904Y-65509580D01*
X221273714Y-64604819D02*
X221749904Y-64604819D01*
X221749904Y-64604819D02*
X221797523Y-65081009D01*
X221797523Y-65081009D02*
X221749904Y-65033390D01*
X221749904Y-65033390D02*
X221654666Y-64985771D01*
X221654666Y-64985771D02*
X221416571Y-64985771D01*
X221416571Y-64985771D02*
X221321333Y-65033390D01*
X221321333Y-65033390D02*
X221273714Y-65081009D01*
X221273714Y-65081009D02*
X221226095Y-65176247D01*
X221226095Y-65176247D02*
X221226095Y-65414342D01*
X221226095Y-65414342D02*
X221273714Y-65509580D01*
X221273714Y-65509580D02*
X221321333Y-65557200D01*
X221321333Y-65557200D02*
X221416571Y-65604819D01*
X221416571Y-65604819D02*
X221654666Y-65604819D01*
X221654666Y-65604819D02*
X221749904Y-65557200D01*
X221749904Y-65557200D02*
X221797523Y-65509580D01*
X223162857Y-101164819D02*
X223496190Y-100688628D01*
X223734285Y-101164819D02*
X223734285Y-100164819D01*
X223734285Y-100164819D02*
X223353333Y-100164819D01*
X223353333Y-100164819D02*
X223258095Y-100212438D01*
X223258095Y-100212438D02*
X223210476Y-100260057D01*
X223210476Y-100260057D02*
X223162857Y-100355295D01*
X223162857Y-100355295D02*
X223162857Y-100498152D01*
X223162857Y-100498152D02*
X223210476Y-100593390D01*
X223210476Y-100593390D02*
X223258095Y-100641009D01*
X223258095Y-100641009D02*
X223353333Y-100688628D01*
X223353333Y-100688628D02*
X223734285Y-100688628D01*
X222258095Y-100164819D02*
X222734285Y-100164819D01*
X222734285Y-100164819D02*
X222781904Y-100641009D01*
X222781904Y-100641009D02*
X222734285Y-100593390D01*
X222734285Y-100593390D02*
X222639047Y-100545771D01*
X222639047Y-100545771D02*
X222400952Y-100545771D01*
X222400952Y-100545771D02*
X222305714Y-100593390D01*
X222305714Y-100593390D02*
X222258095Y-100641009D01*
X222258095Y-100641009D02*
X222210476Y-100736247D01*
X222210476Y-100736247D02*
X222210476Y-100974342D01*
X222210476Y-100974342D02*
X222258095Y-101069580D01*
X222258095Y-101069580D02*
X222305714Y-101117200D01*
X222305714Y-101117200D02*
X222400952Y-101164819D01*
X222400952Y-101164819D02*
X222639047Y-101164819D01*
X222639047Y-101164819D02*
X222734285Y-101117200D01*
X222734285Y-101117200D02*
X222781904Y-101069580D01*
X221353333Y-100498152D02*
X221353333Y-101164819D01*
X221591428Y-100117200D02*
X221829523Y-100831485D01*
X221829523Y-100831485D02*
X221210476Y-100831485D01*
X223130857Y-45284819D02*
X223464190Y-44808628D01*
X223702285Y-45284819D02*
X223702285Y-44284819D01*
X223702285Y-44284819D02*
X223321333Y-44284819D01*
X223321333Y-44284819D02*
X223226095Y-44332438D01*
X223226095Y-44332438D02*
X223178476Y-44380057D01*
X223178476Y-44380057D02*
X223130857Y-44475295D01*
X223130857Y-44475295D02*
X223130857Y-44618152D01*
X223130857Y-44618152D02*
X223178476Y-44713390D01*
X223178476Y-44713390D02*
X223226095Y-44761009D01*
X223226095Y-44761009D02*
X223321333Y-44808628D01*
X223321333Y-44808628D02*
X223702285Y-44808628D01*
X222226095Y-44284819D02*
X222702285Y-44284819D01*
X222702285Y-44284819D02*
X222749904Y-44761009D01*
X222749904Y-44761009D02*
X222702285Y-44713390D01*
X222702285Y-44713390D02*
X222607047Y-44665771D01*
X222607047Y-44665771D02*
X222368952Y-44665771D01*
X222368952Y-44665771D02*
X222273714Y-44713390D01*
X222273714Y-44713390D02*
X222226095Y-44761009D01*
X222226095Y-44761009D02*
X222178476Y-44856247D01*
X222178476Y-44856247D02*
X222178476Y-45094342D01*
X222178476Y-45094342D02*
X222226095Y-45189580D01*
X222226095Y-45189580D02*
X222273714Y-45237200D01*
X222273714Y-45237200D02*
X222368952Y-45284819D01*
X222368952Y-45284819D02*
X222607047Y-45284819D01*
X222607047Y-45284819D02*
X222702285Y-45237200D01*
X222702285Y-45237200D02*
X222749904Y-45189580D01*
X221845142Y-44284819D02*
X221226095Y-44284819D01*
X221226095Y-44284819D02*
X221559428Y-44665771D01*
X221559428Y-44665771D02*
X221416571Y-44665771D01*
X221416571Y-44665771D02*
X221321333Y-44713390D01*
X221321333Y-44713390D02*
X221273714Y-44761009D01*
X221273714Y-44761009D02*
X221226095Y-44856247D01*
X221226095Y-44856247D02*
X221226095Y-45094342D01*
X221226095Y-45094342D02*
X221273714Y-45189580D01*
X221273714Y-45189580D02*
X221321333Y-45237200D01*
X221321333Y-45237200D02*
X221416571Y-45284819D01*
X221416571Y-45284819D02*
X221702285Y-45284819D01*
X221702285Y-45284819D02*
X221797523Y-45237200D01*
X221797523Y-45237200D02*
X221845142Y-45189580D01*
X223130857Y-41984819D02*
X223464190Y-41508628D01*
X223702285Y-41984819D02*
X223702285Y-40984819D01*
X223702285Y-40984819D02*
X223321333Y-40984819D01*
X223321333Y-40984819D02*
X223226095Y-41032438D01*
X223226095Y-41032438D02*
X223178476Y-41080057D01*
X223178476Y-41080057D02*
X223130857Y-41175295D01*
X223130857Y-41175295D02*
X223130857Y-41318152D01*
X223130857Y-41318152D02*
X223178476Y-41413390D01*
X223178476Y-41413390D02*
X223226095Y-41461009D01*
X223226095Y-41461009D02*
X223321333Y-41508628D01*
X223321333Y-41508628D02*
X223702285Y-41508628D01*
X222226095Y-40984819D02*
X222702285Y-40984819D01*
X222702285Y-40984819D02*
X222749904Y-41461009D01*
X222749904Y-41461009D02*
X222702285Y-41413390D01*
X222702285Y-41413390D02*
X222607047Y-41365771D01*
X222607047Y-41365771D02*
X222368952Y-41365771D01*
X222368952Y-41365771D02*
X222273714Y-41413390D01*
X222273714Y-41413390D02*
X222226095Y-41461009D01*
X222226095Y-41461009D02*
X222178476Y-41556247D01*
X222178476Y-41556247D02*
X222178476Y-41794342D01*
X222178476Y-41794342D02*
X222226095Y-41889580D01*
X222226095Y-41889580D02*
X222273714Y-41937200D01*
X222273714Y-41937200D02*
X222368952Y-41984819D01*
X222368952Y-41984819D02*
X222607047Y-41984819D01*
X222607047Y-41984819D02*
X222702285Y-41937200D01*
X222702285Y-41937200D02*
X222749904Y-41889580D01*
X221797523Y-41080057D02*
X221749904Y-41032438D01*
X221749904Y-41032438D02*
X221654666Y-40984819D01*
X221654666Y-40984819D02*
X221416571Y-40984819D01*
X221416571Y-40984819D02*
X221321333Y-41032438D01*
X221321333Y-41032438D02*
X221273714Y-41080057D01*
X221273714Y-41080057D02*
X221226095Y-41175295D01*
X221226095Y-41175295D02*
X221226095Y-41270533D01*
X221226095Y-41270533D02*
X221273714Y-41413390D01*
X221273714Y-41413390D02*
X221845142Y-41984819D01*
X221845142Y-41984819D02*
X221226095Y-41984819D01*
X223130857Y-42744819D02*
X223464190Y-42268628D01*
X223702285Y-42744819D02*
X223702285Y-41744819D01*
X223702285Y-41744819D02*
X223321333Y-41744819D01*
X223321333Y-41744819D02*
X223226095Y-41792438D01*
X223226095Y-41792438D02*
X223178476Y-41840057D01*
X223178476Y-41840057D02*
X223130857Y-41935295D01*
X223130857Y-41935295D02*
X223130857Y-42078152D01*
X223130857Y-42078152D02*
X223178476Y-42173390D01*
X223178476Y-42173390D02*
X223226095Y-42221009D01*
X223226095Y-42221009D02*
X223321333Y-42268628D01*
X223321333Y-42268628D02*
X223702285Y-42268628D01*
X222226095Y-41744819D02*
X222702285Y-41744819D01*
X222702285Y-41744819D02*
X222749904Y-42221009D01*
X222749904Y-42221009D02*
X222702285Y-42173390D01*
X222702285Y-42173390D02*
X222607047Y-42125771D01*
X222607047Y-42125771D02*
X222368952Y-42125771D01*
X222368952Y-42125771D02*
X222273714Y-42173390D01*
X222273714Y-42173390D02*
X222226095Y-42221009D01*
X222226095Y-42221009D02*
X222178476Y-42316247D01*
X222178476Y-42316247D02*
X222178476Y-42554342D01*
X222178476Y-42554342D02*
X222226095Y-42649580D01*
X222226095Y-42649580D02*
X222273714Y-42697200D01*
X222273714Y-42697200D02*
X222368952Y-42744819D01*
X222368952Y-42744819D02*
X222607047Y-42744819D01*
X222607047Y-42744819D02*
X222702285Y-42697200D01*
X222702285Y-42697200D02*
X222749904Y-42649580D01*
X221226095Y-42744819D02*
X221797523Y-42744819D01*
X221511809Y-42744819D02*
X221511809Y-41744819D01*
X221511809Y-41744819D02*
X221607047Y-41887676D01*
X221607047Y-41887676D02*
X221702285Y-41982914D01*
X221702285Y-41982914D02*
X221797523Y-42030533D01*
X223146857Y-95324819D02*
X223480190Y-94848628D01*
X223718285Y-95324819D02*
X223718285Y-94324819D01*
X223718285Y-94324819D02*
X223337333Y-94324819D01*
X223337333Y-94324819D02*
X223242095Y-94372438D01*
X223242095Y-94372438D02*
X223194476Y-94420057D01*
X223194476Y-94420057D02*
X223146857Y-94515295D01*
X223146857Y-94515295D02*
X223146857Y-94658152D01*
X223146857Y-94658152D02*
X223194476Y-94753390D01*
X223194476Y-94753390D02*
X223242095Y-94801009D01*
X223242095Y-94801009D02*
X223337333Y-94848628D01*
X223337333Y-94848628D02*
X223718285Y-94848628D01*
X222242095Y-94324819D02*
X222718285Y-94324819D01*
X222718285Y-94324819D02*
X222765904Y-94801009D01*
X222765904Y-94801009D02*
X222718285Y-94753390D01*
X222718285Y-94753390D02*
X222623047Y-94705771D01*
X222623047Y-94705771D02*
X222384952Y-94705771D01*
X222384952Y-94705771D02*
X222289714Y-94753390D01*
X222289714Y-94753390D02*
X222242095Y-94801009D01*
X222242095Y-94801009D02*
X222194476Y-94896247D01*
X222194476Y-94896247D02*
X222194476Y-95134342D01*
X222194476Y-95134342D02*
X222242095Y-95229580D01*
X222242095Y-95229580D02*
X222289714Y-95277200D01*
X222289714Y-95277200D02*
X222384952Y-95324819D01*
X222384952Y-95324819D02*
X222623047Y-95324819D01*
X222623047Y-95324819D02*
X222718285Y-95277200D01*
X222718285Y-95277200D02*
X222765904Y-95229580D01*
X221575428Y-94324819D02*
X221480190Y-94324819D01*
X221480190Y-94324819D02*
X221384952Y-94372438D01*
X221384952Y-94372438D02*
X221337333Y-94420057D01*
X221337333Y-94420057D02*
X221289714Y-94515295D01*
X221289714Y-94515295D02*
X221242095Y-94705771D01*
X221242095Y-94705771D02*
X221242095Y-94943866D01*
X221242095Y-94943866D02*
X221289714Y-95134342D01*
X221289714Y-95134342D02*
X221337333Y-95229580D01*
X221337333Y-95229580D02*
X221384952Y-95277200D01*
X221384952Y-95277200D02*
X221480190Y-95324819D01*
X221480190Y-95324819D02*
X221575428Y-95324819D01*
X221575428Y-95324819D02*
X221670666Y-95277200D01*
X221670666Y-95277200D02*
X221718285Y-95229580D01*
X221718285Y-95229580D02*
X221765904Y-95134342D01*
X221765904Y-95134342D02*
X221813523Y-94943866D01*
X221813523Y-94943866D02*
X221813523Y-94705771D01*
X221813523Y-94705771D02*
X221765904Y-94515295D01*
X221765904Y-94515295D02*
X221718285Y-94420057D01*
X221718285Y-94420057D02*
X221670666Y-94372438D01*
X221670666Y-94372438D02*
X221575428Y-94324819D01*
X223130857Y-113864819D02*
X223464190Y-113388628D01*
X223702285Y-113864819D02*
X223702285Y-112864819D01*
X223702285Y-112864819D02*
X223321333Y-112864819D01*
X223321333Y-112864819D02*
X223226095Y-112912438D01*
X223226095Y-112912438D02*
X223178476Y-112960057D01*
X223178476Y-112960057D02*
X223130857Y-113055295D01*
X223130857Y-113055295D02*
X223130857Y-113198152D01*
X223130857Y-113198152D02*
X223178476Y-113293390D01*
X223178476Y-113293390D02*
X223226095Y-113341009D01*
X223226095Y-113341009D02*
X223321333Y-113388628D01*
X223321333Y-113388628D02*
X223702285Y-113388628D01*
X222273714Y-113198152D02*
X222273714Y-113864819D01*
X222511809Y-112817200D02*
X222749904Y-113531485D01*
X222749904Y-113531485D02*
X222130857Y-113531485D01*
X221702285Y-113864819D02*
X221511809Y-113864819D01*
X221511809Y-113864819D02*
X221416571Y-113817200D01*
X221416571Y-113817200D02*
X221368952Y-113769580D01*
X221368952Y-113769580D02*
X221273714Y-113626723D01*
X221273714Y-113626723D02*
X221226095Y-113436247D01*
X221226095Y-113436247D02*
X221226095Y-113055295D01*
X221226095Y-113055295D02*
X221273714Y-112960057D01*
X221273714Y-112960057D02*
X221321333Y-112912438D01*
X221321333Y-112912438D02*
X221416571Y-112864819D01*
X221416571Y-112864819D02*
X221607047Y-112864819D01*
X221607047Y-112864819D02*
X221702285Y-112912438D01*
X221702285Y-112912438D02*
X221749904Y-112960057D01*
X221749904Y-112960057D02*
X221797523Y-113055295D01*
X221797523Y-113055295D02*
X221797523Y-113293390D01*
X221797523Y-113293390D02*
X221749904Y-113388628D01*
X221749904Y-113388628D02*
X221702285Y-113436247D01*
X221702285Y-113436247D02*
X221607047Y-113483866D01*
X221607047Y-113483866D02*
X221416571Y-113483866D01*
X221416571Y-113483866D02*
X221321333Y-113436247D01*
X221321333Y-113436247D02*
X221273714Y-113388628D01*
X221273714Y-113388628D02*
X221226095Y-113293390D01*
X223130857Y-116404819D02*
X223464190Y-115928628D01*
X223702285Y-116404819D02*
X223702285Y-115404819D01*
X223702285Y-115404819D02*
X223321333Y-115404819D01*
X223321333Y-115404819D02*
X223226095Y-115452438D01*
X223226095Y-115452438D02*
X223178476Y-115500057D01*
X223178476Y-115500057D02*
X223130857Y-115595295D01*
X223130857Y-115595295D02*
X223130857Y-115738152D01*
X223130857Y-115738152D02*
X223178476Y-115833390D01*
X223178476Y-115833390D02*
X223226095Y-115881009D01*
X223226095Y-115881009D02*
X223321333Y-115928628D01*
X223321333Y-115928628D02*
X223702285Y-115928628D01*
X222273714Y-115738152D02*
X222273714Y-116404819D01*
X222511809Y-115357200D02*
X222749904Y-116071485D01*
X222749904Y-116071485D02*
X222130857Y-116071485D01*
X221845142Y-115404819D02*
X221178476Y-115404819D01*
X221178476Y-115404819D02*
X221607047Y-116404819D01*
X223130857Y-70684819D02*
X223464190Y-70208628D01*
X223702285Y-70684819D02*
X223702285Y-69684819D01*
X223702285Y-69684819D02*
X223321333Y-69684819D01*
X223321333Y-69684819D02*
X223226095Y-69732438D01*
X223226095Y-69732438D02*
X223178476Y-69780057D01*
X223178476Y-69780057D02*
X223130857Y-69875295D01*
X223130857Y-69875295D02*
X223130857Y-70018152D01*
X223130857Y-70018152D02*
X223178476Y-70113390D01*
X223178476Y-70113390D02*
X223226095Y-70161009D01*
X223226095Y-70161009D02*
X223321333Y-70208628D01*
X223321333Y-70208628D02*
X223702285Y-70208628D01*
X222797523Y-69684819D02*
X222178476Y-69684819D01*
X222178476Y-69684819D02*
X222511809Y-70065771D01*
X222511809Y-70065771D02*
X222368952Y-70065771D01*
X222368952Y-70065771D02*
X222273714Y-70113390D01*
X222273714Y-70113390D02*
X222226095Y-70161009D01*
X222226095Y-70161009D02*
X222178476Y-70256247D01*
X222178476Y-70256247D02*
X222178476Y-70494342D01*
X222178476Y-70494342D02*
X222226095Y-70589580D01*
X222226095Y-70589580D02*
X222273714Y-70637200D01*
X222273714Y-70637200D02*
X222368952Y-70684819D01*
X222368952Y-70684819D02*
X222654666Y-70684819D01*
X222654666Y-70684819D02*
X222749904Y-70637200D01*
X222749904Y-70637200D02*
X222797523Y-70589580D01*
X221273714Y-69684819D02*
X221749904Y-69684819D01*
X221749904Y-69684819D02*
X221797523Y-70161009D01*
X221797523Y-70161009D02*
X221749904Y-70113390D01*
X221749904Y-70113390D02*
X221654666Y-70065771D01*
X221654666Y-70065771D02*
X221416571Y-70065771D01*
X221416571Y-70065771D02*
X221321333Y-70113390D01*
X221321333Y-70113390D02*
X221273714Y-70161009D01*
X221273714Y-70161009D02*
X221226095Y-70256247D01*
X221226095Y-70256247D02*
X221226095Y-70494342D01*
X221226095Y-70494342D02*
X221273714Y-70589580D01*
X221273714Y-70589580D02*
X221321333Y-70637200D01*
X221321333Y-70637200D02*
X221416571Y-70684819D01*
X221416571Y-70684819D02*
X221654666Y-70684819D01*
X221654666Y-70684819D02*
X221749904Y-70637200D01*
X221749904Y-70637200D02*
X221797523Y-70589580D01*
X223146857Y-91004819D02*
X223480190Y-90528628D01*
X223718285Y-91004819D02*
X223718285Y-90004819D01*
X223718285Y-90004819D02*
X223337333Y-90004819D01*
X223337333Y-90004819D02*
X223242095Y-90052438D01*
X223242095Y-90052438D02*
X223194476Y-90100057D01*
X223194476Y-90100057D02*
X223146857Y-90195295D01*
X223146857Y-90195295D02*
X223146857Y-90338152D01*
X223146857Y-90338152D02*
X223194476Y-90433390D01*
X223194476Y-90433390D02*
X223242095Y-90481009D01*
X223242095Y-90481009D02*
X223337333Y-90528628D01*
X223337333Y-90528628D02*
X223718285Y-90528628D01*
X222813523Y-90004819D02*
X222194476Y-90004819D01*
X222194476Y-90004819D02*
X222527809Y-90385771D01*
X222527809Y-90385771D02*
X222384952Y-90385771D01*
X222384952Y-90385771D02*
X222289714Y-90433390D01*
X222289714Y-90433390D02*
X222242095Y-90481009D01*
X222242095Y-90481009D02*
X222194476Y-90576247D01*
X222194476Y-90576247D02*
X222194476Y-90814342D01*
X222194476Y-90814342D02*
X222242095Y-90909580D01*
X222242095Y-90909580D02*
X222289714Y-90957200D01*
X222289714Y-90957200D02*
X222384952Y-91004819D01*
X222384952Y-91004819D02*
X222670666Y-91004819D01*
X222670666Y-91004819D02*
X222765904Y-90957200D01*
X222765904Y-90957200D02*
X222813523Y-90909580D01*
X221861142Y-90004819D02*
X221242095Y-90004819D01*
X221242095Y-90004819D02*
X221575428Y-90385771D01*
X221575428Y-90385771D02*
X221432571Y-90385771D01*
X221432571Y-90385771D02*
X221337333Y-90433390D01*
X221337333Y-90433390D02*
X221289714Y-90481009D01*
X221289714Y-90481009D02*
X221242095Y-90576247D01*
X221242095Y-90576247D02*
X221242095Y-90814342D01*
X221242095Y-90814342D02*
X221289714Y-90909580D01*
X221289714Y-90909580D02*
X221337333Y-90957200D01*
X221337333Y-90957200D02*
X221432571Y-91004819D01*
X221432571Y-91004819D02*
X221718285Y-91004819D01*
X221718285Y-91004819D02*
X221813523Y-90957200D01*
X221813523Y-90957200D02*
X221861142Y-90909580D01*
X223146857Y-93544819D02*
X223480190Y-93068628D01*
X223718285Y-93544819D02*
X223718285Y-92544819D01*
X223718285Y-92544819D02*
X223337333Y-92544819D01*
X223337333Y-92544819D02*
X223242095Y-92592438D01*
X223242095Y-92592438D02*
X223194476Y-92640057D01*
X223194476Y-92640057D02*
X223146857Y-92735295D01*
X223146857Y-92735295D02*
X223146857Y-92878152D01*
X223146857Y-92878152D02*
X223194476Y-92973390D01*
X223194476Y-92973390D02*
X223242095Y-93021009D01*
X223242095Y-93021009D02*
X223337333Y-93068628D01*
X223337333Y-93068628D02*
X223718285Y-93068628D01*
X222813523Y-92544819D02*
X222194476Y-92544819D01*
X222194476Y-92544819D02*
X222527809Y-92925771D01*
X222527809Y-92925771D02*
X222384952Y-92925771D01*
X222384952Y-92925771D02*
X222289714Y-92973390D01*
X222289714Y-92973390D02*
X222242095Y-93021009D01*
X222242095Y-93021009D02*
X222194476Y-93116247D01*
X222194476Y-93116247D02*
X222194476Y-93354342D01*
X222194476Y-93354342D02*
X222242095Y-93449580D01*
X222242095Y-93449580D02*
X222289714Y-93497200D01*
X222289714Y-93497200D02*
X222384952Y-93544819D01*
X222384952Y-93544819D02*
X222670666Y-93544819D01*
X222670666Y-93544819D02*
X222765904Y-93497200D01*
X222765904Y-93497200D02*
X222813523Y-93449580D01*
X221242095Y-93544819D02*
X221813523Y-93544819D01*
X221527809Y-93544819D02*
X221527809Y-92544819D01*
X221527809Y-92544819D02*
X221623047Y-92687676D01*
X221623047Y-92687676D02*
X221718285Y-92782914D01*
X221718285Y-92782914D02*
X221813523Y-92830533D01*
X223146857Y-96084819D02*
X223480190Y-95608628D01*
X223718285Y-96084819D02*
X223718285Y-95084819D01*
X223718285Y-95084819D02*
X223337333Y-95084819D01*
X223337333Y-95084819D02*
X223242095Y-95132438D01*
X223242095Y-95132438D02*
X223194476Y-95180057D01*
X223194476Y-95180057D02*
X223146857Y-95275295D01*
X223146857Y-95275295D02*
X223146857Y-95418152D01*
X223146857Y-95418152D02*
X223194476Y-95513390D01*
X223194476Y-95513390D02*
X223242095Y-95561009D01*
X223242095Y-95561009D02*
X223337333Y-95608628D01*
X223337333Y-95608628D02*
X223718285Y-95608628D01*
X222765904Y-95180057D02*
X222718285Y-95132438D01*
X222718285Y-95132438D02*
X222623047Y-95084819D01*
X222623047Y-95084819D02*
X222384952Y-95084819D01*
X222384952Y-95084819D02*
X222289714Y-95132438D01*
X222289714Y-95132438D02*
X222242095Y-95180057D01*
X222242095Y-95180057D02*
X222194476Y-95275295D01*
X222194476Y-95275295D02*
X222194476Y-95370533D01*
X222194476Y-95370533D02*
X222242095Y-95513390D01*
X222242095Y-95513390D02*
X222813523Y-96084819D01*
X222813523Y-96084819D02*
X222194476Y-96084819D01*
X221718285Y-96084819D02*
X221527809Y-96084819D01*
X221527809Y-96084819D02*
X221432571Y-96037200D01*
X221432571Y-96037200D02*
X221384952Y-95989580D01*
X221384952Y-95989580D02*
X221289714Y-95846723D01*
X221289714Y-95846723D02*
X221242095Y-95656247D01*
X221242095Y-95656247D02*
X221242095Y-95275295D01*
X221242095Y-95275295D02*
X221289714Y-95180057D01*
X221289714Y-95180057D02*
X221337333Y-95132438D01*
X221337333Y-95132438D02*
X221432571Y-95084819D01*
X221432571Y-95084819D02*
X221623047Y-95084819D01*
X221623047Y-95084819D02*
X221718285Y-95132438D01*
X221718285Y-95132438D02*
X221765904Y-95180057D01*
X221765904Y-95180057D02*
X221813523Y-95275295D01*
X221813523Y-95275295D02*
X221813523Y-95513390D01*
X221813523Y-95513390D02*
X221765904Y-95608628D01*
X221765904Y-95608628D02*
X221718285Y-95656247D01*
X221718285Y-95656247D02*
X221623047Y-95703866D01*
X221623047Y-95703866D02*
X221432571Y-95703866D01*
X221432571Y-95703866D02*
X221337333Y-95656247D01*
X221337333Y-95656247D02*
X221289714Y-95608628D01*
X221289714Y-95608628D02*
X221242095Y-95513390D01*
X223130857Y-111324819D02*
X223464190Y-110848628D01*
X223702285Y-111324819D02*
X223702285Y-110324819D01*
X223702285Y-110324819D02*
X223321333Y-110324819D01*
X223321333Y-110324819D02*
X223226095Y-110372438D01*
X223226095Y-110372438D02*
X223178476Y-110420057D01*
X223178476Y-110420057D02*
X223130857Y-110515295D01*
X223130857Y-110515295D02*
X223130857Y-110658152D01*
X223130857Y-110658152D02*
X223178476Y-110753390D01*
X223178476Y-110753390D02*
X223226095Y-110801009D01*
X223226095Y-110801009D02*
X223321333Y-110848628D01*
X223321333Y-110848628D02*
X223702285Y-110848628D01*
X222749904Y-110420057D02*
X222702285Y-110372438D01*
X222702285Y-110372438D02*
X222607047Y-110324819D01*
X222607047Y-110324819D02*
X222368952Y-110324819D01*
X222368952Y-110324819D02*
X222273714Y-110372438D01*
X222273714Y-110372438D02*
X222226095Y-110420057D01*
X222226095Y-110420057D02*
X222178476Y-110515295D01*
X222178476Y-110515295D02*
X222178476Y-110610533D01*
X222178476Y-110610533D02*
X222226095Y-110753390D01*
X222226095Y-110753390D02*
X222797523Y-111324819D01*
X222797523Y-111324819D02*
X222178476Y-111324819D01*
X221845142Y-110324819D02*
X221178476Y-110324819D01*
X221178476Y-110324819D02*
X221607047Y-111324819D01*
X223130857Y-68144819D02*
X223464190Y-67668628D01*
X223702285Y-68144819D02*
X223702285Y-67144819D01*
X223702285Y-67144819D02*
X223321333Y-67144819D01*
X223321333Y-67144819D02*
X223226095Y-67192438D01*
X223226095Y-67192438D02*
X223178476Y-67240057D01*
X223178476Y-67240057D02*
X223130857Y-67335295D01*
X223130857Y-67335295D02*
X223130857Y-67478152D01*
X223130857Y-67478152D02*
X223178476Y-67573390D01*
X223178476Y-67573390D02*
X223226095Y-67621009D01*
X223226095Y-67621009D02*
X223321333Y-67668628D01*
X223321333Y-67668628D02*
X223702285Y-67668628D01*
X222749904Y-67240057D02*
X222702285Y-67192438D01*
X222702285Y-67192438D02*
X222607047Y-67144819D01*
X222607047Y-67144819D02*
X222368952Y-67144819D01*
X222368952Y-67144819D02*
X222273714Y-67192438D01*
X222273714Y-67192438D02*
X222226095Y-67240057D01*
X222226095Y-67240057D02*
X222178476Y-67335295D01*
X222178476Y-67335295D02*
X222178476Y-67430533D01*
X222178476Y-67430533D02*
X222226095Y-67573390D01*
X222226095Y-67573390D02*
X222797523Y-68144819D01*
X222797523Y-68144819D02*
X222178476Y-68144819D01*
X221321333Y-67144819D02*
X221511809Y-67144819D01*
X221511809Y-67144819D02*
X221607047Y-67192438D01*
X221607047Y-67192438D02*
X221654666Y-67240057D01*
X221654666Y-67240057D02*
X221749904Y-67382914D01*
X221749904Y-67382914D02*
X221797523Y-67573390D01*
X221797523Y-67573390D02*
X221797523Y-67954342D01*
X221797523Y-67954342D02*
X221749904Y-68049580D01*
X221749904Y-68049580D02*
X221702285Y-68097200D01*
X221702285Y-68097200D02*
X221607047Y-68144819D01*
X221607047Y-68144819D02*
X221416571Y-68144819D01*
X221416571Y-68144819D02*
X221321333Y-68097200D01*
X221321333Y-68097200D02*
X221273714Y-68049580D01*
X221273714Y-68049580D02*
X221226095Y-67954342D01*
X221226095Y-67954342D02*
X221226095Y-67716247D01*
X221226095Y-67716247D02*
X221273714Y-67621009D01*
X221273714Y-67621009D02*
X221321333Y-67573390D01*
X221321333Y-67573390D02*
X221416571Y-67525771D01*
X221416571Y-67525771D02*
X221607047Y-67525771D01*
X221607047Y-67525771D02*
X221702285Y-67573390D01*
X221702285Y-67573390D02*
X221749904Y-67621009D01*
X221749904Y-67621009D02*
X221797523Y-67716247D01*
X223130857Y-108784819D02*
X223464190Y-108308628D01*
X223702285Y-108784819D02*
X223702285Y-107784819D01*
X223702285Y-107784819D02*
X223321333Y-107784819D01*
X223321333Y-107784819D02*
X223226095Y-107832438D01*
X223226095Y-107832438D02*
X223178476Y-107880057D01*
X223178476Y-107880057D02*
X223130857Y-107975295D01*
X223130857Y-107975295D02*
X223130857Y-108118152D01*
X223130857Y-108118152D02*
X223178476Y-108213390D01*
X223178476Y-108213390D02*
X223226095Y-108261009D01*
X223226095Y-108261009D02*
X223321333Y-108308628D01*
X223321333Y-108308628D02*
X223702285Y-108308628D01*
X222749904Y-107880057D02*
X222702285Y-107832438D01*
X222702285Y-107832438D02*
X222607047Y-107784819D01*
X222607047Y-107784819D02*
X222368952Y-107784819D01*
X222368952Y-107784819D02*
X222273714Y-107832438D01*
X222273714Y-107832438D02*
X222226095Y-107880057D01*
X222226095Y-107880057D02*
X222178476Y-107975295D01*
X222178476Y-107975295D02*
X222178476Y-108070533D01*
X222178476Y-108070533D02*
X222226095Y-108213390D01*
X222226095Y-108213390D02*
X222797523Y-108784819D01*
X222797523Y-108784819D02*
X222178476Y-108784819D01*
X221321333Y-108118152D02*
X221321333Y-108784819D01*
X221559428Y-107737200D02*
X221797523Y-108451485D01*
X221797523Y-108451485D02*
X221178476Y-108451485D01*
X223130857Y-106244819D02*
X223464190Y-105768628D01*
X223702285Y-106244819D02*
X223702285Y-105244819D01*
X223702285Y-105244819D02*
X223321333Y-105244819D01*
X223321333Y-105244819D02*
X223226095Y-105292438D01*
X223226095Y-105292438D02*
X223178476Y-105340057D01*
X223178476Y-105340057D02*
X223130857Y-105435295D01*
X223130857Y-105435295D02*
X223130857Y-105578152D01*
X223130857Y-105578152D02*
X223178476Y-105673390D01*
X223178476Y-105673390D02*
X223226095Y-105721009D01*
X223226095Y-105721009D02*
X223321333Y-105768628D01*
X223321333Y-105768628D02*
X223702285Y-105768628D01*
X222749904Y-105340057D02*
X222702285Y-105292438D01*
X222702285Y-105292438D02*
X222607047Y-105244819D01*
X222607047Y-105244819D02*
X222368952Y-105244819D01*
X222368952Y-105244819D02*
X222273714Y-105292438D01*
X222273714Y-105292438D02*
X222226095Y-105340057D01*
X222226095Y-105340057D02*
X222178476Y-105435295D01*
X222178476Y-105435295D02*
X222178476Y-105530533D01*
X222178476Y-105530533D02*
X222226095Y-105673390D01*
X222226095Y-105673390D02*
X222797523Y-106244819D01*
X222797523Y-106244819D02*
X222178476Y-106244819D01*
X221845142Y-105244819D02*
X221226095Y-105244819D01*
X221226095Y-105244819D02*
X221559428Y-105625771D01*
X221559428Y-105625771D02*
X221416571Y-105625771D01*
X221416571Y-105625771D02*
X221321333Y-105673390D01*
X221321333Y-105673390D02*
X221273714Y-105721009D01*
X221273714Y-105721009D02*
X221226095Y-105816247D01*
X221226095Y-105816247D02*
X221226095Y-106054342D01*
X221226095Y-106054342D02*
X221273714Y-106149580D01*
X221273714Y-106149580D02*
X221321333Y-106197200D01*
X221321333Y-106197200D02*
X221416571Y-106244819D01*
X221416571Y-106244819D02*
X221702285Y-106244819D01*
X221702285Y-106244819D02*
X221797523Y-106197200D01*
X221797523Y-106197200D02*
X221845142Y-106149580D01*
X223130857Y-75764819D02*
X223464190Y-75288628D01*
X223702285Y-75764819D02*
X223702285Y-74764819D01*
X223702285Y-74764819D02*
X223321333Y-74764819D01*
X223321333Y-74764819D02*
X223226095Y-74812438D01*
X223226095Y-74812438D02*
X223178476Y-74860057D01*
X223178476Y-74860057D02*
X223130857Y-74955295D01*
X223130857Y-74955295D02*
X223130857Y-75098152D01*
X223130857Y-75098152D02*
X223178476Y-75193390D01*
X223178476Y-75193390D02*
X223226095Y-75241009D01*
X223226095Y-75241009D02*
X223321333Y-75288628D01*
X223321333Y-75288628D02*
X223702285Y-75288628D01*
X222749904Y-74860057D02*
X222702285Y-74812438D01*
X222702285Y-74812438D02*
X222607047Y-74764819D01*
X222607047Y-74764819D02*
X222368952Y-74764819D01*
X222368952Y-74764819D02*
X222273714Y-74812438D01*
X222273714Y-74812438D02*
X222226095Y-74860057D01*
X222226095Y-74860057D02*
X222178476Y-74955295D01*
X222178476Y-74955295D02*
X222178476Y-75050533D01*
X222178476Y-75050533D02*
X222226095Y-75193390D01*
X222226095Y-75193390D02*
X222797523Y-75764819D01*
X222797523Y-75764819D02*
X222178476Y-75764819D01*
X221797523Y-74860057D02*
X221749904Y-74812438D01*
X221749904Y-74812438D02*
X221654666Y-74764819D01*
X221654666Y-74764819D02*
X221416571Y-74764819D01*
X221416571Y-74764819D02*
X221321333Y-74812438D01*
X221321333Y-74812438D02*
X221273714Y-74860057D01*
X221273714Y-74860057D02*
X221226095Y-74955295D01*
X221226095Y-74955295D02*
X221226095Y-75050533D01*
X221226095Y-75050533D02*
X221273714Y-75193390D01*
X221273714Y-75193390D02*
X221845142Y-75764819D01*
X221845142Y-75764819D02*
X221226095Y-75764819D01*
X223130857Y-73224819D02*
X223464190Y-72748628D01*
X223702285Y-73224819D02*
X223702285Y-72224819D01*
X223702285Y-72224819D02*
X223321333Y-72224819D01*
X223321333Y-72224819D02*
X223226095Y-72272438D01*
X223226095Y-72272438D02*
X223178476Y-72320057D01*
X223178476Y-72320057D02*
X223130857Y-72415295D01*
X223130857Y-72415295D02*
X223130857Y-72558152D01*
X223130857Y-72558152D02*
X223178476Y-72653390D01*
X223178476Y-72653390D02*
X223226095Y-72701009D01*
X223226095Y-72701009D02*
X223321333Y-72748628D01*
X223321333Y-72748628D02*
X223702285Y-72748628D01*
X222749904Y-72320057D02*
X222702285Y-72272438D01*
X222702285Y-72272438D02*
X222607047Y-72224819D01*
X222607047Y-72224819D02*
X222368952Y-72224819D01*
X222368952Y-72224819D02*
X222273714Y-72272438D01*
X222273714Y-72272438D02*
X222226095Y-72320057D01*
X222226095Y-72320057D02*
X222178476Y-72415295D01*
X222178476Y-72415295D02*
X222178476Y-72510533D01*
X222178476Y-72510533D02*
X222226095Y-72653390D01*
X222226095Y-72653390D02*
X222797523Y-73224819D01*
X222797523Y-73224819D02*
X222178476Y-73224819D01*
X221226095Y-73224819D02*
X221797523Y-73224819D01*
X221511809Y-73224819D02*
X221511809Y-72224819D01*
X221511809Y-72224819D02*
X221607047Y-72367676D01*
X221607047Y-72367676D02*
X221702285Y-72462914D01*
X221702285Y-72462914D02*
X221797523Y-72510533D01*
X223130857Y-55444819D02*
X223464190Y-54968628D01*
X223702285Y-55444819D02*
X223702285Y-54444819D01*
X223702285Y-54444819D02*
X223321333Y-54444819D01*
X223321333Y-54444819D02*
X223226095Y-54492438D01*
X223226095Y-54492438D02*
X223178476Y-54540057D01*
X223178476Y-54540057D02*
X223130857Y-54635295D01*
X223130857Y-54635295D02*
X223130857Y-54778152D01*
X223130857Y-54778152D02*
X223178476Y-54873390D01*
X223178476Y-54873390D02*
X223226095Y-54921009D01*
X223226095Y-54921009D02*
X223321333Y-54968628D01*
X223321333Y-54968628D02*
X223702285Y-54968628D01*
X222178476Y-55444819D02*
X222749904Y-55444819D01*
X222464190Y-55444819D02*
X222464190Y-54444819D01*
X222464190Y-54444819D02*
X222559428Y-54587676D01*
X222559428Y-54587676D02*
X222654666Y-54682914D01*
X222654666Y-54682914D02*
X222749904Y-54730533D01*
X221607047Y-54873390D02*
X221702285Y-54825771D01*
X221702285Y-54825771D02*
X221749904Y-54778152D01*
X221749904Y-54778152D02*
X221797523Y-54682914D01*
X221797523Y-54682914D02*
X221797523Y-54635295D01*
X221797523Y-54635295D02*
X221749904Y-54540057D01*
X221749904Y-54540057D02*
X221702285Y-54492438D01*
X221702285Y-54492438D02*
X221607047Y-54444819D01*
X221607047Y-54444819D02*
X221416571Y-54444819D01*
X221416571Y-54444819D02*
X221321333Y-54492438D01*
X221321333Y-54492438D02*
X221273714Y-54540057D01*
X221273714Y-54540057D02*
X221226095Y-54635295D01*
X221226095Y-54635295D02*
X221226095Y-54682914D01*
X221226095Y-54682914D02*
X221273714Y-54778152D01*
X221273714Y-54778152D02*
X221321333Y-54825771D01*
X221321333Y-54825771D02*
X221416571Y-54873390D01*
X221416571Y-54873390D02*
X221607047Y-54873390D01*
X221607047Y-54873390D02*
X221702285Y-54921009D01*
X221702285Y-54921009D02*
X221749904Y-54968628D01*
X221749904Y-54968628D02*
X221797523Y-55063866D01*
X221797523Y-55063866D02*
X221797523Y-55254342D01*
X221797523Y-55254342D02*
X221749904Y-55349580D01*
X221749904Y-55349580D02*
X221702285Y-55397200D01*
X221702285Y-55397200D02*
X221607047Y-55444819D01*
X221607047Y-55444819D02*
X221416571Y-55444819D01*
X221416571Y-55444819D02*
X221321333Y-55397200D01*
X221321333Y-55397200D02*
X221273714Y-55349580D01*
X221273714Y-55349580D02*
X221226095Y-55254342D01*
X221226095Y-55254342D02*
X221226095Y-55063866D01*
X221226095Y-55063866D02*
X221273714Y-54968628D01*
X221273714Y-54968628D02*
X221321333Y-54921009D01*
X221321333Y-54921009D02*
X221416571Y-54873390D01*
X223162857Y-57984819D02*
X223496190Y-57508628D01*
X223734285Y-57984819D02*
X223734285Y-56984819D01*
X223734285Y-56984819D02*
X223353333Y-56984819D01*
X223353333Y-56984819D02*
X223258095Y-57032438D01*
X223258095Y-57032438D02*
X223210476Y-57080057D01*
X223210476Y-57080057D02*
X223162857Y-57175295D01*
X223162857Y-57175295D02*
X223162857Y-57318152D01*
X223162857Y-57318152D02*
X223210476Y-57413390D01*
X223210476Y-57413390D02*
X223258095Y-57461009D01*
X223258095Y-57461009D02*
X223353333Y-57508628D01*
X223353333Y-57508628D02*
X223734285Y-57508628D01*
X222210476Y-57984819D02*
X222781904Y-57984819D01*
X222496190Y-57984819D02*
X222496190Y-56984819D01*
X222496190Y-56984819D02*
X222591428Y-57127676D01*
X222591428Y-57127676D02*
X222686666Y-57222914D01*
X222686666Y-57222914D02*
X222781904Y-57270533D01*
X221353333Y-56984819D02*
X221543809Y-56984819D01*
X221543809Y-56984819D02*
X221639047Y-57032438D01*
X221639047Y-57032438D02*
X221686666Y-57080057D01*
X221686666Y-57080057D02*
X221781904Y-57222914D01*
X221781904Y-57222914D02*
X221829523Y-57413390D01*
X221829523Y-57413390D02*
X221829523Y-57794342D01*
X221829523Y-57794342D02*
X221781904Y-57889580D01*
X221781904Y-57889580D02*
X221734285Y-57937200D01*
X221734285Y-57937200D02*
X221639047Y-57984819D01*
X221639047Y-57984819D02*
X221448571Y-57984819D01*
X221448571Y-57984819D02*
X221353333Y-57937200D01*
X221353333Y-57937200D02*
X221305714Y-57889580D01*
X221305714Y-57889580D02*
X221258095Y-57794342D01*
X221258095Y-57794342D02*
X221258095Y-57556247D01*
X221258095Y-57556247D02*
X221305714Y-57461009D01*
X221305714Y-57461009D02*
X221353333Y-57413390D01*
X221353333Y-57413390D02*
X221448571Y-57365771D01*
X221448571Y-57365771D02*
X221639047Y-57365771D01*
X221639047Y-57365771D02*
X221734285Y-57413390D01*
X221734285Y-57413390D02*
X221781904Y-57461009D01*
X221781904Y-57461009D02*
X221829523Y-57556247D01*
X223162857Y-60524819D02*
X223496190Y-60048628D01*
X223734285Y-60524819D02*
X223734285Y-59524819D01*
X223734285Y-59524819D02*
X223353333Y-59524819D01*
X223353333Y-59524819D02*
X223258095Y-59572438D01*
X223258095Y-59572438D02*
X223210476Y-59620057D01*
X223210476Y-59620057D02*
X223162857Y-59715295D01*
X223162857Y-59715295D02*
X223162857Y-59858152D01*
X223162857Y-59858152D02*
X223210476Y-59953390D01*
X223210476Y-59953390D02*
X223258095Y-60001009D01*
X223258095Y-60001009D02*
X223353333Y-60048628D01*
X223353333Y-60048628D02*
X223734285Y-60048628D01*
X222210476Y-60524819D02*
X222781904Y-60524819D01*
X222496190Y-60524819D02*
X222496190Y-59524819D01*
X222496190Y-59524819D02*
X222591428Y-59667676D01*
X222591428Y-59667676D02*
X222686666Y-59762914D01*
X222686666Y-59762914D02*
X222781904Y-59810533D01*
X221353333Y-59858152D02*
X221353333Y-60524819D01*
X221591428Y-59477200D02*
X221829523Y-60191485D01*
X221829523Y-60191485D02*
X221210476Y-60191485D01*
X223130857Y-63064819D02*
X223464190Y-62588628D01*
X223702285Y-63064819D02*
X223702285Y-62064819D01*
X223702285Y-62064819D02*
X223321333Y-62064819D01*
X223321333Y-62064819D02*
X223226095Y-62112438D01*
X223226095Y-62112438D02*
X223178476Y-62160057D01*
X223178476Y-62160057D02*
X223130857Y-62255295D01*
X223130857Y-62255295D02*
X223130857Y-62398152D01*
X223130857Y-62398152D02*
X223178476Y-62493390D01*
X223178476Y-62493390D02*
X223226095Y-62541009D01*
X223226095Y-62541009D02*
X223321333Y-62588628D01*
X223321333Y-62588628D02*
X223702285Y-62588628D01*
X222178476Y-63064819D02*
X222749904Y-63064819D01*
X222464190Y-63064819D02*
X222464190Y-62064819D01*
X222464190Y-62064819D02*
X222559428Y-62207676D01*
X222559428Y-62207676D02*
X222654666Y-62302914D01*
X222654666Y-62302914D02*
X222749904Y-62350533D01*
X221797523Y-62160057D02*
X221749904Y-62112438D01*
X221749904Y-62112438D02*
X221654666Y-62064819D01*
X221654666Y-62064819D02*
X221416571Y-62064819D01*
X221416571Y-62064819D02*
X221321333Y-62112438D01*
X221321333Y-62112438D02*
X221273714Y-62160057D01*
X221273714Y-62160057D02*
X221226095Y-62255295D01*
X221226095Y-62255295D02*
X221226095Y-62350533D01*
X221226095Y-62350533D02*
X221273714Y-62493390D01*
X221273714Y-62493390D02*
X221845142Y-63064819D01*
X221845142Y-63064819D02*
X221226095Y-63064819D01*
X223130857Y-75004819D02*
X223464190Y-74528628D01*
X223702285Y-75004819D02*
X223702285Y-74004819D01*
X223702285Y-74004819D02*
X223321333Y-74004819D01*
X223321333Y-74004819D02*
X223226095Y-74052438D01*
X223226095Y-74052438D02*
X223178476Y-74100057D01*
X223178476Y-74100057D02*
X223130857Y-74195295D01*
X223130857Y-74195295D02*
X223130857Y-74338152D01*
X223130857Y-74338152D02*
X223178476Y-74433390D01*
X223178476Y-74433390D02*
X223226095Y-74481009D01*
X223226095Y-74481009D02*
X223321333Y-74528628D01*
X223321333Y-74528628D02*
X223702285Y-74528628D01*
X222178476Y-75004819D02*
X222749904Y-75004819D01*
X222464190Y-75004819D02*
X222464190Y-74004819D01*
X222464190Y-74004819D02*
X222559428Y-74147676D01*
X222559428Y-74147676D02*
X222654666Y-74242914D01*
X222654666Y-74242914D02*
X222749904Y-74290533D01*
X221226095Y-75004819D02*
X221797523Y-75004819D01*
X221511809Y-75004819D02*
X221511809Y-74004819D01*
X221511809Y-74004819D02*
X221607047Y-74147676D01*
X221607047Y-74147676D02*
X221702285Y-74242914D01*
X221702285Y-74242914D02*
X221797523Y-74290533D01*
X223146857Y-80844819D02*
X223480190Y-80368628D01*
X223718285Y-80844819D02*
X223718285Y-79844819D01*
X223718285Y-79844819D02*
X223337333Y-79844819D01*
X223337333Y-79844819D02*
X223242095Y-79892438D01*
X223242095Y-79892438D02*
X223194476Y-79940057D01*
X223194476Y-79940057D02*
X223146857Y-80035295D01*
X223146857Y-80035295D02*
X223146857Y-80178152D01*
X223146857Y-80178152D02*
X223194476Y-80273390D01*
X223194476Y-80273390D02*
X223242095Y-80321009D01*
X223242095Y-80321009D02*
X223337333Y-80368628D01*
X223337333Y-80368628D02*
X223718285Y-80368628D01*
X222194476Y-80844819D02*
X222765904Y-80844819D01*
X222480190Y-80844819D02*
X222480190Y-79844819D01*
X222480190Y-79844819D02*
X222575428Y-79987676D01*
X222575428Y-79987676D02*
X222670666Y-80082914D01*
X222670666Y-80082914D02*
X222765904Y-80130533D01*
X221575428Y-79844819D02*
X221480190Y-79844819D01*
X221480190Y-79844819D02*
X221384952Y-79892438D01*
X221384952Y-79892438D02*
X221337333Y-79940057D01*
X221337333Y-79940057D02*
X221289714Y-80035295D01*
X221289714Y-80035295D02*
X221242095Y-80225771D01*
X221242095Y-80225771D02*
X221242095Y-80463866D01*
X221242095Y-80463866D02*
X221289714Y-80654342D01*
X221289714Y-80654342D02*
X221337333Y-80749580D01*
X221337333Y-80749580D02*
X221384952Y-80797200D01*
X221384952Y-80797200D02*
X221480190Y-80844819D01*
X221480190Y-80844819D02*
X221575428Y-80844819D01*
X221575428Y-80844819D02*
X221670666Y-80797200D01*
X221670666Y-80797200D02*
X221718285Y-80749580D01*
X221718285Y-80749580D02*
X221765904Y-80654342D01*
X221765904Y-80654342D02*
X221813523Y-80463866D01*
X221813523Y-80463866D02*
X221813523Y-80225771D01*
X221813523Y-80225771D02*
X221765904Y-80035295D01*
X221765904Y-80035295D02*
X221718285Y-79940057D01*
X221718285Y-79940057D02*
X221670666Y-79892438D01*
X221670666Y-79892438D02*
X221575428Y-79844819D01*
X222670666Y-83384819D02*
X223003999Y-82908628D01*
X223242094Y-83384819D02*
X223242094Y-82384819D01*
X223242094Y-82384819D02*
X222861142Y-82384819D01*
X222861142Y-82384819D02*
X222765904Y-82432438D01*
X222765904Y-82432438D02*
X222718285Y-82480057D01*
X222718285Y-82480057D02*
X222670666Y-82575295D01*
X222670666Y-82575295D02*
X222670666Y-82718152D01*
X222670666Y-82718152D02*
X222718285Y-82813390D01*
X222718285Y-82813390D02*
X222765904Y-82861009D01*
X222765904Y-82861009D02*
X222861142Y-82908628D01*
X222861142Y-82908628D02*
X223242094Y-82908628D01*
X222099237Y-82813390D02*
X222194475Y-82765771D01*
X222194475Y-82765771D02*
X222242094Y-82718152D01*
X222242094Y-82718152D02*
X222289713Y-82622914D01*
X222289713Y-82622914D02*
X222289713Y-82575295D01*
X222289713Y-82575295D02*
X222242094Y-82480057D01*
X222242094Y-82480057D02*
X222194475Y-82432438D01*
X222194475Y-82432438D02*
X222099237Y-82384819D01*
X222099237Y-82384819D02*
X221908761Y-82384819D01*
X221908761Y-82384819D02*
X221813523Y-82432438D01*
X221813523Y-82432438D02*
X221765904Y-82480057D01*
X221765904Y-82480057D02*
X221718285Y-82575295D01*
X221718285Y-82575295D02*
X221718285Y-82622914D01*
X221718285Y-82622914D02*
X221765904Y-82718152D01*
X221765904Y-82718152D02*
X221813523Y-82765771D01*
X221813523Y-82765771D02*
X221908761Y-82813390D01*
X221908761Y-82813390D02*
X222099237Y-82813390D01*
X222099237Y-82813390D02*
X222194475Y-82861009D01*
X222194475Y-82861009D02*
X222242094Y-82908628D01*
X222242094Y-82908628D02*
X222289713Y-83003866D01*
X222289713Y-83003866D02*
X222289713Y-83194342D01*
X222289713Y-83194342D02*
X222242094Y-83289580D01*
X222242094Y-83289580D02*
X222194475Y-83337200D01*
X222194475Y-83337200D02*
X222099237Y-83384819D01*
X222099237Y-83384819D02*
X221908761Y-83384819D01*
X221908761Y-83384819D02*
X221813523Y-83337200D01*
X221813523Y-83337200D02*
X221765904Y-83289580D01*
X221765904Y-83289580D02*
X221718285Y-83194342D01*
X221718285Y-83194342D02*
X221718285Y-83003866D01*
X221718285Y-83003866D02*
X221765904Y-82908628D01*
X221765904Y-82908628D02*
X221813523Y-82861009D01*
X221813523Y-82861009D02*
X221908761Y-82813390D01*
X222670666Y-85924819D02*
X223003999Y-85448628D01*
X223242094Y-85924819D02*
X223242094Y-84924819D01*
X223242094Y-84924819D02*
X222861142Y-84924819D01*
X222861142Y-84924819D02*
X222765904Y-84972438D01*
X222765904Y-84972438D02*
X222718285Y-85020057D01*
X222718285Y-85020057D02*
X222670666Y-85115295D01*
X222670666Y-85115295D02*
X222670666Y-85258152D01*
X222670666Y-85258152D02*
X222718285Y-85353390D01*
X222718285Y-85353390D02*
X222765904Y-85401009D01*
X222765904Y-85401009D02*
X222861142Y-85448628D01*
X222861142Y-85448628D02*
X223242094Y-85448628D01*
X221813523Y-84924819D02*
X222003999Y-84924819D01*
X222003999Y-84924819D02*
X222099237Y-84972438D01*
X222099237Y-84972438D02*
X222146856Y-85020057D01*
X222146856Y-85020057D02*
X222242094Y-85162914D01*
X222242094Y-85162914D02*
X222289713Y-85353390D01*
X222289713Y-85353390D02*
X222289713Y-85734342D01*
X222289713Y-85734342D02*
X222242094Y-85829580D01*
X222242094Y-85829580D02*
X222194475Y-85877200D01*
X222194475Y-85877200D02*
X222099237Y-85924819D01*
X222099237Y-85924819D02*
X221908761Y-85924819D01*
X221908761Y-85924819D02*
X221813523Y-85877200D01*
X221813523Y-85877200D02*
X221765904Y-85829580D01*
X221765904Y-85829580D02*
X221718285Y-85734342D01*
X221718285Y-85734342D02*
X221718285Y-85496247D01*
X221718285Y-85496247D02*
X221765904Y-85401009D01*
X221765904Y-85401009D02*
X221813523Y-85353390D01*
X221813523Y-85353390D02*
X221908761Y-85305771D01*
X221908761Y-85305771D02*
X222099237Y-85305771D01*
X222099237Y-85305771D02*
X222194475Y-85353390D01*
X222194475Y-85353390D02*
X222242094Y-85401009D01*
X222242094Y-85401009D02*
X222289713Y-85496247D01*
X222670666Y-88464819D02*
X223003999Y-87988628D01*
X223242094Y-88464819D02*
X223242094Y-87464819D01*
X223242094Y-87464819D02*
X222861142Y-87464819D01*
X222861142Y-87464819D02*
X222765904Y-87512438D01*
X222765904Y-87512438D02*
X222718285Y-87560057D01*
X222718285Y-87560057D02*
X222670666Y-87655295D01*
X222670666Y-87655295D02*
X222670666Y-87798152D01*
X222670666Y-87798152D02*
X222718285Y-87893390D01*
X222718285Y-87893390D02*
X222765904Y-87941009D01*
X222765904Y-87941009D02*
X222861142Y-87988628D01*
X222861142Y-87988628D02*
X223242094Y-87988628D01*
X221813523Y-87798152D02*
X221813523Y-88464819D01*
X222051618Y-87417200D02*
X222289713Y-88131485D01*
X222289713Y-88131485D02*
X221670666Y-88131485D01*
X232814666Y-98624819D02*
X233147999Y-98148628D01*
X233386094Y-98624819D02*
X233386094Y-97624819D01*
X233386094Y-97624819D02*
X233005142Y-97624819D01*
X233005142Y-97624819D02*
X232909904Y-97672438D01*
X232909904Y-97672438D02*
X232862285Y-97720057D01*
X232862285Y-97720057D02*
X232814666Y-97815295D01*
X232814666Y-97815295D02*
X232814666Y-97958152D01*
X232814666Y-97958152D02*
X232862285Y-98053390D01*
X232862285Y-98053390D02*
X232909904Y-98101009D01*
X232909904Y-98101009D02*
X233005142Y-98148628D01*
X233005142Y-98148628D02*
X233386094Y-98148628D01*
X231862285Y-98624819D02*
X232433713Y-98624819D01*
X232147999Y-98624819D02*
X232147999Y-97624819D01*
X232147999Y-97624819D02*
X232243237Y-97767676D01*
X232243237Y-97767676D02*
X232338475Y-97862914D01*
X232338475Y-97862914D02*
X232433713Y-97910533D01*
D11*
%TO.C,R45*%
X222292936Y-120115000D02*
X222747064Y-120115000D01*
X222292936Y-118645000D02*
X222747064Y-118645000D01*
%TO.C,R46*%
X222292936Y-117575000D02*
X222747064Y-117575000D01*
X222292936Y-116105000D02*
X222747064Y-116105000D01*
%TO.C,R43*%
X222292936Y-125195000D02*
X222747064Y-125195000D01*
X222292936Y-123725000D02*
X222747064Y-123725000D01*
%TO.C,R44*%
X222292936Y-122655000D02*
X222747064Y-122655000D01*
X222292936Y-121185000D02*
X222747064Y-121185000D01*
%TO.C,R42*%
X222292936Y-127735000D02*
X222747064Y-127735000D01*
X222292936Y-126265000D02*
X222747064Y-126265000D01*
%TO.C,R34*%
X222292936Y-128805000D02*
X222747064Y-128805000D01*
X222292936Y-130275000D02*
X222747064Y-130275000D01*
%TO.C,R55*%
X222260936Y-64235000D02*
X222715064Y-64235000D01*
X222260936Y-62765000D02*
X222715064Y-62765000D01*
%TO.C,R54*%
X222292936Y-98325000D02*
X222747064Y-98325000D01*
X222292936Y-99795000D02*
X222747064Y-99795000D01*
%TO.C,R53*%
X222260936Y-43915000D02*
X222715064Y-43915000D01*
X222260936Y-42445000D02*
X222715064Y-42445000D01*
%TO.C,R51*%
X222260936Y-41375000D02*
X222715064Y-41375000D01*
X222260936Y-39905000D02*
X222715064Y-39905000D01*
%TO.C,R49*%
X222260936Y-112495000D02*
X222715064Y-112495000D01*
X222260936Y-111025000D02*
X222715064Y-111025000D01*
%TO.C,R47*%
X222260936Y-115035000D02*
X222715064Y-115035000D01*
X222260936Y-113565000D02*
X222715064Y-113565000D01*
%TO.C,R35*%
X222260936Y-69315000D02*
X222715064Y-69315000D01*
X222260936Y-67845000D02*
X222715064Y-67845000D01*
%TO.C,R33*%
X222276936Y-89635000D02*
X222731064Y-89635000D01*
X222276936Y-88165000D02*
X222731064Y-88165000D01*
%TO.C,R31*%
X222276936Y-92175000D02*
X222731064Y-92175000D01*
X222276936Y-90705000D02*
X222731064Y-90705000D01*
%TO.C,R29*%
X222276936Y-94715000D02*
X222731064Y-94715000D01*
X222276936Y-93245000D02*
X222731064Y-93245000D01*
%TO.C,R27*%
X222260936Y-109955000D02*
X222715064Y-109955000D01*
X222260936Y-108485000D02*
X222715064Y-108485000D01*
%TO.C,R26*%
X222260936Y-66775000D02*
X222715064Y-66775000D01*
X222260936Y-65305000D02*
X222715064Y-65305000D01*
%TO.C,R24*%
X222260936Y-107415000D02*
X222715064Y-107415000D01*
X222260936Y-105945000D02*
X222715064Y-105945000D01*
%TO.C,R23*%
X222260936Y-104875000D02*
X222715064Y-104875000D01*
X222260936Y-103405000D02*
X222715064Y-103405000D01*
%TO.C,R22*%
X222260936Y-74395000D02*
X222715064Y-74395000D01*
X222260936Y-72925000D02*
X222715064Y-72925000D01*
%TO.C,R21*%
X222260936Y-71855000D02*
X222715064Y-71855000D01*
X222260936Y-70385000D02*
X222715064Y-70385000D01*
%TO.C,R18*%
X222260936Y-54075000D02*
X222715064Y-54075000D01*
X222260936Y-52605000D02*
X222715064Y-52605000D01*
%TO.C,R16*%
X222292936Y-55145000D02*
X222747064Y-55145000D01*
X222292936Y-56615000D02*
X222747064Y-56615000D01*
%TO.C,R14*%
X222292936Y-57685000D02*
X222747064Y-57685000D01*
X222292936Y-59155000D02*
X222747064Y-59155000D01*
%TO.C,R12*%
X222260936Y-61695000D02*
X222715064Y-61695000D01*
X222260936Y-60225000D02*
X222715064Y-60225000D01*
%TO.C,R10*%
X222276936Y-79475000D02*
X222731064Y-79475000D01*
X222276936Y-78005000D02*
X222731064Y-78005000D01*
%TO.C,R8*%
X222276936Y-82015000D02*
X222731064Y-82015000D01*
X222276936Y-80545000D02*
X222731064Y-80545000D01*
%TO.C,R6*%
X222276936Y-84555000D02*
X222731064Y-84555000D01*
X222276936Y-83085000D02*
X222731064Y-83085000D01*
%TO.C,R4*%
X222276936Y-87095000D02*
X222731064Y-87095000D01*
X222276936Y-85625000D02*
X222731064Y-85625000D01*
%TO.C,R1*%
X222292936Y-97255000D02*
X222747064Y-97255000D01*
X222292936Y-95785000D02*
X222747064Y-95785000D01*
%TD*%
M02*
