%TF.GenerationSoftware,KiCad,Pcbnew,9.0.6-1.fc43*%
%TF.CreationDate,2026-03-29T08:32:46+01:00*%
%TF.ProjectId,cptrep-diag-card,63707472-6570-42d6-9469-61672d636172,rev?*%
%TF.SameCoordinates,Original*%
%TF.FileFunction,Legend,Bot*%
%TF.FilePolarity,Positive*%
%FSLAX46Y46*%
G04 Gerber Fmt 4.6, Leading zero omitted, Abs format (unit mm)*
G04 Created by KiCad (PCBNEW 9.0.6-1.fc43) date 2026-03-29 08:32:46*
%MOMM*%
%LPD*%
G01*
G04 APERTURE LIST*
%ADD10C,0.150000*%
%ADD11C,0.120000*%
G04 APERTURE END LIST*
D10*
X208922857Y-114754819D02*
X209256190Y-114278628D01*
X209494285Y-114754819D02*
X209494285Y-113754819D01*
X209494285Y-113754819D02*
X209113333Y-113754819D01*
X209113333Y-113754819D02*
X209018095Y-113802438D01*
X209018095Y-113802438D02*
X208970476Y-113850057D01*
X208970476Y-113850057D02*
X208922857Y-113945295D01*
X208922857Y-113945295D02*
X208922857Y-114088152D01*
X208922857Y-114088152D02*
X208970476Y-114183390D01*
X208970476Y-114183390D02*
X209018095Y-114231009D01*
X209018095Y-114231009D02*
X209113333Y-114278628D01*
X209113333Y-114278628D02*
X209494285Y-114278628D01*
X208589523Y-113754819D02*
X207970476Y-113754819D01*
X207970476Y-113754819D02*
X208303809Y-114135771D01*
X208303809Y-114135771D02*
X208160952Y-114135771D01*
X208160952Y-114135771D02*
X208065714Y-114183390D01*
X208065714Y-114183390D02*
X208018095Y-114231009D01*
X208018095Y-114231009D02*
X207970476Y-114326247D01*
X207970476Y-114326247D02*
X207970476Y-114564342D01*
X207970476Y-114564342D02*
X208018095Y-114659580D01*
X208018095Y-114659580D02*
X208065714Y-114707200D01*
X208065714Y-114707200D02*
X208160952Y-114754819D01*
X208160952Y-114754819D02*
X208446666Y-114754819D01*
X208446666Y-114754819D02*
X208541904Y-114707200D01*
X208541904Y-114707200D02*
X208589523Y-114659580D01*
X207637142Y-113754819D02*
X206970476Y-113754819D01*
X206970476Y-113754819D02*
X207399047Y-114754819D01*
X217812857Y-76654819D02*
X218146190Y-76178628D01*
X218384285Y-76654819D02*
X218384285Y-75654819D01*
X218384285Y-75654819D02*
X218003333Y-75654819D01*
X218003333Y-75654819D02*
X217908095Y-75702438D01*
X217908095Y-75702438D02*
X217860476Y-75750057D01*
X217860476Y-75750057D02*
X217812857Y-75845295D01*
X217812857Y-75845295D02*
X217812857Y-75988152D01*
X217812857Y-75988152D02*
X217860476Y-76083390D01*
X217860476Y-76083390D02*
X217908095Y-76131009D01*
X217908095Y-76131009D02*
X218003333Y-76178628D01*
X218003333Y-76178628D02*
X218384285Y-76178628D01*
X216860476Y-76654819D02*
X217431904Y-76654819D01*
X217146190Y-76654819D02*
X217146190Y-75654819D01*
X217146190Y-75654819D02*
X217241428Y-75797676D01*
X217241428Y-75797676D02*
X217336666Y-75892914D01*
X217336666Y-75892914D02*
X217431904Y-75940533D01*
X215908095Y-76654819D02*
X216479523Y-76654819D01*
X216193809Y-76654819D02*
X216193809Y-75654819D01*
X216193809Y-75654819D02*
X216289047Y-75797676D01*
X216289047Y-75797676D02*
X216384285Y-75892914D01*
X216384285Y-75892914D02*
X216479523Y-75940533D01*
X217812857Y-41094819D02*
X218146190Y-40618628D01*
X218384285Y-41094819D02*
X218384285Y-40094819D01*
X218384285Y-40094819D02*
X218003333Y-40094819D01*
X218003333Y-40094819D02*
X217908095Y-40142438D01*
X217908095Y-40142438D02*
X217860476Y-40190057D01*
X217860476Y-40190057D02*
X217812857Y-40285295D01*
X217812857Y-40285295D02*
X217812857Y-40428152D01*
X217812857Y-40428152D02*
X217860476Y-40523390D01*
X217860476Y-40523390D02*
X217908095Y-40571009D01*
X217908095Y-40571009D02*
X218003333Y-40618628D01*
X218003333Y-40618628D02*
X218384285Y-40618628D01*
X216908095Y-40094819D02*
X217384285Y-40094819D01*
X217384285Y-40094819D02*
X217431904Y-40571009D01*
X217431904Y-40571009D02*
X217384285Y-40523390D01*
X217384285Y-40523390D02*
X217289047Y-40475771D01*
X217289047Y-40475771D02*
X217050952Y-40475771D01*
X217050952Y-40475771D02*
X216955714Y-40523390D01*
X216955714Y-40523390D02*
X216908095Y-40571009D01*
X216908095Y-40571009D02*
X216860476Y-40666247D01*
X216860476Y-40666247D02*
X216860476Y-40904342D01*
X216860476Y-40904342D02*
X216908095Y-40999580D01*
X216908095Y-40999580D02*
X216955714Y-41047200D01*
X216955714Y-41047200D02*
X217050952Y-41094819D01*
X217050952Y-41094819D02*
X217289047Y-41094819D01*
X217289047Y-41094819D02*
X217384285Y-41047200D01*
X217384285Y-41047200D02*
X217431904Y-40999580D01*
X215908095Y-41094819D02*
X216479523Y-41094819D01*
X216193809Y-41094819D02*
X216193809Y-40094819D01*
X216193809Y-40094819D02*
X216289047Y-40237676D01*
X216289047Y-40237676D02*
X216384285Y-40332914D01*
X216384285Y-40332914D02*
X216479523Y-40380533D01*
X219082857Y-114754819D02*
X219416190Y-114278628D01*
X219654285Y-114754819D02*
X219654285Y-113754819D01*
X219654285Y-113754819D02*
X219273333Y-113754819D01*
X219273333Y-113754819D02*
X219178095Y-113802438D01*
X219178095Y-113802438D02*
X219130476Y-113850057D01*
X219130476Y-113850057D02*
X219082857Y-113945295D01*
X219082857Y-113945295D02*
X219082857Y-114088152D01*
X219082857Y-114088152D02*
X219130476Y-114183390D01*
X219130476Y-114183390D02*
X219178095Y-114231009D01*
X219178095Y-114231009D02*
X219273333Y-114278628D01*
X219273333Y-114278628D02*
X219654285Y-114278628D01*
X218225714Y-114088152D02*
X218225714Y-114754819D01*
X218463809Y-113707200D02*
X218701904Y-114421485D01*
X218701904Y-114421485D02*
X218082857Y-114421485D01*
X217797142Y-113754819D02*
X217130476Y-113754819D01*
X217130476Y-113754819D02*
X217559047Y-114754819D01*
X217812857Y-53794819D02*
X218146190Y-53318628D01*
X218384285Y-53794819D02*
X218384285Y-52794819D01*
X218384285Y-52794819D02*
X218003333Y-52794819D01*
X218003333Y-52794819D02*
X217908095Y-52842438D01*
X217908095Y-52842438D02*
X217860476Y-52890057D01*
X217860476Y-52890057D02*
X217812857Y-52985295D01*
X217812857Y-52985295D02*
X217812857Y-53128152D01*
X217812857Y-53128152D02*
X217860476Y-53223390D01*
X217860476Y-53223390D02*
X217908095Y-53271009D01*
X217908095Y-53271009D02*
X218003333Y-53318628D01*
X218003333Y-53318628D02*
X218384285Y-53318628D01*
X216860476Y-53794819D02*
X217431904Y-53794819D01*
X217146190Y-53794819D02*
X217146190Y-52794819D01*
X217146190Y-52794819D02*
X217241428Y-52937676D01*
X217241428Y-52937676D02*
X217336666Y-53032914D01*
X217336666Y-53032914D02*
X217431904Y-53080533D01*
X216289047Y-53223390D02*
X216384285Y-53175771D01*
X216384285Y-53175771D02*
X216431904Y-53128152D01*
X216431904Y-53128152D02*
X216479523Y-53032914D01*
X216479523Y-53032914D02*
X216479523Y-52985295D01*
X216479523Y-52985295D02*
X216431904Y-52890057D01*
X216431904Y-52890057D02*
X216384285Y-52842438D01*
X216384285Y-52842438D02*
X216289047Y-52794819D01*
X216289047Y-52794819D02*
X216098571Y-52794819D01*
X216098571Y-52794819D02*
X216003333Y-52842438D01*
X216003333Y-52842438D02*
X215955714Y-52890057D01*
X215955714Y-52890057D02*
X215908095Y-52985295D01*
X215908095Y-52985295D02*
X215908095Y-53032914D01*
X215908095Y-53032914D02*
X215955714Y-53128152D01*
X215955714Y-53128152D02*
X216003333Y-53175771D01*
X216003333Y-53175771D02*
X216098571Y-53223390D01*
X216098571Y-53223390D02*
X216289047Y-53223390D01*
X216289047Y-53223390D02*
X216384285Y-53271009D01*
X216384285Y-53271009D02*
X216431904Y-53318628D01*
X216431904Y-53318628D02*
X216479523Y-53413866D01*
X216479523Y-53413866D02*
X216479523Y-53604342D01*
X216479523Y-53604342D02*
X216431904Y-53699580D01*
X216431904Y-53699580D02*
X216384285Y-53747200D01*
X216384285Y-53747200D02*
X216289047Y-53794819D01*
X216289047Y-53794819D02*
X216098571Y-53794819D01*
X216098571Y-53794819D02*
X216003333Y-53747200D01*
X216003333Y-53747200D02*
X215955714Y-53699580D01*
X215955714Y-53699580D02*
X215908095Y-53604342D01*
X215908095Y-53604342D02*
X215908095Y-53413866D01*
X215908095Y-53413866D02*
X215955714Y-53318628D01*
X215955714Y-53318628D02*
X216003333Y-53271009D01*
X216003333Y-53271009D02*
X216098571Y-53223390D01*
X217590666Y-97228819D02*
X217923999Y-96752628D01*
X218162094Y-97228819D02*
X218162094Y-96228819D01*
X218162094Y-96228819D02*
X217781142Y-96228819D01*
X217781142Y-96228819D02*
X217685904Y-96276438D01*
X217685904Y-96276438D02*
X217638285Y-96324057D01*
X217638285Y-96324057D02*
X217590666Y-96419295D01*
X217590666Y-96419295D02*
X217590666Y-96562152D01*
X217590666Y-96562152D02*
X217638285Y-96657390D01*
X217638285Y-96657390D02*
X217685904Y-96705009D01*
X217685904Y-96705009D02*
X217781142Y-96752628D01*
X217781142Y-96752628D02*
X218162094Y-96752628D01*
X216638285Y-97228819D02*
X217209713Y-97228819D01*
X216923999Y-97228819D02*
X216923999Y-96228819D01*
X216923999Y-96228819D02*
X217019237Y-96371676D01*
X217019237Y-96371676D02*
X217114475Y-96466914D01*
X217114475Y-96466914D02*
X217209713Y-96514533D01*
X217812857Y-91894819D02*
X218146190Y-91418628D01*
X218384285Y-91894819D02*
X218384285Y-90894819D01*
X218384285Y-90894819D02*
X218003333Y-90894819D01*
X218003333Y-90894819D02*
X217908095Y-90942438D01*
X217908095Y-90942438D02*
X217860476Y-90990057D01*
X217860476Y-90990057D02*
X217812857Y-91085295D01*
X217812857Y-91085295D02*
X217812857Y-91228152D01*
X217812857Y-91228152D02*
X217860476Y-91323390D01*
X217860476Y-91323390D02*
X217908095Y-91371009D01*
X217908095Y-91371009D02*
X218003333Y-91418628D01*
X218003333Y-91418628D02*
X218384285Y-91418628D01*
X217479523Y-90894819D02*
X216860476Y-90894819D01*
X216860476Y-90894819D02*
X217193809Y-91275771D01*
X217193809Y-91275771D02*
X217050952Y-91275771D01*
X217050952Y-91275771D02*
X216955714Y-91323390D01*
X216955714Y-91323390D02*
X216908095Y-91371009D01*
X216908095Y-91371009D02*
X216860476Y-91466247D01*
X216860476Y-91466247D02*
X216860476Y-91704342D01*
X216860476Y-91704342D02*
X216908095Y-91799580D01*
X216908095Y-91799580D02*
X216955714Y-91847200D01*
X216955714Y-91847200D02*
X217050952Y-91894819D01*
X217050952Y-91894819D02*
X217336666Y-91894819D01*
X217336666Y-91894819D02*
X217431904Y-91847200D01*
X217431904Y-91847200D02*
X217479523Y-91799580D01*
X215908095Y-91894819D02*
X216479523Y-91894819D01*
X216193809Y-91894819D02*
X216193809Y-90894819D01*
X216193809Y-90894819D02*
X216289047Y-91037676D01*
X216289047Y-91037676D02*
X216384285Y-91132914D01*
X216384285Y-91132914D02*
X216479523Y-91180533D01*
X219082857Y-117294819D02*
X219416190Y-116818628D01*
X219654285Y-117294819D02*
X219654285Y-116294819D01*
X219654285Y-116294819D02*
X219273333Y-116294819D01*
X219273333Y-116294819D02*
X219178095Y-116342438D01*
X219178095Y-116342438D02*
X219130476Y-116390057D01*
X219130476Y-116390057D02*
X219082857Y-116485295D01*
X219082857Y-116485295D02*
X219082857Y-116628152D01*
X219082857Y-116628152D02*
X219130476Y-116723390D01*
X219130476Y-116723390D02*
X219178095Y-116771009D01*
X219178095Y-116771009D02*
X219273333Y-116818628D01*
X219273333Y-116818628D02*
X219654285Y-116818628D01*
X218225714Y-116628152D02*
X218225714Y-117294819D01*
X218463809Y-116247200D02*
X218701904Y-116961485D01*
X218701904Y-116961485D02*
X218082857Y-116961485D01*
X217273333Y-116294819D02*
X217463809Y-116294819D01*
X217463809Y-116294819D02*
X217559047Y-116342438D01*
X217559047Y-116342438D02*
X217606666Y-116390057D01*
X217606666Y-116390057D02*
X217701904Y-116532914D01*
X217701904Y-116532914D02*
X217749523Y-116723390D01*
X217749523Y-116723390D02*
X217749523Y-117104342D01*
X217749523Y-117104342D02*
X217701904Y-117199580D01*
X217701904Y-117199580D02*
X217654285Y-117247200D01*
X217654285Y-117247200D02*
X217559047Y-117294819D01*
X217559047Y-117294819D02*
X217368571Y-117294819D01*
X217368571Y-117294819D02*
X217273333Y-117247200D01*
X217273333Y-117247200D02*
X217225714Y-117199580D01*
X217225714Y-117199580D02*
X217178095Y-117104342D01*
X217178095Y-117104342D02*
X217178095Y-116866247D01*
X217178095Y-116866247D02*
X217225714Y-116771009D01*
X217225714Y-116771009D02*
X217273333Y-116723390D01*
X217273333Y-116723390D02*
X217368571Y-116675771D01*
X217368571Y-116675771D02*
X217559047Y-116675771D01*
X217559047Y-116675771D02*
X217654285Y-116723390D01*
X217654285Y-116723390D02*
X217701904Y-116771009D01*
X217701904Y-116771009D02*
X217749523Y-116866247D01*
X219082857Y-107134819D02*
X219416190Y-106658628D01*
X219654285Y-107134819D02*
X219654285Y-106134819D01*
X219654285Y-106134819D02*
X219273333Y-106134819D01*
X219273333Y-106134819D02*
X219178095Y-106182438D01*
X219178095Y-106182438D02*
X219130476Y-106230057D01*
X219130476Y-106230057D02*
X219082857Y-106325295D01*
X219082857Y-106325295D02*
X219082857Y-106468152D01*
X219082857Y-106468152D02*
X219130476Y-106563390D01*
X219130476Y-106563390D02*
X219178095Y-106611009D01*
X219178095Y-106611009D02*
X219273333Y-106658628D01*
X219273333Y-106658628D02*
X219654285Y-106658628D01*
X218701904Y-106230057D02*
X218654285Y-106182438D01*
X218654285Y-106182438D02*
X218559047Y-106134819D01*
X218559047Y-106134819D02*
X218320952Y-106134819D01*
X218320952Y-106134819D02*
X218225714Y-106182438D01*
X218225714Y-106182438D02*
X218178095Y-106230057D01*
X218178095Y-106230057D02*
X218130476Y-106325295D01*
X218130476Y-106325295D02*
X218130476Y-106420533D01*
X218130476Y-106420533D02*
X218178095Y-106563390D01*
X218178095Y-106563390D02*
X218749523Y-107134819D01*
X218749523Y-107134819D02*
X218130476Y-107134819D01*
X217273333Y-106468152D02*
X217273333Y-107134819D01*
X217511428Y-106087200D02*
X217749523Y-106801485D01*
X217749523Y-106801485D02*
X217130476Y-106801485D01*
X219082857Y-127454819D02*
X219416190Y-126978628D01*
X219654285Y-127454819D02*
X219654285Y-126454819D01*
X219654285Y-126454819D02*
X219273333Y-126454819D01*
X219273333Y-126454819D02*
X219178095Y-126502438D01*
X219178095Y-126502438D02*
X219130476Y-126550057D01*
X219130476Y-126550057D02*
X219082857Y-126645295D01*
X219082857Y-126645295D02*
X219082857Y-126788152D01*
X219082857Y-126788152D02*
X219130476Y-126883390D01*
X219130476Y-126883390D02*
X219178095Y-126931009D01*
X219178095Y-126931009D02*
X219273333Y-126978628D01*
X219273333Y-126978628D02*
X219654285Y-126978628D01*
X218225714Y-126788152D02*
X218225714Y-127454819D01*
X218463809Y-126407200D02*
X218701904Y-127121485D01*
X218701904Y-127121485D02*
X218082857Y-127121485D01*
X217749523Y-126550057D02*
X217701904Y-126502438D01*
X217701904Y-126502438D02*
X217606666Y-126454819D01*
X217606666Y-126454819D02*
X217368571Y-126454819D01*
X217368571Y-126454819D02*
X217273333Y-126502438D01*
X217273333Y-126502438D02*
X217225714Y-126550057D01*
X217225714Y-126550057D02*
X217178095Y-126645295D01*
X217178095Y-126645295D02*
X217178095Y-126740533D01*
X217178095Y-126740533D02*
X217225714Y-126883390D01*
X217225714Y-126883390D02*
X217797142Y-127454819D01*
X217797142Y-127454819D02*
X217178095Y-127454819D01*
X217812857Y-71574819D02*
X218146190Y-71098628D01*
X218384285Y-71574819D02*
X218384285Y-70574819D01*
X218384285Y-70574819D02*
X218003333Y-70574819D01*
X218003333Y-70574819D02*
X217908095Y-70622438D01*
X217908095Y-70622438D02*
X217860476Y-70670057D01*
X217860476Y-70670057D02*
X217812857Y-70765295D01*
X217812857Y-70765295D02*
X217812857Y-70908152D01*
X217812857Y-70908152D02*
X217860476Y-71003390D01*
X217860476Y-71003390D02*
X217908095Y-71051009D01*
X217908095Y-71051009D02*
X218003333Y-71098628D01*
X218003333Y-71098628D02*
X218384285Y-71098628D01*
X217431904Y-70670057D02*
X217384285Y-70622438D01*
X217384285Y-70622438D02*
X217289047Y-70574819D01*
X217289047Y-70574819D02*
X217050952Y-70574819D01*
X217050952Y-70574819D02*
X216955714Y-70622438D01*
X216955714Y-70622438D02*
X216908095Y-70670057D01*
X216908095Y-70670057D02*
X216860476Y-70765295D01*
X216860476Y-70765295D02*
X216860476Y-70860533D01*
X216860476Y-70860533D02*
X216908095Y-71003390D01*
X216908095Y-71003390D02*
X217479523Y-71574819D01*
X217479523Y-71574819D02*
X216860476Y-71574819D01*
X215908095Y-71574819D02*
X216479523Y-71574819D01*
X216193809Y-71574819D02*
X216193809Y-70574819D01*
X216193809Y-70574819D02*
X216289047Y-70717676D01*
X216289047Y-70717676D02*
X216384285Y-70812914D01*
X216384285Y-70812914D02*
X216479523Y-70860533D01*
X217812857Y-63954819D02*
X218146190Y-63478628D01*
X218384285Y-63954819D02*
X218384285Y-62954819D01*
X218384285Y-62954819D02*
X218003333Y-62954819D01*
X218003333Y-62954819D02*
X217908095Y-63002438D01*
X217908095Y-63002438D02*
X217860476Y-63050057D01*
X217860476Y-63050057D02*
X217812857Y-63145295D01*
X217812857Y-63145295D02*
X217812857Y-63288152D01*
X217812857Y-63288152D02*
X217860476Y-63383390D01*
X217860476Y-63383390D02*
X217908095Y-63431009D01*
X217908095Y-63431009D02*
X218003333Y-63478628D01*
X218003333Y-63478628D02*
X218384285Y-63478628D01*
X216908095Y-62954819D02*
X217384285Y-62954819D01*
X217384285Y-62954819D02*
X217431904Y-63431009D01*
X217431904Y-63431009D02*
X217384285Y-63383390D01*
X217384285Y-63383390D02*
X217289047Y-63335771D01*
X217289047Y-63335771D02*
X217050952Y-63335771D01*
X217050952Y-63335771D02*
X216955714Y-63383390D01*
X216955714Y-63383390D02*
X216908095Y-63431009D01*
X216908095Y-63431009D02*
X216860476Y-63526247D01*
X216860476Y-63526247D02*
X216860476Y-63764342D01*
X216860476Y-63764342D02*
X216908095Y-63859580D01*
X216908095Y-63859580D02*
X216955714Y-63907200D01*
X216955714Y-63907200D02*
X217050952Y-63954819D01*
X217050952Y-63954819D02*
X217289047Y-63954819D01*
X217289047Y-63954819D02*
X217384285Y-63907200D01*
X217384285Y-63907200D02*
X217431904Y-63859580D01*
X215955714Y-62954819D02*
X216431904Y-62954819D01*
X216431904Y-62954819D02*
X216479523Y-63431009D01*
X216479523Y-63431009D02*
X216431904Y-63383390D01*
X216431904Y-63383390D02*
X216336666Y-63335771D01*
X216336666Y-63335771D02*
X216098571Y-63335771D01*
X216098571Y-63335771D02*
X216003333Y-63383390D01*
X216003333Y-63383390D02*
X215955714Y-63431009D01*
X215955714Y-63431009D02*
X215908095Y-63526247D01*
X215908095Y-63526247D02*
X215908095Y-63764342D01*
X215908095Y-63764342D02*
X215955714Y-63859580D01*
X215955714Y-63859580D02*
X216003333Y-63907200D01*
X216003333Y-63907200D02*
X216098571Y-63954819D01*
X216098571Y-63954819D02*
X216336666Y-63954819D01*
X216336666Y-63954819D02*
X216431904Y-63907200D01*
X216431904Y-63907200D02*
X216479523Y-63859580D01*
X217812857Y-56334819D02*
X218146190Y-55858628D01*
X218384285Y-56334819D02*
X218384285Y-55334819D01*
X218384285Y-55334819D02*
X218003333Y-55334819D01*
X218003333Y-55334819D02*
X217908095Y-55382438D01*
X217908095Y-55382438D02*
X217860476Y-55430057D01*
X217860476Y-55430057D02*
X217812857Y-55525295D01*
X217812857Y-55525295D02*
X217812857Y-55668152D01*
X217812857Y-55668152D02*
X217860476Y-55763390D01*
X217860476Y-55763390D02*
X217908095Y-55811009D01*
X217908095Y-55811009D02*
X218003333Y-55858628D01*
X218003333Y-55858628D02*
X218384285Y-55858628D01*
X216860476Y-56334819D02*
X217431904Y-56334819D01*
X217146190Y-56334819D02*
X217146190Y-55334819D01*
X217146190Y-55334819D02*
X217241428Y-55477676D01*
X217241428Y-55477676D02*
X217336666Y-55572914D01*
X217336666Y-55572914D02*
X217431904Y-55620533D01*
X216003333Y-55334819D02*
X216193809Y-55334819D01*
X216193809Y-55334819D02*
X216289047Y-55382438D01*
X216289047Y-55382438D02*
X216336666Y-55430057D01*
X216336666Y-55430057D02*
X216431904Y-55572914D01*
X216431904Y-55572914D02*
X216479523Y-55763390D01*
X216479523Y-55763390D02*
X216479523Y-56144342D01*
X216479523Y-56144342D02*
X216431904Y-56239580D01*
X216431904Y-56239580D02*
X216384285Y-56287200D01*
X216384285Y-56287200D02*
X216289047Y-56334819D01*
X216289047Y-56334819D02*
X216098571Y-56334819D01*
X216098571Y-56334819D02*
X216003333Y-56287200D01*
X216003333Y-56287200D02*
X215955714Y-56239580D01*
X215955714Y-56239580D02*
X215908095Y-56144342D01*
X215908095Y-56144342D02*
X215908095Y-55906247D01*
X215908095Y-55906247D02*
X215955714Y-55811009D01*
X215955714Y-55811009D02*
X216003333Y-55763390D01*
X216003333Y-55763390D02*
X216098571Y-55715771D01*
X216098571Y-55715771D02*
X216289047Y-55715771D01*
X216289047Y-55715771D02*
X216384285Y-55763390D01*
X216384285Y-55763390D02*
X216431904Y-55811009D01*
X216431904Y-55811009D02*
X216479523Y-55906247D01*
X217336666Y-86814819D02*
X217669999Y-86338628D01*
X217908094Y-86814819D02*
X217908094Y-85814819D01*
X217908094Y-85814819D02*
X217527142Y-85814819D01*
X217527142Y-85814819D02*
X217431904Y-85862438D01*
X217431904Y-85862438D02*
X217384285Y-85910057D01*
X217384285Y-85910057D02*
X217336666Y-86005295D01*
X217336666Y-86005295D02*
X217336666Y-86148152D01*
X217336666Y-86148152D02*
X217384285Y-86243390D01*
X217384285Y-86243390D02*
X217431904Y-86291009D01*
X217431904Y-86291009D02*
X217527142Y-86338628D01*
X217527142Y-86338628D02*
X217908094Y-86338628D01*
X216479523Y-86148152D02*
X216479523Y-86814819D01*
X216717618Y-85767200D02*
X216955713Y-86481485D01*
X216955713Y-86481485D02*
X216336666Y-86481485D01*
X217812857Y-79194819D02*
X218146190Y-78718628D01*
X218384285Y-79194819D02*
X218384285Y-78194819D01*
X218384285Y-78194819D02*
X218003333Y-78194819D01*
X218003333Y-78194819D02*
X217908095Y-78242438D01*
X217908095Y-78242438D02*
X217860476Y-78290057D01*
X217860476Y-78290057D02*
X217812857Y-78385295D01*
X217812857Y-78385295D02*
X217812857Y-78528152D01*
X217812857Y-78528152D02*
X217860476Y-78623390D01*
X217860476Y-78623390D02*
X217908095Y-78671009D01*
X217908095Y-78671009D02*
X218003333Y-78718628D01*
X218003333Y-78718628D02*
X218384285Y-78718628D01*
X216860476Y-79194819D02*
X217431904Y-79194819D01*
X217146190Y-79194819D02*
X217146190Y-78194819D01*
X217146190Y-78194819D02*
X217241428Y-78337676D01*
X217241428Y-78337676D02*
X217336666Y-78432914D01*
X217336666Y-78432914D02*
X217431904Y-78480533D01*
X216241428Y-78194819D02*
X216146190Y-78194819D01*
X216146190Y-78194819D02*
X216050952Y-78242438D01*
X216050952Y-78242438D02*
X216003333Y-78290057D01*
X216003333Y-78290057D02*
X215955714Y-78385295D01*
X215955714Y-78385295D02*
X215908095Y-78575771D01*
X215908095Y-78575771D02*
X215908095Y-78813866D01*
X215908095Y-78813866D02*
X215955714Y-79004342D01*
X215955714Y-79004342D02*
X216003333Y-79099580D01*
X216003333Y-79099580D02*
X216050952Y-79147200D01*
X216050952Y-79147200D02*
X216146190Y-79194819D01*
X216146190Y-79194819D02*
X216241428Y-79194819D01*
X216241428Y-79194819D02*
X216336666Y-79147200D01*
X216336666Y-79147200D02*
X216384285Y-79099580D01*
X216384285Y-79099580D02*
X216431904Y-79004342D01*
X216431904Y-79004342D02*
X216479523Y-78813866D01*
X216479523Y-78813866D02*
X216479523Y-78575771D01*
X216479523Y-78575771D02*
X216431904Y-78385295D01*
X216431904Y-78385295D02*
X216384285Y-78290057D01*
X216384285Y-78290057D02*
X216336666Y-78242438D01*
X216336666Y-78242438D02*
X216241428Y-78194819D01*
X217812857Y-89354819D02*
X218146190Y-88878628D01*
X218384285Y-89354819D02*
X218384285Y-88354819D01*
X218384285Y-88354819D02*
X218003333Y-88354819D01*
X218003333Y-88354819D02*
X217908095Y-88402438D01*
X217908095Y-88402438D02*
X217860476Y-88450057D01*
X217860476Y-88450057D02*
X217812857Y-88545295D01*
X217812857Y-88545295D02*
X217812857Y-88688152D01*
X217812857Y-88688152D02*
X217860476Y-88783390D01*
X217860476Y-88783390D02*
X217908095Y-88831009D01*
X217908095Y-88831009D02*
X218003333Y-88878628D01*
X218003333Y-88878628D02*
X218384285Y-88878628D01*
X217479523Y-88354819D02*
X216860476Y-88354819D01*
X216860476Y-88354819D02*
X217193809Y-88735771D01*
X217193809Y-88735771D02*
X217050952Y-88735771D01*
X217050952Y-88735771D02*
X216955714Y-88783390D01*
X216955714Y-88783390D02*
X216908095Y-88831009D01*
X216908095Y-88831009D02*
X216860476Y-88926247D01*
X216860476Y-88926247D02*
X216860476Y-89164342D01*
X216860476Y-89164342D02*
X216908095Y-89259580D01*
X216908095Y-89259580D02*
X216955714Y-89307200D01*
X216955714Y-89307200D02*
X217050952Y-89354819D01*
X217050952Y-89354819D02*
X217336666Y-89354819D01*
X217336666Y-89354819D02*
X217431904Y-89307200D01*
X217431904Y-89307200D02*
X217479523Y-89259580D01*
X216527142Y-88354819D02*
X215908095Y-88354819D01*
X215908095Y-88354819D02*
X216241428Y-88735771D01*
X216241428Y-88735771D02*
X216098571Y-88735771D01*
X216098571Y-88735771D02*
X216003333Y-88783390D01*
X216003333Y-88783390D02*
X215955714Y-88831009D01*
X215955714Y-88831009D02*
X215908095Y-88926247D01*
X215908095Y-88926247D02*
X215908095Y-89164342D01*
X215908095Y-89164342D02*
X215955714Y-89259580D01*
X215955714Y-89259580D02*
X216003333Y-89307200D01*
X216003333Y-89307200D02*
X216098571Y-89354819D01*
X216098571Y-89354819D02*
X216384285Y-89354819D01*
X216384285Y-89354819D02*
X216479523Y-89307200D01*
X216479523Y-89307200D02*
X216527142Y-89259580D01*
X217812857Y-74114819D02*
X218146190Y-73638628D01*
X218384285Y-74114819D02*
X218384285Y-73114819D01*
X218384285Y-73114819D02*
X218003333Y-73114819D01*
X218003333Y-73114819D02*
X217908095Y-73162438D01*
X217908095Y-73162438D02*
X217860476Y-73210057D01*
X217860476Y-73210057D02*
X217812857Y-73305295D01*
X217812857Y-73305295D02*
X217812857Y-73448152D01*
X217812857Y-73448152D02*
X217860476Y-73543390D01*
X217860476Y-73543390D02*
X217908095Y-73591009D01*
X217908095Y-73591009D02*
X218003333Y-73638628D01*
X218003333Y-73638628D02*
X218384285Y-73638628D01*
X217431904Y-73210057D02*
X217384285Y-73162438D01*
X217384285Y-73162438D02*
X217289047Y-73114819D01*
X217289047Y-73114819D02*
X217050952Y-73114819D01*
X217050952Y-73114819D02*
X216955714Y-73162438D01*
X216955714Y-73162438D02*
X216908095Y-73210057D01*
X216908095Y-73210057D02*
X216860476Y-73305295D01*
X216860476Y-73305295D02*
X216860476Y-73400533D01*
X216860476Y-73400533D02*
X216908095Y-73543390D01*
X216908095Y-73543390D02*
X217479523Y-74114819D01*
X217479523Y-74114819D02*
X216860476Y-74114819D01*
X216479523Y-73210057D02*
X216431904Y-73162438D01*
X216431904Y-73162438D02*
X216336666Y-73114819D01*
X216336666Y-73114819D02*
X216098571Y-73114819D01*
X216098571Y-73114819D02*
X216003333Y-73162438D01*
X216003333Y-73162438D02*
X215955714Y-73210057D01*
X215955714Y-73210057D02*
X215908095Y-73305295D01*
X215908095Y-73305295D02*
X215908095Y-73400533D01*
X215908095Y-73400533D02*
X215955714Y-73543390D01*
X215955714Y-73543390D02*
X216527142Y-74114819D01*
X216527142Y-74114819D02*
X215908095Y-74114819D01*
X217812857Y-61414819D02*
X218146190Y-60938628D01*
X218384285Y-61414819D02*
X218384285Y-60414819D01*
X218384285Y-60414819D02*
X218003333Y-60414819D01*
X218003333Y-60414819D02*
X217908095Y-60462438D01*
X217908095Y-60462438D02*
X217860476Y-60510057D01*
X217860476Y-60510057D02*
X217812857Y-60605295D01*
X217812857Y-60605295D02*
X217812857Y-60748152D01*
X217812857Y-60748152D02*
X217860476Y-60843390D01*
X217860476Y-60843390D02*
X217908095Y-60891009D01*
X217908095Y-60891009D02*
X218003333Y-60938628D01*
X218003333Y-60938628D02*
X218384285Y-60938628D01*
X216860476Y-61414819D02*
X217431904Y-61414819D01*
X217146190Y-61414819D02*
X217146190Y-60414819D01*
X217146190Y-60414819D02*
X217241428Y-60557676D01*
X217241428Y-60557676D02*
X217336666Y-60652914D01*
X217336666Y-60652914D02*
X217431904Y-60700533D01*
X216479523Y-60510057D02*
X216431904Y-60462438D01*
X216431904Y-60462438D02*
X216336666Y-60414819D01*
X216336666Y-60414819D02*
X216098571Y-60414819D01*
X216098571Y-60414819D02*
X216003333Y-60462438D01*
X216003333Y-60462438D02*
X215955714Y-60510057D01*
X215955714Y-60510057D02*
X215908095Y-60605295D01*
X215908095Y-60605295D02*
X215908095Y-60700533D01*
X215908095Y-60700533D02*
X215955714Y-60843390D01*
X215955714Y-60843390D02*
X216527142Y-61414819D01*
X216527142Y-61414819D02*
X215908095Y-61414819D01*
X217812857Y-69034819D02*
X218146190Y-68558628D01*
X218384285Y-69034819D02*
X218384285Y-68034819D01*
X218384285Y-68034819D02*
X218003333Y-68034819D01*
X218003333Y-68034819D02*
X217908095Y-68082438D01*
X217908095Y-68082438D02*
X217860476Y-68130057D01*
X217860476Y-68130057D02*
X217812857Y-68225295D01*
X217812857Y-68225295D02*
X217812857Y-68368152D01*
X217812857Y-68368152D02*
X217860476Y-68463390D01*
X217860476Y-68463390D02*
X217908095Y-68511009D01*
X217908095Y-68511009D02*
X218003333Y-68558628D01*
X218003333Y-68558628D02*
X218384285Y-68558628D01*
X217479523Y-68034819D02*
X216860476Y-68034819D01*
X216860476Y-68034819D02*
X217193809Y-68415771D01*
X217193809Y-68415771D02*
X217050952Y-68415771D01*
X217050952Y-68415771D02*
X216955714Y-68463390D01*
X216955714Y-68463390D02*
X216908095Y-68511009D01*
X216908095Y-68511009D02*
X216860476Y-68606247D01*
X216860476Y-68606247D02*
X216860476Y-68844342D01*
X216860476Y-68844342D02*
X216908095Y-68939580D01*
X216908095Y-68939580D02*
X216955714Y-68987200D01*
X216955714Y-68987200D02*
X217050952Y-69034819D01*
X217050952Y-69034819D02*
X217336666Y-69034819D01*
X217336666Y-69034819D02*
X217431904Y-68987200D01*
X217431904Y-68987200D02*
X217479523Y-68939580D01*
X215955714Y-68034819D02*
X216431904Y-68034819D01*
X216431904Y-68034819D02*
X216479523Y-68511009D01*
X216479523Y-68511009D02*
X216431904Y-68463390D01*
X216431904Y-68463390D02*
X216336666Y-68415771D01*
X216336666Y-68415771D02*
X216098571Y-68415771D01*
X216098571Y-68415771D02*
X216003333Y-68463390D01*
X216003333Y-68463390D02*
X215955714Y-68511009D01*
X215955714Y-68511009D02*
X215908095Y-68606247D01*
X215908095Y-68606247D02*
X215908095Y-68844342D01*
X215908095Y-68844342D02*
X215955714Y-68939580D01*
X215955714Y-68939580D02*
X216003333Y-68987200D01*
X216003333Y-68987200D02*
X216098571Y-69034819D01*
X216098571Y-69034819D02*
X216336666Y-69034819D01*
X216336666Y-69034819D02*
X216431904Y-68987200D01*
X216431904Y-68987200D02*
X216479523Y-68939580D01*
X219082857Y-104594819D02*
X219416190Y-104118628D01*
X219654285Y-104594819D02*
X219654285Y-103594819D01*
X219654285Y-103594819D02*
X219273333Y-103594819D01*
X219273333Y-103594819D02*
X219178095Y-103642438D01*
X219178095Y-103642438D02*
X219130476Y-103690057D01*
X219130476Y-103690057D02*
X219082857Y-103785295D01*
X219082857Y-103785295D02*
X219082857Y-103928152D01*
X219082857Y-103928152D02*
X219130476Y-104023390D01*
X219130476Y-104023390D02*
X219178095Y-104071009D01*
X219178095Y-104071009D02*
X219273333Y-104118628D01*
X219273333Y-104118628D02*
X219654285Y-104118628D01*
X218701904Y-103690057D02*
X218654285Y-103642438D01*
X218654285Y-103642438D02*
X218559047Y-103594819D01*
X218559047Y-103594819D02*
X218320952Y-103594819D01*
X218320952Y-103594819D02*
X218225714Y-103642438D01*
X218225714Y-103642438D02*
X218178095Y-103690057D01*
X218178095Y-103690057D02*
X218130476Y-103785295D01*
X218130476Y-103785295D02*
X218130476Y-103880533D01*
X218130476Y-103880533D02*
X218178095Y-104023390D01*
X218178095Y-104023390D02*
X218749523Y-104594819D01*
X218749523Y-104594819D02*
X218130476Y-104594819D01*
X217797142Y-103594819D02*
X217178095Y-103594819D01*
X217178095Y-103594819D02*
X217511428Y-103975771D01*
X217511428Y-103975771D02*
X217368571Y-103975771D01*
X217368571Y-103975771D02*
X217273333Y-104023390D01*
X217273333Y-104023390D02*
X217225714Y-104071009D01*
X217225714Y-104071009D02*
X217178095Y-104166247D01*
X217178095Y-104166247D02*
X217178095Y-104404342D01*
X217178095Y-104404342D02*
X217225714Y-104499580D01*
X217225714Y-104499580D02*
X217273333Y-104547200D01*
X217273333Y-104547200D02*
X217368571Y-104594819D01*
X217368571Y-104594819D02*
X217654285Y-104594819D01*
X217654285Y-104594819D02*
X217749523Y-104547200D01*
X217749523Y-104547200D02*
X217797142Y-104499580D01*
X219082857Y-109674819D02*
X219416190Y-109198628D01*
X219654285Y-109674819D02*
X219654285Y-108674819D01*
X219654285Y-108674819D02*
X219273333Y-108674819D01*
X219273333Y-108674819D02*
X219178095Y-108722438D01*
X219178095Y-108722438D02*
X219130476Y-108770057D01*
X219130476Y-108770057D02*
X219082857Y-108865295D01*
X219082857Y-108865295D02*
X219082857Y-109008152D01*
X219082857Y-109008152D02*
X219130476Y-109103390D01*
X219130476Y-109103390D02*
X219178095Y-109151009D01*
X219178095Y-109151009D02*
X219273333Y-109198628D01*
X219273333Y-109198628D02*
X219654285Y-109198628D01*
X218701904Y-108770057D02*
X218654285Y-108722438D01*
X218654285Y-108722438D02*
X218559047Y-108674819D01*
X218559047Y-108674819D02*
X218320952Y-108674819D01*
X218320952Y-108674819D02*
X218225714Y-108722438D01*
X218225714Y-108722438D02*
X218178095Y-108770057D01*
X218178095Y-108770057D02*
X218130476Y-108865295D01*
X218130476Y-108865295D02*
X218130476Y-108960533D01*
X218130476Y-108960533D02*
X218178095Y-109103390D01*
X218178095Y-109103390D02*
X218749523Y-109674819D01*
X218749523Y-109674819D02*
X218130476Y-109674819D01*
X217797142Y-108674819D02*
X217130476Y-108674819D01*
X217130476Y-108674819D02*
X217559047Y-109674819D01*
X217812857Y-99514819D02*
X218146190Y-99038628D01*
X218384285Y-99514819D02*
X218384285Y-98514819D01*
X218384285Y-98514819D02*
X218003333Y-98514819D01*
X218003333Y-98514819D02*
X217908095Y-98562438D01*
X217908095Y-98562438D02*
X217860476Y-98610057D01*
X217860476Y-98610057D02*
X217812857Y-98705295D01*
X217812857Y-98705295D02*
X217812857Y-98848152D01*
X217812857Y-98848152D02*
X217860476Y-98943390D01*
X217860476Y-98943390D02*
X217908095Y-98991009D01*
X217908095Y-98991009D02*
X218003333Y-99038628D01*
X218003333Y-99038628D02*
X218384285Y-99038628D01*
X216908095Y-98514819D02*
X217384285Y-98514819D01*
X217384285Y-98514819D02*
X217431904Y-98991009D01*
X217431904Y-98991009D02*
X217384285Y-98943390D01*
X217384285Y-98943390D02*
X217289047Y-98895771D01*
X217289047Y-98895771D02*
X217050952Y-98895771D01*
X217050952Y-98895771D02*
X216955714Y-98943390D01*
X216955714Y-98943390D02*
X216908095Y-98991009D01*
X216908095Y-98991009D02*
X216860476Y-99086247D01*
X216860476Y-99086247D02*
X216860476Y-99324342D01*
X216860476Y-99324342D02*
X216908095Y-99419580D01*
X216908095Y-99419580D02*
X216955714Y-99467200D01*
X216955714Y-99467200D02*
X217050952Y-99514819D01*
X217050952Y-99514819D02*
X217289047Y-99514819D01*
X217289047Y-99514819D02*
X217384285Y-99467200D01*
X217384285Y-99467200D02*
X217431904Y-99419580D01*
X216003333Y-98848152D02*
X216003333Y-99514819D01*
X216241428Y-98467200D02*
X216479523Y-99181485D01*
X216479523Y-99181485D02*
X215860476Y-99181485D01*
X217336666Y-81734819D02*
X217669999Y-81258628D01*
X217908094Y-81734819D02*
X217908094Y-80734819D01*
X217908094Y-80734819D02*
X217527142Y-80734819D01*
X217527142Y-80734819D02*
X217431904Y-80782438D01*
X217431904Y-80782438D02*
X217384285Y-80830057D01*
X217384285Y-80830057D02*
X217336666Y-80925295D01*
X217336666Y-80925295D02*
X217336666Y-81068152D01*
X217336666Y-81068152D02*
X217384285Y-81163390D01*
X217384285Y-81163390D02*
X217431904Y-81211009D01*
X217431904Y-81211009D02*
X217527142Y-81258628D01*
X217527142Y-81258628D02*
X217908094Y-81258628D01*
X216765237Y-81163390D02*
X216860475Y-81115771D01*
X216860475Y-81115771D02*
X216908094Y-81068152D01*
X216908094Y-81068152D02*
X216955713Y-80972914D01*
X216955713Y-80972914D02*
X216955713Y-80925295D01*
X216955713Y-80925295D02*
X216908094Y-80830057D01*
X216908094Y-80830057D02*
X216860475Y-80782438D01*
X216860475Y-80782438D02*
X216765237Y-80734819D01*
X216765237Y-80734819D02*
X216574761Y-80734819D01*
X216574761Y-80734819D02*
X216479523Y-80782438D01*
X216479523Y-80782438D02*
X216431904Y-80830057D01*
X216431904Y-80830057D02*
X216384285Y-80925295D01*
X216384285Y-80925295D02*
X216384285Y-80972914D01*
X216384285Y-80972914D02*
X216431904Y-81068152D01*
X216431904Y-81068152D02*
X216479523Y-81115771D01*
X216479523Y-81115771D02*
X216574761Y-81163390D01*
X216574761Y-81163390D02*
X216765237Y-81163390D01*
X216765237Y-81163390D02*
X216860475Y-81211009D01*
X216860475Y-81211009D02*
X216908094Y-81258628D01*
X216908094Y-81258628D02*
X216955713Y-81353866D01*
X216955713Y-81353866D02*
X216955713Y-81544342D01*
X216955713Y-81544342D02*
X216908094Y-81639580D01*
X216908094Y-81639580D02*
X216860475Y-81687200D01*
X216860475Y-81687200D02*
X216765237Y-81734819D01*
X216765237Y-81734819D02*
X216574761Y-81734819D01*
X216574761Y-81734819D02*
X216479523Y-81687200D01*
X216479523Y-81687200D02*
X216431904Y-81639580D01*
X216431904Y-81639580D02*
X216384285Y-81544342D01*
X216384285Y-81544342D02*
X216384285Y-81353866D01*
X216384285Y-81353866D02*
X216431904Y-81258628D01*
X216431904Y-81258628D02*
X216479523Y-81211009D01*
X216479523Y-81211009D02*
X216574761Y-81163390D01*
X219082857Y-112214819D02*
X219416190Y-111738628D01*
X219654285Y-112214819D02*
X219654285Y-111214819D01*
X219654285Y-111214819D02*
X219273333Y-111214819D01*
X219273333Y-111214819D02*
X219178095Y-111262438D01*
X219178095Y-111262438D02*
X219130476Y-111310057D01*
X219130476Y-111310057D02*
X219082857Y-111405295D01*
X219082857Y-111405295D02*
X219082857Y-111548152D01*
X219082857Y-111548152D02*
X219130476Y-111643390D01*
X219130476Y-111643390D02*
X219178095Y-111691009D01*
X219178095Y-111691009D02*
X219273333Y-111738628D01*
X219273333Y-111738628D02*
X219654285Y-111738628D01*
X218225714Y-111548152D02*
X218225714Y-112214819D01*
X218463809Y-111167200D02*
X218701904Y-111881485D01*
X218701904Y-111881485D02*
X218082857Y-111881485D01*
X217654285Y-112214819D02*
X217463809Y-112214819D01*
X217463809Y-112214819D02*
X217368571Y-112167200D01*
X217368571Y-112167200D02*
X217320952Y-112119580D01*
X217320952Y-112119580D02*
X217225714Y-111976723D01*
X217225714Y-111976723D02*
X217178095Y-111786247D01*
X217178095Y-111786247D02*
X217178095Y-111405295D01*
X217178095Y-111405295D02*
X217225714Y-111310057D01*
X217225714Y-111310057D02*
X217273333Y-111262438D01*
X217273333Y-111262438D02*
X217368571Y-111214819D01*
X217368571Y-111214819D02*
X217559047Y-111214819D01*
X217559047Y-111214819D02*
X217654285Y-111262438D01*
X217654285Y-111262438D02*
X217701904Y-111310057D01*
X217701904Y-111310057D02*
X217749523Y-111405295D01*
X217749523Y-111405295D02*
X217749523Y-111643390D01*
X217749523Y-111643390D02*
X217701904Y-111738628D01*
X217701904Y-111738628D02*
X217654285Y-111786247D01*
X217654285Y-111786247D02*
X217559047Y-111833866D01*
X217559047Y-111833866D02*
X217368571Y-111833866D01*
X217368571Y-111833866D02*
X217273333Y-111786247D01*
X217273333Y-111786247D02*
X217225714Y-111738628D01*
X217225714Y-111738628D02*
X217178095Y-111643390D01*
X217812857Y-58874819D02*
X218146190Y-58398628D01*
X218384285Y-58874819D02*
X218384285Y-57874819D01*
X218384285Y-57874819D02*
X218003333Y-57874819D01*
X218003333Y-57874819D02*
X217908095Y-57922438D01*
X217908095Y-57922438D02*
X217860476Y-57970057D01*
X217860476Y-57970057D02*
X217812857Y-58065295D01*
X217812857Y-58065295D02*
X217812857Y-58208152D01*
X217812857Y-58208152D02*
X217860476Y-58303390D01*
X217860476Y-58303390D02*
X217908095Y-58351009D01*
X217908095Y-58351009D02*
X218003333Y-58398628D01*
X218003333Y-58398628D02*
X218384285Y-58398628D01*
X216860476Y-58874819D02*
X217431904Y-58874819D01*
X217146190Y-58874819D02*
X217146190Y-57874819D01*
X217146190Y-57874819D02*
X217241428Y-58017676D01*
X217241428Y-58017676D02*
X217336666Y-58112914D01*
X217336666Y-58112914D02*
X217431904Y-58160533D01*
X216003333Y-58208152D02*
X216003333Y-58874819D01*
X216241428Y-57827200D02*
X216479523Y-58541485D01*
X216479523Y-58541485D02*
X215860476Y-58541485D01*
X219082857Y-119834819D02*
X219416190Y-119358628D01*
X219654285Y-119834819D02*
X219654285Y-118834819D01*
X219654285Y-118834819D02*
X219273333Y-118834819D01*
X219273333Y-118834819D02*
X219178095Y-118882438D01*
X219178095Y-118882438D02*
X219130476Y-118930057D01*
X219130476Y-118930057D02*
X219082857Y-119025295D01*
X219082857Y-119025295D02*
X219082857Y-119168152D01*
X219082857Y-119168152D02*
X219130476Y-119263390D01*
X219130476Y-119263390D02*
X219178095Y-119311009D01*
X219178095Y-119311009D02*
X219273333Y-119358628D01*
X219273333Y-119358628D02*
X219654285Y-119358628D01*
X218225714Y-119168152D02*
X218225714Y-119834819D01*
X218463809Y-118787200D02*
X218701904Y-119501485D01*
X218701904Y-119501485D02*
X218082857Y-119501485D01*
X217225714Y-118834819D02*
X217701904Y-118834819D01*
X217701904Y-118834819D02*
X217749523Y-119311009D01*
X217749523Y-119311009D02*
X217701904Y-119263390D01*
X217701904Y-119263390D02*
X217606666Y-119215771D01*
X217606666Y-119215771D02*
X217368571Y-119215771D01*
X217368571Y-119215771D02*
X217273333Y-119263390D01*
X217273333Y-119263390D02*
X217225714Y-119311009D01*
X217225714Y-119311009D02*
X217178095Y-119406247D01*
X217178095Y-119406247D02*
X217178095Y-119644342D01*
X217178095Y-119644342D02*
X217225714Y-119739580D01*
X217225714Y-119739580D02*
X217273333Y-119787200D01*
X217273333Y-119787200D02*
X217368571Y-119834819D01*
X217368571Y-119834819D02*
X217606666Y-119834819D01*
X217606666Y-119834819D02*
X217701904Y-119787200D01*
X217701904Y-119787200D02*
X217749523Y-119739580D01*
X219082857Y-129994819D02*
X219416190Y-129518628D01*
X219654285Y-129994819D02*
X219654285Y-128994819D01*
X219654285Y-128994819D02*
X219273333Y-128994819D01*
X219273333Y-128994819D02*
X219178095Y-129042438D01*
X219178095Y-129042438D02*
X219130476Y-129090057D01*
X219130476Y-129090057D02*
X219082857Y-129185295D01*
X219082857Y-129185295D02*
X219082857Y-129328152D01*
X219082857Y-129328152D02*
X219130476Y-129423390D01*
X219130476Y-129423390D02*
X219178095Y-129471009D01*
X219178095Y-129471009D02*
X219273333Y-129518628D01*
X219273333Y-129518628D02*
X219654285Y-129518628D01*
X218749523Y-128994819D02*
X218130476Y-128994819D01*
X218130476Y-128994819D02*
X218463809Y-129375771D01*
X218463809Y-129375771D02*
X218320952Y-129375771D01*
X218320952Y-129375771D02*
X218225714Y-129423390D01*
X218225714Y-129423390D02*
X218178095Y-129471009D01*
X218178095Y-129471009D02*
X218130476Y-129566247D01*
X218130476Y-129566247D02*
X218130476Y-129804342D01*
X218130476Y-129804342D02*
X218178095Y-129899580D01*
X218178095Y-129899580D02*
X218225714Y-129947200D01*
X218225714Y-129947200D02*
X218320952Y-129994819D01*
X218320952Y-129994819D02*
X218606666Y-129994819D01*
X218606666Y-129994819D02*
X218701904Y-129947200D01*
X218701904Y-129947200D02*
X218749523Y-129899580D01*
X217273333Y-129328152D02*
X217273333Y-129994819D01*
X217511428Y-128947200D02*
X217749523Y-129661485D01*
X217749523Y-129661485D02*
X217130476Y-129661485D01*
X217336666Y-84274819D02*
X217669999Y-83798628D01*
X217908094Y-84274819D02*
X217908094Y-83274819D01*
X217908094Y-83274819D02*
X217527142Y-83274819D01*
X217527142Y-83274819D02*
X217431904Y-83322438D01*
X217431904Y-83322438D02*
X217384285Y-83370057D01*
X217384285Y-83370057D02*
X217336666Y-83465295D01*
X217336666Y-83465295D02*
X217336666Y-83608152D01*
X217336666Y-83608152D02*
X217384285Y-83703390D01*
X217384285Y-83703390D02*
X217431904Y-83751009D01*
X217431904Y-83751009D02*
X217527142Y-83798628D01*
X217527142Y-83798628D02*
X217908094Y-83798628D01*
X216479523Y-83274819D02*
X216669999Y-83274819D01*
X216669999Y-83274819D02*
X216765237Y-83322438D01*
X216765237Y-83322438D02*
X216812856Y-83370057D01*
X216812856Y-83370057D02*
X216908094Y-83512914D01*
X216908094Y-83512914D02*
X216955713Y-83703390D01*
X216955713Y-83703390D02*
X216955713Y-84084342D01*
X216955713Y-84084342D02*
X216908094Y-84179580D01*
X216908094Y-84179580D02*
X216860475Y-84227200D01*
X216860475Y-84227200D02*
X216765237Y-84274819D01*
X216765237Y-84274819D02*
X216574761Y-84274819D01*
X216574761Y-84274819D02*
X216479523Y-84227200D01*
X216479523Y-84227200D02*
X216431904Y-84179580D01*
X216431904Y-84179580D02*
X216384285Y-84084342D01*
X216384285Y-84084342D02*
X216384285Y-83846247D01*
X216384285Y-83846247D02*
X216431904Y-83751009D01*
X216431904Y-83751009D02*
X216479523Y-83703390D01*
X216479523Y-83703390D02*
X216574761Y-83655771D01*
X216574761Y-83655771D02*
X216765237Y-83655771D01*
X216765237Y-83655771D02*
X216860475Y-83703390D01*
X216860475Y-83703390D02*
X216908094Y-83751009D01*
X216908094Y-83751009D02*
X216955713Y-83846247D01*
X219082857Y-122374819D02*
X219416190Y-121898628D01*
X219654285Y-122374819D02*
X219654285Y-121374819D01*
X219654285Y-121374819D02*
X219273333Y-121374819D01*
X219273333Y-121374819D02*
X219178095Y-121422438D01*
X219178095Y-121422438D02*
X219130476Y-121470057D01*
X219130476Y-121470057D02*
X219082857Y-121565295D01*
X219082857Y-121565295D02*
X219082857Y-121708152D01*
X219082857Y-121708152D02*
X219130476Y-121803390D01*
X219130476Y-121803390D02*
X219178095Y-121851009D01*
X219178095Y-121851009D02*
X219273333Y-121898628D01*
X219273333Y-121898628D02*
X219654285Y-121898628D01*
X218225714Y-121708152D02*
X218225714Y-122374819D01*
X218463809Y-121327200D02*
X218701904Y-122041485D01*
X218701904Y-122041485D02*
X218082857Y-122041485D01*
X217273333Y-121708152D02*
X217273333Y-122374819D01*
X217511428Y-121327200D02*
X217749523Y-122041485D01*
X217749523Y-122041485D02*
X217130476Y-122041485D01*
X219082857Y-124914819D02*
X219416190Y-124438628D01*
X219654285Y-124914819D02*
X219654285Y-123914819D01*
X219654285Y-123914819D02*
X219273333Y-123914819D01*
X219273333Y-123914819D02*
X219178095Y-123962438D01*
X219178095Y-123962438D02*
X219130476Y-124010057D01*
X219130476Y-124010057D02*
X219082857Y-124105295D01*
X219082857Y-124105295D02*
X219082857Y-124248152D01*
X219082857Y-124248152D02*
X219130476Y-124343390D01*
X219130476Y-124343390D02*
X219178095Y-124391009D01*
X219178095Y-124391009D02*
X219273333Y-124438628D01*
X219273333Y-124438628D02*
X219654285Y-124438628D01*
X218225714Y-124248152D02*
X218225714Y-124914819D01*
X218463809Y-123867200D02*
X218701904Y-124581485D01*
X218701904Y-124581485D02*
X218082857Y-124581485D01*
X217797142Y-123914819D02*
X217178095Y-123914819D01*
X217178095Y-123914819D02*
X217511428Y-124295771D01*
X217511428Y-124295771D02*
X217368571Y-124295771D01*
X217368571Y-124295771D02*
X217273333Y-124343390D01*
X217273333Y-124343390D02*
X217225714Y-124391009D01*
X217225714Y-124391009D02*
X217178095Y-124486247D01*
X217178095Y-124486247D02*
X217178095Y-124724342D01*
X217178095Y-124724342D02*
X217225714Y-124819580D01*
X217225714Y-124819580D02*
X217273333Y-124867200D01*
X217273333Y-124867200D02*
X217368571Y-124914819D01*
X217368571Y-124914819D02*
X217654285Y-124914819D01*
X217654285Y-124914819D02*
X217749523Y-124867200D01*
X217749523Y-124867200D02*
X217797142Y-124819580D01*
X217812857Y-94434819D02*
X218146190Y-93958628D01*
X218384285Y-94434819D02*
X218384285Y-93434819D01*
X218384285Y-93434819D02*
X218003333Y-93434819D01*
X218003333Y-93434819D02*
X217908095Y-93482438D01*
X217908095Y-93482438D02*
X217860476Y-93530057D01*
X217860476Y-93530057D02*
X217812857Y-93625295D01*
X217812857Y-93625295D02*
X217812857Y-93768152D01*
X217812857Y-93768152D02*
X217860476Y-93863390D01*
X217860476Y-93863390D02*
X217908095Y-93911009D01*
X217908095Y-93911009D02*
X218003333Y-93958628D01*
X218003333Y-93958628D02*
X218384285Y-93958628D01*
X217431904Y-93530057D02*
X217384285Y-93482438D01*
X217384285Y-93482438D02*
X217289047Y-93434819D01*
X217289047Y-93434819D02*
X217050952Y-93434819D01*
X217050952Y-93434819D02*
X216955714Y-93482438D01*
X216955714Y-93482438D02*
X216908095Y-93530057D01*
X216908095Y-93530057D02*
X216860476Y-93625295D01*
X216860476Y-93625295D02*
X216860476Y-93720533D01*
X216860476Y-93720533D02*
X216908095Y-93863390D01*
X216908095Y-93863390D02*
X217479523Y-94434819D01*
X217479523Y-94434819D02*
X216860476Y-94434819D01*
X216384285Y-94434819D02*
X216193809Y-94434819D01*
X216193809Y-94434819D02*
X216098571Y-94387200D01*
X216098571Y-94387200D02*
X216050952Y-94339580D01*
X216050952Y-94339580D02*
X215955714Y-94196723D01*
X215955714Y-94196723D02*
X215908095Y-94006247D01*
X215908095Y-94006247D02*
X215908095Y-93625295D01*
X215908095Y-93625295D02*
X215955714Y-93530057D01*
X215955714Y-93530057D02*
X216003333Y-93482438D01*
X216003333Y-93482438D02*
X216098571Y-93434819D01*
X216098571Y-93434819D02*
X216289047Y-93434819D01*
X216289047Y-93434819D02*
X216384285Y-93482438D01*
X216384285Y-93482438D02*
X216431904Y-93530057D01*
X216431904Y-93530057D02*
X216479523Y-93625295D01*
X216479523Y-93625295D02*
X216479523Y-93863390D01*
X216479523Y-93863390D02*
X216431904Y-93958628D01*
X216431904Y-93958628D02*
X216384285Y-94006247D01*
X216384285Y-94006247D02*
X216289047Y-94053866D01*
X216289047Y-94053866D02*
X216098571Y-94053866D01*
X216098571Y-94053866D02*
X216003333Y-94006247D01*
X216003333Y-94006247D02*
X215955714Y-93958628D01*
X215955714Y-93958628D02*
X215908095Y-93863390D01*
X217812857Y-66494819D02*
X218146190Y-66018628D01*
X218384285Y-66494819D02*
X218384285Y-65494819D01*
X218384285Y-65494819D02*
X218003333Y-65494819D01*
X218003333Y-65494819D02*
X217908095Y-65542438D01*
X217908095Y-65542438D02*
X217860476Y-65590057D01*
X217860476Y-65590057D02*
X217812857Y-65685295D01*
X217812857Y-65685295D02*
X217812857Y-65828152D01*
X217812857Y-65828152D02*
X217860476Y-65923390D01*
X217860476Y-65923390D02*
X217908095Y-65971009D01*
X217908095Y-65971009D02*
X218003333Y-66018628D01*
X218003333Y-66018628D02*
X218384285Y-66018628D01*
X217431904Y-65590057D02*
X217384285Y-65542438D01*
X217384285Y-65542438D02*
X217289047Y-65494819D01*
X217289047Y-65494819D02*
X217050952Y-65494819D01*
X217050952Y-65494819D02*
X216955714Y-65542438D01*
X216955714Y-65542438D02*
X216908095Y-65590057D01*
X216908095Y-65590057D02*
X216860476Y-65685295D01*
X216860476Y-65685295D02*
X216860476Y-65780533D01*
X216860476Y-65780533D02*
X216908095Y-65923390D01*
X216908095Y-65923390D02*
X217479523Y-66494819D01*
X217479523Y-66494819D02*
X216860476Y-66494819D01*
X216003333Y-65494819D02*
X216193809Y-65494819D01*
X216193809Y-65494819D02*
X216289047Y-65542438D01*
X216289047Y-65542438D02*
X216336666Y-65590057D01*
X216336666Y-65590057D02*
X216431904Y-65732914D01*
X216431904Y-65732914D02*
X216479523Y-65923390D01*
X216479523Y-65923390D02*
X216479523Y-66304342D01*
X216479523Y-66304342D02*
X216431904Y-66399580D01*
X216431904Y-66399580D02*
X216384285Y-66447200D01*
X216384285Y-66447200D02*
X216289047Y-66494819D01*
X216289047Y-66494819D02*
X216098571Y-66494819D01*
X216098571Y-66494819D02*
X216003333Y-66447200D01*
X216003333Y-66447200D02*
X215955714Y-66399580D01*
X215955714Y-66399580D02*
X215908095Y-66304342D01*
X215908095Y-66304342D02*
X215908095Y-66066247D01*
X215908095Y-66066247D02*
X215955714Y-65971009D01*
X215955714Y-65971009D02*
X216003333Y-65923390D01*
X216003333Y-65923390D02*
X216098571Y-65875771D01*
X216098571Y-65875771D02*
X216289047Y-65875771D01*
X216289047Y-65875771D02*
X216384285Y-65923390D01*
X216384285Y-65923390D02*
X216431904Y-65971009D01*
X216431904Y-65971009D02*
X216479523Y-66066247D01*
X217812857Y-43634819D02*
X218146190Y-43158628D01*
X218384285Y-43634819D02*
X218384285Y-42634819D01*
X218384285Y-42634819D02*
X218003333Y-42634819D01*
X218003333Y-42634819D02*
X217908095Y-42682438D01*
X217908095Y-42682438D02*
X217860476Y-42730057D01*
X217860476Y-42730057D02*
X217812857Y-42825295D01*
X217812857Y-42825295D02*
X217812857Y-42968152D01*
X217812857Y-42968152D02*
X217860476Y-43063390D01*
X217860476Y-43063390D02*
X217908095Y-43111009D01*
X217908095Y-43111009D02*
X218003333Y-43158628D01*
X218003333Y-43158628D02*
X218384285Y-43158628D01*
X216908095Y-42634819D02*
X217384285Y-42634819D01*
X217384285Y-42634819D02*
X217431904Y-43111009D01*
X217431904Y-43111009D02*
X217384285Y-43063390D01*
X217384285Y-43063390D02*
X217289047Y-43015771D01*
X217289047Y-43015771D02*
X217050952Y-43015771D01*
X217050952Y-43015771D02*
X216955714Y-43063390D01*
X216955714Y-43063390D02*
X216908095Y-43111009D01*
X216908095Y-43111009D02*
X216860476Y-43206247D01*
X216860476Y-43206247D02*
X216860476Y-43444342D01*
X216860476Y-43444342D02*
X216908095Y-43539580D01*
X216908095Y-43539580D02*
X216955714Y-43587200D01*
X216955714Y-43587200D02*
X217050952Y-43634819D01*
X217050952Y-43634819D02*
X217289047Y-43634819D01*
X217289047Y-43634819D02*
X217384285Y-43587200D01*
X217384285Y-43587200D02*
X217431904Y-43539580D01*
X216527142Y-42634819D02*
X215908095Y-42634819D01*
X215908095Y-42634819D02*
X216241428Y-43015771D01*
X216241428Y-43015771D02*
X216098571Y-43015771D01*
X216098571Y-43015771D02*
X216003333Y-43063390D01*
X216003333Y-43063390D02*
X215955714Y-43111009D01*
X215955714Y-43111009D02*
X215908095Y-43206247D01*
X215908095Y-43206247D02*
X215908095Y-43444342D01*
X215908095Y-43444342D02*
X215955714Y-43539580D01*
X215955714Y-43539580D02*
X216003333Y-43587200D01*
X216003333Y-43587200D02*
X216098571Y-43634819D01*
X216098571Y-43634819D02*
X216384285Y-43634819D01*
X216384285Y-43634819D02*
X216479523Y-43587200D01*
X216479523Y-43587200D02*
X216527142Y-43539580D01*
D11*
%TO.C,R51*%
X222260936Y-39905000D02*
X222715064Y-39905000D01*
X222260936Y-41375000D02*
X222715064Y-41375000D01*
%TO.C,R47*%
X222260936Y-113565000D02*
X222715064Y-113565000D01*
X222260936Y-115035000D02*
X222715064Y-115035000D01*
%TO.C,R18*%
X222260936Y-52605000D02*
X222715064Y-52605000D01*
X222260936Y-54075000D02*
X222715064Y-54075000D01*
%TO.C,R1*%
X222292936Y-95785000D02*
X222747064Y-95785000D01*
X222292936Y-97255000D02*
X222747064Y-97255000D01*
%TO.C,R31*%
X222276936Y-90705000D02*
X222731064Y-90705000D01*
X222276936Y-92175000D02*
X222731064Y-92175000D01*
%TO.C,R46*%
X222292936Y-116105000D02*
X222747064Y-116105000D01*
X222292936Y-117575000D02*
X222747064Y-117575000D01*
%TO.C,R24*%
X222260936Y-105945000D02*
X222715064Y-105945000D01*
X222260936Y-107415000D02*
X222715064Y-107415000D01*
%TO.C,R42*%
X222292936Y-126265000D02*
X222747064Y-126265000D01*
X222292936Y-127735000D02*
X222747064Y-127735000D01*
%TO.C,R21*%
X222260936Y-70385000D02*
X222715064Y-70385000D01*
X222260936Y-71855000D02*
X222715064Y-71855000D01*
%TO.C,R55*%
X222260936Y-62765000D02*
X222715064Y-62765000D01*
X222260936Y-64235000D02*
X222715064Y-64235000D01*
%TO.C,R16*%
X222292936Y-55145000D02*
X222747064Y-55145000D01*
X222292936Y-56615000D02*
X222747064Y-56615000D01*
%TO.C,R4*%
X222276936Y-85625000D02*
X222731064Y-85625000D01*
X222276936Y-87095000D02*
X222731064Y-87095000D01*
%TO.C,R10*%
X222276936Y-78005000D02*
X222731064Y-78005000D01*
X222276936Y-79475000D02*
X222731064Y-79475000D01*
%TO.C,R33*%
X222276936Y-88165000D02*
X222731064Y-88165000D01*
X222276936Y-89635000D02*
X222731064Y-89635000D01*
%TO.C,R22*%
X222260936Y-72925000D02*
X222715064Y-72925000D01*
X222260936Y-74395000D02*
X222715064Y-74395000D01*
%TO.C,R12*%
X222260936Y-60225000D02*
X222715064Y-60225000D01*
X222260936Y-61695000D02*
X222715064Y-61695000D01*
%TO.C,R35*%
X222260936Y-67845000D02*
X222715064Y-67845000D01*
X222260936Y-69315000D02*
X222715064Y-69315000D01*
%TO.C,R23*%
X222260936Y-103405000D02*
X222715064Y-103405000D01*
X222260936Y-104875000D02*
X222715064Y-104875000D01*
%TO.C,R27*%
X222260936Y-108485000D02*
X222715064Y-108485000D01*
X222260936Y-109955000D02*
X222715064Y-109955000D01*
%TO.C,R54*%
X222292936Y-98325000D02*
X222747064Y-98325000D01*
X222292936Y-99795000D02*
X222747064Y-99795000D01*
%TO.C,R8*%
X222276936Y-80545000D02*
X222731064Y-80545000D01*
X222276936Y-82015000D02*
X222731064Y-82015000D01*
%TO.C,R49*%
X222260936Y-111025000D02*
X222715064Y-111025000D01*
X222260936Y-112495000D02*
X222715064Y-112495000D01*
%TO.C,R14*%
X222292936Y-57685000D02*
X222747064Y-57685000D01*
X222292936Y-59155000D02*
X222747064Y-59155000D01*
%TO.C,R45*%
X222292936Y-118645000D02*
X222747064Y-118645000D01*
X222292936Y-120115000D02*
X222747064Y-120115000D01*
%TO.C,R34*%
X222292936Y-128805000D02*
X222747064Y-128805000D01*
X222292936Y-130275000D02*
X222747064Y-130275000D01*
%TO.C,R6*%
X222276936Y-83085000D02*
X222731064Y-83085000D01*
X222276936Y-84555000D02*
X222731064Y-84555000D01*
%TO.C,R44*%
X222292936Y-121185000D02*
X222747064Y-121185000D01*
X222292936Y-122655000D02*
X222747064Y-122655000D01*
%TO.C,R43*%
X222292936Y-123725000D02*
X222747064Y-123725000D01*
X222292936Y-125195000D02*
X222747064Y-125195000D01*
%TO.C,R29*%
X222276936Y-93245000D02*
X222731064Y-93245000D01*
X222276936Y-94715000D02*
X222731064Y-94715000D01*
%TO.C,R26*%
X222260936Y-65305000D02*
X222715064Y-65305000D01*
X222260936Y-66775000D02*
X222715064Y-66775000D01*
%TO.C,R53*%
X222260936Y-42445000D02*
X222715064Y-42445000D01*
X222260936Y-43915000D02*
X222715064Y-43915000D01*
%TD*%
M02*
