M48
; DRILL file {KiCad 9.0.6-1.fc43} date 2026-03-29T08:32:43+0100
; FORMAT={-:-/ absolute / inch / decimal}
; #@! TF.CreationDate,2026-03-29T08:32:43+01:00
; #@! TF.GenerationSoftware,Kicad,Pcbnew,9.0.6-1.fc43
; #@! TF.FileFunction,Plated,1,2,PTH
FMAT,2
INCH
; #@! TA.AperFunction,Plated,PTH,ViaDrill
T1C0.0157
; #@! TA.AperFunction,Plated,PTH,ComponentDrill
T2C0.0394
%
G90
G05
T1
X5.755Y-1.235
X5.76Y-2.485
X5.79Y-1.265
X5.805Y-2.41
X5.816Y-1.156
X5.825Y-2.57
X5.831Y-2.217
X5.8664Y-1.355
X5.877Y-0.845
X5.88Y-1.081
X5.894Y-1.425
X5.894Y-2.055
X5.905Y-3.02
X5.94Y-2.405
X5.9429Y-1.214
X5.945Y-2.535
X5.985Y-3.12
X5.995Y-2.61
X6.039Y-3.326
X6.044Y-1.717
X6.0768Y-2.028
X6.0768Y-2.71
X6.091Y-1.996
X6.095Y-1.455
X6.099Y-1.162
X6.11Y-2.655
X6.1217Y-2.0556
X6.153Y-2.986
X6.2Y-1.088
X6.201Y-1.728
X6.205Y-2.132
X6.214Y-1.161
X6.237Y-3.048
X6.25Y-3.45
X6.25Y-3.75
X6.25Y-4.05
X6.25Y-4.35
X6.25Y-4.7
X6.25Y-5.05
X6.25Y-5.4
X6.25Y-6.0
X6.251Y-3.12
X6.29Y-1.27
X6.295Y-1.3501
X6.3Y-3.25
X6.3Y-3.3536
X6.302Y-2.087
X6.308Y-1.216
X6.3153Y-1.8491
X6.351Y-3.0768
X6.37Y-3.355
X6.3768Y-2.203
X6.3768Y-2.649
X6.3768Y-2.745
X6.397Y-1.218
X6.4Y-1.153
X6.4Y-1.4755
X6.415Y-2.27
X6.427Y-4.103
X6.431Y-3.238
X6.433Y-5.104
X6.434Y-3.782
X6.434Y-4.397
X6.434Y-5.45
X6.436Y-4.749
X6.438Y-3.484
X6.444Y-5.946
X6.482Y-3.178
X6.5Y-1.095
X6.5Y-2.705
X6.502Y-2.192
X6.535Y-3.18
X6.567Y-3.817
X6.574Y-4.652
X6.595Y-1.095
X6.6Y-3.95
X6.6Y-4.15
X6.624Y-4.563
X6.627Y-3.538
X6.65Y-4.35
X6.65Y-4.45
X6.661Y-2.271
X6.661Y-2.732
X6.69Y-1.605
X6.691Y-1.227
X6.695Y-2.787
X6.7Y-2.285
X6.7Y-4.05
X6.7Y-4.8
X6.718Y-1.731
X6.7276Y-4.456
X6.739Y-5.138
X6.756Y-5.483
X6.7564Y-4.298
X6.767Y-3.286
X6.792Y-2.841
X6.8Y-2.17
X6.814Y-3.288
X6.819Y-3.442
X6.82Y-1.4518
X6.82Y-1.695
X6.847Y-1.664
X6.899Y-0.82
X6.906Y-1.551
X6.906Y-3.166
X6.91Y-1.231
X6.919Y-4.965
X6.947Y-1.731
X6.961Y-3.299
X6.995Y-4.4
X6.998Y-3.134
X7.0Y-1.29
X7.001Y-2.534
X7.016Y-3.166
X7.02Y-5.745
X7.033Y-3.825
X7.038Y-3.397
X7.0682Y-3.4059
X7.072Y-3.759
X7.0724Y-3.65
X7.077Y-5.673
X7.085Y-1.29
X7.085Y-1.5088
X7.092Y-2.922
X7.098Y-2.397
X7.1Y-4.144
X7.103Y-5.376
X7.115Y-1.595
X7.116Y-1.719
X7.117Y-3.0493
X7.1232Y-4.237
X7.15Y-0.94
X7.154Y-4.935
X7.1554Y-5.3494
X7.166Y-5.802
X7.173Y-5.456
X7.183Y-3.948
X7.193Y-3.169
X7.198Y-3.206
X7.202Y-3.557
X7.203Y-2.033
X7.226Y-3.3
X7.232Y-4.999
X7.237Y-3.145
X7.243Y-1.672
X7.243Y-2.103
X7.254Y-1.095
X7.2682Y-4.2121
X7.281Y-4.437
X7.2962Y-4.3475
X7.298Y-2.054
X7.3Y-1.516
X7.329Y-1.996
X7.341Y-1.712
X7.359Y-1.254
X7.361Y-3.757
X7.371Y-2.337
X7.372Y-3.457
X7.392Y-1.67
X7.424Y-2.1276
X7.434Y-5.3494
X7.4432Y-1.4812
X7.445Y-1.595
X7.46Y-1.147
X7.462Y-2.441
X7.475Y-1.2344
X7.475Y-1.435
X7.476Y-2.911
X7.492Y-1.622
X7.5036Y-3.44
X7.5036Y-3.655
X7.5192Y-2.718
X7.52Y-1.445
X7.5232Y-1.3501
X7.532Y-1.182
X7.538Y-5.287
X7.5428Y-3.504
X7.596Y-1.721
X7.598Y-4.05
X7.602Y-2.988
X7.604Y-5.061
X7.608Y-2.3284
X7.608Y-5.007
X7.61Y-2.164
X7.61Y-4.832
X7.611Y-5.262
X7.621Y-1.262
X7.623Y-4.605
X7.628Y-4.486
X7.63Y-3.092
X7.63Y-4.148
X7.631Y-5.221
X7.645Y-2.738
X7.652Y-4.264
X7.6576Y-3.204
X7.6576Y-3.552
X7.678Y-4.354
X7.68Y-2.916
X7.6851Y-3.294
X7.696Y-1.6936
X7.7127Y-3.398
X7.724Y-2.971
X7.726Y-4.442
X7.737Y-1.334
X7.739Y-4.5783
X7.741Y-2.356
X7.742Y-3.5
X7.743Y-1.724
X7.745Y-4.925
X7.75Y-3.44
X7.755Y-2.7656
X7.766Y-4.554
X7.794Y-3.612
X7.7944Y-3.559
X7.797Y-4.925
X7.807Y-2.0526
X7.814Y-4.648
X7.819Y-2.527
X7.82Y-4.752
X7.8216Y-3.696
X7.822Y-2.74
X7.825Y-1.373
X7.836Y-1.666
X7.8496Y-3.146
X7.861Y-2.597
X7.867Y-2.025
X7.87Y-3.8
X7.874Y-3.653
X7.891Y-0.808
X7.893Y-1.559
X7.899Y-4.764
X7.899Y-4.932
X7.902Y-3.906
X7.902Y-4.414
X7.924Y-4.01
X7.926Y-4.854
X7.931Y-5.005
X7.934Y-1.628
X7.941Y-4.552
X7.992Y-4.102
X8.003Y-4.729
X8.01Y-1.842
X8.012Y-4.433
X8.02Y-1.67
X8.038Y-4.196
X8.0544Y-4.718
X8.074Y-5.214
X8.082Y-1.603
X8.098Y-5.319
X8.109Y-5.239
X8.1096Y-1.698
X8.144Y-3.669
X8.145Y-4.559
X8.147Y-3.6
X8.157Y-1.175
X8.186Y-3.566
X8.186Y-4.636
X8.187Y-1.517
X8.189Y-2.963
X8.199Y-4.858
X8.202Y-4.797
X8.208Y-5.328
X8.2136Y-4.331
X8.215Y-1.728
X8.23Y-4.7418
X8.235Y-1.03
X8.2412Y-3.845
X8.26Y-2.7306
X8.265Y-5.29
X8.299Y-4.435
X8.329Y-2.929
X8.36Y-1.195
X8.3648Y-1.2699
X8.377Y-4.896
X8.387Y-4.9374
X8.39Y-2.794
X8.395Y-1.2789
X8.395Y-1.4006
X8.397Y-4.28
X8.41Y-3.333
X8.416Y-4.995
X8.425Y-0.93
X8.425Y-1.4576
X8.432Y-3.3724
X8.434Y-3.1724
X8.437Y-3.23
X8.464Y-3.172
X8.467Y-4.2116
X8.469Y-4.36
X8.48Y-2.437
X8.482Y-2.63
X8.487Y-5.01
X8.4944Y-1.4576
X8.4944Y-1.96
X8.521Y-4.5136
X8.522Y-1.098
X8.5344Y-3.462
X8.561Y-4.469
X8.562Y-1.162
X8.564Y-3.5724
X8.588Y-4.772
X8.59Y-1.13
X8.59Y-1.3064
X8.591Y-4.6724
X8.5954Y-3.666
X8.623Y-1.394
X8.623Y-5.454
X8.647Y-4.958
X8.653Y-3.154
X8.658Y-3.063
X8.66Y-4.184
X8.661Y-2.632
X8.661Y-3.5724
X8.662Y-2.2276
X8.662Y-2.929
X8.662Y-4.096
X8.663Y-1.613
X8.664Y-3.9276
X8.665Y-1.351
X8.665Y-2.1276
X8.665Y-2.366
X8.665Y-3.3276
X8.665Y-3.3724
X8.665Y-3.662
X8.666Y-1.736
X8.666Y-2.703
X8.667Y-5.097
X8.671Y-2.262
X8.671Y-2.794
X8.673Y-3.457
X8.673Y-4.4
X8.678Y-4.322
X8.6801Y-2.4708
X8.6936Y-4.6446
X8.6936Y-4.7446
X8.697Y-4.949
X8.714Y-4.8472
X8.85Y-1.475
X8.92Y-1.57
X8.926Y-5.709
X8.926Y-5.923
X8.93Y-6.0049
T2
X6.0Y-0.8945
X6.0Y-0.9945
X6.0Y-1.8
X6.0Y-1.9
X6.1Y-0.8945
X6.1Y-0.9945
X6.1Y-1.8
X6.1Y-1.9
X6.2Y-0.8945
X6.2Y-0.9945
X6.2Y-1.8
X6.2Y-1.9
X6.3Y-0.8945
X6.3Y-0.9945
X6.3Y-1.8
X6.3Y-1.9
X6.4Y-0.8945
X6.4Y-0.9945
X6.4Y-1.8
X6.4Y-1.9
X6.5Y-0.8945
X6.5Y-0.9945
X6.5Y-1.8
X6.5Y-1.9
X6.6Y-0.8945
X6.6Y-0.9945
X6.6Y-1.8
X6.6Y-1.9
X6.7Y-0.8945
X6.7Y-0.9945
X6.7Y-1.8
X6.7Y-1.9
X6.8Y-0.8945
X6.8Y-0.9945
X6.8Y-1.8
X6.8Y-1.9
X6.85Y-3.95
X6.85Y-4.05
X6.85Y-4.15
X6.85Y-4.25
X6.85Y-4.35
X6.85Y-4.45
X6.85Y-4.55
X6.85Y-4.65
X6.9Y-0.8945
X6.9Y-0.9945
X6.9Y-1.8
X6.9Y-1.9
X7.0Y-0.8945
X7.0Y-0.9945
X7.0Y-1.8
X7.0Y-1.9
X7.1Y-0.8945
X7.1Y-0.9945
X7.1Y-1.8
X7.1Y-1.9
X7.2Y-0.8945
X7.2Y-0.9945
X7.2Y-1.8
X7.2Y-1.9
X7.26Y-5.46
X7.26Y-5.56
X7.26Y-5.66
X7.26Y-5.76
X7.3Y-0.8945
X7.3Y-0.9945
X7.3Y-1.8
X7.3Y-1.9
X7.32Y-2.5
X7.32Y-2.6
X7.32Y-2.7
X7.32Y-2.8
X7.32Y-2.9
X7.32Y-3.0
X7.32Y-3.1
X7.32Y-3.2
X7.32Y-3.3
X7.32Y-3.4
X7.32Y-3.5
X7.32Y-3.6
X7.32Y-3.7
X7.32Y-3.8
X7.32Y-3.9
X7.32Y-4.0
X7.32Y-4.1
X7.32Y-4.2
X7.32Y-4.3
X7.32Y-4.4
X7.32Y-4.5
X7.32Y-4.6
X7.32Y-4.7
X7.32Y-4.8
X7.36Y-5.46
X7.36Y-5.56
X7.36Y-5.66
X7.36Y-5.76
X7.4Y-0.8945
X7.4Y-0.9945
X7.4Y-1.8
X7.4Y-1.9
X7.42Y-2.5
X7.42Y-2.6
X7.42Y-2.7
X7.42Y-2.8
X7.42Y-2.9
X7.42Y-3.0
X7.42Y-3.1
X7.42Y-3.2
X7.42Y-3.3
X7.42Y-3.4
X7.42Y-3.5
X7.42Y-3.6
X7.42Y-3.7
X7.42Y-3.8
X7.42Y-3.9
X7.42Y-4.0
X7.42Y-4.1
X7.42Y-4.2
X7.42Y-4.3
X7.42Y-4.4
X7.42Y-4.5
X7.42Y-4.6
X7.42Y-4.7
X7.42Y-4.8
X7.5Y-0.8945
X7.5Y-0.9945
X7.5Y-1.8
X7.5Y-1.9
X7.5411Y-5.46
X7.5411Y-5.56
X7.5411Y-5.66
X7.5411Y-5.76
X7.6Y-0.8945
X7.6Y-0.9945
X7.6Y-1.8
X7.6Y-1.9
X7.6411Y-5.46
X7.6411Y-5.56
X7.6411Y-5.66
X7.6411Y-5.76
X7.7Y-0.8945
X7.7Y-0.9945
X7.7Y-1.8
X7.7Y-1.9
X7.8Y-0.8945
X7.8Y-0.9945
X7.8Y-1.8
X7.8Y-1.9
X7.8222Y-5.46
X7.8222Y-5.56
X7.8222Y-5.66
X7.8222Y-5.76
X7.9Y-0.8945
X7.9Y-0.9945
X7.9Y-1.8
X7.9Y-1.9
X7.9222Y-5.46
X7.9222Y-5.56
X7.9222Y-5.66
X7.9222Y-5.76
X8.1033Y-5.46
X8.1033Y-5.56
X8.1033Y-5.66
X8.1033Y-5.76
X8.2033Y-5.46
X8.2033Y-5.56
X8.2033Y-5.66
X8.2033Y-5.76
X8.3844Y-5.46
X8.3844Y-5.56
X8.3844Y-5.66
X8.3844Y-5.76
X8.4844Y-5.46
X8.4844Y-5.56
X8.4844Y-5.66
X8.4844Y-5.76
X8.81Y-0.93
X8.81Y-1.03
X8.81Y-1.13
X8.81Y-1.23
X8.81Y-1.33
X8.81Y-1.43
X8.91Y-0.93
X8.91Y-1.03
X8.91Y-1.13
X8.91Y-1.23
X8.91Y-1.33
X8.91Y-1.43
M30
