%TF.GenerationSoftware,KiCad,Pcbnew,9.0.6-1.fc43*%
%TF.CreationDate,2026-03-29T06:33:44+01:00*%
%TF.ProjectId,cptrep-diag-card,63707472-6570-42d6-9469-61672d636172,rev?*%
%TF.SameCoordinates,Original*%
%TF.FileFunction,Legend,Top*%
%TF.FilePolarity,Positive*%
%FSLAX46Y46*%
G04 Gerber Fmt 4.6, Leading zero omitted, Abs format (unit mm)*
G04 Created by KiCad (PCBNEW 9.0.6-1.fc43) date 2026-03-29 06:33:44*
%MOMM*%
%LPD*%
G01*
G04 APERTURE LIST*
%ADD10C,0.150000*%
%ADD11C,0.100000*%
%ADD12C,0.120000*%
G04 APERTURE END LIST*
D10*
X192540666Y-143360819D02*
X192540666Y-144075104D01*
X192540666Y-144075104D02*
X192493047Y-144217961D01*
X192493047Y-144217961D02*
X192397809Y-144313200D01*
X192397809Y-144313200D02*
X192254952Y-144360819D01*
X192254952Y-144360819D02*
X192159714Y-144360819D01*
X193064476Y-144360819D02*
X193254952Y-144360819D01*
X193254952Y-144360819D02*
X193350190Y-144313200D01*
X193350190Y-144313200D02*
X193397809Y-144265580D01*
X193397809Y-144265580D02*
X193493047Y-144122723D01*
X193493047Y-144122723D02*
X193540666Y-143932247D01*
X193540666Y-143932247D02*
X193540666Y-143551295D01*
X193540666Y-143551295D02*
X193493047Y-143456057D01*
X193493047Y-143456057D02*
X193445428Y-143408438D01*
X193445428Y-143408438D02*
X193350190Y-143360819D01*
X193350190Y-143360819D02*
X193159714Y-143360819D01*
X193159714Y-143360819D02*
X193064476Y-143408438D01*
X193064476Y-143408438D02*
X193016857Y-143456057D01*
X193016857Y-143456057D02*
X192969238Y-143551295D01*
X192969238Y-143551295D02*
X192969238Y-143789390D01*
X192969238Y-143789390D02*
X193016857Y-143884628D01*
X193016857Y-143884628D02*
X193064476Y-143932247D01*
X193064476Y-143932247D02*
X193159714Y-143979866D01*
X193159714Y-143979866D02*
X193350190Y-143979866D01*
X193350190Y-143979866D02*
X193445428Y-143932247D01*
X193445428Y-143932247D02*
X193493047Y-143884628D01*
X193493047Y-143884628D02*
X193540666Y-143789390D01*
X221845142Y-123264819D02*
X221511809Y-122788628D01*
X221273714Y-123264819D02*
X221273714Y-122264819D01*
X221273714Y-122264819D02*
X221654666Y-122264819D01*
X221654666Y-122264819D02*
X221749904Y-122312438D01*
X221749904Y-122312438D02*
X221797523Y-122360057D01*
X221797523Y-122360057D02*
X221845142Y-122455295D01*
X221845142Y-122455295D02*
X221845142Y-122598152D01*
X221845142Y-122598152D02*
X221797523Y-122693390D01*
X221797523Y-122693390D02*
X221749904Y-122741009D01*
X221749904Y-122741009D02*
X221654666Y-122788628D01*
X221654666Y-122788628D02*
X221273714Y-122788628D01*
X222702285Y-122598152D02*
X222702285Y-123264819D01*
X222464190Y-122217200D02*
X222226095Y-122931485D01*
X222226095Y-122931485D02*
X222845142Y-122931485D01*
X223416571Y-122264819D02*
X223511809Y-122264819D01*
X223511809Y-122264819D02*
X223607047Y-122312438D01*
X223607047Y-122312438D02*
X223654666Y-122360057D01*
X223654666Y-122360057D02*
X223702285Y-122455295D01*
X223702285Y-122455295D02*
X223749904Y-122645771D01*
X223749904Y-122645771D02*
X223749904Y-122883866D01*
X223749904Y-122883866D02*
X223702285Y-123074342D01*
X223702285Y-123074342D02*
X223654666Y-123169580D01*
X223654666Y-123169580D02*
X223607047Y-123217200D01*
X223607047Y-123217200D02*
X223511809Y-123264819D01*
X223511809Y-123264819D02*
X223416571Y-123264819D01*
X223416571Y-123264819D02*
X223321333Y-123217200D01*
X223321333Y-123217200D02*
X223273714Y-123169580D01*
X223273714Y-123169580D02*
X223226095Y-123074342D01*
X223226095Y-123074342D02*
X223178476Y-122883866D01*
X223178476Y-122883866D02*
X223178476Y-122645771D01*
X223178476Y-122645771D02*
X223226095Y-122455295D01*
X223226095Y-122455295D02*
X223273714Y-122360057D01*
X223273714Y-122360057D02*
X223321333Y-122312438D01*
X223321333Y-122312438D02*
X223416571Y-122264819D01*
X221845142Y-118184819D02*
X221511809Y-117708628D01*
X221273714Y-118184819D02*
X221273714Y-117184819D01*
X221273714Y-117184819D02*
X221654666Y-117184819D01*
X221654666Y-117184819D02*
X221749904Y-117232438D01*
X221749904Y-117232438D02*
X221797523Y-117280057D01*
X221797523Y-117280057D02*
X221845142Y-117375295D01*
X221845142Y-117375295D02*
X221845142Y-117518152D01*
X221845142Y-117518152D02*
X221797523Y-117613390D01*
X221797523Y-117613390D02*
X221749904Y-117661009D01*
X221749904Y-117661009D02*
X221654666Y-117708628D01*
X221654666Y-117708628D02*
X221273714Y-117708628D01*
X222178476Y-117184819D02*
X222797523Y-117184819D01*
X222797523Y-117184819D02*
X222464190Y-117565771D01*
X222464190Y-117565771D02*
X222607047Y-117565771D01*
X222607047Y-117565771D02*
X222702285Y-117613390D01*
X222702285Y-117613390D02*
X222749904Y-117661009D01*
X222749904Y-117661009D02*
X222797523Y-117756247D01*
X222797523Y-117756247D02*
X222797523Y-117994342D01*
X222797523Y-117994342D02*
X222749904Y-118089580D01*
X222749904Y-118089580D02*
X222702285Y-118137200D01*
X222702285Y-118137200D02*
X222607047Y-118184819D01*
X222607047Y-118184819D02*
X222321333Y-118184819D01*
X222321333Y-118184819D02*
X222226095Y-118137200D01*
X222226095Y-118137200D02*
X222178476Y-118089580D01*
X223368952Y-117613390D02*
X223273714Y-117565771D01*
X223273714Y-117565771D02*
X223226095Y-117518152D01*
X223226095Y-117518152D02*
X223178476Y-117422914D01*
X223178476Y-117422914D02*
X223178476Y-117375295D01*
X223178476Y-117375295D02*
X223226095Y-117280057D01*
X223226095Y-117280057D02*
X223273714Y-117232438D01*
X223273714Y-117232438D02*
X223368952Y-117184819D01*
X223368952Y-117184819D02*
X223559428Y-117184819D01*
X223559428Y-117184819D02*
X223654666Y-117232438D01*
X223654666Y-117232438D02*
X223702285Y-117280057D01*
X223702285Y-117280057D02*
X223749904Y-117375295D01*
X223749904Y-117375295D02*
X223749904Y-117422914D01*
X223749904Y-117422914D02*
X223702285Y-117518152D01*
X223702285Y-117518152D02*
X223654666Y-117565771D01*
X223654666Y-117565771D02*
X223559428Y-117613390D01*
X223559428Y-117613390D02*
X223368952Y-117613390D01*
X223368952Y-117613390D02*
X223273714Y-117661009D01*
X223273714Y-117661009D02*
X223226095Y-117708628D01*
X223226095Y-117708628D02*
X223178476Y-117803866D01*
X223178476Y-117803866D02*
X223178476Y-117994342D01*
X223178476Y-117994342D02*
X223226095Y-118089580D01*
X223226095Y-118089580D02*
X223273714Y-118137200D01*
X223273714Y-118137200D02*
X223368952Y-118184819D01*
X223368952Y-118184819D02*
X223559428Y-118184819D01*
X223559428Y-118184819D02*
X223654666Y-118137200D01*
X223654666Y-118137200D02*
X223702285Y-118089580D01*
X223702285Y-118089580D02*
X223749904Y-117994342D01*
X223749904Y-117994342D02*
X223749904Y-117803866D01*
X223749904Y-117803866D02*
X223702285Y-117708628D01*
X223702285Y-117708628D02*
X223654666Y-117661009D01*
X223654666Y-117661009D02*
X223559428Y-117613390D01*
X221845142Y-120724819D02*
X221511809Y-120248628D01*
X221273714Y-120724819D02*
X221273714Y-119724819D01*
X221273714Y-119724819D02*
X221654666Y-119724819D01*
X221654666Y-119724819D02*
X221749904Y-119772438D01*
X221749904Y-119772438D02*
X221797523Y-119820057D01*
X221797523Y-119820057D02*
X221845142Y-119915295D01*
X221845142Y-119915295D02*
X221845142Y-120058152D01*
X221845142Y-120058152D02*
X221797523Y-120153390D01*
X221797523Y-120153390D02*
X221749904Y-120201009D01*
X221749904Y-120201009D02*
X221654666Y-120248628D01*
X221654666Y-120248628D02*
X221273714Y-120248628D01*
X222178476Y-119724819D02*
X222797523Y-119724819D01*
X222797523Y-119724819D02*
X222464190Y-120105771D01*
X222464190Y-120105771D02*
X222607047Y-120105771D01*
X222607047Y-120105771D02*
X222702285Y-120153390D01*
X222702285Y-120153390D02*
X222749904Y-120201009D01*
X222749904Y-120201009D02*
X222797523Y-120296247D01*
X222797523Y-120296247D02*
X222797523Y-120534342D01*
X222797523Y-120534342D02*
X222749904Y-120629580D01*
X222749904Y-120629580D02*
X222702285Y-120677200D01*
X222702285Y-120677200D02*
X222607047Y-120724819D01*
X222607047Y-120724819D02*
X222321333Y-120724819D01*
X222321333Y-120724819D02*
X222226095Y-120677200D01*
X222226095Y-120677200D02*
X222178476Y-120629580D01*
X223273714Y-120724819D02*
X223464190Y-120724819D01*
X223464190Y-120724819D02*
X223559428Y-120677200D01*
X223559428Y-120677200D02*
X223607047Y-120629580D01*
X223607047Y-120629580D02*
X223702285Y-120486723D01*
X223702285Y-120486723D02*
X223749904Y-120296247D01*
X223749904Y-120296247D02*
X223749904Y-119915295D01*
X223749904Y-119915295D02*
X223702285Y-119820057D01*
X223702285Y-119820057D02*
X223654666Y-119772438D01*
X223654666Y-119772438D02*
X223559428Y-119724819D01*
X223559428Y-119724819D02*
X223368952Y-119724819D01*
X223368952Y-119724819D02*
X223273714Y-119772438D01*
X223273714Y-119772438D02*
X223226095Y-119820057D01*
X223226095Y-119820057D02*
X223178476Y-119915295D01*
X223178476Y-119915295D02*
X223178476Y-120153390D01*
X223178476Y-120153390D02*
X223226095Y-120248628D01*
X223226095Y-120248628D02*
X223273714Y-120296247D01*
X223273714Y-120296247D02*
X223368952Y-120343866D01*
X223368952Y-120343866D02*
X223559428Y-120343866D01*
X223559428Y-120343866D02*
X223654666Y-120296247D01*
X223654666Y-120296247D02*
X223702285Y-120248628D01*
X223702285Y-120248628D02*
X223749904Y-120153390D01*
X221845142Y-125804819D02*
X221511809Y-125328628D01*
X221273714Y-125804819D02*
X221273714Y-124804819D01*
X221273714Y-124804819D02*
X221654666Y-124804819D01*
X221654666Y-124804819D02*
X221749904Y-124852438D01*
X221749904Y-124852438D02*
X221797523Y-124900057D01*
X221797523Y-124900057D02*
X221845142Y-124995295D01*
X221845142Y-124995295D02*
X221845142Y-125138152D01*
X221845142Y-125138152D02*
X221797523Y-125233390D01*
X221797523Y-125233390D02*
X221749904Y-125281009D01*
X221749904Y-125281009D02*
X221654666Y-125328628D01*
X221654666Y-125328628D02*
X221273714Y-125328628D01*
X222702285Y-125138152D02*
X222702285Y-125804819D01*
X222464190Y-124757200D02*
X222226095Y-125471485D01*
X222226095Y-125471485D02*
X222845142Y-125471485D01*
X223749904Y-125804819D02*
X223178476Y-125804819D01*
X223464190Y-125804819D02*
X223464190Y-124804819D01*
X223464190Y-124804819D02*
X223368952Y-124947676D01*
X223368952Y-124947676D02*
X223273714Y-125042914D01*
X223273714Y-125042914D02*
X223178476Y-125090533D01*
D11*
X221636666Y-24982419D02*
X221636666Y-25696704D01*
X221636666Y-25696704D02*
X221589047Y-25839561D01*
X221589047Y-25839561D02*
X221493809Y-25934800D01*
X221493809Y-25934800D02*
X221350952Y-25982419D01*
X221350952Y-25982419D02*
X221255714Y-25982419D01*
X222065238Y-25077657D02*
X222112857Y-25030038D01*
X222112857Y-25030038D02*
X222208095Y-24982419D01*
X222208095Y-24982419D02*
X222446190Y-24982419D01*
X222446190Y-24982419D02*
X222541428Y-25030038D01*
X222541428Y-25030038D02*
X222589047Y-25077657D01*
X222589047Y-25077657D02*
X222636666Y-25172895D01*
X222636666Y-25172895D02*
X222636666Y-25268133D01*
X222636666Y-25268133D02*
X222589047Y-25410990D01*
X222589047Y-25410990D02*
X222017619Y-25982419D01*
X222017619Y-25982419D02*
X222636666Y-25982419D01*
D10*
X175600595Y-101194819D02*
X176172023Y-101194819D01*
X175886309Y-102194819D02*
X175886309Y-101194819D01*
X177076785Y-102194819D02*
X176743452Y-101718628D01*
X176505357Y-102194819D02*
X176505357Y-101194819D01*
X176505357Y-101194819D02*
X176886309Y-101194819D01*
X176886309Y-101194819D02*
X176981547Y-101242438D01*
X176981547Y-101242438D02*
X177029166Y-101290057D01*
X177029166Y-101290057D02*
X177076785Y-101385295D01*
X177076785Y-101385295D02*
X177076785Y-101528152D01*
X177076785Y-101528152D02*
X177029166Y-101623390D01*
X177029166Y-101623390D02*
X176981547Y-101671009D01*
X176981547Y-101671009D02*
X176886309Y-101718628D01*
X176886309Y-101718628D02*
X176505357Y-101718628D01*
X177648214Y-101623390D02*
X177552976Y-101575771D01*
X177552976Y-101575771D02*
X177505357Y-101528152D01*
X177505357Y-101528152D02*
X177457738Y-101432914D01*
X177457738Y-101432914D02*
X177457738Y-101385295D01*
X177457738Y-101385295D02*
X177505357Y-101290057D01*
X177505357Y-101290057D02*
X177552976Y-101242438D01*
X177552976Y-101242438D02*
X177648214Y-101194819D01*
X177648214Y-101194819D02*
X177838690Y-101194819D01*
X177838690Y-101194819D02*
X177933928Y-101242438D01*
X177933928Y-101242438D02*
X177981547Y-101290057D01*
X177981547Y-101290057D02*
X178029166Y-101385295D01*
X178029166Y-101385295D02*
X178029166Y-101432914D01*
X178029166Y-101432914D02*
X177981547Y-101528152D01*
X177981547Y-101528152D02*
X177933928Y-101575771D01*
X177933928Y-101575771D02*
X177838690Y-101623390D01*
X177838690Y-101623390D02*
X177648214Y-101623390D01*
X177648214Y-101623390D02*
X177552976Y-101671009D01*
X177552976Y-101671009D02*
X177505357Y-101718628D01*
X177505357Y-101718628D02*
X177457738Y-101813866D01*
X177457738Y-101813866D02*
X177457738Y-102004342D01*
X177457738Y-102004342D02*
X177505357Y-102099580D01*
X177505357Y-102099580D02*
X177552976Y-102147200D01*
X177552976Y-102147200D02*
X177648214Y-102194819D01*
X177648214Y-102194819D02*
X177838690Y-102194819D01*
X177838690Y-102194819D02*
X177933928Y-102147200D01*
X177933928Y-102147200D02*
X177981547Y-102099580D01*
X177981547Y-102099580D02*
X178029166Y-102004342D01*
X178029166Y-102004342D02*
X178029166Y-101813866D01*
X178029166Y-101813866D02*
X177981547Y-101718628D01*
X177981547Y-101718628D02*
X177933928Y-101671009D01*
X177933928Y-101671009D02*
X177838690Y-101623390D01*
X175600595Y-96744819D02*
X176172023Y-96744819D01*
X175886309Y-97744819D02*
X175886309Y-96744819D01*
X177076785Y-97744819D02*
X176743452Y-97268628D01*
X176505357Y-97744819D02*
X176505357Y-96744819D01*
X176505357Y-96744819D02*
X176886309Y-96744819D01*
X176886309Y-96744819D02*
X176981547Y-96792438D01*
X176981547Y-96792438D02*
X177029166Y-96840057D01*
X177029166Y-96840057D02*
X177076785Y-96935295D01*
X177076785Y-96935295D02*
X177076785Y-97078152D01*
X177076785Y-97078152D02*
X177029166Y-97173390D01*
X177029166Y-97173390D02*
X176981547Y-97221009D01*
X176981547Y-97221009D02*
X176886309Y-97268628D01*
X176886309Y-97268628D02*
X176505357Y-97268628D01*
X177410119Y-96744819D02*
X178076785Y-96744819D01*
X178076785Y-96744819D02*
X177648214Y-97744819D01*
X170690595Y-101194819D02*
X171262023Y-101194819D01*
X170976309Y-102194819D02*
X170976309Y-101194819D01*
X172166785Y-102194819D02*
X171833452Y-101718628D01*
X171595357Y-102194819D02*
X171595357Y-101194819D01*
X171595357Y-101194819D02*
X171976309Y-101194819D01*
X171976309Y-101194819D02*
X172071547Y-101242438D01*
X172071547Y-101242438D02*
X172119166Y-101290057D01*
X172119166Y-101290057D02*
X172166785Y-101385295D01*
X172166785Y-101385295D02*
X172166785Y-101528152D01*
X172166785Y-101528152D02*
X172119166Y-101623390D01*
X172119166Y-101623390D02*
X172071547Y-101671009D01*
X172071547Y-101671009D02*
X171976309Y-101718628D01*
X171976309Y-101718628D02*
X171595357Y-101718628D01*
X173023928Y-101194819D02*
X172833452Y-101194819D01*
X172833452Y-101194819D02*
X172738214Y-101242438D01*
X172738214Y-101242438D02*
X172690595Y-101290057D01*
X172690595Y-101290057D02*
X172595357Y-101432914D01*
X172595357Y-101432914D02*
X172547738Y-101623390D01*
X172547738Y-101623390D02*
X172547738Y-102004342D01*
X172547738Y-102004342D02*
X172595357Y-102099580D01*
X172595357Y-102099580D02*
X172642976Y-102147200D01*
X172642976Y-102147200D02*
X172738214Y-102194819D01*
X172738214Y-102194819D02*
X172928690Y-102194819D01*
X172928690Y-102194819D02*
X173023928Y-102147200D01*
X173023928Y-102147200D02*
X173071547Y-102099580D01*
X173071547Y-102099580D02*
X173119166Y-102004342D01*
X173119166Y-102004342D02*
X173119166Y-101766247D01*
X173119166Y-101766247D02*
X173071547Y-101671009D01*
X173071547Y-101671009D02*
X173023928Y-101623390D01*
X173023928Y-101623390D02*
X172928690Y-101575771D01*
X172928690Y-101575771D02*
X172738214Y-101575771D01*
X172738214Y-101575771D02*
X172642976Y-101623390D01*
X172642976Y-101623390D02*
X172595357Y-101671009D01*
X172595357Y-101671009D02*
X172547738Y-101766247D01*
X170690595Y-96744819D02*
X171262023Y-96744819D01*
X170976309Y-97744819D02*
X170976309Y-96744819D01*
X172166785Y-97744819D02*
X171833452Y-97268628D01*
X171595357Y-97744819D02*
X171595357Y-96744819D01*
X171595357Y-96744819D02*
X171976309Y-96744819D01*
X171976309Y-96744819D02*
X172071547Y-96792438D01*
X172071547Y-96792438D02*
X172119166Y-96840057D01*
X172119166Y-96840057D02*
X172166785Y-96935295D01*
X172166785Y-96935295D02*
X172166785Y-97078152D01*
X172166785Y-97078152D02*
X172119166Y-97173390D01*
X172119166Y-97173390D02*
X172071547Y-97221009D01*
X172071547Y-97221009D02*
X171976309Y-97268628D01*
X171976309Y-97268628D02*
X171595357Y-97268628D01*
X173071547Y-96744819D02*
X172595357Y-96744819D01*
X172595357Y-96744819D02*
X172547738Y-97221009D01*
X172547738Y-97221009D02*
X172595357Y-97173390D01*
X172595357Y-97173390D02*
X172690595Y-97125771D01*
X172690595Y-97125771D02*
X172928690Y-97125771D01*
X172928690Y-97125771D02*
X173023928Y-97173390D01*
X173023928Y-97173390D02*
X173071547Y-97221009D01*
X173071547Y-97221009D02*
X173119166Y-97316247D01*
X173119166Y-97316247D02*
X173119166Y-97554342D01*
X173119166Y-97554342D02*
X173071547Y-97649580D01*
X173071547Y-97649580D02*
X173023928Y-97697200D01*
X173023928Y-97697200D02*
X172928690Y-97744819D01*
X172928690Y-97744819D02*
X172690595Y-97744819D01*
X172690595Y-97744819D02*
X172595357Y-97697200D01*
X172595357Y-97697200D02*
X172547738Y-97649580D01*
X165780595Y-101194819D02*
X166352023Y-101194819D01*
X166066309Y-102194819D02*
X166066309Y-101194819D01*
X167256785Y-102194819D02*
X166923452Y-101718628D01*
X166685357Y-102194819D02*
X166685357Y-101194819D01*
X166685357Y-101194819D02*
X167066309Y-101194819D01*
X167066309Y-101194819D02*
X167161547Y-101242438D01*
X167161547Y-101242438D02*
X167209166Y-101290057D01*
X167209166Y-101290057D02*
X167256785Y-101385295D01*
X167256785Y-101385295D02*
X167256785Y-101528152D01*
X167256785Y-101528152D02*
X167209166Y-101623390D01*
X167209166Y-101623390D02*
X167161547Y-101671009D01*
X167161547Y-101671009D02*
X167066309Y-101718628D01*
X167066309Y-101718628D02*
X166685357Y-101718628D01*
X168113928Y-101528152D02*
X168113928Y-102194819D01*
X167875833Y-101147200D02*
X167637738Y-101861485D01*
X167637738Y-101861485D02*
X168256785Y-101861485D01*
X165780595Y-96744819D02*
X166352023Y-96744819D01*
X166066309Y-97744819D02*
X166066309Y-96744819D01*
X167256785Y-97744819D02*
X166923452Y-97268628D01*
X166685357Y-97744819D02*
X166685357Y-96744819D01*
X166685357Y-96744819D02*
X167066309Y-96744819D01*
X167066309Y-96744819D02*
X167161547Y-96792438D01*
X167161547Y-96792438D02*
X167209166Y-96840057D01*
X167209166Y-96840057D02*
X167256785Y-96935295D01*
X167256785Y-96935295D02*
X167256785Y-97078152D01*
X167256785Y-97078152D02*
X167209166Y-97173390D01*
X167209166Y-97173390D02*
X167161547Y-97221009D01*
X167161547Y-97221009D02*
X167066309Y-97268628D01*
X167066309Y-97268628D02*
X166685357Y-97268628D01*
X167590119Y-96744819D02*
X168209166Y-96744819D01*
X168209166Y-96744819D02*
X167875833Y-97125771D01*
X167875833Y-97125771D02*
X168018690Y-97125771D01*
X168018690Y-97125771D02*
X168113928Y-97173390D01*
X168113928Y-97173390D02*
X168161547Y-97221009D01*
X168161547Y-97221009D02*
X168209166Y-97316247D01*
X168209166Y-97316247D02*
X168209166Y-97554342D01*
X168209166Y-97554342D02*
X168161547Y-97649580D01*
X168161547Y-97649580D02*
X168113928Y-97697200D01*
X168113928Y-97697200D02*
X168018690Y-97744819D01*
X168018690Y-97744819D02*
X167732976Y-97744819D01*
X167732976Y-97744819D02*
X167637738Y-97697200D01*
X167637738Y-97697200D02*
X167590119Y-97649580D01*
X160870595Y-101194819D02*
X161442023Y-101194819D01*
X161156309Y-102194819D02*
X161156309Y-101194819D01*
X162346785Y-102194819D02*
X162013452Y-101718628D01*
X161775357Y-102194819D02*
X161775357Y-101194819D01*
X161775357Y-101194819D02*
X162156309Y-101194819D01*
X162156309Y-101194819D02*
X162251547Y-101242438D01*
X162251547Y-101242438D02*
X162299166Y-101290057D01*
X162299166Y-101290057D02*
X162346785Y-101385295D01*
X162346785Y-101385295D02*
X162346785Y-101528152D01*
X162346785Y-101528152D02*
X162299166Y-101623390D01*
X162299166Y-101623390D02*
X162251547Y-101671009D01*
X162251547Y-101671009D02*
X162156309Y-101718628D01*
X162156309Y-101718628D02*
X161775357Y-101718628D01*
X162727738Y-101290057D02*
X162775357Y-101242438D01*
X162775357Y-101242438D02*
X162870595Y-101194819D01*
X162870595Y-101194819D02*
X163108690Y-101194819D01*
X163108690Y-101194819D02*
X163203928Y-101242438D01*
X163203928Y-101242438D02*
X163251547Y-101290057D01*
X163251547Y-101290057D02*
X163299166Y-101385295D01*
X163299166Y-101385295D02*
X163299166Y-101480533D01*
X163299166Y-101480533D02*
X163251547Y-101623390D01*
X163251547Y-101623390D02*
X162680119Y-102194819D01*
X162680119Y-102194819D02*
X163299166Y-102194819D01*
X154853095Y-98194819D02*
X155424523Y-98194819D01*
X155138809Y-99194819D02*
X155138809Y-98194819D01*
X156329285Y-99194819D02*
X155995952Y-98718628D01*
X155757857Y-99194819D02*
X155757857Y-98194819D01*
X155757857Y-98194819D02*
X156138809Y-98194819D01*
X156138809Y-98194819D02*
X156234047Y-98242438D01*
X156234047Y-98242438D02*
X156281666Y-98290057D01*
X156281666Y-98290057D02*
X156329285Y-98385295D01*
X156329285Y-98385295D02*
X156329285Y-98528152D01*
X156329285Y-98528152D02*
X156281666Y-98623390D01*
X156281666Y-98623390D02*
X156234047Y-98671009D01*
X156234047Y-98671009D02*
X156138809Y-98718628D01*
X156138809Y-98718628D02*
X155757857Y-98718628D01*
X157281666Y-99194819D02*
X156710238Y-99194819D01*
X156995952Y-99194819D02*
X156995952Y-98194819D01*
X156995952Y-98194819D02*
X156900714Y-98337676D01*
X156900714Y-98337676D02*
X156805476Y-98432914D01*
X156805476Y-98432914D02*
X156710238Y-98480533D01*
X157769642Y-132209819D02*
X157436309Y-131733628D01*
X157198214Y-132209819D02*
X157198214Y-131209819D01*
X157198214Y-131209819D02*
X157579166Y-131209819D01*
X157579166Y-131209819D02*
X157674404Y-131257438D01*
X157674404Y-131257438D02*
X157722023Y-131305057D01*
X157722023Y-131305057D02*
X157769642Y-131400295D01*
X157769642Y-131400295D02*
X157769642Y-131543152D01*
X157769642Y-131543152D02*
X157722023Y-131638390D01*
X157722023Y-131638390D02*
X157674404Y-131686009D01*
X157674404Y-131686009D02*
X157579166Y-131733628D01*
X157579166Y-131733628D02*
X157198214Y-131733628D01*
X158626785Y-131209819D02*
X158436309Y-131209819D01*
X158436309Y-131209819D02*
X158341071Y-131257438D01*
X158341071Y-131257438D02*
X158293452Y-131305057D01*
X158293452Y-131305057D02*
X158198214Y-131447914D01*
X158198214Y-131447914D02*
X158150595Y-131638390D01*
X158150595Y-131638390D02*
X158150595Y-132019342D01*
X158150595Y-132019342D02*
X158198214Y-132114580D01*
X158198214Y-132114580D02*
X158245833Y-132162200D01*
X158245833Y-132162200D02*
X158341071Y-132209819D01*
X158341071Y-132209819D02*
X158531547Y-132209819D01*
X158531547Y-132209819D02*
X158626785Y-132162200D01*
X158626785Y-132162200D02*
X158674404Y-132114580D01*
X158674404Y-132114580D02*
X158722023Y-132019342D01*
X158722023Y-132019342D02*
X158722023Y-131781247D01*
X158722023Y-131781247D02*
X158674404Y-131686009D01*
X158674404Y-131686009D02*
X158626785Y-131638390D01*
X158626785Y-131638390D02*
X158531547Y-131590771D01*
X158531547Y-131590771D02*
X158341071Y-131590771D01*
X158341071Y-131590771D02*
X158245833Y-131638390D01*
X158245833Y-131638390D02*
X158198214Y-131686009D01*
X158198214Y-131686009D02*
X158150595Y-131781247D01*
X159055357Y-131209819D02*
X159674404Y-131209819D01*
X159674404Y-131209819D02*
X159341071Y-131590771D01*
X159341071Y-131590771D02*
X159483928Y-131590771D01*
X159483928Y-131590771D02*
X159579166Y-131638390D01*
X159579166Y-131638390D02*
X159626785Y-131686009D01*
X159626785Y-131686009D02*
X159674404Y-131781247D01*
X159674404Y-131781247D02*
X159674404Y-132019342D01*
X159674404Y-132019342D02*
X159626785Y-132114580D01*
X159626785Y-132114580D02*
X159579166Y-132162200D01*
X159579166Y-132162200D02*
X159483928Y-132209819D01*
X159483928Y-132209819D02*
X159198214Y-132209819D01*
X159198214Y-132209819D02*
X159102976Y-132162200D01*
X159102976Y-132162200D02*
X159055357Y-132114580D01*
X157769642Y-129259819D02*
X157436309Y-128783628D01*
X157198214Y-129259819D02*
X157198214Y-128259819D01*
X157198214Y-128259819D02*
X157579166Y-128259819D01*
X157579166Y-128259819D02*
X157674404Y-128307438D01*
X157674404Y-128307438D02*
X157722023Y-128355057D01*
X157722023Y-128355057D02*
X157769642Y-128450295D01*
X157769642Y-128450295D02*
X157769642Y-128593152D01*
X157769642Y-128593152D02*
X157722023Y-128688390D01*
X157722023Y-128688390D02*
X157674404Y-128736009D01*
X157674404Y-128736009D02*
X157579166Y-128783628D01*
X157579166Y-128783628D02*
X157198214Y-128783628D01*
X158626785Y-128259819D02*
X158436309Y-128259819D01*
X158436309Y-128259819D02*
X158341071Y-128307438D01*
X158341071Y-128307438D02*
X158293452Y-128355057D01*
X158293452Y-128355057D02*
X158198214Y-128497914D01*
X158198214Y-128497914D02*
X158150595Y-128688390D01*
X158150595Y-128688390D02*
X158150595Y-129069342D01*
X158150595Y-129069342D02*
X158198214Y-129164580D01*
X158198214Y-129164580D02*
X158245833Y-129212200D01*
X158245833Y-129212200D02*
X158341071Y-129259819D01*
X158341071Y-129259819D02*
X158531547Y-129259819D01*
X158531547Y-129259819D02*
X158626785Y-129212200D01*
X158626785Y-129212200D02*
X158674404Y-129164580D01*
X158674404Y-129164580D02*
X158722023Y-129069342D01*
X158722023Y-129069342D02*
X158722023Y-128831247D01*
X158722023Y-128831247D02*
X158674404Y-128736009D01*
X158674404Y-128736009D02*
X158626785Y-128688390D01*
X158626785Y-128688390D02*
X158531547Y-128640771D01*
X158531547Y-128640771D02*
X158341071Y-128640771D01*
X158341071Y-128640771D02*
X158245833Y-128688390D01*
X158245833Y-128688390D02*
X158198214Y-128736009D01*
X158198214Y-128736009D02*
X158150595Y-128831247D01*
X159102976Y-128355057D02*
X159150595Y-128307438D01*
X159150595Y-128307438D02*
X159245833Y-128259819D01*
X159245833Y-128259819D02*
X159483928Y-128259819D01*
X159483928Y-128259819D02*
X159579166Y-128307438D01*
X159579166Y-128307438D02*
X159626785Y-128355057D01*
X159626785Y-128355057D02*
X159674404Y-128450295D01*
X159674404Y-128450295D02*
X159674404Y-128545533D01*
X159674404Y-128545533D02*
X159626785Y-128688390D01*
X159626785Y-128688390D02*
X159055357Y-129259819D01*
X159055357Y-129259819D02*
X159674404Y-129259819D01*
X157769642Y-126309819D02*
X157436309Y-125833628D01*
X157198214Y-126309819D02*
X157198214Y-125309819D01*
X157198214Y-125309819D02*
X157579166Y-125309819D01*
X157579166Y-125309819D02*
X157674404Y-125357438D01*
X157674404Y-125357438D02*
X157722023Y-125405057D01*
X157722023Y-125405057D02*
X157769642Y-125500295D01*
X157769642Y-125500295D02*
X157769642Y-125643152D01*
X157769642Y-125643152D02*
X157722023Y-125738390D01*
X157722023Y-125738390D02*
X157674404Y-125786009D01*
X157674404Y-125786009D02*
X157579166Y-125833628D01*
X157579166Y-125833628D02*
X157198214Y-125833628D01*
X158626785Y-125309819D02*
X158436309Y-125309819D01*
X158436309Y-125309819D02*
X158341071Y-125357438D01*
X158341071Y-125357438D02*
X158293452Y-125405057D01*
X158293452Y-125405057D02*
X158198214Y-125547914D01*
X158198214Y-125547914D02*
X158150595Y-125738390D01*
X158150595Y-125738390D02*
X158150595Y-126119342D01*
X158150595Y-126119342D02*
X158198214Y-126214580D01*
X158198214Y-126214580D02*
X158245833Y-126262200D01*
X158245833Y-126262200D02*
X158341071Y-126309819D01*
X158341071Y-126309819D02*
X158531547Y-126309819D01*
X158531547Y-126309819D02*
X158626785Y-126262200D01*
X158626785Y-126262200D02*
X158674404Y-126214580D01*
X158674404Y-126214580D02*
X158722023Y-126119342D01*
X158722023Y-126119342D02*
X158722023Y-125881247D01*
X158722023Y-125881247D02*
X158674404Y-125786009D01*
X158674404Y-125786009D02*
X158626785Y-125738390D01*
X158626785Y-125738390D02*
X158531547Y-125690771D01*
X158531547Y-125690771D02*
X158341071Y-125690771D01*
X158341071Y-125690771D02*
X158245833Y-125738390D01*
X158245833Y-125738390D02*
X158198214Y-125786009D01*
X158198214Y-125786009D02*
X158150595Y-125881247D01*
X159674404Y-126309819D02*
X159102976Y-126309819D01*
X159388690Y-126309819D02*
X159388690Y-125309819D01*
X159388690Y-125309819D02*
X159293452Y-125452676D01*
X159293452Y-125452676D02*
X159198214Y-125547914D01*
X159198214Y-125547914D02*
X159102976Y-125595533D01*
X157769642Y-123359819D02*
X157436309Y-122883628D01*
X157198214Y-123359819D02*
X157198214Y-122359819D01*
X157198214Y-122359819D02*
X157579166Y-122359819D01*
X157579166Y-122359819D02*
X157674404Y-122407438D01*
X157674404Y-122407438D02*
X157722023Y-122455057D01*
X157722023Y-122455057D02*
X157769642Y-122550295D01*
X157769642Y-122550295D02*
X157769642Y-122693152D01*
X157769642Y-122693152D02*
X157722023Y-122788390D01*
X157722023Y-122788390D02*
X157674404Y-122836009D01*
X157674404Y-122836009D02*
X157579166Y-122883628D01*
X157579166Y-122883628D02*
X157198214Y-122883628D01*
X158626785Y-122359819D02*
X158436309Y-122359819D01*
X158436309Y-122359819D02*
X158341071Y-122407438D01*
X158341071Y-122407438D02*
X158293452Y-122455057D01*
X158293452Y-122455057D02*
X158198214Y-122597914D01*
X158198214Y-122597914D02*
X158150595Y-122788390D01*
X158150595Y-122788390D02*
X158150595Y-123169342D01*
X158150595Y-123169342D02*
X158198214Y-123264580D01*
X158198214Y-123264580D02*
X158245833Y-123312200D01*
X158245833Y-123312200D02*
X158341071Y-123359819D01*
X158341071Y-123359819D02*
X158531547Y-123359819D01*
X158531547Y-123359819D02*
X158626785Y-123312200D01*
X158626785Y-123312200D02*
X158674404Y-123264580D01*
X158674404Y-123264580D02*
X158722023Y-123169342D01*
X158722023Y-123169342D02*
X158722023Y-122931247D01*
X158722023Y-122931247D02*
X158674404Y-122836009D01*
X158674404Y-122836009D02*
X158626785Y-122788390D01*
X158626785Y-122788390D02*
X158531547Y-122740771D01*
X158531547Y-122740771D02*
X158341071Y-122740771D01*
X158341071Y-122740771D02*
X158245833Y-122788390D01*
X158245833Y-122788390D02*
X158198214Y-122836009D01*
X158198214Y-122836009D02*
X158150595Y-122931247D01*
X159341071Y-122359819D02*
X159436309Y-122359819D01*
X159436309Y-122359819D02*
X159531547Y-122407438D01*
X159531547Y-122407438D02*
X159579166Y-122455057D01*
X159579166Y-122455057D02*
X159626785Y-122550295D01*
X159626785Y-122550295D02*
X159674404Y-122740771D01*
X159674404Y-122740771D02*
X159674404Y-122978866D01*
X159674404Y-122978866D02*
X159626785Y-123169342D01*
X159626785Y-123169342D02*
X159579166Y-123264580D01*
X159579166Y-123264580D02*
X159531547Y-123312200D01*
X159531547Y-123312200D02*
X159436309Y-123359819D01*
X159436309Y-123359819D02*
X159341071Y-123359819D01*
X159341071Y-123359819D02*
X159245833Y-123312200D01*
X159245833Y-123312200D02*
X159198214Y-123264580D01*
X159198214Y-123264580D02*
X159150595Y-123169342D01*
X159150595Y-123169342D02*
X159102976Y-122978866D01*
X159102976Y-122978866D02*
X159102976Y-122740771D01*
X159102976Y-122740771D02*
X159150595Y-122550295D01*
X159150595Y-122550295D02*
X159198214Y-122455057D01*
X159198214Y-122455057D02*
X159245833Y-122407438D01*
X159245833Y-122407438D02*
X159341071Y-122359819D01*
X157769642Y-120409819D02*
X157436309Y-119933628D01*
X157198214Y-120409819D02*
X157198214Y-119409819D01*
X157198214Y-119409819D02*
X157579166Y-119409819D01*
X157579166Y-119409819D02*
X157674404Y-119457438D01*
X157674404Y-119457438D02*
X157722023Y-119505057D01*
X157722023Y-119505057D02*
X157769642Y-119600295D01*
X157769642Y-119600295D02*
X157769642Y-119743152D01*
X157769642Y-119743152D02*
X157722023Y-119838390D01*
X157722023Y-119838390D02*
X157674404Y-119886009D01*
X157674404Y-119886009D02*
X157579166Y-119933628D01*
X157579166Y-119933628D02*
X157198214Y-119933628D01*
X158674404Y-119409819D02*
X158198214Y-119409819D01*
X158198214Y-119409819D02*
X158150595Y-119886009D01*
X158150595Y-119886009D02*
X158198214Y-119838390D01*
X158198214Y-119838390D02*
X158293452Y-119790771D01*
X158293452Y-119790771D02*
X158531547Y-119790771D01*
X158531547Y-119790771D02*
X158626785Y-119838390D01*
X158626785Y-119838390D02*
X158674404Y-119886009D01*
X158674404Y-119886009D02*
X158722023Y-119981247D01*
X158722023Y-119981247D02*
X158722023Y-120219342D01*
X158722023Y-120219342D02*
X158674404Y-120314580D01*
X158674404Y-120314580D02*
X158626785Y-120362200D01*
X158626785Y-120362200D02*
X158531547Y-120409819D01*
X158531547Y-120409819D02*
X158293452Y-120409819D01*
X158293452Y-120409819D02*
X158198214Y-120362200D01*
X158198214Y-120362200D02*
X158150595Y-120314580D01*
X159198214Y-120409819D02*
X159388690Y-120409819D01*
X159388690Y-120409819D02*
X159483928Y-120362200D01*
X159483928Y-120362200D02*
X159531547Y-120314580D01*
X159531547Y-120314580D02*
X159626785Y-120171723D01*
X159626785Y-120171723D02*
X159674404Y-119981247D01*
X159674404Y-119981247D02*
X159674404Y-119600295D01*
X159674404Y-119600295D02*
X159626785Y-119505057D01*
X159626785Y-119505057D02*
X159579166Y-119457438D01*
X159579166Y-119457438D02*
X159483928Y-119409819D01*
X159483928Y-119409819D02*
X159293452Y-119409819D01*
X159293452Y-119409819D02*
X159198214Y-119457438D01*
X159198214Y-119457438D02*
X159150595Y-119505057D01*
X159150595Y-119505057D02*
X159102976Y-119600295D01*
X159102976Y-119600295D02*
X159102976Y-119838390D01*
X159102976Y-119838390D02*
X159150595Y-119933628D01*
X159150595Y-119933628D02*
X159198214Y-119981247D01*
X159198214Y-119981247D02*
X159293452Y-120028866D01*
X159293452Y-120028866D02*
X159483928Y-120028866D01*
X159483928Y-120028866D02*
X159579166Y-119981247D01*
X159579166Y-119981247D02*
X159626785Y-119933628D01*
X159626785Y-119933628D02*
X159674404Y-119838390D01*
X157769642Y-117459819D02*
X157436309Y-116983628D01*
X157198214Y-117459819D02*
X157198214Y-116459819D01*
X157198214Y-116459819D02*
X157579166Y-116459819D01*
X157579166Y-116459819D02*
X157674404Y-116507438D01*
X157674404Y-116507438D02*
X157722023Y-116555057D01*
X157722023Y-116555057D02*
X157769642Y-116650295D01*
X157769642Y-116650295D02*
X157769642Y-116793152D01*
X157769642Y-116793152D02*
X157722023Y-116888390D01*
X157722023Y-116888390D02*
X157674404Y-116936009D01*
X157674404Y-116936009D02*
X157579166Y-116983628D01*
X157579166Y-116983628D02*
X157198214Y-116983628D01*
X158674404Y-116459819D02*
X158198214Y-116459819D01*
X158198214Y-116459819D02*
X158150595Y-116936009D01*
X158150595Y-116936009D02*
X158198214Y-116888390D01*
X158198214Y-116888390D02*
X158293452Y-116840771D01*
X158293452Y-116840771D02*
X158531547Y-116840771D01*
X158531547Y-116840771D02*
X158626785Y-116888390D01*
X158626785Y-116888390D02*
X158674404Y-116936009D01*
X158674404Y-116936009D02*
X158722023Y-117031247D01*
X158722023Y-117031247D02*
X158722023Y-117269342D01*
X158722023Y-117269342D02*
X158674404Y-117364580D01*
X158674404Y-117364580D02*
X158626785Y-117412200D01*
X158626785Y-117412200D02*
X158531547Y-117459819D01*
X158531547Y-117459819D02*
X158293452Y-117459819D01*
X158293452Y-117459819D02*
X158198214Y-117412200D01*
X158198214Y-117412200D02*
X158150595Y-117364580D01*
X159293452Y-116888390D02*
X159198214Y-116840771D01*
X159198214Y-116840771D02*
X159150595Y-116793152D01*
X159150595Y-116793152D02*
X159102976Y-116697914D01*
X159102976Y-116697914D02*
X159102976Y-116650295D01*
X159102976Y-116650295D02*
X159150595Y-116555057D01*
X159150595Y-116555057D02*
X159198214Y-116507438D01*
X159198214Y-116507438D02*
X159293452Y-116459819D01*
X159293452Y-116459819D02*
X159483928Y-116459819D01*
X159483928Y-116459819D02*
X159579166Y-116507438D01*
X159579166Y-116507438D02*
X159626785Y-116555057D01*
X159626785Y-116555057D02*
X159674404Y-116650295D01*
X159674404Y-116650295D02*
X159674404Y-116697914D01*
X159674404Y-116697914D02*
X159626785Y-116793152D01*
X159626785Y-116793152D02*
X159579166Y-116840771D01*
X159579166Y-116840771D02*
X159483928Y-116888390D01*
X159483928Y-116888390D02*
X159293452Y-116888390D01*
X159293452Y-116888390D02*
X159198214Y-116936009D01*
X159198214Y-116936009D02*
X159150595Y-116983628D01*
X159150595Y-116983628D02*
X159102976Y-117078866D01*
X159102976Y-117078866D02*
X159102976Y-117269342D01*
X159102976Y-117269342D02*
X159150595Y-117364580D01*
X159150595Y-117364580D02*
X159198214Y-117412200D01*
X159198214Y-117412200D02*
X159293452Y-117459819D01*
X159293452Y-117459819D02*
X159483928Y-117459819D01*
X159483928Y-117459819D02*
X159579166Y-117412200D01*
X159579166Y-117412200D02*
X159626785Y-117364580D01*
X159626785Y-117364580D02*
X159674404Y-117269342D01*
X159674404Y-117269342D02*
X159674404Y-117078866D01*
X159674404Y-117078866D02*
X159626785Y-116983628D01*
X159626785Y-116983628D02*
X159579166Y-116936009D01*
X159579166Y-116936009D02*
X159483928Y-116888390D01*
X157769642Y-114509819D02*
X157436309Y-114033628D01*
X157198214Y-114509819D02*
X157198214Y-113509819D01*
X157198214Y-113509819D02*
X157579166Y-113509819D01*
X157579166Y-113509819D02*
X157674404Y-113557438D01*
X157674404Y-113557438D02*
X157722023Y-113605057D01*
X157722023Y-113605057D02*
X157769642Y-113700295D01*
X157769642Y-113700295D02*
X157769642Y-113843152D01*
X157769642Y-113843152D02*
X157722023Y-113938390D01*
X157722023Y-113938390D02*
X157674404Y-113986009D01*
X157674404Y-113986009D02*
X157579166Y-114033628D01*
X157579166Y-114033628D02*
X157198214Y-114033628D01*
X158674404Y-113509819D02*
X158198214Y-113509819D01*
X158198214Y-113509819D02*
X158150595Y-113986009D01*
X158150595Y-113986009D02*
X158198214Y-113938390D01*
X158198214Y-113938390D02*
X158293452Y-113890771D01*
X158293452Y-113890771D02*
X158531547Y-113890771D01*
X158531547Y-113890771D02*
X158626785Y-113938390D01*
X158626785Y-113938390D02*
X158674404Y-113986009D01*
X158674404Y-113986009D02*
X158722023Y-114081247D01*
X158722023Y-114081247D02*
X158722023Y-114319342D01*
X158722023Y-114319342D02*
X158674404Y-114414580D01*
X158674404Y-114414580D02*
X158626785Y-114462200D01*
X158626785Y-114462200D02*
X158531547Y-114509819D01*
X158531547Y-114509819D02*
X158293452Y-114509819D01*
X158293452Y-114509819D02*
X158198214Y-114462200D01*
X158198214Y-114462200D02*
X158150595Y-114414580D01*
X159055357Y-113509819D02*
X159722023Y-113509819D01*
X159722023Y-113509819D02*
X159293452Y-114509819D01*
X157769642Y-111559819D02*
X157436309Y-111083628D01*
X157198214Y-111559819D02*
X157198214Y-110559819D01*
X157198214Y-110559819D02*
X157579166Y-110559819D01*
X157579166Y-110559819D02*
X157674404Y-110607438D01*
X157674404Y-110607438D02*
X157722023Y-110655057D01*
X157722023Y-110655057D02*
X157769642Y-110750295D01*
X157769642Y-110750295D02*
X157769642Y-110893152D01*
X157769642Y-110893152D02*
X157722023Y-110988390D01*
X157722023Y-110988390D02*
X157674404Y-111036009D01*
X157674404Y-111036009D02*
X157579166Y-111083628D01*
X157579166Y-111083628D02*
X157198214Y-111083628D01*
X158674404Y-110559819D02*
X158198214Y-110559819D01*
X158198214Y-110559819D02*
X158150595Y-111036009D01*
X158150595Y-111036009D02*
X158198214Y-110988390D01*
X158198214Y-110988390D02*
X158293452Y-110940771D01*
X158293452Y-110940771D02*
X158531547Y-110940771D01*
X158531547Y-110940771D02*
X158626785Y-110988390D01*
X158626785Y-110988390D02*
X158674404Y-111036009D01*
X158674404Y-111036009D02*
X158722023Y-111131247D01*
X158722023Y-111131247D02*
X158722023Y-111369342D01*
X158722023Y-111369342D02*
X158674404Y-111464580D01*
X158674404Y-111464580D02*
X158626785Y-111512200D01*
X158626785Y-111512200D02*
X158531547Y-111559819D01*
X158531547Y-111559819D02*
X158293452Y-111559819D01*
X158293452Y-111559819D02*
X158198214Y-111512200D01*
X158198214Y-111512200D02*
X158150595Y-111464580D01*
X159579166Y-110559819D02*
X159388690Y-110559819D01*
X159388690Y-110559819D02*
X159293452Y-110607438D01*
X159293452Y-110607438D02*
X159245833Y-110655057D01*
X159245833Y-110655057D02*
X159150595Y-110797914D01*
X159150595Y-110797914D02*
X159102976Y-110988390D01*
X159102976Y-110988390D02*
X159102976Y-111369342D01*
X159102976Y-111369342D02*
X159150595Y-111464580D01*
X159150595Y-111464580D02*
X159198214Y-111512200D01*
X159198214Y-111512200D02*
X159293452Y-111559819D01*
X159293452Y-111559819D02*
X159483928Y-111559819D01*
X159483928Y-111559819D02*
X159579166Y-111512200D01*
X159579166Y-111512200D02*
X159626785Y-111464580D01*
X159626785Y-111464580D02*
X159674404Y-111369342D01*
X159674404Y-111369342D02*
X159674404Y-111131247D01*
X159674404Y-111131247D02*
X159626785Y-111036009D01*
X159626785Y-111036009D02*
X159579166Y-110988390D01*
X159579166Y-110988390D02*
X159483928Y-110940771D01*
X159483928Y-110940771D02*
X159293452Y-110940771D01*
X159293452Y-110940771D02*
X159198214Y-110988390D01*
X159198214Y-110988390D02*
X159150595Y-111036009D01*
X159150595Y-111036009D02*
X159102976Y-111131247D01*
X221877142Y-97864819D02*
X221543809Y-97388628D01*
X221305714Y-97864819D02*
X221305714Y-96864819D01*
X221305714Y-96864819D02*
X221686666Y-96864819D01*
X221686666Y-96864819D02*
X221781904Y-96912438D01*
X221781904Y-96912438D02*
X221829523Y-96960057D01*
X221829523Y-96960057D02*
X221877142Y-97055295D01*
X221877142Y-97055295D02*
X221877142Y-97198152D01*
X221877142Y-97198152D02*
X221829523Y-97293390D01*
X221829523Y-97293390D02*
X221781904Y-97341009D01*
X221781904Y-97341009D02*
X221686666Y-97388628D01*
X221686666Y-97388628D02*
X221305714Y-97388628D01*
X222734285Y-97198152D02*
X222734285Y-97864819D01*
X222496190Y-96817200D02*
X222258095Y-97531485D01*
X222258095Y-97531485D02*
X222877142Y-97531485D01*
X223400952Y-97293390D02*
X223305714Y-97245771D01*
X223305714Y-97245771D02*
X223258095Y-97198152D01*
X223258095Y-97198152D02*
X223210476Y-97102914D01*
X223210476Y-97102914D02*
X223210476Y-97055295D01*
X223210476Y-97055295D02*
X223258095Y-96960057D01*
X223258095Y-96960057D02*
X223305714Y-96912438D01*
X223305714Y-96912438D02*
X223400952Y-96864819D01*
X223400952Y-96864819D02*
X223591428Y-96864819D01*
X223591428Y-96864819D02*
X223686666Y-96912438D01*
X223686666Y-96912438D02*
X223734285Y-96960057D01*
X223734285Y-96960057D02*
X223781904Y-97055295D01*
X223781904Y-97055295D02*
X223781904Y-97102914D01*
X223781904Y-97102914D02*
X223734285Y-97198152D01*
X223734285Y-97198152D02*
X223686666Y-97245771D01*
X223686666Y-97245771D02*
X223591428Y-97293390D01*
X223591428Y-97293390D02*
X223400952Y-97293390D01*
X223400952Y-97293390D02*
X223305714Y-97341009D01*
X223305714Y-97341009D02*
X223258095Y-97388628D01*
X223258095Y-97388628D02*
X223210476Y-97483866D01*
X223210476Y-97483866D02*
X223210476Y-97674342D01*
X223210476Y-97674342D02*
X223258095Y-97769580D01*
X223258095Y-97769580D02*
X223305714Y-97817200D01*
X223305714Y-97817200D02*
X223400952Y-97864819D01*
X223400952Y-97864819D02*
X223591428Y-97864819D01*
X223591428Y-97864819D02*
X223686666Y-97817200D01*
X223686666Y-97817200D02*
X223734285Y-97769580D01*
X223734285Y-97769580D02*
X223781904Y-97674342D01*
X223781904Y-97674342D02*
X223781904Y-97483866D01*
X223781904Y-97483866D02*
X223734285Y-97388628D01*
X223734285Y-97388628D02*
X223686666Y-97341009D01*
X223686666Y-97341009D02*
X223591428Y-97293390D01*
X221877142Y-100404819D02*
X221543809Y-99928628D01*
X221305714Y-100404819D02*
X221305714Y-99404819D01*
X221305714Y-99404819D02*
X221686666Y-99404819D01*
X221686666Y-99404819D02*
X221781904Y-99452438D01*
X221781904Y-99452438D02*
X221829523Y-99500057D01*
X221829523Y-99500057D02*
X221877142Y-99595295D01*
X221877142Y-99595295D02*
X221877142Y-99738152D01*
X221877142Y-99738152D02*
X221829523Y-99833390D01*
X221829523Y-99833390D02*
X221781904Y-99881009D01*
X221781904Y-99881009D02*
X221686666Y-99928628D01*
X221686666Y-99928628D02*
X221305714Y-99928628D01*
X222210476Y-99404819D02*
X222829523Y-99404819D01*
X222829523Y-99404819D02*
X222496190Y-99785771D01*
X222496190Y-99785771D02*
X222639047Y-99785771D01*
X222639047Y-99785771D02*
X222734285Y-99833390D01*
X222734285Y-99833390D02*
X222781904Y-99881009D01*
X222781904Y-99881009D02*
X222829523Y-99976247D01*
X222829523Y-99976247D02*
X222829523Y-100214342D01*
X222829523Y-100214342D02*
X222781904Y-100309580D01*
X222781904Y-100309580D02*
X222734285Y-100357200D01*
X222734285Y-100357200D02*
X222639047Y-100404819D01*
X222639047Y-100404819D02*
X222353333Y-100404819D01*
X222353333Y-100404819D02*
X222258095Y-100357200D01*
X222258095Y-100357200D02*
X222210476Y-100309580D01*
X223686666Y-99404819D02*
X223496190Y-99404819D01*
X223496190Y-99404819D02*
X223400952Y-99452438D01*
X223400952Y-99452438D02*
X223353333Y-99500057D01*
X223353333Y-99500057D02*
X223258095Y-99642914D01*
X223258095Y-99642914D02*
X223210476Y-99833390D01*
X223210476Y-99833390D02*
X223210476Y-100214342D01*
X223210476Y-100214342D02*
X223258095Y-100309580D01*
X223258095Y-100309580D02*
X223305714Y-100357200D01*
X223305714Y-100357200D02*
X223400952Y-100404819D01*
X223400952Y-100404819D02*
X223591428Y-100404819D01*
X223591428Y-100404819D02*
X223686666Y-100357200D01*
X223686666Y-100357200D02*
X223734285Y-100309580D01*
X223734285Y-100309580D02*
X223781904Y-100214342D01*
X223781904Y-100214342D02*
X223781904Y-99976247D01*
X223781904Y-99976247D02*
X223734285Y-99881009D01*
X223734285Y-99881009D02*
X223686666Y-99833390D01*
X223686666Y-99833390D02*
X223591428Y-99785771D01*
X223591428Y-99785771D02*
X223400952Y-99785771D01*
X223400952Y-99785771D02*
X223305714Y-99833390D01*
X223305714Y-99833390D02*
X223258095Y-99881009D01*
X223258095Y-99881009D02*
X223210476Y-99976247D01*
X221845142Y-87704819D02*
X221511809Y-87228628D01*
X221273714Y-87704819D02*
X221273714Y-86704819D01*
X221273714Y-86704819D02*
X221654666Y-86704819D01*
X221654666Y-86704819D02*
X221749904Y-86752438D01*
X221749904Y-86752438D02*
X221797523Y-86800057D01*
X221797523Y-86800057D02*
X221845142Y-86895295D01*
X221845142Y-86895295D02*
X221845142Y-87038152D01*
X221845142Y-87038152D02*
X221797523Y-87133390D01*
X221797523Y-87133390D02*
X221749904Y-87181009D01*
X221749904Y-87181009D02*
X221654666Y-87228628D01*
X221654666Y-87228628D02*
X221273714Y-87228628D01*
X222178476Y-86704819D02*
X222797523Y-86704819D01*
X222797523Y-86704819D02*
X222464190Y-87085771D01*
X222464190Y-87085771D02*
X222607047Y-87085771D01*
X222607047Y-87085771D02*
X222702285Y-87133390D01*
X222702285Y-87133390D02*
X222749904Y-87181009D01*
X222749904Y-87181009D02*
X222797523Y-87276247D01*
X222797523Y-87276247D02*
X222797523Y-87514342D01*
X222797523Y-87514342D02*
X222749904Y-87609580D01*
X222749904Y-87609580D02*
X222702285Y-87657200D01*
X222702285Y-87657200D02*
X222607047Y-87704819D01*
X222607047Y-87704819D02*
X222321333Y-87704819D01*
X222321333Y-87704819D02*
X222226095Y-87657200D01*
X222226095Y-87657200D02*
X222178476Y-87609580D01*
X223178476Y-86800057D02*
X223226095Y-86752438D01*
X223226095Y-86752438D02*
X223321333Y-86704819D01*
X223321333Y-86704819D02*
X223559428Y-86704819D01*
X223559428Y-86704819D02*
X223654666Y-86752438D01*
X223654666Y-86752438D02*
X223702285Y-86800057D01*
X223702285Y-86800057D02*
X223749904Y-86895295D01*
X223749904Y-86895295D02*
X223749904Y-86990533D01*
X223749904Y-86990533D02*
X223702285Y-87133390D01*
X223702285Y-87133390D02*
X223130857Y-87704819D01*
X223130857Y-87704819D02*
X223749904Y-87704819D01*
X221845142Y-90244819D02*
X221511809Y-89768628D01*
X221273714Y-90244819D02*
X221273714Y-89244819D01*
X221273714Y-89244819D02*
X221654666Y-89244819D01*
X221654666Y-89244819D02*
X221749904Y-89292438D01*
X221749904Y-89292438D02*
X221797523Y-89340057D01*
X221797523Y-89340057D02*
X221845142Y-89435295D01*
X221845142Y-89435295D02*
X221845142Y-89578152D01*
X221845142Y-89578152D02*
X221797523Y-89673390D01*
X221797523Y-89673390D02*
X221749904Y-89721009D01*
X221749904Y-89721009D02*
X221654666Y-89768628D01*
X221654666Y-89768628D02*
X221273714Y-89768628D01*
X222178476Y-89244819D02*
X222797523Y-89244819D01*
X222797523Y-89244819D02*
X222464190Y-89625771D01*
X222464190Y-89625771D02*
X222607047Y-89625771D01*
X222607047Y-89625771D02*
X222702285Y-89673390D01*
X222702285Y-89673390D02*
X222749904Y-89721009D01*
X222749904Y-89721009D02*
X222797523Y-89816247D01*
X222797523Y-89816247D02*
X222797523Y-90054342D01*
X222797523Y-90054342D02*
X222749904Y-90149580D01*
X222749904Y-90149580D02*
X222702285Y-90197200D01*
X222702285Y-90197200D02*
X222607047Y-90244819D01*
X222607047Y-90244819D02*
X222321333Y-90244819D01*
X222321333Y-90244819D02*
X222226095Y-90197200D01*
X222226095Y-90197200D02*
X222178476Y-90149580D01*
X223416571Y-89244819D02*
X223511809Y-89244819D01*
X223511809Y-89244819D02*
X223607047Y-89292438D01*
X223607047Y-89292438D02*
X223654666Y-89340057D01*
X223654666Y-89340057D02*
X223702285Y-89435295D01*
X223702285Y-89435295D02*
X223749904Y-89625771D01*
X223749904Y-89625771D02*
X223749904Y-89863866D01*
X223749904Y-89863866D02*
X223702285Y-90054342D01*
X223702285Y-90054342D02*
X223654666Y-90149580D01*
X223654666Y-90149580D02*
X223607047Y-90197200D01*
X223607047Y-90197200D02*
X223511809Y-90244819D01*
X223511809Y-90244819D02*
X223416571Y-90244819D01*
X223416571Y-90244819D02*
X223321333Y-90197200D01*
X223321333Y-90197200D02*
X223273714Y-90149580D01*
X223273714Y-90149580D02*
X223226095Y-90054342D01*
X223226095Y-90054342D02*
X223178476Y-89863866D01*
X223178476Y-89863866D02*
X223178476Y-89625771D01*
X223178476Y-89625771D02*
X223226095Y-89435295D01*
X223226095Y-89435295D02*
X223273714Y-89340057D01*
X223273714Y-89340057D02*
X223321333Y-89292438D01*
X223321333Y-89292438D02*
X223416571Y-89244819D01*
X221877142Y-49604819D02*
X221543809Y-49128628D01*
X221305714Y-49604819D02*
X221305714Y-48604819D01*
X221305714Y-48604819D02*
X221686666Y-48604819D01*
X221686666Y-48604819D02*
X221781904Y-48652438D01*
X221781904Y-48652438D02*
X221829523Y-48700057D01*
X221829523Y-48700057D02*
X221877142Y-48795295D01*
X221877142Y-48795295D02*
X221877142Y-48938152D01*
X221877142Y-48938152D02*
X221829523Y-49033390D01*
X221829523Y-49033390D02*
X221781904Y-49081009D01*
X221781904Y-49081009D02*
X221686666Y-49128628D01*
X221686666Y-49128628D02*
X221305714Y-49128628D01*
X222258095Y-48700057D02*
X222305714Y-48652438D01*
X222305714Y-48652438D02*
X222400952Y-48604819D01*
X222400952Y-48604819D02*
X222639047Y-48604819D01*
X222639047Y-48604819D02*
X222734285Y-48652438D01*
X222734285Y-48652438D02*
X222781904Y-48700057D01*
X222781904Y-48700057D02*
X222829523Y-48795295D01*
X222829523Y-48795295D02*
X222829523Y-48890533D01*
X222829523Y-48890533D02*
X222781904Y-49033390D01*
X222781904Y-49033390D02*
X222210476Y-49604819D01*
X222210476Y-49604819D02*
X222829523Y-49604819D01*
X223400952Y-49033390D02*
X223305714Y-48985771D01*
X223305714Y-48985771D02*
X223258095Y-48938152D01*
X223258095Y-48938152D02*
X223210476Y-48842914D01*
X223210476Y-48842914D02*
X223210476Y-48795295D01*
X223210476Y-48795295D02*
X223258095Y-48700057D01*
X223258095Y-48700057D02*
X223305714Y-48652438D01*
X223305714Y-48652438D02*
X223400952Y-48604819D01*
X223400952Y-48604819D02*
X223591428Y-48604819D01*
X223591428Y-48604819D02*
X223686666Y-48652438D01*
X223686666Y-48652438D02*
X223734285Y-48700057D01*
X223734285Y-48700057D02*
X223781904Y-48795295D01*
X223781904Y-48795295D02*
X223781904Y-48842914D01*
X223781904Y-48842914D02*
X223734285Y-48938152D01*
X223734285Y-48938152D02*
X223686666Y-48985771D01*
X223686666Y-48985771D02*
X223591428Y-49033390D01*
X223591428Y-49033390D02*
X223400952Y-49033390D01*
X223400952Y-49033390D02*
X223305714Y-49081009D01*
X223305714Y-49081009D02*
X223258095Y-49128628D01*
X223258095Y-49128628D02*
X223210476Y-49223866D01*
X223210476Y-49223866D02*
X223210476Y-49414342D01*
X223210476Y-49414342D02*
X223258095Y-49509580D01*
X223258095Y-49509580D02*
X223305714Y-49557200D01*
X223305714Y-49557200D02*
X223400952Y-49604819D01*
X223400952Y-49604819D02*
X223591428Y-49604819D01*
X223591428Y-49604819D02*
X223686666Y-49557200D01*
X223686666Y-49557200D02*
X223734285Y-49509580D01*
X223734285Y-49509580D02*
X223781904Y-49414342D01*
X223781904Y-49414342D02*
X223781904Y-49223866D01*
X223781904Y-49223866D02*
X223734285Y-49128628D01*
X223734285Y-49128628D02*
X223686666Y-49081009D01*
X223686666Y-49081009D02*
X223591428Y-49033390D01*
X221877142Y-59764819D02*
X221543809Y-59288628D01*
X221305714Y-59764819D02*
X221305714Y-58764819D01*
X221305714Y-58764819D02*
X221686666Y-58764819D01*
X221686666Y-58764819D02*
X221781904Y-58812438D01*
X221781904Y-58812438D02*
X221829523Y-58860057D01*
X221829523Y-58860057D02*
X221877142Y-58955295D01*
X221877142Y-58955295D02*
X221877142Y-59098152D01*
X221877142Y-59098152D02*
X221829523Y-59193390D01*
X221829523Y-59193390D02*
X221781904Y-59241009D01*
X221781904Y-59241009D02*
X221686666Y-59288628D01*
X221686666Y-59288628D02*
X221305714Y-59288628D01*
X222258095Y-58860057D02*
X222305714Y-58812438D01*
X222305714Y-58812438D02*
X222400952Y-58764819D01*
X222400952Y-58764819D02*
X222639047Y-58764819D01*
X222639047Y-58764819D02*
X222734285Y-58812438D01*
X222734285Y-58812438D02*
X222781904Y-58860057D01*
X222781904Y-58860057D02*
X222829523Y-58955295D01*
X222829523Y-58955295D02*
X222829523Y-59050533D01*
X222829523Y-59050533D02*
X222781904Y-59193390D01*
X222781904Y-59193390D02*
X222210476Y-59764819D01*
X222210476Y-59764819D02*
X222829523Y-59764819D01*
X223734285Y-58764819D02*
X223258095Y-58764819D01*
X223258095Y-58764819D02*
X223210476Y-59241009D01*
X223210476Y-59241009D02*
X223258095Y-59193390D01*
X223258095Y-59193390D02*
X223353333Y-59145771D01*
X223353333Y-59145771D02*
X223591428Y-59145771D01*
X223591428Y-59145771D02*
X223686666Y-59193390D01*
X223686666Y-59193390D02*
X223734285Y-59241009D01*
X223734285Y-59241009D02*
X223781904Y-59336247D01*
X223781904Y-59336247D02*
X223781904Y-59574342D01*
X223781904Y-59574342D02*
X223734285Y-59669580D01*
X223734285Y-59669580D02*
X223686666Y-59717200D01*
X223686666Y-59717200D02*
X223591428Y-59764819D01*
X223591428Y-59764819D02*
X223353333Y-59764819D01*
X223353333Y-59764819D02*
X223258095Y-59717200D01*
X223258095Y-59717200D02*
X223210476Y-59669580D01*
X221877142Y-62304819D02*
X221543809Y-61828628D01*
X221305714Y-62304819D02*
X221305714Y-61304819D01*
X221305714Y-61304819D02*
X221686666Y-61304819D01*
X221686666Y-61304819D02*
X221781904Y-61352438D01*
X221781904Y-61352438D02*
X221829523Y-61400057D01*
X221829523Y-61400057D02*
X221877142Y-61495295D01*
X221877142Y-61495295D02*
X221877142Y-61638152D01*
X221877142Y-61638152D02*
X221829523Y-61733390D01*
X221829523Y-61733390D02*
X221781904Y-61781009D01*
X221781904Y-61781009D02*
X221686666Y-61828628D01*
X221686666Y-61828628D02*
X221305714Y-61828628D01*
X222258095Y-61400057D02*
X222305714Y-61352438D01*
X222305714Y-61352438D02*
X222400952Y-61304819D01*
X222400952Y-61304819D02*
X222639047Y-61304819D01*
X222639047Y-61304819D02*
X222734285Y-61352438D01*
X222734285Y-61352438D02*
X222781904Y-61400057D01*
X222781904Y-61400057D02*
X222829523Y-61495295D01*
X222829523Y-61495295D02*
X222829523Y-61590533D01*
X222829523Y-61590533D02*
X222781904Y-61733390D01*
X222781904Y-61733390D02*
X222210476Y-62304819D01*
X222210476Y-62304819D02*
X222829523Y-62304819D01*
X223448571Y-61304819D02*
X223543809Y-61304819D01*
X223543809Y-61304819D02*
X223639047Y-61352438D01*
X223639047Y-61352438D02*
X223686666Y-61400057D01*
X223686666Y-61400057D02*
X223734285Y-61495295D01*
X223734285Y-61495295D02*
X223781904Y-61685771D01*
X223781904Y-61685771D02*
X223781904Y-61923866D01*
X223781904Y-61923866D02*
X223734285Y-62114342D01*
X223734285Y-62114342D02*
X223686666Y-62209580D01*
X223686666Y-62209580D02*
X223639047Y-62257200D01*
X223639047Y-62257200D02*
X223543809Y-62304819D01*
X223543809Y-62304819D02*
X223448571Y-62304819D01*
X223448571Y-62304819D02*
X223353333Y-62257200D01*
X223353333Y-62257200D02*
X223305714Y-62209580D01*
X223305714Y-62209580D02*
X223258095Y-62114342D01*
X223258095Y-62114342D02*
X223210476Y-61923866D01*
X223210476Y-61923866D02*
X223210476Y-61685771D01*
X223210476Y-61685771D02*
X223258095Y-61495295D01*
X223258095Y-61495295D02*
X223305714Y-61400057D01*
X223305714Y-61400057D02*
X223353333Y-61352438D01*
X223353333Y-61352438D02*
X223448571Y-61304819D01*
X221877142Y-64844819D02*
X221543809Y-64368628D01*
X221305714Y-64844819D02*
X221305714Y-63844819D01*
X221305714Y-63844819D02*
X221686666Y-63844819D01*
X221686666Y-63844819D02*
X221781904Y-63892438D01*
X221781904Y-63892438D02*
X221829523Y-63940057D01*
X221829523Y-63940057D02*
X221877142Y-64035295D01*
X221877142Y-64035295D02*
X221877142Y-64178152D01*
X221877142Y-64178152D02*
X221829523Y-64273390D01*
X221829523Y-64273390D02*
X221781904Y-64321009D01*
X221781904Y-64321009D02*
X221686666Y-64368628D01*
X221686666Y-64368628D02*
X221305714Y-64368628D01*
X222829523Y-64844819D02*
X222258095Y-64844819D01*
X222543809Y-64844819D02*
X222543809Y-63844819D01*
X222543809Y-63844819D02*
X222448571Y-63987676D01*
X222448571Y-63987676D02*
X222353333Y-64082914D01*
X222353333Y-64082914D02*
X222258095Y-64130533D01*
X223305714Y-64844819D02*
X223496190Y-64844819D01*
X223496190Y-64844819D02*
X223591428Y-64797200D01*
X223591428Y-64797200D02*
X223639047Y-64749580D01*
X223639047Y-64749580D02*
X223734285Y-64606723D01*
X223734285Y-64606723D02*
X223781904Y-64416247D01*
X223781904Y-64416247D02*
X223781904Y-64035295D01*
X223781904Y-64035295D02*
X223734285Y-63940057D01*
X223734285Y-63940057D02*
X223686666Y-63892438D01*
X223686666Y-63892438D02*
X223591428Y-63844819D01*
X223591428Y-63844819D02*
X223400952Y-63844819D01*
X223400952Y-63844819D02*
X223305714Y-63892438D01*
X223305714Y-63892438D02*
X223258095Y-63940057D01*
X223258095Y-63940057D02*
X223210476Y-64035295D01*
X223210476Y-64035295D02*
X223210476Y-64273390D01*
X223210476Y-64273390D02*
X223258095Y-64368628D01*
X223258095Y-64368628D02*
X223305714Y-64416247D01*
X223305714Y-64416247D02*
X223400952Y-64463866D01*
X223400952Y-64463866D02*
X223591428Y-64463866D01*
X223591428Y-64463866D02*
X223686666Y-64416247D01*
X223686666Y-64416247D02*
X223734285Y-64368628D01*
X223734285Y-64368628D02*
X223781904Y-64273390D01*
X221877142Y-52144819D02*
X221543809Y-51668628D01*
X221305714Y-52144819D02*
X221305714Y-51144819D01*
X221305714Y-51144819D02*
X221686666Y-51144819D01*
X221686666Y-51144819D02*
X221781904Y-51192438D01*
X221781904Y-51192438D02*
X221829523Y-51240057D01*
X221829523Y-51240057D02*
X221877142Y-51335295D01*
X221877142Y-51335295D02*
X221877142Y-51478152D01*
X221877142Y-51478152D02*
X221829523Y-51573390D01*
X221829523Y-51573390D02*
X221781904Y-51621009D01*
X221781904Y-51621009D02*
X221686666Y-51668628D01*
X221686666Y-51668628D02*
X221305714Y-51668628D01*
X222829523Y-52144819D02*
X222258095Y-52144819D01*
X222543809Y-52144819D02*
X222543809Y-51144819D01*
X222543809Y-51144819D02*
X222448571Y-51287676D01*
X222448571Y-51287676D02*
X222353333Y-51382914D01*
X222353333Y-51382914D02*
X222258095Y-51430533D01*
X223162857Y-51144819D02*
X223829523Y-51144819D01*
X223829523Y-51144819D02*
X223400952Y-52144819D01*
X221877142Y-54684819D02*
X221543809Y-54208628D01*
X221305714Y-54684819D02*
X221305714Y-53684819D01*
X221305714Y-53684819D02*
X221686666Y-53684819D01*
X221686666Y-53684819D02*
X221781904Y-53732438D01*
X221781904Y-53732438D02*
X221829523Y-53780057D01*
X221829523Y-53780057D02*
X221877142Y-53875295D01*
X221877142Y-53875295D02*
X221877142Y-54018152D01*
X221877142Y-54018152D02*
X221829523Y-54113390D01*
X221829523Y-54113390D02*
X221781904Y-54161009D01*
X221781904Y-54161009D02*
X221686666Y-54208628D01*
X221686666Y-54208628D02*
X221305714Y-54208628D01*
X222829523Y-54684819D02*
X222258095Y-54684819D01*
X222543809Y-54684819D02*
X222543809Y-53684819D01*
X222543809Y-53684819D02*
X222448571Y-53827676D01*
X222448571Y-53827676D02*
X222353333Y-53922914D01*
X222353333Y-53922914D02*
X222258095Y-53970533D01*
X223734285Y-53684819D02*
X223258095Y-53684819D01*
X223258095Y-53684819D02*
X223210476Y-54161009D01*
X223210476Y-54161009D02*
X223258095Y-54113390D01*
X223258095Y-54113390D02*
X223353333Y-54065771D01*
X223353333Y-54065771D02*
X223591428Y-54065771D01*
X223591428Y-54065771D02*
X223686666Y-54113390D01*
X223686666Y-54113390D02*
X223734285Y-54161009D01*
X223734285Y-54161009D02*
X223781904Y-54256247D01*
X223781904Y-54256247D02*
X223781904Y-54494342D01*
X223781904Y-54494342D02*
X223734285Y-54589580D01*
X223734285Y-54589580D02*
X223686666Y-54637200D01*
X223686666Y-54637200D02*
X223591428Y-54684819D01*
X223591428Y-54684819D02*
X223353333Y-54684819D01*
X223353333Y-54684819D02*
X223258095Y-54637200D01*
X223258095Y-54637200D02*
X223210476Y-54589580D01*
X221877142Y-57224819D02*
X221543809Y-56748628D01*
X221305714Y-57224819D02*
X221305714Y-56224819D01*
X221305714Y-56224819D02*
X221686666Y-56224819D01*
X221686666Y-56224819D02*
X221781904Y-56272438D01*
X221781904Y-56272438D02*
X221829523Y-56320057D01*
X221829523Y-56320057D02*
X221877142Y-56415295D01*
X221877142Y-56415295D02*
X221877142Y-56558152D01*
X221877142Y-56558152D02*
X221829523Y-56653390D01*
X221829523Y-56653390D02*
X221781904Y-56701009D01*
X221781904Y-56701009D02*
X221686666Y-56748628D01*
X221686666Y-56748628D02*
X221305714Y-56748628D01*
X222829523Y-57224819D02*
X222258095Y-57224819D01*
X222543809Y-57224819D02*
X222543809Y-56224819D01*
X222543809Y-56224819D02*
X222448571Y-56367676D01*
X222448571Y-56367676D02*
X222353333Y-56462914D01*
X222353333Y-56462914D02*
X222258095Y-56510533D01*
X223162857Y-56224819D02*
X223781904Y-56224819D01*
X223781904Y-56224819D02*
X223448571Y-56605771D01*
X223448571Y-56605771D02*
X223591428Y-56605771D01*
X223591428Y-56605771D02*
X223686666Y-56653390D01*
X223686666Y-56653390D02*
X223734285Y-56701009D01*
X223734285Y-56701009D02*
X223781904Y-56796247D01*
X223781904Y-56796247D02*
X223781904Y-57034342D01*
X223781904Y-57034342D02*
X223734285Y-57129580D01*
X223734285Y-57129580D02*
X223686666Y-57177200D01*
X223686666Y-57177200D02*
X223591428Y-57224819D01*
X223591428Y-57224819D02*
X223305714Y-57224819D01*
X223305714Y-57224819D02*
X223210476Y-57177200D01*
X223210476Y-57177200D02*
X223162857Y-57129580D01*
X222321333Y-77544819D02*
X221988000Y-77068628D01*
X221749905Y-77544819D02*
X221749905Y-76544819D01*
X221749905Y-76544819D02*
X222130857Y-76544819D01*
X222130857Y-76544819D02*
X222226095Y-76592438D01*
X222226095Y-76592438D02*
X222273714Y-76640057D01*
X222273714Y-76640057D02*
X222321333Y-76735295D01*
X222321333Y-76735295D02*
X222321333Y-76878152D01*
X222321333Y-76878152D02*
X222273714Y-76973390D01*
X222273714Y-76973390D02*
X222226095Y-77021009D01*
X222226095Y-77021009D02*
X222130857Y-77068628D01*
X222130857Y-77068628D02*
X221749905Y-77068628D01*
X222797524Y-77544819D02*
X222988000Y-77544819D01*
X222988000Y-77544819D02*
X223083238Y-77497200D01*
X223083238Y-77497200D02*
X223130857Y-77449580D01*
X223130857Y-77449580D02*
X223226095Y-77306723D01*
X223226095Y-77306723D02*
X223273714Y-77116247D01*
X223273714Y-77116247D02*
X223273714Y-76735295D01*
X223273714Y-76735295D02*
X223226095Y-76640057D01*
X223226095Y-76640057D02*
X223178476Y-76592438D01*
X223178476Y-76592438D02*
X223083238Y-76544819D01*
X223083238Y-76544819D02*
X222892762Y-76544819D01*
X222892762Y-76544819D02*
X222797524Y-76592438D01*
X222797524Y-76592438D02*
X222749905Y-76640057D01*
X222749905Y-76640057D02*
X222702286Y-76735295D01*
X222702286Y-76735295D02*
X222702286Y-76973390D01*
X222702286Y-76973390D02*
X222749905Y-77068628D01*
X222749905Y-77068628D02*
X222797524Y-77116247D01*
X222797524Y-77116247D02*
X222892762Y-77163866D01*
X222892762Y-77163866D02*
X223083238Y-77163866D01*
X223083238Y-77163866D02*
X223178476Y-77116247D01*
X223178476Y-77116247D02*
X223226095Y-77068628D01*
X223226095Y-77068628D02*
X223273714Y-76973390D01*
X222321333Y-80084819D02*
X221988000Y-79608628D01*
X221749905Y-80084819D02*
X221749905Y-79084819D01*
X221749905Y-79084819D02*
X222130857Y-79084819D01*
X222130857Y-79084819D02*
X222226095Y-79132438D01*
X222226095Y-79132438D02*
X222273714Y-79180057D01*
X222273714Y-79180057D02*
X222321333Y-79275295D01*
X222321333Y-79275295D02*
X222321333Y-79418152D01*
X222321333Y-79418152D02*
X222273714Y-79513390D01*
X222273714Y-79513390D02*
X222226095Y-79561009D01*
X222226095Y-79561009D02*
X222130857Y-79608628D01*
X222130857Y-79608628D02*
X221749905Y-79608628D01*
X222654667Y-79084819D02*
X223321333Y-79084819D01*
X223321333Y-79084819D02*
X222892762Y-80084819D01*
X222321333Y-82624819D02*
X221988000Y-82148628D01*
X221749905Y-82624819D02*
X221749905Y-81624819D01*
X221749905Y-81624819D02*
X222130857Y-81624819D01*
X222130857Y-81624819D02*
X222226095Y-81672438D01*
X222226095Y-81672438D02*
X222273714Y-81720057D01*
X222273714Y-81720057D02*
X222321333Y-81815295D01*
X222321333Y-81815295D02*
X222321333Y-81958152D01*
X222321333Y-81958152D02*
X222273714Y-82053390D01*
X222273714Y-82053390D02*
X222226095Y-82101009D01*
X222226095Y-82101009D02*
X222130857Y-82148628D01*
X222130857Y-82148628D02*
X221749905Y-82148628D01*
X223226095Y-81624819D02*
X222749905Y-81624819D01*
X222749905Y-81624819D02*
X222702286Y-82101009D01*
X222702286Y-82101009D02*
X222749905Y-82053390D01*
X222749905Y-82053390D02*
X222845143Y-82005771D01*
X222845143Y-82005771D02*
X223083238Y-82005771D01*
X223083238Y-82005771D02*
X223178476Y-82053390D01*
X223178476Y-82053390D02*
X223226095Y-82101009D01*
X223226095Y-82101009D02*
X223273714Y-82196247D01*
X223273714Y-82196247D02*
X223273714Y-82434342D01*
X223273714Y-82434342D02*
X223226095Y-82529580D01*
X223226095Y-82529580D02*
X223178476Y-82577200D01*
X223178476Y-82577200D02*
X223083238Y-82624819D01*
X223083238Y-82624819D02*
X222845143Y-82624819D01*
X222845143Y-82624819D02*
X222749905Y-82577200D01*
X222749905Y-82577200D02*
X222702286Y-82529580D01*
X222321333Y-85164819D02*
X221988000Y-84688628D01*
X221749905Y-85164819D02*
X221749905Y-84164819D01*
X221749905Y-84164819D02*
X222130857Y-84164819D01*
X222130857Y-84164819D02*
X222226095Y-84212438D01*
X222226095Y-84212438D02*
X222273714Y-84260057D01*
X222273714Y-84260057D02*
X222321333Y-84355295D01*
X222321333Y-84355295D02*
X222321333Y-84498152D01*
X222321333Y-84498152D02*
X222273714Y-84593390D01*
X222273714Y-84593390D02*
X222226095Y-84641009D01*
X222226095Y-84641009D02*
X222130857Y-84688628D01*
X222130857Y-84688628D02*
X221749905Y-84688628D01*
X222654667Y-84164819D02*
X223273714Y-84164819D01*
X223273714Y-84164819D02*
X222940381Y-84545771D01*
X222940381Y-84545771D02*
X223083238Y-84545771D01*
X223083238Y-84545771D02*
X223178476Y-84593390D01*
X223178476Y-84593390D02*
X223226095Y-84641009D01*
X223226095Y-84641009D02*
X223273714Y-84736247D01*
X223273714Y-84736247D02*
X223273714Y-84974342D01*
X223273714Y-84974342D02*
X223226095Y-85069580D01*
X223226095Y-85069580D02*
X223178476Y-85117200D01*
X223178476Y-85117200D02*
X223083238Y-85164819D01*
X223083238Y-85164819D02*
X222797524Y-85164819D01*
X222797524Y-85164819D02*
X222702286Y-85117200D01*
X222702286Y-85117200D02*
X222654667Y-85069580D01*
X222321333Y-92784819D02*
X221988000Y-92308628D01*
X221749905Y-92784819D02*
X221749905Y-91784819D01*
X221749905Y-91784819D02*
X222130857Y-91784819D01*
X222130857Y-91784819D02*
X222226095Y-91832438D01*
X222226095Y-91832438D02*
X222273714Y-91880057D01*
X222273714Y-91880057D02*
X222321333Y-91975295D01*
X222321333Y-91975295D02*
X222321333Y-92118152D01*
X222321333Y-92118152D02*
X222273714Y-92213390D01*
X222273714Y-92213390D02*
X222226095Y-92261009D01*
X222226095Y-92261009D02*
X222130857Y-92308628D01*
X222130857Y-92308628D02*
X221749905Y-92308628D01*
X222702286Y-91880057D02*
X222749905Y-91832438D01*
X222749905Y-91832438D02*
X222845143Y-91784819D01*
X222845143Y-91784819D02*
X223083238Y-91784819D01*
X223083238Y-91784819D02*
X223178476Y-91832438D01*
X223178476Y-91832438D02*
X223226095Y-91880057D01*
X223226095Y-91880057D02*
X223273714Y-91975295D01*
X223273714Y-91975295D02*
X223273714Y-92070533D01*
X223273714Y-92070533D02*
X223226095Y-92213390D01*
X223226095Y-92213390D02*
X222654667Y-92784819D01*
X222654667Y-92784819D02*
X223273714Y-92784819D01*
X174926666Y-111374819D02*
X174926666Y-112089104D01*
X174926666Y-112089104D02*
X174879047Y-112231961D01*
X174879047Y-112231961D02*
X174783809Y-112327200D01*
X174783809Y-112327200D02*
X174640952Y-112374819D01*
X174640952Y-112374819D02*
X174545714Y-112374819D01*
X175545714Y-111803390D02*
X175450476Y-111755771D01*
X175450476Y-111755771D02*
X175402857Y-111708152D01*
X175402857Y-111708152D02*
X175355238Y-111612914D01*
X175355238Y-111612914D02*
X175355238Y-111565295D01*
X175355238Y-111565295D02*
X175402857Y-111470057D01*
X175402857Y-111470057D02*
X175450476Y-111422438D01*
X175450476Y-111422438D02*
X175545714Y-111374819D01*
X175545714Y-111374819D02*
X175736190Y-111374819D01*
X175736190Y-111374819D02*
X175831428Y-111422438D01*
X175831428Y-111422438D02*
X175879047Y-111470057D01*
X175879047Y-111470057D02*
X175926666Y-111565295D01*
X175926666Y-111565295D02*
X175926666Y-111612914D01*
X175926666Y-111612914D02*
X175879047Y-111708152D01*
X175879047Y-111708152D02*
X175831428Y-111755771D01*
X175831428Y-111755771D02*
X175736190Y-111803390D01*
X175736190Y-111803390D02*
X175545714Y-111803390D01*
X175545714Y-111803390D02*
X175450476Y-111851009D01*
X175450476Y-111851009D02*
X175402857Y-111898628D01*
X175402857Y-111898628D02*
X175355238Y-111993866D01*
X175355238Y-111993866D02*
X175355238Y-112184342D01*
X175355238Y-112184342D02*
X175402857Y-112279580D01*
X175402857Y-112279580D02*
X175450476Y-112327200D01*
X175450476Y-112327200D02*
X175545714Y-112374819D01*
X175545714Y-112374819D02*
X175736190Y-112374819D01*
X175736190Y-112374819D02*
X175831428Y-112327200D01*
X175831428Y-112327200D02*
X175879047Y-112279580D01*
X175879047Y-112279580D02*
X175926666Y-112184342D01*
X175926666Y-112184342D02*
X175926666Y-111993866D01*
X175926666Y-111993866D02*
X175879047Y-111898628D01*
X175879047Y-111898628D02*
X175831428Y-111851009D01*
X175831428Y-111851009D02*
X175736190Y-111803390D01*
X185340666Y-148138819D02*
X185340666Y-148853104D01*
X185340666Y-148853104D02*
X185293047Y-148995961D01*
X185293047Y-148995961D02*
X185197809Y-149091200D01*
X185197809Y-149091200D02*
X185054952Y-149138819D01*
X185054952Y-149138819D02*
X184959714Y-149138819D01*
X185721619Y-148138819D02*
X186388285Y-148138819D01*
X186388285Y-148138819D02*
X185959714Y-149138819D01*
X192480666Y-148138819D02*
X192480666Y-148853104D01*
X192480666Y-148853104D02*
X192433047Y-148995961D01*
X192433047Y-148995961D02*
X192337809Y-149091200D01*
X192337809Y-149091200D02*
X192194952Y-149138819D01*
X192194952Y-149138819D02*
X192099714Y-149138819D01*
X193385428Y-148138819D02*
X193194952Y-148138819D01*
X193194952Y-148138819D02*
X193099714Y-148186438D01*
X193099714Y-148186438D02*
X193052095Y-148234057D01*
X193052095Y-148234057D02*
X192956857Y-148376914D01*
X192956857Y-148376914D02*
X192909238Y-148567390D01*
X192909238Y-148567390D02*
X192909238Y-148948342D01*
X192909238Y-148948342D02*
X192956857Y-149043580D01*
X192956857Y-149043580D02*
X193004476Y-149091200D01*
X193004476Y-149091200D02*
X193099714Y-149138819D01*
X193099714Y-149138819D02*
X193290190Y-149138819D01*
X193290190Y-149138819D02*
X193385428Y-149091200D01*
X193385428Y-149091200D02*
X193433047Y-149043580D01*
X193433047Y-149043580D02*
X193480666Y-148948342D01*
X193480666Y-148948342D02*
X193480666Y-148710247D01*
X193480666Y-148710247D02*
X193433047Y-148615009D01*
X193433047Y-148615009D02*
X193385428Y-148567390D01*
X193385428Y-148567390D02*
X193290190Y-148519771D01*
X193290190Y-148519771D02*
X193099714Y-148519771D01*
X193099714Y-148519771D02*
X193004476Y-148567390D01*
X193004476Y-148567390D02*
X192956857Y-148615009D01*
X192956857Y-148615009D02*
X192909238Y-148710247D01*
X199620666Y-148138819D02*
X199620666Y-148853104D01*
X199620666Y-148853104D02*
X199573047Y-148995961D01*
X199573047Y-148995961D02*
X199477809Y-149091200D01*
X199477809Y-149091200D02*
X199334952Y-149138819D01*
X199334952Y-149138819D02*
X199239714Y-149138819D01*
X200573047Y-148138819D02*
X200096857Y-148138819D01*
X200096857Y-148138819D02*
X200049238Y-148615009D01*
X200049238Y-148615009D02*
X200096857Y-148567390D01*
X200096857Y-148567390D02*
X200192095Y-148519771D01*
X200192095Y-148519771D02*
X200430190Y-148519771D01*
X200430190Y-148519771D02*
X200525428Y-148567390D01*
X200525428Y-148567390D02*
X200573047Y-148615009D01*
X200573047Y-148615009D02*
X200620666Y-148710247D01*
X200620666Y-148710247D02*
X200620666Y-148948342D01*
X200620666Y-148948342D02*
X200573047Y-149043580D01*
X200573047Y-149043580D02*
X200525428Y-149091200D01*
X200525428Y-149091200D02*
X200430190Y-149138819D01*
X200430190Y-149138819D02*
X200192095Y-149138819D01*
X200192095Y-149138819D02*
X200096857Y-149091200D01*
X200096857Y-149091200D02*
X200049238Y-149043580D01*
X206760666Y-148138819D02*
X206760666Y-148853104D01*
X206760666Y-148853104D02*
X206713047Y-148995961D01*
X206713047Y-148995961D02*
X206617809Y-149091200D01*
X206617809Y-149091200D02*
X206474952Y-149138819D01*
X206474952Y-149138819D02*
X206379714Y-149138819D01*
X207665428Y-148472152D02*
X207665428Y-149138819D01*
X207427333Y-148091200D02*
X207189238Y-148805485D01*
X207189238Y-148805485D02*
X207808285Y-148805485D01*
X213900666Y-148138819D02*
X213900666Y-148853104D01*
X213900666Y-148853104D02*
X213853047Y-148995961D01*
X213853047Y-148995961D02*
X213757809Y-149091200D01*
X213757809Y-149091200D02*
X213614952Y-149138819D01*
X213614952Y-149138819D02*
X213519714Y-149138819D01*
X214281619Y-148138819D02*
X214900666Y-148138819D01*
X214900666Y-148138819D02*
X214567333Y-148519771D01*
X214567333Y-148519771D02*
X214710190Y-148519771D01*
X214710190Y-148519771D02*
X214805428Y-148567390D01*
X214805428Y-148567390D02*
X214853047Y-148615009D01*
X214853047Y-148615009D02*
X214900666Y-148710247D01*
X214900666Y-148710247D02*
X214900666Y-148948342D01*
X214900666Y-148948342D02*
X214853047Y-149043580D01*
X214853047Y-149043580D02*
X214805428Y-149091200D01*
X214805428Y-149091200D02*
X214710190Y-149138819D01*
X214710190Y-149138819D02*
X214424476Y-149138819D01*
X214424476Y-149138819D02*
X214329238Y-149091200D01*
X214329238Y-149091200D02*
X214281619Y-149043580D01*
X152788214Y-132884819D02*
X152788214Y-131884819D01*
X152788214Y-131884819D02*
X153026309Y-131884819D01*
X153026309Y-131884819D02*
X153169166Y-131932438D01*
X153169166Y-131932438D02*
X153264404Y-132027676D01*
X153264404Y-132027676D02*
X153312023Y-132122914D01*
X153312023Y-132122914D02*
X153359642Y-132313390D01*
X153359642Y-132313390D02*
X153359642Y-132456247D01*
X153359642Y-132456247D02*
X153312023Y-132646723D01*
X153312023Y-132646723D02*
X153264404Y-132741961D01*
X153264404Y-132741961D02*
X153169166Y-132837200D01*
X153169166Y-132837200D02*
X153026309Y-132884819D01*
X153026309Y-132884819D02*
X152788214Y-132884819D01*
X154312023Y-132884819D02*
X153740595Y-132884819D01*
X154026309Y-132884819D02*
X154026309Y-131884819D01*
X154026309Y-131884819D02*
X153931071Y-132027676D01*
X153931071Y-132027676D02*
X153835833Y-132122914D01*
X153835833Y-132122914D02*
X153740595Y-132170533D01*
X154645357Y-131884819D02*
X155312023Y-131884819D01*
X155312023Y-131884819D02*
X154883452Y-132884819D01*
X153264405Y-129844819D02*
X153264405Y-128844819D01*
X153264405Y-128844819D02*
X153502500Y-128844819D01*
X153502500Y-128844819D02*
X153645357Y-128892438D01*
X153645357Y-128892438D02*
X153740595Y-128987676D01*
X153740595Y-128987676D02*
X153788214Y-129082914D01*
X153788214Y-129082914D02*
X153835833Y-129273390D01*
X153835833Y-129273390D02*
X153835833Y-129416247D01*
X153835833Y-129416247D02*
X153788214Y-129606723D01*
X153788214Y-129606723D02*
X153740595Y-129701961D01*
X153740595Y-129701961D02*
X153645357Y-129797200D01*
X153645357Y-129797200D02*
X153502500Y-129844819D01*
X153502500Y-129844819D02*
X153264405Y-129844819D01*
X154407262Y-129273390D02*
X154312024Y-129225771D01*
X154312024Y-129225771D02*
X154264405Y-129178152D01*
X154264405Y-129178152D02*
X154216786Y-129082914D01*
X154216786Y-129082914D02*
X154216786Y-129035295D01*
X154216786Y-129035295D02*
X154264405Y-128940057D01*
X154264405Y-128940057D02*
X154312024Y-128892438D01*
X154312024Y-128892438D02*
X154407262Y-128844819D01*
X154407262Y-128844819D02*
X154597738Y-128844819D01*
X154597738Y-128844819D02*
X154692976Y-128892438D01*
X154692976Y-128892438D02*
X154740595Y-128940057D01*
X154740595Y-128940057D02*
X154788214Y-129035295D01*
X154788214Y-129035295D02*
X154788214Y-129082914D01*
X154788214Y-129082914D02*
X154740595Y-129178152D01*
X154740595Y-129178152D02*
X154692976Y-129225771D01*
X154692976Y-129225771D02*
X154597738Y-129273390D01*
X154597738Y-129273390D02*
X154407262Y-129273390D01*
X154407262Y-129273390D02*
X154312024Y-129321009D01*
X154312024Y-129321009D02*
X154264405Y-129368628D01*
X154264405Y-129368628D02*
X154216786Y-129463866D01*
X154216786Y-129463866D02*
X154216786Y-129654342D01*
X154216786Y-129654342D02*
X154264405Y-129749580D01*
X154264405Y-129749580D02*
X154312024Y-129797200D01*
X154312024Y-129797200D02*
X154407262Y-129844819D01*
X154407262Y-129844819D02*
X154597738Y-129844819D01*
X154597738Y-129844819D02*
X154692976Y-129797200D01*
X154692976Y-129797200D02*
X154740595Y-129749580D01*
X154740595Y-129749580D02*
X154788214Y-129654342D01*
X154788214Y-129654342D02*
X154788214Y-129463866D01*
X154788214Y-129463866D02*
X154740595Y-129368628D01*
X154740595Y-129368628D02*
X154692976Y-129321009D01*
X154692976Y-129321009D02*
X154597738Y-129273390D01*
X153264405Y-126804819D02*
X153264405Y-125804819D01*
X153264405Y-125804819D02*
X153502500Y-125804819D01*
X153502500Y-125804819D02*
X153645357Y-125852438D01*
X153645357Y-125852438D02*
X153740595Y-125947676D01*
X153740595Y-125947676D02*
X153788214Y-126042914D01*
X153788214Y-126042914D02*
X153835833Y-126233390D01*
X153835833Y-126233390D02*
X153835833Y-126376247D01*
X153835833Y-126376247D02*
X153788214Y-126566723D01*
X153788214Y-126566723D02*
X153740595Y-126661961D01*
X153740595Y-126661961D02*
X153645357Y-126757200D01*
X153645357Y-126757200D02*
X153502500Y-126804819D01*
X153502500Y-126804819D02*
X153264405Y-126804819D01*
X154169167Y-125804819D02*
X154835833Y-125804819D01*
X154835833Y-125804819D02*
X154407262Y-126804819D01*
X153264405Y-123764819D02*
X153264405Y-122764819D01*
X153264405Y-122764819D02*
X153502500Y-122764819D01*
X153502500Y-122764819D02*
X153645357Y-122812438D01*
X153645357Y-122812438D02*
X153740595Y-122907676D01*
X153740595Y-122907676D02*
X153788214Y-123002914D01*
X153788214Y-123002914D02*
X153835833Y-123193390D01*
X153835833Y-123193390D02*
X153835833Y-123336247D01*
X153835833Y-123336247D02*
X153788214Y-123526723D01*
X153788214Y-123526723D02*
X153740595Y-123621961D01*
X153740595Y-123621961D02*
X153645357Y-123717200D01*
X153645357Y-123717200D02*
X153502500Y-123764819D01*
X153502500Y-123764819D02*
X153264405Y-123764819D01*
X154692976Y-122764819D02*
X154502500Y-122764819D01*
X154502500Y-122764819D02*
X154407262Y-122812438D01*
X154407262Y-122812438D02*
X154359643Y-122860057D01*
X154359643Y-122860057D02*
X154264405Y-123002914D01*
X154264405Y-123002914D02*
X154216786Y-123193390D01*
X154216786Y-123193390D02*
X154216786Y-123574342D01*
X154216786Y-123574342D02*
X154264405Y-123669580D01*
X154264405Y-123669580D02*
X154312024Y-123717200D01*
X154312024Y-123717200D02*
X154407262Y-123764819D01*
X154407262Y-123764819D02*
X154597738Y-123764819D01*
X154597738Y-123764819D02*
X154692976Y-123717200D01*
X154692976Y-123717200D02*
X154740595Y-123669580D01*
X154740595Y-123669580D02*
X154788214Y-123574342D01*
X154788214Y-123574342D02*
X154788214Y-123336247D01*
X154788214Y-123336247D02*
X154740595Y-123241009D01*
X154740595Y-123241009D02*
X154692976Y-123193390D01*
X154692976Y-123193390D02*
X154597738Y-123145771D01*
X154597738Y-123145771D02*
X154407262Y-123145771D01*
X154407262Y-123145771D02*
X154312024Y-123193390D01*
X154312024Y-123193390D02*
X154264405Y-123241009D01*
X154264405Y-123241009D02*
X154216786Y-123336247D01*
X153264405Y-120724819D02*
X153264405Y-119724819D01*
X153264405Y-119724819D02*
X153502500Y-119724819D01*
X153502500Y-119724819D02*
X153645357Y-119772438D01*
X153645357Y-119772438D02*
X153740595Y-119867676D01*
X153740595Y-119867676D02*
X153788214Y-119962914D01*
X153788214Y-119962914D02*
X153835833Y-120153390D01*
X153835833Y-120153390D02*
X153835833Y-120296247D01*
X153835833Y-120296247D02*
X153788214Y-120486723D01*
X153788214Y-120486723D02*
X153740595Y-120581961D01*
X153740595Y-120581961D02*
X153645357Y-120677200D01*
X153645357Y-120677200D02*
X153502500Y-120724819D01*
X153502500Y-120724819D02*
X153264405Y-120724819D01*
X154740595Y-119724819D02*
X154264405Y-119724819D01*
X154264405Y-119724819D02*
X154216786Y-120201009D01*
X154216786Y-120201009D02*
X154264405Y-120153390D01*
X154264405Y-120153390D02*
X154359643Y-120105771D01*
X154359643Y-120105771D02*
X154597738Y-120105771D01*
X154597738Y-120105771D02*
X154692976Y-120153390D01*
X154692976Y-120153390D02*
X154740595Y-120201009D01*
X154740595Y-120201009D02*
X154788214Y-120296247D01*
X154788214Y-120296247D02*
X154788214Y-120534342D01*
X154788214Y-120534342D02*
X154740595Y-120629580D01*
X154740595Y-120629580D02*
X154692976Y-120677200D01*
X154692976Y-120677200D02*
X154597738Y-120724819D01*
X154597738Y-120724819D02*
X154359643Y-120724819D01*
X154359643Y-120724819D02*
X154264405Y-120677200D01*
X154264405Y-120677200D02*
X154216786Y-120629580D01*
X153264405Y-117684819D02*
X153264405Y-116684819D01*
X153264405Y-116684819D02*
X153502500Y-116684819D01*
X153502500Y-116684819D02*
X153645357Y-116732438D01*
X153645357Y-116732438D02*
X153740595Y-116827676D01*
X153740595Y-116827676D02*
X153788214Y-116922914D01*
X153788214Y-116922914D02*
X153835833Y-117113390D01*
X153835833Y-117113390D02*
X153835833Y-117256247D01*
X153835833Y-117256247D02*
X153788214Y-117446723D01*
X153788214Y-117446723D02*
X153740595Y-117541961D01*
X153740595Y-117541961D02*
X153645357Y-117637200D01*
X153645357Y-117637200D02*
X153502500Y-117684819D01*
X153502500Y-117684819D02*
X153264405Y-117684819D01*
X154692976Y-117018152D02*
X154692976Y-117684819D01*
X154454881Y-116637200D02*
X154216786Y-117351485D01*
X154216786Y-117351485D02*
X154835833Y-117351485D01*
X153264405Y-114644819D02*
X153264405Y-113644819D01*
X153264405Y-113644819D02*
X153502500Y-113644819D01*
X153502500Y-113644819D02*
X153645357Y-113692438D01*
X153645357Y-113692438D02*
X153740595Y-113787676D01*
X153740595Y-113787676D02*
X153788214Y-113882914D01*
X153788214Y-113882914D02*
X153835833Y-114073390D01*
X153835833Y-114073390D02*
X153835833Y-114216247D01*
X153835833Y-114216247D02*
X153788214Y-114406723D01*
X153788214Y-114406723D02*
X153740595Y-114501961D01*
X153740595Y-114501961D02*
X153645357Y-114597200D01*
X153645357Y-114597200D02*
X153502500Y-114644819D01*
X153502500Y-114644819D02*
X153264405Y-114644819D01*
X154169167Y-113644819D02*
X154788214Y-113644819D01*
X154788214Y-113644819D02*
X154454881Y-114025771D01*
X154454881Y-114025771D02*
X154597738Y-114025771D01*
X154597738Y-114025771D02*
X154692976Y-114073390D01*
X154692976Y-114073390D02*
X154740595Y-114121009D01*
X154740595Y-114121009D02*
X154788214Y-114216247D01*
X154788214Y-114216247D02*
X154788214Y-114454342D01*
X154788214Y-114454342D02*
X154740595Y-114549580D01*
X154740595Y-114549580D02*
X154692976Y-114597200D01*
X154692976Y-114597200D02*
X154597738Y-114644819D01*
X154597738Y-114644819D02*
X154312024Y-114644819D01*
X154312024Y-114644819D02*
X154216786Y-114597200D01*
X154216786Y-114597200D02*
X154169167Y-114549580D01*
X153264405Y-111604819D02*
X153264405Y-110604819D01*
X153264405Y-110604819D02*
X153502500Y-110604819D01*
X153502500Y-110604819D02*
X153645357Y-110652438D01*
X153645357Y-110652438D02*
X153740595Y-110747676D01*
X153740595Y-110747676D02*
X153788214Y-110842914D01*
X153788214Y-110842914D02*
X153835833Y-111033390D01*
X153835833Y-111033390D02*
X153835833Y-111176247D01*
X153835833Y-111176247D02*
X153788214Y-111366723D01*
X153788214Y-111366723D02*
X153740595Y-111461961D01*
X153740595Y-111461961D02*
X153645357Y-111557200D01*
X153645357Y-111557200D02*
X153502500Y-111604819D01*
X153502500Y-111604819D02*
X153264405Y-111604819D01*
X154216786Y-110700057D02*
X154264405Y-110652438D01*
X154264405Y-110652438D02*
X154359643Y-110604819D01*
X154359643Y-110604819D02*
X154597738Y-110604819D01*
X154597738Y-110604819D02*
X154692976Y-110652438D01*
X154692976Y-110652438D02*
X154740595Y-110700057D01*
X154740595Y-110700057D02*
X154788214Y-110795295D01*
X154788214Y-110795295D02*
X154788214Y-110890533D01*
X154788214Y-110890533D02*
X154740595Y-111033390D01*
X154740595Y-111033390D02*
X154169167Y-111604819D01*
X154169167Y-111604819D02*
X154788214Y-111604819D01*
X161966819Y-59158094D02*
X160966819Y-59158094D01*
X160966819Y-59158094D02*
X160966819Y-58919999D01*
X160966819Y-58919999D02*
X161014438Y-58777142D01*
X161014438Y-58777142D02*
X161109676Y-58681904D01*
X161109676Y-58681904D02*
X161204914Y-58634285D01*
X161204914Y-58634285D02*
X161395390Y-58586666D01*
X161395390Y-58586666D02*
X161538247Y-58586666D01*
X161538247Y-58586666D02*
X161728723Y-58634285D01*
X161728723Y-58634285D02*
X161823961Y-58681904D01*
X161823961Y-58681904D02*
X161919200Y-58777142D01*
X161919200Y-58777142D02*
X161966819Y-58919999D01*
X161966819Y-58919999D02*
X161966819Y-59158094D01*
X161966819Y-57634285D02*
X161966819Y-58205713D01*
X161966819Y-57919999D02*
X160966819Y-57919999D01*
X160966819Y-57919999D02*
X161109676Y-58015237D01*
X161109676Y-58015237D02*
X161204914Y-58110475D01*
X161204914Y-58110475D02*
X161252533Y-58205713D01*
X149561009Y-25537618D02*
X149561009Y-25204285D01*
X150084819Y-25061428D02*
X150084819Y-25537618D01*
X150084819Y-25537618D02*
X149084819Y-25537618D01*
X149084819Y-25537618D02*
X149084819Y-25061428D01*
X149084819Y-24728094D02*
X150084819Y-24061428D01*
X149084819Y-24061428D02*
X150084819Y-24728094D01*
X149084819Y-23823332D02*
X149084819Y-23251904D01*
X150084819Y-23537618D02*
X149084819Y-23537618D01*
X149180057Y-22966189D02*
X149132438Y-22918570D01*
X149132438Y-22918570D02*
X149084819Y-22823332D01*
X149084819Y-22823332D02*
X149084819Y-22585237D01*
X149084819Y-22585237D02*
X149132438Y-22489999D01*
X149132438Y-22489999D02*
X149180057Y-22442380D01*
X149180057Y-22442380D02*
X149275295Y-22394761D01*
X149275295Y-22394761D02*
X149370533Y-22394761D01*
X149370533Y-22394761D02*
X149513390Y-22442380D01*
X149513390Y-22442380D02*
X150084819Y-23013808D01*
X150084819Y-23013808D02*
X150084819Y-22394761D01*
X149561009Y-48537618D02*
X149561009Y-48204285D01*
X150084819Y-48061428D02*
X150084819Y-48537618D01*
X150084819Y-48537618D02*
X149084819Y-48537618D01*
X149084819Y-48537618D02*
X149084819Y-48061428D01*
X149084819Y-47728094D02*
X150084819Y-47061428D01*
X149084819Y-47061428D02*
X150084819Y-47728094D01*
X149084819Y-46823332D02*
X149084819Y-46251904D01*
X150084819Y-46537618D02*
X149084819Y-46537618D01*
X150084819Y-45394761D02*
X150084819Y-45966189D01*
X150084819Y-45680475D02*
X149084819Y-45680475D01*
X149084819Y-45680475D02*
X149227676Y-45775713D01*
X149227676Y-45775713D02*
X149322914Y-45870951D01*
X149322914Y-45870951D02*
X149370533Y-45966189D01*
D12*
%TO.C,J9*%
X189848000Y-62120000D02*
X189848000Y-123300000D01*
X187198000Y-64770000D02*
X187198000Y-62120000D01*
X187198000Y-62120000D02*
X189848000Y-62120000D01*
X184548000Y-123300000D02*
X189848000Y-123300000D01*
X184548000Y-64770000D02*
X187198000Y-64770000D01*
X184548000Y-64770000D02*
X184548000Y-123300000D01*
X184548000Y-63500000D02*
X184548000Y-62120000D01*
X184548000Y-62120000D02*
X185928000Y-62120000D01*
%TO.C,R37*%
X222260936Y-116105000D02*
X222715064Y-116105000D01*
X222260936Y-117575000D02*
X222715064Y-117575000D01*
%TO.C,R40*%
X222260936Y-123725000D02*
X222715064Y-123725000D01*
X222260936Y-125195000D02*
X222715064Y-125195000D01*
%TO.C,R38*%
X222260936Y-118645000D02*
X222715064Y-118645000D01*
X222260936Y-120115000D02*
X222715064Y-120115000D01*
%TO.C,R39*%
X222260936Y-121185000D02*
X222715064Y-121185000D01*
X222260936Y-122655000D02*
X222715064Y-122655000D01*
%TO.C,R41*%
X222260936Y-126265000D02*
X222715064Y-126265000D01*
X222260936Y-127735000D02*
X222715064Y-127735000D01*
%TO.C,TR8*%
X176102500Y-102580000D02*
X177622500Y-102580000D01*
X176102500Y-102630000D02*
X176102500Y-102580000D01*
X176102500Y-104530000D02*
X176102500Y-103750000D01*
X176102500Y-105700000D02*
X176102500Y-105650000D01*
X177622500Y-102580000D02*
X177622500Y-103580000D01*
X177622500Y-104700000D02*
X177622500Y-105700000D01*
X177622500Y-105700000D02*
X176102500Y-105700000D01*
X175802500Y-104090000D02*
X175322500Y-104090000D01*
X175562500Y-103760000D01*
X175802500Y-104090000D01*
G36*
X175802500Y-104090000D02*
G01*
X175322500Y-104090000D01*
X175562500Y-103760000D01*
X175802500Y-104090000D01*
G37*
%TO.C,TR7*%
X176102500Y-98130000D02*
X177622500Y-98130000D01*
X176102500Y-98180000D02*
X176102500Y-98130000D01*
X176102500Y-100080000D02*
X176102500Y-99300000D01*
X176102500Y-101250000D02*
X176102500Y-101200000D01*
X177622500Y-98130000D02*
X177622500Y-99130000D01*
X177622500Y-100250000D02*
X177622500Y-101250000D01*
X177622500Y-101250000D02*
X176102500Y-101250000D01*
X175802500Y-99640000D02*
X175322500Y-99640000D01*
X175562500Y-99310000D01*
X175802500Y-99640000D01*
G36*
X175802500Y-99640000D02*
G01*
X175322500Y-99640000D01*
X175562500Y-99310000D01*
X175802500Y-99640000D01*
G37*
%TO.C,TR6*%
X171192500Y-102580000D02*
X172712500Y-102580000D01*
X171192500Y-102630000D02*
X171192500Y-102580000D01*
X171192500Y-104530000D02*
X171192500Y-103750000D01*
X171192500Y-105700000D02*
X171192500Y-105650000D01*
X172712500Y-102580000D02*
X172712500Y-103580000D01*
X172712500Y-104700000D02*
X172712500Y-105700000D01*
X172712500Y-105700000D02*
X171192500Y-105700000D01*
X170892500Y-104090000D02*
X170412500Y-104090000D01*
X170652500Y-103760000D01*
X170892500Y-104090000D01*
G36*
X170892500Y-104090000D02*
G01*
X170412500Y-104090000D01*
X170652500Y-103760000D01*
X170892500Y-104090000D01*
G37*
%TO.C,TR5*%
X171192500Y-98130000D02*
X172712500Y-98130000D01*
X171192500Y-98180000D02*
X171192500Y-98130000D01*
X171192500Y-100080000D02*
X171192500Y-99300000D01*
X171192500Y-101250000D02*
X171192500Y-101200000D01*
X172712500Y-98130000D02*
X172712500Y-99130000D01*
X172712500Y-100250000D02*
X172712500Y-101250000D01*
X172712500Y-101250000D02*
X171192500Y-101250000D01*
X170892500Y-99640000D02*
X170412500Y-99640000D01*
X170652500Y-99310000D01*
X170892500Y-99640000D01*
G36*
X170892500Y-99640000D02*
G01*
X170412500Y-99640000D01*
X170652500Y-99310000D01*
X170892500Y-99640000D01*
G37*
%TO.C,TR4*%
X166282500Y-102580000D02*
X167802500Y-102580000D01*
X166282500Y-102630000D02*
X166282500Y-102580000D01*
X166282500Y-104530000D02*
X166282500Y-103750000D01*
X166282500Y-105700000D02*
X166282500Y-105650000D01*
X167802500Y-102580000D02*
X167802500Y-103580000D01*
X167802500Y-104700000D02*
X167802500Y-105700000D01*
X167802500Y-105700000D02*
X166282500Y-105700000D01*
X165982500Y-104090000D02*
X165502500Y-104090000D01*
X165742500Y-103760000D01*
X165982500Y-104090000D01*
G36*
X165982500Y-104090000D02*
G01*
X165502500Y-104090000D01*
X165742500Y-103760000D01*
X165982500Y-104090000D01*
G37*
%TO.C,TR3*%
X166282500Y-98130000D02*
X167802500Y-98130000D01*
X166282500Y-98180000D02*
X166282500Y-98130000D01*
X166282500Y-100080000D02*
X166282500Y-99300000D01*
X166282500Y-101250000D02*
X166282500Y-101200000D01*
X167802500Y-98130000D02*
X167802500Y-99130000D01*
X167802500Y-100250000D02*
X167802500Y-101250000D01*
X167802500Y-101250000D02*
X166282500Y-101250000D01*
X165982500Y-99640000D02*
X165502500Y-99640000D01*
X165742500Y-99310000D01*
X165982500Y-99640000D01*
G36*
X165982500Y-99640000D02*
G01*
X165502500Y-99640000D01*
X165742500Y-99310000D01*
X165982500Y-99640000D01*
G37*
%TO.C,TR2*%
X161372500Y-102580000D02*
X162892500Y-102580000D01*
X161372500Y-102630000D02*
X161372500Y-102580000D01*
X161372500Y-104530000D02*
X161372500Y-103750000D01*
X161372500Y-105700000D02*
X161372500Y-105650000D01*
X162892500Y-102580000D02*
X162892500Y-103580000D01*
X162892500Y-104700000D02*
X162892500Y-105700000D01*
X162892500Y-105700000D02*
X161372500Y-105700000D01*
X161072500Y-104090000D02*
X160592500Y-104090000D01*
X160832500Y-103760000D01*
X161072500Y-104090000D01*
G36*
X161072500Y-104090000D02*
G01*
X160592500Y-104090000D01*
X160832500Y-103760000D01*
X161072500Y-104090000D01*
G37*
%TO.C,TR1*%
X161372500Y-98130000D02*
X162892500Y-98130000D01*
X161372500Y-98180000D02*
X161372500Y-98130000D01*
X161372500Y-100080000D02*
X161372500Y-99300000D01*
X161372500Y-101250000D02*
X161372500Y-101200000D01*
X162892500Y-98130000D02*
X162892500Y-99130000D01*
X162892500Y-100250000D02*
X162892500Y-101250000D01*
X162892500Y-101250000D02*
X161372500Y-101250000D01*
X161072500Y-99640000D02*
X160592500Y-99640000D01*
X160832500Y-99310000D01*
X161072500Y-99640000D01*
G36*
X161072500Y-99640000D02*
G01*
X160592500Y-99640000D01*
X160832500Y-99310000D01*
X161072500Y-99640000D01*
G37*
%TO.C,R63*%
X158185436Y-132670000D02*
X158639564Y-132670000D01*
X158185436Y-134140000D02*
X158639564Y-134140000D01*
%TO.C,R62*%
X158185436Y-129720000D02*
X158639564Y-129720000D01*
X158185436Y-131190000D02*
X158639564Y-131190000D01*
%TO.C,R61*%
X158185436Y-126770000D02*
X158639564Y-126770000D01*
X158185436Y-128240000D02*
X158639564Y-128240000D01*
%TO.C,R60*%
X158185436Y-123820000D02*
X158639564Y-123820000D01*
X158185436Y-125290000D02*
X158639564Y-125290000D01*
%TO.C,R59*%
X158185436Y-120870000D02*
X158639564Y-120870000D01*
X158185436Y-122340000D02*
X158639564Y-122340000D01*
%TO.C,R58*%
X158185436Y-117920000D02*
X158639564Y-117920000D01*
X158185436Y-119390000D02*
X158639564Y-119390000D01*
%TO.C,R57*%
X158185436Y-114970000D02*
X158639564Y-114970000D01*
X158185436Y-116440000D02*
X158639564Y-116440000D01*
%TO.C,R56*%
X158185436Y-112020000D02*
X158639564Y-112020000D01*
X158185436Y-113490000D02*
X158639564Y-113490000D01*
%TO.C,R52*%
X222292936Y-42445000D02*
X222747064Y-42445000D01*
X222292936Y-43915000D02*
X222747064Y-43915000D01*
%TO.C,R50*%
X222292936Y-95785000D02*
X222747064Y-95785000D01*
X222292936Y-97255000D02*
X222747064Y-97255000D01*
%TO.C,R48*%
X222292936Y-98325000D02*
X222747064Y-98325000D01*
X222292936Y-99795000D02*
X222747064Y-99795000D01*
%TO.C,R36*%
X222292936Y-100865000D02*
X222747064Y-100865000D01*
X222292936Y-102335000D02*
X222747064Y-102335000D01*
%TO.C,R32*%
X222260936Y-89635000D02*
X222715064Y-89635000D01*
X222260936Y-88165000D02*
X222715064Y-88165000D01*
%TO.C,R30*%
X222260936Y-90705000D02*
X222715064Y-90705000D01*
X222260936Y-92175000D02*
X222715064Y-92175000D01*
%TO.C,R28*%
X222292936Y-50065000D02*
X222747064Y-50065000D01*
X222292936Y-51535000D02*
X222747064Y-51535000D01*
%TO.C,R25*%
X222292936Y-60225000D02*
X222747064Y-60225000D01*
X222292936Y-61695000D02*
X222747064Y-61695000D01*
%TO.C,R20*%
X222292936Y-62765000D02*
X222747064Y-62765000D01*
X222292936Y-64235000D02*
X222747064Y-64235000D01*
%TO.C,R19*%
X222292936Y-65305000D02*
X222747064Y-65305000D01*
X222292936Y-66775000D02*
X222747064Y-66775000D01*
%TO.C,R17*%
X222292936Y-52605000D02*
X222747064Y-52605000D01*
X222292936Y-54075000D02*
X222747064Y-54075000D01*
%TO.C,R15*%
X222292936Y-56615000D02*
X222747064Y-56615000D01*
X222292936Y-55145000D02*
X222747064Y-55145000D01*
%TO.C,R13*%
X222292936Y-59155000D02*
X222747064Y-59155000D01*
X222292936Y-57685000D02*
X222747064Y-57685000D01*
%TO.C,R11*%
X222292936Y-75465000D02*
X222747064Y-75465000D01*
X222292936Y-76935000D02*
X222747064Y-76935000D01*
%TO.C,R9*%
X222260936Y-78005000D02*
X222715064Y-78005000D01*
X222260936Y-79475000D02*
X222715064Y-79475000D01*
%TO.C,R7*%
X222260936Y-80545000D02*
X222715064Y-80545000D01*
X222260936Y-82015000D02*
X222715064Y-82015000D01*
%TO.C,R5*%
X222260936Y-83085000D02*
X222715064Y-83085000D01*
X222260936Y-84555000D02*
X222715064Y-84555000D01*
%TO.C,R3*%
X222260936Y-85625000D02*
X222715064Y-85625000D01*
X222260936Y-87095000D02*
X222715064Y-87095000D01*
%TO.C,R2*%
X222260936Y-93245000D02*
X222715064Y-93245000D01*
X222260936Y-94715000D02*
X222715064Y-94715000D01*
%TO.C,J8*%
X173880000Y-112920000D02*
X175260000Y-112920000D01*
X173880000Y-114300000D02*
X173880000Y-112920000D01*
X173880000Y-115570000D02*
X173880000Y-133460000D01*
X173880000Y-115570000D02*
X176640000Y-115570000D01*
X173880000Y-133460000D02*
X176640000Y-133460000D01*
X176640000Y-115570000D02*
X176640000Y-133460000D01*
%TO.C,J7*%
X188324000Y-147684000D02*
X186944000Y-147684000D01*
X188324000Y-146304000D02*
X188324000Y-147684000D01*
X188324000Y-145034000D02*
X188324000Y-137304000D01*
X188324000Y-145034000D02*
X185674000Y-145034000D01*
X188324000Y-137304000D02*
X183024000Y-137304000D01*
X185674000Y-147684000D02*
X183024000Y-147684000D01*
X185674000Y-145034000D02*
X185674000Y-147684000D01*
X183024000Y-147684000D02*
X183024000Y-137304000D01*
%TO.C,J6*%
X195464000Y-147684000D02*
X194084000Y-147684000D01*
X195464000Y-146304000D02*
X195464000Y-147684000D01*
X195464000Y-145034000D02*
X195464000Y-137304000D01*
X195464000Y-145034000D02*
X192814000Y-145034000D01*
X195464000Y-137304000D02*
X190164000Y-137304000D01*
X192814000Y-147684000D02*
X190164000Y-147684000D01*
X192814000Y-145034000D02*
X192814000Y-147684000D01*
X190164000Y-147684000D02*
X190164000Y-137304000D01*
%TO.C,J5*%
X202604000Y-147684000D02*
X201224000Y-147684000D01*
X202604000Y-146304000D02*
X202604000Y-147684000D01*
X202604000Y-145034000D02*
X202604000Y-137304000D01*
X202604000Y-145034000D02*
X199954000Y-145034000D01*
X202604000Y-137304000D02*
X197304000Y-137304000D01*
X199954000Y-147684000D02*
X197304000Y-147684000D01*
X199954000Y-145034000D02*
X199954000Y-147684000D01*
X197304000Y-147684000D02*
X197304000Y-137304000D01*
%TO.C,J4*%
X209744000Y-147684000D02*
X208364000Y-147684000D01*
X209744000Y-146304000D02*
X209744000Y-147684000D01*
X209744000Y-145034000D02*
X209744000Y-137304000D01*
X209744000Y-145034000D02*
X207094000Y-145034000D01*
X209744000Y-137304000D02*
X204444000Y-137304000D01*
X207094000Y-147684000D02*
X204444000Y-147684000D01*
X207094000Y-145034000D02*
X207094000Y-147684000D01*
X204444000Y-147684000D02*
X204444000Y-137304000D01*
%TO.C,J3*%
X216884000Y-147684000D02*
X215504000Y-147684000D01*
X216884000Y-146304000D02*
X216884000Y-147684000D01*
X216884000Y-145034000D02*
X216884000Y-137304000D01*
X216884000Y-145034000D02*
X214234000Y-145034000D01*
X216884000Y-137304000D02*
X211584000Y-137304000D01*
X214234000Y-147684000D02*
X211584000Y-147684000D01*
X214234000Y-145034000D02*
X214234000Y-147684000D01*
X211584000Y-147684000D02*
X211584000Y-137304000D01*
%TO.C,D17*%
X152317500Y-133120000D02*
X152317500Y-135040000D01*
X152317500Y-135040000D02*
X155002500Y-135040000D01*
X155002500Y-133120000D02*
X152317500Y-133120000D01*
%TO.C,D8*%
X152317500Y-130080000D02*
X152317500Y-132000000D01*
X152317500Y-132000000D02*
X155002500Y-132000000D01*
X155002500Y-130080000D02*
X152317500Y-130080000D01*
%TO.C,D7*%
X152317500Y-127040000D02*
X152317500Y-128960000D01*
X152317500Y-128960000D02*
X155002500Y-128960000D01*
X155002500Y-127040000D02*
X152317500Y-127040000D01*
%TO.C,D6*%
X152317500Y-124000000D02*
X152317500Y-125920000D01*
X152317500Y-125920000D02*
X155002500Y-125920000D01*
X155002500Y-124000000D02*
X152317500Y-124000000D01*
%TO.C,D5*%
X152317500Y-120960000D02*
X152317500Y-122880000D01*
X152317500Y-122880000D02*
X155002500Y-122880000D01*
X155002500Y-120960000D02*
X152317500Y-120960000D01*
%TO.C,D4*%
X152317500Y-117920000D02*
X152317500Y-119840000D01*
X152317500Y-119840000D02*
X155002500Y-119840000D01*
X155002500Y-117920000D02*
X152317500Y-117920000D01*
%TO.C,D3*%
X152317500Y-114880000D02*
X152317500Y-116800000D01*
X152317500Y-116800000D02*
X155002500Y-116800000D01*
X155002500Y-114880000D02*
X152317500Y-114880000D01*
%TO.C,D2*%
X152317500Y-111840000D02*
X152317500Y-113760000D01*
X152317500Y-113760000D02*
X155002500Y-113760000D01*
X155002500Y-111840000D02*
X152317500Y-111840000D01*
%TO.C,D1*%
X160512000Y-56060000D02*
X158512000Y-56060000D01*
X160512000Y-56060000D02*
X160512000Y-60070000D01*
X158512000Y-56060000D02*
X158512000Y-60070000D01*
%TO.C,EXT2*%
X151070000Y-26590000D02*
X201990000Y-26590000D01*
X151070000Y-26590000D02*
X151070000Y-23990000D01*
X201990000Y-26590000D02*
X201990000Y-21390000D01*
X151070000Y-23990000D02*
X153670000Y-23990000D01*
X153670000Y-23990000D02*
X153670000Y-21390000D01*
X151070000Y-22720000D02*
X151070000Y-21390000D01*
X151070000Y-21390000D02*
X152400000Y-21390000D01*
X153670000Y-21390000D02*
X201990000Y-21390000D01*
%TO.C,EXT1*%
X151070000Y-49590000D02*
X201990000Y-49590000D01*
X151070000Y-49590000D02*
X151070000Y-46990000D01*
X201990000Y-49590000D02*
X201990000Y-44390000D01*
X151070000Y-46990000D02*
X153670000Y-46990000D01*
X153670000Y-46990000D02*
X153670000Y-44390000D01*
X151070000Y-45720000D02*
X151070000Y-44390000D01*
X151070000Y-44390000D02*
X152400000Y-44390000D01*
X153670000Y-44390000D02*
X201990000Y-44390000D01*
%TD*%
M02*
