%TF.GenerationSoftware,KiCad,Pcbnew,9.0.6-1.fc43*%
%TF.CreationDate,2026-03-29T06:33:44+01:00*%
%TF.ProjectId,cptrep-diag-card,63707472-6570-42d6-9469-61672d636172,rev?*%
%TF.SameCoordinates,Original*%
%TF.FileFunction,Soldermask,Top*%
%TF.FilePolarity,Negative*%
%FSLAX46Y46*%
G04 Gerber Fmt 4.6, Leading zero omitted, Abs format (unit mm)*
G04 Created by KiCad (PCBNEW 9.0.6-1.fc43) date 2026-03-29 06:33:44*
%MOMM*%
%LPD*%
G01*
G04 APERTURE LIST*
G04 Aperture macros list*
%AMRoundRect*
0 Rectangle with rounded corners*
0 $1 Rounding radius*
0 $2 $3 $4 $5 $6 $7 $8 $9 X,Y pos of 4 corners*
0 Add a 4 corners polygon primitive as box body*
4,1,4,$2,$3,$4,$5,$6,$7,$8,$9,$2,$3,0*
0 Add four circle primitives for the rounded corners*
1,1,$1+$1,$2,$3*
1,1,$1+$1,$4,$5*
1,1,$1+$1,$6,$7*
1,1,$1+$1,$8,$9*
0 Add four rect primitives between the rounded corners*
20,1,$1+$1,$2,$3,$4,$5,0*
20,1,$1+$1,$4,$5,$6,$7,0*
20,1,$1+$1,$6,$7,$8,$9,0*
20,1,$1+$1,$8,$9,$2,$3,0*%
G04 Aperture macros list end*
%ADD10C,1.700000*%
%ADD11R,1.700000X1.700000*%
%ADD12RoundRect,0.250000X-0.350000X-0.450000X0.350000X-0.450000X0.350000X0.450000X-0.350000X0.450000X0*%
%ADD13RoundRect,0.300000X-3.700000X-0.700000X3.700000X-0.700000X3.700000X0.700000X-3.700000X0.700000X0*%
%ADD14RoundRect,0.150000X-0.587500X-0.150000X0.587500X-0.150000X0.587500X0.150000X-0.587500X0.150000X0*%
%ADD15RoundRect,0.250000X-0.262500X-0.450000X0.262500X-0.450000X0.262500X0.450000X-0.262500X0.450000X0*%
%ADD16RoundRect,0.243750X-0.243750X-0.456250X0.243750X-0.456250X0.243750X0.456250X-0.243750X0.456250X0*%
%ADD17RoundRect,0.225000X-0.375000X0.225000X-0.375000X-0.225000X0.375000X-0.225000X0.375000X0.225000X0*%
G04 APERTURE END LIST*
D10*
%TO.C,J9*%
X188468000Y-121920000D03*
X185928000Y-121920000D03*
X188468000Y-119380000D03*
X185928000Y-119380000D03*
X188468000Y-116840000D03*
X185928000Y-116840000D03*
X188468000Y-114300000D03*
X185928000Y-114300000D03*
X188468000Y-111760000D03*
X185928000Y-111760000D03*
X188468000Y-109220000D03*
X185928000Y-109220000D03*
X188468000Y-106680000D03*
X185928000Y-106680000D03*
X188468000Y-104140000D03*
X185928000Y-104140000D03*
X188468000Y-101600000D03*
X185928000Y-101600000D03*
X188468000Y-99060000D03*
X185928000Y-99060000D03*
X188468000Y-96520000D03*
X185928000Y-96520000D03*
X188468000Y-93980000D03*
X185928000Y-93980000D03*
X188468000Y-91440000D03*
X185928000Y-91440000D03*
X188468000Y-88900000D03*
X185928000Y-88900000D03*
X188468000Y-86360000D03*
X185928000Y-86360000D03*
X188468000Y-83820000D03*
X185928000Y-83820000D03*
X188468000Y-81280000D03*
X185928000Y-81280000D03*
X188468000Y-78740000D03*
X185928000Y-78740000D03*
X188468000Y-76200000D03*
X185928000Y-76200000D03*
X188468000Y-73660000D03*
X185928000Y-73660000D03*
X188468000Y-71120000D03*
X185928000Y-71120000D03*
X188468000Y-68580000D03*
X185928000Y-68580000D03*
X188468000Y-66040000D03*
X185928000Y-66040000D03*
X188468000Y-63500000D03*
D11*
X185928000Y-63500000D03*
%TD*%
D12*
%TO.C,R37*%
X221488000Y-116840000D03*
X223488000Y-116840000D03*
%TD*%
%TO.C,R40*%
X221488000Y-124460000D03*
X223488000Y-124460000D03*
%TD*%
%TO.C,R38*%
X221488000Y-119380000D03*
X223488000Y-119380000D03*
%TD*%
%TO.C,R39*%
X221488000Y-121920000D03*
X223488000Y-121920000D03*
%TD*%
%TO.C,R41*%
X221488000Y-127000000D03*
X223488000Y-127000000D03*
%TD*%
D13*
%TO.C,J2*%
X239750000Y-28065000D03*
X239750000Y-30605000D03*
X239750000Y-33145000D03*
X239750000Y-35685000D03*
X239750000Y-38225000D03*
X239750000Y-40765000D03*
X239750000Y-43305000D03*
X239750000Y-45845000D03*
X239750000Y-48385000D03*
X239750000Y-50925000D03*
X239750000Y-53465000D03*
X239750000Y-56005000D03*
X239750000Y-58545000D03*
X239750000Y-61085000D03*
X239750000Y-63625000D03*
X239750000Y-66165000D03*
X239750000Y-68705000D03*
X239750000Y-71245000D03*
X239750000Y-73785000D03*
X239750000Y-76325000D03*
X239750000Y-78865000D03*
X239750000Y-81405000D03*
X239750000Y-83945000D03*
X239750000Y-86485000D03*
X239750000Y-89025000D03*
X239750000Y-91565000D03*
X239750000Y-94105000D03*
X239750000Y-96645000D03*
X239750000Y-99185000D03*
X239750000Y-101725000D03*
X239750000Y-104265000D03*
X239750000Y-106805000D03*
X239750000Y-109345000D03*
X239750000Y-111885000D03*
X239750000Y-114425000D03*
X239750000Y-116965000D03*
X239750000Y-119505000D03*
X239750000Y-122045000D03*
X239750000Y-124585000D03*
X239750000Y-127125000D03*
X239750000Y-129665000D03*
X239750000Y-132205000D03*
X239750000Y-134745000D03*
X239750000Y-137285000D03*
X239750000Y-139825000D03*
X239750000Y-142365000D03*
X239750000Y-144905000D03*
X239750000Y-147445000D03*
X239750000Y-149985000D03*
X239750000Y-152525000D03*
%TD*%
D14*
%TO.C,TR8*%
X175925000Y-103190000D03*
X175925000Y-105090000D03*
X177800000Y-104140000D03*
%TD*%
%TO.C,TR7*%
X175925000Y-98740000D03*
X175925000Y-100640000D03*
X177800000Y-99690000D03*
%TD*%
%TO.C,TR6*%
X171015000Y-103190000D03*
X171015000Y-105090000D03*
X172890000Y-104140000D03*
%TD*%
%TO.C,TR5*%
X171015000Y-98740000D03*
X171015000Y-100640000D03*
X172890000Y-99690000D03*
%TD*%
%TO.C,TR4*%
X166105000Y-103190000D03*
X166105000Y-105090000D03*
X167980000Y-104140000D03*
%TD*%
%TO.C,TR3*%
X166105000Y-98740000D03*
X166105000Y-100640000D03*
X167980000Y-99690000D03*
%TD*%
%TO.C,TR2*%
X161195000Y-103190000D03*
X161195000Y-105090000D03*
X163070000Y-104140000D03*
%TD*%
%TO.C,TR1*%
X161195000Y-98740000D03*
X161195000Y-100640000D03*
X163070000Y-99690000D03*
%TD*%
D15*
%TO.C,R63*%
X157500000Y-133405000D03*
X159325000Y-133405000D03*
%TD*%
%TO.C,R62*%
X157500000Y-130455000D03*
X159325000Y-130455000D03*
%TD*%
%TO.C,R61*%
X157500000Y-127505000D03*
X159325000Y-127505000D03*
%TD*%
%TO.C,R60*%
X157500000Y-124555000D03*
X159325000Y-124555000D03*
%TD*%
%TO.C,R59*%
X157500000Y-121605000D03*
X159325000Y-121605000D03*
%TD*%
%TO.C,R58*%
X157500000Y-118655000D03*
X159325000Y-118655000D03*
%TD*%
%TO.C,R57*%
X157500000Y-115705000D03*
X159325000Y-115705000D03*
%TD*%
%TO.C,R56*%
X157500000Y-112755000D03*
X159325000Y-112755000D03*
%TD*%
D12*
%TO.C,R52*%
X221520000Y-43180000D03*
X223520000Y-43180000D03*
%TD*%
%TO.C,R50*%
X221520000Y-96520000D03*
X223520000Y-96520000D03*
%TD*%
%TO.C,R48*%
X221520000Y-99060000D03*
X223520000Y-99060000D03*
%TD*%
%TO.C,R36*%
X221520000Y-101600000D03*
X223520000Y-101600000D03*
%TD*%
%TO.C,R32*%
X223488000Y-88900000D03*
X221488000Y-88900000D03*
%TD*%
%TO.C,R30*%
X221488000Y-91440000D03*
X223488000Y-91440000D03*
%TD*%
%TO.C,R28*%
X221520000Y-50800000D03*
X223520000Y-50800000D03*
%TD*%
%TO.C,R25*%
X221520000Y-60960000D03*
X223520000Y-60960000D03*
%TD*%
%TO.C,R20*%
X221520000Y-63500000D03*
X223520000Y-63500000D03*
%TD*%
%TO.C,R19*%
X221520000Y-66040000D03*
X223520000Y-66040000D03*
%TD*%
%TO.C,R17*%
X221520000Y-53340000D03*
X223520000Y-53340000D03*
%TD*%
%TO.C,R15*%
X223520000Y-55880000D03*
X221520000Y-55880000D03*
%TD*%
%TO.C,R13*%
X223520000Y-58420000D03*
X221520000Y-58420000D03*
%TD*%
%TO.C,R11*%
X221520000Y-76200000D03*
X223520000Y-76200000D03*
%TD*%
%TO.C,R9*%
X221488000Y-78740000D03*
X223488000Y-78740000D03*
%TD*%
%TO.C,R7*%
X221488000Y-81280000D03*
X223488000Y-81280000D03*
%TD*%
%TO.C,R5*%
X221488000Y-83820000D03*
X223488000Y-83820000D03*
%TD*%
%TO.C,R3*%
X221488000Y-86360000D03*
X223488000Y-86360000D03*
%TD*%
%TO.C,R2*%
X221488000Y-93980000D03*
X223488000Y-93980000D03*
%TD*%
D11*
%TO.C,J8*%
X175260000Y-114300000D03*
D10*
X175260000Y-116840000D03*
X175260000Y-119380000D03*
X175260000Y-121920000D03*
X175260000Y-124460000D03*
X175260000Y-127000000D03*
X175260000Y-129540000D03*
X175260000Y-132080000D03*
%TD*%
D11*
%TO.C,J7*%
X186944000Y-146304000D03*
D10*
X184404000Y-146304000D03*
X186944000Y-143764000D03*
X184404000Y-143764000D03*
X186944000Y-141224000D03*
X184404000Y-141224000D03*
X186944000Y-138684000D03*
X184404000Y-138684000D03*
%TD*%
D11*
%TO.C,J6*%
X194084000Y-146304000D03*
D10*
X191544000Y-146304000D03*
X194084000Y-143764000D03*
X191544000Y-143764000D03*
X194084000Y-141224000D03*
X191544000Y-141224000D03*
X194084000Y-138684000D03*
X191544000Y-138684000D03*
%TD*%
D11*
%TO.C,J5*%
X201224000Y-146304000D03*
D10*
X198684000Y-146304000D03*
X201224000Y-143764000D03*
X198684000Y-143764000D03*
X201224000Y-141224000D03*
X198684000Y-141224000D03*
X201224000Y-138684000D03*
X198684000Y-138684000D03*
%TD*%
D11*
%TO.C,J4*%
X208364000Y-146304000D03*
D10*
X205824000Y-146304000D03*
X208364000Y-143764000D03*
X205824000Y-143764000D03*
X208364000Y-141224000D03*
X205824000Y-141224000D03*
X208364000Y-138684000D03*
X205824000Y-138684000D03*
%TD*%
D11*
%TO.C,J3*%
X215504000Y-146304000D03*
D10*
X212964000Y-146304000D03*
X215504000Y-143764000D03*
X212964000Y-143764000D03*
X215504000Y-141224000D03*
X212964000Y-141224000D03*
X215504000Y-138684000D03*
X212964000Y-138684000D03*
%TD*%
D16*
%TO.C,D17*%
X153065000Y-134080000D03*
X154940000Y-134080000D03*
%TD*%
%TO.C,D8*%
X153065000Y-131040000D03*
X154940000Y-131040000D03*
%TD*%
%TO.C,D7*%
X153065000Y-128000000D03*
X154940000Y-128000000D03*
%TD*%
%TO.C,D6*%
X153065000Y-124960000D03*
X154940000Y-124960000D03*
%TD*%
%TO.C,D5*%
X153065000Y-121920000D03*
X154940000Y-121920000D03*
%TD*%
%TO.C,D4*%
X153065000Y-118880000D03*
X154940000Y-118880000D03*
%TD*%
%TO.C,D3*%
X153065000Y-115840000D03*
X154940000Y-115840000D03*
%TD*%
%TO.C,D2*%
X153065000Y-112800000D03*
X154940000Y-112800000D03*
%TD*%
D17*
%TO.C,D1*%
X159512000Y-56770000D03*
X159512000Y-60070000D03*
%TD*%
D11*
%TO.C,EXT2*%
X152400000Y-22720000D03*
D10*
X152400000Y-25260000D03*
X154940000Y-22720000D03*
X154940000Y-25260000D03*
X157480000Y-22720000D03*
X157480000Y-25260000D03*
X160020000Y-22720000D03*
X160020000Y-25260000D03*
X162560000Y-22720000D03*
X162560000Y-25260000D03*
X165100000Y-22720000D03*
X165100000Y-25260000D03*
X167640000Y-22720000D03*
X167640000Y-25260000D03*
X170180000Y-22720000D03*
X170180000Y-25260000D03*
X172720000Y-22720000D03*
X172720000Y-25260000D03*
X175260000Y-22720000D03*
X175260000Y-25260000D03*
X177800000Y-22720000D03*
X177800000Y-25260000D03*
X180340000Y-22720000D03*
X180340000Y-25260000D03*
X182880000Y-22720000D03*
X182880000Y-25260000D03*
X185420000Y-22720000D03*
X185420000Y-25260000D03*
X187960000Y-22720000D03*
X187960000Y-25260000D03*
X190500000Y-22720000D03*
X190500000Y-25260000D03*
X193040000Y-22720000D03*
X193040000Y-25260000D03*
X195580000Y-22720000D03*
X195580000Y-25260000D03*
X198120000Y-22720000D03*
X198120000Y-25260000D03*
X200660000Y-22720000D03*
X200660000Y-25260000D03*
%TD*%
D11*
%TO.C,EXT1*%
X152400000Y-45720000D03*
D10*
X152400000Y-48260000D03*
X154940000Y-45720000D03*
X154940000Y-48260000D03*
X157480000Y-45720000D03*
X157480000Y-48260000D03*
X160020000Y-45720000D03*
X160020000Y-48260000D03*
X162560000Y-45720000D03*
X162560000Y-48260000D03*
X165100000Y-45720000D03*
X165100000Y-48260000D03*
X167640000Y-45720000D03*
X167640000Y-48260000D03*
X170180000Y-45720000D03*
X170180000Y-48260000D03*
X172720000Y-45720000D03*
X172720000Y-48260000D03*
X175260000Y-45720000D03*
X175260000Y-48260000D03*
X177800000Y-45720000D03*
X177800000Y-48260000D03*
X180340000Y-45720000D03*
X180340000Y-48260000D03*
X182880000Y-45720000D03*
X182880000Y-48260000D03*
X185420000Y-45720000D03*
X185420000Y-48260000D03*
X187960000Y-45720000D03*
X187960000Y-48260000D03*
X190500000Y-45720000D03*
X190500000Y-48260000D03*
X193040000Y-45720000D03*
X193040000Y-48260000D03*
X195580000Y-45720000D03*
X195580000Y-48260000D03*
X198120000Y-45720000D03*
X198120000Y-48260000D03*
X200660000Y-45720000D03*
X200660000Y-48260000D03*
%TD*%
M02*
