%TF.GenerationSoftware,KiCad,Pcbnew,9.0.6-1.fc43*%
%TF.CreationDate,2026-03-29T08:32:45+01:00*%
%TF.ProjectId,cptrep-diag-card,63707472-6570-42d6-9469-61672d636172,rev?*%
%TF.SameCoordinates,Original*%
%TF.FileFunction,Copper,L2,Bot*%
%TF.FilePolarity,Positive*%
%FSLAX46Y46*%
G04 Gerber Fmt 4.6, Leading zero omitted, Abs format (unit mm)*
G04 Created by KiCad (PCBNEW 9.0.6-1.fc43) date 2026-03-29 08:32:45*
%MOMM*%
%LPD*%
G01*
G04 APERTURE LIST*
G04 Aperture macros list*
%AMRoundRect*
0 Rectangle with rounded corners*
0 $1 Rounding radius*
0 $2 $3 $4 $5 $6 $7 $8 $9 X,Y pos of 4 corners*
0 Add a 4 corners polygon primitive as box body*
4,1,4,$2,$3,$4,$5,$6,$7,$8,$9,$2,$3,0*
0 Add four circle primitives for the rounded corners*
1,1,$1+$1,$2,$3*
1,1,$1+$1,$4,$5*
1,1,$1+$1,$6,$7*
1,1,$1+$1,$8,$9*
0 Add four rect primitives between the rounded corners*
20,1,$1+$1,$2,$3,$4,$5,0*
20,1,$1+$1,$4,$5,$6,$7,0*
20,1,$1+$1,$6,$7,$8,$9,0*
20,1,$1+$1,$8,$9,$2,$3,0*%
G04 Aperture macros list end*
%TA.AperFunction,ComponentPad*%
%ADD10R,1.700000X1.700000*%
%TD*%
%TA.AperFunction,ComponentPad*%
%ADD11C,1.700000*%
%TD*%
%TA.AperFunction,ConnectorPad*%
%ADD12RoundRect,0.300000X-3.700000X-0.700000X3.700000X-0.700000X3.700000X0.700000X-3.700000X0.700000X0*%
%TD*%
%TA.AperFunction,SMDPad,CuDef*%
%ADD13RoundRect,0.250000X-0.350000X-0.450000X0.350000X-0.450000X0.350000X0.450000X-0.350000X0.450000X0*%
%TD*%
%TA.AperFunction,ViaPad*%
%ADD14C,0.600000*%
%TD*%
%TA.AperFunction,Conductor*%
%ADD15C,0.800000*%
%TD*%
%TA.AperFunction,Conductor*%
%ADD16C,0.400000*%
%TD*%
G04 APERTURE END LIST*
D10*
%TO.P,J9,1,Pin_1*%
%TO.N,GPIO0*%
X185928000Y-63500000D03*
D11*
%TO.P,J9,2,Pin_2*%
%TO.N,GPIO1*%
X188468000Y-63500000D03*
%TO.P,J9,3,Pin_3*%
%TO.N,GPIO2*%
X185928000Y-66040000D03*
%TO.P,J9,4,Pin_4*%
%TO.N,GPIO3*%
X188468000Y-66040000D03*
%TO.P,J9,5,Pin_5*%
%TO.N,GPIO4*%
X185928000Y-68580000D03*
%TO.P,J9,6,Pin_6*%
%TO.N,GPIO5*%
X188468000Y-68580000D03*
%TO.P,J9,7,Pin_7*%
%TO.N,GPIO6*%
X185928000Y-71120000D03*
%TO.P,J9,8,Pin_8*%
%TO.N,GPIO7*%
X188468000Y-71120000D03*
%TO.P,J9,9,Pin_9*%
%TO.N,GPIO8*%
X185928000Y-73660000D03*
%TO.P,J9,10,Pin_10*%
%TO.N,GPIO9*%
X188468000Y-73660000D03*
%TO.P,J9,11,Pin_11*%
%TO.N,GPIO10*%
X185928000Y-76200000D03*
%TO.P,J9,12,Pin_12*%
%TO.N,GPIO11*%
X188468000Y-76200000D03*
%TO.P,J9,13,Pin_13*%
%TO.N,GPIO12*%
X185928000Y-78740000D03*
%TO.P,J9,14,Pin_14*%
%TO.N,GPIO13*%
X188468000Y-78740000D03*
%TO.P,J9,15,Pin_15*%
%TO.N,GPIO14*%
X185928000Y-81280000D03*
%TO.P,J9,16,Pin_16*%
%TO.N,GPIO15*%
X188468000Y-81280000D03*
%TO.P,J9,17,Pin_17*%
%TO.N,GPIO16*%
X185928000Y-83820000D03*
%TO.P,J9,18,Pin_18*%
%TO.N,GPIO17*%
X188468000Y-83820000D03*
%TO.P,J9,19,Pin_19*%
%TO.N,GPIO18*%
X185928000Y-86360000D03*
%TO.P,J9,20,Pin_20*%
%TO.N,GPIO19*%
X188468000Y-86360000D03*
%TO.P,J9,21,Pin_21*%
%TO.N,GPIO20*%
X185928000Y-88900000D03*
%TO.P,J9,22,Pin_22*%
%TO.N,GPIO21*%
X188468000Y-88900000D03*
%TO.P,J9,23,Pin_23*%
%TO.N,GPIO22*%
X185928000Y-91440000D03*
%TO.P,J9,24,Pin_24*%
%TO.N,GPIO23*%
X188468000Y-91440000D03*
%TO.P,J9,25,Pin_25*%
%TO.N,GPIO24*%
X185928000Y-93980000D03*
%TO.P,J9,26,Pin_26*%
%TO.N,GPIO25*%
X188468000Y-93980000D03*
%TO.P,J9,27,Pin_27*%
%TO.N,GPIO26*%
X185928000Y-96520000D03*
%TO.P,J9,28,Pin_28*%
%TO.N,GPIO27*%
X188468000Y-96520000D03*
%TO.P,J9,29,Pin_29*%
%TO.N,GPIO28*%
X185928000Y-99060000D03*
%TO.P,J9,30,Pin_30*%
%TO.N,GPIO29*%
X188468000Y-99060000D03*
%TO.P,J9,31,Pin_31*%
%TO.N,GPIO30*%
X185928000Y-101600000D03*
%TO.P,J9,32,Pin_32*%
%TO.N,GPIO31*%
X188468000Y-101600000D03*
%TO.P,J9,33,Pin_33*%
%TO.N,GPIO32*%
X185928000Y-104140000D03*
%TO.P,J9,34,Pin_34*%
%TO.N,GPIO33*%
X188468000Y-104140000D03*
%TO.P,J9,35,Pin_35*%
%TO.N,GPIO34*%
X185928000Y-106680000D03*
%TO.P,J9,36,Pin_36*%
%TO.N,GPIO35*%
X188468000Y-106680000D03*
%TO.P,J9,37,Pin_37*%
%TO.N,GPIO36*%
X185928000Y-109220000D03*
%TO.P,J9,38,Pin_38*%
%TO.N,GPIO37*%
X188468000Y-109220000D03*
%TO.P,J9,39,Pin_39*%
%TO.N,GPIO38*%
X185928000Y-111760000D03*
%TO.P,J9,40,Pin_40*%
%TO.N,GPIO39*%
X188468000Y-111760000D03*
%TO.P,J9,41,Pin_41*%
%TO.N,GPIO40*%
X185928000Y-114300000D03*
%TO.P,J9,42,Pin_42*%
%TO.N,GPIO41*%
X188468000Y-114300000D03*
%TO.P,J9,43,Pin_43*%
%TO.N,GPIO42*%
X185928000Y-116840000D03*
%TO.P,J9,44,Pin_44*%
%TO.N,GPIO43*%
X188468000Y-116840000D03*
%TO.P,J9,45,Pin_45*%
%TO.N,GPIO44*%
X185928000Y-119380000D03*
%TO.P,J9,46,Pin_46*%
%TO.N,GPIO45*%
X188468000Y-119380000D03*
%TO.P,J9,47,Pin_47*%
%TO.N,GPIO46*%
X185928000Y-121920000D03*
%TO.P,J9,48,Pin_48*%
%TO.N,GPIO47*%
X188468000Y-121920000D03*
%TD*%
D10*
%TO.P,J5,1,Pin_1*%
%TO.N,GPIO14*%
X201224000Y-146304000D03*
D11*
%TO.P,J5,2,Pin_2*%
%TO.N,GPIO15*%
X198684000Y-146304000D03*
%TO.P,J5,3,Pin_3*%
%TO.N,GPIO17*%
X201224000Y-143764000D03*
%TO.P,J5,4,Pin_4*%
%TO.N,GPIO26*%
X198684000Y-143764000D03*
%TO.P,J5,5,Pin_5*%
%TO.N,EOF*%
X201224000Y-141224000D03*
%TO.P,J5,6,Pin_6*%
%TO.N,TC*%
X198684000Y-141224000D03*
%TO.P,J5,7,Pin_7*%
%TO.N,BIN*%
X201224000Y-138684000D03*
%TO.P,J5,8,Pin_8*%
%TO.N,BOUT*%
X198684000Y-138684000D03*
%TD*%
D10*
%TO.P,EXT1,1,1*%
%TO.N,+3.3V*%
X152400000Y-45720000D03*
D11*
%TO.P,EXT1,2,2*%
X152400000Y-48260000D03*
%TO.P,EXT1,3,3*%
%TO.N,/GPIO16*%
X154940000Y-45720000D03*
%TO.P,EXT1,4,4*%
%TO.N,GPIO0*%
X154940000Y-48260000D03*
%TO.P,EXT1,5,5*%
%TO.N,GPIO17*%
X157480000Y-45720000D03*
%TO.P,EXT1,6,6*%
%TO.N,GPIO1*%
X157480000Y-48260000D03*
%TO.P,EXT1,7,7*%
%TO.N,/GPIO18*%
X160020000Y-45720000D03*
%TO.P,EXT1,8,8*%
%TO.N,GPIO2*%
X160020000Y-48260000D03*
%TO.P,EXT1,9,9*%
%TO.N,/GPIO19*%
X162560000Y-45720000D03*
%TO.P,EXT1,10,10*%
%TO.N,GPIO3*%
X162560000Y-48260000D03*
%TO.P,EXT1,11,11*%
%TO.N,/GPIO20*%
X165100000Y-45720000D03*
%TO.P,EXT1,12,12*%
%TO.N,GPIO4*%
X165100000Y-48260000D03*
%TO.P,EXT1,13,13*%
%TO.N,/GPIO21*%
X167640000Y-45720000D03*
%TO.P,EXT1,14,14*%
%TO.N,GPIO5*%
X167640000Y-48260000D03*
%TO.P,EXT1,15,15*%
%TO.N,/GPIO22*%
X170180000Y-45720000D03*
%TO.P,EXT1,16,16*%
%TO.N,GPIO6*%
X170180000Y-48260000D03*
%TO.P,EXT1,17,17*%
%TO.N,INT4*%
X172720000Y-45720000D03*
%TO.P,EXT1,18,18*%
%TO.N,GPIO7*%
X172720000Y-48260000D03*
%TO.P,EXT1,19,19*%
%TO.N,GND*%
X175260000Y-45720000D03*
%TO.P,EXT1,20,20*%
X175260000Y-48260000D03*
%TO.P,EXT1,21,21*%
%TO.N,+3.3V*%
X177800000Y-45720000D03*
%TO.P,EXT1,22,22*%
X177800000Y-48260000D03*
%TO.P,EXT1,23,23*%
%TO.N,INT3*%
X180340000Y-45720000D03*
%TO.P,EXT1,24,24*%
%TO.N,GPIO8*%
X180340000Y-48260000D03*
%TO.P,EXT1,25,25*%
%TO.N,INT1*%
X182880000Y-45720000D03*
%TO.P,EXT1,26,26*%
%TO.N,MEMWR*%
X182880000Y-48260000D03*
%TO.P,EXT1,27,27*%
%TO.N,GPIO26*%
X185420000Y-45720000D03*
%TO.P,EXT1,28,28*%
%TO.N,MEMRD*%
X185420000Y-48260000D03*
%TO.P,EXT1,29,29*%
%TO.N,PARITYERR*%
X187960000Y-45720000D03*
%TO.P,EXT1,30,30*%
%TO.N,IORD*%
X187960000Y-48260000D03*
%TO.P,EXT1,31,31*%
%TO.N,IO60*%
X190500000Y-45720000D03*
%TO.P,EXT1,32,32*%
%TO.N,IOWR*%
X190500000Y-48260000D03*
%TO.P,EXT1,33,33*%
%TO.N,IO40*%
X193040000Y-45720000D03*
%TO.P,EXT1,34,34*%
%TO.N,PHI2*%
X193040000Y-48260000D03*
%TO.P,EXT1,35,35*%
%TO.N,IO30*%
X195580000Y-45720000D03*
%TO.P,EXT1,36,36*%
%TO.N,GPIO14*%
X195580000Y-48260000D03*
%TO.P,EXT1,37,37*%
%TO.N,IO20*%
X198120000Y-45720000D03*
%TO.P,EXT1,38,38*%
%TO.N,GPIO15*%
X198120000Y-48260000D03*
%TO.P,EXT1,39,39*%
%TO.N,GND*%
X200660000Y-45720000D03*
%TO.P,EXT1,40,40*%
X200660000Y-48260000D03*
%TD*%
D10*
%TO.P,J6,1,Pin_1*%
%TO.N,GPIO14*%
X194084000Y-146304000D03*
D11*
%TO.P,J6,2,Pin_2*%
%TO.N,GPIO15*%
X191544000Y-146304000D03*
%TO.P,J6,3,Pin_3*%
%TO.N,GPIO17*%
X194084000Y-143764000D03*
%TO.P,J6,4,Pin_4*%
%TO.N,GPIO26*%
X191544000Y-143764000D03*
%TO.P,J6,5,Pin_5*%
%TO.N,WAIT*%
X194084000Y-141224000D03*
%TO.P,J6,6,Pin_6*%
%TO.N,READY*%
X191544000Y-141224000D03*
%TO.P,J6,7,Pin_7*%
%TO.N,RESET*%
X194084000Y-138684000D03*
%TO.P,J6,8,Pin_8*%
%TO.N,HLDACK*%
X191544000Y-138684000D03*
%TD*%
D10*
%TO.P,J4,1,Pin_1*%
%TO.N,GPIO14*%
X208364000Y-146304000D03*
D11*
%TO.P,J4,2,Pin_2*%
%TO.N,GPIO15*%
X205824000Y-146304000D03*
%TO.P,J4,3,Pin_3*%
%TO.N,GPIO17*%
X208364000Y-143764000D03*
%TO.P,J4,4,Pin_4*%
%TO.N,GPIO26*%
X205824000Y-143764000D03*
%TO.P,J4,5,Pin_5*%
%TO.N,DACK1*%
X208364000Y-141224000D03*
%TO.P,J4,6,Pin_6*%
%TO.N,DACK0*%
X205824000Y-141224000D03*
%TO.P,J4,7,Pin_7*%
%TO.N,DREQ1*%
X208364000Y-138684000D03*
%TO.P,J4,8,Pin_8*%
%TO.N,DREQ0*%
X205824000Y-138684000D03*
%TD*%
D10*
%TO.P,EXT2,1,1*%
%TO.N,+3.3V*%
X152400000Y-22720000D03*
D11*
%TO.P,EXT2,2,2*%
%TO.N,VBUS*%
X152400000Y-25260000D03*
%TO.P,EXT2,3,3*%
%TO.N,GPIO32*%
X154940000Y-22720000D03*
%TO.P,EXT2,4,4*%
%TO.N,VSYS*%
X154940000Y-25260000D03*
%TO.P,EXT2,5,5*%
%TO.N,GPIO33*%
X157480000Y-22720000D03*
%TO.P,EXT2,6,6*%
%TO.N,GND*%
X157480000Y-25260000D03*
%TO.P,EXT2,7,7*%
%TO.N,GPIO34*%
X160020000Y-22720000D03*
%TO.P,EXT2,8,8*%
%TO.N,+3.3V*%
X160020000Y-25260000D03*
%TO.P,EXT2,9,9*%
%TO.N,GPIO35*%
X162560000Y-22720000D03*
%TO.P,EXT2,10,10*%
%TO.N,GND*%
X162560000Y-25260000D03*
%TO.P,EXT2,11,11*%
%TO.N,GPIO36*%
X165100000Y-22720000D03*
%TO.P,EXT2,12,12*%
%TO.N,/3V3_EN*%
X165100000Y-25260000D03*
%TO.P,EXT2,13,13*%
%TO.N,GPIO37*%
X167640000Y-22720000D03*
%TO.P,EXT2,14,14*%
%TO.N,/ADC_VREF*%
X167640000Y-25260000D03*
%TO.P,EXT2,15,15*%
%TO.N,GPIO38*%
X170180000Y-22720000D03*
%TO.P,EXT2,16,16*%
%TO.N,GND*%
X170180000Y-25260000D03*
%TO.P,EXT2,17,17*%
%TO.N,GPIO39*%
X172720000Y-22720000D03*
%TO.P,EXT2,18,18*%
%TO.N,/RUN*%
X172720000Y-25260000D03*
%TO.P,EXT2,19,19*%
%TO.N,GND*%
X175260000Y-22720000D03*
%TO.P,EXT2,20,20*%
%TO.N,/BOOTSEL#*%
X175260000Y-25260000D03*
%TO.P,EXT2,21,21*%
%TO.N,+3.3V*%
X177800000Y-22720000D03*
%TO.P,EXT2,22,22*%
X177800000Y-25260000D03*
%TO.P,EXT2,23,23*%
%TO.N,GPIO40*%
X180340000Y-22720000D03*
%TO.P,EXT2,24,24*%
%TO.N,/QSPI_SD0*%
X180340000Y-25260000D03*
%TO.P,EXT2,25,25*%
%TO.N,GPIO41*%
X182880000Y-22720000D03*
%TO.P,EXT2,26,26*%
%TO.N,/QSPI_SD1*%
X182880000Y-25260000D03*
%TO.P,EXT2,27,27*%
%TO.N,GPIO42*%
X185420000Y-22720000D03*
%TO.P,EXT2,28,28*%
%TO.N,/QSPI_SD2*%
X185420000Y-25260000D03*
%TO.P,EXT2,29,29*%
%TO.N,GPIO43*%
X187960000Y-22720000D03*
%TO.P,EXT2,30,30*%
%TO.N,/QSPI_SD3*%
X187960000Y-25260000D03*
%TO.P,EXT2,31,31*%
%TO.N,GPIO44*%
X190500000Y-22720000D03*
%TO.P,EXT2,32,32*%
%TO.N,/QSPI_CLK*%
X190500000Y-25260000D03*
%TO.P,EXT2,33,33*%
%TO.N,GPIO45*%
X193040000Y-22720000D03*
%TO.P,EXT2,34,34*%
%TO.N,/QSPI_CSn*%
X193040000Y-25260000D03*
%TO.P,EXT2,35,35*%
%TO.N,GPIO46*%
X195580000Y-22720000D03*
%TO.P,EXT2,36,36*%
%TO.N,/SWDIO*%
X195580000Y-25260000D03*
%TO.P,EXT2,37,37*%
%TO.N,GPIO47*%
X198120000Y-22720000D03*
%TO.P,EXT2,38,38*%
%TO.N,/SWCLK*%
X198120000Y-25260000D03*
%TO.P,EXT2,39,39*%
%TO.N,GND*%
X200660000Y-22720000D03*
%TO.P,EXT2,40,40*%
X200660000Y-25260000D03*
%TD*%
D12*
%TO.P,J2,1,GND*%
%TO.N,GND*%
X239750000Y-28065000D03*
%TO.P,J2,3,GND*%
X239750000Y-30605000D03*
%TO.P,J2,5,+24V*%
%TO.N,unconnected-(J2-+24V-Pad5)*%
X239750000Y-33145000D03*
%TO.P,J2,7,+24V*%
%TO.N,unconnected-(J2-+24V-Pad7)*%
X239750000Y-35685000D03*
%TO.P,J2,9,9*%
%TO.N,unconnected-(J2-Pad9)*%
X239750000Y-38225000D03*
%TO.P,J2,11,/RESET*%
%TO.N,Net-(J2-{slash}RESET)*%
X239750000Y-40765000D03*
%TO.P,J2,13,READY*%
%TO.N,Net-(J2-READY)*%
X239750000Y-43305000D03*
%TO.P,J2,15,15*%
%TO.N,unconnected-(J2-Pad15)*%
X239750000Y-45845000D03*
%TO.P,J2,17,AUD*%
%TO.N,unconnected-(J2-AUD-Pad17)*%
X239750000Y-48385000D03*
%TO.P,J2,19,19*%
%TO.N,unconnected-(J2-Pad19)*%
X239750000Y-50925000D03*
%TO.P,J2,21,/DB1*%
%TO.N,Net-(J2-{slash}DB1)*%
X239750000Y-53465000D03*
%TO.P,J2,23,/DB3*%
%TO.N,Net-(J2-{slash}DB3)*%
X239750000Y-56005000D03*
%TO.P,J2,25,/DB5*%
%TO.N,Net-(J2-{slash}DB5)*%
X239750000Y-58545000D03*
%TO.P,J2,27,/DB7*%
%TO.N,Net-(J2-{slash}DB7)*%
X239750000Y-61085000D03*
%TO.P,J2,29,/HLDAK*%
%TO.N,Net-(J2-{slash}HLDAK)*%
X239750000Y-63625000D03*
%TO.P,J2,31,/IORD*%
%TO.N,Net-(J2-{slash}IORD)*%
X239750000Y-66165000D03*
%TO.P,J2,33,/IOWR*%
%TO.N,Net-(J2-{slash}IOWR)*%
X239750000Y-68705000D03*
%TO.P,J2,35,/BIN*%
%TO.N,Net-(J2-{slash}BIN)*%
X239750000Y-71245000D03*
%TO.P,J2,37,/BOUT*%
%TO.N,Net-(J2-{slash}BOUT)*%
X239750000Y-73785000D03*
%TO.P,J2,39,39*%
%TO.N,unconnected-(J2-Pad39)*%
X239750000Y-76325000D03*
%TO.P,J2,41,/A1*%
%TO.N,Net-(J2-{slash}A1)*%
X239750000Y-78865000D03*
%TO.P,J2,43,/A3*%
%TO.N,Net-(J2-{slash}A3)*%
X239750000Y-81405000D03*
%TO.P,J2,45,/A5*%
%TO.N,Net-(J2-{slash}A5)*%
X239750000Y-83945000D03*
%TO.P,J2,47,/A7*%
%TO.N,Net-(J2-{slash}A7)*%
X239750000Y-86485000D03*
%TO.P,J2,49,/A9*%
%TO.N,Net-(J2-{slash}A9)*%
X239750000Y-89025000D03*
%TO.P,J2,51,/A11*%
%TO.N,Net-(J2-{slash}A11)*%
X239750000Y-91565000D03*
%TO.P,J2,53,/A13*%
%TO.N,Net-(J2-{slash}A13)*%
X239750000Y-94105000D03*
%TO.P,J2,55,/A15*%
%TO.N,Net-(J2-{slash}A15)*%
X239750000Y-96645000D03*
%TO.P,J2,57,/REF*%
%TO.N,Net-(J2-{slash}REF)*%
X239750000Y-99185000D03*
%TO.P,J2,59,59*%
%TO.N,unconnected-(J2-Pad59)*%
X239750000Y-101725000D03*
%TO.P,J2,61,/IO20*%
%TO.N,Net-(J2-{slash}IO20)*%
X239750000Y-104265000D03*
%TO.P,J2,63,/IO30*%
%TO.N,Net-(J2-{slash}IO30)*%
X239750000Y-106805000D03*
%TO.P,J2,65,/IO40*%
%TO.N,Net-(J2-{slash}IO40)*%
X239750000Y-109345000D03*
%TO.P,J2,67,/EOF*%
%TO.N,Net-(J2-{slash}EOF)*%
X239750000Y-111885000D03*
%TO.P,J2,69,/INTERRUPT4*%
%TO.N,Net-(J2-{slash}INTERRUPT4)*%
X239750000Y-114425000D03*
%TO.P,J2,71,/INT3*%
%TO.N,Net-(J2-{slash}INT3)*%
X239750000Y-116965000D03*
%TO.P,J2,73,/DREQ0*%
%TO.N,Net-(J2-{slash}DREQ0)*%
X239750000Y-119505000D03*
%TO.P,J2,75,/DREQ1*%
%TO.N,Net-(J2-{slash}DREQ1)*%
X239750000Y-122045000D03*
%TO.P,J2,77,/DREQ2*%
%TO.N,Net-(J2-{slash}DREQ2)*%
X239750000Y-124585000D03*
%TO.P,J2,79,/DREQ3*%
%TO.N,Net-(J2-{slash}DREQ3)*%
X239750000Y-127125000D03*
%TO.P,J2,81,PHI2*%
%TO.N,Net-(J2-PHI2)*%
X239750000Y-129665000D03*
%TO.P,J2,83,83*%
%TO.N,unconnected-(J2-Pad83)*%
X239750000Y-132205000D03*
%TO.P,J2,85,85*%
%TO.N,unconnected-(J2-Pad85)*%
X239750000Y-134745000D03*
%TO.P,J2,87,-5V*%
%TO.N,unconnected-(J2--5V-Pad87)*%
X239750000Y-137285000D03*
%TO.P,J2,89,-12V*%
%TO.N,unconnected-(J2--12V-Pad89)*%
X239750000Y-139825000D03*
%TO.P,J2,91,+12V*%
%TO.N,unconnected-(J2-+12V-Pad91)*%
X239750000Y-142365000D03*
%TO.P,J2,93,+5V*%
%TO.N,+5V*%
X239750000Y-144905000D03*
%TO.P,J2,95,+5V*%
%TO.N,unconnected-(J2-+5V-Pad95)*%
X239750000Y-147445000D03*
%TO.P,J2,97,GND*%
%TO.N,unconnected-(J2-GND-Pad97)*%
X239750000Y-149985000D03*
%TO.P,J2,99,GND*%
%TO.N,GND*%
X239750000Y-152525000D03*
%TD*%
D10*
%TO.P,J3,1,Pin_1*%
%TO.N,GPIO14*%
X215504000Y-146304000D03*
D11*
%TO.P,J3,2,Pin_2*%
%TO.N,GPIO15*%
X212964000Y-146304000D03*
%TO.P,J3,3,Pin_3*%
%TO.N,GPIO17*%
X215504000Y-143764000D03*
%TO.P,J3,4,Pin_4*%
%TO.N,unconnected-(J3-Pin_4-Pad4)*%
X212964000Y-143764000D03*
%TO.P,J3,5,Pin_5*%
%TO.N,DACK3*%
X215504000Y-141224000D03*
%TO.P,J3,6,Pin_6*%
%TO.N,DACK2*%
X212964000Y-141224000D03*
%TO.P,J3,7,Pin_7*%
%TO.N,DREQ3*%
X215504000Y-138684000D03*
%TO.P,J3,8,Pin_8*%
%TO.N,DREQ2*%
X212964000Y-138684000D03*
%TD*%
D10*
%TO.P,J8,1,Pin_1*%
%TO.N,LED0*%
X173990000Y-100330000D03*
D11*
%TO.P,J8,2,Pin_2*%
%TO.N,LED1*%
X173990000Y-102870000D03*
%TO.P,J8,3,Pin_3*%
%TO.N,LED2*%
X173990000Y-105410000D03*
%TO.P,J8,4,Pin_4*%
%TO.N,LED3*%
X173990000Y-107950000D03*
%TO.P,J8,5,Pin_5*%
%TO.N,LED4*%
X173990000Y-110490000D03*
%TO.P,J8,6,Pin_6*%
%TO.N,LED5*%
X173990000Y-113030000D03*
%TO.P,J8,7,Pin_7*%
%TO.N,LED6*%
X173990000Y-115570000D03*
%TO.P,J8,8,Pin_8*%
%TO.N,LED7*%
X173990000Y-118110000D03*
%TD*%
D10*
%TO.P,J7,1,Pin_1*%
%TO.N,GPIO14*%
X186944000Y-146304000D03*
D11*
%TO.P,J7,2,Pin_2*%
%TO.N,GPIO15*%
X184404000Y-146304000D03*
%TO.P,J7,3,Pin_3*%
%TO.N,GPIO17*%
X186944000Y-143764000D03*
%TO.P,J7,4,Pin_4*%
%TO.N,GPIO26*%
X184404000Y-143764000D03*
%TO.P,J7,5,Pin_5*%
%TO.N,unconnected-(J7-Pin_5-Pad5)*%
X186944000Y-141224000D03*
%TO.P,J7,6,Pin_6*%
%TO.N,unconnected-(J7-Pin_6-Pad6)*%
X184404000Y-141224000D03*
%TO.P,J7,7,Pin_7*%
%TO.N,unconnected-(J7-Pin_7-Pad7)*%
X186944000Y-138684000D03*
%TO.P,J7,8,Pin_8*%
%TO.N,REF*%
X184404000Y-138684000D03*
%TD*%
D10*
%TO.P,J10,1,Pin_1*%
%TO.N,/GPIO16*%
X226314000Y-36322000D03*
D11*
%TO.P,J10,2,Pin_2*%
%TO.N,MISO_DO*%
X223774000Y-36322000D03*
%TO.P,J10,3,Pin_3*%
%TO.N,/GPIO18*%
X226314000Y-33782000D03*
%TO.P,J10,4,Pin_4*%
%TO.N,SD_CLK*%
X223774000Y-33782000D03*
%TO.P,J10,5,Pin_5*%
%TO.N,/GPIO19*%
X226314000Y-31242000D03*
%TO.P,J10,6,Pin_6*%
%TO.N,MOSI_DI*%
X223774000Y-31242000D03*
%TO.P,J10,7,Pin_7*%
%TO.N,/GPIO20*%
X226314000Y-28702000D03*
%TO.P,J10,8,Pin_8*%
%TO.N,SD_DAT1*%
X223774000Y-28702000D03*
%TO.P,J10,9,Pin_9*%
%TO.N,/GPIO21*%
X226314000Y-26162000D03*
%TO.P,J10,10,Pin_10*%
%TO.N,SD_DAT2*%
X223774000Y-26162000D03*
%TO.P,J10,11,Pin_11*%
%TO.N,/GPIO22*%
X226314000Y-23622000D03*
%TO.P,J10,12,Pin_12*%
%TO.N,SD_SS*%
X223774000Y-23622000D03*
%TD*%
D13*
%TO.P,R51,1*%
%TO.N,RESET*%
X221488000Y-40640000D03*
%TO.P,R51,2*%
%TO.N,Net-(J2-{slash}RESET)*%
X223488000Y-40640000D03*
%TD*%
%TO.P,R47,1*%
%TO.N,INT4*%
X221488000Y-114300000D03*
%TO.P,R47,2*%
%TO.N,Net-(J2-{slash}INTERRUPT4)*%
X223488000Y-114300000D03*
%TD*%
%TO.P,R18,1*%
%TO.N,GPIO1*%
X221488000Y-53340000D03*
%TO.P,R18,2*%
%TO.N,Net-(J2-{slash}DB1)*%
X223488000Y-53340000D03*
%TD*%
%TO.P,R1,1*%
%TO.N,GPIO47*%
X221520000Y-96520000D03*
%TO.P,R1,2*%
%TO.N,Net-(J2-{slash}A15)*%
X223520000Y-96520000D03*
%TD*%
%TO.P,R31,1*%
%TO.N,GPIO43*%
X221504000Y-91440000D03*
%TO.P,R31,2*%
%TO.N,Net-(J2-{slash}A11)*%
X223504000Y-91440000D03*
%TD*%
%TO.P,R46,1*%
%TO.N,INT3*%
X221520000Y-116840000D03*
%TO.P,R46,2*%
%TO.N,Net-(J2-{slash}INT3)*%
X223520000Y-116840000D03*
%TD*%
%TO.P,R24,1*%
%TO.N,IO30*%
X221488000Y-106680000D03*
%TO.P,R24,2*%
%TO.N,Net-(J2-{slash}IO30)*%
X223488000Y-106680000D03*
%TD*%
%TO.P,R42,1*%
%TO.N,DREQ3*%
X221520000Y-127000000D03*
%TO.P,R42,2*%
%TO.N,Net-(J2-{slash}DREQ3)*%
X223520000Y-127000000D03*
%TD*%
%TO.P,R21,1*%
%TO.N,BIN*%
X221488000Y-71120000D03*
%TO.P,R21,2*%
%TO.N,Net-(J2-{slash}BIN)*%
X223488000Y-71120000D03*
%TD*%
%TO.P,R55,1*%
%TO.N,HLDACK*%
X221488000Y-63500000D03*
%TO.P,R55,2*%
%TO.N,Net-(J2-{slash}HLDAK)*%
X223488000Y-63500000D03*
%TD*%
%TO.P,R16,1*%
%TO.N,GPIO3*%
X221520000Y-55880000D03*
%TO.P,R16,2*%
%TO.N,Net-(J2-{slash}DB3)*%
X223520000Y-55880000D03*
%TD*%
%TO.P,R4,1*%
%TO.N,GPIO39*%
X221504000Y-86360000D03*
%TO.P,R4,2*%
%TO.N,Net-(J2-{slash}A7)*%
X223504000Y-86360000D03*
%TD*%
%TO.P,R10,1*%
%TO.N,GPIO33*%
X221504000Y-78740000D03*
%TO.P,R10,2*%
%TO.N,Net-(J2-{slash}A1)*%
X223504000Y-78740000D03*
%TD*%
%TO.P,R33,1*%
%TO.N,GPIO41*%
X221504000Y-88900000D03*
%TO.P,R33,2*%
%TO.N,Net-(J2-{slash}A9)*%
X223504000Y-88900000D03*
%TD*%
%TO.P,R22,1*%
%TO.N,BOUT*%
X221488000Y-73660000D03*
%TO.P,R22,2*%
%TO.N,Net-(J2-{slash}BOUT)*%
X223488000Y-73660000D03*
%TD*%
%TO.P,R12,1*%
%TO.N,GPIO7*%
X221488000Y-60960000D03*
%TO.P,R12,2*%
%TO.N,Net-(J2-{slash}DB7)*%
X223488000Y-60960000D03*
%TD*%
%TO.P,R35,1*%
%TO.N,IOWR*%
X221488000Y-68580000D03*
%TO.P,R35,2*%
%TO.N,Net-(J2-{slash}IOWR)*%
X223488000Y-68580000D03*
%TD*%
%TO.P,R23,1*%
%TO.N,IO20*%
X221488000Y-104140000D03*
%TO.P,R23,2*%
%TO.N,Net-(J2-{slash}IO20)*%
X223488000Y-104140000D03*
%TD*%
%TO.P,R27,1*%
%TO.N,IO40*%
X221488000Y-109220000D03*
%TO.P,R27,2*%
%TO.N,Net-(J2-{slash}IO40)*%
X223488000Y-109220000D03*
%TD*%
%TO.P,R54,1*%
%TO.N,REF*%
X221520000Y-99060000D03*
%TO.P,R54,2*%
%TO.N,Net-(J2-{slash}REF)*%
X223520000Y-99060000D03*
%TD*%
%TO.P,R8,1*%
%TO.N,GPIO35*%
X221504000Y-81280000D03*
%TO.P,R8,2*%
%TO.N,Net-(J2-{slash}A3)*%
X223504000Y-81280000D03*
%TD*%
%TO.P,R49,1*%
%TO.N,EOF*%
X221488000Y-111760000D03*
%TO.P,R49,2*%
%TO.N,Net-(J2-{slash}EOF)*%
X223488000Y-111760000D03*
%TD*%
%TO.P,R14,1*%
%TO.N,GPIO5*%
X221520000Y-58420000D03*
%TO.P,R14,2*%
%TO.N,Net-(J2-{slash}DB5)*%
X223520000Y-58420000D03*
%TD*%
%TO.P,R45,1*%
%TO.N,DREQ0*%
X221520000Y-119380000D03*
%TO.P,R45,2*%
%TO.N,Net-(J2-{slash}DREQ0)*%
X223520000Y-119380000D03*
%TD*%
%TO.P,R34,1*%
%TO.N,PHI2*%
X221520000Y-129540000D03*
%TO.P,R34,2*%
%TO.N,Net-(J2-PHI2)*%
X223520000Y-129540000D03*
%TD*%
%TO.P,R6,1*%
%TO.N,GPIO37*%
X221504000Y-83820000D03*
%TO.P,R6,2*%
%TO.N,Net-(J2-{slash}A5)*%
X223504000Y-83820000D03*
%TD*%
%TO.P,R44,1*%
%TO.N,DREQ1*%
X221520000Y-121920000D03*
%TO.P,R44,2*%
%TO.N,Net-(J2-{slash}DREQ1)*%
X223520000Y-121920000D03*
%TD*%
%TO.P,R43,1*%
%TO.N,DREQ2*%
X221520000Y-124460000D03*
%TO.P,R43,2*%
%TO.N,Net-(J2-{slash}DREQ2)*%
X223520000Y-124460000D03*
%TD*%
%TO.P,R29,1*%
%TO.N,GPIO45*%
X221504000Y-93980000D03*
%TO.P,R29,2*%
%TO.N,Net-(J2-{slash}A13)*%
X223504000Y-93980000D03*
%TD*%
%TO.P,R26,1*%
%TO.N,IORD*%
X221488000Y-66040000D03*
%TO.P,R26,2*%
%TO.N,Net-(J2-{slash}IORD)*%
X223488000Y-66040000D03*
%TD*%
%TO.P,R53,1*%
%TO.N,READY*%
X221488000Y-43180000D03*
%TO.P,R53,2*%
%TO.N,Net-(J2-READY)*%
X223488000Y-43180000D03*
%TD*%
D14*
%TO.N,+5V*%
X163525200Y-88493600D03*
X163347400Y-82245200D03*
X226720400Y-150444200D03*
X163423600Y-111683800D03*
X163398200Y-129641600D03*
X163474400Y-120624600D03*
X163677600Y-151028400D03*
X162941000Y-57658000D03*
X163423600Y-138430000D03*
X163423600Y-96062800D03*
X163245800Y-104216200D03*
X226720400Y-145008600D03*
%TO.N,VSYS*%
X148107400Y-56311800D03*
X154914600Y-29514800D03*
X147726400Y-29362400D03*
%TO.N,Net-(D2-A)*%
X160020000Y-85180400D03*
X160020000Y-82550000D03*
%TO.N,GPIO17*%
X173075600Y-83515200D03*
X187248800Y-87807800D03*
X157505400Y-43891200D03*
X173202600Y-87426800D03*
X186969400Y-95427800D03*
X153390600Y-84480400D03*
X179755800Y-144094200D03*
X153517600Y-43611800D03*
X179628800Y-95478600D03*
%TO.N,PHI2*%
X193141600Y-128549400D03*
X220141800Y-129463800D03*
%TO.N,GPIO1*%
X220091000Y-54040000D03*
X157607000Y-54152800D03*
X188569600Y-54040000D03*
%TO.N,GPIO3*%
X161971000Y-55956200D03*
X161971000Y-67284600D03*
X220014800Y-56580000D03*
%TO.N,IO60*%
X190296800Y-41198800D03*
X201269600Y-101854000D03*
X201523600Y-41351200D03*
%TO.N,GND*%
X151003000Y-64389000D03*
X158750000Y-119380000D03*
X158750000Y-137160000D03*
X158750000Y-110490000D03*
X158750000Y-128270000D03*
X175412400Y-80416400D03*
X162560000Y-29286200D03*
X175514000Y-31267400D03*
X158750000Y-87630000D03*
X149987000Y-76708000D03*
X200482200Y-39598600D03*
X175234600Y-20828000D03*
X162483800Y-30937200D03*
X158750000Y-95250000D03*
X152019000Y-79248000D03*
X157835600Y-29489400D03*
X200431400Y-20523200D03*
X175412400Y-39395400D03*
X157480000Y-27635200D03*
X150876000Y-61087000D03*
X158775400Y-79248000D03*
X158750000Y-102870000D03*
X149352000Y-27457400D03*
X158750000Y-152400000D03*
X169951400Y-31165800D03*
X149275800Y-21463000D03*
X226822000Y-152525000D03*
%TO.N,MEMWR*%
X199821800Y-51435000D03*
X182956200Y-51638200D03*
X199669400Y-65963800D03*
%TO.N,+3.3V*%
X152273000Y-66294000D03*
X177800000Y-32766000D03*
X160223200Y-30886400D03*
X150949000Y-30835600D03*
%TO.N,MEMRD*%
X185369200Y-52171600D03*
X198602600Y-64185800D03*
X198297800Y-52135000D03*
%TO.N,PARITYERR*%
X187756800Y-42418000D03*
X199034400Y-42316400D03*
X200710800Y-99212400D03*
%TO.N,/GPIO21*%
X167513000Y-27812000D03*
%TO.N,/GPIO20*%
X165100000Y-27813000D03*
%TO.N,IORD*%
X215392000Y-61899800D03*
X219989400Y-66852800D03*
X215442800Y-66802000D03*
X189534800Y-62001400D03*
%TO.N,IO40*%
X220421200Y-109778800D03*
X208624400Y-110007400D03*
X196672200Y-43789600D03*
X208000600Y-75260200D03*
X192938400Y-43713400D03*
X196189600Y-75463400D03*
%TO.N,INT4*%
X175742600Y-126111000D03*
X219633800Y-125933200D03*
%TO.N,GPIO8*%
X180289200Y-60883800D03*
X180136800Y-74218800D03*
%TO.N,INT3*%
X186461400Y-43484800D03*
X220816399Y-117972485D03*
X207924400Y-90576400D03*
X196621400Y-59842400D03*
X197978800Y-90398600D03*
X180746400Y-43662600D03*
X187223400Y-59359800D03*
X207924400Y-117754400D03*
%TO.N,/GPIO18*%
X215758800Y-37022000D03*
X215758800Y-49784000D03*
X160407920Y-46966932D03*
X224790000Y-37465000D03*
%TO.N,GPIO6*%
X170053000Y-70789800D03*
X170180000Y-58039000D03*
%TO.N,IOWR*%
X220116400Y-68656200D03*
X190987200Y-69037200D03*
%TO.N,/GPIO22*%
X180721000Y-40513000D03*
X169926000Y-40767000D03*
X181610000Y-23876000D03*
%TO.N,GPIO2*%
X183972200Y-53416200D03*
X160070800Y-53009800D03*
%TO.N,GPIO26*%
X178638200Y-97155000D03*
X185420000Y-38506400D03*
X178308000Y-145923000D03*
X207949800Y-38531800D03*
X209325400Y-97663000D03*
%TO.N,IO30*%
X203708000Y-42418000D03*
X195478400Y-43016400D03*
X204165200Y-106578400D03*
X219964000Y-106273600D03*
%TO.N,INT1*%
X196723000Y-125095000D03*
X196570600Y-116289000D03*
X181711600Y-125349000D03*
%TO.N,GPIO14*%
X195072000Y-74066400D03*
X188823600Y-135875800D03*
X181748200Y-135875800D03*
X182016400Y-147370800D03*
X189890400Y-73939400D03*
%TO.N,GPIO4*%
X165150800Y-55676800D03*
X165100000Y-68707000D03*
%TO.N,GPIO15*%
X199378800Y-79908400D03*
X206883000Y-115798600D03*
X206857600Y-93192600D03*
X193243200Y-127177800D03*
X201701400Y-115620800D03*
X183692800Y-126974600D03*
X201320400Y-123291600D03*
X193294000Y-122732800D03*
X199999600Y-92786200D03*
%TO.N,/GPIO16*%
X189057445Y-37622760D03*
X154813000Y-36957000D03*
X226568000Y-39878000D03*
X189103000Y-40513000D03*
%TO.N,/GPIO19*%
X179959000Y-38322760D03*
X212344000Y-30353000D03*
X162560000Y-37477200D03*
X179959000Y-32766000D03*
X212465910Y-32256493D03*
%TO.N,IO20*%
X202996800Y-104190800D03*
X203454000Y-46786800D03*
X220014800Y-104038400D03*
%TO.N,GPIO5*%
X169189400Y-69392800D03*
X220243400Y-57454800D03*
X169189400Y-57683400D03*
%TO.N,GPIO7*%
X193243200Y-59142400D03*
X193294000Y-54965600D03*
X172516800Y-72161400D03*
X220091000Y-60096400D03*
X172720000Y-55118000D03*
%TO.N,GPIO0*%
X154711400Y-50698400D03*
X186156600Y-50698400D03*
%TO.N,GPIO44*%
X191312800Y-30022800D03*
X207187800Y-29845000D03*
X198475600Y-118059200D03*
X197967600Y-91744800D03*
X206933800Y-91440000D03*
%TO.N,GPIO39*%
X183972200Y-42468800D03*
X177673000Y-111760000D03*
X215112600Y-110744000D03*
X178206400Y-80416400D03*
X173913800Y-42265600D03*
X182702200Y-80492600D03*
X220091000Y-85660000D03*
X214172800Y-85660000D03*
X184937400Y-112699800D03*
%TO.N,GPIO47*%
X218135200Y-121208800D03*
X198755000Y-34874200D03*
X219024200Y-35407600D03*
%TO.N,GPIO43*%
X217525600Y-90740000D03*
X217474800Y-29514800D03*
X189484000Y-29133800D03*
X193624200Y-116967000D03*
X217449400Y-113512600D03*
X219989400Y-90740000D03*
X193751200Y-113944400D03*
%TO.N,GPIO37*%
X185324260Y-110427479D03*
X213614000Y-84658200D03*
X171613600Y-109169200D03*
X220091000Y-84520000D03*
X213283800Y-108712000D03*
%TO.N,GPIO38*%
X183540400Y-83820000D03*
X176809400Y-83794600D03*
X195202000Y-83667600D03*
X195021200Y-110591600D03*
X176453800Y-43967400D03*
X170637200Y-43967400D03*
%TO.N,GPIO46*%
X198678800Y-69596000D03*
X198667600Y-93878400D03*
X194183000Y-69545200D03*
X198628000Y-120700800D03*
%TO.N,GPIO36*%
X182829200Y-81432400D03*
X194502000Y-81381600D03*
X194360800Y-108305600D03*
X165989000Y-80772000D03*
X182930800Y-90347800D03*
X194502000Y-90220800D03*
%TO.N,GPIO33*%
X158419800Y-77419200D03*
X180340000Y-105257600D03*
X180771800Y-77451000D03*
X219913200Y-77800200D03*
%TO.N,GPIO32*%
X192989200Y-102870000D03*
X156286200Y-75844400D03*
X193090800Y-75895200D03*
%TO.N,GPIO40*%
X178765200Y-86283800D03*
X196240400Y-112826800D03*
X195902000Y-86309200D03*
%TO.N,GPIO42*%
X197256400Y-115671600D03*
X196646800Y-88900000D03*
X191588200Y-89001600D03*
X186918600Y-31851600D03*
X193573400Y-32054800D03*
%TO.N,GPIO35*%
X214299800Y-82042000D03*
X215061800Y-106973600D03*
X214985600Y-80568800D03*
X219786200Y-80111600D03*
X214223600Y-80580000D03*
X164642800Y-80721200D03*
%TO.N,GPIO34*%
X193802000Y-78536800D03*
X193802000Y-105359200D03*
X161315400Y-78151000D03*
%TO.N,GPIO45*%
X220091000Y-34315400D03*
X218211400Y-118680000D03*
X196519800Y-33883600D03*
X218324200Y-93116400D03*
X220091000Y-93014800D03*
%TO.N,GPIO41*%
X184251600Y-27813000D03*
X216458800Y-27889200D03*
X220294200Y-87807800D03*
X216433400Y-114644400D03*
X216774800Y-87934800D03*
%TO.N,DREQ2*%
X220903800Y-125704600D03*
X213029800Y-125411000D03*
%TO.N,DREQ3*%
X219024200Y-138531600D03*
%TO.N,DACK2*%
X212775800Y-124358400D03*
%TO.N,DACK3*%
X215569800Y-127254000D03*
%TO.N,DREQ0*%
X205689200Y-135102600D03*
X220816399Y-120512485D03*
X209042000Y-120442800D03*
X208483200Y-135331200D03*
%TO.N,DACK1*%
X208330800Y-121843800D03*
%TO.N,DACK0*%
X204582800Y-119837200D03*
%TO.N,DREQ1*%
X221335600Y-123120000D03*
X208254600Y-123393200D03*
%TO.N,EOF*%
X200710800Y-112115600D03*
X220294200Y-111760000D03*
%TO.N,BOUT*%
X200635000Y-125272800D03*
X203276200Y-120116600D03*
X210794600Y-112649000D03*
X220014800Y-74396600D03*
X198043800Y-125095000D03*
X200635000Y-121005600D03*
X211556600Y-74396600D03*
X203504800Y-112598200D03*
%TO.N,TC*%
X199898000Y-96520000D03*
%TO.N,BIN*%
X201447400Y-127127000D03*
X213106000Y-70967600D03*
X220243400Y-70967600D03*
X213766400Y-126873000D03*
%TO.N,READY*%
X209931000Y-134366000D03*
X208661000Y-43891200D03*
X191465200Y-134289800D03*
X220116400Y-44094400D03*
%TO.N,HLDACK*%
X180416200Y-136550400D03*
X183819800Y-79883000D03*
X220473913Y-62757890D03*
X177825400Y-64363600D03*
X184613518Y-106987645D03*
X180929000Y-107619800D03*
X177749200Y-79603600D03*
%TO.N,RESET*%
X220040200Y-40970200D03*
X205079600Y-132435600D03*
X205282800Y-40716200D03*
X193827400Y-132613400D03*
%TO.N,WAIT*%
X205982800Y-43129200D03*
X205968600Y-133070600D03*
X193319400Y-133654800D03*
%TO.N,REF*%
X182194200Y-138582400D03*
X220065600Y-99760000D03*
X182448200Y-100279200D03*
%TO.N,LED2*%
X171881800Y-83464400D03*
%TO.N,LED4*%
X168910000Y-113030000D03*
X168910000Y-110490000D03*
%TO.N,LED6*%
X168325800Y-89865200D03*
X168249600Y-115900200D03*
%TO.N,LED7*%
X166801800Y-96951800D03*
X166979600Y-118160800D03*
%TO.N,LED3*%
X171602400Y-139268200D03*
%TO.N,LED5*%
X171170600Y-130505200D03*
X170880000Y-113182400D03*
%TO.N,LED0*%
X167640000Y-105410000D03*
X167640000Y-100330000D03*
%TO.N,LED1*%
X170180000Y-121920000D03*
X170180000Y-102870000D03*
%TO.N,SD_DAT1*%
X218186000Y-33183600D03*
X147066000Y-32131000D03*
X218186000Y-28702000D03*
X147447000Y-61214000D03*
%TO.N,SD_DAT2*%
X179640000Y-92710000D03*
X209804000Y-69356200D03*
X196977000Y-70245200D03*
X161798000Y-85217000D03*
X190590400Y-87376000D03*
X196850000Y-87376000D03*
X209169000Y-26162000D03*
X179532241Y-86511071D03*
X161971000Y-69723000D03*
X190590400Y-92837000D03*
%TO.N,MISO_DO*%
X191089000Y-34293236D03*
X159766000Y-32258000D03*
X159893000Y-34293236D03*
X191008000Y-36703000D03*
X146304000Y-63119000D03*
X146177000Y-31369000D03*
%TO.N,SD_SS*%
X173228000Y-36876200D03*
X213995000Y-23622000D03*
X173228000Y-43053000D03*
X213995000Y-37022000D03*
X154351000Y-51512000D03*
X154351000Y-68834000D03*
%TO.N,SD_CLK*%
X213233000Y-35574200D03*
X147955000Y-65278000D03*
X149007400Y-34417000D03*
X213233000Y-32483600D03*
%TO.N,MOSI_DI*%
X189865000Y-36449000D03*
X155194000Y-67437000D03*
X149707400Y-36195000D03*
X155491000Y-52212000D03*
X189865000Y-31354800D03*
X149707400Y-52197000D03*
%TD*%
D15*
%TO.N,+5V*%
X239750000Y-144905000D02*
X226824000Y-144905000D01*
X163347400Y-110490000D02*
X163347400Y-119532400D01*
D16*
X163245800Y-111506000D02*
X163423600Y-111683800D01*
X163423600Y-104038400D02*
X163245800Y-104216200D01*
X163398200Y-138404600D02*
X163423600Y-138430000D01*
D15*
X162941000Y-59994800D02*
X162941000Y-57658000D01*
X163347400Y-103327200D02*
X163347400Y-110490000D01*
X163347400Y-103327200D02*
X163347400Y-104114600D01*
X163347400Y-120497600D02*
X163474400Y-120624600D01*
X163093400Y-60147200D02*
X162941000Y-59994800D01*
X163347400Y-128574800D02*
X163347400Y-129590800D01*
X163347400Y-95173800D02*
X163347400Y-95986600D01*
X163347400Y-87782400D02*
X163347400Y-88315800D01*
X163347400Y-119532400D02*
X163347400Y-120497600D01*
X226720400Y-150444200D02*
X226720400Y-145008600D01*
X163347400Y-81127600D02*
X163347400Y-82245200D01*
X163347400Y-87782400D02*
X163347400Y-95173800D01*
X163347400Y-81127600D02*
X163347400Y-87782400D01*
X163347400Y-60401200D02*
X163347400Y-81127600D01*
X163347400Y-150698200D02*
X163677600Y-151028400D01*
X163347400Y-136982200D02*
X163347400Y-150698200D01*
X163347400Y-136982200D02*
X163347400Y-138353800D01*
X163093400Y-60147200D02*
X163347400Y-60401200D01*
X163347400Y-110490000D02*
X163347400Y-111607600D01*
X163347400Y-95173800D02*
X163347400Y-103327200D01*
X226824000Y-144905000D02*
X226720400Y-145008600D01*
X163347400Y-95986600D02*
X163423600Y-96062800D01*
D16*
X163525200Y-95961200D02*
X163423600Y-96062800D01*
D15*
X163347400Y-119532400D02*
X163347400Y-128574800D01*
X163347400Y-88315800D02*
X163525200Y-88493600D01*
D16*
X163423600Y-120573800D02*
X163474400Y-120624600D01*
D15*
X163347400Y-129590800D02*
X163398200Y-129641600D01*
X163347400Y-111607600D02*
X163423600Y-111683800D01*
X163347400Y-138353800D02*
X163423600Y-138430000D01*
D16*
X163474400Y-129565400D02*
X163398200Y-129641600D01*
D15*
X163347400Y-128574800D02*
X163347400Y-136982200D01*
X163347400Y-104114600D02*
X163245800Y-104216200D01*
%TO.N,VSYS*%
X154914600Y-25285400D02*
X154940000Y-25260000D01*
X148107400Y-29743400D02*
X147726400Y-29362400D01*
X154914600Y-29514800D02*
X154914600Y-25285400D01*
X148107400Y-56311800D02*
X148107400Y-29743400D01*
D16*
%TO.N,Net-(D2-A)*%
X160020000Y-82550000D02*
X160020000Y-85180400D01*
%TO.N,GPIO17*%
X173075600Y-87299800D02*
X173202600Y-87426800D01*
X187217000Y-85071000D02*
X188468000Y-83820000D01*
X187217000Y-87839600D02*
X187217000Y-95180200D01*
X187217000Y-87776000D02*
X187217000Y-85071000D01*
X157480000Y-43916600D02*
X157505400Y-43891200D01*
X179628800Y-143967200D02*
X179755800Y-144094200D01*
X187248800Y-87807800D02*
X187217000Y-87776000D01*
X153651000Y-43745200D02*
X153651000Y-84220000D01*
X187248800Y-87807800D02*
X187217000Y-87839600D01*
X173075600Y-83515200D02*
X173075600Y-87299800D01*
X157480000Y-45720000D02*
X157480000Y-43916600D01*
X153651000Y-84220000D02*
X153390600Y-84480400D01*
X187217000Y-95180200D02*
X186969400Y-95427800D01*
X153517600Y-43611800D02*
X153651000Y-43745200D01*
X179628800Y-95478600D02*
X179628800Y-143967200D01*
%TO.N,PHI2*%
X192288200Y-49011800D02*
X193040000Y-48260000D01*
X193141600Y-128549400D02*
X192288200Y-127696000D01*
X192288200Y-127696000D02*
X192288200Y-49011800D01*
X221520000Y-129540000D02*
X220218000Y-129540000D01*
X220218000Y-129540000D02*
X220141800Y-129463800D01*
%TO.N,GPIO1*%
X188468000Y-54141600D02*
X188569600Y-54040000D01*
X220788000Y-54040000D02*
X221488000Y-53340000D01*
X157607000Y-53263800D02*
X157480000Y-53136800D01*
X220091000Y-54040000D02*
X220788000Y-54040000D01*
X157480000Y-53136800D02*
X157480000Y-48260000D01*
X157607000Y-54152800D02*
X157607000Y-53263800D01*
X188468000Y-63500000D02*
X188468000Y-54141600D01*
%TO.N,GPIO3*%
X220714800Y-55880000D02*
X220014800Y-56580000D01*
X162560000Y-48260000D02*
X161971000Y-48849000D01*
X161971000Y-48849000D02*
X161971000Y-55956200D01*
X221520000Y-55880000D02*
X220714800Y-55880000D01*
X161971000Y-55956200D02*
X161971000Y-67284600D01*
%TO.N,IO60*%
X201911000Y-41738600D02*
X201523600Y-41351200D01*
X190296800Y-41198800D02*
X190500000Y-41402000D01*
X190500000Y-41402000D02*
X190500000Y-45720000D01*
X201269600Y-101854000D02*
X201911000Y-101212600D01*
X201911000Y-101212600D02*
X201911000Y-41738600D01*
D15*
%TO.N,GND*%
X162560000Y-29286200D02*
X162560000Y-30861000D01*
X175260000Y-20853400D02*
X175234600Y-20828000D01*
X158750000Y-128270000D02*
X158750000Y-119380000D01*
X200660000Y-22720000D02*
X200660000Y-25260000D01*
X169951400Y-25488600D02*
X170180000Y-25260000D01*
X162560000Y-30861000D02*
X162483800Y-30937200D01*
X158750000Y-137160000D02*
X158750000Y-128270000D01*
X158750000Y-102870000D02*
X158750000Y-95250000D01*
X175412400Y-31369000D02*
X175514000Y-31267400D01*
X200482200Y-45542200D02*
X200482200Y-39598600D01*
X151003000Y-64389000D02*
X151003000Y-75692000D01*
X158750000Y-119380000D02*
X158750000Y-110490000D01*
X157480000Y-29133800D02*
X157835600Y-29489400D01*
X158775400Y-79248000D02*
X158775400Y-81254600D01*
X175260000Y-80264000D02*
X175412400Y-80416400D01*
X149275800Y-21463000D02*
X149275800Y-27381200D01*
X152019000Y-79248000D02*
X152019000Y-78740000D01*
X175412400Y-39395400D02*
X175412400Y-45567600D01*
X200431400Y-20523200D02*
X200431400Y-22491400D01*
X229870000Y-30607000D02*
X230632000Y-30607000D01*
X151003000Y-61214000D02*
X150876000Y-61087000D01*
X230634000Y-30605000D02*
X239750000Y-30605000D01*
X229870000Y-28448000D02*
X229870000Y-30607000D01*
X157480000Y-27635200D02*
X157480000Y-29133800D01*
X169951400Y-31165800D02*
X169951400Y-25488600D01*
X158750000Y-95250000D02*
X158750000Y-87630000D01*
X200660000Y-45720000D02*
X200482200Y-45542200D01*
X175412400Y-39395400D02*
X175412400Y-31369000D01*
X175260000Y-22720000D02*
X175260000Y-20853400D01*
X151003000Y-64389000D02*
X151003000Y-61214000D01*
X149275800Y-27381200D02*
X149352000Y-27457400D01*
X239750000Y-28065000D02*
X230253000Y-28065000D01*
X162560000Y-25260000D02*
X162560000Y-29286200D01*
X175412400Y-45567600D02*
X175260000Y-45720000D01*
X151003000Y-75692000D02*
X149987000Y-76708000D01*
X152019000Y-78740000D02*
X149987000Y-76708000D01*
X200431400Y-22491400D02*
X200660000Y-22720000D01*
X175260000Y-48260000D02*
X175260000Y-45720000D01*
X200660000Y-45720000D02*
X200660000Y-48260000D01*
X239750000Y-152525000D02*
X226822000Y-152525000D01*
X229870000Y-22225000D02*
X228168200Y-20523200D01*
X158750000Y-87630000D02*
X158750000Y-81280000D01*
X158750000Y-110490000D02*
X158750000Y-102870000D01*
X229870000Y-28448000D02*
X229870000Y-22225000D01*
X157480000Y-25260000D02*
X157480000Y-27635200D01*
X158750000Y-152400000D02*
X158750000Y-137160000D01*
X175260000Y-48260000D02*
X175260000Y-80264000D01*
X158775400Y-81254600D02*
X158750000Y-81280000D01*
X228168200Y-20523200D02*
X200431400Y-20523200D01*
X230253000Y-28065000D02*
X229870000Y-28448000D01*
X230632000Y-30607000D02*
X230634000Y-30605000D01*
D16*
%TO.N,MEMWR*%
X199669400Y-51587400D02*
X199821800Y-51435000D01*
X199669400Y-65963800D02*
X199669400Y-51587400D01*
X182956200Y-51638200D02*
X182956200Y-48336200D01*
X182956200Y-48336200D02*
X182880000Y-48260000D01*
D15*
%TO.N,+3.3V*%
X177800000Y-25260000D02*
X177800000Y-22720000D01*
X150949000Y-44269000D02*
X150949000Y-30835600D01*
X177800000Y-32766000D02*
X177800000Y-25260000D01*
D16*
X152273000Y-66294000D02*
X152400000Y-66167000D01*
D15*
X152400000Y-48260000D02*
X152400000Y-45720000D01*
X160020000Y-30683200D02*
X160223200Y-30886400D01*
X150949000Y-24171000D02*
X152400000Y-22720000D01*
X177800000Y-48260000D02*
X177800000Y-45720000D01*
X177800000Y-45720000D02*
X177800000Y-32766000D01*
X150949000Y-30835600D02*
X150949000Y-24171000D01*
D16*
X152400000Y-66167000D02*
X152400000Y-48260000D01*
D15*
X160020000Y-25260000D02*
X160020000Y-30683200D01*
X152400000Y-45720000D02*
X150949000Y-44269000D01*
D16*
%TO.N,MEMRD*%
X185369200Y-52171600D02*
X185369200Y-48310800D01*
X198602600Y-64185800D02*
X198602600Y-52439800D01*
X185369200Y-48310800D02*
X185420000Y-48260000D01*
X198602600Y-52439800D02*
X198297800Y-52135000D01*
%TO.N,PARITYERR*%
X187756800Y-42418000D02*
X187756800Y-45516800D01*
X200710800Y-99212400D02*
X200710800Y-50079982D01*
X200710800Y-50079982D02*
X199371000Y-48740182D01*
X199371000Y-48740182D02*
X199371000Y-42653000D01*
X199371000Y-42653000D02*
X199034400Y-42316400D01*
X187756800Y-45516800D02*
X187960000Y-45720000D01*
%TO.N,/GPIO21*%
X167640000Y-45720000D02*
X167640000Y-27939000D01*
X167640000Y-27939000D02*
X167513000Y-27812000D01*
%TO.N,/GPIO20*%
X165100000Y-45720000D02*
X165100000Y-27813000D01*
%TO.N,IORD*%
X189719000Y-61817200D02*
X189534800Y-62001400D01*
X219989400Y-66852800D02*
X220675200Y-66852800D01*
X220675200Y-66852800D02*
X221488000Y-66040000D01*
X187960000Y-48260000D02*
X189719000Y-50019000D01*
X189719000Y-50019000D02*
X189719000Y-61817200D01*
X215392000Y-61899800D02*
X215392000Y-66751200D01*
X215392000Y-66751200D02*
X215442800Y-66802000D01*
%TO.N,IO40*%
X208625400Y-110006400D02*
X208624400Y-110007400D01*
X195920400Y-75194200D02*
X196189600Y-75463400D01*
X208625400Y-75885000D02*
X208625400Y-110006400D01*
X220929200Y-109778800D02*
X221488000Y-109220000D01*
X195920400Y-59552036D02*
X195920400Y-75194200D01*
X220421200Y-109778800D02*
X220929200Y-109778800D01*
X196831000Y-58641436D02*
X195920400Y-59552036D01*
X196831000Y-43948400D02*
X196831000Y-58641436D01*
X208000600Y-75260200D02*
X208625400Y-75885000D01*
X193040000Y-45720000D02*
X193040000Y-43815000D01*
X193040000Y-43815000D02*
X192938400Y-43713400D01*
X196672200Y-43789600D02*
X196831000Y-43948400D01*
%TO.N,INT4*%
X173971000Y-46971000D02*
X173971000Y-80383836D01*
X172720000Y-45720000D02*
X173971000Y-46971000D01*
X220192600Y-114300000D02*
X221488000Y-114300000D01*
X220116400Y-125450600D02*
X220116400Y-114376200D01*
X219633800Y-125933200D02*
X220116400Y-125450600D01*
X173971000Y-80383836D02*
X175742600Y-82155436D01*
X220116400Y-114376200D02*
X220192600Y-114300000D01*
X175742600Y-82155436D02*
X175742600Y-126111000D01*
%TO.N,GPIO8*%
X180136800Y-74218800D02*
X180136800Y-61036200D01*
X180136800Y-61036200D02*
X180289200Y-60883800D01*
X180289200Y-60883800D02*
X180340000Y-60833000D01*
X180340000Y-60833000D02*
X180340000Y-48260000D01*
%TO.N,INT3*%
X187223400Y-50773836D02*
X187223400Y-59359800D01*
X220816399Y-117972485D02*
X220816399Y-117543601D01*
X196621400Y-59842400D02*
X196621400Y-68529964D01*
X196621400Y-68529964D02*
X197978800Y-69887364D01*
X186671000Y-43694400D02*
X186671000Y-50221436D01*
X197978800Y-69887364D02*
X197978800Y-90398600D01*
X220816399Y-117543601D02*
X221520000Y-116840000D01*
X207924400Y-90576400D02*
X207924400Y-117754400D01*
X180340000Y-44069000D02*
X180746400Y-43662600D01*
X180340000Y-45720000D02*
X180340000Y-44069000D01*
X186461400Y-43484800D02*
X186671000Y-43694400D01*
X186671000Y-50221436D02*
X187223400Y-50773836D01*
%TO.N,/GPIO18*%
X225025000Y-35071000D02*
X226314000Y-33782000D01*
X160020000Y-45720000D02*
X160020000Y-46579012D01*
X215758800Y-49784000D02*
X215758800Y-37022000D01*
X224790000Y-37465000D02*
X225025000Y-37230000D01*
X225025000Y-37230000D02*
X225025000Y-35071000D01*
X160020000Y-46579012D02*
X160407920Y-46966932D01*
%TO.N,GPIO6*%
X170180000Y-70662800D02*
X170180000Y-58039000D01*
X170053000Y-70789800D02*
X170180000Y-70662800D01*
X170180000Y-58039000D02*
X170180000Y-48260000D01*
%TO.N,IOWR*%
X221411800Y-68656200D02*
X221488000Y-68580000D01*
X220116400Y-68656200D02*
X221411800Y-68656200D01*
X190500000Y-48260000D02*
X190500000Y-68550000D01*
X190500000Y-68550000D02*
X190987200Y-69037200D01*
%TO.N,/GPIO22*%
X169926000Y-45466000D02*
X169926000Y-40767000D01*
X180721000Y-40513000D02*
X181610000Y-39624000D01*
X181610000Y-39624000D02*
X181610000Y-23876000D01*
X170180000Y-45720000D02*
X169926000Y-45466000D01*
%TO.N,GPIO2*%
X183972200Y-64084200D02*
X185928000Y-66040000D01*
X183972200Y-53416200D02*
X183972200Y-64084200D01*
X160070800Y-53009800D02*
X160020000Y-52959000D01*
X160020000Y-52959000D02*
X160020000Y-48260000D01*
%TO.N,GPIO26*%
X207949800Y-38531800D02*
X207949800Y-74066400D01*
X178638200Y-97155000D02*
X178638200Y-145592800D01*
X178638200Y-145592800D02*
X178308000Y-145923000D01*
X191544000Y-143764000D02*
X192795000Y-145015000D01*
X199935000Y-145015000D02*
X204573000Y-145015000D01*
X192795000Y-145015000D02*
X197433000Y-145015000D01*
X185655000Y-145015000D02*
X190293000Y-145015000D01*
X207949800Y-74066400D02*
X209325400Y-75442000D01*
X198684000Y-143764000D02*
X199935000Y-145015000D01*
X190293000Y-145015000D02*
X191544000Y-143764000D01*
X185420000Y-45720000D02*
X185420000Y-38506400D01*
X204573000Y-145015000D02*
X205824000Y-143764000D01*
X197433000Y-145015000D02*
X198684000Y-143764000D01*
X209325400Y-75442000D02*
X209325400Y-97663000D01*
X184404000Y-143764000D02*
X185655000Y-145015000D01*
%TO.N,IO30*%
X195478400Y-45618400D02*
X195580000Y-45720000D01*
X204165200Y-42875200D02*
X203708000Y-42418000D01*
X220370400Y-106680000D02*
X219964000Y-106273600D01*
X204165200Y-106578400D02*
X204165200Y-42875200D01*
X195478400Y-43016400D02*
X195478400Y-45618400D01*
X221488000Y-106680000D02*
X220370400Y-106680000D01*
%TO.N,INT1*%
X181629000Y-46971000D02*
X182880000Y-45720000D01*
X181629000Y-125266400D02*
X181629000Y-46971000D01*
X196570600Y-124942600D02*
X196723000Y-125095000D01*
X196570600Y-116289000D02*
X196570600Y-124942600D01*
X181711600Y-125349000D02*
X181629000Y-125266400D01*
%TO.N,GPIO14*%
X189890400Y-81626782D02*
X188986182Y-82531000D01*
X189890400Y-135014658D02*
X188874400Y-136030658D01*
X188874400Y-135926600D02*
X188823600Y-135875800D01*
X189890400Y-73939400D02*
X189890400Y-81356200D01*
X181493200Y-146847600D02*
X182016400Y-147370800D01*
X181493200Y-136461000D02*
X181493200Y-146847600D01*
X195580000Y-48260000D02*
X195072000Y-48768000D01*
X189890400Y-81356200D02*
X189890400Y-81626782D01*
X188874400Y-136030658D02*
X188874400Y-135926600D01*
X187179000Y-82531000D02*
X185928000Y-81280000D01*
X181748200Y-136206000D02*
X181493200Y-136461000D01*
X181748200Y-135875800D02*
X181748200Y-136206000D01*
X195072000Y-48768000D02*
X195072000Y-74066400D01*
X188986182Y-82531000D02*
X187179000Y-82531000D01*
X189890400Y-81356200D02*
X189890400Y-135014658D01*
%TO.N,GPIO4*%
X165100000Y-68707000D02*
X165150800Y-68656200D01*
X165100000Y-55626000D02*
X165100000Y-48260000D01*
X165150800Y-55676800D02*
X165100000Y-55626000D01*
X165150800Y-68656200D02*
X165150800Y-55676800D01*
%TO.N,GPIO15*%
X197596800Y-48783200D02*
X197596800Y-67522636D01*
X183153000Y-145053000D02*
X184404000Y-146304000D01*
X206857600Y-93192600D02*
X206857600Y-115773200D01*
X193294000Y-122732800D02*
X193294000Y-127127000D01*
X201701400Y-115620800D02*
X201701400Y-122910600D01*
X199378800Y-92165400D02*
X199999600Y-92786200D01*
X197596800Y-67522636D02*
X199378800Y-69304636D01*
X199378800Y-69304636D02*
X199378800Y-79908400D01*
X201701400Y-122910600D02*
X201320400Y-123291600D01*
X199378800Y-79908400D02*
X199378800Y-92165400D01*
X198120000Y-48260000D02*
X197596800Y-48783200D01*
X206857600Y-115773200D02*
X206883000Y-115798600D01*
X193294000Y-127127000D02*
X193243200Y-127177800D01*
X183692800Y-126974600D02*
X183153000Y-127514400D01*
X183153000Y-127514400D02*
X183153000Y-145053000D01*
%TO.N,/GPIO16*%
X189057445Y-37622760D02*
X189057445Y-40467445D01*
X154940000Y-45720000D02*
X154940000Y-37084000D01*
X189057445Y-40467445D02*
X189103000Y-40513000D01*
X226568000Y-36576000D02*
X226314000Y-36322000D01*
X154940000Y-37084000D02*
X154813000Y-36957000D01*
X226568000Y-39878000D02*
X226568000Y-36576000D01*
%TO.N,/GPIO19*%
X179959000Y-38322760D02*
X179959000Y-32766000D01*
X212465910Y-32256493D02*
X212465910Y-30474910D01*
X212465910Y-30474910D02*
X212344000Y-30353000D01*
X162560000Y-45720000D02*
X162560000Y-37477200D01*
%TO.N,IO20*%
X202996800Y-47244000D02*
X203454000Y-46786800D01*
X220116400Y-104140000D02*
X220014800Y-104038400D01*
X202996800Y-104190800D02*
X202996800Y-47244000D01*
X221488000Y-104140000D02*
X220116400Y-104140000D01*
%TO.N,GPIO5*%
X169189400Y-49809400D02*
X169189400Y-57683400D01*
X221208600Y-58420000D02*
X220243400Y-57454800D01*
X167640000Y-48260000D02*
X169189400Y-49809400D01*
X169189400Y-57683400D02*
X169189400Y-69392800D01*
X221520000Y-58420000D02*
X221208600Y-58420000D01*
%TO.N,GPIO7*%
X172720000Y-55118000D02*
X172720000Y-48260000D01*
X220954600Y-60960000D02*
X220091000Y-60096400D01*
X193243200Y-59142400D02*
X193243200Y-55016400D01*
X193243200Y-55016400D02*
X193294000Y-54965600D01*
X172516800Y-72161400D02*
X172720000Y-71958200D01*
X172720000Y-71958200D02*
X172720000Y-55118000D01*
X221488000Y-60960000D02*
X220954600Y-60960000D01*
%TO.N,GPIO0*%
X185928000Y-63500000D02*
X186156600Y-63271400D01*
X186156600Y-63271400D02*
X186156600Y-50698400D01*
X154711400Y-48488600D02*
X154940000Y-48260000D01*
X154711400Y-50698400D02*
X154711400Y-48488600D01*
%TO.N,GPIO44*%
X190500000Y-22720000D02*
X191751000Y-23971000D01*
X197967600Y-117551200D02*
X198475600Y-118059200D01*
X191751000Y-23971000D02*
X191751000Y-29584600D01*
X191751000Y-29584600D02*
X191312800Y-30022800D01*
X197967600Y-91744800D02*
X197967600Y-117551200D01*
X207187800Y-29845000D02*
X207187800Y-91186000D01*
X207187800Y-91186000D02*
X206933800Y-91440000D01*
%TO.N,GPIO39*%
X184131000Y-52266036D02*
X182702200Y-53694836D01*
X185248600Y-113011000D02*
X187217000Y-113011000D01*
X178206400Y-80416400D02*
X177673000Y-80949800D01*
X184131000Y-42627600D02*
X184131000Y-52266036D01*
X184937400Y-112699800D02*
X185248600Y-113011000D01*
X220804000Y-85660000D02*
X221504000Y-86360000D01*
X173971000Y-23971000D02*
X173971000Y-42208400D01*
X220091000Y-85660000D02*
X220804000Y-85660000D01*
X215112600Y-110744000D02*
X214172800Y-109804200D01*
X183972200Y-42468800D02*
X184131000Y-42627600D01*
X172720000Y-22720000D02*
X173971000Y-23971000D01*
X187217000Y-113011000D02*
X188468000Y-111760000D01*
X173971000Y-42208400D02*
X173913800Y-42265600D01*
X214172800Y-109804200D02*
X214172800Y-85660000D01*
X177673000Y-80949800D02*
X177673000Y-111760000D01*
X182702200Y-53694836D02*
X182702200Y-80492600D01*
%TO.N,GPIO47*%
X219024200Y-96342200D02*
X219202000Y-96520000D01*
X219024200Y-120319800D02*
X218135200Y-121208800D01*
X199371000Y-23971000D02*
X199371000Y-34258200D01*
X219024200Y-96342200D02*
X219024200Y-120319800D01*
X219024200Y-35407600D02*
X219024200Y-96342200D01*
X199371000Y-34258200D02*
X198755000Y-34874200D01*
X219202000Y-96520000D02*
X221520000Y-96520000D01*
X198120000Y-22720000D02*
X199371000Y-23971000D01*
%TO.N,GPIO43*%
X217474800Y-29514800D02*
X217474800Y-90689200D01*
X187960000Y-22720000D02*
X189211000Y-23971000D01*
X217449400Y-90816200D02*
X217525600Y-90740000D01*
X219989400Y-90740000D02*
X220804000Y-90740000D01*
X217449400Y-113512600D02*
X217449400Y-90816200D01*
X189211000Y-28860800D02*
X189484000Y-29133800D01*
X220804000Y-90740000D02*
X221504000Y-91440000D01*
X193624200Y-116967000D02*
X193624200Y-114071400D01*
X193624200Y-114071400D02*
X193751200Y-113944400D01*
X217474800Y-90689200D02*
X217525600Y-90740000D01*
X189211000Y-23971000D02*
X189211000Y-28860800D01*
%TO.N,GPIO37*%
X168929000Y-46238182D02*
X169661818Y-46971000D01*
X213283800Y-84988400D02*
X213614000Y-84658200D01*
X171431000Y-47741818D02*
X171431000Y-82923836D01*
X171145200Y-108700800D02*
X171613600Y-109169200D01*
X185324260Y-110427479D02*
X185367781Y-110471000D01*
X220804000Y-84520000D02*
X221504000Y-83820000D01*
X171145200Y-83209636D02*
X171145200Y-108700800D01*
X213283800Y-108712000D02*
X213283800Y-84988400D01*
X171431000Y-82923836D02*
X171145200Y-83209636D01*
X167640000Y-22720000D02*
X168929000Y-24009000D01*
X220091000Y-84520000D02*
X220804000Y-84520000D01*
X170660182Y-46971000D02*
X171431000Y-47741818D01*
X185367781Y-110471000D02*
X187217000Y-110471000D01*
X187217000Y-110471000D02*
X188468000Y-109220000D01*
X169661818Y-46971000D02*
X170660182Y-46971000D01*
X168929000Y-24009000D02*
X168929000Y-46238182D01*
%TO.N,GPIO38*%
X184725919Y-111760000D02*
X185928000Y-111760000D01*
X183631800Y-110665881D02*
X184725919Y-111760000D01*
X195202000Y-83667600D02*
X195202000Y-110410800D01*
X183631800Y-83911400D02*
X183631800Y-110665881D01*
X170180000Y-22720000D02*
X171431000Y-23971000D01*
X176511000Y-44024600D02*
X176511000Y-83496200D01*
X176453800Y-43967400D02*
X176511000Y-44024600D01*
X171431000Y-43173600D02*
X170637200Y-43967400D01*
X171431000Y-23971000D02*
X171431000Y-43173600D01*
X195202000Y-110410800D02*
X195021200Y-110591600D01*
X183540400Y-83820000D02*
X183631800Y-83911400D01*
X176511000Y-83496200D02*
X176809400Y-83794600D01*
%TO.N,GPIO46*%
X199176600Y-94387400D02*
X199176600Y-120152200D01*
X198667600Y-93878400D02*
X199176600Y-94387400D01*
X198678800Y-69596000D02*
X198678800Y-93867200D01*
X198678800Y-93867200D02*
X198667600Y-93878400D01*
X194329000Y-23971000D02*
X194329000Y-69399200D01*
X199176600Y-120152200D02*
X198628000Y-120700800D01*
X195580000Y-22720000D02*
X194329000Y-23971000D01*
X194329000Y-69399200D02*
X194183000Y-69545200D01*
%TO.N,GPIO36*%
X166351000Y-80410000D02*
X165989000Y-80772000D01*
X165100000Y-22720000D02*
X166351000Y-23971000D01*
X194502000Y-90220800D02*
X194502000Y-108164400D01*
X194502000Y-108164400D02*
X194360800Y-108305600D01*
X166351000Y-23971000D02*
X166351000Y-80410000D01*
X194502000Y-81381600D02*
X194502000Y-90220800D01*
X182829200Y-90246200D02*
X182930800Y-90347800D01*
X182829200Y-81432400D02*
X182829200Y-90246200D01*
%TO.N,GPIO33*%
X180340000Y-77882800D02*
X180771800Y-77451000D01*
X157480000Y-22720000D02*
X158731000Y-23971000D01*
X158731000Y-77108000D02*
X158419800Y-77419200D01*
X219913200Y-77800200D02*
X220564200Y-77800200D01*
X220564200Y-77800200D02*
X221504000Y-78740000D01*
X180340000Y-105257600D02*
X180340000Y-77882800D01*
X158731000Y-23971000D02*
X158731000Y-77108000D01*
%TO.N,GPIO32*%
X193090800Y-75895200D02*
X193090800Y-102768400D01*
X156191000Y-75749200D02*
X156286200Y-75844400D01*
X193090800Y-102768400D02*
X192989200Y-102870000D01*
X154940000Y-22720000D02*
X156191000Y-23971000D01*
X156191000Y-23971000D02*
X156191000Y-75749200D01*
%TO.N,GPIO40*%
X195902000Y-86309200D02*
X195902000Y-112488400D01*
X180340000Y-22720000D02*
X179089000Y-23971000D01*
X195902000Y-112488400D02*
X196240400Y-112826800D01*
X179089000Y-85960000D02*
X178765200Y-86283800D01*
X179089000Y-23971000D02*
X179089000Y-85960000D01*
%TO.N,GPIO42*%
X186709000Y-31642000D02*
X186918600Y-31851600D01*
X191687200Y-48762858D02*
X191687200Y-88902600D01*
X191789000Y-33839200D02*
X191789000Y-48661058D01*
X191789000Y-48661058D02*
X191687200Y-48762858D01*
X186709000Y-24009000D02*
X186709000Y-31642000D01*
X197256400Y-89509600D02*
X197256400Y-115671600D01*
X191687200Y-88902600D02*
X191588200Y-89001600D01*
X185420000Y-22720000D02*
X186709000Y-24009000D01*
X193573400Y-32054800D02*
X191789000Y-33839200D01*
X196646800Y-88900000D02*
X197256400Y-89509600D01*
%TO.N,GPIO35*%
X163811000Y-59732014D02*
X164236400Y-60157414D01*
X164236400Y-80314800D02*
X164642800Y-80721200D01*
X215061800Y-106973600D02*
X214985600Y-106897400D01*
X214299800Y-82042000D02*
X214299800Y-80656200D01*
X164236400Y-60157414D02*
X164236400Y-80314800D01*
X214985600Y-106897400D02*
X214985600Y-80568800D01*
X162560000Y-22720000D02*
X163811000Y-23971000D01*
X214299800Y-80656200D02*
X214223600Y-80580000D01*
X220335600Y-80111600D02*
X221504000Y-81280000D01*
X219786200Y-80111600D02*
X220335600Y-80111600D01*
X163811000Y-23971000D02*
X163811000Y-59732014D01*
%TO.N,GPIO34*%
X193802000Y-78536800D02*
X193802000Y-105359200D01*
X160020000Y-22720000D02*
X161271000Y-23971000D01*
X161271000Y-23971000D02*
X161271000Y-78106600D01*
X161271000Y-78106600D02*
X161315400Y-78151000D01*
%TO.N,GPIO45*%
X196098182Y-21469000D02*
X196831000Y-22201818D01*
X218211400Y-93229200D02*
X218324200Y-93116400D01*
X196831000Y-22201818D02*
X196831000Y-33572400D01*
X193040000Y-22720000D02*
X194291000Y-21469000D01*
X219125036Y-34315400D02*
X218324200Y-35116236D01*
X218324200Y-35116236D02*
X218324200Y-93116400D01*
X220091000Y-34315400D02*
X219125036Y-34315400D01*
X196831000Y-33572400D02*
X196519800Y-33883600D01*
X220091000Y-93014800D02*
X220538800Y-93014800D01*
X194291000Y-21469000D02*
X196098182Y-21469000D01*
X220538800Y-93014800D02*
X221504000Y-93980000D01*
X218211400Y-118680000D02*
X218211400Y-93229200D01*
%TO.N,GPIO41*%
X216458800Y-87618800D02*
X216774800Y-87934800D01*
X216433400Y-88276200D02*
X216774800Y-87934800D01*
X220294200Y-87807800D02*
X220411800Y-87807800D01*
X216433400Y-114644400D02*
X216433400Y-88276200D01*
X220411800Y-87807800D02*
X221504000Y-88900000D01*
X184131000Y-27692400D02*
X184251600Y-27813000D01*
X216458800Y-27889200D02*
X216458800Y-87618800D01*
X184131000Y-23971000D02*
X184131000Y-27692400D01*
X182880000Y-22720000D02*
X184131000Y-23971000D01*
%TO.N,DREQ2*%
X221520000Y-124460000D02*
X221520000Y-125088400D01*
X221520000Y-125088400D02*
X220903800Y-125704600D01*
X213029800Y-125411000D02*
X212964000Y-125476800D01*
X212964000Y-125476800D02*
X212964000Y-138684000D01*
%TO.N,DREQ3*%
X219024200Y-127711200D02*
X219735400Y-127000000D01*
X219024200Y-138531600D02*
X219024200Y-127711200D01*
X219735400Y-127000000D02*
X221520000Y-127000000D01*
%TO.N,DACK2*%
X211713000Y-125421200D02*
X211713000Y-139973000D01*
X212775800Y-124358400D02*
X211713000Y-125421200D01*
X211713000Y-139973000D02*
X212964000Y-141224000D01*
%TO.N,DACK3*%
X214253000Y-128570800D02*
X214253000Y-139973000D01*
X215569800Y-127254000D02*
X214253000Y-128570800D01*
X214253000Y-139973000D02*
X215504000Y-141224000D01*
%TO.N,DREQ0*%
X205689200Y-138549200D02*
X205824000Y-138684000D01*
X221520000Y-119380000D02*
X221520000Y-119808884D01*
X209042000Y-134772400D02*
X208483200Y-135331200D01*
X205689200Y-135102600D02*
X205689200Y-138549200D01*
X221520000Y-119808884D02*
X220816399Y-120512485D01*
X209042000Y-120442800D02*
X209042000Y-134772400D01*
%TO.N,DACK1*%
X207113000Y-123061600D02*
X207113000Y-139973000D01*
X208330800Y-121843800D02*
X207113000Y-123061600D01*
X207113000Y-139973000D02*
X208364000Y-141224000D01*
%TO.N,DACK0*%
X204378600Y-139778600D02*
X205824000Y-141224000D01*
X204378600Y-120041400D02*
X204378600Y-139778600D01*
X204582800Y-119837200D02*
X204378600Y-120041400D01*
%TO.N,DREQ1*%
X207782200Y-138102200D02*
X208364000Y-138684000D01*
X221520000Y-121920000D02*
X221520000Y-122935600D01*
X221520000Y-122935600D02*
X221335600Y-123120000D01*
X208254600Y-123393200D02*
X207782200Y-123865600D01*
X207782200Y-123865600D02*
X207782200Y-138102200D01*
%TO.N,EOF*%
X200710800Y-112115600D02*
X202475000Y-113879800D01*
X202475000Y-113879800D02*
X202475000Y-139973000D01*
X202475000Y-139973000D02*
X201224000Y-141224000D01*
X221488000Y-111760000D02*
X220294200Y-111760000D01*
%TO.N,BOUT*%
X200536000Y-125173800D02*
X200635000Y-125272800D01*
X211556600Y-111887000D02*
X210794600Y-112649000D01*
X203504800Y-119888000D02*
X203276200Y-120116600D01*
X200635000Y-121005600D02*
X200536000Y-121104600D01*
X198043800Y-125095000D02*
X198684000Y-125735200D01*
X220751400Y-73660000D02*
X220014800Y-74396600D01*
X200536000Y-121104600D02*
X200536000Y-125173800D01*
X198684000Y-125735200D02*
X198684000Y-138684000D01*
X203504800Y-112598200D02*
X203504800Y-119888000D01*
X221488000Y-73660000D02*
X220751400Y-73660000D01*
X211556600Y-74396600D02*
X211556600Y-111887000D01*
%TO.N,TC*%
X199935000Y-96557000D02*
X199935000Y-139973000D01*
X199935000Y-139973000D02*
X198684000Y-141224000D01*
X199898000Y-96520000D02*
X199935000Y-96557000D01*
%TO.N,BIN*%
X213730800Y-126837400D02*
X213766400Y-126873000D01*
X212547200Y-71526400D02*
X212547200Y-123138436D01*
X220395800Y-71120000D02*
X220243400Y-70967600D01*
X213730800Y-124322036D02*
X213730800Y-126837400D01*
X221488000Y-71120000D02*
X220395800Y-71120000D01*
X201447400Y-127127000D02*
X201224000Y-127350400D01*
X201224000Y-127350400D02*
X201224000Y-138684000D01*
X212547200Y-123138436D02*
X213730800Y-124322036D01*
X213106000Y-70967600D02*
X212547200Y-71526400D01*
%TO.N,READY*%
X208550800Y-44001400D02*
X208550800Y-73456800D01*
X190293000Y-139973000D02*
X191544000Y-141224000D01*
X210026400Y-134270600D02*
X209931000Y-134366000D01*
X190293000Y-135462000D02*
X190293000Y-139973000D01*
X210026400Y-75790942D02*
X210026400Y-134270600D01*
X209926400Y-74832400D02*
X209926400Y-75690942D01*
X208550800Y-73456800D02*
X209926400Y-74832400D01*
X208661000Y-43891200D02*
X208550800Y-44001400D01*
X221030800Y-43180000D02*
X220116400Y-44094400D01*
X209926400Y-75690942D02*
X210026400Y-75790942D01*
X191465200Y-134289800D02*
X190293000Y-135462000D01*
X221488000Y-43180000D02*
X221030800Y-43180000D01*
%TO.N,HLDACK*%
X180929000Y-107619800D02*
X180929000Y-136037600D01*
X177825400Y-79527400D02*
X177749200Y-79603600D01*
X180929000Y-136037600D02*
X180416200Y-136550400D01*
X177825400Y-64363600D02*
X177825400Y-79527400D01*
X183819800Y-79883000D02*
X184677000Y-80740200D01*
X184677000Y-106924163D02*
X184613518Y-106987645D01*
X184677000Y-80740200D02*
X184677000Y-106924163D01*
X221488000Y-63500000D02*
X221216023Y-63500000D01*
X221216023Y-63500000D02*
X220473913Y-62757890D01*
%TO.N,RESET*%
X220370400Y-40640000D02*
X220040200Y-40970200D01*
X193827400Y-132613400D02*
X194084000Y-132870000D01*
X194084000Y-132870000D02*
X194084000Y-138684000D01*
X205282800Y-40716200D02*
X205282800Y-132232400D01*
X205282800Y-132232400D02*
X205079600Y-132435600D01*
X221488000Y-40640000D02*
X220370400Y-40640000D01*
%TO.N,WAIT*%
X192833000Y-134141200D02*
X192833000Y-139973000D01*
X192833000Y-139973000D02*
X194084000Y-141224000D01*
X205982800Y-133056400D02*
X205968600Y-133070600D01*
X205982800Y-43129200D02*
X205982800Y-133056400D01*
X193319400Y-133654800D02*
X192833000Y-134141200D01*
%TO.N,REF*%
X182448200Y-100279200D02*
X182448200Y-138328400D01*
X182448200Y-138328400D02*
X182194200Y-138582400D01*
X221520000Y-99060000D02*
X220765600Y-99060000D01*
X220765600Y-99060000D02*
X220065600Y-99760000D01*
%TO.N,LED2*%
X171881800Y-103301800D02*
X173990000Y-105410000D01*
X171881800Y-83464400D02*
X171881800Y-103301800D01*
%TO.N,LED4*%
X168910000Y-113030000D02*
X168910000Y-110490000D01*
%TO.N,LED6*%
X168148000Y-115798600D02*
X168249600Y-115900200D01*
X168325800Y-89865200D02*
X168619636Y-90159036D01*
X168619636Y-109789000D02*
X168148000Y-110260636D01*
X168148000Y-110260636D02*
X168148000Y-115798600D01*
X168619636Y-90159036D02*
X168619636Y-109789000D01*
%TO.N,LED7*%
X166801800Y-117983000D02*
X166979600Y-118160800D01*
X166801800Y-96951800D02*
X166801800Y-117983000D01*
%TO.N,LED3*%
X171602400Y-139268200D02*
X172313600Y-138557000D01*
X172313600Y-108026200D02*
X172567600Y-108026200D01*
X172567600Y-108026200D02*
X172643800Y-107950000D01*
X172643800Y-107950000D02*
X173990000Y-107950000D01*
X172313600Y-138557000D02*
X172313600Y-108026200D01*
%TO.N,LED5*%
X171170600Y-130505200D02*
X171170600Y-113473000D01*
X171170600Y-113473000D02*
X170880000Y-113182400D01*
%TO.N,LED0*%
X167640000Y-105410000D02*
X167640000Y-100330000D01*
%TO.N,LED1*%
X170180000Y-121920000D02*
X170180000Y-102870000D01*
%TO.N,Net-(J2-{slash}A15)*%
X223645000Y-96645000D02*
X223520000Y-96520000D01*
X239750000Y-96645000D02*
X223645000Y-96645000D01*
%TO.N,Net-(J2-{slash}A7)*%
X223629000Y-86485000D02*
X223504000Y-86360000D01*
X239750000Y-86485000D02*
X223629000Y-86485000D01*
%TO.N,Net-(J2-{slash}A5)*%
X223629000Y-83945000D02*
X223504000Y-83820000D01*
X239750000Y-83945000D02*
X223629000Y-83945000D01*
%TO.N,Net-(J2-{slash}A3)*%
X223629000Y-81405000D02*
X223504000Y-81280000D01*
X239750000Y-81405000D02*
X223629000Y-81405000D01*
%TO.N,Net-(J2-{slash}A1)*%
X223629000Y-78865000D02*
X223504000Y-78740000D01*
X239750000Y-78865000D02*
X223629000Y-78865000D01*
%TO.N,Net-(J2-{slash}DB7)*%
X239750000Y-61085000D02*
X223613000Y-61085000D01*
X223613000Y-61085000D02*
X223488000Y-60960000D01*
%TO.N,Net-(J2-{slash}DB5)*%
X239750000Y-58545000D02*
X223645000Y-58545000D01*
X223645000Y-58545000D02*
X223520000Y-58420000D01*
%TO.N,Net-(J2-{slash}DB3)*%
X223645000Y-56005000D02*
X223520000Y-55880000D01*
X239750000Y-56005000D02*
X223645000Y-56005000D01*
%TO.N,Net-(J2-{slash}DB1)*%
X223613000Y-53465000D02*
X223488000Y-53340000D01*
X239750000Y-53465000D02*
X223613000Y-53465000D01*
%TO.N,Net-(J2-{slash}BIN)*%
X223613000Y-71245000D02*
X223488000Y-71120000D01*
X239750000Y-71245000D02*
X223613000Y-71245000D01*
%TO.N,Net-(J2-{slash}BOUT)*%
X239750000Y-73785000D02*
X223613000Y-73785000D01*
X223613000Y-73785000D02*
X223488000Y-73660000D01*
%TO.N,Net-(J2-{slash}IO20)*%
X239750000Y-104265000D02*
X223613000Y-104265000D01*
X223613000Y-104265000D02*
X223488000Y-104140000D01*
%TO.N,Net-(J2-{slash}IO30)*%
X223613000Y-106805000D02*
X223488000Y-106680000D01*
X239750000Y-106805000D02*
X223613000Y-106805000D01*
%TO.N,Net-(J2-{slash}IORD)*%
X239750000Y-66165000D02*
X223613000Y-66165000D01*
X223613000Y-66165000D02*
X223488000Y-66040000D01*
%TO.N,Net-(J2-{slash}IO40)*%
X239750000Y-109345000D02*
X223613000Y-109345000D01*
X223613000Y-109345000D02*
X223488000Y-109220000D01*
%TO.N,Net-(J2-{slash}A13)*%
X239750000Y-94105000D02*
X223629000Y-94105000D01*
X223629000Y-94105000D02*
X223504000Y-93980000D01*
%TO.N,Net-(J2-{slash}A11)*%
X239750000Y-91565000D02*
X223629000Y-91565000D01*
X223629000Y-91565000D02*
X223504000Y-91440000D01*
%TO.N,Net-(J2-{slash}A9)*%
X239750000Y-89025000D02*
X223629000Y-89025000D01*
X223629000Y-89025000D02*
X223504000Y-88900000D01*
%TO.N,Net-(J2-PHI2)*%
X223645000Y-129665000D02*
X223520000Y-129540000D01*
X239750000Y-129665000D02*
X223645000Y-129665000D01*
%TO.N,Net-(J2-{slash}IOWR)*%
X223613000Y-68705000D02*
X223488000Y-68580000D01*
X239750000Y-68705000D02*
X223613000Y-68705000D01*
%TO.N,Net-(J2-{slash}DREQ3)*%
X223645000Y-127125000D02*
X223520000Y-127000000D01*
X239750000Y-127125000D02*
X223645000Y-127125000D01*
%TO.N,Net-(J2-{slash}DREQ2)*%
X239750000Y-124585000D02*
X223645000Y-124585000D01*
X223645000Y-124585000D02*
X223520000Y-124460000D01*
%TO.N,Net-(J2-{slash}DREQ1)*%
X239750000Y-122045000D02*
X223645000Y-122045000D01*
X223645000Y-122045000D02*
X223520000Y-121920000D01*
%TO.N,Net-(J2-{slash}DREQ0)*%
X223645000Y-119505000D02*
X223520000Y-119380000D01*
X239750000Y-119505000D02*
X223645000Y-119505000D01*
%TO.N,Net-(J2-{slash}INT3)*%
X239750000Y-116965000D02*
X223645000Y-116965000D01*
X223645000Y-116965000D02*
X223520000Y-116840000D01*
%TO.N,Net-(J2-{slash}INTERRUPT4)*%
X239750000Y-114425000D02*
X223613000Y-114425000D01*
X223613000Y-114425000D02*
X223488000Y-114300000D01*
%TO.N,Net-(J2-{slash}EOF)*%
X223613000Y-111885000D02*
X223488000Y-111760000D01*
X239750000Y-111885000D02*
X223613000Y-111885000D01*
%TO.N,Net-(J2-{slash}RESET)*%
X239750000Y-40765000D02*
X223613000Y-40765000D01*
X223613000Y-40765000D02*
X223488000Y-40640000D01*
%TO.N,Net-(J2-READY)*%
X239750000Y-43305000D02*
X223613000Y-43305000D01*
X223613000Y-43305000D02*
X223488000Y-43180000D01*
%TO.N,Net-(J2-{slash}REF)*%
X239750000Y-99185000D02*
X223645000Y-99185000D01*
X223645000Y-99185000D02*
X223520000Y-99060000D01*
%TO.N,Net-(J2-{slash}HLDAK)*%
X239750000Y-63625000D02*
X223613000Y-63625000D01*
X223613000Y-63625000D02*
X223488000Y-63500000D01*
%TO.N,SD_DAT1*%
X147447000Y-61214000D02*
X147066000Y-60833000D01*
X218186000Y-33183600D02*
X218186000Y-28702000D01*
X147066000Y-60833000D02*
X147066000Y-32131000D01*
%TO.N,SD_DAT2*%
X209296000Y-68848200D02*
X209296000Y-45212000D01*
X179532241Y-86511071D02*
X179532241Y-92602241D01*
X209804000Y-69356200D02*
X209296000Y-68848200D01*
X161971000Y-69723000D02*
X162016400Y-69768400D01*
X179532241Y-92602241D02*
X179640000Y-92710000D01*
X162016400Y-69768400D02*
X162016400Y-84998600D01*
X209296000Y-45212000D02*
X209362000Y-45146000D01*
X196977000Y-87249000D02*
X196977000Y-70245200D01*
X196850000Y-87376000D02*
X196977000Y-87249000D01*
X162016400Y-84998600D02*
X161798000Y-85217000D01*
X209362000Y-26355000D02*
X209169000Y-26162000D01*
X190590400Y-92837000D02*
X190590400Y-87376000D01*
X209362000Y-45146000D02*
X209362000Y-26355000D01*
%TO.N,MISO_DO*%
X159766000Y-34166236D02*
X159893000Y-34293236D01*
X159766000Y-32258000D02*
X159766000Y-34166236D01*
X146431000Y-33274000D02*
X146177000Y-33020000D01*
X146465000Y-33308000D02*
X146431000Y-33274000D01*
X146465000Y-45466000D02*
X146465000Y-33308000D01*
X146465000Y-62958000D02*
X146465000Y-45466000D01*
X191089000Y-34293236D02*
X191089000Y-36622000D01*
X146304000Y-63119000D02*
X146465000Y-62958000D01*
X191089000Y-36622000D02*
X191008000Y-36703000D01*
X146177000Y-33020000D02*
X146177000Y-31369000D01*
%TO.N,SD_SS*%
X173212800Y-43037800D02*
X173212800Y-36891400D01*
X154351000Y-68834000D02*
X154305000Y-68788000D01*
X154305000Y-68788000D02*
X154305000Y-51558000D01*
X154305000Y-51558000D02*
X154351000Y-51512000D01*
X173212800Y-36891400D02*
X173228000Y-36876200D01*
X213995000Y-37022000D02*
X213995000Y-23622000D01*
X173228000Y-43053000D02*
X173212800Y-43037800D01*
%TO.N,SD_CLK*%
X148148000Y-65085000D02*
X148148000Y-57403985D01*
X149007400Y-56544585D02*
X149007400Y-34417000D01*
X213233000Y-35574200D02*
X213233000Y-32483600D01*
X147955000Y-65278000D02*
X148148000Y-65085000D01*
X148148000Y-57403985D02*
X149007400Y-56544585D01*
%TO.N,MOSI_DI*%
X155590000Y-67041000D02*
X155590000Y-52212000D01*
X189865000Y-36449000D02*
X189865000Y-31354800D01*
X155575000Y-52197000D02*
X155560000Y-52212000D01*
X155194000Y-67437000D02*
X155590000Y-67041000D01*
X149707400Y-52197000D02*
X149707400Y-36195000D01*
X155590000Y-52212000D02*
X155575000Y-52197000D01*
X155560000Y-52212000D02*
X155491000Y-52212000D01*
%TD*%
M02*
