%TF.GenerationSoftware,KiCad,Pcbnew,9.0.6-1.fc43*%
%TF.CreationDate,2026-03-29T08:32:45+01:00*%
%TF.ProjectId,cptrep-diag-card,63707472-6570-42d6-9469-61672d636172,rev?*%
%TF.SameCoordinates,Original*%
%TF.FileFunction,Copper,L1,Top*%
%TF.FilePolarity,Positive*%
%FSLAX46Y46*%
G04 Gerber Fmt 4.6, Leading zero omitted, Abs format (unit mm)*
G04 Created by KiCad (PCBNEW 9.0.6-1.fc43) date 2026-03-29 08:32:45*
%MOMM*%
%LPD*%
G01*
G04 APERTURE LIST*
G04 Aperture macros list*
%AMRoundRect*
0 Rectangle with rounded corners*
0 $1 Rounding radius*
0 $2 $3 $4 $5 $6 $7 $8 $9 X,Y pos of 4 corners*
0 Add a 4 corners polygon primitive as box body*
4,1,4,$2,$3,$4,$5,$6,$7,$8,$9,$2,$3,0*
0 Add four circle primitives for the rounded corners*
1,1,$1+$1,$2,$3*
1,1,$1+$1,$4,$5*
1,1,$1+$1,$6,$7*
1,1,$1+$1,$8,$9*
0 Add four rect primitives between the rounded corners*
20,1,$1+$1,$2,$3,$4,$5,0*
20,1,$1+$1,$4,$5,$6,$7,0*
20,1,$1+$1,$6,$7,$8,$9,0*
20,1,$1+$1,$8,$9,$2,$3,0*%
G04 Aperture macros list end*
%TA.AperFunction,SMDPad,CuDef*%
%ADD10RoundRect,0.250000X-0.350000X-0.450000X0.350000X-0.450000X0.350000X0.450000X-0.350000X0.450000X0*%
%TD*%
%TA.AperFunction,SMDPad,CuDef*%
%ADD11RoundRect,0.243750X0.243750X0.456250X-0.243750X0.456250X-0.243750X-0.456250X0.243750X-0.456250X0*%
%TD*%
%TA.AperFunction,SMDPad,CuDef*%
%ADD12RoundRect,0.250000X-0.262500X-0.450000X0.262500X-0.450000X0.262500X0.450000X-0.262500X0.450000X0*%
%TD*%
%TA.AperFunction,ComponentPad*%
%ADD13R,1.700000X1.700000*%
%TD*%
%TA.AperFunction,ComponentPad*%
%ADD14C,1.700000*%
%TD*%
%TA.AperFunction,SMDPad,CuDef*%
%ADD15RoundRect,0.150000X0.587500X0.150000X-0.587500X0.150000X-0.587500X-0.150000X0.587500X-0.150000X0*%
%TD*%
%TA.AperFunction,SMDPad,CuDef*%
%ADD16R,1.600000X0.700000*%
%TD*%
%TA.AperFunction,SMDPad,CuDef*%
%ADD17R,1.400000X1.200000*%
%TD*%
%TA.AperFunction,SMDPad,CuDef*%
%ADD18R,2.200000X1.200000*%
%TD*%
%TA.AperFunction,SMDPad,CuDef*%
%ADD19R,1.400000X1.600000*%
%TD*%
%TA.AperFunction,SMDPad,CuDef*%
%ADD20RoundRect,0.300000X-3.700000X-0.700000X3.700000X-0.700000X3.700000X0.700000X-3.700000X0.700000X0*%
%TD*%
%TA.AperFunction,SMDPad,CuDef*%
%ADD21RoundRect,0.225000X-0.225000X-0.375000X0.225000X-0.375000X0.225000X0.375000X-0.225000X0.375000X0*%
%TD*%
%TA.AperFunction,ViaPad*%
%ADD22C,0.600000*%
%TD*%
%TA.AperFunction,Conductor*%
%ADD23C,0.800000*%
%TD*%
%TA.AperFunction,Conductor*%
%ADD24C,0.400000*%
%TD*%
G04 APERTURE END LIST*
D10*
%TO.P,R17,1*%
%TO.N,GPIO2*%
X221520000Y-53340000D03*
%TO.P,R17,2*%
%TO.N,Net-(J2-{slash}DB2)*%
X223520000Y-53340000D03*
%TD*%
%TO.P,R36,1*%
%TO.N,IO60*%
X221520000Y-101600000D03*
%TO.P,R36,2*%
%TO.N,Net-(J2-{slash}IO60)*%
X223520000Y-101600000D03*
%TD*%
D11*
%TO.P,D3,1,K*%
%TO.N,Net-(D3-K)*%
X151130000Y-88530000D03*
%TO.P,D3,2,A*%
%TO.N,Net-(D3-A)*%
X149255000Y-88530000D03*
%TD*%
%TO.P,D2,1,K*%
%TO.N,Net-(D2-K)*%
X151130000Y-81280000D03*
%TO.P,D2,2,A*%
%TO.N,Net-(D2-A)*%
X149255000Y-81280000D03*
%TD*%
D12*
%TO.P,R61,1*%
%TO.N,Net-(D6-A)*%
X160377500Y-111760000D03*
%TO.P,R61,2*%
%TO.N,+5V*%
X162202500Y-111760000D03*
%TD*%
%TO.P,R59,1*%
%TO.N,Net-(D5-A)*%
X160377500Y-104140000D03*
%TO.P,R59,2*%
%TO.N,+5V*%
X162202500Y-104140000D03*
%TD*%
D10*
%TO.P,R52,1*%
%TO.N,WAIT*%
X221520000Y-43180000D03*
%TO.P,R52,2*%
%TO.N,Net-(J2-{slash}WAIT)*%
X223520000Y-43180000D03*
%TD*%
%TO.P,R13,1*%
%TO.N,GPIO6*%
X221520000Y-58420000D03*
%TO.P,R13,2*%
%TO.N,Net-(J2-{slash}DB6)*%
X223520000Y-58420000D03*
%TD*%
D11*
%TO.P,D4,1,K*%
%TO.N,Net-(D4-K)*%
X151130000Y-96150000D03*
%TO.P,D4,2,A*%
%TO.N,Net-(D4-A)*%
X149255000Y-96150000D03*
%TD*%
D13*
%TO.P,J9,1,Pin_1*%
%TO.N,GPIO0*%
X185928000Y-63500000D03*
D14*
%TO.P,J9,2,Pin_2*%
%TO.N,GPIO1*%
X188468000Y-63500000D03*
%TO.P,J9,3,Pin_3*%
%TO.N,GPIO2*%
X185928000Y-66040000D03*
%TO.P,J9,4,Pin_4*%
%TO.N,GPIO3*%
X188468000Y-66040000D03*
%TO.P,J9,5,Pin_5*%
%TO.N,GPIO4*%
X185928000Y-68580000D03*
%TO.P,J9,6,Pin_6*%
%TO.N,GPIO5*%
X188468000Y-68580000D03*
%TO.P,J9,7,Pin_7*%
%TO.N,GPIO6*%
X185928000Y-71120000D03*
%TO.P,J9,8,Pin_8*%
%TO.N,GPIO7*%
X188468000Y-71120000D03*
%TO.P,J9,9,Pin_9*%
%TO.N,GPIO8*%
X185928000Y-73660000D03*
%TO.P,J9,10,Pin_10*%
%TO.N,GPIO9*%
X188468000Y-73660000D03*
%TO.P,J9,11,Pin_11*%
%TO.N,GPIO10*%
X185928000Y-76200000D03*
%TO.P,J9,12,Pin_12*%
%TO.N,GPIO11*%
X188468000Y-76200000D03*
%TO.P,J9,13,Pin_13*%
%TO.N,GPIO12*%
X185928000Y-78740000D03*
%TO.P,J9,14,Pin_14*%
%TO.N,GPIO13*%
X188468000Y-78740000D03*
%TO.P,J9,15,Pin_15*%
%TO.N,GPIO14*%
X185928000Y-81280000D03*
%TO.P,J9,16,Pin_16*%
%TO.N,GPIO15*%
X188468000Y-81280000D03*
%TO.P,J9,17,Pin_17*%
%TO.N,GPIO16*%
X185928000Y-83820000D03*
%TO.P,J9,18,Pin_18*%
%TO.N,GPIO17*%
X188468000Y-83820000D03*
%TO.P,J9,19,Pin_19*%
%TO.N,GPIO18*%
X185928000Y-86360000D03*
%TO.P,J9,20,Pin_20*%
%TO.N,GPIO19*%
X188468000Y-86360000D03*
%TO.P,J9,21,Pin_21*%
%TO.N,GPIO20*%
X185928000Y-88900000D03*
%TO.P,J9,22,Pin_22*%
%TO.N,GPIO21*%
X188468000Y-88900000D03*
%TO.P,J9,23,Pin_23*%
%TO.N,GPIO22*%
X185928000Y-91440000D03*
%TO.P,J9,24,Pin_24*%
%TO.N,GPIO23*%
X188468000Y-91440000D03*
%TO.P,J9,25,Pin_25*%
%TO.N,GPIO24*%
X185928000Y-93980000D03*
%TO.P,J9,26,Pin_26*%
%TO.N,GPIO25*%
X188468000Y-93980000D03*
%TO.P,J9,27,Pin_27*%
%TO.N,GPIO26*%
X185928000Y-96520000D03*
%TO.P,J9,28,Pin_28*%
%TO.N,GPIO27*%
X188468000Y-96520000D03*
%TO.P,J9,29,Pin_29*%
%TO.N,GPIO28*%
X185928000Y-99060000D03*
%TO.P,J9,30,Pin_30*%
%TO.N,GPIO29*%
X188468000Y-99060000D03*
%TO.P,J9,31,Pin_31*%
%TO.N,GPIO30*%
X185928000Y-101600000D03*
%TO.P,J9,32,Pin_32*%
%TO.N,GPIO31*%
X188468000Y-101600000D03*
%TO.P,J9,33,Pin_33*%
%TO.N,GPIO32*%
X185928000Y-104140000D03*
%TO.P,J9,34,Pin_34*%
%TO.N,GPIO33*%
X188468000Y-104140000D03*
%TO.P,J9,35,Pin_35*%
%TO.N,GPIO34*%
X185928000Y-106680000D03*
%TO.P,J9,36,Pin_36*%
%TO.N,GPIO35*%
X188468000Y-106680000D03*
%TO.P,J9,37,Pin_37*%
%TO.N,GPIO36*%
X185928000Y-109220000D03*
%TO.P,J9,38,Pin_38*%
%TO.N,GPIO37*%
X188468000Y-109220000D03*
%TO.P,J9,39,Pin_39*%
%TO.N,GPIO38*%
X185928000Y-111760000D03*
%TO.P,J9,40,Pin_40*%
%TO.N,GPIO39*%
X188468000Y-111760000D03*
%TO.P,J9,41,Pin_41*%
%TO.N,GPIO40*%
X185928000Y-114300000D03*
%TO.P,J9,42,Pin_42*%
%TO.N,GPIO41*%
X188468000Y-114300000D03*
%TO.P,J9,43,Pin_43*%
%TO.N,GPIO42*%
X185928000Y-116840000D03*
%TO.P,J9,44,Pin_44*%
%TO.N,GPIO43*%
X188468000Y-116840000D03*
%TO.P,J9,45,Pin_45*%
%TO.N,GPIO44*%
X185928000Y-119380000D03*
%TO.P,J9,46,Pin_46*%
%TO.N,GPIO45*%
X188468000Y-119380000D03*
%TO.P,J9,47,Pin_47*%
%TO.N,GPIO46*%
X185928000Y-121920000D03*
%TO.P,J9,48,Pin_48*%
%TO.N,GPIO47*%
X188468000Y-121920000D03*
%TD*%
D12*
%TO.P,R56,1*%
%TO.N,Net-(D2-A)*%
X160377500Y-81280000D03*
%TO.P,R56,2*%
%TO.N,+5V*%
X162202500Y-81280000D03*
%TD*%
D10*
%TO.P,R5,1*%
%TO.N,GPIO38*%
X221488000Y-83820000D03*
%TO.P,R5,2*%
%TO.N,Net-(J2-{slash}A6)*%
X223488000Y-83820000D03*
%TD*%
D15*
%TO.P,TR2,1,G*%
%TO.N,LED6*%
X156815000Y-89480000D03*
%TO.P,TR2,2,S*%
%TO.N,GND*%
X156815000Y-87580000D03*
%TO.P,TR2,3,D*%
%TO.N,Net-(D3-K)*%
X154940000Y-88530000D03*
%TD*%
D13*
%TO.P,J5,1,Pin_1*%
%TO.N,GPIO14*%
X201224000Y-146304000D03*
D14*
%TO.P,J5,2,Pin_2*%
%TO.N,GPIO15*%
X198684000Y-146304000D03*
%TO.P,J5,3,Pin_3*%
%TO.N,GPIO17*%
X201224000Y-143764000D03*
%TO.P,J5,4,Pin_4*%
%TO.N,GPIO26*%
X198684000Y-143764000D03*
%TO.P,J5,5,Pin_5*%
%TO.N,EOF*%
X201224000Y-141224000D03*
%TO.P,J5,6,Pin_6*%
%TO.N,TC*%
X198684000Y-141224000D03*
%TO.P,J5,7,Pin_7*%
%TO.N,BIN*%
X201224000Y-138684000D03*
%TO.P,J5,8,Pin_8*%
%TO.N,BOUT*%
X198684000Y-138684000D03*
%TD*%
D11*
%TO.P,D7,1,K*%
%TO.N,Net-(D7-K)*%
X151130000Y-120650000D03*
%TO.P,D7,2,A*%
%TO.N,Net-(D7-A)*%
X149255000Y-120650000D03*
%TD*%
%TO.P,D5,1,K*%
%TO.N,Net-(D5-K)*%
X151130000Y-104140000D03*
%TO.P,D5,2,A*%
%TO.N,Net-(D5-A)*%
X149255000Y-104140000D03*
%TD*%
D10*
%TO.P,R41,1*%
%TO.N,DACK3*%
X221488000Y-127000000D03*
%TO.P,R41,2*%
%TO.N,Net-(J2-{slash}DACK3)*%
X223488000Y-127000000D03*
%TD*%
D11*
%TO.P,D6,1,K*%
%TO.N,Net-(D6-K)*%
X151130000Y-111760000D03*
%TO.P,D6,2,A*%
%TO.N,Net-(D6-A)*%
X149255000Y-111760000D03*
%TD*%
D10*
%TO.P,R32,1*%
%TO.N,GPIO42*%
X221488000Y-88900000D03*
%TO.P,R32,2*%
%TO.N,Net-(J2-{slash}A10)*%
X223488000Y-88900000D03*
%TD*%
%TO.P,R40,1*%
%TO.N,DACK2*%
X221488000Y-124460000D03*
%TO.P,R40,2*%
%TO.N,Net-(J2-{slash}DACK2)*%
X223488000Y-124460000D03*
%TD*%
%TO.P,R48,1*%
%TO.N,PARITYERR*%
X221520000Y-99060000D03*
%TO.P,R48,2*%
%TO.N,Net-(J2-{slash}PARITYERROR)*%
X223520000Y-99060000D03*
%TD*%
D13*
%TO.P,EXT1,1,1*%
%TO.N,+3.3V*%
X152400000Y-45720000D03*
D14*
%TO.P,EXT1,2,2*%
X152400000Y-48260000D03*
%TO.P,EXT1,3,3*%
%TO.N,/GPIO16*%
X154940000Y-45720000D03*
%TO.P,EXT1,4,4*%
%TO.N,GPIO0*%
X154940000Y-48260000D03*
%TO.P,EXT1,5,5*%
%TO.N,GPIO17*%
X157480000Y-45720000D03*
%TO.P,EXT1,6,6*%
%TO.N,GPIO1*%
X157480000Y-48260000D03*
%TO.P,EXT1,7,7*%
%TO.N,/GPIO18*%
X160020000Y-45720000D03*
%TO.P,EXT1,8,8*%
%TO.N,GPIO2*%
X160020000Y-48260000D03*
%TO.P,EXT1,9,9*%
%TO.N,/GPIO19*%
X162560000Y-45720000D03*
%TO.P,EXT1,10,10*%
%TO.N,GPIO3*%
X162560000Y-48260000D03*
%TO.P,EXT1,11,11*%
%TO.N,/GPIO20*%
X165100000Y-45720000D03*
%TO.P,EXT1,12,12*%
%TO.N,GPIO4*%
X165100000Y-48260000D03*
%TO.P,EXT1,13,13*%
%TO.N,/GPIO21*%
X167640000Y-45720000D03*
%TO.P,EXT1,14,14*%
%TO.N,GPIO5*%
X167640000Y-48260000D03*
%TO.P,EXT1,15,15*%
%TO.N,/GPIO22*%
X170180000Y-45720000D03*
%TO.P,EXT1,16,16*%
%TO.N,GPIO6*%
X170180000Y-48260000D03*
%TO.P,EXT1,17,17*%
%TO.N,INT4*%
X172720000Y-45720000D03*
%TO.P,EXT1,18,18*%
%TO.N,GPIO7*%
X172720000Y-48260000D03*
%TO.P,EXT1,19,19*%
%TO.N,GND*%
X175260000Y-45720000D03*
%TO.P,EXT1,20,20*%
X175260000Y-48260000D03*
%TO.P,EXT1,21,21*%
%TO.N,+3.3V*%
X177800000Y-45720000D03*
%TO.P,EXT1,22,22*%
X177800000Y-48260000D03*
%TO.P,EXT1,23,23*%
%TO.N,INT3*%
X180340000Y-45720000D03*
%TO.P,EXT1,24,24*%
%TO.N,GPIO8*%
X180340000Y-48260000D03*
%TO.P,EXT1,25,25*%
%TO.N,INT1*%
X182880000Y-45720000D03*
%TO.P,EXT1,26,26*%
%TO.N,MEMWR*%
X182880000Y-48260000D03*
%TO.P,EXT1,27,27*%
%TO.N,GPIO26*%
X185420000Y-45720000D03*
%TO.P,EXT1,28,28*%
%TO.N,MEMRD*%
X185420000Y-48260000D03*
%TO.P,EXT1,29,29*%
%TO.N,PARITYERR*%
X187960000Y-45720000D03*
%TO.P,EXT1,30,30*%
%TO.N,IORD*%
X187960000Y-48260000D03*
%TO.P,EXT1,31,31*%
%TO.N,IO60*%
X190500000Y-45720000D03*
%TO.P,EXT1,32,32*%
%TO.N,IOWR*%
X190500000Y-48260000D03*
%TO.P,EXT1,33,33*%
%TO.N,IO40*%
X193040000Y-45720000D03*
%TO.P,EXT1,34,34*%
%TO.N,PHI2*%
X193040000Y-48260000D03*
%TO.P,EXT1,35,35*%
%TO.N,IO30*%
X195580000Y-45720000D03*
%TO.P,EXT1,36,36*%
%TO.N,GPIO14*%
X195580000Y-48260000D03*
%TO.P,EXT1,37,37*%
%TO.N,IO20*%
X198120000Y-45720000D03*
%TO.P,EXT1,38,38*%
%TO.N,GPIO15*%
X198120000Y-48260000D03*
%TO.P,EXT1,39,39*%
%TO.N,GND*%
X200660000Y-45720000D03*
%TO.P,EXT1,40,40*%
X200660000Y-48260000D03*
%TD*%
D15*
%TO.P,TR4,1,G*%
%TO.N,LED7*%
X156815000Y-97100000D03*
%TO.P,TR4,2,S*%
%TO.N,GND*%
X156815000Y-95200000D03*
%TO.P,TR4,3,D*%
%TO.N,Net-(D4-K)*%
X154940000Y-96150000D03*
%TD*%
D12*
%TO.P,R63,1*%
%TO.N,Net-(D8-A)*%
X160377500Y-129540000D03*
%TO.P,R63,2*%
%TO.N,+5V*%
X162202500Y-129540000D03*
%TD*%
D16*
%TO.P,XS1,1,DAT2*%
%TO.N,SD_DAT2*%
X160022000Y-69637000D03*
%TO.P,XS1,2,CS/DAT3*%
%TO.N,SD_SS*%
X160022000Y-68537000D03*
%TO.P,XS1,3,DI/CMD*%
%TO.N,MOSI_DI*%
X160022000Y-67437000D03*
%TO.P,XS1,4,Vdd*%
%TO.N,+3.3V*%
X160022000Y-66337000D03*
%TO.P,XS1,5,CLK*%
%TO.N,SD_CLK*%
X160022000Y-65237000D03*
D17*
%TO.P,XS1,6,GND*%
%TO.N,GND*%
X159522000Y-59687000D03*
D18*
X149922000Y-59687000D03*
D16*
X160022000Y-64137000D03*
D19*
X159522000Y-74287000D03*
D18*
X149922000Y-75187000D03*
D16*
%TO.P,XS1,7,DO/DAT0*%
%TO.N,MISO_DO*%
X160022000Y-63037000D03*
%TO.P,XS1,8,DAT1*%
%TO.N,SD_DAT1*%
X160022000Y-61937000D03*
%TO.P,XS1,9,CD*%
%TO.N,unconnected-(XS1-CD-Pad9)*%
X160022000Y-60837000D03*
%TD*%
D12*
%TO.P,R62,1*%
%TO.N,Net-(D7-A)*%
X160377500Y-120650000D03*
%TO.P,R62,2*%
%TO.N,+5V*%
X162202500Y-120650000D03*
%TD*%
D10*
%TO.P,R3,1*%
%TO.N,GPIO40*%
X221488000Y-86360000D03*
%TO.P,R3,2*%
%TO.N,Net-(J2-{slash}A8)*%
X223488000Y-86360000D03*
%TD*%
%TO.P,R38,1*%
%TO.N,DACK0*%
X221488000Y-119380000D03*
%TO.P,R38,2*%
%TO.N,Net-(J2-{slash}DACK0)*%
X223488000Y-119380000D03*
%TD*%
D12*
%TO.P,R58,1*%
%TO.N,Net-(D4-A)*%
X160377500Y-96150000D03*
%TO.P,R58,2*%
%TO.N,+5V*%
X162202500Y-96150000D03*
%TD*%
D13*
%TO.P,J6,1,Pin_1*%
%TO.N,GPIO14*%
X194084000Y-146304000D03*
D14*
%TO.P,J6,2,Pin_2*%
%TO.N,GPIO15*%
X191544000Y-146304000D03*
%TO.P,J6,3,Pin_3*%
%TO.N,GPIO17*%
X194084000Y-143764000D03*
%TO.P,J6,4,Pin_4*%
%TO.N,GPIO26*%
X191544000Y-143764000D03*
%TO.P,J6,5,Pin_5*%
%TO.N,WAIT*%
X194084000Y-141224000D03*
%TO.P,J6,6,Pin_6*%
%TO.N,READY*%
X191544000Y-141224000D03*
%TO.P,J6,7,Pin_7*%
%TO.N,RESET*%
X194084000Y-138684000D03*
%TO.P,J6,8,Pin_8*%
%TO.N,HLDACK*%
X191544000Y-138684000D03*
%TD*%
D15*
%TO.P,TR5,1,G*%
%TO.N,LED0*%
X156815000Y-105090000D03*
%TO.P,TR5,2,S*%
%TO.N,GND*%
X156815000Y-103190000D03*
%TO.P,TR5,3,D*%
%TO.N,Net-(D5-K)*%
X154940000Y-104140000D03*
%TD*%
%TO.P,TR1,1,G*%
%TO.N,LED2*%
X156815000Y-82230000D03*
%TO.P,TR1,2,S*%
%TO.N,GND*%
X156815000Y-80330000D03*
%TO.P,TR1,3,D*%
%TO.N,Net-(D2-K)*%
X154940000Y-81280000D03*
%TD*%
D10*
%TO.P,R15,1*%
%TO.N,GPIO4*%
X221520000Y-55880000D03*
%TO.P,R15,2*%
%TO.N,Net-(J2-{slash}DB4)*%
X223520000Y-55880000D03*
%TD*%
D13*
%TO.P,J4,1,Pin_1*%
%TO.N,GPIO14*%
X208364000Y-146304000D03*
D14*
%TO.P,J4,2,Pin_2*%
%TO.N,GPIO15*%
X205824000Y-146304000D03*
%TO.P,J4,3,Pin_3*%
%TO.N,GPIO17*%
X208364000Y-143764000D03*
%TO.P,J4,4,Pin_4*%
%TO.N,GPIO26*%
X205824000Y-143764000D03*
%TO.P,J4,5,Pin_5*%
%TO.N,DACK1*%
X208364000Y-141224000D03*
%TO.P,J4,6,Pin_6*%
%TO.N,DACK0*%
X205824000Y-141224000D03*
%TO.P,J4,7,Pin_7*%
%TO.N,DREQ1*%
X208364000Y-138684000D03*
%TO.P,J4,8,Pin_8*%
%TO.N,DREQ0*%
X205824000Y-138684000D03*
%TD*%
D10*
%TO.P,R2,1*%
%TO.N,GPIO46*%
X221488000Y-93980000D03*
%TO.P,R2,2*%
%TO.N,Net-(J2-{slash}A14)*%
X223488000Y-93980000D03*
%TD*%
%TO.P,R25,1*%
%TO.N,GPIO8*%
X221520000Y-60960000D03*
%TO.P,R25,2*%
%TO.N,Net-(J2-{slash}DB8)*%
X223520000Y-60960000D03*
%TD*%
D13*
%TO.P,EXT2,1,1*%
%TO.N,+3.3V*%
X152400000Y-22720000D03*
D14*
%TO.P,EXT2,2,2*%
%TO.N,VBUS*%
X152400000Y-25260000D03*
%TO.P,EXT2,3,3*%
%TO.N,GPIO32*%
X154940000Y-22720000D03*
%TO.P,EXT2,4,4*%
%TO.N,VSYS*%
X154940000Y-25260000D03*
%TO.P,EXT2,5,5*%
%TO.N,GPIO33*%
X157480000Y-22720000D03*
%TO.P,EXT2,6,6*%
%TO.N,GND*%
X157480000Y-25260000D03*
%TO.P,EXT2,7,7*%
%TO.N,GPIO34*%
X160020000Y-22720000D03*
%TO.P,EXT2,8,8*%
%TO.N,+3.3V*%
X160020000Y-25260000D03*
%TO.P,EXT2,9,9*%
%TO.N,GPIO35*%
X162560000Y-22720000D03*
%TO.P,EXT2,10,10*%
%TO.N,GND*%
X162560000Y-25260000D03*
%TO.P,EXT2,11,11*%
%TO.N,GPIO36*%
X165100000Y-22720000D03*
%TO.P,EXT2,12,12*%
%TO.N,/3V3_EN*%
X165100000Y-25260000D03*
%TO.P,EXT2,13,13*%
%TO.N,GPIO37*%
X167640000Y-22720000D03*
%TO.P,EXT2,14,14*%
%TO.N,/ADC_VREF*%
X167640000Y-25260000D03*
%TO.P,EXT2,15,15*%
%TO.N,GPIO38*%
X170180000Y-22720000D03*
%TO.P,EXT2,16,16*%
%TO.N,GND*%
X170180000Y-25260000D03*
%TO.P,EXT2,17,17*%
%TO.N,GPIO39*%
X172720000Y-22720000D03*
%TO.P,EXT2,18,18*%
%TO.N,/RUN*%
X172720000Y-25260000D03*
%TO.P,EXT2,19,19*%
%TO.N,GND*%
X175260000Y-22720000D03*
%TO.P,EXT2,20,20*%
%TO.N,/BOOTSEL#*%
X175260000Y-25260000D03*
%TO.P,EXT2,21,21*%
%TO.N,+3.3V*%
X177800000Y-22720000D03*
%TO.P,EXT2,22,22*%
X177800000Y-25260000D03*
%TO.P,EXT2,23,23*%
%TO.N,GPIO40*%
X180340000Y-22720000D03*
%TO.P,EXT2,24,24*%
%TO.N,/QSPI_SD0*%
X180340000Y-25260000D03*
%TO.P,EXT2,25,25*%
%TO.N,GPIO41*%
X182880000Y-22720000D03*
%TO.P,EXT2,26,26*%
%TO.N,/QSPI_SD1*%
X182880000Y-25260000D03*
%TO.P,EXT2,27,27*%
%TO.N,GPIO42*%
X185420000Y-22720000D03*
%TO.P,EXT2,28,28*%
%TO.N,/QSPI_SD2*%
X185420000Y-25260000D03*
%TO.P,EXT2,29,29*%
%TO.N,GPIO43*%
X187960000Y-22720000D03*
%TO.P,EXT2,30,30*%
%TO.N,/QSPI_SD3*%
X187960000Y-25260000D03*
%TO.P,EXT2,31,31*%
%TO.N,GPIO44*%
X190500000Y-22720000D03*
%TO.P,EXT2,32,32*%
%TO.N,/QSPI_CLK*%
X190500000Y-25260000D03*
%TO.P,EXT2,33,33*%
%TO.N,GPIO45*%
X193040000Y-22720000D03*
%TO.P,EXT2,34,34*%
%TO.N,/QSPI_CSn*%
X193040000Y-25260000D03*
%TO.P,EXT2,35,35*%
%TO.N,GPIO46*%
X195580000Y-22720000D03*
%TO.P,EXT2,36,36*%
%TO.N,/SWDIO*%
X195580000Y-25260000D03*
%TO.P,EXT2,37,37*%
%TO.N,GPIO47*%
X198120000Y-22720000D03*
%TO.P,EXT2,38,38*%
%TO.N,/SWCLK*%
X198120000Y-25260000D03*
%TO.P,EXT2,39,39*%
%TO.N,GND*%
X200660000Y-22720000D03*
%TO.P,EXT2,40,40*%
X200660000Y-25260000D03*
%TD*%
D12*
%TO.P,R60,1*%
%TO.N,Net-(D17-A)*%
X160377500Y-138430000D03*
%TO.P,R60,2*%
%TO.N,+5V*%
X162202500Y-138430000D03*
%TD*%
D20*
%TO.P,J2,2,GND*%
%TO.N,GND*%
X239750000Y-28065000D03*
%TO.P,J2,4,GND*%
X239750000Y-30605000D03*
%TO.P,J2,6,+24V*%
%TO.N,unconnected-(J2-+24V-Pad6)*%
X239750000Y-33145000D03*
%TO.P,J2,8,+24V*%
%TO.N,unconnected-(J2-+24V-Pad8)*%
X239750000Y-35685000D03*
%TO.P,J2,10,/CLEAR*%
%TO.N,unconnected-(J2-{slash}CLEAR-Pad10)*%
X239750000Y-38225000D03*
%TO.P,J2,12,12*%
%TO.N,unconnected-(J2-Pad12)*%
X239750000Y-40765000D03*
%TO.P,J2,14,/WAIT*%
%TO.N,Net-(J2-{slash}WAIT)*%
X239750000Y-43305000D03*
%TO.P,J2,16,16*%
%TO.N,unconnected-(J2-Pad16)*%
X239750000Y-45845000D03*
%TO.P,J2,18,18*%
%TO.N,unconnected-(J2-Pad18)*%
X239750000Y-48385000D03*
%TO.P,J2,20,/DB0*%
%TO.N,Net-(J2-{slash}DB0)*%
X239750000Y-50925000D03*
%TO.P,J2,22,/DB2*%
%TO.N,Net-(J2-{slash}DB2)*%
X239750000Y-53465000D03*
%TO.P,J2,24,/DB4*%
%TO.N,Net-(J2-{slash}DB4)*%
X239750000Y-56005000D03*
%TO.P,J2,26,/DB6*%
%TO.N,Net-(J2-{slash}DB6)*%
X239750000Y-58545000D03*
%TO.P,J2,28,/DB8*%
%TO.N,Net-(J2-{slash}DB8)*%
X239750000Y-61085000D03*
%TO.P,J2,30,/MEMRD*%
%TO.N,Net-(J2-{slash}MEMRD)*%
X239750000Y-63625000D03*
%TO.P,J2,32,/MEMWR*%
%TO.N,Net-(J2-{slash}MEMWR)*%
X239750000Y-66165000D03*
%TO.P,J2,34,GND*%
%TO.N,unconnected-(J2-GND-Pad34)*%
X239750000Y-68705000D03*
%TO.P,J2,36,GND*%
%TO.N,unconnected-(J2-GND-Pad36)*%
X239750000Y-71245000D03*
%TO.P,J2,38,GND*%
%TO.N,unconnected-(J2-GND-Pad38)*%
X239750000Y-73785000D03*
%TO.P,J2,40,/A0*%
%TO.N,Net-(J2-{slash}A0)*%
X239750000Y-76325000D03*
%TO.P,J2,42,/A2*%
%TO.N,Net-(J2-{slash}A2)*%
X239750000Y-78865000D03*
%TO.P,J2,44,/A4*%
%TO.N,Net-(J2-{slash}A4)*%
X239750000Y-81405000D03*
%TO.P,J2,46,/A6*%
%TO.N,Net-(J2-{slash}A6)*%
X239750000Y-83945000D03*
%TO.P,J2,48,/A8*%
%TO.N,Net-(J2-{slash}A8)*%
X239750000Y-86485000D03*
%TO.P,J2,50,/A10*%
%TO.N,Net-(J2-{slash}A10)*%
X239750000Y-89025000D03*
%TO.P,J2,52,/A12*%
%TO.N,Net-(J2-{slash}A12)*%
X239750000Y-91565000D03*
%TO.P,J2,54,/A14*%
%TO.N,Net-(J2-{slash}A14)*%
X239750000Y-94105000D03*
%TO.P,J2,56,/TC*%
%TO.N,Net-(J2-{slash}TC)*%
X239750000Y-96645000D03*
%TO.P,J2,58,/PARITYERROR*%
%TO.N,Net-(J2-{slash}PARITYERROR)*%
X239750000Y-99185000D03*
%TO.P,J2,60,/IO60*%
%TO.N,Net-(J2-{slash}IO60)*%
X239750000Y-101725000D03*
%TO.P,J2,62,62*%
%TO.N,unconnected-(J2-Pad62)*%
X239750000Y-104265000D03*
%TO.P,J2,64,64*%
%TO.N,unconnected-(J2-Pad64)*%
X239750000Y-106805000D03*
%TO.P,J2,66,66*%
%TO.N,unconnected-(J2-Pad66)*%
X239750000Y-109345000D03*
%TO.P,J2,68,68*%
%TO.N,unconnected-(J2-Pad68)*%
X239750000Y-111885000D03*
%TO.P,J2,70,70*%
%TO.N,unconnected-(J2-Pad70)*%
X239750000Y-114425000D03*
%TO.P,J2,72,/INTERRUPT1*%
%TO.N,Net-(J2-{slash}INTERRUPT1)*%
X239750000Y-116965000D03*
%TO.P,J2,74,/DACK0*%
%TO.N,Net-(J2-{slash}DACK0)*%
X239750000Y-119505000D03*
%TO.P,J2,76,/DACK1*%
%TO.N,Net-(J2-{slash}DACK1)*%
X239750000Y-122045000D03*
%TO.P,J2,78,/DACK2*%
%TO.N,Net-(J2-{slash}DACK2)*%
X239750000Y-124585000D03*
%TO.P,J2,80,/DACK3*%
%TO.N,Net-(J2-{slash}DACK3)*%
X239750000Y-127125000D03*
%TO.P,J2,82,GND*%
%TO.N,unconnected-(J2-GND-Pad82)*%
X239750000Y-129665000D03*
%TO.P,J2,84,GND*%
%TO.N,unconnected-(J2-GND-Pad84)*%
X239750000Y-132205000D03*
%TO.P,J2,86,GND*%
%TO.N,unconnected-(J2-GND-Pad86)*%
X239750000Y-134745000D03*
%TO.P,J2,88,-5V*%
%TO.N,unconnected-(J2--5V-Pad88)*%
X239750000Y-137285000D03*
%TO.P,J2,90,-12V*%
%TO.N,unconnected-(J2--12V-Pad90)*%
X239750000Y-139825000D03*
%TO.P,J2,92,+12V*%
%TO.N,unconnected-(J2-+12V-Pad92)*%
X239750000Y-142365000D03*
%TO.P,J2,94,+5V*%
%TO.N,+5V*%
X239750000Y-144905000D03*
%TO.P,J2,96,+5V*%
%TO.N,unconnected-(J2-+5V-Pad96)*%
X239750000Y-147445000D03*
%TO.P,J2,98,GND*%
%TO.N,unconnected-(J2-GND-Pad98)*%
X239750000Y-149985000D03*
%TO.P,J2,100,GND*%
%TO.N,GND*%
X239750000Y-152525000D03*
%TD*%
D10*
%TO.P,R28,1*%
%TO.N,GPIO0*%
X221520000Y-50800000D03*
%TO.P,R28,2*%
%TO.N,Net-(J2-{slash}DB0)*%
X223520000Y-50800000D03*
%TD*%
D15*
%TO.P,TR7,1,G*%
%TO.N,LED1*%
X156815000Y-121600000D03*
%TO.P,TR7,2,S*%
%TO.N,GND*%
X156815000Y-119700000D03*
%TO.P,TR7,3,D*%
%TO.N,Net-(D7-K)*%
X154940000Y-120650000D03*
%TD*%
D13*
%TO.P,J3,1,Pin_1*%
%TO.N,GPIO14*%
X215504000Y-146304000D03*
D14*
%TO.P,J3,2,Pin_2*%
%TO.N,GPIO15*%
X212964000Y-146304000D03*
%TO.P,J3,3,Pin_3*%
%TO.N,GPIO17*%
X215504000Y-143764000D03*
%TO.P,J3,4,Pin_4*%
%TO.N,unconnected-(J3-Pin_4-Pad4)*%
X212964000Y-143764000D03*
%TO.P,J3,5,Pin_5*%
%TO.N,DACK3*%
X215504000Y-141224000D03*
%TO.P,J3,6,Pin_6*%
%TO.N,DACK2*%
X212964000Y-141224000D03*
%TO.P,J3,7,Pin_7*%
%TO.N,DREQ3*%
X215504000Y-138684000D03*
%TO.P,J3,8,Pin_8*%
%TO.N,DREQ2*%
X212964000Y-138684000D03*
%TD*%
D13*
%TO.P,J8,1,Pin_1*%
%TO.N,LED0*%
X173990000Y-100330000D03*
D14*
%TO.P,J8,2,Pin_2*%
%TO.N,LED1*%
X173990000Y-102870000D03*
%TO.P,J8,3,Pin_3*%
%TO.N,LED2*%
X173990000Y-105410000D03*
%TO.P,J8,4,Pin_4*%
%TO.N,LED3*%
X173990000Y-107950000D03*
%TO.P,J8,5,Pin_5*%
%TO.N,LED4*%
X173990000Y-110490000D03*
%TO.P,J8,6,Pin_6*%
%TO.N,LED5*%
X173990000Y-113030000D03*
%TO.P,J8,7,Pin_7*%
%TO.N,LED6*%
X173990000Y-115570000D03*
%TO.P,J8,8,Pin_8*%
%TO.N,LED7*%
X173990000Y-118110000D03*
%TD*%
D10*
%TO.P,R20,1*%
%TO.N,MEMRD*%
X221520000Y-63500000D03*
%TO.P,R20,2*%
%TO.N,Net-(J2-{slash}MEMRD)*%
X223520000Y-63500000D03*
%TD*%
D11*
%TO.P,D8,1,K*%
%TO.N,Net-(D8-K)*%
X151130000Y-129540000D03*
%TO.P,D8,2,A*%
%TO.N,Net-(D8-A)*%
X149255000Y-129540000D03*
%TD*%
D10*
%TO.P,R30,1*%
%TO.N,GPIO44*%
X221488000Y-91440000D03*
%TO.P,R30,2*%
%TO.N,Net-(J2-{slash}A12)*%
X223488000Y-91440000D03*
%TD*%
D15*
%TO.P,TR8,1,G*%
%TO.N,LED5*%
X156815000Y-130490000D03*
%TO.P,TR8,2,S*%
%TO.N,GND*%
X156815000Y-128590000D03*
%TO.P,TR8,3,D*%
%TO.N,Net-(D8-K)*%
X154940000Y-129540000D03*
%TD*%
D10*
%TO.P,R37,1*%
%TO.N,INT1*%
X221488000Y-116840000D03*
%TO.P,R37,2*%
%TO.N,Net-(J2-{slash}INTERRUPT1)*%
X223488000Y-116840000D03*
%TD*%
D15*
%TO.P,TR3,1,G*%
%TO.N,LED3*%
X156815000Y-139380000D03*
%TO.P,TR3,2,S*%
%TO.N,GND*%
X156815000Y-137480000D03*
%TO.P,TR3,3,D*%
%TO.N,Net-(D17-K)*%
X154940000Y-138430000D03*
%TD*%
D12*
%TO.P,R57,1*%
%TO.N,Net-(D3-A)*%
X160377500Y-88530000D03*
%TO.P,R57,2*%
%TO.N,+5V*%
X162202500Y-88530000D03*
%TD*%
D10*
%TO.P,R19,1*%
%TO.N,MEMWR*%
X221520000Y-66040000D03*
%TO.P,R19,2*%
%TO.N,Net-(J2-{slash}MEMWR)*%
X223520000Y-66040000D03*
%TD*%
D11*
%TO.P,D17,1,K*%
%TO.N,Net-(D17-K)*%
X151130000Y-138430000D03*
%TO.P,D17,2,A*%
%TO.N,Net-(D17-A)*%
X149255000Y-138430000D03*
%TD*%
D13*
%TO.P,J7,1,Pin_1*%
%TO.N,GPIO14*%
X186944000Y-146304000D03*
D14*
%TO.P,J7,2,Pin_2*%
%TO.N,GPIO15*%
X184404000Y-146304000D03*
%TO.P,J7,3,Pin_3*%
%TO.N,GPIO17*%
X186944000Y-143764000D03*
%TO.P,J7,4,Pin_4*%
%TO.N,GPIO26*%
X184404000Y-143764000D03*
%TO.P,J7,5,Pin_5*%
%TO.N,unconnected-(J7-Pin_5-Pad5)*%
X186944000Y-141224000D03*
%TO.P,J7,6,Pin_6*%
%TO.N,unconnected-(J7-Pin_6-Pad6)*%
X184404000Y-141224000D03*
%TO.P,J7,7,Pin_7*%
%TO.N,unconnected-(J7-Pin_7-Pad7)*%
X186944000Y-138684000D03*
%TO.P,J7,8,Pin_8*%
%TO.N,REF*%
X184404000Y-138684000D03*
%TD*%
D21*
%TO.P,D1,1,K*%
%TO.N,VSYS*%
X151258000Y-56261000D03*
%TO.P,D1,2,A*%
%TO.N,+5V*%
X154558000Y-56261000D03*
%TD*%
D10*
%TO.P,R7,1*%
%TO.N,GPIO36*%
X221488000Y-81280000D03*
%TO.P,R7,2*%
%TO.N,Net-(J2-{slash}A4)*%
X223488000Y-81280000D03*
%TD*%
D13*
%TO.P,J10,1,Pin_1*%
%TO.N,/GPIO16*%
X226314000Y-36322000D03*
D14*
%TO.P,J10,2,Pin_2*%
%TO.N,MISO_DO*%
X223774000Y-36322000D03*
%TO.P,J10,3,Pin_3*%
%TO.N,/GPIO18*%
X226314000Y-33782000D03*
%TO.P,J10,4,Pin_4*%
%TO.N,SD_CLK*%
X223774000Y-33782000D03*
%TO.P,J10,5,Pin_5*%
%TO.N,/GPIO19*%
X226314000Y-31242000D03*
%TO.P,J10,6,Pin_6*%
%TO.N,MOSI_DI*%
X223774000Y-31242000D03*
%TO.P,J10,7,Pin_7*%
%TO.N,/GPIO20*%
X226314000Y-28702000D03*
%TO.P,J10,8,Pin_8*%
%TO.N,SD_DAT1*%
X223774000Y-28702000D03*
%TO.P,J10,9,Pin_9*%
%TO.N,/GPIO21*%
X226314000Y-26162000D03*
%TO.P,J10,10,Pin_10*%
%TO.N,SD_DAT2*%
X223774000Y-26162000D03*
%TO.P,J10,11,Pin_11*%
%TO.N,/GPIO22*%
X226314000Y-23622000D03*
%TO.P,J10,12,Pin_12*%
%TO.N,SD_SS*%
X223774000Y-23622000D03*
%TD*%
D10*
%TO.P,R11,1*%
%TO.N,GPIO32*%
X221520000Y-76200000D03*
%TO.P,R11,2*%
%TO.N,Net-(J2-{slash}A0)*%
X223520000Y-76200000D03*
%TD*%
%TO.P,R50,1*%
%TO.N,TC*%
X221520000Y-96520000D03*
%TO.P,R50,2*%
%TO.N,Net-(J2-{slash}TC)*%
X223520000Y-96520000D03*
%TD*%
%TO.P,R39,1*%
%TO.N,DACK1*%
X221488000Y-121920000D03*
%TO.P,R39,2*%
%TO.N,Net-(J2-{slash}DACK1)*%
X223488000Y-121920000D03*
%TD*%
D15*
%TO.P,TR6,1,G*%
%TO.N,LED4*%
X156815000Y-112710000D03*
%TO.P,TR6,2,S*%
%TO.N,GND*%
X156815000Y-110810000D03*
%TO.P,TR6,3,D*%
%TO.N,Net-(D6-K)*%
X154940000Y-111760000D03*
%TD*%
D10*
%TO.P,R9,1*%
%TO.N,GPIO34*%
X221488000Y-78740000D03*
%TO.P,R9,2*%
%TO.N,Net-(J2-{slash}A2)*%
X223488000Y-78740000D03*
%TD*%
D22*
%TO.N,+5V*%
X163525200Y-88493600D03*
X163347400Y-82245200D03*
X226720400Y-150444200D03*
X163423600Y-111683800D03*
X163398200Y-129641600D03*
X163474400Y-120624600D03*
X163677600Y-151028400D03*
X162941000Y-57658000D03*
X163423600Y-138430000D03*
X163423600Y-96062800D03*
X163245800Y-104216200D03*
X226720400Y-145008600D03*
%TO.N,VSYS*%
X148107400Y-56311800D03*
X154914600Y-29514800D03*
X147726400Y-29362400D03*
%TO.N,Net-(D2-A)*%
X160020000Y-85180400D03*
X160020000Y-82550000D03*
%TO.N,GPIO17*%
X173075600Y-83515200D03*
X187248800Y-87807800D03*
X157505400Y-43891200D03*
X173202600Y-87426800D03*
X186969400Y-95427800D03*
X153390600Y-84480400D03*
X179755800Y-144094200D03*
X153517600Y-43611800D03*
X179628800Y-95478600D03*
%TO.N,PHI2*%
X193141600Y-128549400D03*
X220141800Y-129463800D03*
%TO.N,GPIO1*%
X220091000Y-54040000D03*
X157607000Y-54152800D03*
X188569600Y-54040000D03*
%TO.N,GPIO3*%
X161971000Y-55956200D03*
X161971000Y-67284600D03*
X220014800Y-56580000D03*
%TO.N,IO60*%
X190296800Y-41198800D03*
X201269600Y-101854000D03*
X201523600Y-41351200D03*
%TO.N,GND*%
X151003000Y-64389000D03*
X158750000Y-119380000D03*
X158750000Y-137160000D03*
X158750000Y-110490000D03*
X158750000Y-128270000D03*
X175412400Y-80416400D03*
X162560000Y-29286200D03*
X175514000Y-31267400D03*
X158750000Y-87630000D03*
X149987000Y-76708000D03*
X200482200Y-39598600D03*
X175234600Y-20828000D03*
X162483800Y-30937200D03*
X158750000Y-95250000D03*
X152019000Y-79248000D03*
X157835600Y-29489400D03*
X200431400Y-20523200D03*
X175412400Y-39395400D03*
X157480000Y-27635200D03*
X150876000Y-61087000D03*
X158775400Y-79248000D03*
X158750000Y-102870000D03*
X149352000Y-27457400D03*
X158750000Y-152400000D03*
X169951400Y-31165800D03*
X149275800Y-21463000D03*
X226822000Y-152525000D03*
%TO.N,MEMWR*%
X199821800Y-51435000D03*
X182956200Y-51638200D03*
X199669400Y-65963800D03*
%TO.N,+3.3V*%
X152273000Y-66294000D03*
X177800000Y-32766000D03*
X160223200Y-30886400D03*
X150949000Y-30835600D03*
%TO.N,MEMRD*%
X185369200Y-52171600D03*
X198602600Y-64185800D03*
X198297800Y-52135000D03*
%TO.N,PARITYERR*%
X187756800Y-42418000D03*
X199034400Y-42316400D03*
X200710800Y-99212400D03*
%TO.N,/GPIO21*%
X167513000Y-27812000D03*
%TO.N,/GPIO20*%
X165100000Y-27813000D03*
%TO.N,IORD*%
X215392000Y-61899800D03*
X219989400Y-66852800D03*
X215442800Y-66802000D03*
X189534800Y-62001400D03*
%TO.N,IO40*%
X220421200Y-109778800D03*
X208624400Y-110007400D03*
X196672200Y-43789600D03*
X208000600Y-75260200D03*
X192938400Y-43713400D03*
X196189600Y-75463400D03*
%TO.N,INT4*%
X175742600Y-126111000D03*
X219633800Y-125933200D03*
%TO.N,GPIO8*%
X180289200Y-60883800D03*
X180136800Y-74218800D03*
%TO.N,INT3*%
X186461400Y-43484800D03*
X220816399Y-117972485D03*
X207924400Y-90576400D03*
X196621400Y-59842400D03*
X197978800Y-90398600D03*
X180746400Y-43662600D03*
X187223400Y-59359800D03*
X207924400Y-117754400D03*
%TO.N,/GPIO18*%
X215758800Y-37022000D03*
X215758800Y-49784000D03*
X160407920Y-46966932D03*
X224790000Y-37465000D03*
%TO.N,GPIO6*%
X170053000Y-70789800D03*
X170180000Y-58039000D03*
%TO.N,IOWR*%
X220116400Y-68656200D03*
X190987200Y-69037200D03*
%TO.N,/GPIO22*%
X180721000Y-40513000D03*
X169926000Y-40767000D03*
X181610000Y-23876000D03*
%TO.N,GPIO2*%
X183972200Y-53416200D03*
X160070800Y-53009800D03*
%TO.N,GPIO26*%
X178638200Y-97155000D03*
X185420000Y-38506400D03*
X178308000Y-145923000D03*
X207949800Y-38531800D03*
X209325400Y-97663000D03*
%TO.N,IO30*%
X203708000Y-42418000D03*
X195478400Y-43016400D03*
X204165200Y-106578400D03*
X219964000Y-106273600D03*
%TO.N,INT1*%
X196723000Y-125095000D03*
X196570600Y-116289000D03*
X181711600Y-125349000D03*
%TO.N,GPIO14*%
X195072000Y-74066400D03*
X188823600Y-135875800D03*
X181748200Y-135875800D03*
X182016400Y-147370800D03*
X189890400Y-73939400D03*
%TO.N,GPIO4*%
X165150800Y-55676800D03*
X165100000Y-68707000D03*
%TO.N,GPIO15*%
X199378800Y-79908400D03*
X206883000Y-115798600D03*
X206857600Y-93192600D03*
X193243200Y-127177800D03*
X201701400Y-115620800D03*
X183692800Y-126974600D03*
X201320400Y-123291600D03*
X193294000Y-122732800D03*
X199999600Y-92786200D03*
%TO.N,/GPIO16*%
X189057445Y-37622760D03*
X154813000Y-36957000D03*
X226568000Y-39878000D03*
X189103000Y-40513000D03*
%TO.N,/GPIO19*%
X179959000Y-38322760D03*
X212344000Y-30353000D03*
X162560000Y-37477200D03*
X179959000Y-32766000D03*
X212465910Y-32256493D03*
%TO.N,IO20*%
X202996800Y-104190800D03*
X203454000Y-46786800D03*
X220014800Y-104038400D03*
%TO.N,GPIO5*%
X169189400Y-69392800D03*
X220243400Y-57454800D03*
X169189400Y-57683400D03*
%TO.N,GPIO7*%
X193243200Y-59142400D03*
X193294000Y-54965600D03*
X172516800Y-72161400D03*
X220091000Y-60096400D03*
X172720000Y-55118000D03*
%TO.N,GPIO0*%
X154711400Y-50698400D03*
X186156600Y-50698400D03*
%TO.N,GPIO44*%
X191312800Y-30022800D03*
X207187800Y-29845000D03*
X198475600Y-118059200D03*
X197967600Y-91744800D03*
X206933800Y-91440000D03*
%TO.N,GPIO39*%
X183972200Y-42468800D03*
X177673000Y-111760000D03*
X215112600Y-110744000D03*
X178206400Y-80416400D03*
X173913800Y-42265600D03*
X182702200Y-80492600D03*
X220091000Y-85660000D03*
X214172800Y-85660000D03*
X184937400Y-112699800D03*
%TO.N,GPIO47*%
X218135200Y-121208800D03*
X198755000Y-34874200D03*
X219024200Y-35407600D03*
%TO.N,GPIO43*%
X217525600Y-90740000D03*
X217474800Y-29514800D03*
X189484000Y-29133800D03*
X193624200Y-116967000D03*
X217449400Y-113512600D03*
X219989400Y-90740000D03*
X193751200Y-113944400D03*
%TO.N,GPIO37*%
X185324260Y-110427479D03*
X213614000Y-84658200D03*
X171613600Y-109169200D03*
X220091000Y-84520000D03*
X213283800Y-108712000D03*
%TO.N,GPIO38*%
X183540400Y-83820000D03*
X176809400Y-83794600D03*
X195202000Y-83667600D03*
X195021200Y-110591600D03*
X176453800Y-43967400D03*
X170637200Y-43967400D03*
%TO.N,GPIO46*%
X198678800Y-69596000D03*
X198667600Y-93878400D03*
X194183000Y-69545200D03*
X198628000Y-120700800D03*
%TO.N,GPIO36*%
X182829200Y-81432400D03*
X194502000Y-81381600D03*
X194360800Y-108305600D03*
X165989000Y-80772000D03*
X182930800Y-90347800D03*
X194502000Y-90220800D03*
%TO.N,GPIO33*%
X158419800Y-77419200D03*
X180340000Y-105257600D03*
X180771800Y-77451000D03*
X219913200Y-77800200D03*
%TO.N,GPIO32*%
X192989200Y-102870000D03*
X156286200Y-75844400D03*
X193090800Y-75895200D03*
%TO.N,GPIO40*%
X178765200Y-86283800D03*
X196240400Y-112826800D03*
X195902000Y-86309200D03*
%TO.N,GPIO42*%
X197256400Y-115671600D03*
X196646800Y-88900000D03*
X191588200Y-89001600D03*
X186918600Y-31851600D03*
X193573400Y-32054800D03*
%TO.N,GPIO35*%
X214299800Y-82042000D03*
X215061800Y-106973600D03*
X214985600Y-80568800D03*
X219786200Y-80111600D03*
X214223600Y-80580000D03*
X164642800Y-80721200D03*
%TO.N,GPIO34*%
X193802000Y-78536800D03*
X193802000Y-105359200D03*
X161315400Y-78151000D03*
%TO.N,GPIO45*%
X220091000Y-34315400D03*
X218211400Y-118680000D03*
X196519800Y-33883600D03*
X218324200Y-93116400D03*
X220091000Y-93014800D03*
%TO.N,GPIO41*%
X184251600Y-27813000D03*
X216458800Y-27889200D03*
X220294200Y-87807800D03*
X216433400Y-114644400D03*
X216774800Y-87934800D03*
%TO.N,DREQ2*%
X220903800Y-125704600D03*
X213029800Y-125411000D03*
%TO.N,DREQ3*%
X219024200Y-138531600D03*
%TO.N,DACK2*%
X212775800Y-124358400D03*
%TO.N,DACK3*%
X215569800Y-127254000D03*
%TO.N,DREQ0*%
X205689200Y-135102600D03*
X220816399Y-120512485D03*
X209042000Y-120442800D03*
X208483200Y-135331200D03*
%TO.N,DACK1*%
X208330800Y-121843800D03*
%TO.N,DACK0*%
X204582800Y-119837200D03*
%TO.N,DREQ1*%
X221335600Y-123120000D03*
X208254600Y-123393200D03*
%TO.N,EOF*%
X200710800Y-112115600D03*
X220294200Y-111760000D03*
%TO.N,BOUT*%
X200635000Y-125272800D03*
X203276200Y-120116600D03*
X210794600Y-112649000D03*
X220014800Y-74396600D03*
X198043800Y-125095000D03*
X200635000Y-121005600D03*
X211556600Y-74396600D03*
X203504800Y-112598200D03*
%TO.N,TC*%
X199898000Y-96520000D03*
%TO.N,BIN*%
X201447400Y-127127000D03*
X213106000Y-70967600D03*
X220243400Y-70967600D03*
X213766400Y-126873000D03*
%TO.N,READY*%
X209931000Y-134366000D03*
X208661000Y-43891200D03*
X191465200Y-134289800D03*
X220116400Y-44094400D03*
%TO.N,HLDACK*%
X180416200Y-136550400D03*
X183819800Y-79883000D03*
X220473913Y-62757890D03*
X177825400Y-64363600D03*
X184613518Y-106987645D03*
X180929000Y-107619800D03*
X177749200Y-79603600D03*
%TO.N,RESET*%
X220040200Y-40970200D03*
X205079600Y-132435600D03*
X205282800Y-40716200D03*
X193827400Y-132613400D03*
%TO.N,WAIT*%
X205982800Y-43129200D03*
X205968600Y-133070600D03*
X193319400Y-133654800D03*
%TO.N,REF*%
X182194200Y-138582400D03*
X220065600Y-99760000D03*
X182448200Y-100279200D03*
%TO.N,LED2*%
X171881800Y-83464400D03*
%TO.N,LED4*%
X168910000Y-113030000D03*
X168910000Y-110490000D03*
%TO.N,LED6*%
X168325800Y-89865200D03*
X168249600Y-115900200D03*
%TO.N,LED7*%
X166801800Y-96951800D03*
X166979600Y-118160800D03*
%TO.N,LED3*%
X171602400Y-139268200D03*
%TO.N,LED5*%
X171170600Y-130505200D03*
X170880000Y-113182400D03*
%TO.N,LED0*%
X167640000Y-105410000D03*
X167640000Y-100330000D03*
%TO.N,LED1*%
X170180000Y-121920000D03*
X170180000Y-102870000D03*
%TO.N,SD_DAT1*%
X218186000Y-33183600D03*
X147066000Y-32131000D03*
X218186000Y-28702000D03*
X147447000Y-61214000D03*
%TO.N,SD_DAT2*%
X179640000Y-92710000D03*
X209804000Y-69356200D03*
X196977000Y-70245200D03*
X161798000Y-85217000D03*
X190590400Y-87376000D03*
X196850000Y-87376000D03*
X209169000Y-26162000D03*
X179532241Y-86511071D03*
X161971000Y-69723000D03*
X190590400Y-92837000D03*
%TO.N,MISO_DO*%
X191089000Y-34293236D03*
X159766000Y-32258000D03*
X159893000Y-34293236D03*
X191008000Y-36703000D03*
X146304000Y-63119000D03*
X146177000Y-31369000D03*
%TO.N,SD_SS*%
X173228000Y-36876200D03*
X213995000Y-23622000D03*
X173228000Y-43053000D03*
X213995000Y-37022000D03*
X154351000Y-51512000D03*
X154351000Y-68834000D03*
%TO.N,SD_CLK*%
X213233000Y-35574200D03*
X147955000Y-65278000D03*
X149007400Y-34417000D03*
X213233000Y-32483600D03*
%TO.N,MOSI_DI*%
X189865000Y-36449000D03*
X155194000Y-67437000D03*
X149707400Y-36195000D03*
X155491000Y-52212000D03*
X189865000Y-31354800D03*
X149707400Y-52197000D03*
%TD*%
D23*
%TO.N,+5V*%
X162941000Y-57658000D02*
X160782000Y-57658000D01*
D24*
X162238900Y-88493600D02*
X162202500Y-88530000D01*
X162227900Y-120624600D02*
X162202500Y-120650000D01*
X162304100Y-129641600D02*
X162202500Y-129540000D01*
X162278700Y-111683800D02*
X162202500Y-111760000D01*
D23*
X163677600Y-151028400D02*
X226136200Y-151028400D01*
X226720400Y-145008600D02*
X226824000Y-144905000D01*
D24*
X163423600Y-96062800D02*
X162289700Y-96062800D01*
X163525200Y-88493600D02*
X162238900Y-88493600D01*
D23*
X159385000Y-56261000D02*
X154558000Y-56261000D01*
D24*
X163245800Y-104216200D02*
X162278700Y-104216200D01*
X162278700Y-104216200D02*
X162202500Y-104140000D01*
D23*
X226136200Y-151028400D02*
X226720400Y-150444200D01*
D24*
X162202500Y-81280000D02*
X162382200Y-81280000D01*
X162382200Y-81280000D02*
X163347400Y-82245200D01*
D23*
X160782000Y-57658000D02*
X159385000Y-56261000D01*
D24*
X163423600Y-138430000D02*
X162202500Y-138430000D01*
X162289700Y-96062800D02*
X162202500Y-96150000D01*
D23*
X226824000Y-144905000D02*
X239750000Y-144905000D01*
D24*
X163423600Y-111683800D02*
X162278700Y-111683800D01*
X163398200Y-129641600D02*
X162304100Y-129641600D01*
X163474400Y-120624600D02*
X162227900Y-120624600D01*
D23*
%TO.N,VSYS*%
X148158200Y-56261000D02*
X148107400Y-56311800D01*
X154762200Y-29362400D02*
X154914600Y-29514800D01*
X147726400Y-29362400D02*
X154762200Y-29362400D01*
X151258000Y-56261000D02*
X148158200Y-56261000D01*
D24*
%TO.N,Net-(D2-A)*%
X160377500Y-82192500D02*
X160020000Y-82550000D01*
X160020000Y-85180400D02*
X149950400Y-85180400D01*
X149950400Y-85180400D02*
X149255000Y-84485000D01*
X160377500Y-81280000D02*
X160377500Y-82192500D01*
X149255000Y-84485000D02*
X149255000Y-81280000D01*
%TO.N,Net-(D2-K)*%
X154940000Y-81280000D02*
X151130000Y-81280000D01*
%TO.N,Net-(D3-A)*%
X160377500Y-87830000D02*
X158907500Y-86360000D01*
X158907500Y-86360000D02*
X151425000Y-86360000D01*
X160377500Y-88530000D02*
X160377500Y-87830000D01*
X151425000Y-86360000D02*
X149255000Y-88530000D01*
%TO.N,Net-(D3-K)*%
X154940000Y-88530000D02*
X151130000Y-88530000D01*
%TO.N,Net-(D4-A)*%
X151425000Y-93980000D02*
X149255000Y-96150000D01*
X160377500Y-96150000D02*
X160377500Y-95450000D01*
X158907500Y-93980000D02*
X151425000Y-93980000D01*
X160377500Y-95450000D02*
X158907500Y-93980000D01*
%TO.N,Net-(D4-K)*%
X154940000Y-96150000D02*
X151130000Y-96150000D01*
%TO.N,Net-(D5-K)*%
X151130000Y-104140000D02*
X154940000Y-104140000D01*
%TO.N,Net-(D5-A)*%
X151795000Y-101600000D02*
X149255000Y-104140000D01*
X160377500Y-104140000D02*
X160377500Y-103364715D01*
X160377500Y-103364715D02*
X158612785Y-101600000D01*
X158612785Y-101600000D02*
X151795000Y-101600000D01*
%TO.N,Net-(D6-A)*%
X151795000Y-109220000D02*
X149255000Y-111760000D01*
X160377500Y-110984715D02*
X158612785Y-109220000D01*
X158612785Y-109220000D02*
X151795000Y-109220000D01*
X160377500Y-111760000D02*
X160377500Y-110984715D01*
%TO.N,Net-(D6-K)*%
X154940000Y-111760000D02*
X151130000Y-111760000D01*
%TO.N,Net-(D7-K)*%
X154940000Y-120650000D02*
X151130000Y-120650000D01*
%TO.N,Net-(D7-A)*%
X159081785Y-118579000D02*
X151326000Y-118579000D01*
X151326000Y-118579000D02*
X149255000Y-120650000D01*
X160377500Y-120650000D02*
X160377500Y-119874715D01*
X160377500Y-119874715D02*
X159081785Y-118579000D01*
%TO.N,Net-(D8-K)*%
X154940000Y-129540000D02*
X151130000Y-129540000D01*
%TO.N,Net-(D8-A)*%
X159081785Y-127469000D02*
X151326000Y-127469000D01*
X160377500Y-129540000D02*
X160377500Y-128764715D01*
X160377500Y-128764715D02*
X159081785Y-127469000D01*
X151326000Y-127469000D02*
X149255000Y-129540000D01*
%TO.N,Net-(D17-K)*%
X154940000Y-138430000D02*
X151130000Y-138430000D01*
%TO.N,Net-(D17-A)*%
X160377500Y-137654715D02*
X158612785Y-135890000D01*
X160377500Y-138430000D02*
X160377500Y-137654715D01*
X151795000Y-135890000D02*
X149255000Y-138430000D01*
X158612785Y-135890000D02*
X151795000Y-135890000D01*
%TO.N,GPIO17*%
X199973000Y-142513000D02*
X195335000Y-142513000D01*
X215504000Y-143764000D02*
X214253000Y-142513000D01*
X201224000Y-143764000D02*
X199973000Y-142513000D01*
X172110400Y-84480400D02*
X173075600Y-83515200D01*
X157505400Y-43891200D02*
X153797000Y-43891200D01*
X187052000Y-87611000D02*
X187248800Y-87807800D01*
X192833000Y-142513000D02*
X188195000Y-142513000D01*
X179838400Y-95269000D02*
X179628800Y-95478600D01*
X195335000Y-142513000D02*
X194084000Y-143764000D01*
X209615000Y-142513000D02*
X208364000Y-143764000D01*
X202475000Y-142513000D02*
X201224000Y-143764000D01*
X153797000Y-43891200D02*
X153517600Y-43611800D01*
X173202600Y-87426800D02*
X173386800Y-87611000D01*
X186810600Y-95269000D02*
X179838400Y-95269000D01*
X194084000Y-143764000D02*
X192833000Y-142513000D01*
X181337000Y-142513000D02*
X185693000Y-142513000D01*
X179755800Y-144094200D02*
X181337000Y-142513000D01*
X207113000Y-142513000D02*
X202475000Y-142513000D01*
X186969400Y-95427800D02*
X186810600Y-95269000D01*
X185693000Y-142513000D02*
X186944000Y-143764000D01*
X214253000Y-142513000D02*
X209615000Y-142513000D01*
X208364000Y-143764000D02*
X207113000Y-142513000D01*
X188195000Y-142513000D02*
X186944000Y-143764000D01*
X153390600Y-84480400D02*
X172110400Y-84480400D01*
X173386800Y-87611000D02*
X187052000Y-87611000D01*
%TO.N,PHI2*%
X220141800Y-129463800D02*
X194056000Y-129463800D01*
X194056000Y-129463800D02*
X193141600Y-128549400D01*
%TO.N,GPIO1*%
X188569600Y-54040000D02*
X220091000Y-54040000D01*
X188569600Y-54040000D02*
X188456800Y-54152800D01*
X188456800Y-54152800D02*
X157607000Y-54152800D01*
%TO.N,GPIO3*%
X162594800Y-56580000D02*
X161971000Y-55956200D01*
X161977400Y-67291000D02*
X187217000Y-67291000D01*
X220014800Y-56580000D02*
X162594800Y-56580000D01*
X161971000Y-67284600D02*
X161977400Y-67291000D01*
X187217000Y-67291000D02*
X188468000Y-66040000D01*
%TO.N,IO60*%
X190449200Y-41351200D02*
X190296800Y-41198800D01*
X221520000Y-101600000D02*
X201523600Y-101600000D01*
X201523600Y-41351200D02*
X190449200Y-41351200D01*
X201523600Y-101600000D02*
X201269600Y-101854000D01*
D23*
%TO.N,GND*%
X175412400Y-80416400D02*
X174244000Y-79248000D01*
X239750000Y-28065000D02*
X229995000Y-28065000D01*
X201680207Y-45720000D02*
X200660000Y-45720000D01*
X228346000Y-20701000D02*
X200609200Y-20701000D01*
X229870000Y-27940000D02*
X229870000Y-22225000D01*
X158750000Y-110490000D02*
X157135000Y-110490000D01*
X159522000Y-74287000D02*
X150822000Y-74287000D01*
X174244000Y-79248000D02*
X158775400Y-79248000D01*
X175615600Y-39598600D02*
X175412400Y-39395400D01*
X229870000Y-30607000D02*
X230251000Y-30607000D01*
X200609200Y-20701000D02*
X200431400Y-20523200D01*
X162483800Y-30937200D02*
X169722800Y-30937200D01*
X158750000Y-95250000D02*
X156865000Y-95250000D01*
X205521207Y-41879000D02*
X201680207Y-45720000D01*
X158750000Y-137160000D02*
X157135000Y-137160000D01*
X175514000Y-31267400D02*
X170053000Y-31267400D01*
X234524000Y-41254000D02*
X233899000Y-41879000D01*
X157135000Y-137160000D02*
X156815000Y-137480000D01*
X234524000Y-29291001D02*
X234524000Y-41254000D01*
X149987000Y-75252000D02*
X149922000Y-75187000D01*
X229995000Y-28065000D02*
X229870000Y-27940000D01*
X149910800Y-20828000D02*
X149275800Y-21463000D01*
X160022000Y-64137000D02*
X151255000Y-64137000D01*
X158750000Y-87630000D02*
X156865000Y-87630000D01*
X158775400Y-79248000D02*
X157897000Y-79248000D01*
X169722800Y-30937200D02*
X169951400Y-31165800D01*
X200482200Y-39598600D02*
X175615600Y-39598600D01*
X157897000Y-79248000D02*
X156815000Y-80330000D01*
X157135000Y-110490000D02*
X156815000Y-110810000D01*
X175234600Y-20828000D02*
X200126600Y-20828000D01*
X230251000Y-30607000D02*
X230253000Y-30605000D01*
X158750000Y-128270000D02*
X157135000Y-128270000D01*
X149987000Y-76708000D02*
X149987000Y-75252000D01*
X151255000Y-64137000D02*
X151003000Y-64389000D01*
X150822000Y-74287000D02*
X149922000Y-75187000D01*
X156865000Y-87630000D02*
X156815000Y-87580000D01*
X235750001Y-28065000D02*
X234524000Y-29291001D01*
X200126600Y-20828000D02*
X200431400Y-20523200D01*
X157302200Y-27457400D02*
X157480000Y-27635200D01*
X158750000Y-119380000D02*
X157135000Y-119380000D01*
X157135000Y-128270000D02*
X156815000Y-128590000D01*
X162356800Y-29489400D02*
X162560000Y-29286200D01*
X157135000Y-102870000D02*
X156815000Y-103190000D01*
X150876000Y-61087000D02*
X150876000Y-60641000D01*
X200660000Y-22720000D02*
X200660000Y-20751800D01*
X153101000Y-80330000D02*
X152019000Y-79248000D01*
X229870000Y-27940000D02*
X229870000Y-30607000D01*
X229870000Y-22225000D02*
X228346000Y-20701000D01*
X175234600Y-20828000D02*
X149910800Y-20828000D01*
X156815000Y-80330000D02*
X153101000Y-80330000D01*
X170053000Y-31267400D02*
X169951400Y-31165800D01*
X158875000Y-152525000D02*
X158750000Y-152400000D01*
X230253000Y-30605000D02*
X239750000Y-30605000D01*
X157835600Y-29489400D02*
X162356800Y-29489400D01*
X200660000Y-20751800D02*
X200609200Y-20701000D01*
X239750000Y-152525000D02*
X158875000Y-152525000D01*
X159522000Y-59687000D02*
X149922000Y-59687000D01*
X149352000Y-27457400D02*
X157302200Y-27457400D01*
X233899000Y-41879000D02*
X205521207Y-41879000D01*
X156865000Y-95250000D02*
X156815000Y-95200000D01*
X158750000Y-102870000D02*
X157135000Y-102870000D01*
X157135000Y-119380000D02*
X156815000Y-119700000D01*
X150876000Y-60641000D02*
X149922000Y-59687000D01*
X239750000Y-28065000D02*
X235750001Y-28065000D01*
D24*
%TO.N,MEMWR*%
X221520000Y-66040000D02*
X199745600Y-66040000D01*
X199745600Y-66040000D02*
X199669400Y-65963800D01*
X199821800Y-51435000D02*
X183159400Y-51435000D01*
X183159400Y-51435000D02*
X182956200Y-51638200D01*
%TO.N,+3.3V*%
X160022000Y-66337000D02*
X152316000Y-66337000D01*
D23*
X160223200Y-30886400D02*
X162102800Y-32766000D01*
X150999800Y-30886400D02*
X150949000Y-30835600D01*
X160223200Y-30886400D02*
X150999800Y-30886400D01*
X162102800Y-32766000D02*
X177800000Y-32766000D01*
D24*
X152316000Y-66337000D02*
X152273000Y-66294000D01*
%TO.N,MEMRD*%
X221520000Y-63500000D02*
X199288400Y-63500000D01*
X185405800Y-52135000D02*
X185369200Y-52171600D01*
X198297800Y-52135000D02*
X185405800Y-52135000D01*
X199288400Y-63500000D02*
X198602600Y-64185800D01*
%TO.N,PARITYERR*%
X187858400Y-42316400D02*
X187756800Y-42418000D01*
X200863200Y-99060000D02*
X200710800Y-99212400D01*
X199034400Y-42316400D02*
X187858400Y-42316400D01*
X221520000Y-99060000D02*
X200863200Y-99060000D01*
%TO.N,/GPIO21*%
X164399000Y-28103364D02*
X164399000Y-27522636D01*
X167513000Y-27812000D02*
X166811000Y-28514000D01*
X164399000Y-27522636D02*
X165410636Y-26511000D01*
X207828636Y-26511000D02*
X209428636Y-24911000D01*
X166811000Y-28514000D02*
X164809636Y-28514000D01*
X209428636Y-24911000D02*
X225063000Y-24911000D01*
X165410636Y-26511000D02*
X207828636Y-26511000D01*
X164809636Y-28514000D02*
X164399000Y-28103364D01*
X225063000Y-24911000D02*
X226314000Y-26162000D01*
%TO.N,/GPIO20*%
X222954818Y-27112000D02*
X223293818Y-27451000D01*
X165100000Y-27813000D02*
X165801000Y-27112000D01*
X165801000Y-27112000D02*
X222954818Y-27112000D01*
X225063000Y-27451000D02*
X226314000Y-28702000D01*
X223293818Y-27451000D02*
X225063000Y-27451000D01*
%TO.N,IORD*%
X215442800Y-66802000D02*
X215493600Y-66852800D01*
X215290400Y-62001400D02*
X215392000Y-61899800D01*
X189534800Y-62001400D02*
X215290400Y-62001400D01*
X215493600Y-66852800D02*
X219989400Y-66852800D01*
%TO.N,IO40*%
X196189600Y-75463400D02*
X207797400Y-75463400D01*
X220192600Y-110007400D02*
X220421200Y-109778800D01*
X193014600Y-43789600D02*
X196672200Y-43789600D01*
X207797400Y-75463400D02*
X208000600Y-75260200D01*
X192938400Y-43713400D02*
X193014600Y-43789600D01*
X208624400Y-110007400D02*
X220192600Y-110007400D01*
%TO.N,INT4*%
X219456000Y-126111000D02*
X219633800Y-125933200D01*
X175742600Y-126111000D02*
X219456000Y-126111000D01*
%TO.N,GPIO8*%
X180695600Y-73660000D02*
X180136800Y-74218800D01*
X180365400Y-60960000D02*
X180289200Y-60883800D01*
X185928000Y-73660000D02*
X180695600Y-73660000D01*
X221520000Y-60960000D02*
X180365400Y-60960000D01*
%TO.N,INT3*%
X186283600Y-43662600D02*
X186461400Y-43484800D01*
X187223400Y-59359800D02*
X187706000Y-59842400D01*
X197978800Y-90398600D02*
X207746600Y-90398600D01*
X187706000Y-59842400D02*
X196621400Y-59842400D01*
X220598314Y-117754400D02*
X220816399Y-117972485D01*
X207924400Y-117754400D02*
X220598314Y-117754400D01*
X180746400Y-43662600D02*
X186283600Y-43662600D01*
X207746600Y-90398600D02*
X207924400Y-90576400D01*
%TO.N,/GPIO18*%
X196869000Y-47741818D02*
X196869000Y-48778182D01*
X160411988Y-46971000D02*
X196098182Y-46971000D01*
X197489409Y-49398591D02*
X197601818Y-49511000D01*
X197874818Y-49784000D02*
X215758800Y-49784000D01*
X196869000Y-48778182D02*
X197489409Y-49398591D01*
X215758800Y-37022000D02*
X216309800Y-37573000D01*
X196098182Y-46971000D02*
X196869000Y-47741818D01*
X224682000Y-37573000D02*
X224790000Y-37465000D01*
X216309800Y-37573000D02*
X224682000Y-37573000D01*
X197489409Y-49398591D02*
X197874818Y-49784000D01*
X160407920Y-46966932D02*
X160411988Y-46971000D01*
%TO.N,GPIO6*%
X185928000Y-71120000D02*
X170383200Y-71120000D01*
X221520000Y-58420000D02*
X170561000Y-58420000D01*
X170561000Y-58420000D02*
X170180000Y-58039000D01*
X170383200Y-71120000D02*
X170053000Y-70789800D01*
%TO.N,IOWR*%
X190987200Y-69037200D02*
X191368200Y-68656200D01*
X191368200Y-68656200D02*
X220116400Y-68656200D01*
%TO.N,/GPIO22*%
X225063000Y-22371000D02*
X226314000Y-23622000D01*
X181610000Y-23876000D02*
X181705000Y-23971000D01*
X214103000Y-22371000D02*
X225063000Y-22371000D01*
X180467000Y-40767000D02*
X180721000Y-40513000D01*
X169926000Y-40767000D02*
X180467000Y-40767000D01*
X212503000Y-23971000D02*
X214103000Y-22371000D01*
X181705000Y-23971000D02*
X212503000Y-23971000D01*
%TO.N,GPIO2*%
X160477200Y-53416200D02*
X160070800Y-53009800D01*
X183972200Y-53416200D02*
X160477200Y-53416200D01*
X221520000Y-53340000D02*
X184048400Y-53340000D01*
X184048400Y-53340000D02*
X183972200Y-53416200D01*
%TO.N,GPIO26*%
X187179000Y-97771000D02*
X185928000Y-96520000D01*
X179273200Y-96520000D02*
X178638200Y-97155000D01*
X178308000Y-145923000D02*
X182245000Y-145923000D01*
X185928000Y-96520000D02*
X179273200Y-96520000D01*
X207924400Y-38506400D02*
X207949800Y-38531800D01*
X185420000Y-38506400D02*
X207924400Y-38506400D01*
X182245000Y-145923000D02*
X184404000Y-143764000D01*
X209325400Y-97663000D02*
X209217400Y-97771000D01*
X209217400Y-97771000D02*
X187179000Y-97771000D01*
%TO.N,IO30*%
X203708000Y-42418000D02*
X203108600Y-43017400D01*
X219964000Y-106273600D02*
X204470000Y-106273600D01*
X203108600Y-43017400D02*
X195479400Y-43017400D01*
X204470000Y-106273600D02*
X204165200Y-106578400D01*
X195479400Y-43017400D02*
X195478400Y-43016400D01*
%TO.N,INT1*%
X197121600Y-116840000D02*
X196570600Y-116289000D01*
X196723000Y-125095000D02*
X181965600Y-125095000D01*
X181965600Y-125095000D02*
X181711600Y-125349000D01*
X221488000Y-116840000D02*
X197121600Y-116840000D01*
%TO.N,GPIO14*%
X182200600Y-147555000D02*
X185693000Y-147555000D01*
X192833000Y-147555000D02*
X188195000Y-147555000D01*
X202475000Y-147555000D02*
X201224000Y-146304000D01*
X185693000Y-147555000D02*
X186944000Y-146304000D01*
X215504000Y-146304000D02*
X214253000Y-147555000D01*
X209615000Y-147555000D02*
X208364000Y-146304000D01*
X214253000Y-147555000D02*
X209615000Y-147555000D01*
X188823600Y-135875800D02*
X181748200Y-135875800D01*
X195335000Y-147555000D02*
X194084000Y-146304000D01*
X207113000Y-147555000D02*
X202475000Y-147555000D01*
X182016400Y-147370800D02*
X182200600Y-147555000D01*
X194084000Y-146304000D02*
X192833000Y-147555000D01*
X195072000Y-74066400D02*
X190017400Y-74066400D01*
X208364000Y-146304000D02*
X207113000Y-147555000D01*
X190017400Y-74066400D02*
X189890400Y-73939400D01*
X199973000Y-147555000D02*
X195335000Y-147555000D01*
X188195000Y-147555000D02*
X186944000Y-146304000D01*
X201224000Y-146304000D02*
X199973000Y-147555000D01*
%TO.N,GPIO4*%
X185928000Y-68580000D02*
X165227000Y-68580000D01*
X221520000Y-55880000D02*
X165354000Y-55880000D01*
X165227000Y-68580000D02*
X165100000Y-68707000D01*
X165354000Y-55880000D02*
X165150800Y-55676800D01*
%TO.N,GPIO15*%
X206883000Y-115798600D02*
X201879200Y-115798600D01*
X191544000Y-146304000D02*
X190293000Y-145053000D01*
X199378800Y-79908400D02*
X198695200Y-80592000D01*
X190293000Y-145053000D02*
X185655000Y-145053000D01*
X212964000Y-146304000D02*
X211713000Y-145053000D01*
X201879200Y-115798600D02*
X201701400Y-115620800D01*
X185655000Y-145053000D02*
X184404000Y-146304000D01*
X183896000Y-127177800D02*
X183692800Y-126974600D01*
X197433000Y-145053000D02*
X192795000Y-145053000D01*
X189156000Y-80592000D02*
X188468000Y-81280000D01*
X206451200Y-92786200D02*
X206857600Y-93192600D01*
X204573000Y-145053000D02*
X199935000Y-145053000D01*
X199935000Y-145053000D02*
X198684000Y-146304000D01*
X193852800Y-123291600D02*
X193294000Y-122732800D01*
X198684000Y-146304000D02*
X197433000Y-145053000D01*
X193243200Y-127177800D02*
X183896000Y-127177800D01*
X205824000Y-146304000D02*
X204573000Y-145053000D01*
X199999600Y-92786200D02*
X206451200Y-92786200D01*
X211713000Y-145053000D02*
X207075000Y-145053000D01*
X207075000Y-145053000D02*
X205824000Y-146304000D01*
X198695200Y-80592000D02*
X189156000Y-80592000D01*
X201320400Y-123291600D02*
X193852800Y-123291600D01*
X192795000Y-145053000D02*
X191544000Y-146304000D01*
%TO.N,/GPIO16*%
X158877000Y-36957000D02*
X159004000Y-36830000D01*
X174045000Y-37577200D02*
X174244000Y-37378200D01*
X189118200Y-40497800D02*
X204509836Y-40497800D01*
X174244000Y-37378200D02*
X174488560Y-37622760D01*
X204509836Y-40497800D02*
X204992436Y-40015200D01*
X206021000Y-40015200D02*
X206375000Y-40369200D01*
X206866200Y-39878000D02*
X226568000Y-39878000D01*
X174488560Y-37622760D02*
X189057445Y-37622760D01*
X159004000Y-36830000D02*
X159056800Y-36777200D01*
X189103000Y-40513000D02*
X189118200Y-40497800D01*
X159056800Y-36777200D02*
X172085000Y-36777200D01*
X206375000Y-40369200D02*
X206866200Y-39878000D01*
X154813000Y-36957000D02*
X158877000Y-36957000D01*
X204992436Y-40015200D02*
X206021000Y-40015200D01*
X172885000Y-37577200D02*
X174045000Y-37577200D01*
X172085000Y-36777200D02*
X172885000Y-37577200D01*
%TO.N,/GPIO19*%
X212344000Y-30353000D02*
X218059000Y-30353000D01*
X195796094Y-32766000D02*
X196305601Y-32256493D01*
X163405560Y-38322760D02*
X179959000Y-38322760D01*
X218421000Y-29991000D02*
X225063000Y-29991000D01*
X162560000Y-37477200D02*
X163405560Y-38322760D01*
X196305601Y-32256493D02*
X212465910Y-32256493D01*
X218059000Y-30353000D02*
X218421000Y-29991000D01*
X179959000Y-32766000D02*
X195796094Y-32766000D01*
X225063000Y-29991000D02*
X226314000Y-31242000D01*
%TO.N,IO20*%
X203149200Y-104038400D02*
X202996800Y-104190800D01*
X203454000Y-46786800D02*
X203269800Y-46971000D01*
X199371000Y-46971000D02*
X198120000Y-45720000D01*
X203269800Y-46971000D02*
X199371000Y-46971000D01*
X220014800Y-104038400D02*
X203149200Y-104038400D01*
%TO.N,GPIO5*%
X169627600Y-69831000D02*
X187217000Y-69831000D01*
X220243400Y-57454800D02*
X220126600Y-57338000D01*
X169534800Y-57338000D02*
X169189400Y-57683400D01*
X220126600Y-57338000D02*
X169534800Y-57338000D01*
X169189400Y-69392800D02*
X169627600Y-69831000D01*
X187217000Y-69831000D02*
X188468000Y-68580000D01*
%TO.N,GPIO7*%
X187217000Y-72371000D02*
X172726400Y-72371000D01*
X219136000Y-59141400D02*
X193244200Y-59141400D01*
X193294000Y-54965600D02*
X172872400Y-54965600D01*
X172726400Y-72371000D02*
X172516800Y-72161400D01*
X220091000Y-60096400D02*
X219136000Y-59141400D01*
X193244200Y-59141400D02*
X193243200Y-59142400D01*
X188468000Y-71120000D02*
X187217000Y-72371000D01*
X172872400Y-54965600D02*
X172720000Y-55118000D01*
%TO.N,GPIO0*%
X186156600Y-50698400D02*
X154711400Y-50698400D01*
X221520000Y-50800000D02*
X221418400Y-50698400D01*
X221418400Y-50698400D02*
X186156600Y-50698400D01*
%TO.N,GPIO44*%
X221488000Y-91440000D02*
X206933800Y-91440000D01*
X198272400Y-91440000D02*
X197967600Y-91744800D01*
X198475600Y-118059200D02*
X198443800Y-118091000D01*
X206933800Y-91440000D02*
X198272400Y-91440000D01*
X191312800Y-30022800D02*
X207010000Y-30022800D01*
X187217000Y-118091000D02*
X185928000Y-119380000D01*
X198443800Y-118091000D02*
X187217000Y-118091000D01*
X207010000Y-30022800D02*
X207187800Y-29845000D01*
%TO.N,GPIO39*%
X200075036Y-111760000D02*
X201091036Y-110744000D01*
X178612800Y-112699800D02*
X184937400Y-112699800D01*
X201091036Y-110744000D02*
X215112600Y-110744000D01*
X188468000Y-111760000D02*
X200075036Y-111760000D01*
X182462400Y-80732400D02*
X178522400Y-80732400D01*
X173913800Y-42265600D02*
X183769000Y-42265600D01*
X182702200Y-80492600D02*
X182462400Y-80732400D01*
X178522400Y-80732400D02*
X178206400Y-80416400D01*
X183769000Y-42265600D02*
X183972200Y-42468800D01*
X177673000Y-111760000D02*
X178612800Y-112699800D01*
X214172800Y-85660000D02*
X220091000Y-85660000D01*
%TO.N,GPIO47*%
X207263236Y-121920000D02*
X188468000Y-121920000D01*
X208040436Y-121142800D02*
X207263236Y-121920000D01*
X218069200Y-121142800D02*
X208040436Y-121142800D01*
X198755000Y-34874200D02*
X218490800Y-34874200D01*
X218490800Y-34874200D02*
X219024200Y-35407600D01*
X218135200Y-121208800D02*
X218069200Y-121142800D01*
%TO.N,GPIO43*%
X217017600Y-113944400D02*
X217449400Y-113512600D01*
X189484000Y-29133800D02*
X217093800Y-29133800D01*
X193751200Y-113944400D02*
X217017600Y-113944400D01*
X188468000Y-116840000D02*
X193497200Y-116840000D01*
X217525600Y-90740000D02*
X219989400Y-90740000D01*
X193497200Y-116840000D02*
X193624200Y-116967000D01*
X217093800Y-29133800D02*
X217474800Y-29514800D01*
%TO.N,GPIO37*%
X219952800Y-84658200D02*
X220091000Y-84520000D01*
X213614000Y-84658200D02*
X219952800Y-84658200D01*
X184101818Y-109205037D02*
X185324260Y-110427479D01*
X171613600Y-109169200D02*
X171649437Y-109205037D01*
X188468000Y-109220000D02*
X212775800Y-109220000D01*
X171649437Y-109205037D02*
X184101818Y-109205037D01*
X212775800Y-109220000D02*
X213283800Y-108712000D01*
%TO.N,GPIO38*%
X183515000Y-83794600D02*
X183540400Y-83820000D01*
X170637200Y-43967400D02*
X176453800Y-43967400D01*
X194900600Y-110471000D02*
X195021200Y-110591600D01*
X187217000Y-110471000D02*
X194900600Y-110471000D01*
X185928000Y-111760000D02*
X187217000Y-110471000D01*
X176809400Y-83794600D02*
X183515000Y-83794600D01*
X221488000Y-83820000D02*
X195354400Y-83820000D01*
X195354400Y-83820000D02*
X195202000Y-83667600D01*
%TO.N,GPIO46*%
X194183000Y-69545200D02*
X198628000Y-69545200D01*
X221488000Y-93980000D02*
X198769200Y-93980000D01*
X198769200Y-93980000D02*
X198667600Y-93878400D01*
X198628000Y-69545200D02*
X198678800Y-69596000D01*
X187179000Y-120669000D02*
X185928000Y-121920000D01*
X198596200Y-120669000D02*
X187179000Y-120669000D01*
X198628000Y-120700800D02*
X198596200Y-120669000D01*
%TO.N,GPIO36*%
X182930800Y-90347800D02*
X183089600Y-90189000D01*
X194360800Y-108305600D02*
X194024200Y-107969000D01*
X187179000Y-107969000D02*
X185928000Y-109220000D01*
X165989000Y-80772000D02*
X166649400Y-81432400D01*
X183089600Y-90189000D02*
X194470200Y-90189000D01*
X194603600Y-81280000D02*
X194502000Y-81381600D01*
X194470200Y-90189000D02*
X194502000Y-90220800D01*
X166649400Y-81432400D02*
X182829200Y-81432400D01*
X221488000Y-81280000D02*
X194603600Y-81280000D01*
X194024200Y-107969000D02*
X187179000Y-107969000D01*
%TO.N,GPIO33*%
X180473400Y-105391000D02*
X180340000Y-105257600D01*
X158419800Y-77419200D02*
X158451600Y-77451000D01*
X187697182Y-104140000D02*
X186446182Y-105391000D01*
X186446182Y-105391000D02*
X180473400Y-105391000D01*
X180771800Y-77451000D02*
X219564000Y-77451000D01*
X219564000Y-77451000D02*
X219913200Y-77800200D01*
X158451600Y-77451000D02*
X180771800Y-77451000D01*
X188468000Y-104140000D02*
X187697182Y-104140000D01*
%TO.N,GPIO32*%
X193395600Y-76200000D02*
X193090800Y-75895200D01*
X192144600Y-74949000D02*
X193090800Y-75895200D01*
X187198000Y-102870000D02*
X185928000Y-104140000D01*
X192144600Y-74949000D02*
X161162000Y-74949000D01*
X161162000Y-74949000D02*
X160266600Y-75844400D01*
X192989200Y-102870000D02*
X187198000Y-102870000D01*
X221520000Y-76200000D02*
X193395600Y-76200000D01*
X160266600Y-75844400D02*
X156286200Y-75844400D01*
%TO.N,GPIO40*%
X221488000Y-86360000D02*
X195952800Y-86360000D01*
X179940000Y-85109000D02*
X194701800Y-85109000D01*
X187179000Y-113049000D02*
X185928000Y-114300000D01*
X178765200Y-86283800D02*
X179940000Y-85109000D01*
X196018200Y-113049000D02*
X187179000Y-113049000D01*
X195952800Y-86360000D02*
X195902000Y-86309200D01*
X196240400Y-112826800D02*
X196018200Y-113049000D01*
X194701800Y-85109000D02*
X195902000Y-86309200D01*
%TO.N,GPIO42*%
X197256400Y-115671600D02*
X197173800Y-115589000D01*
X187179000Y-115589000D02*
X185928000Y-116840000D01*
X187121800Y-32054800D02*
X193573400Y-32054800D01*
X191689800Y-88900000D02*
X196646800Y-88900000D01*
X221488000Y-88900000D02*
X196646800Y-88900000D01*
X186918600Y-31851600D02*
X187121800Y-32054800D01*
X197173800Y-115589000D02*
X187179000Y-115589000D01*
X191588200Y-89001600D02*
X191689800Y-88900000D01*
%TO.N,GPIO35*%
X189067400Y-107279400D02*
X214756000Y-107279400D01*
X214985600Y-80568800D02*
X219329000Y-80568800D01*
X214223600Y-80580000D02*
X214974400Y-80580000D01*
X214974400Y-80580000D02*
X214985600Y-80568800D01*
X166452600Y-82531000D02*
X213810800Y-82531000D01*
X188468000Y-106680000D02*
X189067400Y-107279400D01*
X213810800Y-82531000D02*
X214299800Y-82042000D01*
X164642800Y-80721200D02*
X166452600Y-82531000D01*
X214756000Y-107279400D02*
X215061800Y-106973600D01*
X219329000Y-80568800D02*
X219786200Y-80111600D01*
%TO.N,GPIO34*%
X221488000Y-78740000D02*
X194005200Y-78740000D01*
X161315400Y-78151000D02*
X183569818Y-78151000D01*
X187198000Y-106180818D02*
X187198000Y-106680000D01*
X193802000Y-105359200D02*
X193770200Y-105391000D01*
X192347800Y-79991000D02*
X193802000Y-78536800D01*
X187987818Y-105391000D02*
X187198000Y-106180818D01*
X193770200Y-105391000D02*
X187987818Y-105391000D01*
X185409818Y-79991000D02*
X192347800Y-79991000D01*
X194005200Y-78740000D02*
X193802000Y-78536800D01*
X187198000Y-106680000D02*
X185928000Y-106680000D01*
X183569818Y-78151000D02*
X185409818Y-79991000D01*
%TO.N,GPIO45*%
X219989400Y-93116400D02*
X220091000Y-93014800D01*
X196519800Y-33883600D02*
X219659200Y-33883600D01*
X218112400Y-118779000D02*
X218211400Y-118680000D01*
X219659200Y-33883600D02*
X220091000Y-34315400D01*
X218324200Y-93116400D02*
X219989400Y-93116400D01*
X188468000Y-119380000D02*
X189069000Y-118779000D01*
X189069000Y-118779000D02*
X218112400Y-118779000D01*
%TO.N,GPIO41*%
X193319400Y-114655600D02*
X216422200Y-114655600D01*
X216774800Y-87934800D02*
X220167200Y-87934800D01*
X184251600Y-27813000D02*
X216382600Y-27813000D01*
X216382600Y-27813000D02*
X216458800Y-27889200D01*
X220167200Y-87934800D02*
X220294200Y-87807800D01*
X192760600Y-114300000D02*
X192862200Y-114198400D01*
X192862200Y-114198400D02*
X193319400Y-114655600D01*
X188468000Y-114300000D02*
X192760600Y-114300000D01*
X216422200Y-114655600D02*
X216433400Y-114644400D01*
%TO.N,DREQ2*%
X220431400Y-125232200D02*
X213208600Y-125232200D01*
X213208600Y-125232200D02*
X213029800Y-125411000D01*
X220903800Y-125704600D02*
X220431400Y-125232200D01*
%TO.N,DREQ3*%
X215504000Y-138684000D02*
X218871800Y-138684000D01*
X218871800Y-138684000D02*
X219024200Y-138531600D01*
%TO.N,DACK2*%
X212877400Y-124460000D02*
X212775800Y-124358400D01*
X221488000Y-124460000D02*
X212877400Y-124460000D01*
%TO.N,DACK3*%
X215823800Y-127000000D02*
X215569800Y-127254000D01*
X221488000Y-127000000D02*
X215823800Y-127000000D01*
%TO.N,DREQ0*%
X220816399Y-120512485D02*
X220746714Y-120442800D01*
X205917800Y-135331200D02*
X205689200Y-135102600D01*
X208483200Y-135331200D02*
X205917800Y-135331200D01*
X220746714Y-120442800D02*
X209042000Y-120442800D01*
%TO.N,DACK1*%
X208407000Y-121920000D02*
X208330800Y-121843800D01*
X221488000Y-121920000D02*
X208407000Y-121920000D01*
%TO.N,DACK0*%
X221488000Y-119380000D02*
X205040000Y-119380000D01*
X205040000Y-119380000D02*
X204582800Y-119837200D01*
%TO.N,DREQ1*%
X221335600Y-123120000D02*
X208527800Y-123120000D01*
X208527800Y-123120000D02*
X208254600Y-123393200D01*
%TO.N,EOF*%
X201066400Y-111760000D02*
X200710800Y-112115600D01*
X220294200Y-111760000D02*
X201066400Y-111760000D01*
%TO.N,BOUT*%
X210794600Y-112649000D02*
X203555600Y-112649000D01*
X198221600Y-125272800D02*
X198043800Y-125095000D01*
X200635000Y-125272800D02*
X198221600Y-125272800D01*
X201524000Y-120116600D02*
X200635000Y-121005600D01*
X203555600Y-112649000D02*
X203504800Y-112598200D01*
X220014800Y-74396600D02*
X211556600Y-74396600D01*
X203276200Y-120116600D02*
X201524000Y-120116600D01*
%TO.N,TC*%
X221520000Y-96520000D02*
X199898000Y-96520000D01*
%TO.N,BIN*%
X213766400Y-126873000D02*
X201701400Y-126873000D01*
X201701400Y-126873000D02*
X201447400Y-127127000D01*
X220243400Y-70967600D02*
X213106000Y-70967600D01*
%TO.N,READY*%
X191541400Y-134366000D02*
X191465200Y-134289800D01*
X209931000Y-134366000D02*
X191541400Y-134366000D01*
X208864200Y-44094400D02*
X208661000Y-43891200D01*
X220116400Y-44094400D02*
X208864200Y-44094400D01*
%TO.N,HLDACK*%
X183540400Y-79603600D02*
X183819800Y-79883000D01*
X184613518Y-106987645D02*
X181561155Y-106987645D01*
X178212800Y-64751000D02*
X177825400Y-64363600D01*
X181561155Y-106987645D02*
X180929000Y-107619800D01*
X177749200Y-79603600D02*
X183540400Y-79603600D01*
X191516000Y-136855200D02*
X191544000Y-136883200D01*
X191544000Y-136883200D02*
X191544000Y-138684000D01*
X188986182Y-64751000D02*
X178212800Y-64751000D01*
X190979292Y-62757890D02*
X188986182Y-64751000D01*
X180416200Y-136550400D02*
X180441600Y-136575800D01*
X220473913Y-62757890D02*
X190979292Y-62757890D01*
X180441600Y-136575800D02*
X191516000Y-136575800D01*
X191516000Y-136575800D02*
X191516000Y-136855200D01*
%TO.N,RESET*%
X205079600Y-132435600D02*
X194005200Y-132435600D01*
X220040200Y-40970200D02*
X205536800Y-40970200D01*
X194005200Y-132435600D02*
X193827400Y-132613400D01*
X205536800Y-40970200D02*
X205282800Y-40716200D01*
%TO.N,WAIT*%
X221520000Y-43180000D02*
X206033600Y-43180000D01*
X205968600Y-133070600D02*
X205384400Y-133654800D01*
X206033600Y-43180000D02*
X205982800Y-43129200D01*
X205384400Y-133654800D02*
X193319400Y-133654800D01*
%TO.N,REF*%
X220065600Y-99760000D02*
X219514600Y-100311000D01*
X219514600Y-100311000D02*
X182480000Y-100311000D01*
X184302400Y-138582400D02*
X184404000Y-138684000D01*
X182194200Y-138582400D02*
X184302400Y-138582400D01*
X182480000Y-100311000D02*
X182448200Y-100279200D01*
%TO.N,LED2*%
X171881800Y-83464400D02*
X158049400Y-83464400D01*
X158049400Y-83464400D02*
X156815000Y-82230000D01*
%TO.N,LED4*%
X168910000Y-110490000D02*
X173990000Y-110490000D01*
X156815000Y-112710000D02*
X157135000Y-113030000D01*
X157135000Y-113030000D02*
X168910000Y-113030000D01*
%TO.N,LED6*%
X157200200Y-89865200D02*
X168325800Y-89865200D01*
X168579800Y-115570000D02*
X173990000Y-115570000D01*
X168249600Y-115900200D02*
X168579800Y-115570000D01*
X156815000Y-89480000D02*
X157200200Y-89865200D01*
%TO.N,LED7*%
X166979600Y-118160800D02*
X167030400Y-118110000D01*
X167030400Y-118110000D02*
X173990000Y-118110000D01*
X166353601Y-97399999D02*
X166801800Y-96951800D01*
X157114999Y-97399999D02*
X166353601Y-97399999D01*
X156815000Y-97100000D02*
X157114999Y-97399999D01*
%TO.N,LED3*%
X171190601Y-139679999D02*
X171602400Y-139268200D01*
X157114999Y-139679999D02*
X171190601Y-139679999D01*
X156815000Y-139380000D02*
X157114999Y-139679999D01*
%TO.N,LED5*%
X173837600Y-113182400D02*
X173990000Y-113030000D01*
X170880000Y-113182400D02*
X173837600Y-113182400D01*
X156815000Y-130490000D02*
X157114999Y-130789999D01*
X157114999Y-130789999D02*
X170885801Y-130789999D01*
X170885801Y-130789999D02*
X171170600Y-130505200D01*
%TO.N,LED0*%
X156815000Y-105090000D02*
X157135000Y-105410000D01*
X167640000Y-100330000D02*
X173990000Y-100330000D01*
X157135000Y-105410000D02*
X167640000Y-105410000D01*
%TO.N,LED1*%
X170180000Y-102870000D02*
X173990000Y-102870000D01*
X157135000Y-121920000D02*
X170180000Y-121920000D01*
X156815000Y-121600000D02*
X157135000Y-121920000D01*
%TO.N,Net-(J2-{slash}A14)*%
X239750000Y-94105000D02*
X223613000Y-94105000D01*
X223613000Y-94105000D02*
X223488000Y-93980000D01*
%TO.N,Net-(J2-{slash}A8)*%
X223613000Y-86485000D02*
X223488000Y-86360000D01*
X239750000Y-86485000D02*
X223613000Y-86485000D01*
%TO.N,Net-(J2-{slash}A6)*%
X223613000Y-83945000D02*
X223488000Y-83820000D01*
X239750000Y-83945000D02*
X223613000Y-83945000D01*
%TO.N,Net-(J2-{slash}A4)*%
X223613000Y-81405000D02*
X223488000Y-81280000D01*
X239750000Y-81405000D02*
X223613000Y-81405000D01*
%TO.N,Net-(J2-{slash}A2)*%
X239750000Y-78865000D02*
X223613000Y-78865000D01*
X223613000Y-78865000D02*
X223488000Y-78740000D01*
%TO.N,Net-(J2-{slash}A0)*%
X239750000Y-76325000D02*
X223645000Y-76325000D01*
X223645000Y-76325000D02*
X223520000Y-76200000D01*
%TO.N,Net-(J2-{slash}DB6)*%
X239750000Y-58545000D02*
X223645000Y-58545000D01*
X223645000Y-58545000D02*
X223520000Y-58420000D01*
%TO.N,Net-(J2-{slash}DB4)*%
X239750000Y-56005000D02*
X223645000Y-56005000D01*
X223645000Y-56005000D02*
X223520000Y-55880000D01*
%TO.N,Net-(J2-{slash}DB2)*%
X239750000Y-53465000D02*
X223645000Y-53465000D01*
X223645000Y-53465000D02*
X223520000Y-53340000D01*
%TO.N,Net-(J2-{slash}MEMWR)*%
X223645000Y-66165000D02*
X223520000Y-66040000D01*
X239750000Y-66165000D02*
X223645000Y-66165000D01*
%TO.N,Net-(J2-{slash}MEMRD)*%
X223645000Y-63625000D02*
X223520000Y-63500000D01*
X239750000Y-63625000D02*
X223645000Y-63625000D01*
%TO.N,Net-(J2-{slash}DB8)*%
X223645000Y-61085000D02*
X223520000Y-60960000D01*
X239750000Y-61085000D02*
X223645000Y-61085000D01*
%TO.N,Net-(J2-{slash}DB0)*%
X223645000Y-50925000D02*
X223520000Y-50800000D01*
X239750000Y-50925000D02*
X223645000Y-50925000D01*
%TO.N,Net-(J2-{slash}A12)*%
X239750000Y-91565000D02*
X223613000Y-91565000D01*
X223613000Y-91565000D02*
X223488000Y-91440000D01*
%TO.N,Net-(J2-{slash}A10)*%
X239750000Y-89025000D02*
X223613000Y-89025000D01*
X223613000Y-89025000D02*
X223488000Y-88900000D01*
%TO.N,Net-(J2-{slash}IO60)*%
X223645000Y-101725000D02*
X223520000Y-101600000D01*
X239750000Y-101725000D02*
X223645000Y-101725000D01*
%TO.N,Net-(J2-{slash}INTERRUPT1)*%
X239750000Y-116965000D02*
X223613000Y-116965000D01*
X223613000Y-116965000D02*
X223488000Y-116840000D01*
%TO.N,Net-(J2-{slash}DACK0)*%
X223613000Y-119505000D02*
X223488000Y-119380000D01*
X239750000Y-119505000D02*
X223613000Y-119505000D01*
%TO.N,Net-(J2-{slash}DACK1)*%
X223613000Y-122045000D02*
X223488000Y-121920000D01*
X239750000Y-122045000D02*
X223613000Y-122045000D01*
%TO.N,Net-(J2-{slash}DACK2)*%
X239750000Y-124585000D02*
X223613000Y-124585000D01*
X223613000Y-124585000D02*
X223488000Y-124460000D01*
%TO.N,Net-(J2-{slash}DACK3)*%
X223613000Y-127125000D02*
X223488000Y-127000000D01*
X239750000Y-127125000D02*
X223613000Y-127125000D01*
%TO.N,Net-(J2-{slash}PARITYERROR)*%
X223645000Y-99185000D02*
X223520000Y-99060000D01*
X239750000Y-99185000D02*
X223645000Y-99185000D01*
%TO.N,Net-(J2-{slash}TC)*%
X239750000Y-96645000D02*
X223645000Y-96645000D01*
X223645000Y-96645000D02*
X223520000Y-96520000D01*
%TO.N,Net-(J2-{slash}WAIT)*%
X223645000Y-43305000D02*
X223520000Y-43180000D01*
X239750000Y-43305000D02*
X223645000Y-43305000D01*
%TO.N,SD_DAT1*%
X195818800Y-33593236D02*
X196228436Y-33183600D01*
X149573917Y-61214000D02*
X147447000Y-61214000D01*
X147066000Y-32131000D02*
X148528236Y-33593236D01*
X196228436Y-33183600D02*
X218186000Y-33183600D01*
X150296917Y-61937000D02*
X149573917Y-61214000D01*
X148528236Y-33593236D02*
X195818800Y-33593236D01*
X218186000Y-28702000D02*
X223774000Y-28702000D01*
X160022000Y-61937000D02*
X150296917Y-61937000D01*
%TO.N,SD_DAT2*%
X208863200Y-70297000D02*
X209804000Y-69356200D01*
X162951200Y-86370200D02*
X178054000Y-86370200D01*
X161798000Y-85217000D02*
X162951200Y-86370200D01*
X209169000Y-26162000D02*
X223774000Y-26162000D01*
X197028800Y-70297000D02*
X208863200Y-70297000D01*
X160022000Y-69637000D02*
X161885000Y-69637000D01*
X179640000Y-92710000D02*
X190463400Y-92710000D01*
X179058512Y-86984800D02*
X179532241Y-86511071D01*
X190463400Y-92710000D02*
X190590400Y-92837000D01*
X178474836Y-86984800D02*
X179058512Y-86984800D01*
X190590400Y-87376000D02*
X196850000Y-87376000D01*
X178064200Y-86574164D02*
X178474836Y-86984800D01*
X178064200Y-86360000D02*
X178064200Y-86574164D01*
X178054000Y-86370200D02*
X178064200Y-86360000D01*
X161885000Y-69637000D02*
X161971000Y-69723000D01*
X196977000Y-70245200D02*
X197028800Y-70297000D01*
%TO.N,MISO_DO*%
X159992000Y-34194236D02*
X190627000Y-34194236D01*
X190627000Y-34194236D02*
X190990000Y-34194236D01*
X190990000Y-34194236D02*
X191089000Y-34293236D01*
X149915917Y-63458000D02*
X146643000Y-63458000D01*
X146177000Y-31369000D02*
X150349615Y-31369000D01*
X150336917Y-63037000D02*
X149915917Y-63458000D01*
X160022000Y-63037000D02*
X150336917Y-63037000D01*
X150349615Y-31369000D02*
X151238615Y-32258000D01*
X191008000Y-36703000D02*
X191389000Y-36322000D01*
X191389000Y-36322000D02*
X223774000Y-36322000D01*
X159893000Y-34293236D02*
X159992000Y-34194236D01*
X151238615Y-32258000D02*
X159766000Y-32258000D01*
X146643000Y-63458000D02*
X146304000Y-63119000D01*
%TO.N,SD_SS*%
X191416000Y-37404000D02*
X191897000Y-36923000D01*
X153368658Y-44312800D02*
X153227236Y-44312800D01*
X189574636Y-37150000D02*
X190307000Y-37150000D01*
X154351000Y-51512000D02*
X153689000Y-50850000D01*
X189305818Y-36881182D02*
X189574636Y-37150000D01*
X153689000Y-44633142D02*
X153368658Y-44312800D01*
X190561000Y-37404000D02*
X191416000Y-37404000D01*
X159004000Y-43307000D02*
X159344400Y-42966600D01*
X158607800Y-42910800D02*
X159004000Y-43307000D01*
X153227236Y-44312800D02*
X152816600Y-43902164D01*
X152816600Y-43321436D02*
X153227236Y-42910800D01*
X154648000Y-68537000D02*
X154351000Y-68834000D01*
X191897000Y-36923000D02*
X213896000Y-36923000D01*
X189201836Y-36777200D02*
X189305818Y-36881182D01*
X173228000Y-36876200D02*
X173327000Y-36777200D01*
X190307000Y-37150000D02*
X190561000Y-37404000D01*
X213896000Y-36923000D02*
X213995000Y-37022000D01*
X153227236Y-42910800D02*
X158607800Y-42910800D01*
X213995000Y-23622000D02*
X223774000Y-23622000D01*
X160022000Y-68537000D02*
X154648000Y-68537000D01*
X159344400Y-42966600D02*
X173141600Y-42966600D01*
X173327000Y-36777200D02*
X189201836Y-36777200D01*
X152816600Y-43902164D02*
X152816600Y-43321436D01*
X153689000Y-50850000D02*
X153689000Y-44633142D01*
X173141600Y-42966600D02*
X173228000Y-43053000D01*
%TO.N,SD_CLK*%
X147996000Y-65237000D02*
X147955000Y-65278000D01*
X213232000Y-35575200D02*
X213233000Y-35574200D01*
X220570600Y-32483600D02*
X221869000Y-33782000D01*
X160022000Y-65237000D02*
X147996000Y-65237000D01*
X149007400Y-34417000D02*
X150165600Y-35575200D01*
X150165600Y-35575200D02*
X213232000Y-35575200D01*
X221869000Y-33782000D02*
X223774000Y-33782000D01*
X213233000Y-32483600D02*
X220570600Y-32483600D01*
%TO.N,MOSI_DI*%
X149726200Y-36176200D02*
X189592200Y-36176200D01*
X189865000Y-31354800D02*
X189977800Y-31242000D01*
X149707400Y-36195000D02*
X149726200Y-36176200D01*
X189977800Y-31242000D02*
X223774000Y-31242000D01*
X149722400Y-52212000D02*
X149707400Y-52197000D01*
X189592200Y-36176200D02*
X189865000Y-36449000D01*
X160022000Y-67437000D02*
X155194000Y-67437000D01*
X155491000Y-52212000D02*
X149722400Y-52212000D01*
%TD*%
M02*
